<?xml version="1.0" encoding="UTF-8" standalone="no"?>
<!-- This is a Stata 18.0 generated SVG file (http://www.stata.com) -->

<svg version="1.1" width="7.500in" height="4.500in" viewBox="0 0 5400 3240" xmlns="http://www.w3.org/2000/svg" xmlns:xlink="http://www.w3.org/1999/xlink">
	<desc>Stata Graph - Graph</desc>
	<rect x="0" y="0" width="5400" height="3240" style="fill:#FFFFFF;stroke:none"/>
	<rect x="0.00" y="0.00" width="5400.00" height="3240.00" style="fill:#FFFFFF"/>
	<rect x="3.24" y="3.24" width="5393.52" height="3233.52" style="fill:none;stroke:#FFFFFF;stroke-width:6.48"/>
	<rect x="590.63" y="113.40" width="4695.98" height="2545.76" style="fill:#FFFFFF"/>
	<rect x="593.87" y="116.64" width="4689.50" height="2539.28" style="fill:none;stroke:#FFFFFF;stroke-width:6.48"/>
	<line x1="590.63" y1="2659.16" x2="655.43" y2="2659.16" style="stroke:#F0F0F0;stroke-width:9.72"/>
	<line x1="687.83" y1="2659.16" x2="752.63" y2="2659.16" style="stroke:#F0F0F0;stroke-width:9.72"/>
	<line x1="785.03" y1="2659.16" x2="849.83" y2="2659.16" style="stroke:#F0F0F0;stroke-width:9.72"/>
	<line x1="882.23" y1="2659.16" x2="947.03" y2="2659.16" style="stroke:#F0F0F0;stroke-width:9.72"/>
	<line x1="979.43" y1="2659.16" x2="1044.22" y2="2659.16" style="stroke:#F0F0F0;stroke-width:9.72"/>
	<line x1="1076.63" y1="2659.16" x2="1141.43" y2="2659.16" style="stroke:#F0F0F0;stroke-width:9.72"/>
	<line x1="1173.83" y1="2659.16" x2="1238.63" y2="2659.16" style="stroke:#F0F0F0;stroke-width:9.72"/>
	<line x1="1271.03" y1="2659.16" x2="1335.83" y2="2659.16" style="stroke:#F0F0F0;stroke-width:9.72"/>
	<line x1="1368.23" y1="2659.16" x2="1433.03" y2="2659.16" style="stroke:#F0F0F0;stroke-width:9.72"/>
	<line x1="1465.43" y1="2659.16" x2="1530.23" y2="2659.16" style="stroke:#F0F0F0;stroke-width:9.72"/>
	<line x1="1562.63" y1="2659.16" x2="1627.43" y2="2659.16" style="stroke:#F0F0F0;stroke-width:9.72"/>
	<line x1="1659.83" y1="2659.16" x2="1724.63" y2="2659.16" style="stroke:#F0F0F0;stroke-width:9.72"/>
	<line x1="1757.03" y1="2659.16" x2="1821.83" y2="2659.16" style="stroke:#F0F0F0;stroke-width:9.72"/>
	<line x1="1854.23" y1="2659.16" x2="1919.03" y2="2659.16" style="stroke:#F0F0F0;stroke-width:9.72"/>
	<line x1="1951.43" y1="2659.16" x2="2016.23" y2="2659.16" style="stroke:#F0F0F0;stroke-width:9.72"/>
	<line x1="2048.63" y1="2659.16" x2="2113.43" y2="2659.16" style="stroke:#F0F0F0;stroke-width:9.72"/>
	<line x1="2145.82" y1="2659.16" x2="2210.63" y2="2659.16" style="stroke:#F0F0F0;stroke-width:9.72"/>
	<line x1="2243.03" y1="2659.16" x2="2307.82" y2="2659.16" style="stroke:#F0F0F0;stroke-width:9.72"/>
	<line x1="2340.23" y1="2659.16" x2="2405.03" y2="2659.16" style="stroke:#F0F0F0;stroke-width:9.72"/>
	<line x1="2437.43" y1="2659.16" x2="2502.23" y2="2659.16" style="stroke:#F0F0F0;stroke-width:9.72"/>
	<line x1="2534.63" y1="2659.16" x2="2599.43" y2="2659.16" style="stroke:#F0F0F0;stroke-width:9.72"/>
	<line x1="2631.83" y1="2659.16" x2="2696.63" y2="2659.16" style="stroke:#F0F0F0;stroke-width:9.72"/>
	<line x1="2729.03" y1="2659.16" x2="2793.83" y2="2659.16" style="stroke:#F0F0F0;stroke-width:9.72"/>
	<line x1="2826.23" y1="2659.16" x2="2891.03" y2="2659.16" style="stroke:#F0F0F0;stroke-width:9.72"/>
	<line x1="2923.43" y1="2659.16" x2="2988.23" y2="2659.16" style="stroke:#F0F0F0;stroke-width:9.72"/>
	<line x1="3020.63" y1="2659.16" x2="3085.43" y2="2659.16" style="stroke:#F0F0F0;stroke-width:9.72"/>
	<line x1="3117.83" y1="2659.16" x2="3182.63" y2="2659.16" style="stroke:#F0F0F0;stroke-width:9.72"/>
	<line x1="3215.03" y1="2659.16" x2="3279.83" y2="2659.16" style="stroke:#F0F0F0;stroke-width:9.72"/>
	<line x1="3312.23" y1="2659.16" x2="3377.03" y2="2659.16" style="stroke:#F0F0F0;stroke-width:9.72"/>
	<line x1="3409.43" y1="2659.16" x2="3474.23" y2="2659.16" style="stroke:#F0F0F0;stroke-width:9.72"/>
	<line x1="3506.63" y1="2659.16" x2="3571.43" y2="2659.16" style="stroke:#F0F0F0;stroke-width:9.72"/>
	<line x1="3603.83" y1="2659.16" x2="3668.63" y2="2659.16" style="stroke:#F0F0F0;stroke-width:9.72"/>
	<line x1="3701.03" y1="2659.16" x2="3765.83" y2="2659.16" style="stroke:#F0F0F0;stroke-width:9.72"/>
	<line x1="3798.23" y1="2659.16" x2="3863.03" y2="2659.16" style="stroke:#F0F0F0;stroke-width:9.72"/>
	<line x1="3895.43" y1="2659.16" x2="3960.23" y2="2659.16" style="stroke:#F0F0F0;stroke-width:9.72"/>
	<line x1="3992.63" y1="2659.16" x2="4057.43" y2="2659.16" style="stroke:#F0F0F0;stroke-width:9.72"/>
	<line x1="4089.83" y1="2659.16" x2="4154.63" y2="2659.16" style="stroke:#F0F0F0;stroke-width:9.72"/>
	<line x1="4187.02" y1="2659.16" x2="4251.83" y2="2659.16" style="stroke:#F0F0F0;stroke-width:9.72"/>
	<line x1="4284.23" y1="2659.16" x2="4349.02" y2="2659.16" style="stroke:#F0F0F0;stroke-width:9.72"/>
	<line x1="4381.43" y1="2659.16" x2="4446.23" y2="2659.16" style="stroke:#F0F0F0;stroke-width:9.72"/>
	<line x1="4478.63" y1="2659.16" x2="4543.43" y2="2659.16" style="stroke:#F0F0F0;stroke-width:9.72"/>
	<line x1="4575.83" y1="2659.16" x2="4640.63" y2="2659.16" style="stroke:#F0F0F0;stroke-width:9.72"/>
	<line x1="4673.02" y1="2659.16" x2="4737.83" y2="2659.16" style="stroke:#F0F0F0;stroke-width:9.72"/>
	<line x1="4770.23" y1="2659.16" x2="4835.02" y2="2659.16" style="stroke:#F0F0F0;stroke-width:9.72"/>
	<line x1="4867.43" y1="2659.16" x2="4932.23" y2="2659.16" style="stroke:#F0F0F0;stroke-width:9.72"/>
	<line x1="4964.63" y1="2659.16" x2="5029.43" y2="2659.16" style="stroke:#F0F0F0;stroke-width:9.72"/>
	<line x1="5061.83" y1="2659.16" x2="5126.63" y2="2659.16" style="stroke:#F0F0F0;stroke-width:9.72"/>
	<line x1="5159.02" y1="2659.16" x2="5223.83" y2="2659.16" style="stroke:#F0F0F0;stroke-width:9.72"/>
	<line x1="5256.23" y1="2659.16" x2="5286.60" y2="2659.16" style="stroke:#F0F0F0;stroke-width:9.72"/>
	<line x1="590.63" y1="2172.66" x2="655.43" y2="2172.66" style="stroke:#F0F0F0;stroke-width:9.72"/>
	<line x1="687.83" y1="2172.66" x2="752.63" y2="2172.66" style="stroke:#F0F0F0;stroke-width:9.72"/>
	<line x1="785.03" y1="2172.66" x2="849.83" y2="2172.66" style="stroke:#F0F0F0;stroke-width:9.72"/>
	<line x1="882.23" y1="2172.66" x2="947.03" y2="2172.66" style="stroke:#F0F0F0;stroke-width:9.72"/>
	<line x1="979.43" y1="2172.66" x2="1044.22" y2="2172.66" style="stroke:#F0F0F0;stroke-width:9.72"/>
	<line x1="1076.63" y1="2172.66" x2="1141.43" y2="2172.66" style="stroke:#F0F0F0;stroke-width:9.72"/>
	<line x1="1173.83" y1="2172.66" x2="1238.63" y2="2172.66" style="stroke:#F0F0F0;stroke-width:9.72"/>
	<line x1="1271.03" y1="2172.66" x2="1335.83" y2="2172.66" style="stroke:#F0F0F0;stroke-width:9.72"/>
	<line x1="1368.23" y1="2172.66" x2="1433.03" y2="2172.66" style="stroke:#F0F0F0;stroke-width:9.72"/>
	<line x1="1465.43" y1="2172.66" x2="1530.23" y2="2172.66" style="stroke:#F0F0F0;stroke-width:9.72"/>
	<line x1="1562.63" y1="2172.66" x2="1627.43" y2="2172.66" style="stroke:#F0F0F0;stroke-width:9.72"/>
	<line x1="1659.83" y1="2172.66" x2="1724.63" y2="2172.66" style="stroke:#F0F0F0;stroke-width:9.72"/>
	<line x1="1757.03" y1="2172.66" x2="1821.83" y2="2172.66" style="stroke:#F0F0F0;stroke-width:9.72"/>
	<line x1="1854.23" y1="2172.66" x2="1919.03" y2="2172.66" style="stroke:#F0F0F0;stroke-width:9.72"/>
	<line x1="1951.43" y1="2172.66" x2="2016.23" y2="2172.66" style="stroke:#F0F0F0;stroke-width:9.72"/>
	<line x1="2048.63" y1="2172.66" x2="2113.43" y2="2172.66" style="stroke:#F0F0F0;stroke-width:9.72"/>
	<line x1="2145.82" y1="2172.66" x2="2210.63" y2="2172.66" style="stroke:#F0F0F0;stroke-width:9.72"/>
	<line x1="2243.03" y1="2172.66" x2="2307.82" y2="2172.66" style="stroke:#F0F0F0;stroke-width:9.72"/>
	<line x1="2340.23" y1="2172.66" x2="2405.03" y2="2172.66" style="stroke:#F0F0F0;stroke-width:9.72"/>
	<line x1="2437.43" y1="2172.66" x2="2502.23" y2="2172.66" style="stroke:#F0F0F0;stroke-width:9.72"/>
	<line x1="2534.63" y1="2172.66" x2="2599.43" y2="2172.66" style="stroke:#F0F0F0;stroke-width:9.72"/>
	<line x1="2631.83" y1="2172.66" x2="2696.63" y2="2172.66" style="stroke:#F0F0F0;stroke-width:9.72"/>
	<line x1="2729.03" y1="2172.66" x2="2793.83" y2="2172.66" style="stroke:#F0F0F0;stroke-width:9.72"/>
	<line x1="2826.23" y1="2172.66" x2="2891.03" y2="2172.66" style="stroke:#F0F0F0;stroke-width:9.72"/>
	<line x1="2923.43" y1="2172.66" x2="2988.23" y2="2172.66" style="stroke:#F0F0F0;stroke-width:9.72"/>
	<line x1="3020.63" y1="2172.66" x2="3085.43" y2="2172.66" style="stroke:#F0F0F0;stroke-width:9.72"/>
	<line x1="3117.83" y1="2172.66" x2="3182.63" y2="2172.66" style="stroke:#F0F0F0;stroke-width:9.72"/>
	<line x1="3215.03" y1="2172.66" x2="3279.83" y2="2172.66" style="stroke:#F0F0F0;stroke-width:9.72"/>
	<line x1="3312.23" y1="2172.66" x2="3377.03" y2="2172.66" style="stroke:#F0F0F0;stroke-width:9.72"/>
	<line x1="3409.43" y1="2172.66" x2="3474.23" y2="2172.66" style="stroke:#F0F0F0;stroke-width:9.72"/>
	<line x1="3506.63" y1="2172.66" x2="3571.43" y2="2172.66" style="stroke:#F0F0F0;stroke-width:9.72"/>
	<line x1="3603.83" y1="2172.66" x2="3668.63" y2="2172.66" style="stroke:#F0F0F0;stroke-width:9.72"/>
	<line x1="3701.03" y1="2172.66" x2="3765.83" y2="2172.66" style="stroke:#F0F0F0;stroke-width:9.72"/>
	<line x1="3798.23" y1="2172.66" x2="3863.03" y2="2172.66" style="stroke:#F0F0F0;stroke-width:9.72"/>
	<line x1="3895.43" y1="2172.66" x2="3960.23" y2="2172.66" style="stroke:#F0F0F0;stroke-width:9.72"/>
	<line x1="3992.63" y1="2172.66" x2="4057.43" y2="2172.66" style="stroke:#F0F0F0;stroke-width:9.72"/>
	<line x1="4089.83" y1="2172.66" x2="4154.63" y2="2172.66" style="stroke:#F0F0F0;stroke-width:9.72"/>
	<line x1="4187.02" y1="2172.66" x2="4251.83" y2="2172.66" style="stroke:#F0F0F0;stroke-width:9.72"/>
	<line x1="4284.23" y1="2172.66" x2="4349.02" y2="2172.66" style="stroke:#F0F0F0;stroke-width:9.72"/>
	<line x1="4381.43" y1="2172.66" x2="4446.23" y2="2172.66" style="stroke:#F0F0F0;stroke-width:9.72"/>
	<line x1="4478.63" y1="2172.66" x2="4543.43" y2="2172.66" style="stroke:#F0F0F0;stroke-width:9.72"/>
	<line x1="4575.83" y1="2172.66" x2="4640.63" y2="2172.66" style="stroke:#F0F0F0;stroke-width:9.72"/>
	<line x1="4673.02" y1="2172.66" x2="4737.83" y2="2172.66" style="stroke:#F0F0F0;stroke-width:9.72"/>
	<line x1="4770.23" y1="2172.66" x2="4835.02" y2="2172.66" style="stroke:#F0F0F0;stroke-width:9.72"/>
	<line x1="4867.43" y1="2172.66" x2="4932.23" y2="2172.66" style="stroke:#F0F0F0;stroke-width:9.72"/>
	<line x1="4964.63" y1="2172.66" x2="5029.43" y2="2172.66" style="stroke:#F0F0F0;stroke-width:9.72"/>
	<line x1="5061.83" y1="2172.66" x2="5126.63" y2="2172.66" style="stroke:#F0F0F0;stroke-width:9.72"/>
	<line x1="5159.02" y1="2172.66" x2="5223.83" y2="2172.66" style="stroke:#F0F0F0;stroke-width:9.72"/>
	<line x1="5256.23" y1="2172.66" x2="5286.60" y2="2172.66" style="stroke:#F0F0F0;stroke-width:9.72"/>
	<line x1="590.63" y1="1686.15" x2="655.43" y2="1686.15" style="stroke:#F0F0F0;stroke-width:9.72"/>
	<line x1="687.83" y1="1686.15" x2="752.63" y2="1686.15" style="stroke:#F0F0F0;stroke-width:9.72"/>
	<line x1="785.03" y1="1686.15" x2="849.83" y2="1686.15" style="stroke:#F0F0F0;stroke-width:9.72"/>
	<line x1="882.23" y1="1686.15" x2="947.03" y2="1686.15" style="stroke:#F0F0F0;stroke-width:9.72"/>
	<line x1="979.43" y1="1686.15" x2="1044.22" y2="1686.15" style="stroke:#F0F0F0;stroke-width:9.72"/>
	<line x1="1076.63" y1="1686.15" x2="1141.43" y2="1686.15" style="stroke:#F0F0F0;stroke-width:9.72"/>
	<line x1="1173.83" y1="1686.15" x2="1238.63" y2="1686.15" style="stroke:#F0F0F0;stroke-width:9.72"/>
	<line x1="1271.03" y1="1686.15" x2="1335.83" y2="1686.15" style="stroke:#F0F0F0;stroke-width:9.72"/>
	<line x1="1368.23" y1="1686.15" x2="1433.03" y2="1686.15" style="stroke:#F0F0F0;stroke-width:9.72"/>
	<line x1="1465.43" y1="1686.15" x2="1530.23" y2="1686.15" style="stroke:#F0F0F0;stroke-width:9.72"/>
	<line x1="1562.63" y1="1686.15" x2="1627.43" y2="1686.15" style="stroke:#F0F0F0;stroke-width:9.72"/>
	<line x1="1659.83" y1="1686.15" x2="1724.63" y2="1686.15" style="stroke:#F0F0F0;stroke-width:9.72"/>
	<line x1="1757.03" y1="1686.15" x2="1821.83" y2="1686.15" style="stroke:#F0F0F0;stroke-width:9.72"/>
	<line x1="1854.23" y1="1686.15" x2="1919.03" y2="1686.15" style="stroke:#F0F0F0;stroke-width:9.72"/>
	<line x1="1951.43" y1="1686.15" x2="2016.23" y2="1686.15" style="stroke:#F0F0F0;stroke-width:9.72"/>
	<line x1="2048.63" y1="1686.15" x2="2113.43" y2="1686.15" style="stroke:#F0F0F0;stroke-width:9.72"/>
	<line x1="2145.82" y1="1686.15" x2="2210.63" y2="1686.15" style="stroke:#F0F0F0;stroke-width:9.72"/>
	<line x1="2243.03" y1="1686.15" x2="2307.82" y2="1686.15" style="stroke:#F0F0F0;stroke-width:9.72"/>
	<line x1="2340.23" y1="1686.15" x2="2405.03" y2="1686.15" style="stroke:#F0F0F0;stroke-width:9.72"/>
	<line x1="2437.43" y1="1686.15" x2="2502.23" y2="1686.15" style="stroke:#F0F0F0;stroke-width:9.72"/>
	<line x1="2534.63" y1="1686.15" x2="2599.43" y2="1686.15" style="stroke:#F0F0F0;stroke-width:9.72"/>
	<line x1="2631.83" y1="1686.15" x2="2696.63" y2="1686.15" style="stroke:#F0F0F0;stroke-width:9.72"/>
	<line x1="2729.03" y1="1686.15" x2="2793.83" y2="1686.15" style="stroke:#F0F0F0;stroke-width:9.72"/>
	<line x1="2826.23" y1="1686.15" x2="2891.03" y2="1686.15" style="stroke:#F0F0F0;stroke-width:9.72"/>
	<line x1="2923.43" y1="1686.15" x2="2988.23" y2="1686.15" style="stroke:#F0F0F0;stroke-width:9.72"/>
	<line x1="3020.63" y1="1686.15" x2="3085.43" y2="1686.15" style="stroke:#F0F0F0;stroke-width:9.72"/>
	<line x1="3117.83" y1="1686.15" x2="3182.63" y2="1686.15" style="stroke:#F0F0F0;stroke-width:9.72"/>
	<line x1="3215.03" y1="1686.15" x2="3279.83" y2="1686.15" style="stroke:#F0F0F0;stroke-width:9.72"/>
	<line x1="3312.23" y1="1686.15" x2="3377.03" y2="1686.15" style="stroke:#F0F0F0;stroke-width:9.72"/>
	<line x1="3409.43" y1="1686.15" x2="3474.23" y2="1686.15" style="stroke:#F0F0F0;stroke-width:9.72"/>
	<line x1="3506.63" y1="1686.15" x2="3571.43" y2="1686.15" style="stroke:#F0F0F0;stroke-width:9.72"/>
	<line x1="3603.83" y1="1686.15" x2="3668.63" y2="1686.15" style="stroke:#F0F0F0;stroke-width:9.72"/>
	<line x1="3701.03" y1="1686.15" x2="3765.83" y2="1686.15" style="stroke:#F0F0F0;stroke-width:9.72"/>
	<line x1="3798.23" y1="1686.15" x2="3863.03" y2="1686.15" style="stroke:#F0F0F0;stroke-width:9.72"/>
	<line x1="3895.43" y1="1686.15" x2="3960.23" y2="1686.15" style="stroke:#F0F0F0;stroke-width:9.72"/>
	<line x1="3992.63" y1="1686.15" x2="4057.43" y2="1686.15" style="stroke:#F0F0F0;stroke-width:9.72"/>
	<line x1="4089.83" y1="1686.15" x2="4154.63" y2="1686.15" style="stroke:#F0F0F0;stroke-width:9.72"/>
	<line x1="4187.02" y1="1686.15" x2="4251.83" y2="1686.15" style="stroke:#F0F0F0;stroke-width:9.72"/>
	<line x1="4284.23" y1="1686.15" x2="4349.02" y2="1686.15" style="stroke:#F0F0F0;stroke-width:9.72"/>
	<line x1="4381.43" y1="1686.15" x2="4446.23" y2="1686.15" style="stroke:#F0F0F0;stroke-width:9.72"/>
	<line x1="4478.63" y1="1686.15" x2="4543.43" y2="1686.15" style="stroke:#F0F0F0;stroke-width:9.72"/>
	<line x1="4575.83" y1="1686.15" x2="4640.63" y2="1686.15" style="stroke:#F0F0F0;stroke-width:9.72"/>
	<line x1="4673.02" y1="1686.15" x2="4737.83" y2="1686.15" style="stroke:#F0F0F0;stroke-width:9.72"/>
	<line x1="4770.23" y1="1686.15" x2="4835.02" y2="1686.15" style="stroke:#F0F0F0;stroke-width:9.72"/>
	<line x1="4867.43" y1="1686.15" x2="4932.23" y2="1686.15" style="stroke:#F0F0F0;stroke-width:9.72"/>
	<line x1="4964.63" y1="1686.15" x2="5029.43" y2="1686.15" style="stroke:#F0F0F0;stroke-width:9.72"/>
	<line x1="5061.83" y1="1686.15" x2="5126.63" y2="1686.15" style="stroke:#F0F0F0;stroke-width:9.72"/>
	<line x1="5159.02" y1="1686.15" x2="5223.83" y2="1686.15" style="stroke:#F0F0F0;stroke-width:9.72"/>
	<line x1="5256.23" y1="1686.15" x2="5286.60" y2="1686.15" style="stroke:#F0F0F0;stroke-width:9.72"/>
	<line x1="590.63" y1="1199.81" x2="655.43" y2="1199.81" style="stroke:#F0F0F0;stroke-width:9.72"/>
	<line x1="687.83" y1="1199.81" x2="752.63" y2="1199.81" style="stroke:#F0F0F0;stroke-width:9.72"/>
	<line x1="785.03" y1="1199.81" x2="849.83" y2="1199.81" style="stroke:#F0F0F0;stroke-width:9.72"/>
	<line x1="882.23" y1="1199.81" x2="947.03" y2="1199.81" style="stroke:#F0F0F0;stroke-width:9.72"/>
	<line x1="979.43" y1="1199.81" x2="1044.22" y2="1199.81" style="stroke:#F0F0F0;stroke-width:9.72"/>
	<line x1="1076.63" y1="1199.81" x2="1141.43" y2="1199.81" style="stroke:#F0F0F0;stroke-width:9.72"/>
	<line x1="1173.83" y1="1199.81" x2="1238.63" y2="1199.81" style="stroke:#F0F0F0;stroke-width:9.72"/>
	<line x1="1271.03" y1="1199.81" x2="1335.83" y2="1199.81" style="stroke:#F0F0F0;stroke-width:9.72"/>
	<line x1="1368.23" y1="1199.81" x2="1433.03" y2="1199.81" style="stroke:#F0F0F0;stroke-width:9.72"/>
	<line x1="1465.43" y1="1199.81" x2="1530.23" y2="1199.81" style="stroke:#F0F0F0;stroke-width:9.72"/>
	<line x1="1562.63" y1="1199.81" x2="1627.43" y2="1199.81" style="stroke:#F0F0F0;stroke-width:9.72"/>
	<line x1="1659.83" y1="1199.81" x2="1724.63" y2="1199.81" style="stroke:#F0F0F0;stroke-width:9.72"/>
	<line x1="1757.03" y1="1199.81" x2="1821.83" y2="1199.81" style="stroke:#F0F0F0;stroke-width:9.72"/>
	<line x1="1854.23" y1="1199.81" x2="1919.03" y2="1199.81" style="stroke:#F0F0F0;stroke-width:9.72"/>
	<line x1="1951.43" y1="1199.81" x2="2016.23" y2="1199.81" style="stroke:#F0F0F0;stroke-width:9.72"/>
	<line x1="2048.63" y1="1199.81" x2="2113.43" y2="1199.81" style="stroke:#F0F0F0;stroke-width:9.72"/>
	<line x1="2145.82" y1="1199.81" x2="2210.63" y2="1199.81" style="stroke:#F0F0F0;stroke-width:9.72"/>
	<line x1="2243.03" y1="1199.81" x2="2307.82" y2="1199.81" style="stroke:#F0F0F0;stroke-width:9.72"/>
	<line x1="2340.23" y1="1199.81" x2="2405.03" y2="1199.81" style="stroke:#F0F0F0;stroke-width:9.72"/>
	<line x1="2437.43" y1="1199.81" x2="2502.23" y2="1199.81" style="stroke:#F0F0F0;stroke-width:9.72"/>
	<line x1="2534.63" y1="1199.81" x2="2599.43" y2="1199.81" style="stroke:#F0F0F0;stroke-width:9.72"/>
	<line x1="2631.83" y1="1199.81" x2="2696.63" y2="1199.81" style="stroke:#F0F0F0;stroke-width:9.72"/>
	<line x1="2729.03" y1="1199.81" x2="2793.83" y2="1199.81" style="stroke:#F0F0F0;stroke-width:9.72"/>
	<line x1="2826.23" y1="1199.81" x2="2891.03" y2="1199.81" style="stroke:#F0F0F0;stroke-width:9.72"/>
	<line x1="2923.43" y1="1199.81" x2="2988.23" y2="1199.81" style="stroke:#F0F0F0;stroke-width:9.72"/>
	<line x1="3020.63" y1="1199.81" x2="3085.43" y2="1199.81" style="stroke:#F0F0F0;stroke-width:9.72"/>
	<line x1="3117.83" y1="1199.81" x2="3182.63" y2="1199.81" style="stroke:#F0F0F0;stroke-width:9.72"/>
	<line x1="3215.03" y1="1199.81" x2="3279.83" y2="1199.81" style="stroke:#F0F0F0;stroke-width:9.72"/>
	<line x1="3312.23" y1="1199.81" x2="3377.03" y2="1199.81" style="stroke:#F0F0F0;stroke-width:9.72"/>
	<line x1="3409.43" y1="1199.81" x2="3474.23" y2="1199.81" style="stroke:#F0F0F0;stroke-width:9.72"/>
	<line x1="3506.63" y1="1199.81" x2="3571.43" y2="1199.81" style="stroke:#F0F0F0;stroke-width:9.72"/>
	<line x1="3603.83" y1="1199.81" x2="3668.63" y2="1199.81" style="stroke:#F0F0F0;stroke-width:9.72"/>
	<line x1="3701.03" y1="1199.81" x2="3765.83" y2="1199.81" style="stroke:#F0F0F0;stroke-width:9.72"/>
	<line x1="3798.23" y1="1199.81" x2="3863.03" y2="1199.81" style="stroke:#F0F0F0;stroke-width:9.72"/>
	<line x1="3895.43" y1="1199.81" x2="3960.23" y2="1199.81" style="stroke:#F0F0F0;stroke-width:9.72"/>
	<line x1="3992.63" y1="1199.81" x2="4057.43" y2="1199.81" style="stroke:#F0F0F0;stroke-width:9.72"/>
	<line x1="4089.83" y1="1199.81" x2="4154.63" y2="1199.81" style="stroke:#F0F0F0;stroke-width:9.72"/>
	<line x1="4187.02" y1="1199.81" x2="4251.83" y2="1199.81" style="stroke:#F0F0F0;stroke-width:9.72"/>
	<line x1="4284.23" y1="1199.81" x2="4349.02" y2="1199.81" style="stroke:#F0F0F0;stroke-width:9.72"/>
	<line x1="4381.43" y1="1199.81" x2="4446.23" y2="1199.81" style="stroke:#F0F0F0;stroke-width:9.72"/>
	<line x1="4478.63" y1="1199.81" x2="4543.43" y2="1199.81" style="stroke:#F0F0F0;stroke-width:9.72"/>
	<line x1="4575.83" y1="1199.81" x2="4640.63" y2="1199.81" style="stroke:#F0F0F0;stroke-width:9.72"/>
	<line x1="4673.02" y1="1199.81" x2="4737.83" y2="1199.81" style="stroke:#F0F0F0;stroke-width:9.72"/>
	<line x1="4770.23" y1="1199.81" x2="4835.02" y2="1199.81" style="stroke:#F0F0F0;stroke-width:9.72"/>
	<line x1="4867.43" y1="1199.81" x2="4932.23" y2="1199.81" style="stroke:#F0F0F0;stroke-width:9.72"/>
	<line x1="4964.63" y1="1199.81" x2="5029.43" y2="1199.81" style="stroke:#F0F0F0;stroke-width:9.72"/>
	<line x1="5061.83" y1="1199.81" x2="5126.63" y2="1199.81" style="stroke:#F0F0F0;stroke-width:9.72"/>
	<line x1="5159.02" y1="1199.81" x2="5223.83" y2="1199.81" style="stroke:#F0F0F0;stroke-width:9.72"/>
	<line x1="5256.23" y1="1199.81" x2="5286.60" y2="1199.81" style="stroke:#F0F0F0;stroke-width:9.72"/>
	<line x1="590.63" y1="713.31" x2="655.43" y2="713.31" style="stroke:#F0F0F0;stroke-width:9.72"/>
	<line x1="687.83" y1="713.31" x2="752.63" y2="713.31" style="stroke:#F0F0F0;stroke-width:9.72"/>
	<line x1="785.03" y1="713.31" x2="849.83" y2="713.31" style="stroke:#F0F0F0;stroke-width:9.72"/>
	<line x1="882.23" y1="713.31" x2="947.03" y2="713.31" style="stroke:#F0F0F0;stroke-width:9.72"/>
	<line x1="979.43" y1="713.31" x2="1044.22" y2="713.31" style="stroke:#F0F0F0;stroke-width:9.72"/>
	<line x1="1076.63" y1="713.31" x2="1141.43" y2="713.31" style="stroke:#F0F0F0;stroke-width:9.72"/>
	<line x1="1173.83" y1="713.31" x2="1238.63" y2="713.31" style="stroke:#F0F0F0;stroke-width:9.72"/>
	<line x1="1271.03" y1="713.31" x2="1335.83" y2="713.31" style="stroke:#F0F0F0;stroke-width:9.72"/>
	<line x1="1368.23" y1="713.31" x2="1433.03" y2="713.31" style="stroke:#F0F0F0;stroke-width:9.72"/>
	<line x1="1465.43" y1="713.31" x2="1530.23" y2="713.31" style="stroke:#F0F0F0;stroke-width:9.72"/>
	<line x1="1562.63" y1="713.31" x2="1627.43" y2="713.31" style="stroke:#F0F0F0;stroke-width:9.72"/>
	<line x1="1659.83" y1="713.31" x2="1724.63" y2="713.31" style="stroke:#F0F0F0;stroke-width:9.72"/>
	<line x1="1757.03" y1="713.31" x2="1821.83" y2="713.31" style="stroke:#F0F0F0;stroke-width:9.72"/>
	<line x1="1854.23" y1="713.31" x2="1919.03" y2="713.31" style="stroke:#F0F0F0;stroke-width:9.72"/>
	<line x1="1951.43" y1="713.31" x2="2016.23" y2="713.31" style="stroke:#F0F0F0;stroke-width:9.72"/>
	<line x1="2048.63" y1="713.31" x2="2113.43" y2="713.31" style="stroke:#F0F0F0;stroke-width:9.72"/>
	<line x1="2145.82" y1="713.31" x2="2210.63" y2="713.31" style="stroke:#F0F0F0;stroke-width:9.72"/>
	<line x1="2243.03" y1="713.31" x2="2307.82" y2="713.31" style="stroke:#F0F0F0;stroke-width:9.72"/>
	<line x1="2340.23" y1="713.31" x2="2405.03" y2="713.31" style="stroke:#F0F0F0;stroke-width:9.72"/>
	<line x1="2437.43" y1="713.31" x2="2502.23" y2="713.31" style="stroke:#F0F0F0;stroke-width:9.72"/>
	<line x1="2534.63" y1="713.31" x2="2599.43" y2="713.31" style="stroke:#F0F0F0;stroke-width:9.72"/>
	<line x1="2631.83" y1="713.31" x2="2696.63" y2="713.31" style="stroke:#F0F0F0;stroke-width:9.72"/>
	<line x1="2729.03" y1="713.31" x2="2793.83" y2="713.31" style="stroke:#F0F0F0;stroke-width:9.72"/>
	<line x1="2826.23" y1="713.31" x2="2891.03" y2="713.31" style="stroke:#F0F0F0;stroke-width:9.72"/>
	<line x1="2923.43" y1="713.31" x2="2988.23" y2="713.31" style="stroke:#F0F0F0;stroke-width:9.72"/>
	<line x1="3020.63" y1="713.31" x2="3085.43" y2="713.31" style="stroke:#F0F0F0;stroke-width:9.72"/>
	<line x1="3117.83" y1="713.31" x2="3182.63" y2="713.31" style="stroke:#F0F0F0;stroke-width:9.72"/>
	<line x1="3215.03" y1="713.31" x2="3279.83" y2="713.31" style="stroke:#F0F0F0;stroke-width:9.72"/>
	<line x1="3312.23" y1="713.31" x2="3377.03" y2="713.31" style="stroke:#F0F0F0;stroke-width:9.72"/>
	<line x1="3409.43" y1="713.31" x2="3474.23" y2="713.31" style="stroke:#F0F0F0;stroke-width:9.72"/>
	<line x1="3506.63" y1="713.31" x2="3571.43" y2="713.31" style="stroke:#F0F0F0;stroke-width:9.72"/>
	<line x1="3603.83" y1="713.31" x2="3668.63" y2="713.31" style="stroke:#F0F0F0;stroke-width:9.72"/>
	<line x1="3701.03" y1="713.31" x2="3765.83" y2="713.31" style="stroke:#F0F0F0;stroke-width:9.72"/>
	<line x1="3798.23" y1="713.31" x2="3863.03" y2="713.31" style="stroke:#F0F0F0;stroke-width:9.72"/>
	<line x1="3895.43" y1="713.31" x2="3960.23" y2="713.31" style="stroke:#F0F0F0;stroke-width:9.72"/>
	<line x1="3992.63" y1="713.31" x2="4057.43" y2="713.31" style="stroke:#F0F0F0;stroke-width:9.72"/>
	<line x1="4089.83" y1="713.31" x2="4154.63" y2="713.31" style="stroke:#F0F0F0;stroke-width:9.72"/>
	<line x1="4187.02" y1="713.31" x2="4251.83" y2="713.31" style="stroke:#F0F0F0;stroke-width:9.72"/>
	<line x1="4284.23" y1="713.31" x2="4349.02" y2="713.31" style="stroke:#F0F0F0;stroke-width:9.72"/>
	<line x1="4381.43" y1="713.31" x2="4446.23" y2="713.31" style="stroke:#F0F0F0;stroke-width:9.72"/>
	<line x1="4478.63" y1="713.31" x2="4543.43" y2="713.31" style="stroke:#F0F0F0;stroke-width:9.72"/>
	<line x1="4575.83" y1="713.31" x2="4640.63" y2="713.31" style="stroke:#F0F0F0;stroke-width:9.72"/>
	<line x1="4673.02" y1="713.31" x2="4737.83" y2="713.31" style="stroke:#F0F0F0;stroke-width:9.72"/>
	<line x1="4770.23" y1="713.31" x2="4835.02" y2="713.31" style="stroke:#F0F0F0;stroke-width:9.72"/>
	<line x1="4867.43" y1="713.31" x2="4932.23" y2="713.31" style="stroke:#F0F0F0;stroke-width:9.72"/>
	<line x1="4964.63" y1="713.31" x2="5029.43" y2="713.31" style="stroke:#F0F0F0;stroke-width:9.72"/>
	<line x1="5061.83" y1="713.31" x2="5126.63" y2="713.31" style="stroke:#F0F0F0;stroke-width:9.72"/>
	<line x1="5159.02" y1="713.31" x2="5223.83" y2="713.31" style="stroke:#F0F0F0;stroke-width:9.72"/>
	<line x1="5256.23" y1="713.31" x2="5286.60" y2="713.31" style="stroke:#F0F0F0;stroke-width:9.72"/>
	<line x1="590.63" y1="226.80" x2="655.43" y2="226.80" style="stroke:#F0F0F0;stroke-width:9.72"/>
	<line x1="687.83" y1="226.80" x2="752.63" y2="226.80" style="stroke:#F0F0F0;stroke-width:9.72"/>
	<line x1="785.03" y1="226.80" x2="849.83" y2="226.80" style="stroke:#F0F0F0;stroke-width:9.72"/>
	<line x1="882.23" y1="226.80" x2="947.03" y2="226.80" style="stroke:#F0F0F0;stroke-width:9.72"/>
	<line x1="979.43" y1="226.80" x2="1044.22" y2="226.80" style="stroke:#F0F0F0;stroke-width:9.72"/>
	<line x1="1076.63" y1="226.80" x2="1141.43" y2="226.80" style="stroke:#F0F0F0;stroke-width:9.72"/>
	<line x1="1173.83" y1="226.80" x2="1238.63" y2="226.80" style="stroke:#F0F0F0;stroke-width:9.72"/>
	<line x1="1271.03" y1="226.80" x2="1335.83" y2="226.80" style="stroke:#F0F0F0;stroke-width:9.72"/>
	<line x1="1368.23" y1="226.80" x2="1433.03" y2="226.80" style="stroke:#F0F0F0;stroke-width:9.72"/>
	<line x1="1465.43" y1="226.80" x2="1530.23" y2="226.80" style="stroke:#F0F0F0;stroke-width:9.72"/>
	<line x1="1562.63" y1="226.80" x2="1627.43" y2="226.80" style="stroke:#F0F0F0;stroke-width:9.72"/>
	<line x1="1659.83" y1="226.80" x2="1724.63" y2="226.80" style="stroke:#F0F0F0;stroke-width:9.72"/>
	<line x1="1757.03" y1="226.80" x2="1821.83" y2="226.80" style="stroke:#F0F0F0;stroke-width:9.72"/>
	<line x1="1854.23" y1="226.80" x2="1919.03" y2="226.80" style="stroke:#F0F0F0;stroke-width:9.72"/>
	<line x1="1951.43" y1="226.80" x2="2016.23" y2="226.80" style="stroke:#F0F0F0;stroke-width:9.72"/>
	<line x1="2048.63" y1="226.80" x2="2113.43" y2="226.80" style="stroke:#F0F0F0;stroke-width:9.72"/>
	<line x1="2145.82" y1="226.80" x2="2210.63" y2="226.80" style="stroke:#F0F0F0;stroke-width:9.72"/>
	<line x1="2243.03" y1="226.80" x2="2307.82" y2="226.80" style="stroke:#F0F0F0;stroke-width:9.72"/>
	<line x1="2340.23" y1="226.80" x2="2405.03" y2="226.80" style="stroke:#F0F0F0;stroke-width:9.72"/>
	<line x1="2437.43" y1="226.80" x2="2502.23" y2="226.80" style="stroke:#F0F0F0;stroke-width:9.72"/>
	<line x1="2534.63" y1="226.80" x2="2599.43" y2="226.80" style="stroke:#F0F0F0;stroke-width:9.72"/>
	<line x1="2631.83" y1="226.80" x2="2696.63" y2="226.80" style="stroke:#F0F0F0;stroke-width:9.72"/>
	<line x1="2729.03" y1="226.80" x2="2793.83" y2="226.80" style="stroke:#F0F0F0;stroke-width:9.72"/>
	<line x1="2826.23" y1="226.80" x2="2891.03" y2="226.80" style="stroke:#F0F0F0;stroke-width:9.72"/>
	<line x1="2923.43" y1="226.80" x2="2988.23" y2="226.80" style="stroke:#F0F0F0;stroke-width:9.72"/>
	<line x1="3020.63" y1="226.80" x2="3085.43" y2="226.80" style="stroke:#F0F0F0;stroke-width:9.72"/>
	<line x1="3117.83" y1="226.80" x2="3182.63" y2="226.80" style="stroke:#F0F0F0;stroke-width:9.72"/>
	<line x1="3215.03" y1="226.80" x2="3279.83" y2="226.80" style="stroke:#F0F0F0;stroke-width:9.72"/>
	<line x1="3312.23" y1="226.80" x2="3377.03" y2="226.80" style="stroke:#F0F0F0;stroke-width:9.72"/>
	<line x1="3409.43" y1="226.80" x2="3474.23" y2="226.80" style="stroke:#F0F0F0;stroke-width:9.72"/>
	<line x1="3506.63" y1="226.80" x2="3571.43" y2="226.80" style="stroke:#F0F0F0;stroke-width:9.72"/>
	<line x1="3603.83" y1="226.80" x2="3668.63" y2="226.80" style="stroke:#F0F0F0;stroke-width:9.72"/>
	<line x1="3701.03" y1="226.80" x2="3765.83" y2="226.80" style="stroke:#F0F0F0;stroke-width:9.72"/>
	<line x1="3798.23" y1="226.80" x2="3863.03" y2="226.80" style="stroke:#F0F0F0;stroke-width:9.72"/>
	<line x1="3895.43" y1="226.80" x2="3960.23" y2="226.80" style="stroke:#F0F0F0;stroke-width:9.72"/>
	<line x1="3992.63" y1="226.80" x2="4057.43" y2="226.80" style="stroke:#F0F0F0;stroke-width:9.72"/>
	<line x1="4089.83" y1="226.80" x2="4154.63" y2="226.80" style="stroke:#F0F0F0;stroke-width:9.72"/>
	<line x1="4187.02" y1="226.80" x2="4251.83" y2="226.80" style="stroke:#F0F0F0;stroke-width:9.72"/>
	<line x1="4284.23" y1="226.80" x2="4349.02" y2="226.80" style="stroke:#F0F0F0;stroke-width:9.72"/>
	<line x1="4381.43" y1="226.80" x2="4446.23" y2="226.80" style="stroke:#F0F0F0;stroke-width:9.72"/>
	<line x1="4478.63" y1="226.80" x2="4543.43" y2="226.80" style="stroke:#F0F0F0;stroke-width:9.72"/>
	<line x1="4575.83" y1="226.80" x2="4640.63" y2="226.80" style="stroke:#F0F0F0;stroke-width:9.72"/>
	<line x1="4673.02" y1="226.80" x2="4737.83" y2="226.80" style="stroke:#F0F0F0;stroke-width:9.72"/>
	<line x1="4770.23" y1="226.80" x2="4835.02" y2="226.80" style="stroke:#F0F0F0;stroke-width:9.72"/>
	<line x1="4867.43" y1="226.80" x2="4932.23" y2="226.80" style="stroke:#F0F0F0;stroke-width:9.72"/>
	<line x1="4964.63" y1="226.80" x2="5029.43" y2="226.80" style="stroke:#F0F0F0;stroke-width:9.72"/>
	<line x1="5061.83" y1="226.80" x2="5126.63" y2="226.80" style="stroke:#F0F0F0;stroke-width:9.72"/>
	<line x1="5159.02" y1="226.80" x2="5223.83" y2="226.80" style="stroke:#F0F0F0;stroke-width:9.72"/>
	<line x1="5256.23" y1="226.80" x2="5286.60" y2="226.80" style="stroke:#F0F0F0;stroke-width:9.72"/>
	<line x1="590.63" y1="1141.09" x2="655.43" y2="1141.09" style="stroke:#D41159;stroke-width:9.72"/>
	<line x1="687.83" y1="1141.09" x2="752.63" y2="1141.09" style="stroke:#D41159;stroke-width:9.72"/>
	<line x1="785.03" y1="1141.09" x2="849.83" y2="1141.09" style="stroke:#D41159;stroke-width:9.72"/>
	<line x1="882.23" y1="1141.09" x2="947.03" y2="1141.09" style="stroke:#D41159;stroke-width:9.72"/>
	<line x1="979.43" y1="1141.09" x2="1044.22" y2="1141.09" style="stroke:#D41159;stroke-width:9.72"/>
	<line x1="1076.63" y1="1141.09" x2="1141.43" y2="1141.09" style="stroke:#D41159;stroke-width:9.72"/>
	<line x1="1173.83" y1="1141.09" x2="1238.63" y2="1141.09" style="stroke:#D41159;stroke-width:9.72"/>
	<line x1="1271.03" y1="1141.09" x2="1335.83" y2="1141.09" style="stroke:#D41159;stroke-width:9.72"/>
	<line x1="1368.23" y1="1141.09" x2="1433.03" y2="1141.09" style="stroke:#D41159;stroke-width:9.72"/>
	<line x1="1465.43" y1="1141.09" x2="1530.23" y2="1141.09" style="stroke:#D41159;stroke-width:9.72"/>
	<line x1="1562.63" y1="1141.09" x2="1627.43" y2="1141.09" style="stroke:#D41159;stroke-width:9.72"/>
	<line x1="1659.83" y1="1141.09" x2="1724.63" y2="1141.09" style="stroke:#D41159;stroke-width:9.72"/>
	<line x1="1757.03" y1="1141.09" x2="1821.83" y2="1141.09" style="stroke:#D41159;stroke-width:9.72"/>
	<line x1="1854.23" y1="1141.09" x2="1919.03" y2="1141.09" style="stroke:#D41159;stroke-width:9.72"/>
	<line x1="1951.43" y1="1141.09" x2="2016.23" y2="1141.09" style="stroke:#D41159;stroke-width:9.72"/>
	<line x1="2048.63" y1="1141.09" x2="2113.43" y2="1141.09" style="stroke:#D41159;stroke-width:9.72"/>
	<line x1="2145.82" y1="1141.09" x2="2210.63" y2="1141.09" style="stroke:#D41159;stroke-width:9.72"/>
	<line x1="2243.03" y1="1141.09" x2="2307.82" y2="1141.09" style="stroke:#D41159;stroke-width:9.72"/>
	<line x1="2340.23" y1="1141.09" x2="2405.03" y2="1141.09" style="stroke:#D41159;stroke-width:9.72"/>
	<line x1="2437.43" y1="1141.09" x2="2502.23" y2="1141.09" style="stroke:#D41159;stroke-width:9.72"/>
	<line x1="2534.63" y1="1141.09" x2="2599.43" y2="1141.09" style="stroke:#D41159;stroke-width:9.72"/>
	<line x1="2631.83" y1="1141.09" x2="2696.63" y2="1141.09" style="stroke:#D41159;stroke-width:9.72"/>
	<line x1="2729.03" y1="1141.09" x2="2793.83" y2="1141.09" style="stroke:#D41159;stroke-width:9.72"/>
	<line x1="2826.23" y1="1141.09" x2="2891.03" y2="1141.09" style="stroke:#D41159;stroke-width:9.72"/>
	<line x1="2923.43" y1="1141.09" x2="2988.23" y2="1141.09" style="stroke:#D41159;stroke-width:9.72"/>
	<line x1="3020.63" y1="1141.09" x2="3085.43" y2="1141.09" style="stroke:#D41159;stroke-width:9.72"/>
	<line x1="3117.83" y1="1141.09" x2="3182.63" y2="1141.09" style="stroke:#D41159;stroke-width:9.72"/>
	<line x1="3215.03" y1="1141.09" x2="3279.83" y2="1141.09" style="stroke:#D41159;stroke-width:9.72"/>
	<line x1="3312.23" y1="1141.09" x2="3377.03" y2="1141.09" style="stroke:#D41159;stroke-width:9.72"/>
	<line x1="3409.43" y1="1141.09" x2="3474.23" y2="1141.09" style="stroke:#D41159;stroke-width:9.72"/>
	<line x1="3506.63" y1="1141.09" x2="3571.43" y2="1141.09" style="stroke:#D41159;stroke-width:9.72"/>
	<line x1="3603.83" y1="1141.09" x2="3668.63" y2="1141.09" style="stroke:#D41159;stroke-width:9.72"/>
	<line x1="3701.03" y1="1141.09" x2="3765.83" y2="1141.09" style="stroke:#D41159;stroke-width:9.72"/>
	<line x1="3798.23" y1="1141.09" x2="3863.03" y2="1141.09" style="stroke:#D41159;stroke-width:9.72"/>
	<line x1="3895.43" y1="1141.09" x2="3960.23" y2="1141.09" style="stroke:#D41159;stroke-width:9.72"/>
	<line x1="3992.63" y1="1141.09" x2="4057.43" y2="1141.09" style="stroke:#D41159;stroke-width:9.72"/>
	<line x1="4089.83" y1="1141.09" x2="4154.63" y2="1141.09" style="stroke:#D41159;stroke-width:9.72"/>
	<line x1="4187.02" y1="1141.09" x2="4251.83" y2="1141.09" style="stroke:#D41159;stroke-width:9.72"/>
	<line x1="4284.23" y1="1141.09" x2="4349.02" y2="1141.09" style="stroke:#D41159;stroke-width:9.72"/>
	<line x1="4381.43" y1="1141.09" x2="4446.23" y2="1141.09" style="stroke:#D41159;stroke-width:9.72"/>
	<line x1="4478.63" y1="1141.09" x2="4543.43" y2="1141.09" style="stroke:#D41159;stroke-width:9.72"/>
	<line x1="4575.83" y1="1141.09" x2="4640.63" y2="1141.09" style="stroke:#D41159;stroke-width:9.72"/>
	<line x1="4673.02" y1="1141.09" x2="4737.83" y2="1141.09" style="stroke:#D41159;stroke-width:9.72"/>
	<line x1="4770.23" y1="1141.09" x2="4835.02" y2="1141.09" style="stroke:#D41159;stroke-width:9.72"/>
	<line x1="4867.43" y1="1141.09" x2="4932.23" y2="1141.09" style="stroke:#D41159;stroke-width:9.72"/>
	<line x1="4964.63" y1="1141.09" x2="5029.43" y2="1141.09" style="stroke:#D41159;stroke-width:9.72"/>
	<line x1="5061.83" y1="1141.09" x2="5126.63" y2="1141.09" style="stroke:#D41159;stroke-width:9.72"/>
	<line x1="5159.02" y1="1141.09" x2="5223.83" y2="1141.09" style="stroke:#D41159;stroke-width:9.72"/>
	<line x1="5256.23" y1="1141.09" x2="5286.60" y2="1141.09" style="stroke:#D41159;stroke-width:9.72"/>
	<line x1="590.63" y1="1328.91" x2="655.43" y2="1328.91" style="stroke:#1A85FF;stroke-width:9.72"/>
	<line x1="687.83" y1="1328.91" x2="752.63" y2="1328.91" style="stroke:#1A85FF;stroke-width:9.72"/>
	<line x1="785.03" y1="1328.91" x2="849.83" y2="1328.91" style="stroke:#1A85FF;stroke-width:9.72"/>
	<line x1="882.23" y1="1328.91" x2="947.03" y2="1328.91" style="stroke:#1A85FF;stroke-width:9.72"/>
	<line x1="979.43" y1="1328.91" x2="1044.22" y2="1328.91" style="stroke:#1A85FF;stroke-width:9.72"/>
	<line x1="1076.63" y1="1328.91" x2="1141.43" y2="1328.91" style="stroke:#1A85FF;stroke-width:9.72"/>
	<line x1="1173.83" y1="1328.91" x2="1238.63" y2="1328.91" style="stroke:#1A85FF;stroke-width:9.72"/>
	<line x1="1271.03" y1="1328.91" x2="1335.83" y2="1328.91" style="stroke:#1A85FF;stroke-width:9.72"/>
	<line x1="1368.23" y1="1328.91" x2="1433.03" y2="1328.91" style="stroke:#1A85FF;stroke-width:9.72"/>
	<line x1="1465.43" y1="1328.91" x2="1530.23" y2="1328.91" style="stroke:#1A85FF;stroke-width:9.72"/>
	<line x1="1562.63" y1="1328.91" x2="1627.43" y2="1328.91" style="stroke:#1A85FF;stroke-width:9.72"/>
	<line x1="1659.83" y1="1328.91" x2="1724.63" y2="1328.91" style="stroke:#1A85FF;stroke-width:9.72"/>
	<line x1="1757.03" y1="1328.91" x2="1821.83" y2="1328.91" style="stroke:#1A85FF;stroke-width:9.72"/>
	<line x1="1854.23" y1="1328.91" x2="1919.03" y2="1328.91" style="stroke:#1A85FF;stroke-width:9.72"/>
	<line x1="1951.43" y1="1328.91" x2="2016.23" y2="1328.91" style="stroke:#1A85FF;stroke-width:9.72"/>
	<line x1="2048.63" y1="1328.91" x2="2113.43" y2="1328.91" style="stroke:#1A85FF;stroke-width:9.72"/>
	<line x1="2145.82" y1="1328.91" x2="2210.63" y2="1328.91" style="stroke:#1A85FF;stroke-width:9.72"/>
	<line x1="2243.03" y1="1328.91" x2="2307.82" y2="1328.91" style="stroke:#1A85FF;stroke-width:9.72"/>
	<line x1="2340.23" y1="1328.91" x2="2405.03" y2="1328.91" style="stroke:#1A85FF;stroke-width:9.72"/>
	<line x1="2437.43" y1="1328.91" x2="2502.23" y2="1328.91" style="stroke:#1A85FF;stroke-width:9.72"/>
	<line x1="2534.63" y1="1328.91" x2="2599.43" y2="1328.91" style="stroke:#1A85FF;stroke-width:9.72"/>
	<line x1="2631.83" y1="1328.91" x2="2696.63" y2="1328.91" style="stroke:#1A85FF;stroke-width:9.72"/>
	<line x1="2729.03" y1="1328.91" x2="2793.83" y2="1328.91" style="stroke:#1A85FF;stroke-width:9.72"/>
	<line x1="2826.23" y1="1328.91" x2="2891.03" y2="1328.91" style="stroke:#1A85FF;stroke-width:9.72"/>
	<line x1="2923.43" y1="1328.91" x2="2988.23" y2="1328.91" style="stroke:#1A85FF;stroke-width:9.72"/>
	<line x1="3020.63" y1="1328.91" x2="3085.43" y2="1328.91" style="stroke:#1A85FF;stroke-width:9.72"/>
	<line x1="3117.83" y1="1328.91" x2="3182.63" y2="1328.91" style="stroke:#1A85FF;stroke-width:9.72"/>
	<line x1="3215.03" y1="1328.91" x2="3279.83" y2="1328.91" style="stroke:#1A85FF;stroke-width:9.72"/>
	<line x1="3312.23" y1="1328.91" x2="3377.03" y2="1328.91" style="stroke:#1A85FF;stroke-width:9.72"/>
	<line x1="3409.43" y1="1328.91" x2="3474.23" y2="1328.91" style="stroke:#1A85FF;stroke-width:9.72"/>
	<line x1="3506.63" y1="1328.91" x2="3571.43" y2="1328.91" style="stroke:#1A85FF;stroke-width:9.72"/>
	<line x1="3603.83" y1="1328.91" x2="3668.63" y2="1328.91" style="stroke:#1A85FF;stroke-width:9.72"/>
	<line x1="3701.03" y1="1328.91" x2="3765.83" y2="1328.91" style="stroke:#1A85FF;stroke-width:9.72"/>
	<line x1="3798.23" y1="1328.91" x2="3863.03" y2="1328.91" style="stroke:#1A85FF;stroke-width:9.72"/>
	<line x1="3895.43" y1="1328.91" x2="3960.23" y2="1328.91" style="stroke:#1A85FF;stroke-width:9.72"/>
	<line x1="3992.63" y1="1328.91" x2="4057.43" y2="1328.91" style="stroke:#1A85FF;stroke-width:9.72"/>
	<line x1="4089.83" y1="1328.91" x2="4154.63" y2="1328.91" style="stroke:#1A85FF;stroke-width:9.72"/>
	<line x1="4187.02" y1="1328.91" x2="4251.83" y2="1328.91" style="stroke:#1A85FF;stroke-width:9.72"/>
	<line x1="4284.23" y1="1328.91" x2="4349.02" y2="1328.91" style="stroke:#1A85FF;stroke-width:9.72"/>
	<line x1="4381.43" y1="1328.91" x2="4446.23" y2="1328.91" style="stroke:#1A85FF;stroke-width:9.72"/>
	<line x1="4478.63" y1="1328.91" x2="4543.43" y2="1328.91" style="stroke:#1A85FF;stroke-width:9.72"/>
	<line x1="4575.83" y1="1328.91" x2="4640.63" y2="1328.91" style="stroke:#1A85FF;stroke-width:9.72"/>
	<line x1="4673.02" y1="1328.91" x2="4737.83" y2="1328.91" style="stroke:#1A85FF;stroke-width:9.72"/>
	<line x1="4770.23" y1="1328.91" x2="4835.02" y2="1328.91" style="stroke:#1A85FF;stroke-width:9.72"/>
	<line x1="4867.43" y1="1328.91" x2="4932.23" y2="1328.91" style="stroke:#1A85FF;stroke-width:9.72"/>
	<line x1="4964.63" y1="1328.91" x2="5029.43" y2="1328.91" style="stroke:#1A85FF;stroke-width:9.72"/>
	<line x1="5061.83" y1="1328.91" x2="5126.63" y2="1328.91" style="stroke:#1A85FF;stroke-width:9.72"/>
	<line x1="5159.02" y1="1328.91" x2="5223.83" y2="1328.91" style="stroke:#1A85FF;stroke-width:9.72"/>
	<line x1="5256.23" y1="1328.91" x2="5286.60" y2="1328.91" style="stroke:#1A85FF;stroke-width:9.72"/>
	<rect x="789.92" y="1432.52" width="429.30" height="1226.64" style="fill:#1A85FF"/>
	<rect x="793.16" y="1435.76" width="422.82" height="1220.16" style="fill:none;stroke:#1A85FF;stroke-width:6.48"/>
	<rect x="1219.22" y="881.38" width="429.30" height="1777.78" style="fill:#D41159"/>
	<rect x="1222.46" y="884.62" width="422.82" height="1771.30" style="fill:none;stroke:#D41159;stroke-width:6.48"/>
	<rect x="1936.07" y="1522.13" width="429.30" height="1137.04" style="fill:#1A85FF"/>
	<rect x="1939.31" y="1525.37" width="422.82" height="1130.56" style="fill:none;stroke:#1A85FF;stroke-width:6.48"/>
	<rect x="2365.37" y="901.29" width="429.47" height="1757.87" style="fill:#D41159"/>
	<rect x="2368.61" y="904.53" width="422.99" height="1751.39" style="fill:none;stroke:#D41159;stroke-width:6.48"/>
	<rect x="3082.39" y="1423.41" width="429.30" height="1235.76" style="fill:#1A85FF"/>
	<rect x="3085.63" y="1426.65" width="422.82" height="1229.28" style="fill:none;stroke:#1A85FF;stroke-width:6.48"/>
	<rect x="3511.69" y="856.57" width="429.30" height="1802.59" style="fill:#D41159"/>
	<rect x="3514.93" y="859.81" width="422.82" height="1796.11" style="fill:none;stroke:#D41159;stroke-width:6.48"/>
	<rect x="4228.71" y="1530.73" width="429.30" height="1128.43" style="fill:#1A85FF"/>
	<rect x="4231.95" y="1533.97" width="422.82" height="1121.95" style="fill:none;stroke:#1A85FF;stroke-width:6.48"/>
	<rect x="4658.01" y="940.11" width="429.30" height="1719.06" style="fill:#D41159"/>
	<rect x="4661.25" y="943.35" width="422.82" height="1712.58" style="fill:none;stroke:#D41159;stroke-width:6.48"/>
	<text x="1004.57" y="1374.10" style="font-family:'Helvetica';font-size:89.94px;fill:#000000" text-anchor="middle">50</text>
	<text x="1433.87" y="822.79" style="font-family:'Helvetica';font-size:89.94px;fill:#000000" text-anchor="middle">73</text>
	<text x="2150.72" y="1463.54" style="font-family:'Helvetica';font-size:89.94px;fill:#000000" text-anchor="middle">47</text>
	<text x="2580.19" y="842.70" style="font-family:'Helvetica';font-size:89.94px;fill:#000000" text-anchor="middle">72</text>
	<text x="3297.04" y="1364.82" style="font-family:'Helvetica';font-size:89.94px;fill:#000000" text-anchor="middle">51</text>
	<text x="3726.34" y="798.15" style="font-family:'Helvetica';font-size:89.94px;fill:#000000" text-anchor="middle">74</text>
	<text x="4443.36" y="1472.31" style="font-family:'Helvetica';font-size:89.94px;fill:#000000" text-anchor="middle">46</text>
	<text x="4872.66" y="881.52" style="font-family:'Helvetica';font-size:89.94px;fill:#000000" text-anchor="middle">71</text>
	<line x1="590.63" y1="2659.16" x2="590.63" y2="113.40" style="stroke:#000000;stroke-width:6.48"/>
	<line x1="590.63" y1="2659.16" x2="545.57" y2="2659.16" style="stroke:#000000;stroke-width:6.48"/>
	<text x="523.13" y="2698.60" style="font-family:'Helvetica';font-size:112.56px;fill:#000000" text-anchor="end">0</text>
	<line x1="590.63" y1="2172.66" x2="545.57" y2="2172.66" style="stroke:#000000;stroke-width:6.48"/>
	<text x="523.13" y="2212.09" style="font-family:'Helvetica';font-size:112.56px;fill:#000000" text-anchor="end">20</text>
	<line x1="590.63" y1="1686.15" x2="545.57" y2="1686.15" style="stroke:#000000;stroke-width:6.48"/>
	<text x="523.13" y="1725.59" style="font-family:'Helvetica';font-size:112.56px;fill:#000000" text-anchor="end">40</text>
	<line x1="590.63" y1="1199.81" x2="545.57" y2="1199.81" style="stroke:#000000;stroke-width:6.48"/>
	<text x="523.13" y="1239.25" style="font-family:'Helvetica';font-size:112.56px;fill:#000000" text-anchor="end">60</text>
	<line x1="590.63" y1="713.31" x2="545.57" y2="713.31" style="stroke:#000000;stroke-width:6.48"/>
	<text x="523.13" y="752.74" style="font-family:'Helvetica';font-size:112.56px;fill:#000000" text-anchor="end">80</text>
	<line x1="590.63" y1="226.80" x2="545.57" y2="226.80" style="stroke:#000000;stroke-width:6.48"/>
	<text x="523.13" y="266.24" style="font-family:'Helvetica';font-size:112.56px;fill:#000000" text-anchor="end">100</text>
	<text x="214.55" y="1386.28" style="font-family:'Helvetica';font-size:112.56px;fill:#000000" transform="rotate(-90 214.55,1386.28)" text-anchor="middle">Estimated reproducibility rate</text>
	<line x1="590.63" y1="2659.16" x2="5286.60" y2="2659.16" style="stroke:#000000;stroke-width:6.48"/>
	<text x="1219.22" y="2782.92" style="font-family:'Helvetica';font-size:112.56px;fill:#000000" text-anchor="middle">PhD student</text>
	<text x="2365.37" y="2782.92" style="font-family:'Helvetica';font-size:112.56px;fill:#000000" text-anchor="middle">Assistant Prof.</text>
	<text x="3511.69" y="2782.92" style="font-family:'Helvetica';font-size:112.56px;fill:#000000" text-anchor="middle">Associate Prof.</text>
	<text x="4658.01" y="2782.92" style="font-family:'Helvetica';font-size:112.56px;fill:#000000" text-anchor="middle">Professor</text>
	<rect x="1546.09" y="2878.03" width="2785.05" height="209.76" style="fill:#FFFFFF"/>
	<rect x="1549.33" y="2881.27" width="2778.57" height="203.28" style="fill:none;stroke:#FFFFFF;stroke-width:6.48"/>
	<rect x="1594.69" y="2926.63" width="259.20" height="112.56" style="fill:#1A85FF"/>
	<rect x="1597.93" y="2929.87" width="252.72" height="106.08" style="fill:none;stroke:#1A85FF;stroke-width:6.48"/>
	<rect x="3046.95" y="2926.63" width="259.20" height="112.56" style="fill:#D41159"/>
	<rect x="3050.19" y="2929.87" width="252.72" height="106.08" style="fill:none;stroke:#D41159;stroke-width:6.48"/>
	<text x="1921.39" y="3022.26" style="font-family:'Helvetica';font-size:112.56px;fill:#000000">Before 2019 policy</text>
	<text x="3373.65" y="3022.26" style="font-family:'Helvetica';font-size:112.56px;fill:#000000">Since 2019 policy</text>
</svg>
