<svg xmlns="http://www.w3.org/2000/svg" width="680" height="368pt" viewBox="0 0 510 368"><path d="M0 368h510.24V-.5H0z" fill="#fff"/><path stroke-width="1.75" stroke-linecap="round" stroke-linejoin="round" fill="none" stroke="#fff" d="M0 368h510.24V-.5H0z"/><clipPath id="a"><path transform="matrix(1 0 0 -1 0 368)" d="M41.06 56.24h460.21v246.29H41.06z"/></clipPath><g clip-path="url(#a)"><path d="M41.06 311.76h460.21V65.47H41.06z" fill="#fff"/><path stroke-width=".87" stroke-linejoin="round" fill="none" stroke="#ebebeb" d="M41.06 278.17h460.21M41.06 233.39h460.21M41.06 188.61h460.21M41.06 143.83h460.21M41.06 99.05h460.21"/><path stroke-width="1.75" stroke-linejoin="round" fill="none" stroke="#ebebeb" d="M41.06 300.56h460.21M41.06 255.78h460.21M41.06 211h460.21M41.06 166.22h460.21M41.06 121.44h460.21M41.06 76.66h460.21M127.35 311.76V65.47M271.16 311.76V65.47M414.98 311.76V65.47"/><path stroke-width="1.07" stroke-linejoin="round" fill="none" stroke="#e37e00" d="M128.54 166.08h4.8M130.94 166.08v21.23M128.54 187.31h4.8M272.36 167.58h4.79M274.76 167.58v23.31M272.36 190.89h4.79M416.18 178.07h4.79M418.58 178.07v22.38M416.18 200.45h4.79"/><path stroke-width="1.07" stroke-linejoin="round" fill="none" stroke="#1e2d53" d="M114.16 172.17h4.8M116.56 172.17v21.24M114.16 193.41h4.8M257.98 265.53h4.79M260.38 265.53v23.31M257.98 288.84h4.79M401.8 253.91h4.79M404.19 253.91v22.39M401.8 276.3h4.79"/><path stroke-width="1.07" stroke-linejoin="round" fill="none" stroke="#90353b" d="M142.93 166.42h4.79M145.32 166.42v21.23M142.93 187.65h4.79M286.74 82.56h4.8M289.14 82.56v23.31M286.74 105.87h4.8M430.56 103.08h4.79M432.96 103.08v22.38M430.56 125.46h4.79"/><path stroke-width="1.07" stroke-linejoin="round" fill="none" stroke="#e37e00" d="M121.35 198.65h4.8M123.75 198.65v28.3M121.35 226.95h4.8M265.17 192.34h4.79M267.57 192.34v23.9M265.17 216.24h4.79M408.99 207.04h4.79M411.38 207.04V226M408.99 226h4.79"/><path stroke-width="1.07" stroke-linejoin="round" fill="none" stroke="#1e2d53" d="M106.97 199.73h4.8M109.37 199.73v28.3M106.97 228.03h4.8M250.79 260.94h4.79M253.19 260.94v23.9M250.79 284.84h4.79M394.61 268.97h4.79M397 268.97v18.95M394.61 287.92h4.79"/><path stroke-width="1.07" stroke-linejoin="round" fill="none" stroke="#90353b" d="M135.73 204.55h4.8M138.13 204.55v28.31M135.73 232.86h4.8M279.55 137.44h4.8M281.95 137.44v23.9M279.55 161.34h4.8M423.37 154.09h4.79M425.77 154.09v18.95M423.37 173.04h4.79"/><path d="M130.94 172.16l3.93 6.8h-7.85zM274.76 174.7l3.92 6.8h-7.85zM418.58 184.73l3.92 6.8h-7.85z" fill="#e37e00"/><path d="M116.56 178.26l3.93 6.8h-7.86zM260.38 272.65l3.92 6.8h-7.85zM404.19 260.57l3.93 6.8h-7.85z" fill="#1e2d53"/><path d="M145.32 172.5l3.93 6.8h-7.85zM289.14 89.68l3.93 6.8h-7.86zM432.96 109.74l3.92 6.8h-7.85z" fill="#90353b"/><path d="M120.84 212.8c0-1.61 1.31-2.92 2.91-2.92s2.92 1.31 2.92 2.92c0 1.6-1.32 2.91-2.92 2.91a2.92 2.92 0 01-2.91-2.91M264.65 204.29c0-1.61 1.31-2.92 2.92-2.92 1.6 0 2.91 1.31 2.91 2.92 0 1.6-1.31 2.91-2.91 2.91-1.61 0-2.92-1.31-2.92-2.91M408.47 216.52c0-1.6 1.31-2.92 2.91-2.92a2.93 2.93 0 012.92 2.92c0 1.6-1.31 2.92-2.92 2.92-1.6 0-2.91-1.32-2.91-2.92" fill="#e37e00"/><path d="M106.45 213.88c0-1.6 1.32-2.92 2.92-2.92 1.6 0 2.91 1.32 2.91 2.92 0 1.6-1.31 2.91-2.91 2.91s-2.92-1.31-2.92-2.91M250.27 272.89c0-1.6 1.31-2.91 2.92-2.91 1.6 0 2.91 1.31 2.91 2.91 0 1.61-1.31 2.92-2.91 2.92-1.61 0-2.92-1.31-2.92-2.92M394.09 278.45c0-1.61 1.31-2.92 2.91-2.92 1.61 0 2.92 1.31 2.92 2.92 0 1.6-1.31 2.91-2.92 2.91a2.92 2.92 0 01-2.91-2.91" fill="#1e2d53"/><path d="M135.22 218.7c0-1.6 1.31-2.91 2.91-2.91 1.61 0 2.92 1.31 2.92 2.91 0 1.61-1.31 2.92-2.92 2.92-1.6 0-2.91-1.31-2.91-2.92M279.03 149.39c0-1.6 1.32-2.91 2.92-2.91 1.6 0 2.91 1.31 2.91 2.91s-1.31 2.92-2.91 2.92-2.92-1.32-2.92-2.92M422.85 163.57c0-1.61 1.31-2.92 2.92-2.92 1.6 0 2.91 1.31 2.91 2.92 0 1.6-1.31 2.91-2.91 2.91-1.61 0-2.92-1.31-2.92-2.91" fill="#90353b"/><path stroke-width="1.07" stroke-linejoin="round" fill="none" stroke="#000" d="M199.25 311.76V65.47"/><path d="M93.41 80.96h3.23v-.52l-.91-.07-.22-.18v-2.52l.12.01.11.01.11.01.1.01.1.01h.09l.09.01h.24l.59-.03.55-.1.48-.15.44-.21.37-.27.31-.31.25-.36.18-.4.11-.44.04-.48-.04-.55-.1-.47-.17-.4-.24-.34-.31-.27-.39-.22-.46-.16-.54-.12-.62-.06-.69-.02h-2.92v.51l.83.08.22.18v7.05l-.22.18-.73.07v.52zm2.1-3.9v-4.08h.07l.07-.01h.07l.06-.01h.39l.47.02.42.05.36.1.31.14.27.17.21.22.17.26.12.3.07.35.02.39-.02.4-.07.36-.11.32-.16.29-.21.24-.25.19-.29.16-.33.11-.38.07-.42.02h-.12l-.07-.01h-.08L96 77.1l-.09-.01h-.09l-.1-.01-.1-.01-.11-.01zM100.55 72.37v.51l.73.08.22.18v7.05l-.22.18-.73.07v.52h3.05v-.52l-.73-.07-.22-.18v-3.05h.14l.07-.01h.13l.06-.01h.24l.33.01.3.03.26.06.23.08.2.12.17.14.16.18.13.21.13.26.1.29.08.25.07.24.06.24.06.24.07.23.08.22.1.22.11.2.14.18.17.17.09.07.1.07.11.05.12.05.12.04.13.04.14.02.15.02.16.01h.35l.09-.01.1-.01.1-.01.1-.01.1-.01.11-.02.11-.02.11-.02v-.49h-.39l-.24-.02-.22-.03-.19-.05-.17-.07-.14-.09-.13-.12-.11-.14-.1-.18-.09-.21-.06-.18-.06-.19-.04-.19-.05-.2-.04-.19-.05-.19-.06-.2-.06-.19-.08-.18-.1-.18-.08-.13-.1-.11-.1-.1-.12-.1-.12-.09-.14-.08-.15-.07-.16-.07-.17-.06-.18-.05.39-.11.36-.12.31-.16.27-.17.23-.21.18-.22.15-.25.1-.27.06-.3.02-.32-.03-.44-.09-.4-.15-.35-.21-.3-.28-.25-.34-.2-.4-.16-.46-.11-.53-.07-.59-.02h-3.27zm2.1.59h.62l.45.01.4.05.36.08.3.11.26.16.21.19.17.24.11.28.07.32.02.38-.02.35-.06.32-.12.27-.15.23-.2.18-.25.16-.3.11-.34.08-.39.05-.43.01h-.49l-.1-.01h-.12v-3.57zM108.82 80.96h6.6v-2.09h-.67l-.21 1.3-.18.2h-3.44v-3.58h2.1l.18.19.13.92h.6v-2.82h-.6l-.13.94-.18.18h-2.1v-3.24h2.96l.18.19.18 1.09h.72v-1.87h-6.14v.51l.73.08.22.18v7.05l-.22.18-.73.07v.52zM116.38 77.45v.86h2.88v-.86h-2.88zM120.63 80.7l.18.08.2.07.2.06.22.05.23.05.23.03.25.03.26.03.26.01h.27l.6-.03.54-.09.48-.15.44-.2.37-.25.31-.29.25-.34.18-.37.11-.41.04-.44v-.17l-.02-.16-.03-.15-.04-.15-.05-.15-.06-.13-.08-.14-.08-.12-.1-.12-.1-.12-.18-.16-.19-.14-.19-.13-.19-.11-.2-.1-.19-.09-.2-.08-.2-.08-.2-.08-.2-.08-.33-.14-.3-.14-.27-.14-.24-.14-.19-.14-.17-.16-.12-.17-.1-.19-.05-.21-.02-.25.02-.27.06-.25.09-.22.13-.2.16-.18.2-.15.23-.12.25-.08.29-.06.31-.01h.14l.12.01.13.01.12.02.12.02.11.03.11.04.11.04.1.04.1.05.19.22.19 1.22h.67v-1.99l-.23-.07-.22-.06-.23-.05-.21-.05-.22-.04-.22-.03-.21-.02-.22-.02-.21-.01h-.21l-.53.03-.48.08-.43.14-.39.19-.33.24-.28.28-.22.32-.17.36-.1.39-.03.42.02.35.07.31.11.28.15.24.2.22.24.21.28.18.32.18.37.18.4.18.4.17.36.16.32.15.28.14.24.16.19.17.15.18.11.22.07.25.02.3-.02.26-.06.24-.1.23-.14.2-.18.17-.21.15-.26.12-.28.09-.32.06-.36.02-.17-.01-.17-.01-.15-.01-.16-.02-.14-.03-.15-.03-.13-.04-.13-.04-.12-.05-.11-.06-.17-.22-.15-1.47h-.76v2.25zM127.4 72.37v.51l.73.08.22.18v7.05l-.22.18-.73.07v.52h3.11v-.52l-.79-.07-.22-.18v-3.44h4.41v3.44l-.22.18-.79.07v.52h3.11v-.52l-.73-.07-.22-.18v-7.05l.22-.18.73-.08v-.51h-3.11v.51l.79.08.22.18v3.02h-4.41v-3.02l.22-.18.79-.08v-.51h-3.11zM141.12 72.15l-.33.01-.32.04-.31.05-.29.08-.29.11-.28.12-.27.15-.26.17-.25.19-.23.21-.25.26-.22.28-.19.29-.17.32-.15.33-.12.35-.09.36-.07.38-.04.4-.01.41.01.41.04.4.07.38.09.37.12.35.15.33.17.32.2.3.22.28.25.26.23.21.24.18.26.17.27.14.28.12.29.1.3.08.31.06.31.03.33.02.44-.03.42-.06.41-.11.39-.14.37-.19.34-.22.32-.26.29-.29.27-.32.23-.36.12-.22.11-.23.1-.24.09-.25.07-.25.06-.25.04-.27.04-.27.02-.27v-.28l-.01-.41-.04-.4-.07-.38-.1-.36-.12-.35-.14-.33-.17-.32-.2-.29-.22-.28-.25-.26-.23-.21-.25-.19-.26-.17-.26-.15-.28-.12-.29-.11-.3-.08-.3-.05-.32-.04-.32-.01zm0 .69l.48.05.44.12.41.21.36.28.32.36.27.43.22.49.16.57.09.62.04.69-.04.68-.09.63-.16.57-.22.49-.27.44-.32.35-.36.29-.41.21-.44.12-.48.05-.49-.05-.44-.12-.41-.21-.37-.29-.32-.35-.27-.44-.22-.49-.16-.57-.09-.63-.04-.68.04-.69.09-.63.16-.57.22-.49.27-.43.32-.36.37-.28.41-.2.44-.13.49-.04zM153.32 80.67v-2.03h-.72l-.28 1.42-.21.21-.11.03-.11.03-.12.03-.11.02-.11.02-.11.01-.11.01-.11.01h-.11l-.11.01-.6-.05-.54-.12-.5-.21-.43-.29-.38-.36-.31-.43-.25-.5-.18-.58-.11-.63-.04-.7.04-.66.1-.6.18-.55.24-.48.3-.41.36-.34.41-.28.46-.19.51-.13.55-.04.15.01.14.01.15.01.14.03.15.03.14.04.14.04.14.05.14.05.14.07.17.23.19 1.16h.72v-1.97l-.28-.08-.27-.08-.27-.06-.26-.06-.26-.05-.25-.04-.24-.03-.24-.02-.24-.01h-.23l-.77.05-.71.15-.65.25-.58.34-.51.43-.42.5-.34.58-.25.65-.16.72-.05.77.02.5.08.48.12.46.17.45.2.42.25.39.29.36.33.33.36.3.39.25.19.1.19.08.2.08.2.07.22.05.22.05.23.04.24.02.24.02h.51l.26-.01.26-.03.26-.03.26-.04.26-.05.26-.06.26-.06.25-.08.26-.08zM154.3 80.96h3.12v-.52l-.8-.07-.22-.18v-3.06h.95l2.45 3.45v.38h2.11v-.52l-.94-.07-2.9-4.17 2.69-3.2.84-.12v-.51h-2.66v.51l.72.08.07.18-2.84 3.47h-.49v-3.47l.22-.18.8-.08v-.51h-3.12v.51l.73.08.22.18v7.05l-.22.18-.73.07v.52zM304.9 80.96h3.22v-.52l-.91-.07-.21-.18v-2.52l.11.01.12.01.1.01.11.01.09.01h.1l.09.01h.24l.59-.03.54-.1.49-.15.43-.21.38-.27.31-.31.25-.36.18-.4.11-.44.03-.48-.03-.55-.1-.47-.17-.4-.24-.34-.31-.27-.39-.22-.46-.16-.54-.12-.62-.06-.7-.02h-2.92v.51l.84.08.21.18v7.05l-.21.18-.73.07v.52zm2.1-3.9v-4.08h.07l.06-.01h.07l.07-.01h.39l.47.02.41.05.37.1.31.14.27.17.21.22.17.26.12.3.07.35.02.39-.02.4-.07.36-.12.32-.16.29-.2.24-.25.19-.29.16-.33.11-.38.07-.42.02h-.12l-.08-.01h-.07l-.08-.01-.09-.01h-.09l-.1-.01-.1-.01-.11-.01zM316.3 72.15l-.32.01-.32.04-.31.05-.3.08-.28.11-.28.12-.27.15-.26.17-.25.19-.23.21-.25.26-.22.28-.2.29-.17.32-.14.33-.12.35-.09.36-.07.38-.04.4-.01.41.01.41.04.4.07.38.09.37.12.35.15.33.17.32.2.3.22.28.25.26.23.21.24.18.26.17.27.14.28.12.29.1.3.08.31.06.31.03.32.02.44-.03.43-.06.41-.11.39-.14.36-.19.35-.22.32-.26.29-.29.27-.32.23-.36.12-.22.11-.23.1-.24.09-.25.07-.25.06-.25.04-.27.03-.27.02-.27.01-.28-.01-.41-.04-.4-.07-.38-.1-.36-.12-.35-.14-.33-.18-.32-.19-.29-.22-.28-.25-.26-.23-.21-.25-.19-.26-.17-.26-.15-.28-.12-.29-.11-.3-.08-.3-.05-.32-.04-.33-.01zm0 .69l.48.05.45.12.41.21.36.28.32.36.27.43.22.49.15.57.1.62.04.69-.04.68-.1.63-.15.57-.22.49-.27.44-.32.35-.36.29-.41.21-.45.12-.48.05-.48-.05-.45-.12-.4-.21-.37-.29-.32-.35-.27-.44-.22-.49-.16-.57-.1-.63-.03-.68.03-.69.1-.63.16-.57.22-.49.27-.43.32-.36.37-.28.4-.2.45-.13.48-.04zM321.75 80.7l.18.08.19.07.21.06.22.05.22.05.24.03.25.03.25.03.27.01h.27l.59-.03.54-.09.49-.15.43-.2.38-.25.31-.29.25-.34.18-.37.11-.41.04-.44-.01-.17-.02-.16-.02-.15-.04-.15-.06-.15-.06-.13-.07-.14-.08-.12-.1-.12-.11-.12-.18-.16-.18-.14-.19-.13-.19-.11-.2-.1-.2-.09-.2-.08-.19-.08-.2-.08-.2-.08-.34-.14-.3-.14-.27-.14-.23-.14-.2-.14-.16-.16-.13-.17-.09-.19-.05-.21-.02-.25.02-.27.05-.25.1-.22.13-.2.16-.18.2-.15.22-.12.26-.08.29-.06.31-.01h.13l.13.01.13.01.12.02.11.02.12.03.11.04.1.04.1.04.1.05.19.22.2 1.22h.66v-1.99l-.22-.07-.23-.06-.22-.05-.22-.05-.22-.04-.21-.03-.22-.02-.21-.02-.21-.01h-.22l-.52.03-.48.08-.44.14-.38.19-.34.24-.28.28-.22.32-.16.36-.1.39-.03.42.02.35.07.31.11.28.15.24.2.22.24.21.28.18.32.18.37.18.4.18.4.17.36.16.32.15.28.14.23.16.2.17.15.18.11.22.07.25.02.3-.02.26-.06.24-.1.23-.14.2-.18.17-.22.15-.25.12-.29.09-.32.06-.35.02-.17-.01-.17-.01-.16-.01-.15-.02-.15-.03-.14-.03-.13-.04-.13-.04-.12-.05-.12-.06-.16-.22-.16-1.47h-.75v2.25zM328.3 72.37v1.97h.71l.18-1.19.17-.19h1.98v7.23l-.23.18-.86.07v.52h3.34v-.52l-.86-.07-.23-.18v-7.23h1.97l.18.19.18 1.19h.71v-1.97h-7.24zM336.34 77.45v.86h2.88v-.86h-2.88zM340.59 80.7l.19.08.19.07.21.06.21.05.23.05.24.03.25.03.25.03.27.01h.27l.59-.03.54-.09.49-.15.43-.2.37-.25.32-.29.25-.34.18-.37.11-.41.03-.44v-.17l-.02-.16-.03-.15-.04-.15-.05-.15-.06-.13-.07-.14-.09-.12-.09-.12-.11-.12-.18-.16-.18-.14-.19-.13-.2-.11-.19-.1-.2-.09-.2-.08-.2-.08-.2-.08-.19-.08-.34-.14-.3-.14-.27-.14-.23-.14-.2-.14-.16-.16-.13-.17-.09-.19-.06-.21-.01-.25.01-.27.06-.25.1-.22.12-.2.17-.18.19-.15.23-.12.26-.08.28-.06.32-.01h.13l.13.01.12.01.12.02.12.02.11.03.11.04.11.04.1.04.1.05.19.22.19 1.22h.67v-1.99l-.23-.07-.22-.06-.22-.05-.22-.05-.22-.04-.22-.03-.21-.02-.21-.02-.22-.01h-.21l-.52.03-.48.08-.44.14-.38.19-.34.24-.28.28-.22.32-.16.36-.1.39-.04.42.03.35.06.31.11.28.16.24.19.22.24.21.28.18.33.18.36.18.41.18.4.17.36.16.32.15.27.14.24.16.2.17.15.18.11.22.06.25.03.3-.02.26-.07.24-.1.23-.14.2-.17.17-.22.15-.25.12-.29.09-.32.06-.36.02-.17-.01-.16-.01-.16-.01-.15-.02-.15-.03-.14-.03-.14-.04-.12-.04-.13-.05-.11-.06-.17-.22-.15-1.47h-.76v2.25zM347.37 72.37v.51l.73.08.21.18v7.05l-.21.18-.73.07v.52h3.11v-.52l-.8-.07-.21-.18v-3.44h4.4v3.44l-.22.18-.79.07v.52h3.11v-.52l-.73-.07-.22-.18v-7.05l.22-.18.73-.08v-.51h-3.11v.51l.79.08.22.18v3.02h-4.4v-3.02l.21-.18.8-.08v-.51h-3.11zM361.08 72.15l-.33.01-.31.04-.31.05-.3.08-.29.11-.28.12-.27.15-.26.17-.24.19-.24.21-.25.26-.22.28-.19.29-.17.32-.14.33-.12.35-.1.36-.06.38-.04.4-.02.41.02.41.04.4.06.38.1.37.12.35.14.33.17.32.2.3.22.28.25.26.23.21.25.18.25.17.27.14.28.12.29.1.3.08.31.06.32.03.32.02.44-.03.42-.06.41-.11.39-.14.37-.19.34-.22.32-.26.3-.29.26-.32.23-.36.13-.22.11-.23.1-.24.08-.25.07-.25.06-.25.05-.27.03-.27.02-.27.01-.28-.02-.41-.04-.4-.07-.38-.09-.36-.12-.35-.15-.33-.17-.32-.2-.29-.22-.28-.24-.26-.24-.21-.25-.19-.25-.17-.27-.15-.28-.12-.28-.11-.3-.08-.31-.05-.31-.04-.33-.01zm0 .69l.48.05.44.12.41.21.37.28.31.36.27.43.22.49.16.57.1.62.03.69-.03.68-.1.63-.16.57-.22.49-.27.44-.31.35-.37.29-.41.21-.44.12-.48.05-.48-.05-.45-.12-.41-.21-.37-.29-.32-.35-.27-.44-.21-.49-.16-.57-.1-.63-.03-.68.03-.69.1-.63.16-.57.21-.49.27-.43.32-.36.37-.28.41-.2.45-.13.48-.04zM373.28 80.67v-2.03h-.72l-.28 1.42-.2.21-.12.03-.11.03-.11.03-.12.02-.11.02-.11.01-.11.01-.11.01h-.11l-.11.01-.59-.05-.55-.12-.49-.21-.44-.29-.37-.36-.32-.43-.25-.5-.18-.58-.11-.63-.04-.7.04-.66.11-.6.17-.55.24-.48.3-.41.36-.34.41-.28.46-.19.51-.13.55-.04.15.01.15.01.14.01.15.03.14.03.14.04.14.04.14.05.14.05.15.07.16.23.19 1.16h.72v-1.97l-.28-.08-.27-.08-.27-.06-.26-.06-.25-.05-.25-.04-.25-.03-.24-.02-.23-.01h-.23l-.78.05-.71.15-.65.25-.58.34-.5.43-.43.5-.34.58-.25.65-.15.72-.06.77.03.5.07.48.12.46.17.45.21.42.25.39.29.36.32.33.36.3.4.25.18.1.19.08.2.08.21.07.21.05.22.05.23.04.24.02.24.02h.51l.26-.01.26-.03.26-.03.26-.04.26-.05.26-.06.26-.06.26-.08.25-.08zM374.27 80.96h3.11v-.52l-.8-.07-.21-.18v-3.06h.94l2.45 3.45v.38h2.11v-.52l-.93-.07-2.91-4.17 2.69-3.2.85-.12v-.51h-2.67v.51l.72.08.08.18-2.85 3.47h-.48v-3.47l.21-.18.8-.08v-.51h-3.11v.51l.73.08.21.18v7.05l-.21.18-.73.07v.52z" fill-rule="evenodd"/><path stroke-width="1.75" stroke-linecap="round" stroke-linejoin="round" fill="none" stroke="#333" d="M41.06 311.76h460.21V65.47H41.06z"/></g><path d="M21.6 300.08l-.45-.17-.4-.18-.35-.18-.3-.2-.26-.2-.21-.22-.16-.23-.12-.24-.06-.26-.03-.28.02-.28.07-.26.1-.24.14-.23.17-.19.2-.17.23-.14.25-.1.27-.07.29-.02.31.02.28.07.25.1.23.14.2.18.17.21.13.24.1.28.06.3.02.33-.01.23-.04.23-.06.22-.08.21-.11.21-.13.2-.15.19-.17.18-.19.17-.21.15zm.6.26l.31-.18.27-.19.25-.21.21-.23.19-.24.15-.25.12-.26.09-.27.05-.28.02-.28-.04-.41-.09-.38-.15-.35-.21-.31-.27-.28-.32-.24-.36-.19-.42-.14-.45-.09-.5-.03-.52.03-.48.1-.43.15-.39.2-.34.25-.29.3-.23.34-.16.38-.11.41-.03.45.01.3.05.29.08.27.1.25.14.23.17.21.19.2.23.17.26.16.28.14-.37.16-.34.18-.29.2-.26.22-.22.24-.18.26-.14.28-.09.3-.06.31-.02.34.03.47.11.44.18.4.25.37.31.32.38.27.43.21.49.16.55.1.59.04.58-.04.54-.11.48-.17.44-.23.38-.29.31-.32.26-.37.19-.4.11-.43.04-.45-.02-.33-.07-.32-.1-.29-.15-.28-.18-.26-.23-.25-.27-.22-.31-.2-.34-.17-.39-.16zm-2.07.32l.55.21.49.19.43.2.38.19.32.2.26.22.2.23.15.25.08.29.03.32-.02.33-.07.31-.12.28-.15.25-.2.22-.23.18-.27.15-.3.11-.33.06-.35.03-.4-.03-.37-.07-.33-.12-.3-.16-.25-.21-.22-.24-.17-.27-.12-.31-.08-.34-.02-.37.01-.28.04-.26.06-.24.1-.23.12-.21.16-.2.18-.18.21-.18.25-.16.28-.16zM28.98 295.56l-.59.05-.55.16-.5.27-.45.36-.39.47-.32.55-.26.65-.19.75-.12.82-.04.92.04.91.12.83.19.74.26.66.32.56.39.46.45.37.5.26.55.16.59.06.6-.06.55-.16.5-.26.44-.37.39-.46.33-.56.26-.66.19-.74.12-.83.04-.91-.04-.92-.12-.82-.19-.75-.26-.65-.33-.55-.39-.47-.44-.36-.5-.27-.55-.16-.6-.05zm0 .68l.38.04.34.13.31.22.26.31.23.39.19.47.15.57.1.64.07.73.02.82-.02.81-.07.73-.1.65-.15.56-.19.48-.23.39-.26.3-.31.22-.34.13-.38.05-.38-.05-.34-.13-.31-.21-.26-.31-.23-.39-.19-.47-.15-.56-.11-.65-.06-.73-.03-.81.03-.82.06-.73.11-.65.15-.56.19-.48.23-.39.26-.31.31-.22.34-.13.38-.04zM22.89 256.02l-.19.1-.19.08-.19.08-.19.06-.18.06-.18.04-.18.04-.17.03-.17.01-.17.01-.4-.03-.35-.08-.32-.13-.27-.18-.24-.22-.2-.28-.15-.32-.11-.37-.07-.41-.02-.46.02-.46.07-.42.12-.37.16-.34.2-.29.23-.24.27-.19.29-.14.32-.09.35-.02.37.03.35.09.3.16.28.22.23.28.2.34.15.4.11.46.07.52.02.58v.28l-.01.14-.01.14-.02.15-.02.14-.02.15-.03.15-.03.15-.03.15zm-4.1 5.34l1.02-.44.92-.52.83-.58.72-.64.62-.69.51-.74.41-.78.29-.8.18-.83.06-.84-.04-.67-.11-.61-.17-.54-.24-.48-.31-.42-.36-.34-.43-.27-.47-.2-.53-.12-.58-.04-.61.04-.56.12-.51.2-.46.26-.4.33-.34.39-.27.45-.2.49-.13.54-.04.58.04.54.1.5.17.45.23.41.28.35.34.29.39.24.43.17.47.11.5.03h.2l.19-.02.21-.03.21-.04.21-.05.22-.06.22-.07.23-.09.23-.09.24-.11-.21.49-.26.46-.3.44-.36.42-.4.4-.44.39-.5.36-.54.35-.59.33-.64.32.33.66zM28.98 250.78l-.59.05-.55.16-.5.27-.45.36-.39.47-.32.55-.26.65-.19.75-.12.82-.04.92.04.91.12.83.19.74.26.66.32.56.39.46.45.37.5.26.55.16.59.06.6-.06.55-.16.5-.26.44-.37.39-.46.33-.56.26-.66.19-.74.12-.83.04-.91-.04-.92-.12-.82-.19-.75-.26-.65-.33-.55-.39-.47-.44-.36-.5-.27-.55-.16-.6-.05zm0 .68l.38.04.34.13.31.22.26.31.23.39.19.47.15.57.1.64.07.73.02.82-.02.81-.07.73-.1.65-.15.56-.19.48-.23.39-.26.3-.31.22-.34.13-.38.05-.38-.05-.34-.13-.31-.21-.26-.31-.23-.39-.19-.47-.15-.56-.11-.65-.06-.73-.03-.81.03-.82.06-.73.11-.65.15-.56.19-.48.23-.39.26-.31.31-.22.34-.13.38-.04zM13.44 206l-3.12.94v.6l2.26-.4v7.75l-.17.24-1.66.09v.62h4.83v-.61l-1.56-.07-.17-.22V206h-.41zM20.98 206l-.6.05-.55.16-.5.27-.44.36-.39.47-.33.55-.26.65-.19.75-.12.82-.04.92.04.91.12.83.19.74.26.66.33.56.39.46.44.37.5.26.55.16.6.06.59-.06.55-.16.5-.26.45-.37.38-.46.33-.56.26-.66.19-.74.12-.83.04-.91-.04-.92-.12-.82-.19-.75-.26-.65-.33-.55-.38-.47-.45-.36-.5-.27-.55-.16-.59-.05zm0 .68l.38.04.34.13.3.22.27.31.23.39.18.47.15.57.11.64.06.73.02.82-.02.81-.06.73-.11.65-.15.56-.18.48-.23.39-.27.3-.3.22-.34.13-.38.05-.38-.05-.35-.13-.3-.21-.27-.31-.23-.39-.19-.47-.15-.56-.11-.65-.06-.73-.02-.81.02-.82.06-.73.11-.65.15-.56.19-.48.23-.39.27-.31.3-.22.35-.13.38-.04zM28.98 206l-.59.05-.55.16-.5.27-.45.36-.39.47-.32.55-.26.65-.19.75-.12.82-.04.92.04.91.12.83.19.74.26.66.32.56.39.46.45.37.5.26.55.16.59.06.6-.06.55-.16.5-.26.44-.37.39-.46.33-.56.26-.66.19-.74.12-.83.04-.91-.04-.92-.12-.82-.19-.75-.26-.65-.33-.55-.39-.47-.44-.36-.5-.27-.55-.16-.6-.05zm0 .68l.38.04.34.13.31.22.26.31.23.39.19.47.15.57.1.64.07.73.02.82-.02.81-.07.73-.1.65-.15.56-.19.48-.23.39-.26.3-.31.22-.34.13-.38.05-.38-.05-.34-.13-.31-.21-.26-.31-.23-.39-.19-.47-.15-.56-.11-.65-.06-.73-.03-.81.03-.82.06-.73.11-.65.15-.56.19-.48.23-.39.26-.31.31-.22.34-.13.38-.04zM13.44 161.22l-3.12.94v.6l2.26-.4v7.75l-.17.24-1.66.09v.62h4.83v-.61l-1.56-.07-.17-.22v-8.94h-.41zM21.45 161.22l-3.12.94v.6l2.26-.4v7.75l-.18.24-1.65.09v.62h4.82v-.61l-1.55-.07-.18-.22v-8.94h-.4zM28.98 161.22l-.59.05-.55.16-.5.27-.45.36-.39.47-.32.55-.26.65-.19.75-.12.82-.04.92.04.91.12.83.19.74.26.66.32.56.39.46.45.37.5.26.55.16.59.06.6-.06.55-.16.5-.26.44-.37.39-.46.33-.56.26-.66.19-.74.12-.83.04-.91-.04-.92-.12-.82-.19-.75-.26-.65-.33-.55-.39-.47-.44-.36-.5-.27-.55-.16-.6-.05zm0 .68l.38.04.34.13.31.22.26.31.23.39.19.47.15.57.1.64.07.73.02.82-.02.81-.07.73-.1.65-.15.56-.19.48-.23.39-.26.3-.31.22-.34.13-.38.05-.38-.05-.34-.13-.31-.21-.26-.31-.23-.39-.19-.47-.15-.56-.11-.65-.06-.72-.03-.82.03-.82.06-.73.11-.65.15-.56.19-.48.23-.39.26-.31.31-.22.34-.13.38-.04zM13.44 116.44l-3.12.94v.6l2.26-.4v7.75l-.17.24-1.66.09v.62h4.83v-.61l-1.56-.07-.17-.22v-8.94h-.41zM19 125.14l.91-.74.83-.68.73-.65.64-.61.55-.58.45-.56.36-.55.25-.53.16-.54.05-.54-.04-.47-.1-.44-.16-.39-.22-.36-.28-.31-.34-.26-.39-.21-.44-.15-.49-.1-.54-.03-.52.03-.48.08-.44.14-.4.17-.35.22-.3.24-.24.27-.17.28-.11.3-.04.3.01.14.03.13.04.12.06.11.07.09.09.07.11.07.12.04.13.03.15.01h.07l.06-.01.07-.01.07-.02.06-.02.07-.02.06-.03.06-.03.06-.04.06-.04v-1.54l.13-.07.13-.06.13-.05.13-.05.13-.03.12-.03.13-.03.13-.01.13-.01.13-.01.34.03.31.07.29.12.25.16.21.2.18.24.14.29.11.32.06.36.02.39-.05.56-.16.54-.26.55-.36.54-.46.57-.56.58-.64.6-.74.65-.82.69-.9.74v.91h6.66v-2.37h-.64l-.26 1.23H19zM28.98 116.44l-.59.05-.55.16-.5.27-.45.36-.39.47-.32.55-.26.65-.19.75-.12.82-.04.92.04.91.12.83.19.74.26.66.32.56.39.46.45.37.5.26.55.16.59.06.6-.06.55-.16.5-.26.44-.37.39-.46.33-.56.26-.66.19-.74.12-.83.04-.91-.04-.92-.12-.82-.19-.75-.26-.65-.33-.55-.39-.47-.44-.36-.5-.27-.55-.16-.6-.05zm0 .68l.38.04.34.13.31.22.26.31.23.39.19.47.15.57.1.64.07.73.02.82-.02.81-.07.73-.1.65-.15.56-.19.48-.23.39-.26.3-.31.22-.34.13-.38.05-.38-.05-.34-.13-.31-.21-.26-.31-.23-.39-.19-.47-.15-.56-.11-.65-.06-.72-.03-.82.03-.82.06-.73.11-.65.15-.56.19-.48.23-.39.26-.31.31-.22.34-.13.38-.04zM13.44 71.66l-3.12.94v.6l2.26-.4v7.75l-.17.24-1.66.09v.62h4.83v-.61l-1.56-.07-.17-.22v-8.94h-.41zM21.54 76.41l.4-.13.36-.16.32-.18.28-.2.24-.23.19-.25.16-.26.11-.29.06-.31.02-.32-.03-.42-.1-.39-.15-.35-.22-.32-.27-.28-.32-.23-.37-.18-.42-.14-.45-.08-.5-.03-.53.03-.48.08-.44.12-.4.17-.35.2-.29.23-.24.25-.17.27-.11.28-.03.29.01.13.02.12.05.12.06.1.07.09.09.07.1.06.12.05.12.02.14.01h.13l.06-.01.06-.02.06-.01.06-.02.06-.03.05-.02.05-.04.06-.03v-1.36l.12-.08.13-.07.13-.06.13-.06.14-.04.13-.04.15-.03.14-.02.14-.01.15-.01.32.03.3.06.27.1.24.15.2.17.18.22.14.24.1.28.06.3.02.33-.02.33-.07.31-.11.27-.16.24-.21.21-.25.18-.29.13-.33.1-.37.06-.42.02h-.18l-.03-.01h-.09v.85l.08-.01.08-.01.08-.01.08-.01.08-.01H20.39l.07-.01h.14l.4.02.35.06.32.1.28.13.24.17.19.2.15.23.11.27.07.3.02.32-.03.38-.08.35-.13.33-.18.3-.22.26-.26.23-.29.18-.33.13-.36.09-.38.03-.13-.01-.12-.01-.13-.01-.12-.03-.13-.03-.12-.04-.12-.04-.12-.05-.11-.06-.12-.07-.45-1.22-.05-.02-.04-.01-.05-.01-.04-.01-.05-.01-.04-.01h-.16l-.13.01-.13.02-.12.05-.1.05-.1.08-.08.08-.06.1-.05.1-.03.12-.01.12.04.22.1.23.16.22.21.2.28.2.32.17.37.14.42.11.46.07.49.02.65-.03.58-.12.54-.17.47-.24.42-.29.34-.34.28-.39.2-.42.13-.45.04-.47-.03-.38-.08-.35-.13-.33-.19-.29-.23-.26-.28-.22-.33-.18-.38-.15-.41-.1-.46-.06zM28.98 71.66l-.59.05-.55.16-.5.27-.45.36-.39.47-.32.55-.26.65-.19.75-.12.82-.04.92.04.91.12.83.19.74.26.66.32.56.39.46.45.37.5.26.55.16.59.06.6-.06.55-.16.5-.26.44-.37.39-.46.33-.56.26-.66.19-.74.12-.83.04-.91-.04-.92-.12-.82-.19-.75-.26-.65-.33-.55-.39-.47-.44-.36-.5-.27-.55-.16-.6-.05zm0 .68l.38.04.34.13.31.22.26.31.23.39.19.48.15.56.1.64.07.73.02.82-.02.81-.07.73-.1.65-.15.56-.19.48-.23.39-.26.3-.31.22-.34.13-.38.05-.38-.05-.34-.13-.31-.21-.26-.31-.23-.39-.19-.47-.15-.56-.11-.65-.06-.72-.03-.82.03-.82.06-.73.11-.65.15-.56.19-.48.23-.39.26-.31.31-.22.34-.13.38-.04z" fill="#4d4d4d" fill-rule="evenodd"/><path stroke-width="1.75" stroke-linejoin="round" fill="none" stroke="#333" d="M36.57 300.56h4.49M36.57 255.78h4.49M36.57 211h4.49M36.57 166.22h4.49M36.57 121.44h4.49M36.57 76.66h4.49M127.35 316.24v-4.48M271.16 316.24v-4.48M414.98 316.24v-4.48"/><path d="M112.74 323.6v4.65l.01.29.03.26.06.22.09.19.11.15.16.13.19.1.24.06.28.04.33.02.17-.01h.18l.18-.02.18-.02.19-.03.19-.03.2-.05.19-.04.21-.06.2-.06v-.53l-.1.02-.1.02-.1.01-.1.02-.1.01-.1.01-.1.01-.1.01h-.2l-.27-.01-.24-.05-.19-.07-.15-.1-.12-.14-.09-.17-.06-.21-.04-.23-.03-.28V323.6h2.19v-.68h-2.19v-1.52h-.53l-.62 1.34-.95.42v.44h.9zM121.54 323.62v.82h8.42v-.82h-8.42zm0 2.69v.82h8.42v-.82h-8.42zM137.24 328.53l.91-.74.82-.68.74-.65.64-.61.54-.58.46-.56.35-.55.26-.53.15-.54.05-.54-.03-.47-.1-.44-.16-.39-.23-.36-.28-.31-.33-.26-.4-.21-.44-.15-.49-.1-.53-.03-.52.03-.48.08-.45.14-.4.17-.35.22-.29.24-.24.27-.18.28-.11.3-.03.3v.14l.03.13.04.12.06.1.08.1.09.07.11.06.11.05.14.03.14.01.07-.01h.07l.07-.01.06-.02.07-.02.06-.02.07-.03.06-.03.06-.04.06-.04v-1.54l.13-.07.13-.06.13-.05.12-.05.13-.04.13-.03.13-.02.12-.01.13-.01.13-.01.35.03.31.07.28.11.25.16.22.21.18.24.14.28.1.33.07.35.02.4-.06.56-.16.54-.26.55-.36.54-.46.56-.55.58-.65.61-.73.65-.82.69-.91.74v.9h6.67v-2.36h-.65l-.26 1.23h-4.33zM256.56 323.6v4.65l.01.29.03.26.06.22.08.19.12.15.15.13.2.1.23.06.29.04.33.02.17-.01h.17l.18-.02.19-.02.19-.03.19-.03.19-.05.2-.04.2-.06.2-.06v-.53l-.1.02-.09.02-.1.01-.1.02-.1.01-.1.01-.1.01-.1.01h-.2l-.28-.01-.23-.05-.19-.07-.16-.1-.12-.14-.08-.17-.07-.21-.04-.23-.02-.28V323.6h2.18v-.68h-2.18v-1.52h-.54l-.62 1.34-.95.42v.44h.91zM265.35 323.62v.82h8.43v-.82h-8.43zm0 2.69v.82h8.43v-.82h-8.43zM283.59 324.58l.4-.13.37-.16.32-.18.28-.21.23-.22.2-.25.15-.27.11-.28.06-.31.03-.32-.04-.42-.09-.39-.16-.36-.21-.31-.27-.28-.33-.23-.37-.18-.41-.14-.46-.08-.5-.03-.52.03-.49.08-.44.12-.4.17-.34.2-.3.23-.23.25-.18.27-.1.28-.04.28.01.14.03.12.04.12.06.1.08.09.09.07.1.06.11.05.12.02.14.01h.07l.06-.01h.07l.06-.02.06-.01.05-.02.06-.03.05-.03.06-.03.05-.04v-1.35l.13-.08.12-.07.13-.07.14-.05.13-.05.14-.03.14-.03.14-.02.15-.01.15-.01.32.02.29.07.27.1.24.14.21.18.17.21.14.25.1.27.06.31.03.33-.03.33-.07.31-.11.27-.16.24-.2.21-.25.17-.29.14-.34.1-.37.06-.42.02h-.15l-.03-.01h-.12v.85l.08-.01.08-.01.08-.01.08-.01.08-.01h.08l.07-.01H282.65l.4.02.36.06.31.09.28.14.24.16.19.21.16.23.11.27.06.29.03.33-.03.38-.08.35-.13.33-.18.3-.22.26-.26.22-.3.19-.33.13-.35.09-.39.03-.12-.01-.13-.01-.13-.02-.12-.02-.12-.03-.12-.04-.12-.04-.12-.06-.12-.05-.12-.07-.45-1.22-.04-.02-.05-.01-.04-.01-.05-.01-.04-.01-.04-.01h-.09l-.04-.01h-.04l-.13.01-.13.03-.11.04-.11.06-.09.07-.08.09-.07.1-.04.1-.03.12-.01.12.03.22.1.23.16.21.22.21.27.2.32.17.38.14.41.11.46.07.5.02.64-.04.59-.11.53-.17.48-.24.41-.29.35-.35.27-.38.2-.42.13-.45.04-.47-.03-.38-.08-.35-.13-.33-.19-.29-.23-.26-.28-.22-.33-.19-.37-.14-.42-.1-.46-.06zM400.38 323.52v4.65l.01.29.03.25.05.22.09.19.12.16.15.12.19.1.24.07.28.04.33.01h.18l.17-.01.18-.02.19-.02.18-.03.2-.03.19-.04.2-.05.2-.05.2-.07v-.53l-.1.02-.1.02-.1.02-.1.01-.1.02-.09.01-.1.01h-.1l-.1.01h-.1l-.28-.02-.23-.04-.2-.08-.15-.1-.12-.14-.09-.17-.06-.2-.04-.24-.02-.27-.01-.31v-3.8h2.19v-.68h-2.19v-1.53h-.53l-.62 1.34-.95.42v.45h.91zM409.17 323.53v.82h8.42v-.82h-8.42zm0 2.69v.82h8.42v-.82h-8.42zM428.14 319.83l-4.91 6.02v.93h4.64v3.33h1.11v-3.33h1.62v-.93h-1.62v-6.02h-.84zm-.27 1.57v4.45h-3.56l3.56-4.45z" fill="#4d4d4d" fill-rule="evenodd"/><path d="M74.73 359.03h17.28v-17.28H74.73z" fill="#fff"/><path d="M80.46 350.39c0-1.6 1.31-2.91 2.91-2.91 1.61 0 2.92 1.31 2.92 2.91 0 1.61-1.31 2.92-2.92 2.92-1.6 0-2.91-1.31-2.91-2.92"/><path d="M146.77 359.03h17.28v-17.28h-17.28z" fill="#fff"/><path d="M155.41 345.86l3.92 6.8h-7.85z"/><path d="M101.46 355.22h3.63v-.59l-1.03-.07-.24-.2v-2.84l.13.02.13.01.12.01.11.01.11.01h.11l.1.01h.09l.09.01h.09l.67-.04.61-.11.55-.17.48-.24.42-.3.35-.35.28-.41.2-.45.13-.5.04-.53-.04-.61-.11-.54-.19-.45-.28-.38-.35-.31-.43-.24-.52-.19-.61-.12-.69-.07-.79-.03h-3.28v.58l.94.08.24.21v7.93l-.24.2-.82.07v.59zm2.36-4.39v-4.58h.08l.07-.01.08-.01H104.43l.07-.01h.07l.52.03.47.06.41.11.35.15.3.2.24.24.19.3.13.34.08.38.03.44-.03.45-.08.41-.13.37-.18.31-.23.27-.28.22-.32.18-.38.12-.42.08-.47.02H104.55l-.09-.01h-.09l-.1-.01-.1-.01-.11-.01-.12-.01-.12-.02zM109.45 355.22h3.47v-.51l-1.01-.08-.24-.23v-4.11l.17-.2.17-.18.17-.16.16-.13.15-.12.16-.09.15-.08.15-.05.14-.03.15-.02.08.01.09.01.08.02.08.02.08.03.07.04.07.04.06.06.06.05.06.07h.46v-1.24l-.09-.04-.09-.03-.08-.03-.09-.02-.09-.02-.08-.02-.09-.01-.08-.01h-.09l-.08-.01h-.07l-.04.01H113.31l-.03.01-.04.01h-.03l-.16.13-.15.13-.16.13-.15.14-.16.13-.15.14-.16.15-.15.15-.15.15-.15.15v-1.35h-.55l-1.67.51v.45h1.02v5.21l-.26.23-.76.08v.51zM116.73 345.03l-.13.01-.13.03-.12.05-.11.07-.1.08-.08.1-.07.1-.05.13-.03.13-.01.13.01.14.03.13.05.12.07.1.08.1.1.08.11.07.12.04.13.04.13.01.14-.01.13-.04.12-.04.11-.07.1-.08.08-.1.07-.1.05-.12.03-.13.01-.14-.01-.13-.03-.13-.05-.12-.07-.11-.08-.1-.1-.08-.11-.07-.12-.05-.13-.03-.14-.01zm-.05 3.2l-1.66.51v.45h1.01v5.21l-.25.23-.76.08v.51h3.24v-.51l-.78-.08-.26-.23v-6.17h-.54zM124.67 354.62v-.75l-.18.12-.18.1-.18.09-.18.08-.18.06-.19.06-.18.04-.18.03-.19.02-.19.01-.43-.04-.4-.09-.36-.15-.32-.21-.28-.26-.23-.32-.18-.37-.14-.41-.08-.47-.03-.51.03-.52.07-.48.13-.43.16-.38.21-.33.24-.27.28-.22.3-.16.34-.1.36-.03h.07l.07.01.08.01.07.01.07.02.06.03.07.02.07.03.07.03.06.04v1.18l.07.04.06.04.06.03.07.03.06.02.07.02.06.02.07.01.06.01h.07l.14-.01.13-.03.12-.04.1-.06.1-.07.07-.09.06-.1.05-.11.03-.12v-.13l-.02-.25-.07-.22-.11-.21-.16-.18-.2-.16-.24-.14-.28-.11-.32-.08-.36-.05-.4-.02-.58.05-.54.12-.5.21-.45.27-.39.35-.33.41-.26.47-.2.53-.12.57-.04.62.04.62.11.57.18.53.25.46.31.41.37.34.42.28.47.2.53.12.56.05.24-.01.23-.02.23-.04.24-.05.23-.06.23-.08.24-.09.24-.11.23-.12.24-.13zM131.42 353.7l-.24.15-.24.15-.23.12-.23.11-.23.09-.22.08-.22.06-.22.04-.21.03h-.22l-.42-.03-.39-.09-.35-.16-.32-.22-.27-.27-.23-.33-.19-.39-.14-.43-.08-.48-.03-.53v-.16h4.67v-.05l.01-.05v-.35l-.03-.51-.09-.46-.14-.42-.2-.37-.24-.32-.3-.27-.34-.21-.38-.15-.42-.09-.45-.04-.56.05-.53.13-.48.2-.43.29-.39.35-.32.42-.26.47-.2.54-.11.58-.05.63.04.62.12.56.18.52.25.46.31.41.36.34.42.27.47.2.51.12.56.04h.27l.27-.03.28-.04.27-.06.28-.08.27-.1.27-.11.27-.13.26-.15.26-.16v-.79zm-1.28-2.87h-3.33l.05-.35.09-.33.12-.3.16-.26.19-.23.21-.2.23-.15.25-.11.26-.07.27-.03.28.02.25.06.22.09.2.13.16.17.14.19.11.24.08.27.05.3.01.33v.23zM137 348.47l-.15-.06-.16-.05-.15-.05-.17-.04-.16-.04-.17-.03-.18-.02-.18-.01-.18-.01-.19-.01-.47.03-.42.06-.38.11-.34.15-.28.19-.23.22-.19.27-.13.29-.08.34-.03.36.02.28.06.24.09.23.13.2.17.19.21.18.24.17.28.16.31.16.35.16.27.13.25.12.22.11.19.12.16.12.13.14.11.14.08.17.04.18.02.21-.02.2-.04.18-.08.17-.1.16-.13.13-.15.11-.17.1-.2.06-.22.05-.25.01h-.12l-.12-.01-.13-.02-.12-.03-.12-.03-.12-.03-.13-.05-.12-.05-.12-.06-.12-.07-.17-1.22h-.69v1.87l.15.06.16.05.17.04.18.04.19.03.19.03.2.02.2.02.21.01h.22l.49-.02.44-.07.4-.12.35-.16.3-.2.25-.25.2-.28.14-.32.09-.35.03-.39v-.15l-.02-.15-.03-.15-.04-.13-.05-.13-.06-.12-.08-.12-.08-.1-.09-.1-.1-.08-.14-.12-.15-.1-.15-.09-.15-.09-.16-.08-.15-.07-.16-.07-.16-.08-.15-.07-.15-.07-.23-.11-.21-.12-.18-.11-.16-.11-.14-.12-.11-.12-.08-.14-.07-.14-.03-.16-.02-.18.02-.19.03-.17.07-.15.08-.13.12-.12.13-.1.15-.07.18-.06.2-.03.22-.02.1.01.11.01.1.01.11.02.1.03.11.03.1.04.11.05.11.05.11.06.12 1.02h.71v-1.63zM173.49 345.56v.58l.82.08.25.21v7.93l-.25.2-.82.07v.59h3.43v-.59l-.82-.07-.25-.2v-3.43h.16l.07-.01h.07l.08-.01h.28l.06-.01.37.02.33.03.29.07.26.09.23.13.2.16.17.2.15.24.14.29.12.33.09.28.07.27.07.27.07.27.08.26.09.25.11.24.13.22.15.21.19.19.11.08.11.08.12.06.13.05.14.05.15.04.16.02.17.02.18.02H181.44l.1-.01h.1l.11-.01.11-.01.11-.02.12-.01.12-.02.12-.02.13-.03v-.55h-.44l-.27-.02-.25-.04-.21-.05-.19-.08-.16-.1-.14-.13-.13-.17-.11-.19-.1-.24-.07-.21-.06-.21-.05-.21-.05-.22-.05-.22-.06-.22-.06-.22-.08-.21-.09-.21-.11-.2-.09-.14-.1-.13-.12-.11-.13-.11-.14-.1-.16-.09-.16-.08-.18-.08-.2-.07-.2-.06.44-.11.4-.15.35-.17.3-.2.26-.23.21-.25.16-.28.12-.3.07-.34.02-.36-.03-.5-.1-.45-.18-.39-.24-.33-.31-.29-.38-.23-.45-.17-.52-.13-.59-.07-.67-.03h-3.67zm2.36.66h.69l.51.02.45.05.4.09.35.13.29.18.23.21.19.27.13.31.08.37.02.42-.02.4-.08.35-.12.31-.18.25-.22.22-.28.17-.33.13-.39.09-.44.05-.49.02h-.26l-.08-.01h-.32l-.13-.01v-4.02zM188.77 353.7l-.25.15-.23.15-.24.12-.22.11-.23.09-.22.08-.22.06-.22.04-.22.03h-.21l-.42-.03-.39-.09-.36-.16-.31-.22-.28-.27-.23-.33-.18-.39-.14-.43-.08-.48-.03-.53v-.16h4.66l.01-.05v-.09l.01-.05v-.26l-.03-.51-.09-.46-.14-.42-.2-.37-.25-.32-.29-.27-.34-.21-.38-.15-.42-.09-.45-.04-.57.05-.52.13-.48.2-.44.29-.38.35-.33.42-.26.47-.19.54-.12.58-.04.63.04.62.11.56.18.52.25.46.31.41.37.34.42.27.47.2.51.12.55.04h.27l.28-.03.27-.04.28-.06.27-.08.27-.1.27-.11.27-.13.27-.15.26-.16v-.79zm-1.28-2.87h-3.33l.05-.35.09-.33.12-.3.16-.26.18-.23.21-.2.23-.15.25-.11.27-.07.27-.03.28.02.25.06.22.09.19.13.17.17.14.19.11.24.07.27.05.3.02.33v.23zM190.65 349.16v4.65l.01.29.04.26.05.22.09.19.12.15.15.13.19.1.24.06.28.04.33.02.17-.01h.18l.18-.02.18-.02.19-.03.19-.03.2-.05.2-.04.2-.06.2-.06v-.53l-.1.02-.1.02-.1.02-.1.01-.1.01-.1.01-.1.01-.1.01h-.19l-.28-.01-.24-.04-.19-.08-.15-.1-.12-.14-.09-.17-.06-.2-.04-.24-.02-.28-.01-.31v-3.8h2.19v-.67h-2.19v-1.53h-.53l-.62 1.34-.95.42v.44h.9zM196.24 348.15l-1.67.54v.44h1.02v4.04l.02.41.07.37.1.33.14.28.17.25.22.2.25.16.29.11.32.07.35.02.22-.01.21-.03.23-.05.22-.07.23-.08.24-.11.23-.12.25-.14.25-.16.26-.18v.8h2.13v-.51l-.68-.08-.26-.23v-6.25h-.55l-1.67.54v.44h1.03v4.89l-.18.08-.17.07-.17.07-.17.05-.17.05-.17.04-.16.03-.16.02-.16.01-.16.01-.28-.02-.24-.04-.21-.08-.18-.1-.15-.14-.13-.16-.09-.2-.07-.23-.04-.26-.01-.3v-4.77h-.55zM202.82 355.22h3.47v-.51l-1-.08-.25-.23v-4.11l.17-.2.17-.18.17-.16.16-.13.16-.12.15-.09.15-.08.15-.05.15-.03.14-.02.09.01.08.01.09.02.08.02.07.03.07.04.07.04.06.06.07.05.05.07h.47v-1.24l-.09-.04-.09-.03-.09-.03-.09-.02-.08-.02-.09-.02-.08-.01-.09-.01h-.08l-.09-.01h-.07l-.04.01h-.14l-.04.01-.03.01h-.04l-.15.13-.16.13-.16.13-.15.14-.15.13-.16.14-.15.15-.16.15-.15.15-.15.15v-1.35h-.55l-1.67.51v.45h1.03v5.21l-.26.23-.77.08v.51zM208.32 355.22h3.16v-.51l-.69-.08-.25-.23v-4.82l.18-.09.18-.08.18-.07.16-.06.17-.06.16-.04.15-.03.15-.03.14-.01.14-.01.3.02.26.04.23.07.19.09.15.13.12.16.1.19.06.23.04.26.01.3v3.81l-.25.23-.69.08v.51h3.16v-.51l-.78-.08-.25-.23v-4.06l-.02-.41-.06-.37-.1-.32-.14-.29-.18-.24-.22-.2-.25-.15-.29-.12-.32-.06-.36-.03-.19.01-.2.03-.2.05-.22.07-.22.08-.23.09-.25.12-.26.12-.27.14-.28.16v-.79h-.55l-1.67.51v.45h1.03v5.21l-.25.23-.78.08v.51zM221.02 348.47l-.14-.06-.16-.05-.16-.05-.16-.04-.16-.04-.17-.03-.18-.02-.18-.01-.18-.01-.19-.01-.47.03-.43.06-.38.11-.33.15-.28.19-.23.22-.19.27-.13.29-.08.34-.03.36.02.28.06.24.09.23.13.2.17.19.21.18.24.17.28.16.31.16.35.16.27.13.25.12.21.11.2.12.16.12.13.14.11.14.08.17.04.18.02.21-.02.2-.04.18-.08.17-.1.16-.13.13-.15.11-.18.1-.2.06-.22.05-.24.01h-.12l-.13-.01-.12-.02-.12-.03-.12-.03-.13-.03-.12-.05-.12-.05-.12-.06-.12-.07-.17-1.22h-.69v1.87l.15.06.16.05.17.04.18.04.19.03.19.03.19.02.21.02.21.01h.22l.49-.02.44-.07.4-.12.35-.16.3-.2.25-.25.2-.28.14-.32.09-.35.03-.39-.01-.15-.01-.15-.03-.15-.04-.13-.05-.13-.07-.12-.07-.12-.08-.1-.09-.1-.1-.08-.14-.12-.15-.1-.15-.09-.15-.09-.16-.08-.16-.07-.15-.07-.16-.08-.15-.07-.15-.07-.23-.11-.21-.12-.18-.11-.16-.11-.14-.12-.11-.12-.09-.14-.06-.14-.03-.16-.02-.18.02-.19.03-.17.07-.15.08-.13.11-.12.14-.1.15-.07.18-.06.2-.03.22-.02.1.01.11.01.1.01.1.02.11.03.11.03.1.04.11.05.11.05.11.06.12 1.02h.7v-1.63z" fill-rule="evenodd"/><path d="M248.73 359.03h17.28v-17.28h-17.28z" fill="#fff"/><path stroke-width="1.07" stroke-linejoin="round" fill="none" stroke="#1e2d53" d="M250.46 350.39h13.82"/><path d="M254.45 350.39c0-1.6 1.32-2.91 2.92-2.91 1.6 0 2.91 1.31 2.91 2.91 0 1.61-1.31 2.92-2.91 2.92a2.93 2.93 0 01-2.92-2.92" fill="#1e2d53"/><path stroke-width=".71" stroke-linecap="round" stroke-linejoin="round" fill="none" stroke="#1e2d53" d="M254.45 350.39c0-1.6 1.32-2.91 2.92-2.91 1.6 0 2.91 1.31 2.91 2.91 0 1.61-1.31 2.92-2.91 2.92a2.93 2.93 0 01-2.92-2.92"/><path d="M328.08 359.03h17.28v-17.28h-17.28z" fill="#fff"/><path stroke-width="1.07" stroke-linejoin="round" fill="none" stroke="#e37e00" d="M329.81 350.39h13.82"/><path d="M333.8 350.39c0-1.6 1.32-2.91 2.92-2.91 1.6 0 2.91 1.31 2.91 2.91 0 1.61-1.31 2.92-2.91 2.92a2.93 2.93 0 01-2.92-2.92" fill="#e37e00"/><path stroke-width=".71" stroke-linecap="round" stroke-linejoin="round" fill="none" stroke="#e37e00" d="M333.8 350.39c0-1.6 1.32-2.91 2.92-2.91 1.6 0 2.91 1.31 2.91 2.91 0 1.61-1.31 2.92-2.91 2.92a2.93 2.93 0 01-2.92-2.92"/><path d="M432.28 359.03h17.28v-17.28h-17.28z" fill="#fff"/><path stroke-width="1.07" stroke-linejoin="round" fill="none" stroke="#90353b" d="M434.01 350.39h13.82"/><path d="M438.01 350.39c0-1.6 1.31-2.91 2.91-2.91s2.92 1.31 2.92 2.91a2.93 2.93 0 01-2.92 2.92c-1.6 0-2.91-1.31-2.91-2.92" fill="#90353b"/><path stroke-width=".71" stroke-linecap="round" stroke-linejoin="round" fill="none" stroke="#90353b" d="M438.01 350.39c0-1.6 1.31-2.91 2.91-2.91s2.92 1.31 2.92 2.91a2.93 2.93 0 01-2.92 2.92c-1.6 0-2.91-1.31-2.91-2.92"/><path d="M279.01 345.56h-3.56v.58l.82.08.25.21v7.93l-.25.2-.82.07v.59h3.98l.4-.02.39-.03.36-.05.36-.07.34-.09.32-.11.32-.14.3-.17.3-.21.34-.28.3-.31.27-.33.24-.36.19-.38.17-.41.13-.43.09-.46.05-.48.02-.5-.05-.87-.17-.8-.28-.71-.39-.63-.49-.54-.59-.45-.69-.36-.79-.26-.88-.15-.98-.06zm-1.2.66h1.14l.75.05.67.12.59.2.51.29.43.37.35.46.27.54.19.63.12.71.04.8-.04.79-.12.71-.19.63-.27.54-.35.46-.43.38-.51.29-.59.21-.67.12-.75.04h-1.14v-8.34zM290.23 345.32l-.37.01-.36.04-.34.06-.34.09-.33.12-.31.14-.3.16-.29.19-.28.22-.27.23-.27.3-.25.31-.22.33-.19.36-.16.37-.14.39-.1.41-.08.43-.04.44-.02.47.02.46.04.45.08.43.1.41.14.39.16.38.2.36.22.33.25.32.28.3.26.23.27.21.29.18.3.16.32.14.32.11.34.09.35.06.35.04.37.02.49-.03.48-.07.46-.12.43-.17.42-.21.39-.24.36-.29.33-.33.29-.36.26-.4.14-.26.13-.26.11-.27.09-.27.08-.28.07-.29.05-.3.04-.3.02-.31.01-.31-.02-.47-.04-.44-.08-.43-.11-.41-.13-.39-.17-.37-.19-.36-.22-.33-.25-.31-.28-.3-.26-.23-.28-.22-.29-.19-.3-.16-.31-.14-.32-.12-.34-.09-.34-.06-.36-.04-.36-.01zm0 .78l.54.04.5.14.45.24.41.31.36.41.3.48.25.56.18.63.11.71.03.77-.03.77-.11.7-.18.64-.25.56-.3.48-.36.41-.41.32-.45.23-.5.14-.54.05-.55-.05-.5-.14-.46-.23-.41-.32-.36-.41-.31-.48-.24-.56-.18-.64-.11-.7-.04-.77.04-.78.11-.71.18-.63.24-.56.31-.48.36-.4.41-.32.46-.23.5-.14.55-.04zM298.81 355.22h.96l2.39-7.87 2.44 7.87h.98l2.29-8.88.96-.2v-.58h-2.98v.58l.96.17.16.2-1.74 6.76-2.36-7.71h-1.01l-2.32 7.55-1.86-6.65.12-.21.91-.11v-.58h-3.23v.58l.91.2 2.42 8.88zM309.26 355.22h3.04v-.59l-.86-.11-.26-.27v-7.2l5.48 8.17h.95v-8.69l.26-.26.87-.13v-.58h-3.03v.58l.87.13.26.26v6.77l-4.91-7.38v-.36h-2.71v.58l.92.08.26.21v7.82l-.26.27-.88.11v.59zM355.19 354.94l.2.08.22.08.23.06.25.06.25.06.27.04.28.03.29.03.29.01.31.01.67-.04.6-.1.55-.17.49-.22.42-.28.35-.33.28-.38.2-.42.13-.46.04-.5-.01-.18-.02-.18-.03-.18-.04-.17-.06-.16-.07-.16-.08-.14-.1-.15-.1-.13-.12-.13-.21-.18-.2-.16-.22-.14-.21-.13-.22-.11-.23-.1-.22-.1-.22-.08-.23-.09-.22-.09-.38-.16-.34-.16-.3-.15-.26-.16-.22-.16-.19-.18-.14-.19-.1-.22-.06-.24-.02-.27.02-.3.06-.28.11-.26.14-.23.19-.19.22-.17.25-.13.29-.1.32-.06.35-.02h.15l.15.01.14.02.14.02.13.03.12.03.13.04.12.04.11.05.11.06.22.25.21 1.36h.75v-2.23l-.25-.07-.25-.07-.25-.06-.25-.06-.24-.04-.25-.04-.24-.02-.24-.02-.24-.02h-.24l-.59.03-.54.1-.49.16-.43.21-.38.27-.31.32-.25.36-.18.4-.11.44-.04.47.02.4.08.35.12.31.17.27.22.25.27.23.32.21.36.2.41.2.46.21.45.19.4.17.36.17.32.16.26.18.22.18.17.22.13.24.07.28.03.34-.03.29-.07.27-.11.25-.16.23-.2.2-.24.17-.28.13-.33.1-.36.06-.4.02h-.19l-.19-.01-.17-.02-.18-.02-.16-.03-.16-.04-.15-.04-.15-.05-.13-.06-.13-.06-.19-.24-.17-1.66h-.85v2.54zM362.56 345.56v2.22h.79l.21-1.34.2-.22h2.21v8.14l-.25.2-.97.07v.59h3.76v-.59l-.97-.07-.26-.2v-8.14h2.22l.2.22.21 1.34h.79v-2.22h-8.14zM371.4 345.56v.58l.82.08.25.21v7.93l-.25.2-.82.07v.59h3.43v-.59l-.82-.07-.25-.2v-3.43h.16l.07-.01h.08l.07-.01h.28l.06-.01.38.02.33.03.29.07.25.09.23.13.2.16.17.2.16.24.13.29.13.33.08.28.07.27.08.27.07.27.08.26.09.25.1.24.13.22.16.21.19.19.1.08.11.08.12.06.14.05.14.05.14.04.16.02.17.02.18.02H379.35l.1-.01h.11l.11-.01.11-.01.11-.02.11-.01.12-.02.13-.02.12-.03v-.55h-.43l-.28-.02-.24-.04-.22-.05-.18-.08-.17-.1-.14-.13-.13-.17-.11-.19-.1-.24-.07-.21-.06-.21-.05-.21-.05-.22-.05-.22-.06-.22-.06-.22-.07-.21-.09-.21-.11-.2-.1-.14-.1-.13-.12-.11-.13-.11-.14-.1-.15-.09-.17-.08-.18-.08-.19-.07-.21-.06.45-.11.39-.15.35-.17.31-.2.25-.23.21-.25.17-.28.11-.3.07-.34.03-.36-.04-.5-.1-.45-.17-.39-.24-.33-.31-.29-.39-.23-.45-.17-.52-.13-.59-.07-.66-.03h-3.68zm2.36.66h.7l.5.02.46.05.4.09.34.13.29.18.24.21.18.27.13.31.08.37.03.42-.03.4-.07.35-.13.31-.17.25-.23.22-.28.17-.33.13-.38.09-.44.05-.49.02h-.26l-.09-.01h-.32l-.13-.01v-4.02z" fill-rule="evenodd"/><path d="M384.32 345.45l-3.37 9.01-.83.17v.59h2.82v-.59l-.94-.07-.14-.2 1.02-2.75h3.4l1.04 2.75-.11.2-.89.07v.59h3.27v-.59l-.86-.17-3.46-9.01h-.95zm.23 1.51l1.48 3.99h-2.91l1.43-3.99zM389.94 355.22h3.64v-.59l-.92-.07-.25-.2v-7.93l.25-.21.92-.08v-.58h-3.64v.58l.92.08.24.21v7.93l-.24.2-.92.07v.59zM400.1 350.59v.59l1.02.07.25.2v3l-.17.03-.16.04-.16.02-.15.03-.15.02-.14.02-.14.01-.14.01h-.26l-.65-.04-.6-.15-.55-.23-.48-.32-.42-.41-.35-.49-.28-.56-.2-.65-.13-.71-.04-.78.04-.75.12-.68.2-.61.27-.54.34-.46.4-.39.47-.3.53-.23.58-.13.64-.05.17.01.17.01.16.02.17.02.16.04.17.04.16.05.16.05.16.07.16.07.2.26.21 1.31h.81v-2.29l-.28-.08-.29-.07-.28-.06-.28-.06-.28-.04-.27-.04-.28-.03-.27-.02-.27-.02h-.26l-.92.06-.84.17-.76.27-.68.38-.58.48-.49.56-.39.66-.28.73-.17.81-.06.88.02.56.09.54.13.52.19.5.23.47.28.44.32.41.37.37.41.33.45.29.2.11.22.1.22.08.24.08.24.06.26.05.26.04.27.03.28.02.28.01.26-.01.27-.01.28-.03.28-.03.3-.05.3-.06.31-.06.32-.08.33-.08.34-.1v-3.44l.24-.2.79-.07v-.59h-3.6zM404.57 345.56v.58l.82.08.24.21v7.93l-.24.2-.82.07v.59h3.5v-.59l-.9-.07-.24-.2v-3.87h4.95v3.87l-.24.2-.9.07v.59h3.5v-.59l-.82-.07-.24-.2v-7.93l.24-.21.82-.08v-.58h-3.5v.58l.9.08.24.21v3.39h-4.95v-3.39l.24-.21.9-.08v-.58h-3.5zM414.95 345.56v2.22h.79l.2-1.34.2-.22h2.22v8.14l-.26.2-.96.07v.59h3.76v-.59l-.97-.07-.26-.2v-8.14h2.22l.2.22.2 1.34h.79v-2.22h-8.13zM458.89 345.56v.58l.82.08.24.21v5.34l.01.31.01.3.01.28.03.27.05.25.06.25.08.23.11.22.12.22.16.2.18.19.21.18.23.16.27.14.29.13.32.1.33.09.37.06.38.03.4.02.4-.02.38-.03.36-.06.34-.09.32-.1.29-.13.26-.14.24-.16.21-.18.18-.19.15-.2.13-.22.1-.22.08-.24.07-.24.04-.26.03-.27.02-.28.01-.29v-5.55l.26-.26.87-.13v-.58h-3.04v.58l.86.13.27.26v5.11l-.02.56-.07.49-.12.43-.16.37-.23.32-.27.25-.33.2-.4.13-.45.09-.51.02-.52-.02-.45-.09-.4-.13-.33-.2-.28-.25-.22-.32-.17-.37-.11-.43-.07-.49-.03-.56v-5.21l.26-.21.9-.08v-.58h-3.53zM469 355.22h3.63v-.59l-1.03-.07-.24-.2v-2.84l.13.02.13.01.12.01.11.01.11.01h.11l.1.01h.09l.09.01h.09l.67-.04.61-.11.55-.17.48-.24.42-.3.35-.35.28-.41.2-.45.13-.5.04-.53-.04-.61-.11-.54-.19-.45-.27-.38-.36-.31-.43-.24-.52-.19-.61-.12-.69-.07-.79-.03h-3.28v.58l.94.08.24.21v7.93l-.24.2-.82.07v.59zm2.36-4.39v-4.58h.08l.07-.01.08-.01H471.97l.07-.01h.07l.52.03.47.06.41.11.35.15.3.2.24.24.19.3.13.34.08.38.03.44-.03.45-.08.41-.13.37-.18.31-.23.27-.27.22-.33.18-.38.12-.42.08-.47.02H472.09l-.09-.01h-.09l-.1-.01-.1-.01-.11-.01-.12-.01-.12-.02zM41.65 50.02h4.54v-.73l-1.28-.09-.31-.26v-4.6h2.95l.26.27.18 1.31h.84v-3.98h-.84l-.18 1.32-.26.25H44.6v-4.74h4.05l.24.27.27 1.71h.99v-2.8h-8.64v.72l1.17.1.3.26v9.91l-.3.26-1.03.09v.73zM53.49 37.28l-.17.01-.16.04-.15.06-.13.09-.12.1-.11.12-.08.14-.07.15-.04.16-.01.17.01.17.04.16.07.15.08.13.11.12.12.1.13.09.15.06.16.04.17.01.17-.01.16-.04.15-.06.14-.09.12-.1.11-.12.08-.13.06-.15.04-.16.02-.17-.02-.17-.04-.16-.06-.15-.08-.13-.11-.12-.12-.11-.14-.08-.15-.07-.16-.04-.17-.01zm-.07 4l-2.07.64v.56h1.26V49l-.3.29-.96.09v.64h4.05v-.64l-.97-.09-.32-.29v-7.72h-.69zM57.35 42.45v5.81l.01.36.04.32.07.28.1.23.15.2.19.16.24.12.3.08.35.05.42.02.21-.01.22-.01.23-.02.23-.02.23-.04.24-.04.25-.05.24-.06.25-.07.26-.08v-.66l-.13.02-.12.02-.13.03-.12.01-.13.02-.12.01-.12.02h-.13l-.12.01h-.13l-.34-.02-.3-.05-.24-.1-.19-.13-.15-.17-.11-.21-.08-.26-.05-.29-.02-.35-.01-.38v-4.75h2.74v-.85h-2.74v-1.91h-.67l-.77 1.68-1.19.52v.56h1.14zM63.36 42.45v5.81l.01.36.04.32.07.28.11.23.14.2.19.16.25.12.29.08.35.05.42.02.21-.01.22-.01.23-.02.23-.02.23-.04.24-.04.25-.05.24-.06.25-.07.26-.08v-.66l-.13.02-.12.02-.13.03-.12.01-.12.02-.13.01-.12.02h-.13l-.12.01h-.12l-.35-.02-.29-.05-.24-.1-.19-.13-.15-.17-.12-.21-.07-.26-.05-.29-.03-.35-.01-.38v-4.75h2.74v-.85h-2.74v-1.91h-.66l-.78 1.68-1.19.52v.56h1.14zM75.85 48.12l-.3.19-.3.18-.29.15-.29.14-.28.11-.28.1-.27.07-.28.06-.27.03-.27.01-.52-.04-.49-.12-.44-.2-.4-.27-.34-.34-.29-.41-.23-.48-.17-.55-.11-.6-.03-.66v-.2h5.83l.01-.06v-.11l.01-.06V44.73l-.04-.64-.11-.58-.18-.52-.25-.46-.3-.4-.37-.33-.43-.27-.47-.19-.52-.12-.57-.03-.7.05-.66.16-.6.26-.55.35-.47.44-.41.52-.33.6-.24.67-.15.73-.05.79.05.76.14.71.23.65.31.58.39.5.46.43.52.34.59.25.64.15.69.06.34-.02.34-.03.34-.05.35-.08.34-.09.34-.12.34-.14.33-.17.33-.18.33-.2v-.99zm-1.6-3.59h-4.16l.06-.44.11-.41.15-.37.2-.33.23-.29.26-.24.29-.2.32-.14.32-.09.35-.02.34.02.31.07.28.12.25.16.2.2.18.25.13.3.1.33.06.38.02.42v.28zM83.52 37.98v3.39l-.17-.04-.17-.03-.16-.03-.16-.03-.16-.02-.16-.02-.16-.01-.16-.01-.15-.01h-.15l-.8.05-.74.17-.67.27-.61.37-.53.46-.45.55-.36.63-.27.7-.16.77-.06.83.05.73.12.68.21.61.28.55.34.48.4.41.46.32.5.24.54.15.58.05.29-.02.29-.03.28-.05.27-.08.28-.1.27-.12.27-.14.27-.17.27-.18.28-.21v.93h2.66v-.64l-.86-.09-.31-.29V36.78h-.68l-2.2.64v.56h1.39zm0 10.44l-.2.12-.2.11-.2.09-.19.08-.2.07-.2.06-.19.04-.2.04-.19.01-.19.01-.47-.04-.44-.11-.39-.18-.35-.25-.31-.32-.26-.38-.21-.44-.15-.5-.09-.56-.03-.6.03-.65.11-.6.18-.55.24-.48.29-.42.35-.35.41-.29.45-.2.49-.13.52-.04h.14l.14.01.14.02.15.02.16.03.16.03.17.04.17.04.18.05.18.05v6.17zM91.71 41.37v.66l1.1.11 2.89 7.88h1.01l3.15-7.84 1.06-.15v-.66h-3.18v.66l.97.07.14.29-2.3 5.89-2.11-5.89.22-.29.95-.07v-.66h-3.9zM106.7 48.98l.24 1.04h2.53v-.64l-.95-.09-.32-.29v-5.22l-.03-.52-.07-.45-.13-.39-.17-.34-.24-.28-.29-.23-.34-.17-.41-.12-.47-.07-.54-.02-.65.02-.6.08-.53.13-.48.16-.41.21-.34.24-.27.27-.19.29-.12.31-.04.32v.12l.02.1.02.09.03.07.05.06.06.05.07.03.09.02.1.01.12.01h1.24v-1.51l.14-.06.14-.05.14-.04.14-.04.13-.03.14-.03.13-.02.14-.01.13-.01h.14l.36.02.31.05.25.09.22.14.17.17.13.22.1.26.06.31.04.35.01.4v.58l-1.02.25-.91.24-.79.24-.68.26-.58.27-.46.3-.36.35-.25.39-.15.45-.05.53.02.39.08.36.12.34.18.3.21.26.26.23.3.18.34.13.38.08.41.03.26-.01.27-.04.27-.06.29-.08.28-.11.3-.12.31-.16.31-.17.33-.2.33-.22zm0-.61l-.26.15-.26.13-.25.12-.23.11-.23.09-.22.07-.21.06-.2.04-.19.03-.18.01-.26-.02-.24-.05-.21-.08-.19-.12-.16-.14-.13-.17-.11-.19-.08-.22-.04-.23-.02-.26.03-.37.11-.33.17-.29.25-.25.32-.24.4-.22.48-.2.55-.2.64-.2.72-.2v3.17zM110.32 50.02h4.21v-.64l-1.02-.09-.33-.29V36.78h-.68l-2.2.64v.56h1.39V49l-.31.29-1.06.09v.64zM117.45 41.19l-2.09.66v.56h1.28v5.04l.02.51.08.47.13.41.17.36.22.3.27.25.32.2.35.14.41.08.44.03.27-.01.27-.04.27-.06.29-.08.28-.11.3-.13.3-.16.3-.17.32-.2.32-.22v1h2.66v-.64l-.85-.09-.32-.29v-7.81h-.68l-2.09.66v.56h1.28v6.1l-.22.1-.22.1-.22.08-.21.07-.21.06-.2.04-.21.04-.2.03-.2.02h-.2l-.34-.02-.31-.05-.26-.1-.23-.13-.19-.17-.15-.21-.12-.24-.08-.29-.05-.33-.02-.37v-5.95h-.68zM133.2 48.12l-.31.19-.29.18-.3.15-.28.14-.28.11-.28.1-.28.07-.27.06-.27.03-.27.01-.53-.04-.48-.12-.44-.2-.4-.27-.34-.34-.29-.41-.23-.48-.17-.55-.11-.6-.03-.66v-.2h5.83v-.06l.01-.06v-.11l.01-.06v-.27l-.04-.64-.11-.58-.18-.52-.25-.46-.31-.4-.36-.33-.43-.27-.47-.19-.53-.12-.56-.03-.71.05-.65.16-.6.26-.55.35-.48.44-.4.52-.33.6-.24.67-.15.73-.05.79.05.76.14.71.23.65.31.58.39.5.45.43.53.34.58.25.64.15.69.06.34-.02.35-.03.34-.05.34-.08.35-.09.34-.12.33-.14.34-.17.33-.18.33-.2v-.99zm-1.6-3.59h-4.16l.06-.44.11-.41.15-.37.2-.33.23-.29.26-.24.29-.2.31-.14.33-.09.34-.02.35.02.31.07.28.12.24.16.21.2.17.25.14.3.1.33.06.38.02.42v.28zM140.16 41.58l-.18-.08-.19-.06-.2-.06-.2-.05-.21-.05-.22-.03-.21-.03-.23-.02-.23-.01h-.23l-.59.02-.53.09-.48.13-.41.19-.36.23-.29.28-.23.33-.16.37-.1.42-.04.46.03.34.07.31.11.28.17.26.21.23.26.23.3.2.34.21.4.2.43.2.34.16.31.15.27.14.24.15.21.15.17.17.13.18.09.21.06.23.02.26-.02.25-.06.23-.09.21-.13.19-.16.17-.19.14-.22.11-.25.09-.27.05-.3.02-.16-.01-.15-.01-.16-.02-.15-.03-.15-.04-.16-.05-.15-.05-.15-.07-.15-.07-.15-.08-.22-1.53h-.86v2.34l.19.06.2.07.22.05.22.05.23.04.24.04.25.03.25.02.27.01.27.01.61-.04.55-.08.5-.15.44-.2.38-.26.31-.3.25-.35.18-.4.11-.44.03-.48v-.2l-.03-.19-.03-.18-.05-.17-.07-.16-.07-.15-.09-.14-.1-.13-.12-.12-.12-.11-.18-.14-.19-.13-.19-.11-.19-.11-.19-.1-.2-.1-.19-.09-.2-.09-.19-.09-.19-.09-.29-.14-.25-.14-.23-.14-.2-.14-.17-.15-.14-.15-.11-.17-.08-.18-.04-.2-.02-.22.02-.24.05-.21.07-.19.11-.17.14-.15.17-.12.19-.09.22-.07.25-.05.28-.01h.12l.13.01.14.02.13.03.13.03.13.05.13.04.14.06.14.07.14.07.14 1.28h.88v-2.04zM148.53 36.78l-2.21.64v.56h1.4v12.04h2.31l.98-.05.88-.14.78-.24.68-.34.58-.43.47-.53.37-.61.26-.71.16-.8.06-.88-.05-.71-.12-.66-.2-.6-.28-.53-.34-.47-.4-.4-.47-.31-.52-.23-.57-.15-.62-.04h-.23l-.24.02-.25.03-.24.05-.24.05-.25.07-.25.09-.25.09-.26.11-.25.12v-5.04h-.69zm.69 12.42v-6.77l.17-.05.18-.05.17-.04.16-.04.16-.03.16-.03.15-.02.15-.02.14-.01h.14l.52.04.47.11.42.18.36.25.32.32.26.39.21.45.15.52.09.59.03.64-.04.71-.09.62-.17.54-.23.47-.31.38-.37.32-.44.24-.52.17-.59.1-.66.03H149.66l-.13-.01h-.31zM163.94 48.12l-.3.19-.3.18-.29.15-.29.14-.28.11-.28.1-.27.07-.27.06-.27.03-.27.01-.53-.04-.49-.12-.44-.2-.39-.27-.35-.34-.29-.41-.23-.48-.17-.55-.1-.6-.04-.66v-.2h5.83l.01-.06v-.06l.01-.05V44.73l-.04-.64-.11-.58-.18-.52-.24-.46-.31-.4-.37-.33-.42-.27-.48-.19-.52-.12-.57-.03-.7.05-.66.16-.6.26-.54.35-.48.44-.41.52-.32.6-.25.67-.15.73-.05.79.05.76.14.71.23.65.31.58.39.5.46.43.52.34.59.25.64.15.69.06.34-.02.34-.03.34-.05.35-.08.34-.09.34-.12.34-.14.33-.17.33-.18.33-.2v-.99zm-1.6-3.59h-4.16l.06-.44.11-.41.15-.37.2-.33.23-.29.27-.24.29-.2.31-.14.33-.09.34-.02.34.02.32.07.27.12.25.16.21.2.17.25.13.3.1.33.06.38.02.42v.28zM165.24 50.02h4.19v-.64l-1.11-.09-.31-.29v-6.55h2.52v-.85h-2.5v-1.31l.01-.44.03-.4.06-.37.09-.33.1-.3.13-.26.15-.23.18-.2.2-.16.22-.12 1.64 1.08.13-.05.12-.05.11-.07.1-.08.08-.09.07-.1.05-.1.04-.12.03-.12v-.12l-.01-.17-.05-.16-.08-.15-.11-.13-.14-.12-.16-.1-.18-.09-.21-.06-.22-.04-.24-.01-.62.05-.58.16-.53.26-.47.35-.42.45-.36.53-.29.62-.21.71-.13.78-.04.86v.2l-1.16.27v.58h1.16V49l-.33.29-.95.09v.64zM175.34 41.19l-.71.05-.66.16-.61.25-.54.35-.48.43-.41.51-.33.59-.24.66-.15.72-.05.78.05.77.15.72.25.65.32.59.41.51.48.44.55.35.6.25.66.16.71.06.7-.06.66-.16.6-.25.55-.35.49-.44.41-.51.33-.59.24-.65.16-.72.05-.77-.05-.78-.15-.72-.25-.65-.33-.59-.41-.51-.48-.44-.55-.35-.61-.25-.66-.16-.7-.05zm0 .77l.42.04.4.12.36.21.33.27.28.35.25.42.19.49.15.55.09.61.03.67-.03.67-.09.61-.15.55-.19.49-.25.42-.28.34-.33.28-.36.2-.4.12-.42.04-.42-.04-.4-.12-.36-.2-.32-.28-.29-.35-.24-.42-.19-.49-.15-.55-.09-.61-.03-.66.03-.68.09-.61.14-.55.2-.49.24-.42.28-.34.33-.28.36-.2.39-.12.43-.04zM180.74 50.02h4.33v-.64l-1.26-.09-.3-.29v-5.15l.22-.25.21-.22.2-.2.21-.17.19-.14.19-.12.19-.09.19-.07.18-.04.18-.01h.11l.11.01.1.02.1.03.09.04.09.05.09.06.08.06.07.08.08.08h.57v-1.55l-.11-.05-.11-.04-.11-.03-.11-.03-.1-.03-.11-.02-.11-.01-.1-.02H185.61l-.04.01h-.05l-.04.01-.05.01-.19.16-.2.16-.19.17-.19.16-.2.18-.19.17-.19.18-.19.19-.19.18-.19.2v-1.69h-.69l-2.08.64v.56h1.27V49l-.32.29-.95.09v.64zM195.14 48.12l-.31.19-.3.18-.29.15-.28.14-.28.11-.28.1-.28.07-.27.06-.27.03-.27.01-.53-.04-.48-.12-.45-.2-.39-.27-.34-.34-.29-.41-.24-.48-.16-.55-.11-.6-.03-.66v-.2h5.83v-.06l.01-.06V44.89l.01-.05v-.11l-.04-.64-.11-.58-.18-.52-.25-.46-.31-.4-.37-.33-.42-.27-.47-.19-.53-.12-.56-.03-.71.05-.65.16-.61.26-.54.35-.48.44-.4.52-.33.6-.24.67-.15.73-.05.79.05.76.14.71.23.65.31.58.38.5.46.43.53.34.58.25.64.15.69.06.34-.02.35-.03.34-.05.34-.08.34-.09.34-.12.34-.14.34-.17.33-.18.33-.2v-.99zm-1.61-3.59h-4.15l.05-.44.11-.41.16-.37.19-.33.24-.29.26-.24.29-.2.31-.14.33-.09.34-.02.35.02.31.07.28.12.24.16.21.2.17.25.14.3.09.33.06.38.02.42v.28zM207.86 37.1l-.92.19-.83.32-.75.46-.66.6-.56.72-.47.85-.37.98-.26 1.1-.16 1.23-.06 1.34.06 1.33.16 1.21.28 1.09.37.97.48.84.56.72.66.58.74.45.83.32.9.18v-.76l-.68-.18-.61-.29-.53-.4-.46-.52-.38-.63-.31-.75-.24-.86-.17-.98-.1-1.09-.03-1.21.03-1.23.1-1.12.16-1 .24-.87.3-.76.38-.65.46-.53.53-.41.61-.3.7-.18v-.76zM210 42.45v5.81l.02.36.03.32.08.28.1.23.15.2.19.16.24.12.3.08.35.05.42.02.21-.01.22-.01.22-.02.23-.02.24-.04.24-.04.24-.05.25-.06.25-.07.25-.08v-.66l-.12.02-.13.02-.12.03-.12.01-.13.02-.12.01-.13.02h-.12l-.12.01h-.13l-.35-.02-.29-.05-.24-.1-.19-.13-.15-.17-.11-.21-.08-.26-.05-.29-.02-.35-.01-.38v-4.75h2.73v-.85h-2.73v-1.91h-.67l-.77 1.68-1.19.52v.56H210zM220.99 42.46v1.03h10.53v-1.03h-10.53zm0 3.37v1.03h10.53v-1.03h-10.53zM240.62 48.6l1.14-.92 1.03-.85.92-.81.8-.76.68-.73.57-.7.44-.68.32-.68.19-.66.07-.68-.04-.59-.13-.54-.2-.5-.28-.44-.35-.39-.42-.33-.49-.26-.55-.19-.62-.12-.66-.04-.65.04-.61.1-.55.17-.5.22-.44.27-.37.3-.3.33-.22.36-.13.37-.05.38.01.17.03.17.06.14.07.14.1.11.11.1.13.07.15.06.17.03.18.02.08-.01.09-.01.08-.01.08-.02.09-.02.08-.03.08-.04.07-.04.08-.04.08-.05v-1.93l.16-.09.16-.07.16-.07.16-.06.16-.04.16-.04.16-.03.16-.02.16-.01h.16l.43.03.39.09.36.14.31.2.27.25.22.31.18.35.13.41.08.44.02.5-.06.69-.2.69-.33.67-.45.69-.57.7-.7.73-.8.76-.92.8-1.03.86-1.13.93v1.13h8.34v-2.95h-.81l-.33 1.53h-5.42zM248.65 37.1v.76l.7.18.61.3.54.41.45.53.38.65.31.76.23.87.16 1 .1 1.12.03 1.23-.03 1.21-.1 1.09-.17.98-.24.86-.31.75-.38.63-.46.52-.53.4-.6.29-.69.18v.76l.9-.18.83-.32.74-.45.66-.58.57-.72.47-.84.37-.97.28-1.09.16-1.21.06-1.33-.05-1.34-.17-1.23-.26-1.1-.37-.98-.47-.85-.56-.72-.66-.6-.74-.46-.84-.32-.92-.19zM266.62 48.98l.23 1.04h2.54v-.64l-.96-.09-.32-.29v-5.22l-.02-.52-.08-.45-.12-.39-.18-.34-.23-.28-.29-.23-.35-.17-.41-.12-.47-.07-.53-.02-.66.02-.59.08-.54.13-.47.16-.41.21-.34.24-.27.27-.2.29-.12.31-.04.32.01.12.01.1.02.09.04.07.05.06.05.05.08.03.08.02.1.01.12.01h1.24v-1.51l.15-.06.14-.05.14-.04.13-.04.14-.03.13-.03.14-.02.13-.01.13-.01h.14l.36.02.31.05.26.09.21.14.17.17.14.22.09.26.07.31.03.35.02.4v.58l-1.03.25-.9.24-.8.24-.68.26-.57.27-.47.3-.36.35-.25.39-.15.45-.05.53.03.39.07.36.13.34.17.3.22.26.26.23.3.18.34.13.37.08.41.03.27-.01.26-.04.28-.06.28-.08.29-.11.3-.12.3-.16.32-.17.32-.2.34-.22zm0-.61l-.27.15-.26.13-.24.12-.24.11-.23.09-.21.07-.21.06-.2.04-.19.03-.19.01-.26-.02-.23-.05-.21-.08-.19-.12-.16-.14-.14-.17-.11-.19-.07-.22-.05-.23-.02-.26.04-.37.1-.33.18-.29.24-.25.33-.24.4-.22.47-.2.56-.2.64-.2.72-.2v3.17zM270.27 50.02h3.94v-.64l-.86-.09-.31-.29v-6.03l.23-.12.22-.1.22-.09.21-.07.2-.07.2-.05.19-.04.19-.03.18-.02.18-.01.37.02.33.05.28.09.23.12.2.16.15.2.11.24.08.28.05.33.02.37V49l-.31.29-.86.09v.64h3.94v-.64l-.97-.09-.31-.29v-5.08l-.03-.51-.07-.46-.13-.41-.18-.36-.22-.3-.27-.25-.32-.19-.36-.14-.4-.09-.45-.02-.24.01-.24.03-.26.06-.27.08-.28.11-.29.12-.31.14-.32.16-.34.17-.35.2v-.99h-.68l-2.09.64v.56h1.28V49l-.31.29-.97.09v.64zM286.85 37.98v3.39l-.17-.04-.17-.03-.16-.03-.16-.03-.16-.02-.16-.02-.16-.01-.16-.01-.15-.01h-.15l-.8.05-.74.17-.67.27-.61.37-.53.46-.45.55-.36.63-.27.7-.16.77-.06.83.05.73.12.68.21.61.28.55.34.48.4.41.46.32.5.24.54.15.58.05.29-.02.29-.03.28-.05.27-.08.28-.1.27-.12.27-.14.27-.17.27-.18.28-.21v.93h2.66v-.64l-.86-.09-.31-.29V36.78h-.68l-2.2.64v.56h1.39zm0 10.44l-.2.12-.2.11-.2.09-.19.08-.2.07-.2.06-.19.04-.2.04-.19.01-.19.01-.47-.04-.44-.11-.39-.18-.35-.25-.31-.32-.26-.38-.21-.44-.15-.5-.09-.56-.03-.6.03-.65.11-.6.18-.55.24-.48.29-.42.35-.35.41-.29.45-.2.49-.13.52-.04h.14l.14.01.14.02.15.02.16.03.16.03.17.04.17.04.18.05.18.05v6.17zM301.14 48.98l.23 1.04h2.54v-.64l-.95-.09-.33-.29v-5.22l-.02-.52-.07-.45-.13-.39-.18-.34-.23-.28-.29-.23-.35-.17-.4-.12-.47-.07-.54-.02-.65.02-.6.08-.53.13-.48.16-.41.21-.34.24-.27.27-.19.29-.12.31-.04.32v.12l.01.1.03.09.03.07.05.06.06.05.07.03.09.02.1.01.11.01h1.25v-1.51l.14-.06.14-.05.14-.04.14-.04.13-.03.14-.03.13-.02.13-.01.14-.01h.13l.36.02.31.05.26.09.22.14.17.17.13.22.1.26.06.31.04.35.01.4v.58l-1.02.25-.91.24-.79.24-.69.26-.57.27-.46.3-.36.35-.26.39-.15.45-.05.53.03.39.08.36.12.34.17.3.22.26.26.23.3.18.34.13.38.08.41.03.26-.01.27-.04.27-.06.28-.08.29-.11.3-.12.3-.16.32-.17.32-.2.34-.22zm0-.61l-.27.15-.25.13-.25.12-.23.11-.23.09-.22.07-.21.06-.2.04-.19.03-.18.01-.26-.02-.24-.05-.21-.08-.19-.12-.16-.14-.14-.17-.1-.19-.08-.22-.05-.23-.01-.26.03-.37.11-.33.17-.29.25-.25.32-.24.4-.22.48-.2.55-.2.64-.2.72-.2v3.17zM304.78 50.02h4.19v-.64l-1.12-.09-.3-.29v-6.55h2.52v-.85h-2.5v-1.31l.01-.44.03-.4.06-.37.08-.33.11-.3.13-.26.15-.23.18-.2.19-.16.23-.12 1.63 1.08.14-.05.12-.05.11-.07.1-.08.08-.09.07-.1.05-.1.04-.12.02-.12.01-.12-.02-.17-.05-.16-.08-.15-.1-.13-.14-.12-.16-.1-.18-.09-.21-.06-.22-.04-.24-.01-.62.05-.58.16-.53.26-.48.35-.42.45-.35.53-.29.62-.21.71-.13.78-.05.86v.2l-1.15.27v.58h1.15V49l-.32.29-.95.09v.64zM311.62 42.45v5.81l.01.36.04.32.07.28.1.23.15.2.19.16.24.12.3.08.35.05.42.02.21-.01.22-.01.23-.02.23-.02.23-.04.24-.04.25-.05.24-.06.25-.07.26-.08v-.66l-.13.02-.12.02-.13.03-.12.01-.13.02-.12.01-.12.02h-.13l-.12.01h-.13l-.34-.02-.3-.05-.24-.1-.19-.13-.15-.17-.11-.21-.08-.26-.05-.29-.02-.35-.01-.38v-4.75h2.74v-.85h-2.74v-1.91h-.67l-.77 1.68-1.19.52v.56h1.14zM324.11 48.12l-.31.19-.29.18-.3.15-.28.14-.28.11-.28.1-.28.07-.27.06-.27.03-.27.01-.53-.04-.48-.12-.44-.2-.4-.27-.34-.34-.29-.41-.23-.48-.17-.55-.11-.6-.03-.66v-.2h5.83v-.06l.01-.06v-.11l.01-.06v-.27l-.04-.64-.11-.58-.18-.52-.25-.46-.31-.4-.36-.33-.43-.27-.47-.19-.53-.12-.56-.03-.71.05-.65.16-.6.26-.55.35-.48.44-.4.52-.33.6-.24.67-.15.73-.05.79.05.76.14.71.23.65.31.58.39.5.45.43.53.34.58.25.64.15.69.06.34-.02.35-.03.34-.05.34-.08.35-.09.34-.12.33-.14.34-.17.33-.18.33-.2v-.99zm-1.6-3.59h-4.16l.06-.44.11-.41.15-.37.2-.33.23-.29.26-.24.29-.2.31-.14.33-.09.34-.02.35.02.31.07.28.12.24.16.21.2.17.25.14.3.1.33.06.38.02.42v.28zM325.42 50.02h4.34v-.64l-1.26-.09-.31-.29v-5.15l.22-.25.21-.22.21-.2.2-.17.2-.14.19-.12.19-.09.18-.07.19-.04.18-.01h.11l.1.01.11.02.09.03.1.04.09.05.08.06.08.06.08.08.07.08h.58v-1.55l-.11-.05-.11-.04-.11-.03-.11-.03-.11-.03-.1-.02-.11-.01-.11-.02H330.3l-.05.01h-.04l-.05.01-.04.01-.2.16-.19.16-.19.17-.2.16-.19.18-.19.17-.2.18-.19.19-.19.18-.19.2v-1.69h-.68l-2.09.64v.56h1.28V49l-.32.29-.96.09v.64zM343.71 37.1l-.92.19-.84.32-.74.46-.66.6-.56.72-.47.85-.37.98-.26 1.1-.17 1.23-.05 1.34.06 1.33.16 1.21.28 1.09.37.97.47.84.57.72.66.58.74.45.83.32.9.18v-.76l-.69-.18-.6-.29-.53-.4-.46-.52-.38-.63-.31-.75-.24-.86-.17-.98-.1-1.09-.03-1.21.03-1.23.1-1.12.16-1 .23-.87.31-.76.38-.65.45-.53.54-.41.61-.3.7-.18v-.76zM345.85 42.45v5.81l.01.36.04.32.07.28.11.23.15.2.19.16.24.12.29.08.36.05.41.02.22-.01.22-.01.22-.02.23-.02.24-.04.24-.04.24-.05.25-.06.25-.07.25-.08v-.66l-.12.02-.13.02-.12.03-.13.01-.12.02-.12.01-.13.02h-.12l-.13.01h-.12l-.35-.02-.29-.05-.24-.1-.19-.13-.15-.17-.11-.21-.08-.26-.05-.29-.03-.35v-5.13h2.73v-.85h-2.73v-1.91h-.67l-.77 1.68-1.19.52v.56h1.13zM356.93 39.96v1.12l8.79 3.58-8.79 3.56v1.14l10.35-4.25v-.9l-10.35-4.25zM376.47 48.6l1.14-.92 1.03-.85.92-.81.8-.76.68-.73.57-.7.44-.68.32-.68.19-.66.07-.68-.04-.59-.13-.54-.2-.5-.28-.44-.35-.39-.43-.33-.48-.26-.56-.19-.61-.12-.67-.04-.65.04-.6.1-.56.17-.49.22-.44.27-.37.3-.3.33-.22.36-.14.37-.04.38.01.17.03.17.06.14.07.14.1.11.11.1.13.07.15.06.16.03.19.02.08-.01.09-.01.08-.01.08-.02.08-.02.08-.03.08-.04.08-.04.08-.04.08-.05v-1.93l.16-.09.16-.07.16-.07.16-.06.16-.04.16-.04.16-.03.16-.02.16-.01h.16l.43.03.39.09.35.14.32.2.26.25.23.31.18.35.13.41.07.44.03.5-.07.69-.19.69-.33.67-.45.69-.58.7-.69.73-.8.76-.92.8-1.03.86-1.13.93v1.13h8.33v-2.95h-.81l-.32 1.53h-5.42zM384.5 37.1v.76l.7.18.61.3.53.41.46.53.38.65.3.76.24.87.16 1 .1 1.12.03 1.23-.03 1.21-.1 1.09-.17.98-.24.86-.31.75-.38.63-.46.52-.53.4-.61.29-.68.18v.76l.9-.18.83-.32.74-.45.66-.58.56-.72.48-.84.37-.97.28-1.09.16-1.21.06-1.33-.06-1.34-.16-1.23-.26-1.1-.37-.98-.47-.85-.56-.72-.66-.6-.75-.46-.83-.32-.92-.19zM398.04 42.45v5.81l.01.36.04.32.07.28.1.23.15.2.19.16.24.12.3.08.35.05.42.02.21-.01.22-.01.23-.02.23-.02.23-.04.24-.04.25-.05.24-.06.25-.07.26-.08v-.66l-.13.02-.12.02-.13.03-.12.01-.13.02-.12.01-.12.02h-.13l-.12.01h-.13l-.34-.02-.3-.05-.24-.1-.19-.13-.15-.17-.11-.21-.08-.26-.05-.29-.02-.35-.01-.38v-4.75h2.74v-.85h-2.74v-1.91h-.67l-.77 1.68-1.19.52v.56h1.14zM405 36.78l-2.19.64v.56h1.38V49l-.3.29-.98.09v.64h3.95v-.64l-.85-.09-.32-.29v-6.03l.22-.12.23-.1.21-.09.21-.07.21-.07.2-.05.19-.04.18-.03.19-.02.17-.01.38.02.32.05.28.09.24.12.19.16.15.2.12.24.08.28.04.33.02.37V49l-.31.29-.84.09v.64h3.92v-.64l-.95-.09-.33-.29v-5.08l-.02-.51-.08-.46-.12-.41-.17-.36-.23-.3-.26-.25-.32-.19-.36-.14-.4-.09-.45-.02-.24.01-.24.03-.26.06-.27.08-.28.11-.3.12-.31.14-.32.16-.34.17-.35.2v-5.49H405zM420.68 48.12l-.3.19-.3.18-.29.15-.29.14-.28.11-.28.1-.27.07-.28.06-.27.03-.27.01-.52-.04-.49-.12-.44-.2-.4-.27-.34-.34-.29-.41-.23-.48-.17-.55-.11-.6-.03-.66v-.2h5.83l.01-.06v-.11l.01-.06V44.73l-.04-.64-.11-.58-.18-.52-.25-.46-.3-.4-.37-.33-.43-.27-.47-.19-.52-.12-.57-.03-.7.05-.66.16-.6.26-.55.35-.47.44-.41.52-.33.6-.24.67-.15.73-.05.79.05.76.14.71.23.65.31.58.39.5.46.43.52.34.59.25.64.15.69.06.34-.02.34-.03.34-.05.35-.08.34-.09.34-.12.34-.14.33-.17.33-.18.33-.2v-.99zm-1.6-3.59h-4.16l.06-.44.11-.41.15-.37.2-.33.23-.29.26-.24.29-.2.32-.14.32-.09.35-.02.34.02.31.07.28.12.25.16.2.2.18.25.13.3.1.33.06.38.02.42v.28zM432.65 41.58l-.19-.08-.19-.06-.2-.06-.2-.05-.21-.05-.21-.03-.22-.03-.22-.02-.23-.01h-.24l-.58.02-.54.09-.47.13-.41.19-.36.23-.29.28-.23.33-.17.37-.1.42-.03.46.02.34.07.31.12.28.16.26.21.23.26.23.3.2.35.21.39.2.44.2.34.16.31.15.27.14.24.15.2.15.17.17.13.18.1.21.06.23.02.26-.02.25-.06.23-.09.21-.13.19-.16.17-.19.14-.22.11-.25.09-.28.05-.3.02-.15-.01-.16-.01-.15-.02-.16-.03-.15-.04-.15-.05-.15-.05-.15-.07-.16-.07-.15-.08-.21-1.53h-.87v2.34l.2.06.2.07.21.05.22.05.24.04.23.04.25.03.26.02.26.01.27.01.61-.04.56-.08.5-.15.44-.2.37-.26.32-.3.24-.35.18-.4.11-.44.04-.48-.01-.2-.02-.19-.04-.18-.05-.17-.06-.16-.08-.15-.09-.14-.1-.13-.11-.12-.12-.11-.19-.14-.18-.13-.19-.11-.19-.11-.2-.1-.19-.1-.19-.09-.2-.09-.19-.09-.19-.09-.29-.14-.26-.14-.23-.14-.2-.14-.17-.15-.13-.15-.11-.17-.08-.18-.05-.2-.01-.22.01-.24.05-.21.08-.19.11-.17.14-.15.16-.12.2-.09.22-.07.25-.05.27-.01h.13l.13.01.13.02.13.03.13.03.14.05.13.04.14.06.13.07.14.07.15 1.28h.88v-2.04zM436.2 36.78l-2.2.64v.56h1.39V49l-.31.29-.97.09v.64h3.94v-.64l-.85-.09-.32-.29v-6.03l.23-.12.22-.1.22-.09.21-.07.2-.07.2-.05.19-.04.19-.03.18-.02.18-.01.37.02.33.05.28.09.23.12.19.16.16.2.11.24.08.28.05.33.01.37V49l-.3.29-.85.09v.64h3.93v-.64l-.96-.09-.32-.29v-5.08l-.03-.51-.07-.46-.13-.41-.17-.36-.22-.3-.27-.25-.31-.19-.36-.14-.41-.09-.44-.02-.24.01-.25.03-.26.06-.27.08-.28.11-.3.12-.31.14-.32.16-.34.17-.35.2v-5.49h-.68zM448.65 41.19l-.71.05-.66.16-.6.25-.55.35-.48.43-.4.51-.33.59-.24.66-.15.72-.05.78.05.77.15.72.24.65.33.59.41.51.48.44.55.35.6.25.66.16.7.06.7-.06.66-.16.61-.25.55-.35.48-.44.41-.51.34-.59.24-.65.15-.72.06-.77-.06-.78-.15-.72-.24-.65-.33-.59-.41-.51-.48-.44-.55-.35-.61-.25-.66-.16-.71-.05zm0 .77l.43.04.39.12.36.21.33.27.29.35.24.42.2.49.14.55.09.61.03.67-.03.67-.09.61-.14.55-.2.49-.24.42-.29.34-.33.28-.36.2-.39.12-.43.04-.42-.04-.39-.12-.36-.2-.33-.28-.28-.35-.24-.42-.2-.49-.14-.55-.09-.61-.03-.66.03-.68.09-.61.14-.55.19-.49.24-.42.29-.34.32-.28.36-.2.4-.12.42-.04zM461.16 49.27v-.94l-.23.14-.22.13-.23.12-.22.1-.23.08-.23.07-.22.05-.24.04-.23.02-.23.01-.55-.04-.49-.12-.45-.19-.4-.26-.35-.33-.29-.39-.23-.46-.17-.52-.1-.58-.03-.64.03-.65.09-.6.15-.54.21-.48.26-.41.3-.34.35-.27.38-.2.42-.12.45-.04h.09l.09.01.09.01.09.02.09.02.08.03.09.03.08.04.08.04.09.05v1.47l.08.05.08.05.08.04.08.04.08.03.08.02.08.02.08.01.08.01h.09l.17-.01.17-.03.14-.05.13-.08.12-.09.09-.11.08-.12.06-.14.03-.15.01-.17-.03-.3-.08-.29-.14-.25-.2-.23-.25-.2-.3-.17-.35-.14-.4-.1-.45-.06-.5-.02-.73.05-.68.16-.62.25-.56.35-.48.43-.42.51-.33.59-.24.66-.15.72-.05.78.04.77.14.71.23.65.31.59.38.51.46.43.53.34.6.25.65.16.71.05.29-.01.29-.03.29-.04.29-.07.3-.08.29-.09.29-.12.3-.13.29-.15.3-.16zM461.99 50.02h3.94v-.64l-.84-.09-.33-.29v-3.06h1.05l2.43 3.49v.59h2.8v-.68l-1.15-.09-3.17-4.46 2.47-2.61 1.15-.15v-.66h-3.42v.66l.81.07.13.26-2.76 3.07h-.34v-8.65h-.68l-2.2.64v.56h1.39V49l-.31.29-.97.09v.64zM42.35 22.52l.31.13.33.11.35.1.36.09.38.08.41.07.41.05.43.03.45.03.46.01 1-.06.91-.15.82-.25.73-.34.63-.42.53-.5.42-.56.3-.64.19-.69.06-.74-.01-.28-.02-.27-.05-.26-.07-.25-.09-.25-.1-.23-.13-.22-.14-.22-.16-.2-.18-.19-.3-.28-.31-.24-.32-.21-.33-.19-.33-.16-.33-.15-.34-.14-.33-.14-.34-.13-.33-.13-.57-.25-.51-.23-.45-.23-.39-.24-.34-.24-.27-.26-.21-.29-.16-.32-.09-.37-.03-.4.03-.46.1-.42.16-.38.21-.34.28-.3.33-.25.38-.2.43-.15.49-.09.53-.03.22.01.22.01.21.02.2.04.2.04.19.05.18.06.18.06.17.08.17.09.32.36.33 2.06h1.12V8.81l-.38-.12-.38-.1-.37-.09-.37-.08-.37-.07-.36-.05-.37-.04-.36-.03-.35-.02-.36-.01-.89.05-.81.15-.73.24-.65.32-.57.4-.47.48-.37.54-.28.6-.16.66-.06.71.04.59.11.52.18.47.26.41.34.37.4.34.47.32.55.31.61.3.69.3.67.29.61.26.54.25.47.25.4.26.32.28.26.32.19.36.11.43.04.5-.04.44-.1.41-.17.38-.24.33-.3.3-.36.25-.43.21-.48.15-.54.09-.61.03h-.28l-.28-.02-.27-.03-.26-.03-.24-.05-.24-.05-.23-.07-.22-.07-.2-.08-.19-.1-.29-.36-.25-2.49h-1.28v3.8zM53.41 8.46v3.33h1.19l.3-2.01.3-.32h3.33v12.2l-.39.3-1.45.11v.89h5.64v-.89l-1.45-.11-.38-.3V9.46h3.32l.3.32.31 2.01h1.18V8.46h-12.2zM66.5 8.46v.87l1.23.13.37.3v8.48l.02.44.02.43.05.4.07.38.09.37.12.35.16.33.19.32.23.31.27.29.31.27.36.24.4.21.43.19.48.15.5.13.55.09.57.06.6.02.6-.02.57-.06.55-.09.5-.13.48-.15.43-.19.4-.21.36-.24.31-.27.27-.29.23-.31.19-.32.16-.34.12-.35.09-.37.07-.38.05-.4.02-.42.02-.45V9.91l.39-.39 1.3-.19v-.87h-4.56v.87l1.29.19.42.39v7.67l-.04.83-.1.74-.18.65-.25.56-.34.47-.41.38-.5.29-.58.21-.68.12-.77.05-.78-.05-.68-.12-.59-.21-.5-.29-.42-.38-.33-.47-.25-.56-.18-.65-.1-.74-.04-.83V9.76l.39-.3 1.34-.13v-.87H66.5zM87 8.46h-5.34v.87l1.23.13.37.3v11.9l-.37.3-1.23.11v.89H87l.63-.01.61-.03.57-.05.55-.07.53-.1.51-.14.49-.17.47-.21.46-.26.45-.3.5-.42.46-.47.4-.5.35-.53.3-.58.25-.61.19-.65.14-.69.08-.72.03-.75-.09-1.31-.25-1.19-.42-1.06-.57-.95-.74-.81-.88-.68-1.04-.53-1.19-.39-1.32-.24L87 8.46zm-1.79 1h1.7l1.13.06 1 .18.88.31.77.43.64.56.53.68.41.81.29.94.17 1.07.06 1.2-.06 1.19-.17 1.07-.29.94-.41.81-.53.69-.64.56-.77.44-.88.31-1 .19-1.13.06h-1.7V9.46zM99.35 12.57l-.22.01-.21.05-.19.08-.18.11-.16.14-.14.15-.11.18-.08.2-.05.21-.02.23.02.22.05.21.08.2.11.18.14.16.16.14.18.11.19.09.21.05.22.02.23-.02.21-.05.2-.09.18-.11.16-.14.14-.16.11-.18.08-.2.06-.21.02-.22-.02-.23-.06-.21-.08-.2-.11-.18-.14-.15-.16-.14-.18-.11-.2-.08-.21-.05-.23-.01zm0 7.84l-.22.01-.21.06-.19.08-.18.11-.16.14-.14.16-.11.18-.08.2-.05.21-.02.23.02.23.05.21.08.2.11.17.14.16.16.14.18.1.19.08.21.05.22.02.23-.02.21-.05.2-.08.18-.11.16-.14.14-.15.11-.18.08-.2.06-.21.02-.22-.02-.23-.06-.21-.08-.2-.11-.18-.14-.16-.16-.14-.18-.11-.2-.08-.21-.06-.23-.01zM109.53 22.96h5.44v-.89l-1.53-.11-.37-.3V17.4l.2.02.19.02.18.02.17.01.17.01.16.01.15.01.14.01h.26l1-.05.92-.16.82-.27.73-.36.63-.44.53-.53.41-.61.31-.68.18-.74.06-.8-.05-.92-.17-.8-.29-.68-.41-.57-.52-.47-.66-.36-.77-.28-.91-.18-1.04-.11-1.18-.04h-4.93v.87l1.41.13.37.3v11.9l-.37.3-1.23.11v.89zm3.54-6.59V9.5l.12-.01.11-.01.12-.01h.11l.12-.01h.54l.79.03.7.09.61.17.53.23.45.29.36.37.29.44.2.51.12.58.04.66-.04.68-.12.61-.2.54-.27.48-.34.4-.42.34-.49.26-.57.18-.63.12-.7.04-.11-.01h-.11l-.12-.01h-.13l-.13-.01-.15-.02-.16-.01-.16-.02-.18-.01-.18-.02zM121.52 22.96h5.2v-.78l-1.51-.11-.37-.35v-6.17l.26-.3.26-.26.25-.24.24-.21.23-.17.23-.14.23-.11.22-.09.22-.04.22-.02.13.01.13.01.12.03.12.03.11.05.11.06.1.06.1.08.09.09.09.1h.69v-1.86l-.14-.05-.13-.05-.13-.05-.13-.03-.13-.03-.12-.03-.13-.02-.13-.01-.13-.01H127.48l-.06.01h-.05l-.06.01h-.05l-.05.01-.06.01-.23.19-.23.2-.24.2-.23.2-.23.2-.23.22-.23.21-.23.22-.23.23-.23.23v-2.03h-.82l-2.5.78v.67h1.53v7.81l-.39.35-1.14.11v.78zM132.44 7.66l-.2.02-.19.05-.18.07-.16.1-.15.12-.13.15-.1.16-.07.18-.05.2-.02.21.02.2.05.19.07.18.1.16.13.14.15.12.16.1.18.08.19.04.2.02.21-.02.19-.04.18-.08.16-.1.15-.12.13-.14.1-.16.07-.18.05-.19.02-.2-.02-.21-.05-.19-.07-.18-.1-.16-.13-.15-.15-.12-.16-.11-.18-.07-.19-.05-.21-.02zm-.08 4.8l-2.49.78v.67h1.52v7.81l-.37.35-1.15.11v.78h4.86v-.78l-1.16-.11-.39-.35v-9.26h-.82zM144.35 22.05v-1.12l-.28.17-.27.15-.27.14-.27.12-.27.1-.27.08-.28.06-.27.05-.28.02-.29.01-.65-.04-.59-.14-.54-.23-.48-.31-.42-.4-.34-.47-.28-.55-.2-.63-.13-.7-.04-.76.04-.78.11-.72.19-.65.24-.57.31-.49.37-.42.41-.32.46-.24.51-.15.54-.05.11.01.1.01.11.01.11.02.1.03.1.04.11.04.1.04.1.05.09.06v1.77l.1.06.1.05.09.05.1.05.1.03.1.03.09.02.1.02.1.01h.1l.21-.01.19-.04.18-.06.16-.09.14-.11.11-.13.09-.15.07-.17.04-.18.01-.2-.03-.37-.1-.33-.17-.31-.24-.28-.3-.24-.36-.21-.42-.16-.48-.12-.54-.07-.6-.03-.87.06-.82.19-.74.31-.67.41-.59.52-.49.62-.4.7-.29.79-.18.87-.06.93.05.93.17.86.27.78.37.7.46.61.56.51.63.41.71.31.79.18.85.07.35-.01.35-.04.35-.05.35-.08.35-.09.35-.12.35-.14.36-.16.35-.17.36-.2zM154.48 20.67l-.37.23-.35.21-.35.19-.35.16-.34.14-.33.11-.33.09-.33.07-.32.04-.32.01-.64-.05-.58-.14-.53-.24-.47-.33-.42-.41-.34-.49-.28-.58-.21-.65-.12-.72-.04-.8v-.23h7v-.08l.01-.06V16.93l.01-.06v-.26l-.05-.77-.13-.7-.22-.63-.29-.55-.37-.48-.45-.4-.5-.31-.57-.23-.63-.14-.68-.05-.84.07-.79.19-.73.31-.65.42-.57.53-.49.63-.39.71-.29.8-.18.88-.06.95.06.92.17.85.27.77.37.7.47.6.55.51.63.41.7.3.77.19.83.06.41-.01.41-.04.41-.07.41-.09.41-.11.41-.15.41-.16.4-.2.4-.22.39-.25v-1.18zm-1.93-4.3h-4.99l.08-.53.13-.49.18-.45.24-.4.28-.34.31-.29.35-.24.37-.17.4-.1.41-.04.41.03.38.09.33.13.29.2.25.25.21.3.16.35.12.4.07.45.02.5v.35zM162.12 22.96h5.45v-.89l-1.54-.11-.36-.3v-5.53h3.54l.3.32.22 1.58h1.01v-4.77h-1.01l-.22 1.57-.3.31h-3.54V9.46h4.86l.28.32.32 2.05h1.19V8.46h-10.37v.87l1.4.13.37.3v11.9l-.37.3-1.23.11v.89zM178.82 12.35l-.85.06-.79.19-.73.31-.65.41-.58.52-.49.62-.39.7-.29.79-.18.87-.06.93.06.93.18.86.29.79.4.7.49.62.58.52.65.42.73.31.79.19.84.06.84-.06.79-.19.73-.31.66-.42.58-.52.49-.62.4-.7.3-.79.18-.86.06-.93-.06-.93-.18-.86-.29-.79-.4-.7-.49-.62-.58-.52-.66-.42-.73-.3-.79-.19-.85-.07zm0 .93l.51.05.47.15.44.24.39.33.35.42.29.5.23.59.18.66.11.73.03.8-.03.81-.11.73-.18.66-.23.59-.29.5-.35.42-.39.33-.44.24-.47.14-.51.05-.5-.05-.47-.15-.44-.24-.39-.33-.34-.42-.29-.5-.23-.58-.18-.66-.1-.74-.04-.8.04-.81.1-.73.17-.66.23-.59.29-.5.35-.42.38-.33.44-.24.47-.14.51-.05zM185.3 22.96h5.21v-.78l-1.52-.11-.36-.35v-6.17l.26-.3.25-.26.25-.24.24-.21.24-.17.23-.14.23-.11.22-.09.22-.04.21-.02.13.01.13.01.13.03.11.03.12.05.1.06.11.06.09.08.1.09.08.1h.69v-1.86l-.13-.05-.13-.05-.13-.05-.13-.03-.13-.03-.13-.03-.13-.02-.13-.01-.12-.01h-.35l-.05.01h-.06l-.05.01h-.06l-.05.01-.05.01-.24.19-.23.2-.23.2-.23.2-.24.2-.23.22-.23.21-.23.22-.23.23-.22.23v-2.03h-.82l-2.51.78v.67h1.53v7.81l-.39.35-1.14.11v.78zM202.58 20.67l-.36.23-.36.21-.35.19-.34.16-.34.14-.34.11-.33.09-.32.07-.33.04-.32.01-.63-.05-.59-.14-.53-.24-.47-.33-.41-.41-.35-.49-.28-.58-.2-.65-.13-.72-.04-.8v-.23h7v-.08l.01-.06v-.07l.01-.07v-.39l-.05-.77-.13-.7-.21-.63-.3-.55-.37-.48-.44-.4-.51-.31-.57-.23-.63-.14-.68-.05-.84.07-.79.19-.72.31-.65.42-.58.53-.48.63-.4.71-.29.8-.18.88-.06.95.06.92.17.85.27.77.38.7.46.6.55.51.63.41.7.3.77.19.83.06.41-.01.41-.04.41-.07.41-.09.41-.11.41-.15.41-.16.4-.2.4-.22.39-.25v-1.18zm-1.92-4.3h-4.99l.07-.53.13-.49.19-.45.23-.4.28-.34.32-.29.34-.24.38-.17.39-.1.41-.04.42.03.37.09.33.13.3.2.25.25.2.3.17.35.11.4.07.45.03.5v.35zM212.69 22.05v-1.12l-.27.17-.27.15-.27.14-.27.12-.28.1-.27.08-.27.06-.28.05-.28.02-.28.01-.65-.04-.6-.14-.54-.23-.48-.31-.41-.4-.35-.47-.28-.55-.2-.63-.12-.7-.05-.76.04-.78.12-.72.18-.65.25-.57.3-.49.37-.42.41-.32.47-.24.5-.15.54-.05.11.01.11.01.1.01.11.02.1.03.11.04.1.04.1.04.1.05.1.06v1.77l.09.06.1.05.1.05.09.05.1.03.1.03.1.02.09.02.1.01h.1l.21-.01.2-.04.17-.06.16-.09.14-.11.11-.13.09-.15.07-.17.04-.18.02-.2-.04-.37-.1-.33-.17-.31-.24-.28-.3-.24-.36-.21-.42-.16-.48-.12-.54-.07-.59-.03-.88.06-.82.19-.74.31-.67.41-.59.52-.49.62-.4.7-.29.79-.18.87-.06.93.05.93.17.86.27.78.37.7.47.61.55.51.63.41.71.31.79.18.85.07.35-.01.35-.04.35-.05.35-.08.35-.09.35-.12.35-.14.36-.16.35-.17.36-.2zM220.36 21.7l.28 1.26h3.04v-.78l-1.14-.11-.39-.35v-6.26l-.03-.62-.09-.54-.15-.47-.21-.41-.28-.33-.35-.27-.41-.21-.49-.15-.57-.08-.64-.03-.78.03-.72.1-.64.15-.57.2-.49.25-.41.28-.32.32-.24.35-.14.37-.05.39v.15l.02.12.03.1.04.09.06.07.07.05.08.04.11.03.12.02h1.63v-1.81l.17-.07.17-.06.17-.05.16-.05.17-.04.16-.03.16-.02.16-.02.16-.01h.16l.43.02.37.07.31.11.26.16.21.21.16.26.11.31.08.37.04.43.02.48v.69l-1.23.3-1.09.29-.95.29-.82.31-.69.32-.55.37-.43.41-.31.47-.18.54-.06.63.03.47.09.44.15.4.21.37.26.31.31.27.36.22.41.16.45.09.49.04.32-.02.32-.04.33-.07.34-.1.34-.13.36-.15.37-.18.38-.21.39-.24.4-.27zm0-.73l-.32.18-.31.16-.29.15-.29.12-.27.11-.26.09-.25.07-.24.05-.23.03-.22.01-.31-.02-.29-.06-.25-.1-.23-.14-.19-.17-.16-.2-.13-.23-.09-.26-.06-.28-.02-.31.04-.44.13-.4.21-.35.29-.31.39-.28.48-.26.57-.24.67-.24.76-.24.87-.24v3.8zM231.52 12.83l-.22-.1-.23-.08-.24-.07-.24-.06-.25-.05-.25-.05-.27-.03-.27-.02-.27-.02H229l-.71.03-.64.1-.56.16-.5.23-.43.28-.35.34-.28.39-.2.45-.12.5-.04.54.03.42.09.37.14.34.2.3.25.29.31.26.36.26.42.24.47.24.52.24.41.19.37.18.32.17.29.18.25.19.2.19.16.22.11.25.07.28.02.31-.02.3-.07.28-.11.25-.15.23-.19.2-.23.17-.27.14-.29.1-.34.06-.36.02h-.18l-.19-.02-.19-.02-.18-.04-.18-.05-.19-.05-.18-.07-.18-.08-.18-.09-.18-.1-.26-1.83H225v2.81l.23.08.25.07.25.07.27.06.28.05.28.04.3.04.31.02.31.02h.33l.73-.04.67-.1.6-.18.52-.24.45-.31.38-.36.3-.42.21-.48.13-.53.05-.58-.01-.23-.03-.23-.04-.22-.06-.2-.08-.19-.09-.19-.11-.17-.12-.15-.13-.15-.15-.13-.22-.16-.22-.16-.23-.14-.23-.12-.23-.12-.24-.12-.23-.11-.23-.1-.23-.11-.23-.11-.35-.17-.31-.17-.27-.17-.24-.17-.2-.17-.17-.19-.13-.2-.09-.22-.06-.24-.02-.27.02-.28.06-.25.09-.23.13-.2.17-.18.2-.14.23-.12.27-.08.3-.05.32-.02h.16l.16.02.15.02.16.03.16.04.16.05.16.06.16.07.17.08.16.08.18 1.54h1.05v-2.44zM234.63 13.86v6.98l.02.43.05.39.08.33.13.28.18.24.23.18.29.15.35.1.42.06.5.02h.26l.26-.02.27-.02.28-.03.28-.05.29-.05.29-.06.3-.07.3-.08.3-.09v-.8l-.15.03-.15.03-.15.02-.15.02-.14.02-.15.02-.15.01-.15.01-.15.01h-.15l-.42-.02-.35-.07-.28-.11-.23-.16-.18-.2-.14-.26-.09-.3-.06-.36-.03-.41-.01-.47v-5.7h3.28v-1.01h-3.28v-2.29h-.8l-.93 2.01-1.43.62v.67h1.36z" fill-rule="evenodd"/></svg>