<svg xmlns="http://www.w3.org/2000/svg" height="384" width="528"><path d="M0 384h528V0H0z" fill="#eaf2f3"/><path d="M0 384h527.984V.012H0z" fill="#fff"/><path d="M0 384V.012h527.984V384H0" fill="none" stroke="#fff" stroke-width=".7679808" stroke-miterlimit="10"/><path d="M60.159 229.56h454.377V67.843H60.16z" fill="#fff"/><path d="M60.159 229.56V67.843h454.377V229.56H60.159" fill="none" stroke="#fff" stroke-width=".7679808" stroke-miterlimit="10"/><path d="M60.159 216.112h454.377M60.159 193.64h454.377M60.159 171.167h454.377M60.159 148.693h454.377M60.159 126.237h454.377M60.159 103.764h454.377M60.159 81.29h454.377" fill="none" stroke="#eaf2f3" stroke-width="1.1519712000000002" stroke-miterlimit="10"/><path d="M80.883 172.355h36.415v-23.661H80.883z" fill="#1a476f"/><path d="M80.883 172.355v-23.662h36.415v23.662H80.883" fill="none" stroke="#1a476f" stroke-width=".159996" stroke-miterlimit="10"/><path d="M117.298 148.693h36.416v-12.012h-36.416z" fill="#ffd200"/><path d="M117.298 148.693v-12.012h36.417v12.012h-36.417" fill="none" stroke="#ffd200" stroke-width=".159996" stroke-miterlimit="10"/><path d="M178.101 190.505h36.416v-41.81H178.1z" fill="#1a476f"/><path d="M178.101 190.505v-41.812h36.416v41.812h-36.416" fill="none" stroke="#1a476f" stroke-width=".159996" stroke-miterlimit="10"/><path d="M214.517 155.327h36.415v-6.633h-36.415z" fill="#ffd200"/><path d="M214.517 155.327v-6.634h36.415v6.634h-36.415" fill="none" stroke="#ffd200" stroke-width=".159996" stroke-miterlimit="10"/><path d="M323.763 172.42h36.415v-23.727h-36.415z" fill="#1a476f"/><path d="M323.763 172.42v-23.727h36.416v23.727h-36.416" fill="none" stroke="#1a476f" stroke-width=".159996" stroke-miterlimit="10"/><path d="M360.179 148.693h36.415V134.42H360.18z" fill="#ffd200"/><path d="M360.179 148.693v-14.272h36.416v14.272h-36.416" fill="none" stroke="#ffd200" stroke-width=".159996" stroke-miterlimit="10"/><path d="M420.997 148.693h36.416v-32.175h-36.416z" fill="#1a476f"/><path d="M420.997 148.693V116.52h36.416v32.174h-36.416" fill="none" stroke="#1a476f" stroke-width=".159996" stroke-miterlimit="10"/><path d="M457.413 148.693h36.416v-51.1h-36.416z" fill="#ffd200"/><path d="M457.413 148.693v-51.1h36.415v51.1h-36.415" fill="none" stroke="#ffd200" stroke-width=".159996" stroke-miterlimit="10"/><g font-weight="400" font-family="Helvetica"><text style="-inkscape-font-specification:Helvetica" transform="matrix(1.33333 0 0 1.33333 111.3 244.179)" font-size="12.004"><tspan y="0" x="0 7.3342605">FI</tspan></text><text style="-inkscape-font-specification:Helvetica" transform="matrix(1.33333 0 0 1.33333 125.528 246.456)" font-size="6.992"><tspan y="0" x="0 5.04813">US</tspan></text><text style="-inkscape-font-specification:Helvetica" transform="matrix(1.33333 0 0 1.33333 114 137.258)" font-size="13.996"><tspan y="0" x="0 5.4444828 10.888966">***</tspan></text><text style="-inkscape-font-specification:Helvetica" transform="matrix(1.33333 0 0 1.33333 196.628 244.179)" font-size="12.004"><tspan y="0" x="0 9.3388786">GP</tspan></text><text style="-inkscape-font-specification:Helvetica" transform="matrix(1.33333 0 0 1.33333 219.754 246.456)" font-size="6.992"><tspan y="0" x="0 5.04813">US</tspan></text><text style="-inkscape-font-specification:Helvetica" transform="matrix(1.33333 0 0 1.33333 203.777 144.007)" font-size="13.996"><tspan y="0" x="0 5.4444828 10.888966">***</tspan></text><text style="-inkscape-font-specification:Helvetica" transform="matrix(1.33333 0 0 1.33333 346.442 244.179)" font-size="12.004"><tspan y="0" x="0 7.3342605">FI</tspan></text><text style="-inkscape-font-specification:Helvetica" transform="matrix(1.33333 0 0 1.33333 360.67 246.456)" font-size="6.992"><tspan y="0" x="0 5.04813">UK</tspan></text><text style="-inkscape-font-specification:Helvetica" transform="matrix(1.33333 0 0 1.33333 356.4 132.77)" font-size="13.996"><tspan y="0" x="0">*</tspan></text><text style="-inkscape-font-specification:Helvetica" transform="matrix(1.33333 0 0 1.33333 444.59 244.179)" font-size="12.004"><tspan y="0" x="0 9.3388786">GP</tspan></text><text style="-inkscape-font-specification:Helvetica" transform="matrix(1.33333 0 0 1.33333 467.716 246.456)" font-size="6.992"><tspan y="0" x="0 5.04813">UK</tspan></text><text style="-inkscape-font-specification:Helvetica" transform="matrix(1.33333 0 0 1.33333 451.738 99.061)" font-size="13.996"><tspan y="0" x="0 5.4444828 10.888966">***</tspan></text><text style="-inkscape-font-specification:Helvetica" transform="matrix(1.33333 0 0 1.33333 205.286 266.652)" font-size="12.004"><tspan y="0" x="0 7.3342605 14.008318 18.00555 24.679607 30.681458 37.355515 43.357365 46.694393 49.359215 56.033272 62.707329 66.044357 72.046204 78.720268 85.394325 92.40448 99.078537 103.07578 109.74983 116.42389">Forecasting sub−group</tspan></text></g><path d="M60.159 229.56V67.843M60.159 216.112h-5.346" fill="none" stroke="#000" stroke-width=".7679808" stroke-miterlimit="10"/><text style="-inkscape-font-specification:Helvetica" transform="matrix(0 -1.33333 1.33333 0 48.164 223.712)" font-weight="400" font-size="9.999" font-family="Helvetica"><tspan y="0" x="0 5.839416">−3</tspan></text><path d="M60.159 193.64h-5.346" fill="none" stroke="#000" stroke-width=".7679808" stroke-miterlimit="10"/><text style="-inkscape-font-specification:Helvetica" transform="matrix(0 -1.33333 1.33333 0 48.164 201.239)" font-weight="400" font-size="9.999" font-family="Helvetica"><tspan y="0" x="0 5.839416">−2</tspan></text><path d="M60.159 171.167h-5.346" fill="none" stroke="#000" stroke-width=".7679808" stroke-miterlimit="10"/><text style="-inkscape-font-specification:Helvetica" transform="matrix(0 -1.33333 1.33333 0 48.164 178.765)" font-weight="400" font-size="9.999" font-family="Helvetica"><tspan y="0" x="0 5.839416">−1</tspan></text><path d="M60.159 148.693h-5.346" fill="none" stroke="#000" stroke-width=".7679808" stroke-miterlimit="10"/><text style="-inkscape-font-specification:Helvetica" transform="matrix(0 -1.33333 1.33333 0 48.164 152.4)" font-weight="400" font-size="9.999" font-family="Helvetica"><tspan y="0" x="0">0</tspan></text><path d="M60.159 126.237h-5.346" fill="none" stroke="#000" stroke-width=".7679808" stroke-miterlimit="10"/><text style="-inkscape-font-specification:Helvetica" transform="matrix(0 -1.33333 1.33333 0 48.164 129.943)" font-weight="400" font-size="9.999" font-family="Helvetica"><tspan y="0" x="0">1</tspan></text><path d="M60.159 103.764h-5.346" fill="none" stroke="#000" stroke-width=".7679808" stroke-miterlimit="10"/><text style="-inkscape-font-specification:Helvetica" transform="matrix(0 -1.33333 1.33333 0 48.164 107.47)" font-weight="400" font-size="9.999" font-family="Helvetica"><tspan y="0" x="0">2</tspan></text><path d="M60.159 81.29h-5.346" fill="none" stroke="#000" stroke-width=".7679808" stroke-miterlimit="10"/><text style="-inkscape-font-specification:Helvetica" transform="matrix(0 -1.33333 1.33333 0 48.164 84.997)" font-weight="400" font-size="9.999" font-family="Helvetica"><tspan y="0" x="0">3</tspan><tspan y="-17.04" x="-114.454 -108.89455 -103.89506 -101.11533 -98.895554 -90.566391 -85.006943 -82.227226 -76.667778 -71.108337 -68.328613 -59.999447 -54.440002 -48.880558 -43.321114 -40.541393 -37.761669 -32.202225 -28.872559 -23.313114 -18.313616 -12.754171 -7.7546711 -4.9749489 -2.1952269 3.364217 6.6938839 10.023551 15.582995">estimated mean forecast error</tspan></text><path d="M60.159 229.56h454.377" fill="none" stroke="#000" stroke-width=".7679808" stroke-miterlimit="10"/><text style="-inkscape-font-specification:Helvetica" transform="matrix(1.33333 0 0 1.33333 62.754 43.852)" font-weight="400" font-size="12.004" font-family="Helvetica" fill="#1e2d53"><tspan y="0" x="0 8.0064678 14.008318 17.345346 20.010168 30.009251 36.683308 40.020336 46.694393 53.36845 56.705479 60.042507 66.716568 70.713799 77.387856 83.389702 90.063759 96.065613 99.402641 102.73967 109.41373 113.41096 117.40819 124.08224 128.07948 131.4165 138.09056 141.4276 144.76462 153.43129 161.43776 164.7748 170.77664 177.4507 184.12476 186.78958 193.46364 199.46548 202.80251 208.80437 212.14139 216.13863 222.81268 229.48674 236.1608 240.15802 246.83208 249.4969 256.17096 262.84503 266.18204 269.51907 276.19315 282.86719 286.20422 293.53848 300.87274 308.87921 316.88568 323.55972 330.2338">Estimated forecast error of US subjects regarding the FTSE100</tspan></text><path d="M151.519 324.484h271.656v-43.527H151.519z" fill="#fff"/><path d="M151.519 324.484v-43.527h271.657v43.527H151.519" fill="none" stroke="#000" stroke-width=".7679808" stroke-miterlimit="10"/><path d="M157.279 300.065h49.928v-13.349H157.28z" fill="#1a476f"/><path d="M157.279 300.065v-13.349h49.928v13.349h-49.928" fill="none" stroke="#1a476f" stroke-width=".159996" stroke-miterlimit="10"/><path d="M157.279 318.726h49.928v-13.332H157.28z" fill="#ffd200"/><path d="M157.279 318.726v-13.332h49.928v13.332h-49.928" fill="none" stroke="#ffd200" stroke-width=".159996" stroke-miterlimit="10"/><g font-weight="400" font-family="Helvetica"><text style="-inkscape-font-specification:Helvetica" transform="matrix(1.33333 0 0 1.33333 215.193 298.052)" font-size="9.999"><tspan y="0" x="0 5.559444 10.558944 13.338666 15.558444 23.887611 29.447056 32.226776 37.786221 43.345665 46.125385 48.905109 54.464554 57.79422 63.353664 68.353165 73.912605 78.912109 81.691833 84.47155 90.030998 93.360664 96.690331 102.24977 105.57944 108.35916 111.13889 116.69833 120.02799 122.80772 128.91711">estimated forecast error for FI</tspan></text><text style="-inkscape-font-specification:Helvetica" transform="matrix(1.33333 0 0 1.33333 390.784 299.949)" font-size="5.829"><tspan y="0" x="0 4.208271">US</tspan></text><text style="-inkscape-font-specification:Helvetica" transform="matrix(1.33333 0 0 1.33333 215.193 316.73)" font-size="9.999"><tspan y="0" x="0 5.559444 10.558944 13.338666 15.558444 23.887611 29.447056 32.226776 37.786221 43.345665 46.125385 48.905109 54.464554 57.79422 63.353664 68.353165 73.912605 78.912109 81.691833 84.47155 90.030998 93.360664 96.690331 102.24977 105.57944 108.35916 111.13889 116.69833 120.02799 122.80772 130.58694">estimated forecast error for GP</tspan></text><text style="-inkscape-font-specification:Helvetica" transform="matrix(1.33333 0 0 1.33333 398.196 318.627)" font-size="5.829"><tspan y="0" x="0 4.208271">US</tspan></text></g></svg>