<?xml version="1.0" encoding="UTF-8" standalone="no"?>
<!DOCTYPE svg PUBLIC "-//W3C//DTD SVG 1.1//EN" "http://www.w3.org/Graphics/SVG/1.1/DTD/svg11.dtd">
<svg xmlns="http://www.w3.org/2000/svg" xmlns:xlink="http://www.w3.org/1999/xlink" version="1.1" width="566pt" height="425pt" viewBox="0 0 566 425">
<g enable-background="new">
<clipPath id="cp0">
<path transform="matrix(1,0,0,-1,0,425)" d="M 0 0 L 566.93 0 L 566.93 425.2 L 0 425.2 Z "/>
</clipPath>
<g clip-path="url(#cp0)">
<path transform="matrix(1,0,0,-1,0,425)" d="M -0 0 L 566.93 0 L 566.93 425.2 L -0 425.2 Z " fill="#ffffff"/>
<path transform="matrix(1,0,0,-1,0,425)" stroke-width="1.07" stroke-linecap="round" stroke-linejoin="round" fill="none" stroke="#ffffff" d="M -0 0 L 566.93 0 L 566.93 425.2 L -0 425.2 Z "/>
</g>
<clipPath id="cp1">
<path transform="matrix(1,0,0,-1,0,425)" d="M 58.6 86.12 L 561.45 86.12 L 561.45 391.72999 L 58.6 391.72999 Z "/>
</clipPath>
<g clip-path="url(#cp1)">
<path transform="matrix(1,0,0,-1,0,425)" d="M 58.6 86.12 L 561.45 86.12 L 561.45 391.72999 L 58.6 391.72999 Z " fill="#ffffff"/>
<path transform="matrix(1,0,0,-1,0,425)" stroke-width=".53" stroke-linecap="butt" stroke-linejoin="round" fill="none" stroke="#ebebeb" d="M 58.6 134.74 L 561.45 134.74 "/>
<path transform="matrix(1,0,0,-1,0,425)" stroke-width=".53" stroke-linecap="butt" stroke-linejoin="round" fill="none" stroke="#ebebeb" d="M 58.6 204.19 L 561.45 204.19 "/>
<path transform="matrix(1,0,0,-1,0,425)" stroke-width=".53" stroke-linecap="butt" stroke-linejoin="round" fill="none" stroke="#ebebeb" d="M 58.6 273.65 L 561.45 273.65 "/>
<path transform="matrix(1,0,0,-1,0,425)" stroke-width=".53" stroke-linecap="butt" stroke-linejoin="round" fill="none" stroke="#ebebeb" d="M 58.6 343.11 L 561.45 343.11 "/>
<path transform="matrix(1,0,0,-1,0,425)" stroke-width="1.07" stroke-linecap="butt" stroke-linejoin="round" fill="none" stroke="#ebebeb" d="M 58.6 100.01 L 561.45 100.01 "/>
<path transform="matrix(1,0,0,-1,0,425)" stroke-width="1.07" stroke-linecap="butt" stroke-linejoin="round" fill="none" stroke="#ebebeb" d="M 58.6 169.46 L 561.45 169.46 "/>
<path transform="matrix(1,0,0,-1,0,425)" stroke-width="1.07" stroke-linecap="butt" stroke-linejoin="round" fill="none" stroke="#ebebeb" d="M 58.6 238.92 L 561.45 238.92 "/>
<path transform="matrix(1,0,0,-1,0,425)" stroke-width="1.07" stroke-linecap="butt" stroke-linejoin="round" fill="none" stroke="#ebebeb" d="M 58.6 308.38 L 561.45 308.38 "/>
<path transform="matrix(1,0,0,-1,0,425)" stroke-width="1.07" stroke-linecap="butt" stroke-linejoin="round" fill="none" stroke="#ebebeb" d="M 58.6 377.83 L 561.45 377.83 "/>
<path transform="matrix(1,0,0,-1,0,425)" stroke-width="1.07" stroke-linecap="butt" stroke-linejoin="round" fill="none" stroke="#ebebeb" d="M 81.46 86.12 L 81.46 391.73 "/>
<path transform="matrix(1,0,0,-1,0,425)" stroke-width="1.07" stroke-linecap="butt" stroke-linejoin="round" fill="none" stroke="#ebebeb" d="M 195.74 86.12 L 195.74 391.73 "/>
<path transform="matrix(1,0,0,-1,0,425)" stroke-width="1.07" stroke-linecap="butt" stroke-linejoin="round" fill="none" stroke="#ebebeb" d="M 310.02 86.12 L 310.02 391.73 "/>
<path transform="matrix(1,0,0,-1,0,425)" stroke-width="1.07" stroke-linecap="butt" stroke-linejoin="round" fill="none" stroke="#ebebeb" d="M 424.31 86.12 L 424.31 391.73 "/>
<path transform="matrix(1,0,0,-1,0,425)" stroke-width="1.07" stroke-linecap="butt" stroke-linejoin="round" fill="none" stroke="#ebebeb" d="M 538.59 86.12 L 538.59 391.73 "/>
<path transform="matrix(1,0,0,-1,0,425)" stroke-width="4.27" stroke-linecap="butt" stroke-linejoin="round" fill="none" stroke="#440154" d="M 81.46 336.16 L 195.74 245.87 L 310.02 176.41 L 424.31 134.74 L 538.59 113.9 "/>
<path transform="matrix(1,0,0,-1,0,425)" stroke-width="4.27" stroke-linecap="butt" stroke-dasharray="17.07,17.07" stroke-linejoin="round" fill="none" stroke="#2a788e" d="M 81.46 336.16 L 195.74 238.92 L 310.02 183.36 L 424.31 141.68 L 538.59 127.79 "/>
<path transform="matrix(1,0,0,-1,0,425)" stroke-width="4.27" stroke-linecap="butt" stroke-dasharray="4.27,12.8,17.07,12.8" stroke-linejoin="round" fill="none" stroke="#7ad151" d="M 81.46 297.07 L 195.74 209.85 L 310.02 158.16 L 424.31 112.93 L 538.59 109.7 "/>
<text fill="#440154" xml:space="preserve" transform="matrix(1 0 -0 1 0 425)" font-size="8.96" font-family="ZapfDingbats"><tspan y="-333.05" x="77.91">G</tspan></text>
<path transform="matrix(1,0,0,-1,0,425)" d="M 81.46 341.19 L 85.81 333.65 L 77.1 333.65 Z " fill="#2a788e"/>
<path transform="matrix(1,0,0,-1,0,425)" d="M 78.22 293.84 L 84.69 293.84 L 84.69 300.31 L 78.22 300.31 Z " fill="#7ad151"/>
<text fill="#440154" xml:space="preserve" transform="matrix(1 0 -0 1 0 425)" font-size="8.96" font-family="ZapfDingbats"><tspan y="-242.76" x="192.19">G</tspan></text>
<path transform="matrix(1,0,0,-1,0,425)" d="M 195.74 243.95 L 200.1 236.41 L 191.38 236.41 Z " fill="#2a788e"/>
<path transform="matrix(1,0,0,-1,0,425)" d="M 192.5 206.61 L 198.98 206.61 L 198.98 213.08 L 192.5 213.08 Z " fill="#7ad151"/>
<text fill="#440154" xml:space="preserve" transform="matrix(1 0 -0 1 0 425)" font-size="8.96" font-family="ZapfDingbats"><tspan y="-173.3" x="306.48">G</tspan></text>
<path transform="matrix(1,0,0,-1,0,425)" d="M 310.02 188.39 L 314.38 180.84 L 305.67 180.84 Z " fill="#2a788e"/>
<path transform="matrix(1,0,0,-1,0,425)" d="M 306.79 154.92 L 313.26 154.92 L 313.26 161.39 L 306.79 161.39 Z " fill="#7ad151"/>
<text fill="#440154" xml:space="preserve" transform="matrix(1 0 -0 1 0 425)" font-size="8.96" font-family="ZapfDingbats"><tspan y="-131.63" x="420.76">G</tspan></text>
<path transform="matrix(1,0,0,-1,0,425)" d="M 424.31 146.71 L 428.67 139.17 L 419.95 139.17 Z " fill="#2a788e"/>
<path transform="matrix(1,0,0,-1,0,425)" d="M 421.07 109.69 L 427.54 109.69 L 427.54 116.17 L 421.07 116.17 Z " fill="#7ad151"/>
<text fill="#440154" xml:space="preserve" transform="matrix(1 0 -0 1 0 425)" font-size="8.96" font-family="ZapfDingbats"><tspan y="-110.79" x="535.04">G</tspan></text>
<path transform="matrix(1,0,0,-1,0,425)" d="M 538.59 132.82 L 542.95 125.27 L 534.24 125.27 Z " fill="#2a788e"/>
<path transform="matrix(1,0,0,-1,0,425)" d="M 535.36 106.46 L 541.83 106.46 L 541.83 112.93 L 535.36 112.93 Z " fill="#7ad151"/>
<path transform="matrix(1,0,0,-1,0,425)" stroke-width="1.07" stroke-linecap="round" stroke-linejoin="round" fill="none" stroke="#333333" d="M 58.6 86.12 L 561.45 86.12 L 561.45 391.72999 L 58.6 391.72999 Z "/>
</g>
<text fill="#4d4d4d" xml:space="preserve" transform="matrix(1 0 -0 1 0 425)" font-size="16" font-family="Helvetica"><tspan y="-94.26" x="44.77">0</tspan></text>
<text fill="#4d4d4d" xml:space="preserve" transform="matrix(1 0 -0 1 0 425)" font-size="16" font-family="Helvetica"><tspan y="-163.72" x="35.88 44.776">25</tspan></text>
<text fill="#4d4d4d" xml:space="preserve" transform="matrix(1 0 -0 1 0 425)" font-size="16" font-family="Helvetica"><tspan y="-233.18" x="35.88 44.776">50</tspan></text>
<text fill="#4d4d4d" xml:space="preserve" transform="matrix(1 0 -0 1 0 425)" font-size="16" font-family="Helvetica"><tspan y="-302.63" x="35.88 44.776">75</tspan></text>
<text fill="#4d4d4d" xml:space="preserve" transform="matrix(1 0 -0 1 0 425)" font-size="16" font-family="Helvetica"><tspan y="-372.09" x="26.98 35.876 44.772">100</tspan></text>
<path transform="matrix(1,0,0,-1,0,425)" stroke-width="1.07" stroke-linecap="butt" stroke-linejoin="round" fill="none" stroke="#333333" d="M 55.86 100.01 L 58.6 100.01 "/>
<path transform="matrix(1,0,0,-1,0,425)" stroke-width="1.07" stroke-linecap="butt" stroke-linejoin="round" fill="none" stroke="#333333" d="M 55.86 169.46 L 58.6 169.46 "/>
<path transform="matrix(1,0,0,-1,0,425)" stroke-width="1.07" stroke-linecap="butt" stroke-linejoin="round" fill="none" stroke="#333333" d="M 55.86 238.92 L 58.6 238.92 "/>
<path transform="matrix(1,0,0,-1,0,425)" stroke-width="1.07" stroke-linecap="butt" stroke-linejoin="round" fill="none" stroke="#333333" d="M 55.86 308.38 L 58.6 308.38 "/>
<path transform="matrix(1,0,0,-1,0,425)" stroke-width="1.07" stroke-linecap="butt" stroke-linejoin="round" fill="none" stroke="#333333" d="M 55.86 377.83 L 58.6 377.83 "/>
<path transform="matrix(1,0,0,-1,0,425)" stroke-width="1.07" stroke-linecap="butt" stroke-linejoin="round" fill="none" stroke="#333333" d="M 81.46 83.38 L 81.46 86.12 "/>
<path transform="matrix(1,0,0,-1,0,425)" stroke-width="1.07" stroke-linecap="butt" stroke-linejoin="round" fill="none" stroke="#333333" d="M 195.74 83.38 L 195.74 86.12 "/>
<path transform="matrix(1,0,0,-1,0,425)" stroke-width="1.07" stroke-linecap="butt" stroke-linejoin="round" fill="none" stroke="#333333" d="M 310.02 83.38 L 310.02 86.12 "/>
<path transform="matrix(1,0,0,-1,0,425)" stroke-width="1.07" stroke-linecap="butt" stroke-linejoin="round" fill="none" stroke="#333333" d="M 424.31 83.38 L 424.31 86.12 "/>
<path transform="matrix(1,0,0,-1,0,425)" stroke-width="1.07" stroke-linecap="butt" stroke-linejoin="round" fill="none" stroke="#333333" d="M 538.59 83.38 L 538.59 86.12 "/>
<text fill="#4d4d4d" xml:space="preserve" transform="matrix(1 0 -0 1 0 425)" font-size="16" font-family="Helvetica"><tspan y="-69.7" x="77.01">0</tspan></text>
<text fill="#4d4d4d" xml:space="preserve" transform="matrix(1 0 -0 1 0 425)" font-size="16" font-family="Helvetica"><tspan y="-69.7" x="191.29">1</tspan></text>
<text fill="#4d4d4d" xml:space="preserve" transform="matrix(1 0 -0 1 0 425)" font-size="16" font-family="Helvetica"><tspan y="-69.7" x="305.58">2</tspan></text>
<text fill="#4d4d4d" xml:space="preserve" transform="matrix(1 0 -0 1 0 425)" font-size="16" font-family="Helvetica"><tspan y="-69.7" x="419.86">3</tspan></text>
<text fill="#4d4d4d" xml:space="preserve" transform="matrix(1 0 -0 1 0 425)" font-size="16" font-family="Helvetica"><tspan y="-69.7" x="534.14">4</tspan></text>
<text xml:space="preserve" transform="matrix(1 0 -0 1 0 425)" font-size="20" font-family="Helvetica"><tspan y="-49.08" x="196.08 209.42 219.42 230.54 241.65999 252.77999 269.43998 273.87998 283.87998 289.43998 299.43998 310.55998 320.55998 326.11997 331.67997 342.79997 348.35997 353.91996 365.03996 376.15995 387.27995 398.39994 408.39994 413.95994">Economic cost of honesty</tspan></text>
<text xml:space="preserve" transform="matrix(0 -1 1 0 0 425)" font-size="20" font-family="Helvetica"><tspan y="19.84" x="110.06 122.4 133.52 140.18001 150.18001 161.3 172.42 177.98 189.09999 200.21999 211.33998 216.89998 228.01998 233.57997 239.13997 250.25997 261.37998 272.49998 283.61997 293.61997 299.17997 304.73997 311.39997 322.51997 333.63996 344.75996 352.21995 357.77995">Percentage of honest reports</tspan></text>
<path transform="matrix(1,0,0,-1,0,425)" d="M 164.07 5.48 L 455.97 5.48 L 455.97 33.72 L 164.07 33.72 Z " fill="#ffffff"/>
<path transform="matrix(1,0,0,-1,0,425)" d="M 179.51 10.96 L 222.70999 10.96 L 222.70999 28.240002 L 179.51 28.240002 Z " fill="#ffffff"/>
<path transform="matrix(1,0,0,-1,0,425)" stroke-width="4.27" stroke-linecap="butt" stroke-linejoin="round" fill="none" stroke="#440154" d="M 183.83 19.6 L 218.39 19.6 "/>
<text fill="#440154" xml:space="preserve" transform="matrix(1 0 -0 1 0 425)" font-size="8.96" font-family="ZapfDingbats"><tspan y="-16.49" x="197.57">G</tspan></text>
<path transform="matrix(1,0,0,-1,0,425)" d="M 268.42 10.96 L 311.62004 10.96 L 311.62004 28.240002 L 268.42 28.240002 Z " fill="#ffffff"/>
<path transform="matrix(1,0,0,-1,0,425)" stroke-width="4.27" stroke-linecap="butt" stroke-dasharray="17.07,17.07" stroke-linejoin="round" fill="none" stroke="#2a788e" d="M 272.74 19.6 L 307.3 19.6 "/>
<path transform="matrix(1,0,0,-1,0,425)" d="M 290.02 24.63 L 294.37 17.08 L 285.66 17.08 Z " fill="#2a788e"/>
<path transform="matrix(1,0,0,-1,0,425)" d="M 365.32 10.96 L 408.52003 10.96 L 408.52003 28.240002 L 365.32 28.240002 Z " fill="#ffffff"/>
<path transform="matrix(1,0,0,-1,0,425)" stroke-width="4.27" stroke-linecap="butt" stroke-dasharray="4.27,12.8,17.07,12.8" stroke-linejoin="round" fill="none" stroke="#7ad151" d="M 369.64 19.6 L 404.2 19.6 "/>
<path transform="matrix(1,0,0,-1,0,425)" d="M 383.68 16.36 L 390.15 16.36 L 390.15 22.83 L 383.68 22.83 Z " fill="#7ad151"/>
<text xml:space="preserve" transform="matrix(1 0 -0 1 0 425)" font-size="16" font-family="Helvetica"><tspan y="-13.85" x="232.68">F</tspan></text>
<text xml:space="preserve" transform="matrix(1 0 -0 1 0 425)" font-size="16" font-family="Helvetica"><tspan y="-13.85" x="242.45">I</tspan></text>
<text xml:space="preserve" transform="matrix(1 0 -0 1 0 425)" font-size="16" font-family="Helvetica"><tspan y="-13.85" x="246.9">N</tspan></text>
<text xml:space="preserve" transform="matrix(1 0 -0 1 0 425)" font-size="16" font-family="Helvetica"><tspan y="-14.01" x="321.58">N</tspan></text>
<text xml:space="preserve" transform="matrix(1 0 -0 1 0 425)" font-size="16" font-family="Helvetica"><tspan y="-14.01" x="333.13">E</tspan></text>
<text xml:space="preserve" transform="matrix(1 0 -0 1 0 425)" font-size="16" font-family="Helvetica"><tspan y="-14.01" x="343.8">U</tspan></text>
<text xml:space="preserve" transform="matrix(1 0 -0 1 0 425)" font-size="16" font-family="Helvetica"><tspan y="-13.85" x="418.48">A</tspan></text>
<text xml:space="preserve" transform="matrix(1 0 -0 1 0 425)" font-size="16" font-family="Helvetica"><tspan y="-13.85" x="429.15">B</tspan></text>
<text xml:space="preserve" transform="matrix(1 0 -0 1 0 425)" font-size="16" font-family="Helvetica"><tspan y="-13.85" x="439.82">S</tspan></text>
<text xml:space="preserve" transform="matrix(1 0 -0 1 0 425)" font-size="24" font-family="Helvetica"><tspan y="-402.49" x="58.6 74.608 89.272 106.600009">STUD</tspan></text>
</g>
</svg>
