<svg xmlns="http://www.w3.org/2000/svg" width="566pt" height="425pt" viewBox="0 0 566 425"><path d="M0 425h566.93V-.2H0z" fill="#fff"/><path stroke-width="1.75" stroke-linecap="round" stroke-linejoin="round" fill="none" stroke="#fff" d="M0 425h566.93V-.2H0z"/><clipPath id="a"><path transform="matrix(1 0 0 -1 0 425)" d="M61.54 50.32h496.42v337.74H61.54z"/></clipPath><g clip-path="url(#a)"><path d="M61.54 374.68h496.42V36.94H61.54z" fill="#fff"/><path stroke-width=".87" stroke-linejoin="round" fill="none" stroke="#ebebeb" d="M61.54 338.86h496.42M61.54 297.92h496.42M61.54 256.98h496.42M61.54 216.04h496.42M61.54 175.1h496.42M61.54 134.17h496.42M61.54 93.23h496.42M61.54 52.29h496.42M124.72 374.68V36.94M214.98 374.68V36.94M305.24 374.68V36.94M395.5 374.68V36.94M485.76 374.68V36.94"/><path stroke-width="1.75" stroke-linejoin="round" fill="none" stroke="#ebebeb" d="M61.54 359.33h496.42M61.54 318.39h496.42M61.54 277.45h496.42M61.54 236.51h496.42M61.54 195.57h496.42M61.54 154.64h496.42M61.54 113.7h496.42M61.54 72.76h496.42M79.59 374.68V36.94M169.85 374.68V36.94M260.11 374.68V36.94M350.37 374.68V36.94M440.63 374.68V36.94M530.89 374.68V36.94"/><path stroke-width="1.07" stroke-linejoin="round" fill="none" stroke="#000" d="M84.11 236.51l4.51 2.99 4.51 1.55 4.51-5.97 4.52-3.19 4.51-2.26 4.51 4.31 4.52.26 4.51 3.05 4.51 2.35 4.51-10.21 4.52 2.03 4.51 7.78 4.51-.24 4.52.63 4.51 2.27 4.51 2.14 4.51 1.88 4.52-1.14 4.51.2 4.51 2.72 4.52 1.09 4.51-1.81 4.51 3.01 4.52.84 4.51.33 4.51-10.95 4.51-4.95 4.52 2.24 4.51 6.39 4.51.17 4.52-6.53 4.51 1.59 4.51 7.43 4.51-2.01 4.52-5.67 4.51 2.98 4.51-2.06 4.52-7.55 4.51 2.22 4.51-2.22 4.52-5.19 4.51-28.11 4.51 4.99 4.51-4.99 4.52 27.07 4.51-21.34 4.51 10.5 4.52 21.7 4.51-10.19 4.51-19 4.51 10.19 4.52 10.88 4.51-30.54 4.51-32.55 4.52-21.42 4.51 5.28 4.51 50.48 4.52 32.64 4.51 7.03 4.51-8.98 4.51-2.11 4.52 2.04 4.51-1.27 4.51 1.62 4.52 2.23 4.51-.54 4.51.21 4.51.66 4.52-5.03 4.51 5.85 4.51-3.99 4.52 6.5 4.51-7.6 4.51-3.24 4.51 2.29 4.52 1.96 4.51-.06 4.51 2.2 4.52 3.02 4.51 2.2 4.51-6.02 4.52.18 4.51 1.2 4.51-5.18 4.51 3.06 4.52 2.32 4.51 1.58 4.51.64 4.52-11.38 4.51-4.5 4.51-1.36 4.51-2.32 4.52 2.62 4.51.66 4.51 1.3 4.52 1.03 4.51-2.32 4.51-1.93 4.52-6.97 4.51-1.24"/><path stroke-width="1.75" stroke-linecap="round" stroke-linejoin="round" fill="none" stroke="#333" d="M61.54 374.68h496.42V36.94H61.54z"/></g><path d="M38.48 354.49v2.41h.68l.23-1.31h4.43l-4.69 9.1h1.19v-.32l4.78-9.3v-.58h-6.62zM49.47 354.32l-.6.06-.55.16-.5.26-.44.36-.39.47-.33.55-.26.66-.19.74-.12.82-.04.92.04.91.12.83.19.74.26.66.33.56.39.46.44.37.5.26.55.16.6.06.59-.06.55-.16.5-.26.45-.37.39-.46.32-.56.26-.66.19-.74.12-.83.04-.91-.04-.92-.12-.82-.19-.74-.26-.66-.32-.55-.39-.47-.45-.36-.5-.26-.55-.16-.59-.06zm0 .68l.38.04.34.13.3.22.27.31.23.39.18.48.15.56.11.64.06.73.02.82-.02.81-.06.73-.11.65-.15.56-.18.48-.23.39-.27.3-.3.22-.34.13-.38.05-.38-.05-.35-.13-.3-.21-.27-.31-.23-.39-.19-.47-.15-.56-.1-.64-.07-.73-.02-.82.02-.82.07-.73.1-.65.15-.56.19-.48.23-.39.27-.31.3-.22.35-.13.38-.04zM42.08 317.9l-.45-.17-.39-.17-.36-.19-.3-.19-.25-.21-.21-.22-.17-.23-.11-.24-.07-.26-.02-.28.02-.27.06-.27.11-.24.13-.22.18-.2.2-.17.23-.14.25-.1.27-.06.29-.02.3.02.28.06.26.1.23.14.2.18.16.21.13.25.1.27.06.31.02.33-.01.23-.04.22-.05.22-.09.22-.1.2-.13.2-.15.19-.17.18-.2.17-.21.15zm.61.26l.3-.17.28-.2.24-.21.22-.23.18-.24.16-.25.11-.26.09-.27.05-.27.02-.29-.03-.4-.09-.38-.16-.35-.21-.32-.26-.28-.32-.24-.37-.19-.41-.14-.46-.09-.5-.03-.51.04-.48.09-.44.15-.39.2-.34.26-.28.29-.23.34-.17.38-.1.42-.04.44.02.3.04.29.08.27.11.25.14.23.16.22.2.19.23.18.25.15.28.14-.37.16-.33.18-.3.2-.26.23-.21.24-.18.26-.14.28-.1.29-.06.32-.02.33.04.47.11.44.18.41.25.36.31.32.37.27.44.22.49.16.54.1.6.03.58-.04.53-.11.49-.17.43-.23.38-.28.32-.33.25-.37.19-.4.12-.43.03-.45-.02-.33-.06-.31-.1-.3-.15-.28-.19-.26-.23-.24-.26-.22-.31-.2-.35-.18-.38-.16zm-2.08.32l.55.21.49.2.44.19.37.2.32.2.26.21.21.23.14.26.09.28.03.32-.03.33-.07.31-.11.28-.16.25-.19.22-.23.18-.27.15-.3.11-.33.07-.36.02-.4-.02-.36-.08-.34-.12-.29-.16-.26-.2-.21-.24-.17-.28-.13-.31-.07-.34-.03-.37.01-.28.04-.26.07-.24.1-.22.12-.22.15-.19.18-.19.22-.17.24-.17.28-.16zM49.47 313.38l-.6.06-.55.16-.5.26-.44.37-.39.46-.33.56-.26.65-.19.74-.12.83-.04.91.04.91.12.83.19.75.26.65.33.56.39.46.44.37.5.27.55.16.6.05.59-.05.55-.16.5-.27.45-.37.39-.46.32-.56.26-.65.19-.75.12-.83.04-.91-.04-.91-.12-.83-.19-.74-.26-.65-.32-.56-.39-.46-.45-.37-.5-.26-.55-.16-.59-.06zm0 .68l.38.04.34.14.3.21.27.31.23.39.18.48.15.56.11.65.06.73.02.81-.02.81-.06.73-.11.65-.15.56-.18.48-.23.39-.27.31-.3.21-.34.14-.38.04-.38-.04-.35-.13-.3-.22-.27-.3-.23-.39-.19-.48-.15-.56-.1-.64-.07-.73-.02-.82.02-.81.07-.74.1-.65.15-.56.19-.48.23-.39.27-.31.3-.21.35-.14.38-.04zM43.38 277.69l-.2.09-.19.09-.19.07-.18.07-.18.05-.18.05-.18.03-.18.03-.17.02h-.17l-.39-.03-.35-.07-.32-.13-.28-.18-.24-.23-.19-.27-.16-.33-.11-.36-.07-.42-.02-.46.03-.45.07-.42.12-.38.16-.33.19-.29.24-.24.26-.19.3-.14.32-.09.34-.03.38.03.34.1.31.16.27.21.24.29.19.34.16.4.11.46.07.52.02.57v.14l-.01.14-.01.14-.01.15-.01.14-.02.15-.03.15-.02.15-.03.15-.03.15zm-4.11 5.34l1.02-.45.93-.51.82-.59.73-.64.62-.69.51-.74.4-.77.29-.81.18-.82.06-.85-.04-.67-.1-.6-.18-.55-.24-.48-.3-.41-.37-.35-.42-.27-.48-.2-.53-.12-.58-.04-.6.05-.56.12-.51.19-.46.27-.4.33-.34.39-.28.44-.2.5-.12.53-.04.58.03.54.11.5.17.46.22.4.29.35.34.3.38.23.43.18.47.1.51.04.19-.01.2-.01.2-.03.21-.04.21-.05.22-.06.23-.08.23-.08.23-.1.24-.1-.21.48-.26.47-.31.44-.35.42-.4.4-.45.38-.49.37-.55.35-.59.33-.64.32.33.66zM49.47 272.45l-.6.05-.55.16-.5.26-.44.37-.39.46-.33.56-.26.65-.19.74-.12.83-.04.91.04.92.12.83.19.74.26.65.33.56.39.47.44.36.5.27.55.16.6.05.59-.05.55-.16.5-.27.45-.36.39-.47.32-.56.26-.65.19-.74.12-.83.04-.92-.04-.91-.12-.83-.19-.74-.26-.65-.32-.56-.39-.46-.45-.37-.5-.26-.55-.16-.59-.05zm0 .67l.38.05.34.13.3.22.27.3.23.39.18.48.15.56.11.65.06.73.02.81-.02.82-.06.73-.11.64-.15.56-.18.48-.23.39-.27.31-.3.22-.34.13-.38.04-.38-.04-.35-.13-.3-.22-.27-.3-.23-.39-.19-.48-.15-.56-.1-.64-.07-.73-.02-.81.02-.82.07-.73.1-.65.15-.57.19-.48.23-.39.27-.3.3-.22.35-.13.38-.05zM33.93 231.51l-3.12.93v.61l2.26-.41v7.75l-.18.25-1.65.08v.62h4.82v-.6l-1.55-.07-.18-.22v-8.94h-.4zM41.46 231.51l-.59.05-.55.16-.5.27-.45.36-.39.46-.32.56-.26.65-.19.74-.12.83-.04.91.04.92.12.83.19.74.26.65.32.56.39.47.45.36.5.27.55.16.59.06.6-.06.55-.16.5-.27.44-.36.39-.47.33-.56.26-.65.19-.74.11-.83.04-.92-.04-.91-.11-.83-.19-.74-.26-.65-.33-.56-.39-.46-.44-.36-.5-.27-.55-.16-.6-.05zm0 .67l.38.05.34.13.31.22.26.3.23.39.19.48.14.56.11.65.06.73.03.81-.03.82-.06.73-.11.64-.14.57-.19.47-.23.39-.26.31-.31.22-.34.13-.38.04-.38-.04-.34-.13-.31-.22-.27-.3-.23-.39-.18-.47-.15-.56-.11-.65-.07-.73-.02-.81.02-.82.07-.73.11-.65.15-.57.18-.47.23-.4.27-.3.31-.22.34-.13.38-.05zM49.47 231.51l-.6.05-.55.16-.5.27-.44.36-.39.46-.33.56-.26.65-.19.74-.12.83-.04.91.04.92.12.83.19.74.26.65.33.56.39.47.44.36.5.27.55.16.6.06.59-.06.55-.16.5-.27.45-.36.39-.47.32-.56.26-.65.19-.74.12-.83.04-.92-.04-.91-.12-.83-.19-.74-.26-.65-.32-.56-.39-.46-.45-.36-.5-.27-.55-.16-.59-.05zm0 .67l.38.05.34.13.3.22.27.3.23.39.18.48.15.56.11.65.06.73.02.81-.02.82-.06.73-.11.64-.15.57-.18.47-.23.39-.27.31-.3.22-.34.13-.38.04-.38-.04-.35-.13-.3-.22-.27-.3-.23-.39-.19-.47-.15-.56-.1-.65-.07-.73-.02-.81.02-.82.07-.73.1-.65.15-.57.19-.47.23-.4.27-.3.3-.22.35-.13.38-.05zM33.93 190.57l-3.12.94v.6l2.26-.4v7.74l-.18.25-1.65.09v.61h4.82v-.6l-1.55-.07-.18-.22v-8.94h-.4zM41.94 190.57l-3.13.94v.6l2.26-.4v7.74l-.17.25-1.66.09v.61h4.83v-.6l-1.56-.07-.17-.22v-8.94h-.4zM49.47 190.57l-.6.05-.55.16-.5.27-.44.36-.39.46-.33.56-.26.65-.19.74-.12.83-.04.92.04.91.12.83.19.74.26.65.33.56.39.47.44.37.5.26.55.16.6.06.59-.06.55-.16.5-.26.45-.37.39-.47.32-.56.26-.65.19-.74.12-.83.04-.91-.04-.92-.12-.83-.19-.74-.26-.65-.32-.56-.39-.46-.45-.36-.5-.27-.55-.16-.59-.05zm0 .68l.38.04.34.13.3.22.27.31.23.39.18.47.15.57.11.64.06.73.02.82-.02.81-.06.73-.11.65-.15.56-.18.48-.23.39-.27.3-.3.22-.34.13-.38.05-.38-.05-.35-.13-.3-.22-.27-.3-.23-.39-.19-.47-.15-.56-.1-.65-.07-.73-.02-.81.02-.82.07-.73.1-.65.15-.56.19-.48.23-.39.27-.31.3-.22.35-.13.38-.04zM33.93 149.63l-3.12.94v.6l2.26-.4v7.75l-.18.24-1.65.09v.62h4.82v-.61l-1.55-.07-.18-.22v-8.94h-.4zM39.49 158.33l.91-.74.82-.68.74-.65.64-.61.54-.58.46-.56.35-.55.26-.53.15-.54.05-.54-.03-.47-.1-.44-.16-.39-.23-.36-.28-.31-.34-.26-.39-.21-.44-.15-.49-.1-.53-.03-.52.03-.49.09-.44.13-.4.18-.35.21-.29.24-.24.27-.18.28-.11.3-.03.3v.14l.03.13.04.12.06.11.08.09.09.08.11.06.11.04.14.03.14.01h.07l.07-.01.07-.01.06-.02.07-.02.06-.02.06-.03.07-.03.06-.04.06-.04v-1.54l.13-.07.13-.06.13-.05.12-.05.13-.03.13-.03.13-.03.12-.01.13-.01h.13l.35.02.31.07.28.12.25.16.22.2.18.24.14.29.1.32.07.36.02.39-.06.56-.16.54-.26.55-.36.55-.46.56-.55.58-.65.61-.73.64-.82.69-.91.74v.91h6.67v-2.37h-.65l-.26 1.23h-4.33zM49.47 149.63l-.6.06-.55.16-.5.26-.44.36-.39.47-.33.55-.26.66-.19.74-.12.82-.04.92.04.91.12.83.19.74.26.66.33.56.39.46.44.37.5.26.55.16.6.06.59-.06.55-.16.5-.26.45-.37.39-.46.32-.56.26-.66.19-.74.12-.83.04-.91-.04-.92-.12-.82-.19-.74-.26-.66-.32-.55-.39-.47-.45-.36-.5-.26-.55-.16-.59-.06zm0 .68l.38.04.34.13.3.22.27.31.23.39.18.48.15.56.11.64.06.73.02.82-.02.81-.06.73-.11.65-.15.56-.18.48-.23.39-.27.3-.3.22-.34.13-.38.05-.38-.05-.35-.13-.3-.21-.27-.31-.23-.39-.19-.47-.15-.56-.1-.65-.07-.72-.02-.82.02-.82.07-.73.1-.65.15-.56.19-.48.23-.39.27-.31.3-.22.35-.13.38-.04zM33.93 108.69l-3.12.94v.6l2.26-.4v7.75l-.18.24-1.65.09v.62h4.82v-.61l-1.55-.07-.18-.21v-8.95h-.4zM42.02 113.45l.41-.14.36-.16.32-.18.28-.2.23-.23.2-.24.15-.27.11-.29.07-.3.02-.33-.03-.42-.1-.39-.16-.35-.21-.32-.27-.27-.32-.23-.37-.19-.42-.13-.46-.09-.5-.03-.52.03-.49.08-.44.13-.4.16-.34.2-.3.23-.23.26-.17.26-.11.28-.04.29.01.13.03.13.04.11.06.1.08.09.09.07.1.07.11.04.13.03.13.01.07-.01h.06l.07-.01.06-.01.06-.02.06-.02.05-.02.06-.03.05-.03.05-.04v-1.35l.13-.09.13-.07.13-.06.13-.06.13-.04.14-.04.14-.03.14-.02.15-.01h.15l.32.02.3.06.26.11.24.14.21.18.17.21.14.24.1.28.07.3.02.33-.03.33-.06.31-.12.28-.16.24-.2.21-.25.17-.29.14-.33.1-.38.06-.41.02h-.06l-.03-.01h-.13l-.03-.01h-.06v.85l.09-.01.08-.01.08-.01.07-.01h.08l.08-.01H41.02l.07-.01.39.02.36.06.32.1.27.13.24.17.2.2.15.23.11.27.07.3.02.32-.03.38-.08.35-.13.33-.18.3-.22.26-.26.23-.3.18-.32.14-.36.08-.38.03h-.13l-.13-.01-.12-.02-.13-.03-.12-.03-.12-.03-.12-.05-.12-.05-.12-.06-.12-.07-.44-1.22-.05-.02-.05-.01-.04-.01-.05-.01-.04-.01h-.04l-.04-.01h-.13l-.13.01-.13.02-.11.05-.11.06-.09.07-.08.08-.06.1-.05.11-.03.11-.01.12.03.23.1.22.16.22.22.21.27.19.33.17.37.14.42.11.45.07.5.03.64-.04.59-.11.53-.18.48-.24.41-.29.35-.34.27-.38.21-.42.12-.45.04-.48-.02-.38-.09-.35-.13-.32-.18-.3-.24-.25-.28-.23-.33-.18-.37-.15-.42-.1-.46-.05zM49.47 108.69l-.6.06-.55.16-.5.26-.44.37-.39.46-.33.56-.26.65-.19.74-.12.83-.04.91.04.91.12.83.19.75.26.65.33.56.39.46.44.37.5.27.55.16.6.05.59-.05.55-.16.5-.27.45-.37.39-.46.32-.56.26-.65.19-.75.12-.83.04-.91-.04-.91-.12-.83-.19-.74-.26-.65-.32-.56-.39-.46-.45-.37-.5-.26-.55-.16-.59-.06zm0 .68l.38.04.34.14.3.21.27.31.23.39.18.48.15.56.11.65.06.73.02.81-.02.81-.06.73-.11.65-.15.56-.18.48-.23.39-.27.31-.3.21-.34.14-.38.04-.38-.04-.35-.13-.3-.22-.27-.3-.23-.39-.19-.48-.15-.56-.1-.64-.07-.73-.02-.82.02-.81.07-.74.1-.65.15-.56.19-.48.23-.39.27-.31.3-.21.35-.14.38-.04zM33.93 67.76l-3.12.93v.61l2.26-.41v7.75l-.18.24-1.65.09v.62h4.82v-.6l-1.55-.08-.18-.21v-8.94h-.4zM42.76 67.84l-4.91 6.02v.94h4.63v3.32h1.11V74.8h1.63v-.94h-1.63v-6.02h-.83zm-.28 1.57v4.45h-3.55l3.55-4.45zM49.47 67.76l-.6.05-.55.16-.5.26-.44.37-.39.46-.33.56-.26.65-.19.74-.12.83-.04.91.04.92.12.83.19.74.26.65.33.56.39.47.44.36.5.27.55.16.6.05.59-.05.55-.16.5-.27.45-.36.39-.47.32-.56.26-.65.19-.74.12-.83.04-.92-.04-.91-.12-.83-.19-.74-.26-.65-.32-.56-.39-.46-.45-.37-.5-.26-.55-.16-.59-.05zm0 .67l.38.05.34.13.3.22.27.3.23.39.18.48.15.56.11.65.06.73.02.81-.02.82-.06.73-.11.64-.15.56-.18.48-.23.39-.27.31-.3.22-.34.13-.38.04-.38-.04-.35-.13-.3-.22-.27-.3-.23-.39-.19-.48-.15-.56-.1-.64-.07-.73-.02-.81.02-.82.07-.73.1-.65.15-.57.19-.48.23-.39.27-.3.3-.22.35-.13.38-.05z" fill="#4d4d4d" fill-rule="evenodd"/><path stroke-width="1.75" stroke-linejoin="round" fill="none" stroke="#333" d="M57.06 359.33h4.48M57.06 318.39h4.48M57.06 277.45h4.48M57.06 236.51h4.48M57.06 195.57h4.48M57.06 154.64h4.48M57.06 113.7h4.48M57.06 72.76h4.48M79.59 379.16v-4.48M169.85 379.16v-4.48M260.11 379.16v-4.48M350.37 379.16v-4.48M440.63 379.16v-4.48M530.89 379.16v-4.48"/><path d="M79.59 382.57l-.59.06-.55.16-.5.26-.45.37-.39.46-.32.56-.26.65-.19.74-.12.83-.04.91.04.91.12.83.19.75.26.65.32.56.39.46.45.37.5.27.55.16.59.05.6-.05.55-.16.5-.27.44-.37.39-.46.33-.56.26-.65.19-.75.12-.83.04-.91-.04-.91-.12-.83-.19-.74-.26-.65-.33-.56-.39-.46-.44-.37-.5-.26-.55-.16-.6-.06zm0 .68l.38.04.34.14.31.22.26.3.23.39.19.48.15.56.1.65.07.73.02.81-.02.81-.07.73-.1.65-.15.56-.19.48-.23.39-.26.31-.31.22-.34.13-.38.04-.38-.04-.34-.13-.31-.22-.26-.3-.23-.39-.19-.48-.15-.56-.11-.64-.07-.73-.02-.81.02-.82.07-.74.11-.64.15-.57.19-.48.23-.39.26-.3.31-.22.34-.14.38-.04zM163.87 391.27l.92-.73.82-.69.73-.64.64-.61.55-.59.45-.56.36-.54.25-.54.16-.53.05-.54-.03-.48-.1-.43-.17-.4-.22-.36-.28-.31-.34-.26-.39-.21-.44-.15-.49-.09-.54-.04-.51.03-.49.09-.44.13-.4.18-.35.21-.3.24-.24.27-.17.29-.11.29-.04.3.01.15.03.13.04.11.06.11.08.09.09.08.1.06.12.04.13.03.15.01h.07l.06-.01.07-.01.07-.01.06-.02.07-.03.06-.03.06-.03.07-.03.06-.05v-1.54l.13-.07.12-.06.13-.05.13-.04.13-.04.12-.03.13-.02.13-.02.13-.01h.13l.34.02.32.07.28.12.25.16.21.2.18.25.15.28.1.32.06.36.02.39-.05.56-.16.55-.26.54-.36.55-.46.56-.55.58-.65.61-.73.64-.83.69-.9.74v.91h6.67v-2.36h-.65l-.26 1.22h-4.34zM173.85 382.57l-.59.06-.55.16-.5.26-.45.37-.38.46-.33.56-.26.65-.19.74-.12.83-.04.91.04.91.12.83.19.75.26.65.33.56.38.46.45.37.5.27.55.16.59.05.6-.05.55-.16.5-.27.44-.37.39-.46.33-.56.26-.65.19-.75.12-.83.04-.91-.04-.91-.12-.83-.19-.74-.26-.65-.33-.56-.39-.46-.44-.37-.5-.26-.55-.16-.6-.06zm0 .68l.38.04.35.14.3.22.27.3.22.39.19.48.15.56.1.65.07.73.02.81-.02.81-.07.73-.1.65-.15.56-.19.48-.22.39-.27.31-.3.22-.35.13-.38.04-.38-.04-.34-.13-.31-.22-.26-.3-.23-.39-.19-.48-.15-.56-.11-.64-.06-.73-.03-.81.03-.82.06-.74.11-.64.15-.57.19-.48.23-.39.26-.3.31-.22.34-.14.38-.04zM257.4 382.66l-4.91 6.02v.94h4.64v3.32h1.11v-3.32h1.62v-.94h-1.62v-6.02h-.84zm-.27 1.57v4.45h-3.56l3.56-4.45zM264.11 382.57l-.59.06-.55.16-.5.26-.45.37-.39.46-.32.56-.26.65-.19.74-.12.83-.04.91.04.91.12.83.19.75.26.65.32.56.39.46.45.37.5.27.55.16.59.05.6-.05.55-.16.5-.27.44-.37.39-.46.33-.56.26-.65.19-.75.12-.83.04-.91-.04-.91-.12-.83-.19-.74-.26-.65-.33-.56-.39-.46-.44-.37-.5-.26-.55-.16-.6-.06zm0 .68l.38.04.34.14.31.22.26.3.23.39.19.48.15.56.1.65.07.73.02.81-.02.81-.07.73-.1.65-.15.56-.19.48-.23.39-.26.31-.31.22-.34.13-.38.04-.38-.04-.34-.13-.31-.22-.26-.3-.23-.39-.19-.48-.15-.56-.11-.64-.06-.73-.03-.81.03-.82.06-.74.11-.64.15-.57.19-.48.23-.39.26-.3.31-.22.34-.14.38-.04zM348.74 382.13l-1.01.13-.93.26-.84.37-.74.49-.63.6-.53.7-.42.8-.31.89-.19.98-.06 1.07.04.75.12.68.2.61.26.55.33.46.39.39.43.31.49.23.53.14.57.04.57-.04.55-.13.5-.2.46-.28.4-.34.34-.4.28-.45.21-.5.13-.53.04-.57-.04-.53-.11-.5-.17-.45-.24-.41-.29-.36-.35-.31-.39-.25-.43-.18-.47-.11-.5-.04-.26.01-.25.03-.26.04-.25.06-.25.08-.24.1-.24.12-.24.13-.23.15-.23.16.16-.73.23-.66.28-.59.34-.51.4-.43.46-.36.5-.28.57-.2.61-.12.67-.04h.04v-.83zm-4.29 5.38l.18-.12.19-.11.19-.1.2-.08.21-.07.21-.06.22-.05.22-.03.23-.02h.24l.35.02.33.08.31.13.27.18.23.23.2.27.16.32.12.35.08.39.02.43-.02.44-.08.42-.12.38-.16.34-.2.3-.24.26-.27.2-.29.15-.33.1-.35.03-.39-.04-.35-.1-.32-.18-.27-.25-.24-.32-.2-.39-.15-.45-.12-.53-.07-.58-.02-.66V387.96l.01-.09v-.09l.01-.09v-.09l.01-.09zM354.37 382.57l-.59.06-.55.16-.5.26-.45.37-.39.46-.32.56-.26.65-.19.74-.12.83-.04.91.04.91.12.83.19.75.26.65.32.56.39.46.45.37.5.27.55.16.59.05.6-.05.55-.16.5-.27.44-.37.39-.46.33-.56.26-.65.19-.75.11-.83.04-.91-.04-.91-.11-.83-.19-.74-.26-.65-.33-.56-.39-.46-.44-.37-.5-.26-.55-.16-.6-.06zm0 .68l.38.04.34.14.31.22.26.3.23.39.19.48.14.56.11.65.06.73.03.81-.03.81-.06.73-.11.65-.14.56-.19.48-.23.39-.26.31-.31.22-.34.13-.38.04-.38-.04-.34-.13-.31-.22-.27-.3-.23-.39-.18-.48-.15-.56-.11-.64-.07-.73-.02-.81.02-.82.07-.74.11-.64.15-.57.18-.48.23-.39.27-.3.31-.22.34-.14.38-.04zM437.24 387.1l-.44-.18-.4-.17-.35-.19-.31-.19-.25-.21-.21-.22-.16-.22-.12-.25-.07-.26-.02-.27.02-.28.07-.27.1-.24.14-.22.17-.2.2-.17.23-.14.25-.1.27-.06.29-.02.31.02.28.06.25.1.23.14.2.18.16.21.14.25.09.27.06.31.02.33-.01.23-.03.22-.06.22-.09.22-.1.2-.13.2-.15.19-.17.18-.19.17-.22.16zm.61.25l.3-.17.28-.2.25-.21.21-.23.18-.23.16-.26.12-.26.08-.27.06-.27.01-.29-.03-.4-.09-.38-.16-.35-.21-.32-.26-.28-.32-.24-.37-.19-.41-.14-.46-.08-.49-.03-.52.03-.48.09-.44.15-.39.2-.33.26-.29.29-.23.35-.17.37-.1.42-.04.44.02.3.05.29.07.27.11.25.14.23.17.22.19.19.23.18.25.15.29.14-.38.16-.33.18-.3.2-.25.23-.22.24-.18.26-.14.28-.1.29-.06.32-.02.33.04.47.11.44.18.41.25.36.31.32.37.27.44.22.49.16.54.1.6.03.58-.04.53-.11.49-.17.44-.23.37-.28.32-.33.26-.37.18-.4.12-.43.04-.45-.02-.33-.07-.31-.1-.3-.15-.28-.19-.26-.22-.24-.27-.22-.31-.2-.35-.18-.38-.16zm-2.08.32l.55.21.5.2.43.19.38.2.31.2.27.21.2.23.14.26.09.28.03.33-.03.33-.07.3-.11.28-.15.25-.2.22-.23.18-.27.15-.3.11-.33.07-.36.02-.4-.02-.36-.08-.33-.12-.3-.16-.26-.2-.21-.24-.17-.28-.12-.31-.08-.34-.03-.37.02-.28.04-.26.06-.24.1-.22.12-.21.15-.2.19-.19.21-.17.25-.17.27-.16zM444.63 382.57l-.6.06-.55.16-.5.26-.44.37-.39.46-.32.56-.27.65-.19.74-.11.83-.04.91.04.91.11.83.19.75.27.65.32.56.39.46.44.37.5.27.55.16.6.05.6-.05.55-.16.5-.27.44-.37.39-.46.32-.56.26-.65.2-.75.11-.83.04-.91-.04-.91-.11-.83-.2-.74-.26-.65-.32-.56-.39-.46-.44-.37-.5-.26-.55-.16-.6-.06zm0 .68l.38.04.34.14.31.22.26.3.23.39.19.48.14.56.11.65.06.73.02.81-.02.81-.06.73-.11.65-.14.56-.19.48-.23.39-.26.31-.31.22-.34.13-.38.04-.38-.04-.34-.13-.31-.22-.27-.3-.23-.39-.19-.48-.15-.56-.1-.64-.07-.73-.02-.81.02-.82.07-.74.1-.64.15-.57.19-.48.23-.39.27-.3.31-.22.34-.14.38-.04zM523.35 382.57l-3.12.94v.6l2.26-.4v7.75l-.17.24-1.66.09v.62h4.83v-.61l-1.56-.07-.17-.21v-8.95h-.41zM530.89 382.57l-.6.06-.55.16-.5.26-.45.37-.38.46-.33.56-.26.65-.19.74-.12.83-.04.91.04.91.12.83.19.75.26.65.33.56.38.46.45.37.5.27.55.16.6.05.59-.05.55-.16.5-.27.45-.37.38-.46.33-.56.26-.65.19-.75.12-.83.04-.91-.04-.91-.12-.83-.19-.74-.26-.65-.33-.56-.38-.46-.45-.37-.5-.26-.55-.16-.59-.06zm0 .68l.37.04.35.14.3.22.27.3.22.39.19.48.15.56.1.65.07.73.02.81-.02.81-.07.73-.1.65-.15.56-.19.48-.22.39-.27.31-.3.22-.35.13-.37.04-.38-.04-.35-.13-.3-.22-.27-.3-.23-.39-.19-.48-.15-.56-.11-.64-.06-.73-.02-.81.02-.82.06-.74.11-.64.15-.57.19-.48.23-.39.27-.3.3-.22.35-.14.38-.04zM538.89 382.57l-.59.06-.55.16-.5.26-.45.37-.39.46-.32.56-.26.65-.19.74-.12.83-.04.91.04.91.12.83.19.75.26.65.32.56.39.46.45.37.5.27.55.16.59.05.6-.05.55-.16.5-.27.44-.37.39-.46.33-.56.26-.65.19-.75.11-.83.04-.91-.04-.91-.11-.83-.19-.74-.26-.65-.33-.56-.39-.46-.44-.37-.5-.26-.55-.16-.6-.06zm0 .68l.38.04.34.14.31.22.26.3.23.39.19.48.15.56.1.65.06.73.03.81-.03.81-.06.73-.1.65-.15.56-.19.48-.23.39-.26.31-.31.22-.34.13-.38.04-.38-.04-.34-.13-.31-.22-.27-.3-.22-.39-.19-.48-.15-.56-.11-.64-.07-.73-.02-.81.02-.82.07-.74.11-.64.15-.57.19-.48.22-.39.27-.3.31-.22.34-.14.38-.04z" fill="#4d4d4d" fill-rule="evenodd"/><path d="M299.54 400.03h-4.45v.72l1.03.11.3.25v9.92l-.3.25-1.03.09v.74h4.45l.52-.01.51-.02.48-.04.46-.06.44-.08.42-.12.41-.14.39-.18.39-.21.37-.26.42-.35.38-.38.34-.42.29-.45.25-.48.2-.51.16-.54.12-.57.07-.6.02-.63-.07-1.09-.21-.99-.35-.89-.48-.78-.61-.68-.74-.56-.87-.45-.98-.32-1.11-.2-1.22-.07zm-1.5.83h1.42l.94.05.84.15.73.26.64.36.54.46.44.57.34.68.24.78.14.89.05 1-.05 1-.14.89-.24.78-.34.68-.44.57-.54.47-.64.36-.73.26-.84.16-.94.05h-1.42v-10.42zM312.98 411.07l.24 1.04h2.53v-.65l-.95-.09-.32-.29v-5.22l-.03-.51-.07-.45-.13-.4-.17-.33-.24-.28-.28-.23-.35-.17-.41-.12-.47-.07-.54-.03-.65.03-.59.08-.54.12-.48.17-.4.21-.34.24-.27.26-.2.29-.12.31-.04.33v.12l.02.1.02.09.04.07.04.06.06.04.07.03.09.03.1.01H309.96v-1.51l.14-.05.14-.05.14-.05.14-.04.14-.03.13-.02.13-.02.14-.02h.13l.14-.01.36.02.31.06.26.09.21.13.17.18.13.22.1.26.06.3.04.36.01.4v.58l-1.02.25-.91.24-.79.24-.68.25-.58.28-.46.3-.36.34-.25.4-.15.45-.05.52.02.39.08.37.13.33.17.31.22.26.26.22.3.18.33.14.38.08.41.03.26-.02.27-.03.27-.06.29-.08.29-.11.29-.13.31-.15.31-.18.33-.19.33-.22zm0-.62l-.26.15-.26.14-.24.12-.24.1-.23.09-.22.08-.21.06-.2.04-.19.03h-.18l-.26-.01-.23-.06-.22-.08-.19-.11-.16-.14-.13-.17-.11-.19-.08-.22-.04-.24-.02-.25.03-.37.11-.33.17-.29.25-.26.32-.23.4-.22.48-.2.56-.2.63-.2.72-.2v3.16zM316.08 403.45v.67l1.1.11 3.02 7.81-.14.37-.14.35-.14.33-.15.3-.14.28-.15.26-.15.24-.15.21-.15.19-.15.17-1.73-.69-.08.09-.08.09-.07.09-.06.1-.05.09-.05.1-.03.1-.02.1-.02.11v.11l.01.17.04.16.07.15.1.13.11.11.14.1.17.08.18.06.2.03.22.01.34-.03.33-.09.31-.15.29-.21.29-.27.28-.33.26-.39.27-.45.25-.52.26-.58 3.6-8.75 1.04-.14v-.67h-3.2v.67l.97.07.14.29-2.25 5.6-2.16-5.6.22-.29.95-.07v-.67h-3.9zM21.04 224.63v-4.54h-.73l-.09 1.28-.26.3h-3.54l.01-.16.02-.16.01-.15.01-.14.01-.14.01-.13.01-.13v-.12l.01-.11v-.11l-.05-.83-.13-.76-.22-.69-.3-.61-.37-.52-.44-.44-.51-.35-.56-.25-.62-.16-.67-.05-.77.05-.66.14-.57.24-.48.34-.38.44-.31.54-.23.65-.15.76-.09.87-.03.98v4.1h.72l.1-1.17.26-.31h9.91l.26.31.09 1.03h.73zm-5.49-2.96H9.83l-.01-.09-.01-.1v-.1l-.01-.09v-.28l-.01-.09v-.18l.03-.66.08-.58.14-.51.19-.44.25-.38.3-.3.37-.23.42-.17.49-.1.54-.03.57.03.51.1.45.16.4.22.34.29.27.35.22.41.16.47.09.53.03.59v.27l-.01.11-.01.12-.01.12-.01.13-.02.14-.01.14-.02.15zM21.04 214.64v-4.34h-.64l-.09 1.26-.29.3h-5.15l-.25-.21-.22-.22-.19-.2-.18-.2-.14-.2-.12-.19-.09-.19-.07-.19-.04-.18-.01-.18v-.11l.01-.11.03-.1.03-.1.03-.09.05-.09.06-.09.06-.08.08-.07.08-.08v-.57h-1.55l-.05.11-.04.11-.03.11-.03.11-.03.11-.02.1-.01.11-.01.1-.01.11v.38l.01.05v.04l.01.04.01.05.16.19.16.2.17.19.17.2.17.19.17.19.18.19.19.19.19.2.19.18H12.3v.69l.64 2.09h.56v-1.28h6.52l.29.32.09.96h.64zM8.3 205.53l.01.17.04.16.06.15.09.14.1.12.12.1.14.09.15.06.16.04.17.01.17-.01.16-.04.15-.06.13-.09.12-.1.11-.12.08-.14.06-.15.04-.16.01-.17-.01-.17-.04-.16-.06-.15-.08-.14-.11-.12-.12-.1-.13-.09-.15-.06-.16-.04-.17-.02-.16.02-.17.04-.15.06-.13.09-.12.1-.11.12-.08.14-.07.15-.04.16-.01.17zm4 .07l.64 2.07h.56v-1.26h6.52l.29.31.09.95h.64v-4.05h-.64l-.09.97-.29.33H12.3v.68zM20.29 195.61h-.94l.15.23.12.22.12.23.1.22.08.23.07.23.05.23.04.23.02.23.01.24-.04.54-.12.49-.19.45-.26.4-.33.35-.39.29-.46.23-.52.17-.58.1-.64.04-.65-.04-.6-.09-.54-.15-.48-.21-.41-.26-.34-.3-.27-.35-.2-.38-.12-.42-.04-.45v-.09l.01-.09.01-.09.02-.09.02-.08.03-.09.03-.09.04-.08.04-.08.05-.08h1.47l.06-.08.04-.09.04-.08.04-.08.03-.08.02-.08.02-.08.01-.08.01-.08v-.08l-.01-.18-.03-.16-.05-.15-.08-.13-.09-.12-.1-.09-.13-.08-.14-.06-.15-.03-.17-.01-.3.03-.28.08-.26.15-.23.19-.2.25-.17.3-.14.35-.1.4-.06.45-.02.5.05.73.16.68.25.62.35.56.43.49.51.41.59.33.66.24.72.15.78.05.77-.04.71-.14.66-.23.58-.31.51-.38.43-.46.34-.53.25-.59.16-.66.05-.71-.01-.29-.03-.29-.04-.29-.06-.29-.08-.3-.1-.29-.12-.29-.13-.3-.15-.29-.16-.3zM19.14 187.17l.19.3.18.3.15.29.14.29.11.28.1.28.07.27.06.27.03.27.01.27-.04.53-.12.49-.2.44-.27.39-.34.35-.41.29-.48.23-.54.17-.61.1-.66.04h-.2v-5.83l-.06-.01h-.06l-.05-.01H15.75l-.63.04-.59.11-.52.18-.46.24-.4.31-.33.37-.27.42-.19.48-.11.52-.04.57.05.7.16.66.26.6.35.54.44.48.52.41.6.32.67.25.73.15.79.05.77-.05.7-.14.65-.23.58-.31.5-.39.43-.46.34-.52.25-.59.15-.64.06-.69-.01-.34-.04-.34-.05-.34-.08-.35-.09-.34-.12-.34-.14-.34-.16-.33-.19-.33-.2-.33h-.99zm-3.59 1.6v4.16l-.44-.06-.41-.11-.37-.15-.33-.2-.29-.23-.24-.27-.19-.29-.15-.31-.08-.33-.03-.34.02-.34.07-.32.12-.27.16-.25.2-.21.25-.17.3-.13.33-.1.38-.06.42-.02h.28zM62.84 22.83l.3.13.33.11.35.1.37.09.38.08.4.06.42.05.43.04.44.02.46.01 1-.05.91-.15.83-.25.73-.34.63-.42.53-.5.41-.57.31-.63.19-.69.06-.74-.01-.28-.03-.27-.05-.26-.07-.26-.08-.24-.11-.23-.12-.23-.14-.21-.16-.2-.18-.2-.3-.27-.32-.24-.32-.21-.32-.19-.33-.17-.34-.15-.33-.14-.34-.13-.33-.13-.33-.14-.57-.24-.51-.24-.45-.23-.4-.23-.33-.24-.27-.27-.22-.29-.15-.32-.1-.36-.03-.41.04-.45.09-.42.16-.39.22-.34.27-.29.33-.25.39-.2.43-.15.48-.09.53-.03h.22l.22.02.21.02.21.03.19.04.19.05.19.06.18.07.17.08.16.08.33.37.32 2.05h1.13V9.12L71.36 9l-.38-.11-.37-.09-.38-.08-.36-.06-.37-.05-.36-.05-.36-.03-.36-.01-.36-.01-.88.05-.81.15-.74.23-.65.33-.56.4-.47.47-.38.55-.27.6-.17.66-.06.71.04.59.11.52.19.46.26.42.33.37.4.34.48.32.54.3.62.3.68.31.68.29.6.26.54.25.47.25.4.26.33.28.26.32.18.36.11.43.04.5-.03.44-.11.41-.17.37-.23.34-.3.3-.37.25-.42.2-.49.15-.54.1-.6.03-.29-.01-.27-.01-.27-.03-.26-.03-.25-.05-.24-.05-.22-.07-.22-.07-.21-.09-.19-.09-.28-.37-.26-2.48h-1.27v3.8zM73.9 8.77v3.33h1.18l.31-2.01.3-.33h3.32v12.21l-.38.3-1.45.11v.88h5.64v-.88l-1.45-.11-.39-.3V9.76h3.33l.3.33.3 2.01h1.19V8.77H73.9zM87.16 8.77v.86l1.23.13.37.31v11.9l-.37.3-1.23.11v.88h5.14v-.88l-1.23-.11-.37-.3v-5.14l.12-.01.11-.01h.11l.12-.01h.1l.11-.01H91.58l.1-.01h.1l.56.02.49.06.44.09.39.14.33.2.3.24.26.3.23.36.21.43.18.5.13.41.11.41.11.41.1.4.12.39.14.38.16.35.19.34.23.31.29.29.15.12.17.11.19.1.19.08.21.06.23.06.23.04.26.03.27.02.28.01.15-.01h.15l.16-.01.16-.02.17-.01.16-.02.18-.03.18-.03.18-.03.19-.04v-.82h-.19l-.46-.01-.42-.03-.36-.05-.32-.08-.28-.12-.25-.15-.21-.2-.19-.24-.17-.3-.15-.35-.1-.31-.09-.32-.08-.32-.08-.33-.07-.33-.09-.33-.09-.32-.11-.32-.14-.32-.16-.3-.14-.21-.16-.19-.17-.17-.2-.17-.21-.15-.23-.13-.25-.13-.27-.11-.29-.1-.31-.09.67-.17.59-.22.53-.26.45-.3.39-.34.31-.38.25-.42.17-.46.11-.49.03-.54-.05-.76-.15-.67-.26-.58-.36-.51-.47-.42-.57-.35-.68-.26-.78-.19-.89-.11-.99-.04h-5.51zm3.54.99h1.04l.76.03.68.08.6.13.51.2.44.25.35.33.28.4.2.47.11.55.04.63-.04.6-.11.53-.18.46-.27.38-.34.32-.42.26-.49.19-.58.14-.65.08-.74.02h-.52l-.14-.01H90.89l-.19-.01V9.76z" fill-rule="evenodd"/><path d="M106.53 8.6l-5.05 13.52-1.25.26v.88h4.23v-.88l-1.4-.11-.22-.3 1.53-4.13h5.1l1.56 4.13-.16.3-1.33.11v.88h4.9v-.88l-1.3-.26-5.18-13.52h-1.43zm.35 2.26l2.22 5.99h-4.36l2.14-5.99zM114.96 23.26h5.46v-.88l-1.38-.11-.37-.3v-11.9l.37-.31 1.38-.13v-.86h-5.46v.86l1.38.13.37.31v11.9l-.37.3-1.38.11v.88zM130.21 16.31v.88l1.53.11.37.3v4.5l-.25.05-.24.05-.24.04-.23.04-.22.03-.22.02-.21.02-.21.02h-.19l-.2.01-.97-.07-.91-.22-.81-.35-.72-.48-.63-.61-.53-.74-.42-.85-.3-.96-.19-1.07-.07-1.18.06-1.11.19-1.02.29-.92.4-.81.51-.69.61-.58.7-.46.79-.33.88-.21.95-.06h.26l.25.02.25.03.25.04.25.05.24.06.24.07.24.09.24.09.24.11.31.39.32 1.96h1.21V9.14l-.43-.12-.42-.11-.43-.09-.42-.08-.41-.07-.42-.06-.41-.04-.41-.03-.4-.02-.4-.01-1.37.09-1.27.25-1.14.42-1.01.57-.87.71-.74.85-.58.98-.42 1.1-.26 1.21-.09 1.32.04.83.12.82.2.78.28.75.35.71.42.66.49.62.55.55.61.5.68.43.3.16.32.14.34.13.36.12.36.09.38.08.4.06.4.05.42.02.43.01.39-.01.4-.02.42-.04.42-.05.44-.07.46-.08.46-.1.48-.11.5-.13.5-.14V17.6l.37-.3 1.19-.11v-.88h-5.4zM136.9 8.77v.86l1.23.13.37.31v11.9l-.37.3-1.23.11v.88h5.25v-.88l-1.34-.11-.36-.3v-5.81h7.43v5.81l-.37.3-1.34.11v.88h5.25v-.88l-1.23-.11-.37-.3v-11.9l.37-.31 1.23-.13v-.86h-5.25v.86l1.34.13.37.31v5.09h-7.43v-5.09l.36-.31 1.34-.13v-.86h-5.25zM152.48 8.77v3.33h1.18l.31-2.01.3-.33h3.33v12.21l-.39.3-1.45.11v.88h5.64v-.88l-1.45-.11-.39-.3V9.76h3.33l.3.33.3 2.01h1.19V8.77h-12.2zM177.75 8.51l-4.69 1.4v.91l3.39-.6v11.62l-.26.36-2.48.13v.93h7.24v-.9l-2.34-.11-.26-.33V8.51h-.6z" fill-rule="evenodd"/></svg>