<?xml version="1.0" encoding="UTF-8" standalone="no"?>
<!DOCTYPE svg PUBLIC "-//W3C//DTD SVG 1.1//EN" "http://www.w3.org/Graphics/SVG/1.1/DTD/svg11.dtd">
<svg xmlns="http://www.w3.org/2000/svg" xmlns:xlink="http://www.w3.org/1999/xlink" version="1.1" width="566pt" height="425pt" viewBox="0 0 566 425">
<g enable-background="new">
<path transform="matrix(1,0,0,-1,0,425)" d="M 0 0 L 566.93 0 L 566.93 425.2 L 0 425.2 Z " fill="#ffffff"/>
<path transform="matrix(1,0,0,-1,0,425)" stroke-width="1.75" stroke-linecap="round" stroke-linejoin="round" fill="none" stroke="#ffffff" d="M 0 0 L 566.93 0 L 566.93 425.2 L 0 425.2 Z "/>
<clipPath id="cp0">
<path transform="matrix(1,0,0,-1,0,425)" d="M 68.48 77.32 L 557.96 77.32 L 557.96 386.63 L 68.48 386.63 Z "/>
</clipPath>
<g clip-path="url(#cp0)">
<path transform="matrix(1,0,0,-1,0,425)" d="M 68.48 77.32 L 557.96 77.32 L 557.96 386.63 L 68.48 386.63 Z " fill="#ffffff"/>
<path transform="matrix(1,0,0,-1,0,425)" stroke-width=".87" stroke-linecap="butt" stroke-linejoin="round" fill="none" stroke="#ebebeb" d="M 127.81 77.32 L 127.81 386.63 "/>
<path transform="matrix(1,0,0,-1,0,425)" stroke-width=".87" stroke-linecap="butt" stroke-linejoin="round" fill="none" stroke="#ebebeb" d="M 201.98 77.32 L 201.98 386.63 "/>
<path transform="matrix(1,0,0,-1,0,425)" stroke-width=".87" stroke-linecap="butt" stroke-linejoin="round" fill="none" stroke="#ebebeb" d="M 276.14 77.32 L 276.14 386.63 "/>
<path transform="matrix(1,0,0,-1,0,425)" stroke-width=".87" stroke-linecap="butt" stroke-linejoin="round" fill="none" stroke="#ebebeb" d="M 350.3 77.32 L 350.3 386.63 "/>
<path transform="matrix(1,0,0,-1,0,425)" stroke-width=".87" stroke-linecap="butt" stroke-linejoin="round" fill="none" stroke="#ebebeb" d="M 424.47 77.32 L 424.47 386.63 "/>
<path transform="matrix(1,0,0,-1,0,425)" stroke-width=".87" stroke-linecap="butt" stroke-linejoin="round" fill="none" stroke="#ebebeb" d="M 498.63 77.32 L 498.63 386.63 "/>
<path transform="matrix(1,0,0,-1,0,425)" stroke-width="1.75" stroke-linecap="butt" stroke-linejoin="round" fill="none" stroke="#ebebeb" d="M 68.48 107.25 L 557.96 107.25 "/>
<path transform="matrix(1,0,0,-1,0,425)" stroke-width="1.75" stroke-linecap="butt" stroke-linejoin="round" fill="none" stroke="#ebebeb" d="M 68.48 157.14 L 557.96 157.14 "/>
<path transform="matrix(1,0,0,-1,0,425)" stroke-width="1.75" stroke-linecap="butt" stroke-linejoin="round" fill="none" stroke="#ebebeb" d="M 68.48 207.03 L 557.96 207.03 "/>
<path transform="matrix(1,0,0,-1,0,425)" stroke-width="1.75" stroke-linecap="butt" stroke-linejoin="round" fill="none" stroke="#ebebeb" d="M 68.48 256.92 L 557.96 256.92 "/>
<path transform="matrix(1,0,0,-1,0,425)" stroke-width="1.75" stroke-linecap="butt" stroke-linejoin="round" fill="none" stroke="#ebebeb" d="M 68.48 306.81 L 557.96 306.81 "/>
<path transform="matrix(1,0,0,-1,0,425)" stroke-width="1.75" stroke-linecap="butt" stroke-linejoin="round" fill="none" stroke="#ebebeb" d="M 68.48 356.69 L 557.96 356.69 "/>
<path transform="matrix(1,0,0,-1,0,425)" stroke-width="1.75" stroke-linecap="butt" stroke-linejoin="round" fill="none" stroke="#ebebeb" d="M 90.73 77.32 L 90.73 386.63 "/>
<path transform="matrix(1,0,0,-1,0,425)" stroke-width="1.75" stroke-linecap="butt" stroke-linejoin="round" fill="none" stroke="#ebebeb" d="M 164.89 77.32 L 164.89 386.63 "/>
<path transform="matrix(1,0,0,-1,0,425)" stroke-width="1.75" stroke-linecap="butt" stroke-linejoin="round" fill="none" stroke="#ebebeb" d="M 239.06 77.32 L 239.06 386.63 "/>
<path transform="matrix(1,0,0,-1,0,425)" stroke-width="1.75" stroke-linecap="butt" stroke-linejoin="round" fill="none" stroke="#ebebeb" d="M 313.22 77.32 L 313.22 386.63 "/>
<path transform="matrix(1,0,0,-1,0,425)" stroke-width="1.75" stroke-linecap="butt" stroke-linejoin="round" fill="none" stroke="#ebebeb" d="M 387.39 77.32 L 387.39 386.63 "/>
<path transform="matrix(1,0,0,-1,0,425)" stroke-width="1.75" stroke-linecap="butt" stroke-linejoin="round" fill="none" stroke="#ebebeb" d="M 461.55 77.32 L 461.55 386.63 "/>
<path transform="matrix(1,0,0,-1,0,425)" stroke-width="1.75" stroke-linecap="butt" stroke-linejoin="round" fill="none" stroke="#ebebeb" d="M 535.71 77.32 L 535.71 386.63 "/>
<path transform="matrix(1,0,0,-1,0,425)" stroke-width="2.13" stroke-linecap="butt" stroke-linejoin="round" fill="none" stroke="#2a788e" d="M 345.02 102.26 L 345.02 112.24 "/>
<path transform="matrix(1,0,0,-1,0,425)" stroke-width="2.13" stroke-linecap="butt" stroke-linejoin="round" fill="none" stroke="#2a788e" d="M 345.02 107.25 L 269.4 107.25 "/>
<path transform="matrix(1,0,0,-1,0,425)" stroke-width="2.13" stroke-linecap="butt" stroke-linejoin="round" fill="none" stroke="#2a788e" d="M 269.4 102.26 L 269.4 112.24 "/>
<path transform="matrix(1,0,0,-1,0,425)" stroke-width="2.13" stroke-linecap="butt" stroke-linejoin="round" fill="none" stroke="#2a788e" d="M 370.81 152.15 L 370.81 162.13 "/>
<path transform="matrix(1,0,0,-1,0,425)" stroke-width="2.13" stroke-linecap="butt" stroke-linejoin="round" fill="none" stroke="#2a788e" d="M 370.81 157.14 L 290.53 157.14 "/>
<path transform="matrix(1,0,0,-1,0,425)" stroke-width="2.13" stroke-linecap="butt" stroke-linejoin="round" fill="none" stroke="#2a788e" d="M 290.53 152.15 L 290.53 162.13 "/>
<path transform="matrix(1,0,0,-1,0,425)" stroke-width="2.13" stroke-linecap="butt" stroke-linejoin="round" fill="none" stroke="#2a788e" d="M 358.14 202.04 L 358.14 212.02 "/>
<path transform="matrix(1,0,0,-1,0,425)" stroke-width="2.13" stroke-linecap="butt" stroke-linejoin="round" fill="none" stroke="#2a788e" d="M 358.14 207.03 L 281.59 207.03 "/>
<path transform="matrix(1,0,0,-1,0,425)" stroke-width="2.13" stroke-linecap="butt" stroke-linejoin="round" fill="none" stroke="#2a788e" d="M 281.59 202.04 L 281.59 212.02 "/>
<path transform="matrix(1,0,0,-1,0,425)" stroke-width="2.13" stroke-linecap="butt" stroke-linejoin="round" fill="none" stroke="#2a788e" d="M 381.73 251.93 L 381.73 261.91 "/>
<path transform="matrix(1,0,0,-1,0,425)" stroke-width="2.13" stroke-linecap="butt" stroke-linejoin="round" fill="none" stroke="#2a788e" d="M 381.73 256.92 L 301.35 256.92 "/>
<path transform="matrix(1,0,0,-1,0,425)" stroke-width="2.13" stroke-linecap="butt" stroke-linejoin="round" fill="none" stroke="#2a788e" d="M 301.35 251.93 L 301.35 261.91 "/>
<path transform="matrix(1,0,0,-1,0,425)" stroke-width="2.13" stroke-linecap="butt" stroke-linejoin="round" fill="none" stroke="#2a788e" d="M 288.86 301.82 L 288.86 311.8 "/>
<path transform="matrix(1,0,0,-1,0,425)" stroke-width="2.13" stroke-linecap="butt" stroke-linejoin="round" fill="none" stroke="#2a788e" d="M 288.86 306.81 L 177.84 306.81 "/>
<path transform="matrix(1,0,0,-1,0,425)" stroke-width="2.13" stroke-linecap="butt" stroke-linejoin="round" fill="none" stroke="#2a788e" d="M 177.84 301.82 L 177.84 311.8 "/>
<path transform="matrix(1,0,0,-1,0,425)" stroke-width="2.13" stroke-linecap="butt" stroke-linejoin="round" fill="none" stroke="#2a788e" d="M 314.42 351.71 L 314.42 361.68 "/>
<path transform="matrix(1,0,0,-1,0,425)" stroke-width="2.13" stroke-linecap="butt" stroke-linejoin="round" fill="none" stroke="#2a788e" d="M 314.42 356.69 L 202.15 356.69 "/>
<path transform="matrix(1,0,0,-1,0,425)" stroke-width="2.13" stroke-linecap="butt" stroke-linejoin="round" fill="none" stroke="#2a788e" d="M 202.15 351.71 L 202.15 361.68 "/>
<path transform="matrix(1,0,0,-1,0,425)" stroke-width=".71" stroke-linecap="round" stroke-linejoin="round" fill="none" stroke="#000000" d="M 302.63 107.25 L 307.21 111.83 L 311.78 107.25 L 307.21 102.68 L 302.63 107.25 "/>
<path transform="matrix(1,0,0,-1,0,425)" stroke-width=".71" stroke-linecap="round" stroke-linejoin="round" fill="none" stroke="#000000" d="M 326.1 157.14 L 330.67 161.72 L 335.25 157.14 L 330.67 152.57 L 326.1 157.14 "/>
<path transform="matrix(1,0,0,-1,0,425)" stroke-width=".71" stroke-linecap="round" stroke-linejoin="round" fill="none" stroke="#000000" d="M 315.29 207.03 L 319.86 211.6 L 324.44 207.03 L 319.86 202.45 L 315.29 207.03 "/>
<path transform="matrix(1,0,0,-1,0,425)" stroke-width=".71" stroke-linecap="round" stroke-linejoin="round" fill="none" stroke="#000000" d="M 336.96 256.92 L 341.54 261.49 L 346.11 256.92 L 341.54 252.34 L 336.96 256.92 "/>
<path transform="matrix(1,0,0,-1,0,425)" d="M 230.12 303.57 L 236.59 303.57 L 236.59 310.04 L 230.12 310.04 Z "/>
<path transform="matrix(1,0,0,-1,0,425)" d="M 255.05 353.46 L 261.52 353.46 L 261.52 359.93 L 255.05 359.93 Z "/>
<path transform="matrix(1,0,0,-1,0,425)" stroke-width="1.75" stroke-linecap="round" stroke-linejoin="round" fill="none" stroke="#333333" d="M 68.48 77.32 L 557.96 77.32 L 557.96 386.63 L 68.48 386.63 Z "/>
</g>
<text fill="#4d4d4d" xml:space="preserve" transform="matrix(1 0 -0 1 0 425)" font-size="14" font-family="Helvetica"><tspan y="-102.35" x="16.19">F</tspan></text>
<text fill="#4d4d4d" xml:space="preserve" transform="matrix(1 0 -0 1 0 425)" font-size="14" font-family="Helvetica"><tspan y="-102.35" x="24.74">I</tspan></text>
<text fill="#4d4d4d" xml:space="preserve" transform="matrix(1 0 -0 1 0 425)" font-size="14" font-family="Helvetica"><tspan y="-102.35" x="28.63">N</tspan></text>
<text fill="#4d4d4d" xml:space="preserve" transform="matrix(1 0 -0 1 0 425)" font-size="10" font-family="Helvetica"><tspan y="-97.83" x="38.74">H</tspan></text>
<text fill="#4d4d4d" xml:space="preserve" transform="matrix(1 0 -0 1 0 425)" font-size="10" font-family="Helvetica"><tspan y="-97.83" x="45.96">A</tspan></text>
<text fill="#4d4d4d" xml:space="preserve" transform="matrix(1 0 -0 1 0 425)" font-size="10" font-family="Helvetica"><tspan y="-109.31" x="38.74">O</tspan></text>
<text fill="#4d4d4d" xml:space="preserve" transform="matrix(1 0 -0 1 0 425)" font-size="10" font-family="Helvetica"><tspan y="-109.31" x="46.52">N</tspan></text>
<text fill="#4d4d4d" xml:space="preserve" transform="matrix(1 0 -0 1 0 425)" font-size="10" font-family="Helvetica"><tspan y="-109.31" x="53.74">E</tspan></text>
<text fill="#4d4d4d" xml:space="preserve" transform="matrix(1 0 -0 1 0 425)" font-size="14" font-family="Helvetica"><tspan y="-152.33" x="16.19">F</tspan></text>
<text fill="#4d4d4d" xml:space="preserve" transform="matrix(1 0 -0 1 0 425)" font-size="14" font-family="Helvetica"><tspan y="-152.33" x="24.74">I</tspan></text>
<text fill="#4d4d4d" xml:space="preserve" transform="matrix(1 0 -0 1 0 425)" font-size="14" font-family="Helvetica"><tspan y="-152.33" x="28.63">N</tspan></text>
<text fill="#4d4d4d" xml:space="preserve" transform="matrix(1 0 -0 1 0 425)" font-size="10" font-family="Helvetica"><tspan y="-147.81" x="38.74">S</tspan></text>
<text fill="#4d4d4d" xml:space="preserve" transform="matrix(1 0 -0 1 0 425)" font-size="10" font-family="Helvetica"><tspan y="-147.81" x="45.41">E</tspan></text>
<text fill="#4d4d4d" xml:space="preserve" transform="matrix(1 0 -0 1 0 425)" font-size="10" font-family="Helvetica"><tspan y="-147.81" x="52.08">V</tspan></text>
<text fill="#4d4d4d" xml:space="preserve" transform="matrix(1 0 -0 1 0 425)" font-size="10" font-family="Helvetica"><tspan y="-159.29" x="38.74">O</tspan></text>
<text fill="#4d4d4d" xml:space="preserve" transform="matrix(1 0 -0 1 0 425)" font-size="10" font-family="Helvetica"><tspan y="-159.29" x="46.52">N</tspan></text>
<text fill="#4d4d4d" xml:space="preserve" transform="matrix(1 0 -0 1 0 425)" font-size="10" font-family="Helvetica"><tspan y="-159.29" x="53.74">E</tspan></text>
<text fill="#4d4d4d" xml:space="preserve" transform="matrix(1 0 -0 1 0 425)" font-size="14" font-family="Helvetica"><tspan y="-202.22" x="8.97">F</tspan></text>
<text fill="#4d4d4d" xml:space="preserve" transform="matrix(1 0 -0 1 0 425)" font-size="14" font-family="Helvetica"><tspan y="-202.22" x="17.52">I</tspan></text>
<text fill="#4d4d4d" xml:space="preserve" transform="matrix(1 0 -0 1 0 425)" font-size="14" font-family="Helvetica"><tspan y="-202.22" x="21.41">N</tspan></text>
<text fill="#4d4d4d" xml:space="preserve" transform="matrix(1 0 -0 1 0 425)" font-size="10" font-family="Helvetica"><tspan y="-197.7" x="31.52">H</tspan></text>
<text fill="#4d4d4d" xml:space="preserve" transform="matrix(1 0 -0 1 0 425)" font-size="10" font-family="Helvetica"><tspan y="-197.7" x="38.74">A</tspan></text>
<text fill="#4d4d4d" xml:space="preserve" transform="matrix(1 0 -0 1 0 425)" font-size="10" font-family="Helvetica"><tspan y="-209.18" x="31.52">M</tspan></text>
<text fill="#4d4d4d" xml:space="preserve" transform="matrix(1 0 -0 1 0 425)" font-size="10" font-family="Helvetica"><tspan y="-209.18" x="39.85">A</tspan></text>
<text fill="#4d4d4d" xml:space="preserve" transform="matrix(1 0 -0 1 0 425)" font-size="10" font-family="Helvetica"><tspan y="-209.18" x="46.52">N</tspan></text>
<text fill="#4d4d4d" xml:space="preserve" transform="matrix(1 0 -0 1 0 425)" font-size="10" font-family="Helvetica"><tspan y="-209.18" x="53.74">Y</tspan></text>
<text fill="#4d4d4d" xml:space="preserve" transform="matrix(1 0 -0 1 0 425)" font-size="14" font-family="Helvetica"><tspan y="-252.21" x="8.97">F</tspan></text>
<text fill="#4d4d4d" xml:space="preserve" transform="matrix(1 0 -0 1 0 425)" font-size="14" font-family="Helvetica"><tspan y="-252.21" x="17.52">I</tspan></text>
<text fill="#4d4d4d" xml:space="preserve" transform="matrix(1 0 -0 1 0 425)" font-size="14" font-family="Helvetica"><tspan y="-252.21" x="21.41">N</tspan></text>
<text fill="#4d4d4d" xml:space="preserve" transform="matrix(1 0 -0 1 0 425)" font-size="10" font-family="Helvetica"><tspan y="-247.68" x="31.52">S</tspan></text>
<text fill="#4d4d4d" xml:space="preserve" transform="matrix(1 0 -0 1 0 425)" font-size="10" font-family="Helvetica"><tspan y="-247.68" x="38.19">E</tspan></text>
<text fill="#4d4d4d" xml:space="preserve" transform="matrix(1 0 -0 1 0 425)" font-size="10" font-family="Helvetica"><tspan y="-247.68" x="44.86">V</tspan></text>
<text fill="#4d4d4d" xml:space="preserve" transform="matrix(1 0 -0 1 0 425)" font-size="10" font-family="Helvetica"><tspan y="-259.16" x="31.52">M</tspan></text>
<text fill="#4d4d4d" xml:space="preserve" transform="matrix(1 0 -0 1 0 425)" font-size="10" font-family="Helvetica"><tspan y="-259.16" x="39.85">A</tspan></text>
<text fill="#4d4d4d" xml:space="preserve" transform="matrix(1 0 -0 1 0 425)" font-size="10" font-family="Helvetica"><tspan y="-259.16" x="46.52">N</tspan></text>
<text fill="#4d4d4d" xml:space="preserve" transform="matrix(1 0 -0 1 0 425)" font-size="10" font-family="Helvetica"><tspan y="-259.16" x="53.74">Y</tspan></text>
<text fill="#4d4d4d" xml:space="preserve" transform="matrix(1 0 -0 1 0 425)" font-size="14" font-family="Helvetica"><tspan y="-301.91" x="30.86">N</tspan></text>
<text fill="#4d4d4d" xml:space="preserve" transform="matrix(1 0 -0 1 0 425)" font-size="14" font-family="Helvetica"><tspan y="-301.91" x="40.96">E</tspan></text>
<text fill="#4d4d4d" xml:space="preserve" transform="matrix(1 0 -0 1 0 425)" font-size="14" font-family="Helvetica"><tspan y="-301.91" x="50.3">U</tspan></text>
<text fill="#4d4d4d" xml:space="preserve" transform="matrix(1 0 -0 1 0 425)" font-size="14" font-family="Helvetica"><tspan y="-351.67" x="32.4">A</tspan></text>
<text fill="#4d4d4d" xml:space="preserve" transform="matrix(1 0 -0 1 0 425)" font-size="14" font-family="Helvetica"><tspan y="-351.67" x="41.73">B</tspan></text>
<text fill="#4d4d4d" xml:space="preserve" transform="matrix(1 0 -0 1 0 425)" font-size="14" font-family="Helvetica"><tspan y="-351.67" x="51.07">S</tspan></text>
<path transform="matrix(1,0,0,-1,0,425)" stroke-width="1.75" stroke-linecap="butt" stroke-linejoin="round" fill="none" stroke="#333333" d="M 64 107.25 L 68.48 107.25 "/>
<path transform="matrix(1,0,0,-1,0,425)" stroke-width="1.75" stroke-linecap="butt" stroke-linejoin="round" fill="none" stroke="#333333" d="M 64 157.14 L 68.48 157.14 "/>
<path transform="matrix(1,0,0,-1,0,425)" stroke-width="1.75" stroke-linecap="butt" stroke-linejoin="round" fill="none" stroke="#333333" d="M 64 207.03 L 68.48 207.03 "/>
<path transform="matrix(1,0,0,-1,0,425)" stroke-width="1.75" stroke-linecap="butt" stroke-linejoin="round" fill="none" stroke="#333333" d="M 64 256.92 L 68.48 256.92 "/>
<path transform="matrix(1,0,0,-1,0,425)" stroke-width="1.75" stroke-linecap="butt" stroke-linejoin="round" fill="none" stroke="#333333" d="M 64 306.81 L 68.48 306.81 "/>
<path transform="matrix(1,0,0,-1,0,425)" stroke-width="1.75" stroke-linecap="butt" stroke-linejoin="round" fill="none" stroke="#333333" d="M 64 356.69 L 68.48 356.69 "/>
<path transform="matrix(1,0,0,-1,0,425)" stroke-width="1.75" stroke-linecap="butt" stroke-linejoin="round" fill="none" stroke="#333333" d="M 90.73 72.84 L 90.73 77.32 "/>
<path transform="matrix(1,0,0,-1,0,425)" stroke-width="1.75" stroke-linecap="butt" stroke-linejoin="round" fill="none" stroke="#333333" d="M 164.89 72.84 L 164.89 77.32 "/>
<path transform="matrix(1,0,0,-1,0,425)" stroke-width="1.75" stroke-linecap="butt" stroke-linejoin="round" fill="none" stroke="#333333" d="M 239.06 72.84 L 239.06 77.32 "/>
<path transform="matrix(1,0,0,-1,0,425)" stroke-width="1.75" stroke-linecap="butt" stroke-linejoin="round" fill="none" stroke="#333333" d="M 313.22 72.84 L 313.22 77.32 "/>
<path transform="matrix(1,0,0,-1,0,425)" stroke-width="1.75" stroke-linecap="butt" stroke-linejoin="round" fill="none" stroke="#333333" d="M 387.39 72.84 L 387.39 77.32 "/>
<path transform="matrix(1,0,0,-1,0,425)" stroke-width="1.75" stroke-linecap="butt" stroke-linejoin="round" fill="none" stroke="#333333" d="M 461.55 72.84 L 461.55 77.32 "/>
<path transform="matrix(1,0,0,-1,0,425)" stroke-width="1.75" stroke-linecap="butt" stroke-linejoin="round" fill="none" stroke="#333333" d="M 535.71 72.84 L 535.71 77.32 "/>
<text fill="#4d4d4d" xml:space="preserve" transform="matrix(1 0 -0 1 0 425)" font-size="14" font-family="Helvetica"><tspan y="-59.2" x="86.84">1</tspan></text>
<text fill="#4d4d4d" xml:space="preserve" transform="matrix(1 0 -0 1 0 425)" font-size="14" font-family="Helvetica"><tspan y="-59.2" x="161">2</tspan></text>
<text fill="#4d4d4d" xml:space="preserve" transform="matrix(1 0 -0 1 0 425)" font-size="14" font-family="Helvetica"><tspan y="-59.2" x="235.17">3</tspan></text>
<text fill="#4d4d4d" xml:space="preserve" transform="matrix(1 0 -0 1 0 425)" font-size="14" font-family="Helvetica"><tspan y="-59.2" x="309.33">4</tspan></text>
<text fill="#4d4d4d" xml:space="preserve" transform="matrix(1 0 -0 1 0 425)" font-size="14" font-family="Helvetica"><tspan y="-59.2" x="383.49">5</tspan></text>
<text fill="#4d4d4d" xml:space="preserve" transform="matrix(1 0 -0 1 0 425)" font-size="14" font-family="Helvetica"><tspan y="-59.2" x="457.66">6</tspan></text>
<text fill="#4d4d4d" xml:space="preserve" transform="matrix(1 0 -0 1 0 425)" font-size="14" font-family="Helvetica"><tspan y="-59.2" x="531.82">7</tspan></text>
<text xml:space="preserve" transform="matrix(1 0 -0 1 0 425)" font-size="18" font-family="Helvetica"><tspan y="-38.71" x="177.92 182.924 192.93199 197.93599 201.93199 211.93999 221.94799 231.95598 240.95598 250.96398 255.96797 265.97599 270.97999 275.98399 281.97798 291.98597 301.99397 312.00196 317.00596 327.01396 332.01795 336.01396 346.02195 356.02995 366.03794 370.03395 375.03794 384.03794 394.04594 404.05393 413.05393 423.06193 429.50593 439.51393">Influence of reputational concerns</tspan></text>
<path transform="matrix(1,0,0,-1,0,425)" d="M 219.86 8.97 L 237.14 8.97 L 237.14 26.25 L 219.86 26.25 Z " fill="#ffffff"/>
<path transform="matrix(1,0,0,-1,0,425)" d="M 225.26 14.37 L 231.73 14.37 L 231.73 20.84 L 225.26 20.84 Z "/>
<path transform="matrix(1,0,0,-1,0,425)" d="M 337.95 8.97 L 355.23 8.97 L 355.23 26.25 L 337.95 26.25 Z " fill="#ffffff"/>
<path transform="matrix(1,0,0,-1,0,425)" stroke-width=".71" stroke-linecap="round" stroke-linejoin="round" fill="none" stroke="#000000" d="M 342.02 17.61 L 346.59 22.18 L 351.17 17.61 L 346.59 13.03 L 342.02 17.61 "/>
<text xml:space="preserve" transform="matrix(1 0 -0 1 0 425)" font-size="14" font-family="Helvetica"><tspan y="-12.58" x="246.11 253.894 261.678 269.462 277.638 281.53 284.638 292.422 300.206 307.99 314.99 318.098 325.882">non&#x2212;financial</tspan></text>
<text xml:space="preserve" transform="matrix(1 0 -0 1 0 425)" font-size="14" font-family="Helvetica"><tspan y="-12.58" x="364.2 368.092 371.2 378.984 386.768 394.552 401.552 404.66 412.444">financial</tspan></text>
<text xml:space="preserve" transform="matrix(1 0 -0 1 0 425)" font-size="22" font-family="Helvetica"><tspan y="-400.43" x="68.48 84.364009 96.59601 108.82801 121.06001 127.17601 139.408 145.524 150.408 162.64 174.872 187.10399 191.98799 198.10399 209.10399 221.33599 233.56798 244.56798 256.8 264.67597 276.90797">Reputational concerns</tspan></text>
</g>
</svg>
