<svg xmlns="http://www.w3.org/2000/svg" height="384" width="528"><path d="M0 384h528V0H0z" fill="#eaf2f3"/><path d="M0 384V.012h527.984V384H0" fill="#fff"/><path d="M0 384V.012h527.984V384z" fill="none" stroke="#fff" stroke-width=".7679808" stroke-miterlimit="10"/><path d="M52.107 295.164V36.724h462.429v258.44H52.106" fill="#fff"/><path d="M52.107 295.164V36.724h462.429v258.44z" fill="none" stroke="#fff" stroke-width=".7679808" stroke-miterlimit="10"/><path d="M52.107 259.87h462.429M52.107 206.196h462.429M52.107 152.521h462.429M52.107 98.847h462.429M52.107 45.172h462.429" fill="none" stroke="#eaf2f3" stroke-width="1.1519712000000002" stroke-miterlimit="10"/><path d="M90.255 199.481v61.594" fill="none" stroke="#000" stroke-width="1.7279568" stroke-miterlimit="10"/><path d="M84.249 261.075h11.995M84.249 199.481h11.995" fill="none" stroke="#000" stroke-width="1.7279568" stroke-linecap="round" stroke-miterlimit="10"/><path d="M119.955 178.988v65.027" fill="none" stroke="#000" stroke-width="1.7279568" stroke-miterlimit="10"/><path d="M113.949 244.015h11.995M113.949 178.988h11.995" fill="none" stroke="#000" stroke-width="1.7279568" stroke-linecap="round" stroke-miterlimit="10"/><path d="M149.655 174.516v88.39" fill="none" stroke="#000" stroke-width="1.7279568" stroke-miterlimit="10"/><path d="M143.65 262.906h11.994M143.65 174.516h11.994" fill="none" stroke="#000" stroke-width="1.7279568" stroke-linecap="round" stroke-miterlimit="10"/><path d="M209.072 214.1v48.675" fill="none" stroke="#000" stroke-width="1.7279568" stroke-miterlimit="10"/><path d="M203.065 262.775h11.996M203.065 214.1h11.996" fill="none" stroke="#000" stroke-width="1.7279568" stroke-linecap="round" stroke-miterlimit="10"/><path d="M238.772 171.2v71.361" fill="none" stroke="#000" stroke-width="1.7279568" stroke-miterlimit="10"/><path d="M232.765 242.561h11.996M232.765 171.2h11.996" fill="none" stroke="#000" stroke-width="1.7279568" stroke-linecap="round" stroke-miterlimit="10"/><path d="M268.472 180.307v72.914" fill="none" stroke="#000" stroke-width="1.7279568" stroke-miterlimit="10"/><path d="M262.465 253.22h11.996M262.465 180.307h11.996" fill="none" stroke="#000" stroke-width="1.7279568" stroke-linecap="round" stroke-miterlimit="10"/><path d="M327.872 217.317v58.971" fill="none" stroke="#000" stroke-width="1.7279568" stroke-miterlimit="10"/><path d="M321.865 276.288h11.996M321.865 217.317h11.996" fill="none" stroke="#000" stroke-width="1.7279568" stroke-linecap="round" stroke-miterlimit="10"/><path d="M446.688 227.135v50.176" fill="none" stroke="#000" stroke-width="1.7279568" stroke-miterlimit="10"/><path d="M440.681 277.31h11.996M440.681 227.135h11.996" fill="none" stroke="#000" stroke-width="1.7279568" stroke-linecap="round" stroke-miterlimit="10"/><path d="M476.388 185.273v55.111" fill="none" stroke="#000" stroke-width="1.7279568" stroke-miterlimit="10"/><path d="M470.381 240.384h11.996M470.381 185.273h11.996" fill="none" stroke="#000" stroke-width="1.7279568" stroke-linecap="round" stroke-miterlimit="10"/><path d="M506.088 193.837V268.5" fill="none" stroke="#000" stroke-width="1.7279568" stroke-miterlimit="10"/><path d="M500.081 268.5h11.996M500.081 193.837h11.996" fill="none" stroke="#000" stroke-width="1.7279568" stroke-linecap="round" stroke-miterlimit="10"/><path d="M94.908 223.505a4.67 4.67 0 10-9.34 0 4.67 4.67 0 009.34 0" fill="#ffd200"/><path d="M94.908 223.505a4.67 4.67 0 10-9.34 0 4.67 4.67 0 009.34 0z" fill="none" stroke="#ffd200" stroke-width="1.1519712000000002" stroke-miterlimit="10"/><path d="M124.625 216.575a4.67 4.67 0 10-9.34 0 4.67 4.67 0 009.34 0" fill="#ffd200"/><path d="M124.625 216.575a4.67 4.67 0 10-9.34 0 4.67 4.67 0 009.34 0z" fill="none" stroke="#ffd200" stroke-width="1.1519712000000002" stroke-miterlimit="10"/><path d="M154.324 229.13a4.67 4.67 0 10-9.339.001 4.67 4.67 0 009.339 0" fill="#ffd200"/><path d="M154.324 229.13a4.67 4.67 0 10-9.339.001 4.67 4.67 0 009.339 0z" fill="none" stroke="#ffd200" stroke-width="1.1519712000000002" stroke-miterlimit="10"/><path d="M213.724 231.985a4.67 4.67 0 10-9.339 0 4.67 4.67 0 009.339 0" fill="#ffd200"/><path d="M213.724 231.985a4.67 4.67 0 10-9.339 0 4.67 4.67 0 009.339 0z" fill="none" stroke="#ffd200" stroke-width="1.1519712000000002" stroke-miterlimit="10"/><path d="M243.424 210.915a4.67 4.67 0 10-9.339 0 4.67 4.67 0 009.339 0" fill="#ffd200"/><path d="M243.424 210.915a4.67 4.67 0 10-9.339 0 4.67 4.67 0 009.339 0z" fill="none" stroke="#ffd200" stroke-width="1.1519712000000002" stroke-miterlimit="10"/><path d="M273.141 230.336a4.67 4.67 0 10-9.339 0 4.67 4.67 0 009.34 0" fill="#ffd200"/><path d="M273.141 230.336a4.67 4.67 0 10-9.339 0 4.67 4.67 0 009.34 0z" fill="none" stroke="#ffd200" stroke-width="1.1519712000000002" stroke-miterlimit="10"/><path d="M332.541 249.013a4.67 4.67 0 10-9.339 0 4.67 4.67 0 009.34 0" fill="#ffd200"/><path d="M332.541 249.013a4.67 4.67 0 10-9.339 0 4.67 4.67 0 009.34 0z" fill="none" stroke="#ffd200" stroke-width="1.1519712000000002" stroke-miterlimit="10"/><path d="M451.357 240.979a4.67 4.67 0 00-4.669-4.671 4.67 4.67 0 000 9.34 4.67 4.67 0 004.67-4.67" fill="#ffd200"/><path d="M451.357 240.979a4.67 4.67 0 00-4.669-4.671 4.67 4.67 0 000 9.34 4.67 4.67 0 004.67-4.67z" fill="none" stroke="#ffd200" stroke-width="1.1519712000000002" stroke-miterlimit="10"/><path d="M481.057 215.832a4.67 4.67 0 10-9.339 0 4.67 4.67 0 009.34 0" fill="#ffd200"/><path d="M481.057 215.832a4.67 4.67 0 10-9.339 0 4.67 4.67 0 009.34 0z" fill="none" stroke="#ffd200" stroke-width="1.1519712000000002" stroke-miterlimit="10"/><path d="M510.757 245.053a4.67 4.67 0 10-9.339 0 4.67 4.67 0 009.34 0" fill="#ffd200"/><path d="M510.757 245.053a4.67 4.67 0 10-9.339 0 4.67 4.67 0 009.34 0z" fill="none" stroke="#ffd200" stroke-width="1.1519712000000002" stroke-miterlimit="10"/><path d="M115.285 142.605l4.67 4.67 4.67-4.67-4.67-4.669-4.67 4.67" fill="#55752f"/><path d="M115.285 142.605l4.67 4.67 4.67-4.67-4.67-4.669z" fill="none" stroke="#55752f" stroke-width="1.1519712000000002" stroke-miterlimit="10"/><path d="M144.985 185.273l4.67 4.671 4.669-4.67-4.67-4.669-4.669 4.668" fill="#55752f"/><path d="M144.985 185.273l4.67 4.671 4.669-4.67-4.67-4.669z" fill="none" stroke="#55752f" stroke-width="1.1519712000000002" stroke-miterlimit="10"/><path d="M234.085 142.605l4.67 4.67 4.669-4.67-4.67-4.669-4.669 4.67" fill="#55752f"/><path d="M234.085 142.605l4.67 4.67 4.669-4.67-4.67-4.669z" fill="none" stroke="#55752f" stroke-width="1.1519712000000002" stroke-miterlimit="10"/><path d="M263.803 185.273l4.669 4.671 4.67-4.67-4.67-4.669-4.67 4.668" fill="#55752f"/><path d="M263.803 185.273l4.669 4.671 4.67-4.67-4.67-4.669z" fill="none" stroke="#55752f" stroke-width="1.1519712000000002" stroke-miterlimit="10"/><path d="M471.719 113.879l4.669 4.669 4.67-4.67-4.67-4.669-4.67 4.67" fill="#55752f"/><path d="M471.719 113.879l4.669 4.669 4.67-4.67-4.67-4.669z" fill="none" stroke="#55752f" stroke-width="1.1519712000000002" stroke-miterlimit="10"/><path d="M501.419 246.192l4.669 4.67 4.67-4.67-4.67-4.67-4.67 4.67" fill="#55752f"/><path d="M501.419 246.192l4.669 4.67 4.67-4.67-4.67-4.67z" fill="none" stroke="#55752f" stroke-width="1.1519712000000002" stroke-miterlimit="10"/><g font-weight="400" font-family="Helvetica"><text style="-inkscape-font-specification:Helvetica" transform="matrix(1.33333 0 0 1.33333 79.506 191.264)" font-size="13.996"><tspan y="0" x="0">I</tspan></text><text style="-inkscape-font-specification:Helvetica" transform="matrix(1.33333 0 0 1.33333 84.694 193.92)" font-size="8.155"><tspan y="0" x="0 5.8879967">NO</tspan></text><text style="-inkscape-font-specification:Helvetica" transform="matrix(1.33333 0 0 1.33333 109.505 172.47)" font-size="13.996"><tspan y="0" x="0">I</tspan></text><text style="-inkscape-font-specification:Helvetica" transform="matrix(1.33333 0 0 1.33333 114.693 175.127)" font-size="8.155"><tspan y="0" x="0 6.3446832">GP</tspan></text><text style="-inkscape-font-specification:Helvetica" transform="matrix(1.33333 0 0 1.33333 142.229 168.444)" font-size="13.996"><tspan y="0" x="0">I</tspan></text><text style="-inkscape-font-specification:Helvetica" transform="matrix(1.33333 0 0 1.33333 147.416 171.101)" font-size="8.155"><tspan y="0" x="0 4.9827785">FI</tspan></text><text style="-inkscape-font-specification:Helvetica" transform="matrix(1.33333 0 0 1.33333 198.323 207.368)" font-size="13.996"><tspan y="0" x="0">I</tspan></text><text style="-inkscape-font-specification:Helvetica" transform="matrix(1.33333 0 0 1.33333 203.51 210.024)" font-size="8.155"><tspan y="0" x="0 5.8879967">NO</tspan></text><text style="-inkscape-font-specification:Helvetica" transform="matrix(1.33333 0 0 1.33333 228.322 164.419)" font-size="13.996"><tspan y="0" x="0">I</tspan></text><text style="-inkscape-font-specification:Helvetica" transform="matrix(1.33333 0 0 1.33333 233.51 167.075)" font-size="8.155"><tspan y="0" x="0 6.3446832">GP</tspan></text><text style="-inkscape-font-specification:Helvetica" transform="matrix(1.33333 0 0 1.33333 261.045 172.47)" font-size="13.996"><tspan y="0" x="0">I</tspan></text><text style="-inkscape-font-specification:Helvetica" transform="matrix(1.33333 0 0 1.33333 266.233 175.127)" font-size="8.155"><tspan y="0" x="0 4.9827785">FI</tspan></text><text style="-inkscape-font-specification:Helvetica" transform="matrix(1.33333 0 0 1.33333 317.123 210.057)" font-size="13.996"><tspan y="0" x="0">I</tspan></text><text style="-inkscape-font-specification:Helvetica" transform="matrix(1.33333 0 0 1.33333 322.31 212.714)" font-size="8.155"><tspan y="0" x="0 5.8879967">NO</tspan></text><text style="-inkscape-font-specification:Helvetica" transform="matrix(1.33333 0 0 1.33333 435.94 220.782)" font-size="13.996"><tspan y="0" x="0">I</tspan></text><text style="-inkscape-font-specification:Helvetica" transform="matrix(1.33333 0 0 1.33333 441.127 223.44)" font-size="8.155"><tspan y="0" x="0 5.8879967">NO</tspan></text><text style="-inkscape-font-specification:Helvetica" transform="matrix(1.33333 0 0 1.33333 465.938 177.85)" font-size="13.996"><tspan y="0" x="0">I</tspan></text><text style="-inkscape-font-specification:Helvetica" transform="matrix(1.33333 0 0 1.33333 471.126 180.506)" font-size="8.155"><tspan y="0" x="0 6.3446832">GP</tspan></text><text style="-inkscape-font-specification:Helvetica" transform="matrix(1.33333 0 0 1.33333 498.662 185.902)" font-size="13.996"><tspan y="0" x="0">I</tspan></text><text style="-inkscape-font-specification:Helvetica" transform="matrix(1.33333 0 0 1.33333 503.85 188.558)" font-size="8.155"><tspan y="0" x="0 4.9827785">FI</tspan></text></g><path d="M52.107 295.164V36.724M52.107 259.87h-5.33" fill="none" stroke="#000" stroke-width=".7679808" stroke-miterlimit="10"/><text style="-inkscape-font-specification:Helvetica" transform="matrix(0 -1.33333 1.33333 0 40.111 263.577)" font-weight="400" font-size="9.999" font-family="Helvetica"><tspan y="0" x="0">2</tspan></text><path d="M52.107 206.196h-5.33" fill="none" stroke="#000" stroke-width=".7679808" stroke-miterlimit="10"/><text style="-inkscape-font-specification:Helvetica" transform="matrix(0 -1.33333 1.33333 0 40.111 209.903)" font-weight="400" font-size="9.999" font-family="Helvetica"><tspan y="0" x="0">4</tspan></text><path d="M52.107 152.521h-5.33" fill="none" stroke="#000" stroke-width=".7679808" stroke-miterlimit="10"/><text style="-inkscape-font-specification:Helvetica" transform="matrix(0 -1.33333 1.33333 0 40.111 156.228)" font-weight="400" font-size="9.999" font-family="Helvetica"><tspan y="0" x="0">6</tspan></text><path d="M52.107 98.847h-5.33" fill="none" stroke="#000" stroke-width=".7679808" stroke-miterlimit="10"/><text style="-inkscape-font-specification:Helvetica" transform="matrix(0 -1.33333 1.33333 0 40.111 102.553)" font-weight="400" font-size="9.999" font-family="Helvetica"><tspan y="0" x="0">8</tspan></text><path d="M52.107 45.172h-5.33" fill="none" stroke="#000" stroke-width=".7679808" stroke-miterlimit="10"/><text style="-inkscape-font-specification:Helvetica" transform="matrix(0 -1.33333 1.33333 0 40.111 52.585)" font-weight="400" font-size="9.999" font-family="Helvetica"><tspan y="0" x="0 5.559444">10</tspan><tspan y="-11.001" x="-113.91 -111.13028 -105.57083 -102.24117 -96.681725 -91.68222 -86.12278 -81.123276 -78.343559 -75.563835 -73.344055 -67.784615 -65.00489">forecast in %</tspan></text><path d="M52.107 295.164h462.429M60.555 295.164v2.656M119.955 295.164v5.33" fill="none" stroke="#000" stroke-width=".7679808" stroke-miterlimit="10"/><g font-weight="400" font-family="Helvetica"><text style="-inkscape-font-specification:Helvetica" transform="matrix(1.33333 0 0 1.33333 106.367 314.37)" font-size="12.004"><tspan y="0" x="0 7.3342605">FI</tspan></text><text style="-inkscape-font-specification:Helvetica" transform="matrix(1.33333 0 0 1.33333 120.595 316.647)" font-size="6.992"><tspan y="0" x="0 5.04813">US</tspan></text></g><path d="M238.772 295.164v5.33" fill="none" stroke="#000" stroke-width=".7679808" stroke-miterlimit="10"/><g font-weight="400" font-family="Helvetica"><text style="-inkscape-font-specification:Helvetica" transform="matrix(1.33333 0 0 1.33333 220.733 314.37)" font-size="12.004"><tspan y="0" x="0 9.3388786">GP</tspan></text><text style="-inkscape-font-specification:Helvetica" transform="matrix(1.33333 0 0 1.33333 243.86 316.647)" font-size="6.992"><tspan y="0" x="0 5.04813">US</tspan></text></g><path d="M357.588 295.164v5.33" fill="none" stroke="#000" stroke-width=".7679808" stroke-miterlimit="10"/><g font-weight="400" font-family="Helvetica"><text style="-inkscape-font-specification:Helvetica" transform="matrix(1.33333 0 0 1.33333 344 314.37)" font-size="12.004"><tspan y="0" x="0 7.3342605">FI</tspan></text><text style="-inkscape-font-specification:Helvetica" transform="matrix(1.33333 0 0 1.33333 358.228 316.647)" font-size="6.992"><tspan y="0" x="0 5.04813">UK</tspan></text></g><path d="M476.388 295.164v5.33" fill="none" stroke="#000" stroke-width=".7679808" stroke-miterlimit="10"/><g font-weight="400" font-family="Helvetica"><text style="-inkscape-font-specification:Helvetica" transform="matrix(1.33333 0 0 1.33333 458.35 314.37)" font-size="12.004"><tspan y="0" x="0 9.3388786">GP</tspan></text><text style="-inkscape-font-specification:Helvetica" transform="matrix(1.33333 0 0 1.33333 481.477 316.647)" font-size="6.992"><tspan y="0" x="0 5.04813">UK</tspan></text></g><path d="M89.133 365.949V341.1h388.376v24.849H89.133" fill="#fff"/><path d="M89.133 365.949V341.1h388.376v24.849z" fill="none" stroke="#000" stroke-width=".7679808" stroke-miterlimit="10"/><path d="M94.892 353.525h49.928M94.892 359.53V347.52M144.82 359.53V347.52" fill="none" stroke="#000" stroke-width="1.7279568" stroke-miterlimit="10"/><path d="M266.756 353.525a4.668 4.668 0 10-9.339 0c0 2.578 2.09 4.669 4.668 4.669a4.67 4.67 0 004.671-4.67" fill="#ffd200"/><path d="M266.756 353.525a4.668 4.668 0 10-9.339 0c0 2.578 2.09 4.669 4.668 4.669a4.67 4.67 0 004.671-4.67z" fill="none" stroke="#ffd200" stroke-width="1.1519712000000002" stroke-miterlimit="10"/><path d="M386.364 353.525l4.67 4.669 4.669-4.67-4.67-4.669-4.669 4.67" fill="#55752f"/><path d="M386.364 353.525l4.67 4.669 4.669-4.67-4.67-4.669z" fill="none" stroke="#55752f" stroke-width="1.1519712000000002" stroke-miterlimit="10"/><text style="-inkscape-font-specification:Helvetica" transform="matrix(1.33333 0 0 1.33333 152.823 358.194)" font-weight="400" font-size="9.999" font-family="Helvetica"><tspan y="0" x="0 4.9994998 10.558944 16.118387 18.338165 23.89761 28.89711 31.676832 33.89661 38.896111 44.455555 47.235275 54.454556 57.234276 91.451157 97.010597 102.57005 104.78982 110.34927 113.12898 115.90871 121.46815 124.79782 130.35727 135.9167 138.13649 143.13599 145.91571 148.13548 153.69493 188.14958 190.36935 195.9288 198.70853 204.26797 207.59764 215.9268 221.48625 224.26598 226.48575 232.0452">subjective CIspoint predictioninformation</tspan></text><text style="-inkscape-font-specification:Helvetica" transform="matrix(1.33333 0 0 1.33333 249.088 28.821)" font-weight="400" font-size="13.996" font-family="Helvetica" fill="#1e2d53"><tspan y="0" x="0 9.3353987 18.670797 28.006197 35.788029 43.569859">S&amp;P500</tspan></text></svg>