<?xml version="1.0" encoding="UTF-8" standalone="no"?>
<svg
   xmlns:dc="http://purl.org/dc/elements/1.1/"
   xmlns:cc="http://creativecommons.org/ns#"
   xmlns:rdf="http://www.w3.org/1999/02/22-rdf-syntax-ns#"
   xmlns:svg="http://www.w3.org/2000/svg"
   xmlns="http://www.w3.org/2000/svg"
   viewBox="0 0 680 453.33334"
   height="453.33334"
   width="680"
   xml:space="preserve"
   id="svg2"
   version="1.1"><metadata
     id="metadata8"><rdf:RDF><cc:Work
         rdf:about=""><dc:format>image/svg+xml</dc:format><dc:type
           rdf:resource="http://purl.org/dc/dcmitype/StillImage" /></cc:Work></rdf:RDF></metadata><defs
     id="defs6"><clipPath
       id="clipPath60"
       clipPathUnits="userSpaceOnUse"><path
         id="path58"
         d="m 61.54,50.32 h 439.73 v 252.7 H 61.54 Z" /></clipPath></defs><g
     transform="matrix(1.3333333,0,0,-1.3333333,0,453.33333)"
     id="g10"><g
       id="g12" /><g
       id="g14" /><g
       id="g16" /><g
       id="g18" /><g
       id="g20" /><g
       id="g22" /><g
       id="g24" /><g
       id="g26" /><g
       id="g28" /><g
       id="g30" /><g
       id="g32" /><g
       id="g34" /><g
       id="g36" /><g
       id="g38" /><g
       id="g40" /><g
       id="g42" /><g
       id="g44" /><g
       id="g46" /><g
       id="g48"><path
         id="path50"
         style="fill:#ffffff;fill-opacity:1;fill-rule:nonzero;stroke:#ffffff;stroke-width:1.75;stroke-linecap:round;stroke-linejoin:round;stroke-miterlimit:10;stroke-dasharray:none;stroke-opacity:1"
         d="M 0,0 H 510.24 V 340.16 H 0 Z" /></g><g
       id="g52" /><g
       id="g54"><g
         clip-path="url(#clipPath60)"
         id="g56"><path
           id="path62"
           style="fill:#ffffff;fill-opacity:1;fill-rule:nonzero;stroke:none"
           d="m 61.54,50.32 h 439.73 v 252.7 H 61.54 Z" /><path
           id="path64"
           style="fill:none;stroke:#ebebeb;stroke-width:0.87;stroke-linecap:butt;stroke-linejoin:round;stroke-miterlimit:10;stroke-dasharray:none;stroke-opacity:1"
           d="M 61.54,84.78 H 501.27" /><path
           id="path66"
           style="fill:none;stroke:#ebebeb;stroke-width:0.87;stroke-linecap:butt;stroke-linejoin:round;stroke-miterlimit:10;stroke-dasharray:none;stroke-opacity:1"
           d="M 61.54,130.73 H 501.27" /><path
           id="path68"
           style="fill:none;stroke:#ebebeb;stroke-width:0.87;stroke-linecap:butt;stroke-linejoin:round;stroke-miterlimit:10;stroke-dasharray:none;stroke-opacity:1"
           d="M 61.54,176.67 H 501.27" /><path
           id="path70"
           style="fill:none;stroke:#ebebeb;stroke-width:0.87;stroke-linecap:butt;stroke-linejoin:round;stroke-miterlimit:10;stroke-dasharray:none;stroke-opacity:1"
           d="M 61.54,222.62 H 501.27" /><path
           id="path72"
           style="fill:none;stroke:#ebebeb;stroke-width:0.87;stroke-linecap:butt;stroke-linejoin:round;stroke-miterlimit:10;stroke-dasharray:none;stroke-opacity:1"
           d="M 61.54,268.56 H 501.27" /><path
           id="path74"
           style="fill:none;stroke:#ebebeb;stroke-width:1.75;stroke-linecap:butt;stroke-linejoin:round;stroke-miterlimit:10;stroke-dasharray:none;stroke-opacity:1"
           d="M 61.54,61.81 H 501.27" /><path
           id="path76"
           style="fill:none;stroke:#ebebeb;stroke-width:1.75;stroke-linecap:butt;stroke-linejoin:round;stroke-miterlimit:10;stroke-dasharray:none;stroke-opacity:1"
           d="M 61.54,107.75 H 501.27" /><path
           id="path78"
           style="fill:none;stroke:#ebebeb;stroke-width:1.75;stroke-linecap:butt;stroke-linejoin:round;stroke-miterlimit:10;stroke-dasharray:none;stroke-opacity:1"
           d="M 61.54,153.7 H 501.27" /><path
           id="path80"
           style="fill:none;stroke:#ebebeb;stroke-width:1.75;stroke-linecap:butt;stroke-linejoin:round;stroke-miterlimit:10;stroke-dasharray:none;stroke-opacity:1"
           d="M 61.54,199.65 H 501.27" /><path
           id="path82"
           style="fill:none;stroke:#ebebeb;stroke-width:1.75;stroke-linecap:butt;stroke-linejoin:round;stroke-miterlimit:10;stroke-dasharray:none;stroke-opacity:1"
           d="M 61.54,245.59 H 501.27" /><path
           id="path84"
           style="fill:none;stroke:#ebebeb;stroke-width:1.75;stroke-linecap:butt;stroke-linejoin:round;stroke-miterlimit:10;stroke-dasharray:none;stroke-opacity:1"
           d="M 61.54,291.54 H 501.27" /><path
           id="path86"
           style="fill:none;stroke:#ebebeb;stroke-width:1.75;stroke-linecap:butt;stroke-linejoin:round;stroke-miterlimit:10;stroke-dasharray:none;stroke-opacity:1"
           d="m 91.05,50.32 v 252.7" /><path
           id="path88"
           style="fill:none;stroke:#ebebeb;stroke-width:1.75;stroke-linecap:butt;stroke-linejoin:round;stroke-miterlimit:10;stroke-dasharray:none;stroke-opacity:1"
           d="m 186.23,50.32 v 252.7" /><path
           id="path90"
           style="fill:none;stroke:#ebebeb;stroke-width:1.75;stroke-linecap:butt;stroke-linejoin:round;stroke-miterlimit:10;stroke-dasharray:none;stroke-opacity:1"
           d="m 281.41,50.32 v 252.7" /><path
           id="path92"
           style="fill:none;stroke:#ebebeb;stroke-width:1.75;stroke-linecap:butt;stroke-linejoin:round;stroke-miterlimit:10;stroke-dasharray:none;stroke-opacity:1"
           d="m 376.58,50.32 v 252.7" /><path
           id="path94"
           style="fill:none;stroke:#ebebeb;stroke-width:1.75;stroke-linecap:butt;stroke-linejoin:round;stroke-miterlimit:10;stroke-dasharray:none;stroke-opacity:1"
           d="m 471.76,50.32 v 252.7" /><path
           id="path96"
           style="fill:none;stroke:#1e2d53;stroke-width:1.71000004;stroke-linecap:butt;stroke-linejoin:round;stroke-miterlimit:10;stroke-dasharray:none;stroke-opacity:1"
           d="m 83.11,238.31 h 3.18" /><path
           id="path98"
           style="fill:none;stroke:#1e2d53;stroke-width:1.71000004;stroke-linecap:butt;stroke-linejoin:round;stroke-miterlimit:10;stroke-dasharray:none;stroke-opacity:1"
           d="M 84.7,238.31 V 213.37" /><path
           id="path100"
           style="fill:none;stroke:#1e2d53;stroke-width:1.71000004;stroke-linecap:butt;stroke-linejoin:round;stroke-miterlimit:10;stroke-dasharray:none;stroke-opacity:1"
           d="m 83.11,213.37 h 3.18" /><path
           id="path102"
           style="fill:none;stroke:#1e2d53;stroke-width:1.71000004;stroke-linecap:butt;stroke-linejoin:round;stroke-miterlimit:10;stroke-dasharray:none;stroke-opacity:1"
           d="m 178.29,240.51 h 3.18" /><path
           id="path104"
           style="fill:none;stroke:#1e2d53;stroke-width:1.71000004;stroke-linecap:butt;stroke-linejoin:round;stroke-miterlimit:10;stroke-dasharray:none;stroke-opacity:1"
           d="m 179.88,240.51 v -24.7" /><path
           id="path106"
           style="fill:none;stroke:#1e2d53;stroke-width:1.71000004;stroke-linecap:butt;stroke-linejoin:round;stroke-miterlimit:10;stroke-dasharray:none;stroke-opacity:1"
           d="m 178.29,215.81 h 3.18" /><path
           id="path108"
           style="fill:none;stroke:#1e2d53;stroke-width:1.71000004;stroke-linecap:butt;stroke-linejoin:round;stroke-miterlimit:10;stroke-dasharray:none;stroke-opacity:1"
           d="m 273.47,236.67 h 3.18" /><path
           id="path110"
           style="fill:none;stroke:#1e2d53;stroke-width:1.71000004;stroke-linecap:butt;stroke-linejoin:round;stroke-miterlimit:10;stroke-dasharray:none;stroke-opacity:1"
           d="M 275.06,236.67 V 212.48" /><path
           id="path112"
           style="fill:none;stroke:#1e2d53;stroke-width:1.71000004;stroke-linecap:butt;stroke-linejoin:round;stroke-miterlimit:10;stroke-dasharray:none;stroke-opacity:1"
           d="m 273.47,212.48 h 3.18" /><path
           id="path114"
           style="fill:none;stroke:#1e2d53;stroke-width:1.71000004;stroke-linecap:butt;stroke-linejoin:round;stroke-miterlimit:10;stroke-dasharray:none;stroke-opacity:1"
           d="m 368.65,257.04 h 3.18" /><path
           id="path116"
           style="fill:none;stroke:#1e2d53;stroke-width:1.71000004;stroke-linecap:butt;stroke-linejoin:round;stroke-miterlimit:10;stroke-dasharray:none;stroke-opacity:1"
           d="M 370.24,257.04 V 236.78" /><path
           id="path118"
           style="fill:none;stroke:#1e2d53;stroke-width:1.71000004;stroke-linecap:butt;stroke-linejoin:round;stroke-miterlimit:10;stroke-dasharray:none;stroke-opacity:1"
           d="m 368.65,236.78 h 3.18" /><path
           id="path120"
           style="fill:none;stroke:#1e2d53;stroke-width:1.71000004;stroke-linecap:butt;stroke-linejoin:round;stroke-miterlimit:10;stroke-dasharray:none;stroke-opacity:1"
           d="m 463.83,257.46 h 3.18" /><path
           id="path122"
           style="fill:none;stroke:#1e2d53;stroke-width:1.71000004;stroke-linecap:butt;stroke-linejoin:round;stroke-miterlimit:10;stroke-dasharray:none;stroke-opacity:1"
           d="M 465.42,257.46 V 235.98" /><path
           id="path124"
           style="fill:none;stroke:#1e2d53;stroke-width:1.71000004;stroke-linecap:butt;stroke-linejoin:round;stroke-miterlimit:10;stroke-dasharray:none;stroke-opacity:1"
           d="m 463.83,235.98 h 3.18" /><path
           id="path126"
           style="fill:none;stroke:#e37e00;stroke-width:1.71000004;stroke-linecap:butt;stroke-linejoin:round;stroke-miterlimit:10;stroke-dasharray:none;stroke-opacity:1"
           d="m 89.46,246.47 h 3.17" /><path
           id="path128"
           style="fill:none;stroke:#e37e00;stroke-width:1.71000004;stroke-linecap:butt;stroke-linejoin:round;stroke-miterlimit:10;stroke-dasharray:none;stroke-opacity:1"
           d="M 91.05,246.47 V 224.86" /><path
           id="path130"
           style="fill:none;stroke:#e37e00;stroke-width:1.71000004;stroke-linecap:butt;stroke-linejoin:round;stroke-miterlimit:10;stroke-dasharray:none;stroke-opacity:1"
           d="m 89.46,224.86 h 3.17" /><path
           id="path132"
           style="fill:none;stroke:#e37e00;stroke-width:1.71000004;stroke-linecap:butt;stroke-linejoin:round;stroke-miterlimit:10;stroke-dasharray:none;stroke-opacity:1"
           d="m 184.64,244.33 h 3.17" /><path
           id="path134"
           style="fill:none;stroke:#e37e00;stroke-width:1.71000004;stroke-linecap:butt;stroke-linejoin:round;stroke-miterlimit:10;stroke-dasharray:none;stroke-opacity:1"
           d="M 186.23,244.33 V 221.14" /><path
           id="path136"
           style="fill:none;stroke:#e37e00;stroke-width:1.71000004;stroke-linecap:butt;stroke-linejoin:round;stroke-miterlimit:10;stroke-dasharray:none;stroke-opacity:1"
           d="m 184.64,221.14 h 3.17" /><path
           id="path138"
           style="fill:none;stroke:#e37e00;stroke-width:1.71000004;stroke-linecap:butt;stroke-linejoin:round;stroke-miterlimit:10;stroke-dasharray:none;stroke-opacity:1"
           d="m 279.82,245.59 h 3.17" /><path
           id="path140"
           style="fill:none;stroke:#e37e00;stroke-width:1.71000004;stroke-linecap:butt;stroke-linejoin:round;stroke-miterlimit:10;stroke-dasharray:none;stroke-opacity:1"
           d="M 281.41,245.59 V 221.37" /><path
           id="path142"
           style="fill:none;stroke:#e37e00;stroke-width:1.71000004;stroke-linecap:butt;stroke-linejoin:round;stroke-miterlimit:10;stroke-dasharray:none;stroke-opacity:1"
           d="m 279.82,221.37 h 3.17" /><path
           id="path144"
           style="fill:none;stroke:#e37e00;stroke-width:1.71000004;stroke-linecap:butt;stroke-linejoin:round;stroke-miterlimit:10;stroke-dasharray:none;stroke-opacity:1"
           d="m 375,246.61 h 3.17" /><path
           id="path146"
           style="fill:none;stroke:#e37e00;stroke-width:1.71000004;stroke-linecap:butt;stroke-linejoin:round;stroke-miterlimit:10;stroke-dasharray:none;stroke-opacity:1"
           d="M 376.58,246.61 V 222.99" /><path
           id="path148"
           style="fill:none;stroke:#e37e00;stroke-width:1.71000004;stroke-linecap:butt;stroke-linejoin:round;stroke-miterlimit:10;stroke-dasharray:none;stroke-opacity:1"
           d="m 375,222.99 h 3.17" /><path
           id="path150"
           style="fill:none;stroke:#e37e00;stroke-width:1.71000004;stroke-linecap:butt;stroke-linejoin:round;stroke-miterlimit:10;stroke-dasharray:none;stroke-opacity:1"
           d="m 470.18,248.21 h 3.17" /><path
           id="path152"
           style="fill:none;stroke:#e37e00;stroke-width:1.71000004;stroke-linecap:butt;stroke-linejoin:round;stroke-miterlimit:10;stroke-dasharray:none;stroke-opacity:1"
           d="M 471.76,248.21 V 223.82" /><path
           id="path154"
           style="fill:none;stroke:#e37e00;stroke-width:1.71000004;stroke-linecap:butt;stroke-linejoin:round;stroke-miterlimit:10;stroke-dasharray:none;stroke-opacity:1"
           d="m 470.18,223.82 h 3.17" /><path
           id="path156"
           style="fill:none;stroke:#90353b;stroke-width:1.71000004;stroke-linecap:butt;stroke-linejoin:round;stroke-miterlimit:10;stroke-dasharray:none;stroke-opacity:1"
           d="m 95.81,247.6 h 3.17" /><path
           id="path158"
           style="fill:none;stroke:#90353b;stroke-width:1.71000004;stroke-linecap:butt;stroke-linejoin:round;stroke-miterlimit:10;stroke-dasharray:none;stroke-opacity:1"
           d="M 97.39,247.6 V 225.12" /><path
           id="path160"
           style="fill:none;stroke:#90353b;stroke-width:1.71000004;stroke-linecap:butt;stroke-linejoin:round;stroke-miterlimit:10;stroke-dasharray:none;stroke-opacity:1"
           d="m 95.81,225.12 h 3.17" /><path
           id="path162"
           style="fill:none;stroke:#90353b;stroke-width:1.71000004;stroke-linecap:butt;stroke-linejoin:round;stroke-miterlimit:10;stroke-dasharray:none;stroke-opacity:1"
           d="m 190.98,248.25 h 3.18" /><path
           id="path164"
           style="fill:none;stroke:#90353b;stroke-width:1.71000004;stroke-linecap:butt;stroke-linejoin:round;stroke-miterlimit:10;stroke-dasharray:none;stroke-opacity:1"
           d="M 192.57,248.25 V 225.3" /><path
           id="path166"
           style="fill:none;stroke:#90353b;stroke-width:1.71000004;stroke-linecap:butt;stroke-linejoin:round;stroke-miterlimit:10;stroke-dasharray:none;stroke-opacity:1"
           d="m 190.98,225.3 h 3.18" /><path
           id="path168"
           style="fill:none;stroke:#90353b;stroke-width:1.71000004;stroke-linecap:butt;stroke-linejoin:round;stroke-miterlimit:10;stroke-dasharray:none;stroke-opacity:1"
           d="m 286.16,244.79 h 3.18" /><path
           id="path170"
           style="fill:none;stroke:#90353b;stroke-width:1.71000004;stroke-linecap:butt;stroke-linejoin:round;stroke-miterlimit:10;stroke-dasharray:none;stroke-opacity:1"
           d="M 287.75,244.79 V 220.72" /><path
           id="path172"
           style="fill:none;stroke:#90353b;stroke-width:1.71000004;stroke-linecap:butt;stroke-linejoin:round;stroke-miterlimit:10;stroke-dasharray:none;stroke-opacity:1"
           d="m 286.16,220.72 h 3.18" /><path
           id="path174"
           style="fill:none;stroke:#90353b;stroke-width:1.71000004;stroke-linecap:butt;stroke-linejoin:round;stroke-miterlimit:10;stroke-dasharray:none;stroke-opacity:1"
           d="m 381.34,226.91 h 3.18" /><path
           id="path176"
           style="fill:none;stroke:#90353b;stroke-width:1.71000004;stroke-linecap:butt;stroke-linejoin:round;stroke-miterlimit:10;stroke-dasharray:none;stroke-opacity:1"
           d="M 382.93,226.91 V 198.32" /><path
           id="path178"
           style="fill:none;stroke:#90353b;stroke-width:1.71000004;stroke-linecap:butt;stroke-linejoin:round;stroke-miterlimit:10;stroke-dasharray:none;stroke-opacity:1"
           d="m 381.34,198.32 h 3.18" /><path
           id="path180"
           style="fill:none;stroke:#90353b;stroke-width:1.71000004;stroke-linecap:butt;stroke-linejoin:round;stroke-miterlimit:10;stroke-dasharray:none;stroke-opacity:1"
           d="m 476.52,236.95 h 3.18" /><path
           id="path182"
           style="fill:none;stroke:#90353b;stroke-width:1.71000004;stroke-linecap:butt;stroke-linejoin:round;stroke-miterlimit:10;stroke-dasharray:none;stroke-opacity:1"
           d="M 478.11,236.95 V 208.74" /><path
           id="path184"
           style="fill:none;stroke:#90353b;stroke-width:1.71000004;stroke-linecap:butt;stroke-linejoin:round;stroke-miterlimit:10;stroke-dasharray:none;stroke-opacity:1"
           d="m 476.52,208.74 h 3.18" /><path
           id="path186"
           style="fill:none;stroke:#1e2d53;stroke-width:2.13000011;stroke-linecap:butt;stroke-linejoin:round;stroke-miterlimit:10;stroke-dasharray:none;stroke-opacity:1"
           d="m 84.7,225.84 95.18,2.32 95.18,-3.59 95.18,22.34 95.18,-0.19" /><path
           id="path188"
           style="fill:none;stroke:#e37e00;stroke-width:2.13000011;stroke-linecap:butt;stroke-linejoin:round;stroke-miterlimit:10;stroke-dasharray:none;stroke-opacity:1"
           d="m 91.05,235.67 95.18,-2.94 95.18,0.75 95.17,1.32 95.18,1.21" /><path
           id="path190"
           style="fill:none;stroke:#90353b;stroke-width:2.13000011;stroke-linecap:butt;stroke-linejoin:round;stroke-miterlimit:10;stroke-dasharray:none;stroke-opacity:1"
           d="m 97.39,236.36 95.18,0.41 95.18,-4.02 95.18,-20.13 95.18,10.23" /><path
           id="path192"
           style="fill:#1e2d53;fill-opacity:1;fill-rule:nonzero;stroke:#1e2d53;stroke-width:0.70999998;stroke-linecap:round;stroke-linejoin:round;stroke-miterlimit:10;stroke-dasharray:none;stroke-opacity:1"
           d="m 82,225.84 c 0,1.49 1.21,2.7 2.7,2.7 1.49,0 2.7,-1.21 2.7,-2.7 0,-1.48 -1.21,-2.7 -2.7,-2.7 -1.49,0 -2.7,1.22 -2.7,2.7" /><path
           id="path194"
           style="fill:#1e2d53;fill-opacity:1;fill-rule:nonzero;stroke:#1e2d53;stroke-width:0.70999998;stroke-linecap:round;stroke-linejoin:round;stroke-miterlimit:10;stroke-dasharray:none;stroke-opacity:1"
           d="m 177.18,228.16 c 0,1.49 1.21,2.7 2.7,2.7 1.49,0 2.7,-1.21 2.7,-2.7 0,-1.48 -1.21,-2.7 -2.7,-2.7 -1.49,0 -2.7,1.22 -2.7,2.7" /><path
           id="path196"
           style="fill:#1e2d53;fill-opacity:1;fill-rule:nonzero;stroke:#1e2d53;stroke-width:0.70999998;stroke-linecap:round;stroke-linejoin:round;stroke-miterlimit:10;stroke-dasharray:none;stroke-opacity:1"
           d="m 272.36,224.57 c 0,1.49 1.21,2.7 2.7,2.7 1.49,0 2.7,-1.21 2.7,-2.7 0,-1.48 -1.21,-2.7 -2.7,-2.7 -1.49,0 -2.7,1.22 -2.7,2.7" /><path
           id="path198"
           style="fill:#1e2d53;fill-opacity:1;fill-rule:nonzero;stroke:#1e2d53;stroke-width:0.70999998;stroke-linecap:round;stroke-linejoin:round;stroke-miterlimit:10;stroke-dasharray:none;stroke-opacity:1"
           d="m 367.54,246.91 c 0,1.49 1.21,2.7 2.7,2.7 1.49,0 2.7,-1.21 2.7,-2.7 0,-1.48 -1.21,-2.7 -2.7,-2.7 -1.49,0 -2.7,1.22 -2.7,2.7" /><path
           id="path200"
           style="fill:#1e2d53;fill-opacity:1;fill-rule:nonzero;stroke:#1e2d53;stroke-width:0.70999998;stroke-linecap:round;stroke-linejoin:round;stroke-miterlimit:10;stroke-dasharray:none;stroke-opacity:1"
           d="m 462.72,246.72 c 0,1.48 1.21,2.7 2.7,2.7 1.48,0 2.7,-1.22 2.7,-2.7 0,-1.49 -1.22,-2.7 -2.7,-2.7 -1.49,0 -2.7,1.21 -2.7,2.7" /><path
           id="path202"
           style="fill:#e37e00;fill-opacity:1;fill-rule:nonzero;stroke:#e37e00;stroke-width:0.70999998;stroke-linecap:round;stroke-linejoin:round;stroke-miterlimit:10;stroke-dasharray:none;stroke-opacity:1"
           d="m 88.34,235.67 c 0,1.48 1.22,2.7 2.71,2.7 1.48,0 2.7,-1.22 2.7,-2.7 0,-1.49 -1.22,-2.71 -2.7,-2.71 -1.49,0 -2.71,1.22 -2.71,2.71" /><path
           id="path204"
           style="fill:#e37e00;fill-opacity:1;fill-rule:nonzero;stroke:#e37e00;stroke-width:0.70999998;stroke-linecap:round;stroke-linejoin:round;stroke-miterlimit:10;stroke-dasharray:none;stroke-opacity:1"
           d="m 183.52,232.73 c 0,1.49 1.22,2.71 2.71,2.71 1.48,0 2.7,-1.22 2.7,-2.71 0,-1.48 -1.22,-2.7 -2.7,-2.7 -1.49,0 -2.71,1.22 -2.71,2.7" /><path
           id="path206"
           style="fill:#e37e00;fill-opacity:1;fill-rule:nonzero;stroke:#e37e00;stroke-width:0.70999998;stroke-linecap:round;stroke-linejoin:round;stroke-miterlimit:10;stroke-dasharray:none;stroke-opacity:1"
           d="m 278.7,233.48 c 0,1.48 1.22,2.7 2.71,2.7 1.48,0 2.7,-1.22 2.7,-2.7 0,-1.49 -1.22,-2.7 -2.7,-2.7 -1.49,0 -2.71,1.21 -2.71,2.7" /><path
           id="path208"
           style="fill:#e37e00;fill-opacity:1;fill-rule:nonzero;stroke:#e37e00;stroke-width:0.70999998;stroke-linecap:round;stroke-linejoin:round;stroke-miterlimit:10;stroke-dasharray:none;stroke-opacity:1"
           d="m 373.88,234.8 c 0,1.49 1.22,2.7 2.7,2.7 1.49,0 2.71,-1.21 2.71,-2.7 0,-1.49 -1.22,-2.7 -2.71,-2.7 -1.48,0 -2.7,1.21 -2.7,2.7" /><path
           id="path210"
           style="fill:#e37e00;fill-opacity:1;fill-rule:nonzero;stroke:#e37e00;stroke-width:0.70999998;stroke-linecap:round;stroke-linejoin:round;stroke-miterlimit:10;stroke-dasharray:none;stroke-opacity:1"
           d="m 469.06,236.01 c 0,1.49 1.22,2.71 2.7,2.71 1.49,0 2.71,-1.22 2.71,-2.71 0,-1.48 -1.22,-2.7 -2.71,-2.7 -1.48,0 -2.7,1.22 -2.7,2.7" /><path
           id="path212"
           style="fill:#90353b;fill-opacity:1;fill-rule:nonzero;stroke:#90353b;stroke-width:0.70999998;stroke-linecap:round;stroke-linejoin:round;stroke-miterlimit:10;stroke-dasharray:none;stroke-opacity:1"
           d="m 94.69,236.36 c 0,1.48 1.22,2.7 2.7,2.7 1.49,0 2.7,-1.22 2.7,-2.7 0,-1.49 -1.21,-2.71 -2.7,-2.71 -1.48,0 -2.7,1.22 -2.7,2.71" /><path
           id="path214"
           style="fill:#90353b;fill-opacity:1;fill-rule:nonzero;stroke:#90353b;stroke-width:0.70999998;stroke-linecap:round;stroke-linejoin:round;stroke-miterlimit:10;stroke-dasharray:none;stroke-opacity:1"
           d="m 189.87,236.77 c 0,1.49 1.22,2.7 2.7,2.7 1.49,0 2.7,-1.21 2.7,-2.7 0,-1.48 -1.21,-2.7 -2.7,-2.7 -1.48,0 -2.7,1.22 -2.7,2.7" /><path
           id="path216"
           style="fill:#90353b;fill-opacity:1;fill-rule:nonzero;stroke:#90353b;stroke-width:0.70999998;stroke-linecap:round;stroke-linejoin:round;stroke-miterlimit:10;stroke-dasharray:none;stroke-opacity:1"
           d="m 285.05,232.75 c 0,1.49 1.21,2.71 2.7,2.71 1.49,0 2.7,-1.22 2.7,-2.71 0,-1.48 -1.21,-2.7 -2.7,-2.7 -1.49,0 -2.7,1.22 -2.7,2.7" /><path
           id="path218"
           style="fill:#90353b;fill-opacity:1;fill-rule:nonzero;stroke:#90353b;stroke-width:0.70999998;stroke-linecap:round;stroke-linejoin:round;stroke-miterlimit:10;stroke-dasharray:none;stroke-opacity:1"
           d="m 380.23,212.62 c 0,1.48 1.21,2.7 2.7,2.7 1.49,0 2.7,-1.22 2.7,-2.7 0,-1.49 -1.21,-2.71 -2.7,-2.71 -1.49,0 -2.7,1.22 -2.7,2.71" /><path
           id="path220"
           style="fill:#90353b;fill-opacity:1;fill-rule:nonzero;stroke:#90353b;stroke-width:0.70999998;stroke-linecap:round;stroke-linejoin:round;stroke-miterlimit:10;stroke-dasharray:none;stroke-opacity:1"
           d="m 475.41,222.85 c 0,1.48 1.21,2.7 2.7,2.7 1.49,0 2.7,-1.22 2.7,-2.7 0,-1.49 -1.21,-2.71 -2.7,-2.71 -1.49,0 -2.7,1.22 -2.7,2.71" /><path
           id="path222"
           style="fill:none;stroke:#333333;stroke-width:1.75;stroke-linecap:round;stroke-linejoin:round;stroke-miterlimit:10;stroke-dasharray:none;stroke-opacity:1"
           d="m 61.54,50.32 h 439.73 v 252.7 H 61.54 Z" /></g></g><g
       id="g224" /><g
       id="g226" /><g
       id="g228" /><g
       id="g230" /><g
       id="g232" /><g
       id="g234" /><g
       id="g236" /><g
       id="g238" /><g
       id="g240" /><g
       id="g242" /><g
       id="g244" /><g
       id="g246" /><g
       id="g248" /><g
       id="g250" /><g
       id="g252" /><g
       id="g254"><path
         id="path256"
         style="fill:#4d4d4d;fill-opacity:1;fill-rule:evenodd;stroke:none"
         d="m 49.47,66.81 v 0 L 48.87,66.76 48.32,66.6 47.82,66.34 47.38,65.97 46.99,65.51 46.66,64.95 46.4,64.3 46.21,63.56 46.09,62.73 46.05,61.82 v 0 l 0.04,-0.92 0.12,-0.83 0.19,-0.74 0.26,-0.65 0.33,-0.56 0.39,-0.47 0.44,-0.36 0.5,-0.27 0.55,-0.16 0.6,-0.05 v 0 l 0.59,0.05 0.55,0.16 0.5,0.27 0.45,0.36 0.39,0.47 0.32,0.56 0.26,0.65 0.19,0.74 0.12,0.83 0.04,0.92 v 0 l -0.04,0.91 -0.12,0.83 -0.19,0.74 -0.26,0.65 -0.32,0.56 -0.39,0.46 -0.45,0.37 -0.5,0.26 -0.55,0.16 z m 0,-0.67 v 0 l 0.38,-0.05 0.34,-0.13 0.3,-0.22 0.27,-0.3 0.23,-0.39 0.18,-0.48 0.15,-0.56 0.11,-0.65 0.06,-0.73 0.02,-0.81 v 0 L 51.49,61 51.43,60.27 51.32,59.63 51.17,59.06 50.99,58.59 50.76,58.2 50.49,57.89 50.19,57.67 49.85,57.54 49.47,57.5 v 0 l -0.38,0.04 -0.35,0.13 -0.3,0.22 -0.27,0.3 -0.23,0.39 -0.19,0.47 -0.15,0.56 -0.1,0.65 -0.07,0.73 -0.02,0.81 v 0 l 0.02,0.82 0.07,0.73 0.1,0.65 0.15,0.57 0.19,0.47 0.23,0.4 0.27,0.3 0.3,0.22 0.35,0.13 z" /><path
         id="path258"
         style="fill:#4d4d4d;fill-opacity:1;fill-rule:evenodd;stroke:none"
         d="m 39.49,104.06 v 0 l 0.91,0.74 0.82,0.68 0.74,0.65 0.64,0.61 0.54,0.58 0.46,0.56 0.35,0.55 0.26,0.53 0.15,0.54 0.05,0.54 v 0 l -0.03,0.47 -0.1,0.43 -0.16,0.4 -0.23,0.36 -0.28,0.31 -0.34,0.26 -0.39,0.21 -0.44,0.15 -0.49,0.1 -0.53,0.03 v 0 l -0.52,-0.03 -0.49,-0.09 -0.44,-0.13 -0.4,-0.18 -0.35,-0.21 -0.29,-0.24 -0.24,-0.27 -0.18,-0.28 -0.11,-0.3 -0.03,-0.3 v 0 -0.14 l 0.03,-0.13 0.04,-0.12 0.06,-0.11 0.08,-0.09 0.09,-0.08 0.11,-0.06 0.11,-0.04 0.14,-0.03 0.14,-0.01 v 0 h 0.07 l 0.07,0.01 0.07,0.01 0.06,0.02 0.07,0.02 0.06,0.02 0.06,0.03 0.07,0.03 0.06,0.04 0.06,0.04 v 1.54 0 l 0.13,0.07 0.13,0.06 0.13,0.05 0.12,0.05 0.13,0.03 0.13,0.03 0.13,0.03 0.12,0.01 0.13,0.01 h 0.13 v 0 l 0.35,-0.02 0.31,-0.07 0.28,-0.12 0.25,-0.16 0.22,-0.2 0.18,-0.24 0.14,-0.29 0.1,-0.32 0.07,-0.36 0.02,-0.39 v 0 l -0.06,-0.56 -0.16,-0.54 -0.26,-0.55 -0.36,-0.55 -0.46,-0.56 -0.55,-0.58 -0.65,-0.61 -0.73,-0.64 -0.82,-0.69 -0.91,-0.74 v -0.91 h 6.67 v 2.36 h -0.65 l -0.26,-1.22 z" /><path
         id="path260"
         style="fill:#4d4d4d;fill-opacity:1;fill-rule:evenodd;stroke:none"
         d="m 49.47,112.76 v 0 l -0.6,-0.06 -0.55,-0.16 -0.5,-0.26 -0.44,-0.36 -0.39,-0.47 -0.33,-0.55 -0.26,-0.66 -0.19,-0.74 -0.12,-0.82 -0.04,-0.92 v 0 l 0.04,-0.91 0.12,-0.83 0.19,-0.74 0.26,-0.66 0.33,-0.56 0.39,-0.46 0.44,-0.37 0.5,-0.26 0.55,-0.17 0.6,-0.05 v 0 l 0.59,0.05 0.55,0.17 0.5,0.26 0.45,0.37 0.39,0.46 0.32,0.56 0.26,0.66 0.19,0.74 0.12,0.83 0.04,0.91 v 0 l -0.04,0.92 -0.12,0.82 -0.19,0.74 -0.26,0.66 -0.32,0.55 -0.39,0.47 -0.45,0.36 -0.5,0.26 -0.55,0.16 z m 0,-0.68 v 0 l 0.38,-0.04 0.34,-0.13 0.3,-0.22 0.27,-0.31 0.23,-0.39 0.18,-0.48 0.15,-0.56 0.11,-0.64 0.06,-0.73 0.02,-0.82 v 0 l -0.02,-0.81 -0.06,-0.73 -0.11,-0.65 -0.15,-0.56 -0.18,-0.48 -0.23,-0.39 -0.27,-0.3 -0.3,-0.22 -0.34,-0.13 -0.38,-0.05 v 0 l -0.38,0.05 -0.35,0.13 -0.3,0.21 -0.27,0.31 -0.23,0.39 -0.19,0.47 -0.15,0.56 -0.1,0.64 -0.07,0.73 -0.02,0.82 v 0 l 0.02,0.82 0.07,0.73 0.1,0.65 0.15,0.56 0.19,0.48 0.23,0.39 0.27,0.31 0.3,0.22 0.35,0.13 z" /><path
         id="path262"
         style="fill:#4d4d4d;fill-opacity:1;fill-rule:evenodd;stroke:none"
         d="m 42.76,158.62 -4.91,-6.02 v -0.94 h 4.63 v -3.32 h 1.11 v 3.32 h 1.63 v 0.94 h -1.63 v 6.02 z m -0.28,-1.57 v -4.45 h -3.55 z" /><path
         id="path264"
         style="fill:#4d4d4d;fill-opacity:1;fill-rule:evenodd;stroke:none"
         d="m 49.47,158.7 v 0 l -0.6,-0.05 -0.55,-0.16 -0.5,-0.26 -0.44,-0.37 -0.39,-0.46 -0.33,-0.56 -0.26,-0.65 -0.19,-0.74 -0.12,-0.83 -0.04,-0.91 v 0 l 0.04,-0.92 0.12,-0.83 0.19,-0.74 0.26,-0.65 0.33,-0.56 0.39,-0.47 0.44,-0.36 0.5,-0.27 0.55,-0.16 0.6,-0.05 v 0 l 0.59,0.05 0.55,0.16 0.5,0.27 0.45,0.36 0.39,0.47 0.32,0.56 0.26,0.65 0.19,0.74 0.12,0.83 0.04,0.92 v 0 l -0.04,0.91 -0.12,0.83 -0.19,0.74 -0.26,0.65 -0.32,0.56 -0.39,0.46 -0.45,0.37 -0.5,0.26 -0.55,0.16 z m 0,-0.67 v 0 l 0.38,-0.05 0.34,-0.13 0.3,-0.22 0.27,-0.3 0.23,-0.39 0.18,-0.48 0.15,-0.56 0.11,-0.65 0.06,-0.73 0.02,-0.81 v 0 l -0.02,-0.82 -0.06,-0.73 -0.11,-0.64 -0.15,-0.57 -0.18,-0.47 -0.23,-0.39 -0.27,-0.31 -0.3,-0.22 -0.34,-0.13 -0.38,-0.04 v 0 l -0.38,0.04 -0.35,0.13 -0.3,0.22 -0.27,0.3 -0.23,0.39 -0.19,0.48 -0.15,0.56 -0.1,0.64 -0.07,0.73 -0.02,0.81 v 0 l 0.02,0.82 0.07,0.73 0.1,0.65 0.15,0.57 0.19,0.47 0.23,0.4 0.27,0.3 0.3,0.22 0.35,0.13 z" /><path
         id="path266"
         style="fill:#4d4d4d;fill-opacity:1;fill-rule:evenodd;stroke:none"
         d="m 43.84,205.1 v 0 l -1.02,-0.14 -0.93,-0.25 -0.83,-0.38 -0.74,-0.49 -0.64,-0.59 -0.53,-0.71 -0.42,-0.8 -0.3,-0.89 -0.19,-0.98 -0.06,-1.07 v 0 l 0.04,-0.74 0.12,-0.69 0.2,-0.61 0.26,-0.54 0.33,-0.47 0.38,-0.39 0.44,-0.31 0.49,-0.22 0.53,-0.14 0.56,-0.05 v 0 l 0.58,0.05 0.54,0.12 0.51,0.21 0.45,0.27 0.41,0.34 0.34,0.4 0.28,0.45 0.2,0.5 0.13,0.53 0.05,0.57 v 0 l -0.04,0.54 -0.11,0.49 -0.18,0.46 -0.23,0.41 -0.3,0.36 -0.34,0.3 -0.39,0.25 -0.44,0.18 -0.47,0.11 -0.5,0.04 v 0 l -0.25,-0.01 -0.26,-0.02 -0.25,-0.05 -0.25,-0.06 -0.25,-0.08 -0.24,-0.1 -0.25,-0.11 -0.23,-0.13 -0.24,-0.15 -0.23,-0.17 v 0 l 0.17,0.74 0.22,0.66 0.29,0.58 0.34,0.51 0.4,0.43 0.45,0.36 0.51,0.28 0.56,0.2 0.62,0.12 0.66,0.04 h 0.05 z m -4.29,-5.39 v 0 l 0.18,0.12 0.18,0.11 0.2,0.1 0.2,0.08 0.2,0.08 0.22,0.05 0.22,0.05 0.22,0.03 0.23,0.02 0.23,0.01 v 0 l 0.36,-0.03 0.33,-0.08 0.3,-0.13 0.27,-0.18 0.24,-0.23 0.2,-0.27 0.16,-0.31 0.12,-0.36 0.07,-0.39 0.03,-0.43 v 0 l -0.03,-0.44 -0.07,-0.42 -0.12,-0.38 -0.16,-0.34 -0.2,-0.3 -0.24,-0.25 -0.27,-0.21 -0.3,-0.15 -0.32,-0.1 -0.35,-0.03 v 0 l -0.39,0.04 -0.35,0.11 -0.32,0.18 -0.28,0.24 -0.23,0.32 -0.2,0.39 -0.16,0.46 -0.11,0.52 -0.07,0.59 -0.02,0.65 v 0 0.08 0.09 0.08 0.09 0.09 0.09 l 0.01,0.09 v 0.09 l 0.01,0.09 z" /><path
         id="path268"
         style="fill:#4d4d4d;fill-opacity:1;fill-rule:evenodd;stroke:none"
         d="m 49.47,204.65 v 0 l -0.6,-0.05 -0.55,-0.16 -0.5,-0.27 -0.44,-0.36 -0.39,-0.47 -0.33,-0.55 -0.26,-0.65 -0.19,-0.75 -0.12,-0.82 -0.04,-0.92 v 0 l 0.04,-0.91 0.12,-0.83 0.19,-0.74 0.26,-0.66 0.33,-0.56 0.39,-0.46 0.44,-0.37 0.5,-0.26 0.55,-0.16 0.6,-0.06 v 0 l 0.59,0.06 0.55,0.16 0.5,0.26 0.45,0.37 0.39,0.46 0.32,0.56 0.26,0.66 0.19,0.74 0.12,0.83 0.04,0.91 v 0 l -0.04,0.92 -0.12,0.82 -0.19,0.75 -0.26,0.65 -0.32,0.55 -0.39,0.47 -0.45,0.36 -0.5,0.27 -0.55,0.16 z m 0,-0.68 v 0 l 0.38,-0.04 0.34,-0.13 0.3,-0.22 0.27,-0.31 0.23,-0.39 0.18,-0.48 0.15,-0.56 0.11,-0.64 0.06,-0.73 0.02,-0.82 v 0 l -0.02,-0.81 -0.06,-0.73 -0.11,-0.65 -0.15,-0.56 -0.18,-0.48 -0.23,-0.39 -0.27,-0.3 -0.3,-0.22 -0.34,-0.13 -0.38,-0.05 v 0 l -0.38,0.05 -0.35,0.13 -0.3,0.21 -0.27,0.31 -0.23,0.39 -0.19,0.47 -0.15,0.56 -0.1,0.65 -0.07,0.72 -0.02,0.82 v 0 l 0.02,0.82 0.07,0.73 0.1,0.65 0.15,0.56 0.19,0.48 0.23,0.39 0.27,0.31 0.3,0.22 0.35,0.13 z" /><path
         id="path270"
         style="fill:#4d4d4d;fill-opacity:1;fill-rule:evenodd;stroke:none"
         d="m 42.08,246.07 v 0 l -0.45,0.17 -0.39,0.18 -0.36,0.19 -0.3,0.19 -0.25,0.21 -0.21,0.21 -0.17,0.23 -0.11,0.25 -0.07,0.26 -0.02,0.27 v 0 l 0.02,0.28 0.06,0.26 0.11,0.25 0.13,0.22 0.18,0.2 0.2,0.17 0.23,0.13 0.25,0.11 0.27,0.06 0.29,0.02 v 0 l 0.3,-0.02 0.28,-0.06 0.26,-0.1 0.23,-0.14 0.2,-0.18 0.16,-0.21 0.13,-0.25 0.1,-0.27 0.06,-0.31 0.02,-0.33 v 0 l -0.01,-0.23 -0.04,-0.22 -0.05,-0.22 -0.09,-0.22 -0.1,-0.21 -0.13,-0.2 -0.15,-0.19 -0.17,-0.18 -0.2,-0.16 z m 0.61,-0.26 v 0 l 0.3,0.18 0.28,0.2 0.24,0.21 0.22,0.22 0.18,0.24 0.16,0.25 0.11,0.26 0.09,0.27 0.05,0.28 0.02,0.28 v 0 l -0.03,0.41 -0.09,0.38 -0.16,0.35 -0.21,0.32 -0.26,0.28 -0.32,0.23 -0.37,0.19 -0.41,0.15 -0.46,0.08 -0.5,0.03 v 0 l -0.51,-0.03 -0.48,-0.09 -0.44,-0.15 -0.39,-0.2 -0.34,-0.26 -0.28,-0.3 -0.23,-0.34 -0.17,-0.38 -0.1,-0.41 -0.04,-0.44 v 0 l 0.02,-0.31 0.04,-0.28 0.08,-0.27 0.11,-0.25 0.14,-0.23 0.16,-0.22 0.2,-0.19 0.23,-0.18 0.25,-0.15 0.28,-0.14 v 0 l -0.37,-0.16 -0.33,-0.18 -0.3,-0.21 -0.26,-0.22 -0.21,-0.24 -0.18,-0.26 -0.14,-0.28 -0.1,-0.29 -0.06,-0.32 -0.02,-0.33 v 0 l 0.04,-0.47 0.11,-0.45 0.18,-0.4 0.25,-0.36 0.31,-0.32 0.37,-0.27 0.44,-0.22 0.49,-0.16 0.54,-0.1 0.6,-0.03 v 0 l 0.58,0.04 0.53,0.1 0.49,0.18 0.43,0.23 0.38,0.28 0.32,0.33 0.25,0.37 0.19,0.4 0.12,0.43 0.03,0.45 v 0 l -0.02,0.33 -0.06,0.31 -0.1,0.3 -0.15,0.28 -0.19,0.26 -0.23,0.24 -0.26,0.22 -0.31,0.2 -0.35,0.18 z m -2.08,-0.31 v 0 l 0.55,-0.21 0.49,-0.2 0.44,-0.19 0.37,-0.2 0.32,-0.2 0.26,-0.21 0.21,-0.23 0.14,-0.26 0.09,-0.29 0.03,-0.32 v 0 l -0.03,-0.33 -0.07,-0.3 -0.11,-0.28 -0.16,-0.25 -0.19,-0.22 -0.23,-0.19 -0.27,-0.14 -0.3,-0.11 -0.33,-0.07 -0.36,-0.02 v 0 l -0.4,0.02 -0.36,0.08 -0.34,0.12 -0.29,0.16 -0.26,0.2 -0.21,0.24 -0.17,0.28 -0.13,0.31 -0.07,0.34 -0.03,0.36 v 0 l 0.01,0.28 0.04,0.26 0.07,0.25 0.1,0.22 0.12,0.21 0.15,0.2 0.18,0.19 0.22,0.17 0.24,0.17 z" /><path
         id="path272"
         style="fill:#4d4d4d;fill-opacity:1;fill-rule:evenodd;stroke:none"
         d="m 49.47,250.59 v 0 l -0.6,-0.05 -0.55,-0.16 -0.5,-0.26 -0.44,-0.37 -0.39,-0.46 -0.33,-0.56 -0.26,-0.65 -0.19,-0.74 -0.12,-0.83 -0.04,-0.91 v 0 l 0.04,-0.92 0.12,-0.83 0.19,-0.74 0.26,-0.65 0.33,-0.56 0.39,-0.47 0.44,-0.36 0.5,-0.27 0.55,-0.16 0.6,-0.05 v 0 l 0.59,0.05 0.55,0.16 0.5,0.27 0.45,0.36 0.39,0.47 0.32,0.56 0.26,0.65 0.19,0.74 0.12,0.83 0.04,0.92 v 0 l -0.04,0.91 -0.12,0.83 -0.19,0.74 -0.26,0.65 -0.32,0.56 -0.39,0.46 -0.45,0.37 -0.5,0.26 -0.55,0.16 z m 0,-0.67 v 0 l 0.38,-0.05 0.34,-0.13 0.3,-0.22 0.27,-0.3 0.23,-0.39 0.18,-0.48 0.15,-0.56 0.11,-0.65 0.06,-0.73 0.02,-0.81 v 0 l -0.02,-0.82 -0.06,-0.73 -0.11,-0.64 -0.15,-0.56 -0.18,-0.48 -0.23,-0.39 -0.27,-0.31 -0.3,-0.22 -0.34,-0.13 -0.38,-0.04 v 0 l -0.38,0.04 -0.35,0.13 -0.3,0.22 -0.27,0.3 -0.23,0.39 -0.19,0.48 -0.15,0.56 -0.1,0.64 -0.07,0.73 -0.02,0.81 v 0 l 0.02,0.82 0.07,0.73 0.1,0.65 0.15,0.57 0.19,0.48 0.23,0.39 0.27,0.3 0.3,0.22 0.35,0.13 z" /><path
         id="path274"
         style="fill:#4d4d4d;fill-opacity:1;fill-rule:evenodd;stroke:none"
         d="M 33.93,296.54 30.81,295.6 V 295 l 2.26,0.4 v -7.74 l -0.18,-0.25 -1.65,-0.09 v -0.62 h 4.82 v 0.61 l -1.55,0.07 -0.18,0.22 v 8.94 z" /><path
         id="path276"
         style="fill:#4d4d4d;fill-opacity:1;fill-rule:evenodd;stroke:none"
         d="m 41.46,296.54 v 0 l -0.59,-0.05 -0.55,-0.16 -0.5,-0.27 -0.45,-0.36 -0.39,-0.47 -0.32,-0.55 -0.26,-0.65 -0.19,-0.75 -0.12,-0.82 -0.04,-0.92 v 0 l 0.04,-0.91 0.12,-0.83 0.19,-0.74 0.26,-0.66 0.32,-0.56 0.39,-0.46 0.45,-0.37 0.5,-0.26 0.55,-0.16 0.59,-0.06 v 0 l 0.6,0.06 0.55,0.16 0.5,0.26 0.44,0.37 0.39,0.46 0.33,0.56 0.26,0.66 0.19,0.74 0.11,0.83 0.04,0.91 v 0 l -0.04,0.92 -0.11,0.82 -0.19,0.75 -0.26,0.65 -0.33,0.55 -0.39,0.47 -0.44,0.36 -0.5,0.27 -0.55,0.16 z m 0,-0.68 v 0 l 0.38,-0.04 0.34,-0.13 0.31,-0.22 0.26,-0.31 0.23,-0.39 0.19,-0.47 0.14,-0.57 0.11,-0.64 0.06,-0.73 0.03,-0.82 v 0 l -0.03,-0.81 -0.06,-0.73 -0.11,-0.65 -0.14,-0.56 -0.19,-0.48 -0.23,-0.39 -0.26,-0.3 -0.31,-0.22 -0.34,-0.13 -0.38,-0.05 v 0 l -0.38,0.05 -0.34,0.13 -0.31,0.21 -0.27,0.31 -0.23,0.39 -0.18,0.47 -0.15,0.56 -0.11,0.65 -0.07,0.73 -0.02,0.81 v 0 l 0.02,0.82 0.07,0.73 0.11,0.65 0.15,0.56 0.18,0.48 0.23,0.39 0.27,0.31 0.31,0.22 0.34,0.13 z" /><path
         id="path278"
         style="fill:#4d4d4d;fill-opacity:1;fill-rule:evenodd;stroke:none"
         d="m 49.47,296.54 v 0 l -0.6,-0.05 -0.55,-0.16 -0.5,-0.27 -0.44,-0.36 -0.39,-0.47 -0.33,-0.55 -0.26,-0.65 -0.19,-0.75 -0.12,-0.82 -0.04,-0.92 v 0 l 0.04,-0.91 0.12,-0.83 0.19,-0.74 0.26,-0.66 0.33,-0.56 0.39,-0.46 0.44,-0.37 0.5,-0.26 0.55,-0.16 0.6,-0.06 v 0 l 0.59,0.06 0.55,0.16 0.5,0.26 0.45,0.37 0.39,0.46 0.32,0.56 0.26,0.66 0.19,0.74 0.12,0.83 0.04,0.91 v 0 l -0.04,0.92 -0.12,0.82 -0.19,0.75 -0.26,0.65 -0.32,0.55 -0.39,0.47 -0.45,0.36 -0.5,0.27 -0.55,0.16 z m 0,-0.68 v 0 l 0.38,-0.04 0.34,-0.13 0.3,-0.22 0.27,-0.31 0.23,-0.39 0.18,-0.47 0.15,-0.57 0.11,-0.64 0.06,-0.73 0.02,-0.82 v 0 l -0.02,-0.81 -0.06,-0.73 -0.11,-0.65 -0.15,-0.56 -0.18,-0.48 -0.23,-0.39 -0.27,-0.3 -0.3,-0.22 -0.34,-0.13 -0.38,-0.05 v 0 l -0.38,0.05 -0.35,0.13 -0.3,0.21 -0.27,0.31 -0.23,0.39 -0.19,0.47 -0.15,0.56 -0.1,0.65 -0.07,0.73 -0.02,0.81 v 0 l 0.02,0.82 0.07,0.73 0.1,0.65 0.15,0.56 0.19,0.48 0.23,0.39 0.27,0.31 0.3,0.22 0.35,0.13 z" /></g><g
       id="g280" /><g
       id="g282"><path
         id="path284"
         style="fill:none;stroke:#333333;stroke-width:1.75;stroke-linecap:butt;stroke-linejoin:round;stroke-miterlimit:10;stroke-dasharray:none;stroke-opacity:1"
         d="m 57.06,61.81 h 4.48" /><path
         id="path286"
         style="fill:none;stroke:#333333;stroke-width:1.75;stroke-linecap:butt;stroke-linejoin:round;stroke-miterlimit:10;stroke-dasharray:none;stroke-opacity:1"
         d="m 57.06,107.75 h 4.48" /><path
         id="path288"
         style="fill:none;stroke:#333333;stroke-width:1.75;stroke-linecap:butt;stroke-linejoin:round;stroke-miterlimit:10;stroke-dasharray:none;stroke-opacity:1"
         d="m 57.06,153.7 h 4.48" /><path
         id="path290"
         style="fill:none;stroke:#333333;stroke-width:1.75;stroke-linecap:butt;stroke-linejoin:round;stroke-miterlimit:10;stroke-dasharray:none;stroke-opacity:1"
         d="m 57.06,199.65 h 4.48" /><path
         id="path292"
         style="fill:none;stroke:#333333;stroke-width:1.75;stroke-linecap:butt;stroke-linejoin:round;stroke-miterlimit:10;stroke-dasharray:none;stroke-opacity:1"
         d="m 57.06,245.59 h 4.48" /><path
         id="path294"
         style="fill:none;stroke:#333333;stroke-width:1.75;stroke-linecap:butt;stroke-linejoin:round;stroke-miterlimit:10;stroke-dasharray:none;stroke-opacity:1"
         d="m 57.06,291.54 h 4.48" /></g><g
       id="g296" /><g
       id="g298" /><g
       id="g300" /><g
       id="g302" /><g
       id="g304" /><g
       id="g306" /><g
       id="g308" /><g
       id="g310" /><g
       id="g312" /><g
       id="g314"><path
         id="path316"
         style="fill:none;stroke:#333333;stroke-width:1.75;stroke-linecap:butt;stroke-linejoin:round;stroke-miterlimit:10;stroke-dasharray:none;stroke-opacity:1"
         d="m 91.05,45.84 v 4.48" /><path
         id="path318"
         style="fill:none;stroke:#333333;stroke-width:1.75;stroke-linecap:butt;stroke-linejoin:round;stroke-miterlimit:10;stroke-dasharray:none;stroke-opacity:1"
         d="m 186.23,45.84 v 4.48" /><path
         id="path320"
         style="fill:none;stroke:#333333;stroke-width:1.75;stroke-linecap:butt;stroke-linejoin:round;stroke-miterlimit:10;stroke-dasharray:none;stroke-opacity:1"
         d="m 281.41,45.84 v 4.48" /><path
         id="path322"
         style="fill:none;stroke:#333333;stroke-width:1.75;stroke-linecap:butt;stroke-linejoin:round;stroke-miterlimit:10;stroke-dasharray:none;stroke-opacity:1"
         d="m 376.58,45.84 v 4.48" /><path
         id="path324"
         style="fill:none;stroke:#333333;stroke-width:1.75;stroke-linecap:butt;stroke-linejoin:round;stroke-miterlimit:10;stroke-dasharray:none;stroke-opacity:1"
         d="m 471.76,45.84 v 4.48" /></g><g
       id="g326" /><g
       id="g328"><path
         id="path330"
         style="fill:#4d4d4d;fill-opacity:1;fill-rule:evenodd;stroke:none"
         d="M 91.52,42.43 88.4,41.49 v -0.6 l 2.26,0.4 V 33.54 L 90.48,33.3 88.83,33.21 v -0.62 h 4.82 v 0.61 l -1.55,0.07 -0.18,0.21 v 8.95 z" /><path
         id="path332"
         style="fill:#4d4d4d;fill-opacity:1;fill-rule:evenodd;stroke:none"
         d="m 184.25,33.73 v 0 l 0.91,0.73 0.83,0.69 0.73,0.64 0.64,0.61 0.55,0.59 0.45,0.56 0.36,0.54 0.25,0.54 0.16,0.53 0.05,0.54 v 0 l -0.04,0.48 -0.1,0.43 -0.16,0.4 -0.22,0.36 -0.28,0.31 -0.34,0.26 -0.39,0.21 -0.44,0.15 -0.49,0.09 -0.54,0.04 v 0 l -0.52,-0.03 -0.48,-0.09 -0.44,-0.13 -0.4,-0.18 -0.35,-0.21 -0.3,-0.24 -0.24,-0.27 -0.17,-0.29 -0.11,-0.29 -0.04,-0.3 v 0 l 0.01,-0.15 0.03,-0.13 0.04,-0.11 0.06,-0.11 0.07,-0.09 0.09,-0.08 0.11,-0.06 0.12,-0.04 0.13,-0.03 0.15,-0.01 v 0 H 184 l 0.07,0.01 0.07,0.01 0.07,0.01 0.06,0.02 0.07,0.03 0.06,0.03 0.06,0.03 0.06,0.03 0.06,0.05 v 1.54 0 l 0.13,0.07 0.13,0.06 0.13,0.05 0.13,0.04 0.12,0.04 0.13,0.03 0.13,0.02 0.13,0.02 0.13,0.01 h 0.13 v 0 l 0.34,-0.02 0.31,-0.07 0.29,-0.12 0.25,-0.16 0.21,-0.2 0.18,-0.25 0.14,-0.28 0.11,-0.32 0.06,-0.36 0.02,-0.39 v 0 l -0.05,-0.56 -0.16,-0.55 -0.26,-0.54 -0.36,-0.55 -0.46,-0.56 -0.56,-0.58 -0.64,-0.61 -0.74,-0.64 -0.82,-0.69 -0.9,-0.74 v -0.91 h 6.66 v 2.36 h -0.64 l -0.26,-1.22 z" /><path
         id="path334"
         style="fill:#4d4d4d;fill-opacity:1;fill-rule:evenodd;stroke:none"
         d="m 281.97,37.67 v 0 l 0.4,0.14 0.36,0.15 0.32,0.19 0.28,0.2 0.24,0.23 0.19,0.24 0.16,0.27 0.1,0.29 0.07,0.3 0.02,0.33 v 0 l -0.03,0.42 -0.1,0.39 -0.15,0.35 -0.22,0.32 -0.27,0.27 -0.32,0.23 -0.37,0.19 -0.42,0.13 -0.46,0.09 -0.49,0.03 v 0 l -0.53,-0.03 -0.48,-0.08 -0.44,-0.13 -0.4,-0.16 -0.35,-0.21 -0.29,-0.22 -0.24,-0.26 -0.17,-0.27 -0.11,-0.27 -0.03,-0.29 v 0 l 0.01,-0.13 0.02,-0.13 0.05,-0.11 0.06,-0.1 0.07,-0.09 0.09,-0.08 0.1,-0.06 0.12,-0.04 0.12,-0.03 0.13,-0.01 v 0 h 0.07 l 0.07,0.01 0.06,0.01 0.06,0.01 0.06,0.02 0.06,0.02 0.05,0.02 0.06,0.03 0.05,0.03 0.06,0.04 v 1.35 0 l 0.12,0.09 0.13,0.07 0.13,0.06 0.13,0.06 0.14,0.04 0.13,0.04 0.14,0.03 0.15,0.02 0.14,0.01 h 0.15 v 0 l 0.32,-0.02 0.3,-0.06 0.27,-0.11 0.24,-0.14 0.2,-0.18 0.18,-0.21 0.14,-0.24 0.1,-0.28 0.06,-0.3 0.02,-0.33 v 0 l -0.02,-0.34 -0.07,-0.3 -0.12,-0.28 -0.15,-0.24 -0.21,-0.21 -0.25,-0.17 -0.29,-0.14 -0.33,-0.1 -0.37,-0.06 -0.42,-0.02 v 0 h -0.03 -0.03 l -0.03,0.01 h -0.03 -0.03 -0.03 -0.03 -0.03 l -0.03,0.01 h -0.03 v -0.85 0 l 0.08,0.01 0.08,0.01 0.08,0.01 0.08,0.01 h 0.08 l 0.07,0.01 h 0.08 0.07 0.07 0.07 v 0 l 0.4,-0.02 0.35,-0.05 0.32,-0.1 0.28,-0.13 0.23,-0.17 0.2,-0.2 0.15,-0.24 0.11,-0.26 0.07,-0.3 0.02,-0.33 v 0 l -0.03,-0.37 -0.08,-0.35 -0.13,-0.33 -0.18,-0.3 -0.22,-0.26 -0.26,-0.23 -0.29,-0.18 -0.33,-0.14 -0.36,-0.08 -0.38,-0.03 v 0 h -0.13 l -0.12,0.01 -0.13,0.02 -0.12,0.02 -0.13,0.04 -0.12,0.03 -0.12,0.05 -0.12,0.05 -0.12,0.06 -0.11,0.06 -0.45,1.23 v 0 l -0.05,0.01 -0.04,0.02 -0.05,0.01 -0.04,0.01 -0.05,0.01 h -0.04 l -0.04,0.01 h -0.04 -0.04 -0.04 v 0 l -0.14,-0.01 -0.12,-0.03 -0.12,-0.04 -0.1,-0.06 -0.1,-0.07 -0.08,-0.08 -0.06,-0.1 -0.05,-0.11 -0.03,-0.11 -0.01,-0.12 v 0 l 0.04,-0.23 0.09,-0.22 0.16,-0.22 0.22,-0.21 0.28,-0.19 0.32,-0.17 0.37,-0.14 0.42,-0.11 0.46,-0.07 0.49,-0.03 v 0 l 0.64,0.04 0.59,0.11 0.54,0.18 0.47,0.24 0.42,0.29 0.34,0.34 0.28,0.38 0.2,0.42 0.12,0.45 0.05,0.48 v 0 l -0.03,0.38 -0.08,0.35 -0.14,0.32 -0.18,0.29 -0.23,0.26 -0.29,0.23 -0.32,0.18 -0.38,0.14 -0.41,0.11 z" /><path
         id="path336"
         style="fill:#4d4d4d;fill-opacity:1;fill-rule:evenodd;stroke:none"
         d="m 377.88,42.34 -4.91,-6.02 v -0.94 h 4.64 v -3.32 h 1.11 v 3.32 h 1.62 v 0.94 h -1.62 v 6.02 z m -0.27,-1.57 v -4.45 h -3.56 z" /><path
         id="path338"
         style="fill:#4d4d4d;fill-opacity:1;fill-rule:evenodd;stroke:none"
         d="m 469.22,42.25 v -4.75 0 l 0.09,0.02 0.11,0.01 0.11,0.02 0.11,0.01 0.13,0.01 h 0.13 l 0.13,0.01 h 0.15 l 0.15,0.01 h 0.15 v 0 l 0.57,-0.02 0.51,-0.06 0.45,-0.11 0.39,-0.15 0.33,-0.19 0.27,-0.23 0.21,-0.28 0.15,-0.33 0.09,-0.37 0.03,-0.42 v 0 l -0.03,-0.39 -0.08,-0.37 -0.13,-0.33 -0.17,-0.3 -0.22,-0.27 -0.26,-0.22 -0.3,-0.18 -0.33,-0.14 -0.36,-0.08 -0.4,-0.03 v 0 l -0.09,0.01 h -0.1 l -0.1,0.01 -0.09,0.01 -0.1,0.02 -0.1,0.02 -0.09,0.02 -0.1,0.02 -0.1,0.03 -0.09,0.04 -0.58,1.23 v 0 l -0.04,0.01 -0.04,0.01 -0.04,0.01 h -0.04 l -0.03,0.01 h -0.04 -0.03 l -0.03,0.01 h -0.03 -0.02 v 0 l -0.15,-0.01 -0.13,-0.03 -0.12,-0.04 -0.11,-0.06 -0.1,-0.08 -0.08,-0.08 -0.06,-0.1 -0.05,-0.11 -0.03,-0.13 -0.01,-0.13 v 0 l 0.03,-0.2 0.09,-0.2 0.14,-0.19 0.19,-0.18 0.23,-0.16 0.29,-0.14 0.32,-0.12 0.36,-0.08 0.4,-0.06 0.43,-0.02 v 0 l 0.68,0.04 0.62,0.12 0.57,0.19 0.5,0.26 0.44,0.32 0.36,0.38 0.29,0.42 0.21,0.47 0.13,0.51 0.04,0.55 v 0 l -0.03,0.47 -0.11,0.44 -0.17,0.41 -0.24,0.36 -0.3,0.31 -0.36,0.27 -0.41,0.21 -0.46,0.16 -0.51,0.1 -0.56,0.03 v 0 h -0.14 l -0.14,-0.01 -0.15,-0.01 -0.15,-0.02 -0.15,-0.02 -0.16,-0.02 -0.16,-0.03 -0.16,-0.04 -0.16,-0.04 -0.17,-0.04 v 2.88 h 4.26 v 1.12 z" /></g><g
       id="g340" /><g
       id="g342" /><g
       id="g344" /><g
       id="g346" /><g
       id="g348" /><g
       id="g350"><path
         id="path352"
         style="fill:#000000;fill-opacity:1;fill-rule:evenodd;stroke:none"
         d="m 256.66,12.89 h 4.54 v 0.74 l -1.28,0.09 -0.3,0.25 v 3.55 0 l 0.16,-0.02 0.16,-0.01 0.15,-0.02 0.14,-0.01 0.14,-0.01 0.13,-0.01 h 0.13 l 0.12,-0.01 h 0.11 0.11 v 0 l 0.83,0.04 0.76,0.14 0.69,0.22 0.61,0.3 0.52,0.37 0.44,0.44 0.35,0.5 0.25,0.57 0.16,0.62 0.05,0.67 v 0 l -0.05,0.76 -0.14,0.67 -0.24,0.57 -0.34,0.47 -0.44,0.39 -0.54,0.3 -0.65,0.23 -0.76,0.16 -0.87,0.09 -0.98,0.03 h -4.1 v -0.72 l 1.17,-0.11 0.31,-0.25 v -9.92 l -0.31,-0.25 -1.03,-0.09 z m 2.96,5.49 v 5.72 0 l 0.09,0.01 0.1,0.01 0.1,0.01 H 260 l 0.1,0.01 h 0.09 0.09 0.1 0.08 0.09 v 0 l 0.66,-0.03 0.58,-0.08 0.51,-0.13 0.45,-0.19 0.37,-0.25 0.3,-0.31 0.23,-0.36 0.17,-0.43 0.1,-0.48 0.03,-0.55 v 0 l -0.03,-0.56 -0.1,-0.51 -0.16,-0.46 -0.22,-0.39 -0.29,-0.34 -0.35,-0.28 -0.41,-0.22 -0.47,-0.15 -0.53,-0.1 -0.59,-0.03 v 0 h -0.08 -0.09 l -0.1,0.01 -0.11,0.01 -0.12,0.01 -0.12,0.01 -0.13,0.01 -0.14,0.01 -0.14,0.01 z" /><path
         id="path354"
         style="fill:#000000;fill-opacity:1;fill-rule:evenodd;stroke:none"
         d="m 274.18,14.8 v 0 l -0.31,-0.2 -0.29,-0.17 -0.29,-0.16 -0.29,-0.13 -0.28,-0.12 -0.28,-0.1 -0.27,-0.07 -0.28,-0.05 -0.27,-0.03 -0.27,-0.02 v 0 l -0.52,0.04 -0.49,0.13 -0.44,0.19 -0.4,0.27 -0.34,0.35 -0.29,0.41 -0.23,0.48 -0.17,0.54 -0.11,0.6 -0.03,0.67 v 0.19 h 5.83 v 0 l 0.01,0.06 v 0.06 0.06 0.05 l 0.01,0.06 v 0.06 0.05 0.05 0.06 0.05 0 l -0.04,0.64 -0.11,0.58 -0.18,0.52 -0.25,0.47 -0.31,0.4 -0.36,0.33 -0.43,0.26 -0.47,0.19 -0.52,0.12 -0.57,0.04 v 0 l -0.7,-0.06 -0.66,-0.16 -0.6,-0.26 -0.55,-0.35 -0.48,-0.44 -0.4,-0.52 -0.33,-0.6 -0.24,-0.66 -0.15,-0.74 -0.05,-0.78 v 0 l 0.05,-0.77 0.14,-0.71 0.23,-0.65 0.31,-0.58 0.39,-0.5 0.45,-0.43 0.53,-0.34 0.58,-0.25 0.64,-0.15 0.69,-0.05 v 0 l 0.35,0.01 0.34,0.03 0.34,0.06 0.34,0.07 0.35,0.1 0.34,0.12 0.34,0.14 0.33,0.16 0.33,0.18 0.33,0.21 z m -1.6,3.58 h -4.16 v 0 l 0.06,0.44 0.11,0.41 0.15,0.37 0.2,0.33 0.23,0.29 0.26,0.25 0.29,0.19 0.31,0.14 0.33,0.09 0.34,0.03 v 0 l 0.35,-0.03 0.31,-0.07 0.28,-0.11 0.24,-0.16 0.21,-0.21 0.17,-0.25 0.14,-0.29 0.1,-0.34 0.06,-0.37 0.02,-0.42 z" /><path
         id="path356"
         style="fill:#000000;fill-opacity:1;fill-rule:evenodd;stroke:none"
         d="m 275.49,12.89 h 4.34 v 0.65 l -1.26,0.09 -0.31,0.29 v 5.14 0 l 0.22,0.25 0.21,0.22 0.21,0.2 0.2,0.17 0.2,0.15 0.19,0.11 0.19,0.1 0.18,0.06 0.19,0.04 0.18,0.02 v 0 l 0.11,-0.01 0.1,-0.01 0.11,-0.02 0.1,-0.03 0.09,-0.04 0.09,-0.05 0.08,-0.05 0.09,-0.07 0.07,-0.07 0.07,-0.08 h 0.58 v 1.54 0 l -0.11,0.05 -0.11,0.04 -0.11,0.04 -0.11,0.03 -0.11,0.02 -0.1,0.02 -0.11,0.02 -0.11,0.01 -0.1,0.01 h -0.11 v 0 h -0.04 -0.05 -0.04 -0.05 l -0.04,-0.01 h -0.05 -0.05 l -0.04,-0.01 -0.05,-0.01 -0.04,-0.01 v 0 l -0.19,-0.16 -0.2,-0.16 -0.19,-0.16 -0.2,-0.17 -0.19,-0.17 -0.19,-0.18 -0.19,-0.18 -0.2,-0.18 -0.19,-0.19 -0.19,-0.19 v 1.69 h -0.68 l -2.09,-0.65 v -0.56 h 1.28 v -6.51 l -0.32,-0.29 -0.96,-0.09 z" /><path
         id="path358"
         style="fill:#000000;fill-opacity:1;fill-rule:evenodd;stroke:none"
         d="m 284.6,25.63 v 0 l -0.17,-0.01 -0.16,-0.04 -0.15,-0.06 -0.14,-0.08 -0.12,-0.1 -0.1,-0.13 -0.09,-0.13 -0.06,-0.15 -0.04,-0.17 -0.01,-0.17 v 0 l 0.01,-0.17 0.04,-0.16 0.06,-0.15 0.09,-0.13 0.1,-0.12 0.12,-0.1 0.14,-0.08 0.15,-0.06 0.16,-0.04 0.17,-0.02 v 0 l 0.17,0.02 0.16,0.04 0.15,0.06 0.14,0.08 0.12,0.1 0.1,0.12 0.09,0.13 0.06,0.15 0.04,0.16 0.01,0.17 v 0 l -0.01,0.17 -0.04,0.16 -0.06,0.15 -0.09,0.14 -0.1,0.12 -0.12,0.1 -0.14,0.09 -0.15,0.06 -0.16,0.04 z m -0.07,-3.99 -2.07,-0.65 v -0.56 h 1.26 v -6.51 l -0.31,-0.29 -0.95,-0.09 v -0.65 h 4.05 v 0.65 l -0.97,0.09 -0.33,0.29 v 7.72 z" /><path
         id="path360"
         style="fill:#000000;fill-opacity:1;fill-rule:evenodd;stroke:none"
         d="m 291.71,21.73 v 0 l -0.71,-0.06 -0.66,-0.15 -0.6,-0.26 -0.55,-0.34 -0.48,-0.44 -0.41,-0.51 -0.32,-0.59 -0.24,-0.65 -0.15,-0.72 -0.06,-0.78 v 0 l 0.06,-0.77 0.15,-0.72 0.24,-0.66 0.33,-0.59 0.41,-0.51 0.48,-0.43 0.54,-0.35 0.61,-0.26 0.66,-0.16 0.7,-0.05 v 0 l 0.7,0.05 0.66,0.16 0.61,0.26 0.55,0.35 0.48,0.43 0.41,0.51 0.33,0.59 0.25,0.66 0.15,0.72 0.05,0.77 v 0 l -0.05,0.77 -0.15,0.72 -0.24,0.66 -0.33,0.58 -0.41,0.52 -0.48,0.43 -0.55,0.35 -0.61,0.26 -0.66,0.15 z m 0,-0.78 v 0 l 0.42,-0.04 0.4,-0.12 0.36,-0.2 0.33,-0.28 0.29,-0.35 0.24,-0.42 0.2,-0.48 0.14,-0.55 0.09,-0.61 0.03,-0.67 v 0 l -0.03,-0.67 -0.09,-0.62 -0.14,-0.55 -0.2,-0.48 -0.24,-0.42 -0.29,-0.35 -0.33,-0.28 -0.36,-0.19 -0.4,-0.13 -0.42,-0.04 v 0 l -0.42,0.04 -0.39,0.13 -0.36,0.2 -0.33,0.28 -0.28,0.34 -0.24,0.42 -0.2,0.49 -0.14,0.55 -0.09,0.61 -0.03,0.67 v 0 l 0.03,0.67 0.08,0.61 0.15,0.56 0.19,0.48 0.24,0.42 0.29,0.35 0.32,0.27 0.36,0.2 0.4,0.12 z" /><path
         id="path362"
         style="fill:#000000;fill-opacity:1;fill-rule:evenodd;stroke:none"
         d="m 303.46,24.93 v -3.38 0 l -0.16,0.03 -0.17,0.04 -0.16,0.03 -0.17,0.02 -0.16,0.02 -0.16,0.02 -0.15,0.02 -0.16,0.01 h -0.16 l -0.15,0.01 v 0 l -0.79,-0.06 -0.74,-0.17 -0.68,-0.27 -0.6,-0.37 -0.54,-0.46 -0.45,-0.54 -0.36,-0.63 -0.26,-0.7 -0.17,-0.78 -0.05,-0.83 v 0 l 0.04,-0.73 0.13,-0.68 0.21,-0.61 0.28,-0.55 0.34,-0.48 0.4,-0.4 0.46,-0.33 0.5,-0.24 0.54,-0.14 0.57,-0.05 v 0 l 0.3,0.01 0.28,0.03 0.28,0.06 0.28,0.07 0.28,0.1 0.27,0.12 0.27,0.14 0.27,0.17 0.27,0.19 0.27,0.21 v -0.94 h 2.67 v 0.65 l -0.87,0.09 -0.3,0.29 v 12.22 h -0.69 l -2.19,-0.65 v -0.56 z m 0,-10.44 v 0 l -0.2,-0.12 -0.19,-0.1 -0.2,-0.1 -0.2,-0.08 -0.19,-0.07 -0.2,-0.06 -0.19,-0.04 -0.2,-0.03 -0.19,-0.02 -0.2,-0.01 v 0 l -0.47,0.04 -0.43,0.11 -0.4,0.19 -0.35,0.25 -0.31,0.31 -0.25,0.39 -0.21,0.44 -0.15,0.5 -0.1,0.55 -0.03,0.61 v 0 l 0.04,0.65 0.11,0.6 0.17,0.54 0.24,0.48 0.3,0.42 0.35,0.36 0.4,0.28 0.45,0.2 0.49,0.13 0.53,0.04 v 0 h 0.13 l 0.14,-0.01 0.15,-0.01 0.15,-0.03 0.15,-0.02 0.17,-0.03 0.16,-0.04 0.18,-0.04 0.17,-0.05 0.18,-0.05 z" /></g><g
       id="g364" /><g
       id="g366"><path
         id="path368"
         style="fill:#000000;fill-opacity:1;fill-rule:evenodd;stroke:none"
         d="m 21.04,113.38 v 4.55 h -0.73 l -0.09,-1.15 -0.26,-0.31 h -9.91 l -0.26,0.31 -0.1,1.15 H 8.97 v -4.55 h 0.72 l 0.1,1.15 0.26,0.3 h 9.91 l 0.26,-0.3 0.09,-1.15 z" /><path
         id="path370"
         style="fill:#000000;fill-opacity:1;fill-rule:evenodd;stroke:none"
         d="m 21.04,119.12 v 3.94 H 20.4 l -0.09,-0.86 -0.29,-0.31 h -6.03 v 0 l -0.11,0.23 -0.11,0.22 -0.08,0.22 -0.08,0.21 -0.07,0.2 -0.05,0.2 -0.04,0.19 -0.03,0.19 -0.02,0.18 -0.01,0.18 v 0 l 0.02,0.37 0.05,0.33 0.09,0.28 0.12,0.23 0.16,0.19 0.2,0.16 0.24,0.11 0.28,0.08 0.33,0.05 0.37,0.01 h 4.77 l 0.29,-0.3 0.09,-0.87 h 0.64 v 3.95 H 20.4 l -0.09,-0.98 -0.29,-0.3 h -5.08 v 0 l -0.51,-0.03 -0.46,-0.07 -0.41,-0.13 -0.36,-0.18 -0.3,-0.22 -0.25,-0.27 -0.19,-0.32 -0.14,-0.36 -0.09,-0.4 -0.02,-0.45 v 0 l 0.01,-0.24 0.03,-0.25 0.06,-0.25 0.08,-0.27 0.11,-0.28 0.12,-0.29 0.14,-0.31 0.16,-0.32 0.17,-0.34 0.2,-0.35 H 12.3 v -0.68 l 0.64,-2.09 h 0.56 v 1.28 h 6.52 l 0.29,-0.31 0.09,-0.97 z" /><path
         id="path372"
         style="fill:#000000;fill-opacity:1;fill-rule:evenodd;stroke:none"
         d="m 12.39,128.71 h 0.66 l 0.11,1.1 7.88,2.9 v 1.01 l -7.84,3.15 -0.15,1.06 h -0.66 v -3.19 h 0.66 l 0.07,0.97 0.29,0.15 5.89,-2.31 -5.89,-2.1 -0.29,0.21 -0.07,0.96 h -0.66 z" /><path
         id="path374"
         style="fill:#000000;fill-opacity:1;fill-rule:evenodd;stroke:none"
         d="m 19.14,145.76 v 0 l 0.19,-0.31 0.18,-0.29 0.15,-0.3 0.14,-0.28 0.11,-0.28 0.1,-0.28 0.07,-0.27 0.06,-0.28 0.03,-0.27 0.01,-0.27 v 0 l -0.04,-0.52 -0.12,-0.49 -0.2,-0.44 -0.27,-0.4 -0.34,-0.34 -0.41,-0.29 -0.48,-0.23 -0.54,-0.17 -0.61,-0.11 -0.66,-0.03 h -0.2 v 5.83 0 h -0.06 l -0.06,0.01 h -0.05 -0.06 l -0.06,0.01 h -0.05 -0.06 -0.05 -0.05 -0.06 v 0 l -0.63,-0.04 -0.59,-0.11 -0.52,-0.18 -0.46,-0.25 -0.4,-0.31 -0.33,-0.36 -0.27,-0.43 -0.19,-0.47 -0.11,-0.52 -0.04,-0.57 v 0 l 0.05,-0.7 0.16,-0.66 0.26,-0.6 0.35,-0.55 0.44,-0.48 0.52,-0.4 0.6,-0.33 0.67,-0.24 0.73,-0.15 0.79,-0.05 v 0 l 0.77,0.05 0.7,0.14 0.65,0.23 0.58,0.31 0.5,0.39 0.43,0.45 0.34,0.53 0.25,0.58 0.15,0.64 0.06,0.69 v 0 l -0.01,0.34 -0.04,0.35 -0.05,0.34 -0.08,0.34 -0.09,0.35 -0.12,0.34 -0.14,0.33 -0.16,0.34 -0.19,0.33 -0.2,0.33 z m -3.59,-1.6 v -4.16 0 l -0.44,0.06 -0.41,0.11 -0.37,0.15 -0.33,0.2 -0.29,0.23 -0.24,0.26 -0.19,0.29 -0.15,0.31 -0.08,0.33 -0.03,0.34 v 0 l 0.02,0.35 0.07,0.31 0.12,0.28 0.16,0.24 0.2,0.21 0.25,0.17 0.3,0.14 0.33,0.1 0.38,0.06 0.42,0.02 z" /><path
         id="path376"
         style="fill:#000000;fill-opacity:1;fill-rule:evenodd;stroke:none"
         d="m 12.6,152.72 v 0 l -0.07,-0.18 -0.07,-0.19 -0.06,-0.2 -0.05,-0.2 -0.05,-0.21 -0.03,-0.22 -0.03,-0.21 -0.02,-0.23 -0.01,-0.23 v -0.23 0 l 0.02,-0.59 0.09,-0.53 0.13,-0.48 0.19,-0.41 0.23,-0.35 0.29,-0.3 0.32,-0.23 0.38,-0.16 0.41,-0.1 0.46,-0.04 v 0 l 0.34,0.03 0.31,0.07 0.28,0.11 0.26,0.17 0.24,0.21 0.22,0.26 0.21,0.3 0.2,0.34 0.2,0.4 0.2,0.43 v 0 l 0.16,0.34 0.15,0.31 0.14,0.27 0.15,0.24 0.15,0.21 0.17,0.17 0.18,0.13 0.21,0.09 0.23,0.06 0.26,0.02 v 0 l 0.25,-0.02 0.23,-0.06 0.21,-0.09 0.19,-0.13 0.17,-0.15 0.14,-0.2 0.12,-0.22 0.08,-0.25 0.05,-0.27 0.02,-0.3 v 0 -0.16 l -0.02,-0.15 -0.02,-0.16 -0.03,-0.15 -0.04,-0.15 -0.05,-0.16 -0.05,-0.15 -0.07,-0.15 -0.07,-0.15 -0.08,-0.15 -1.53,-0.22 v -0.86 h 2.34 v 0 l 0.07,0.19 0.06,0.2 0.05,0.22 0.05,0.22 0.05,0.23 0.03,0.24 0.03,0.25 0.02,0.25 0.01,0.27 0.01,0.27 v 0 l -0.03,0.61 -0.09,0.55 -0.15,0.5 -0.2,0.44 -0.26,0.38 -0.3,0.31 -0.35,0.25 -0.4,0.18 -0.44,0.11 -0.48,0.03 v 0 h -0.2 l -0.19,-0.03 -0.18,-0.03 -0.17,-0.05 -0.16,-0.07 -0.15,-0.07 -0.14,-0.09 -0.13,-0.1 -0.12,-0.12 -0.11,-0.12 v 0 l -0.14,-0.18 -0.13,-0.19 -0.11,-0.19 -0.11,-0.19 -0.1,-0.19 -0.1,-0.2 -0.09,-0.19 -0.09,-0.2 -0.09,-0.19 -0.09,-0.19 v 0 l -0.14,-0.29 -0.14,-0.25 -0.14,-0.23 -0.14,-0.2 -0.15,-0.17 -0.15,-0.14 -0.17,-0.11 -0.18,-0.08 -0.2,-0.04 -0.22,-0.02 v 0 l -0.24,0.02 -0.21,0.05 -0.19,0.07 -0.17,0.11 -0.15,0.14 -0.12,0.17 -0.09,0.19 -0.07,0.22 -0.05,0.25 -0.01,0.28 v 0 0.13 l 0.02,0.13 0.01,0.13 0.03,0.13 0.03,0.13 0.05,0.13 0.05,0.14 0.05,0.13 0.07,0.14 0.07,0.14 1.28,0.14 v 0.88 z" /><path
         id="path378"
         style="fill:#000000;fill-opacity:1;fill-rule:evenodd;stroke:none"
         d="m 13.47,155.32 h 5.81 v 0 l 0.36,0.01 0.32,0.04 0.28,0.07 0.23,0.1 0.2,0.15 0.16,0.19 0.12,0.24 0.08,0.3 0.05,0.35 0.02,0.42 v 0 l -0.01,0.21 -0.01,0.22 -0.02,0.23 -0.02,0.23 -0.04,0.23 -0.04,0.24 -0.05,0.25 -0.06,0.24 -0.07,0.25 -0.08,0.26 h -0.66 v 0 l 0.02,-0.13 0.03,-0.12 0.02,-0.13 0.02,-0.12 0.01,-0.13 0.02,-0.12 0.01,-0.12 v -0.13 l 0.01,-0.12 v -0.13 0 l -0.02,-0.34 -0.05,-0.3 -0.09,-0.23 -0.14,-0.2 -0.17,-0.15 -0.21,-0.11 -0.25,-0.08 -0.3,-0.05 -0.34,-0.02 -0.39,-0.01 h -4.75 v 2.74 h -0.85 v -2.74 h -1.91 v -0.67 l 1.68,-0.77 0.52,-1.19 h 0.56 z" /><path
         id="path380"
         style="fill:#000000;fill-opacity:1;fill-rule:evenodd;stroke:none"
         d="m 13.41,167.92 v 0 l -0.22,-0.14 -0.21,-0.14 -0.18,-0.17 -0.15,-0.18 -0.14,-0.19 -0.11,-0.21 -0.08,-0.22 -0.06,-0.23 -0.04,-0.25 -0.01,-0.25 v 0 l 0.01,-0.24 0.03,-0.24 0.06,-0.26 0.07,-0.26 0.1,-0.28 0.12,-0.3 0.14,-0.3 0.16,-0.32 0.19,-0.34 0.2,-0.34 H 12.3 v -0.69 l 0.64,-2.09 h 0.56 v 1.28 h 6.52 l 0.29,-0.3 0.09,-0.98 h 0.64 v 3.95 H 20.4 l -0.09,-0.87 -0.29,-0.3 h -6.03 v 0 l -0.11,0.23 -0.11,0.23 -0.08,0.22 -0.08,0.21 -0.07,0.21 -0.05,0.2 -0.04,0.19 -0.03,0.19 -0.02,0.19 -0.01,0.18 v 0 l 0.02,0.3 0.06,0.28 0.09,0.24 0.12,0.2 0.17,0.17 0.2,0.15 0.24,0.1 0.28,0.08 0.32,0.05 0.36,0.01 h 4.77 l 0.29,-0.3 0.09,-0.87 h 0.64 v 3.84 H 20.4 l -0.09,-0.85 -0.29,-0.32 h -6.03 v 0 l -0.11,0.23 -0.1,0.22 -0.09,0.22 -0.07,0.21 -0.07,0.21 -0.06,0.2 -0.04,0.19 -0.03,0.19 -0.02,0.18 -0.01,0.18 v 0 l 0.02,0.32 0.06,0.28 0.09,0.24 0.12,0.21 0.17,0.18 0.2,0.14 0.24,0.11 0.28,0.08 0.32,0.04 0.36,0.02 h 4.77 l 0.29,-0.32 0.09,-0.85 h 0.64 v 3.92 H 20.4 l -0.09,-0.95 -0.29,-0.31 h -5.08 v 0 l -0.51,-0.02 -0.46,-0.08 -0.4,-0.13 -0.36,-0.17 -0.3,-0.22 -0.25,-0.27 -0.2,-0.3 -0.14,-0.34 -0.09,-0.38 -0.02,-0.41 v 0 l 0.01,-0.22 0.04,-0.25 0.06,-0.26 0.08,-0.28 0.11,-0.3 0.14,-0.32 0.15,-0.34 0.18,-0.35 0.21,-0.38 z" /><path
         id="path382"
         style="fill:#000000;fill-opacity:1;fill-rule:evenodd;stroke:none"
         d="m 19.14,182.98 v 0 l 0.19,-0.3 0.18,-0.3 0.15,-0.29 0.14,-0.29 0.11,-0.28 0.1,-0.28 0.07,-0.27 0.06,-0.27 0.03,-0.27 0.01,-0.27 v 0 l -0.04,-0.53 -0.12,-0.49 -0.2,-0.44 -0.27,-0.39 -0.34,-0.35 -0.41,-0.29 -0.48,-0.23 -0.54,-0.17 -0.61,-0.1 -0.66,-0.04 h -0.2 v 5.83 0 l -0.06,0.01 h -0.06 l -0.05,0.01 h -0.06 -0.06 -0.05 -0.06 -0.05 -0.05 -0.06 v 0 l -0.63,-0.04 -0.59,-0.11 -0.52,-0.18 -0.46,-0.24 -0.4,-0.31 -0.33,-0.37 -0.27,-0.42 -0.19,-0.48 -0.11,-0.52 -0.04,-0.57 v 0 l 0.05,-0.7 0.16,-0.66 0.26,-0.6 0.35,-0.54 0.44,-0.48 0.52,-0.41 0.6,-0.32 0.67,-0.25 0.73,-0.15 0.79,-0.05 v 0 l 0.77,0.05 0.7,0.14 0.65,0.23 0.58,0.31 0.5,0.39 0.43,0.46 0.34,0.52 0.25,0.59 0.15,0.64 0.06,0.69 v 0 l -0.01,0.34 -0.04,0.34 -0.05,0.34 -0.08,0.35 -0.09,0.34 -0.12,0.34 -0.14,0.34 -0.16,0.33 -0.19,0.34 -0.2,0.32 z m -3.59,-1.6 v -4.16 0 l -0.44,0.06 -0.41,0.11 -0.37,0.16 -0.33,0.19 -0.29,0.23 -0.24,0.27 -0.19,0.29 -0.15,0.31 -0.08,0.33 -0.03,0.34 v 0 l 0.02,0.34 0.07,0.32 0.12,0.27 0.16,0.25 0.2,0.21 0.25,0.17 0.3,0.13 0.33,0.1 0.38,0.06 0.42,0.02 z" /><path
         id="path384"
         style="fill:#000000;fill-opacity:1;fill-rule:evenodd;stroke:none"
         d="m 21.04,184.3 v 3.94 H 20.4 l -0.09,-0.87 -0.29,-0.3 h -6.03 v 0 l -0.11,0.23 -0.11,0.22 -0.08,0.22 -0.08,0.21 -0.07,0.2 -0.05,0.2 -0.04,0.19 -0.03,0.19 -0.02,0.18 -0.01,0.17 v 0 l 0.02,0.38 0.05,0.32 0.09,0.28 0.12,0.24 0.16,0.19 0.2,0.16 0.24,0.11 0.28,0.08 0.33,0.05 0.37,0.01 h 4.77 l 0.29,-0.3 0.09,-0.87 h 0.64 v 3.94 H 20.4 l -0.09,-0.97 -0.29,-0.3 h -5.08 v 0 l -0.51,-0.03 -0.46,-0.08 -0.41,-0.12 -0.36,-0.18 -0.3,-0.22 -0.25,-0.27 -0.19,-0.32 -0.14,-0.36 -0.09,-0.41 -0.02,-0.44 v 0 l 0.01,-0.24 0.03,-0.25 0.06,-0.25 0.08,-0.27 0.11,-0.28 0.12,-0.29 0.14,-0.31 0.16,-0.32 0.17,-0.34 0.2,-0.35 H 12.3 v -0.69 l 0.64,-2.08 h 0.56 v 1.27 h 6.52 l 0.29,-0.3 0.09,-0.97 z" /><path
         id="path386"
         style="fill:#000000;fill-opacity:1;fill-rule:evenodd;stroke:none"
         d="m 13.47,195.56 h 5.81 v 0 l 0.36,0.02 0.32,0.03 0.28,0.08 0.23,0.1 0.2,0.15 0.16,0.19 0.12,0.24 0.08,0.3 0.05,0.35 0.02,0.42 v 0 l -0.01,0.21 -0.01,0.22 -0.02,0.22 -0.02,0.24 -0.04,0.23 -0.04,0.24 -0.05,0.24 -0.06,0.25 -0.07,0.25 -0.08,0.25 h -0.66 v 0 l 0.02,-0.12 0.03,-0.12 0.02,-0.13 0.02,-0.12 0.01,-0.13 0.02,-0.12 0.01,-0.13 v -0.12 l 0.01,-0.12 v -0.13 0 l -0.02,-0.35 -0.05,-0.29 -0.09,-0.24 -0.14,-0.19 -0.17,-0.15 -0.21,-0.11 -0.25,-0.08 -0.3,-0.05 -0.34,-0.02 -0.39,-0.01 h -4.75 v 2.73 h -0.85 v -2.73 h -1.91 v -0.67 l 1.68,-0.77 0.52,-1.19 h 0.56 z" /><path
         id="path388"
         style="fill:#000000;fill-opacity:1;fill-rule:evenodd;stroke:none"
         d="m 8.3,207.77 v 0 l 0.01,-0.17 0.04,-0.16 0.06,-0.15 0.09,-0.14 0.1,-0.12 0.12,-0.1 0.14,-0.09 0.15,-0.06 0.16,-0.04 0.17,-0.02 v 0 l 0.17,0.02 0.16,0.04 0.15,0.06 0.13,0.09 0.12,0.1 0.11,0.12 0.08,0.14 0.06,0.15 0.04,0.16 0.01,0.17 v 0 l -0.01,0.17 -0.04,0.16 -0.06,0.15 -0.08,0.13 -0.11,0.13 -0.12,0.1 -0.13,0.08 -0.15,0.07 -0.16,0.04 -0.17,0.01 v 0 L 9.18,208.8 9.01,208.76 8.86,208.69 8.73,208.61 8.61,208.51 8.5,208.38 8.42,208.25 8.35,208.1 8.31,207.94 Z m 4,-0.07 0.64,-2.07 h 0.56 v 1.26 h 6.52 l 0.29,-0.31 0.09,-0.95 h 0.64 v 4.05 H 20.4 l -0.09,-0.98 -0.29,-0.32 H 12.3 Z" /><path
         id="path390"
         style="fill:#000000;fill-opacity:1;fill-rule:evenodd;stroke:none"
         d="m 21.04,210.58 v 3.94 H 20.4 l -0.09,-0.87 -0.29,-0.3 h -6.03 v 0 l -0.11,0.23 -0.11,0.22 -0.08,0.22 -0.08,0.21 -0.07,0.2 -0.05,0.2 -0.04,0.19 -0.03,0.19 -0.02,0.18 -0.01,0.17 v 0 l 0.02,0.38 0.05,0.32 0.09,0.28 0.12,0.24 0.16,0.19 0.2,0.16 0.24,0.11 0.28,0.08 0.33,0.05 0.37,0.01 h 4.77 l 0.29,-0.3 0.09,-0.87 h 0.64 v 3.94 H 20.4 l -0.09,-0.97 -0.29,-0.3 h -5.08 v 0 l -0.51,-0.03 -0.46,-0.08 -0.41,-0.12 -0.36,-0.18 -0.3,-0.22 -0.25,-0.27 -0.19,-0.32 -0.14,-0.36 -0.09,-0.41 -0.02,-0.44 v 0 l 0.01,-0.24 0.03,-0.25 0.06,-0.25 0.08,-0.27 0.11,-0.28 0.12,-0.29 0.14,-0.31 0.16,-0.32 0.17,-0.34 0.2,-0.35 H 12.3 v -0.69 l 0.64,-2.08 h 0.56 v 1.27 h 6.52 l 0.29,-0.3 0.09,-0.97 z" /><path
         id="path392"
         style="fill:#000000;fill-opacity:1;fill-rule:evenodd;stroke:none"
         d="m 8.75,228.52 v 0 l 0.04,-0.47 0.12,-0.43 0.2,-0.4 0.28,-0.35 0.35,-0.31 0.42,-0.25 0.49,-0.21 0.56,-0.15 0.62,-0.1 0.68,-0.03 v 0 l 0.69,0.03 0.63,0.1 0.56,0.15 0.49,0.2 0.43,0.26 0.35,0.3 0.27,0.36 0.2,0.39 0.12,0.44 0.04,0.47 v 0 l -0.04,0.48 -0.12,0.43 -0.2,0.4 -0.28,0.35 -0.35,0.31 -0.42,0.25 -0.5,0.21 -0.56,0.15 -0.62,0.09 -0.69,0.03 v 0 l -0.68,-0.03 -0.62,-0.09 -0.56,-0.16 -0.49,-0.2 -0.42,-0.26 -0.35,-0.31 -0.28,-0.35 -0.2,-0.4 -0.12,-0.43 z m 0.22,7.69 12.07,-7.69 v 1.08 l -12.07,7.71 z m 0.43,-7.72 v 0 l 0.03,0.26 0.09,0.24 0.16,0.21 0.22,0.19 0.28,0.16 0.34,0.13 0.41,0.11 0.46,0.07 0.53,0.05 0.59,0.02 v 0 l 0.59,-0.02 0.53,-0.04 0.47,-0.08 0.41,-0.1 0.34,-0.13 0.29,-0.16 0.22,-0.19 0.16,-0.22 0.09,-0.24 0.03,-0.26 v 0 l -0.03,-0.27 -0.09,-0.23 -0.16,-0.21 -0.22,-0.19 -0.29,-0.15 -0.34,-0.13 -0.41,-0.1 -0.47,-0.07 -0.53,-0.04 -0.59,-0.02 v 0 l -0.58,0.02 -0.53,0.04 -0.47,0.07 -0.4,0.11 -0.34,0.13 -0.29,0.15 -0.22,0.19 -0.15,0.2 -0.1,0.24 z m 4.32,8.85 v 0 l 0.04,-0.47 0.12,-0.43 0.2,-0.4 0.28,-0.35 0.35,-0.31 0.42,-0.25 0.49,-0.21 0.56,-0.15 0.62,-0.1 0.68,-0.03 v 0 l 0.69,0.03 0.63,0.1 0.56,0.15 0.49,0.2 0.42,0.26 0.35,0.3 0.28,0.36 0.2,0.39 0.12,0.44 0.04,0.47 v 0 l -0.04,0.48 -0.12,0.43 -0.2,0.4 -0.28,0.35 -0.35,0.31 -0.42,0.25 -0.5,0.21 -0.56,0.15 -0.62,0.09 -0.69,0.03 v 0 l -0.68,-0.03 -0.62,-0.09 -0.56,-0.16 -0.49,-0.2 -0.42,-0.26 -0.35,-0.31 -0.28,-0.35 -0.2,-0.4 -0.12,-0.43 z m 0.63,-0.03 v 0 l 0.03,0.26 0.1,0.24 0.15,0.21 0.22,0.19 0.29,0.16 0.34,0.13 0.41,0.11 0.47,0.07 0.53,0.05 0.59,0.02 v 0 l 0.59,-0.02 0.53,-0.04 0.47,-0.08 0.41,-0.1 0.34,-0.13 0.29,-0.16 0.22,-0.19 0.16,-0.22 0.09,-0.24 0.03,-0.26 v 0 l -0.03,-0.27 -0.09,-0.23 -0.16,-0.21 -0.22,-0.19 -0.29,-0.15 -0.34,-0.13 -0.41,-0.1 -0.47,-0.07 -0.53,-0.04 -0.59,-0.02 v 0 l -0.59,0.02 -0.52,0.04 -0.47,0.07 -0.41,0.11 -0.35,0.13 -0.28,0.15 -0.22,0.19 -0.16,0.2 -0.1,0.24 z" /></g><g
       id="g394" /><g
       id="g396" /><g
       id="g398" /><g
       id="g400" /><g
       id="g402" /><g
       id="g404" /><g
       id="g406" /><g
       id="g408" /><g
       id="g410" /><g
       id="g412" /><g
       id="g414" /><g
       id="g416"><path
         id="path418"
         style="fill:#ffffff;fill-opacity:1;fill-rule:nonzero;stroke:none"
         d="m 70.51,93.85 h 17.28 v 17.28 H 70.51 Z" /></g><g
       id="g420" /><g
       id="g422"><path
         id="path424"
         style="fill:none;stroke:#1e2d53;stroke-width:1.71000004;stroke-linecap:butt;stroke-linejoin:round;stroke-miterlimit:10;stroke-dasharray:none;stroke-opacity:1"
         d="M 72.23,102.49 H 86.06" /></g><g
       id="g426" /><g
       id="g428"><path
         id="path430"
         style="fill:none;stroke:#1e2d53;stroke-width:2.13000011;stroke-linecap:butt;stroke-linejoin:round;stroke-miterlimit:10;stroke-dasharray:none;stroke-opacity:1"
         d="M 72.23,102.49 H 86.06" /></g><g
       id="g432" /><g
       id="g434"><path
         id="path436"
         style="fill:#1e2d53;fill-opacity:1;fill-rule:nonzero;stroke:#1e2d53;stroke-width:0.70999998;stroke-linecap:round;stroke-linejoin:round;stroke-miterlimit:10;stroke-dasharray:none;stroke-opacity:1"
         d="m 76.45,102.49 c 0,1.49 1.21,2.7 2.7,2.7 1.48,0 2.7,-1.21 2.7,-2.7 0,-1.49 -1.22,-2.7 -2.7,-2.7 -1.49,0 -2.7,1.21 -2.7,2.7" /></g><g
       id="g438" /><g
       id="g440"><path
         id="path442"
         style="fill:#ffffff;fill-opacity:1;fill-rule:nonzero;stroke:none"
         d="M 70.51,76.57 H 87.79 V 93.85 H 70.51 Z" /></g><g
       id="g444" /><g
       id="g446"><path
         id="path448"
         style="fill:none;stroke:#e37e00;stroke-width:1.71000004;stroke-linecap:butt;stroke-linejoin:round;stroke-miterlimit:10;stroke-dasharray:none;stroke-opacity:1"
         d="M 72.23,85.21 H 86.06" /></g><g
       id="g450" /><g
       id="g452"><path
         id="path454"
         style="fill:none;stroke:#e37e00;stroke-width:2.13000011;stroke-linecap:butt;stroke-linejoin:round;stroke-miterlimit:10;stroke-dasharray:none;stroke-opacity:1"
         d="M 72.23,85.21 H 86.06" /></g><g
       id="g456" /><g
       id="g458"><path
         id="path460"
         style="fill:#e37e00;fill-opacity:1;fill-rule:nonzero;stroke:#e37e00;stroke-width:0.70999998;stroke-linecap:round;stroke-linejoin:round;stroke-miterlimit:10;stroke-dasharray:none;stroke-opacity:1"
         d="m 76.45,85.21 c 0,1.49 1.21,2.7 2.7,2.7 1.48,0 2.7,-1.21 2.7,-2.7 0,-1.49 -1.22,-2.7 -2.7,-2.7 -1.49,0 -2.7,1.21 -2.7,2.7" /></g><g
       id="g462" /><g
       id="g464"><path
         id="path466"
         style="fill:#ffffff;fill-opacity:1;fill-rule:nonzero;stroke:none"
         d="M 70.51,59.29 H 87.79 V 76.57 H 70.51 Z" /></g><g
       id="g468" /><g
       id="g470"><path
         id="path472"
         style="fill:none;stroke:#90353b;stroke-width:1.71000004;stroke-linecap:butt;stroke-linejoin:round;stroke-miterlimit:10;stroke-dasharray:none;stroke-opacity:1"
         d="M 72.23,67.93 H 86.06" /></g><g
       id="g474" /><g
       id="g476"><path
         id="path478"
         style="fill:none;stroke:#90353b;stroke-width:2.13000011;stroke-linecap:butt;stroke-linejoin:round;stroke-miterlimit:10;stroke-dasharray:none;stroke-opacity:1"
         d="M 72.23,67.93 H 86.06" /></g><g
       id="g480" /><g
       id="g482"><path
         id="path484"
         style="fill:#90353b;fill-opacity:1;fill-rule:nonzero;stroke:#90353b;stroke-width:0.70999998;stroke-linecap:round;stroke-linejoin:round;stroke-miterlimit:10;stroke-dasharray:none;stroke-opacity:1"
         d="m 76.45,67.93 c 0,1.49 1.21,2.7 2.7,2.7 1.48,0 2.7,-1.21 2.7,-2.7 0,-1.49 -1.22,-2.7 -2.7,-2.7 -1.49,0 -2.7,1.21 -2.7,2.7" /></g><g
       id="g486" /><g
       id="g488" /><g
       id="g490" /><g
       id="g492"><path
         id="path494"
         style="fill:#000000;fill-opacity:1;fill-rule:evenodd;stroke:none"
         d="m 100.79,107.32 h -3.56 v -0.58 l 0.82,-0.08 0.24,-0.2 v -7.94 l -0.24,-0.2 -0.82,-0.07 v -0.59 h 3.56 v 0 h 0.42 l 0.4,0.02 0.38,0.03 0.37,0.05 0.35,0.07 0.34,0.09 0.33,0.11 0.32,0.15 0.3,0.17 0.3,0.2 v 0 l 0.34,0.28 0.3,0.31 0.27,0.33 0.23,0.36 0.2,0.39 0.17,0.4 0.12,0.44 0.1,0.45 0.05,0.48 0.02,0.51 v 0 l -0.06,0.87 -0.17,0.79 -0.27,0.71 -0.39,0.63 -0.49,0.54 -0.59,0.45 -0.69,0.36 -0.79,0.26 -0.89,0.16 z m -1.2,-0.66 h 1.14 v 0 l 0.75,-0.04 0.67,-0.13 0.59,-0.2 0.5,-0.29 0.43,-0.37 0.35,-0.46 0.28,-0.54 0.19,-0.62 0.12,-0.71 0.03,-0.8 v 0 l -0.03,-0.8 -0.12,-0.71 -0.19,-0.63 -0.28,-0.54 -0.35,-0.46 -0.43,-0.37 -0.5,-0.3 -0.59,-0.2 -0.67,-0.13 -0.75,-0.04 h -1.14 z" /><path
         id="path496"
         style="fill:#000000;fill-opacity:1;fill-rule:evenodd;stroke:none"
         d="m 112,107.57 v 0 l -0.36,-0.02 -0.36,-0.04 -0.35,-0.06 -0.33,-0.09 -0.33,-0.12 -0.31,-0.14 -0.31,-0.16 -0.29,-0.19 -0.27,-0.21 -0.27,-0.24 v 0 l -0.28,-0.29 -0.24,-0.32 -0.22,-0.33 -0.19,-0.35 -0.17,-0.38 -0.13,-0.39 -0.1,-0.41 -0.08,-0.43 -0.04,-0.44 -0.02,-0.46 v 0 l 0.02,-0.47 0.04,-0.44 0.08,-0.43 0.1,-0.42 0.14,-0.39 0.16,-0.38 0.19,-0.35 0.22,-0.34 0.26,-0.32 0.27,-0.29 v 0 l 0.26,-0.23 0.28,-0.21 0.29,-0.19 0.3,-0.16 0.31,-0.14 0.33,-0.11 0.34,-0.09 0.34,-0.06 0.36,-0.04 0.36,-0.01 v 0 l 0.5,0.02 0.47,0.08 0.46,0.12 0.44,0.16 0.42,0.21 0.38,0.25 0.36,0.29 0.33,0.32 0.3,0.37 0.26,0.4 v 0 l 0.14,0.25 0.12,0.26 0.11,0.27 0.1,0.27 0.08,0.28 0.07,0.29 0.05,0.3 0.03,0.3 0.03,0.31 v 0.32 0 l -0.01,0.46 -0.05,0.44 -0.07,0.43 -0.11,0.41 -0.14,0.39 -0.16,0.38 -0.19,0.35 -0.22,0.33 -0.25,0.32 -0.28,0.29 v 0 l -0.26,0.24 -0.28,0.21 -0.29,0.19 -0.3,0.16 -0.31,0.14 -0.33,0.12 -0.33,0.09 -0.35,0.06 -0.35,0.04 z m 0,-0.78 v 0 l 0.54,-0.05 0.5,-0.14 0.46,-0.23 0.41,-0.32 0.36,-0.4 0.3,-0.49 0.25,-0.56 0.17,-0.63 0.11,-0.7 0.04,-0.77 v 0 l -0.04,-0.77 -0.11,-0.71 -0.17,-0.63 -0.25,-0.57 -0.3,-0.48 -0.36,-0.4 -0.41,-0.33 -0.46,-0.23 -0.5,-0.14 -0.54,-0.05 v 0 l -0.54,0.05 -0.5,0.14 -0.46,0.23 -0.42,0.33 -0.36,0.4 -0.3,0.48 -0.24,0.57 -0.18,0.63 -0.11,0.71 -0.04,0.77 v 0 l 0.04,0.77 0.11,0.71 0.18,0.64 0.24,0.56 0.3,0.48 0.36,0.4 0.42,0.31 0.46,0.23 0.5,0.14 z" /><path
         id="path498"
         style="fill:#000000;fill-opacity:1;fill-rule:evenodd;stroke:none"
         d="m 120.59,97.66 h 0.96 l 2.39,7.87 2.43,-7.87 h 0.98 l 2.29,8.88 0.97,0.2 v 0.58 h -2.98 v -0.58 l 0.96,-0.17 0.16,-0.2 -1.74,-6.75 -2.36,7.7 h -1.01 l -2.32,-7.55 -1.86,6.66 0.12,0.2 0.9,0.11 v 0.58 h -3.22 v -0.58 l 0.91,-0.2 z" /><path
         id="path500"
         style="fill:#000000;fill-opacity:1;fill-rule:evenodd;stroke:none"
         d="m 131.04,97.66 h 3.04 v 0.59 l -0.87,0.11 -0.26,0.28 v 7.2 l 5.49,-8.18 h 0.95 v 8.7 l 0.26,0.25 0.86,0.13 v 0.58 h -3.02 v -0.58 l 0.86,-0.13 0.26,-0.25 v -6.77 l -4.91,7.37 v 0.36 H 131 v -0.58 l 0.92,-0.08 0.26,-0.2 v -7.82 l -0.26,-0.28 -0.88,-0.11 z" /></g><g
       id="g502" /><g
       id="g504" /><g
       id="g506" /><g
       id="g508" /><g
       id="g510"><path
         id="path512"
         style="fill:#000000;fill-opacity:1;fill-rule:evenodd;stroke:none"
         d="m 97.62,80.67 v 0 l 0.2,-0.09 0.22,-0.07 0.23,-0.07 0.25,-0.06 0.25,-0.05 0.27,-0.05 0.28,-0.03 0.29,-0.02 0.29,-0.02 h 0.31 v 0 l 0.66,0.03 0.61,0.1 0.55,0.17 0.49,0.22 0.42,0.29 0.35,0.33 0.28,0.38 0.2,0.42 0.13,0.46 0.04,0.49 v 0 l -0.01,0.19 -0.02,0.18 -0.03,0.17 -0.04,0.17 -0.06,0.16 -0.07,0.16 -0.08,0.15 -0.1,0.14 -0.11,0.13 -0.11,0.13 v 0 l -0.21,0.19 -0.2,0.16 -0.22,0.14 -0.21,0.12 -0.22,0.11 -0.23,0.1 -0.22,0.1 -0.22,0.09 -0.23,0.09 -0.22,0.08 v 0 l -0.38,0.17 -0.34,0.15 -0.3,0.16 -0.26,0.15 -0.22,0.17 -0.19,0.17 -0.14,0.19 -0.1,0.22 -0.06,0.24 -0.03,0.27 v 0 l 0.03,0.31 0.06,0.28 0.11,0.25 0.14,0.23 0.19,0.2 0.22,0.16 0.25,0.14 0.29,0.09 0.32,0.06 0.35,0.02 v 0 h 0.15 l 0.15,-0.01 0.14,-0.01 0.13,-0.03 0.14,-0.02 0.12,-0.04 0.13,-0.03 0.11,-0.05 0.12,-0.05 0.11,-0.06 0.22,-0.24 0.21,-1.37 h 0.75 v 2.23 0 l -0.25,0.08 -0.25,0.07 -0.25,0.06 -0.25,0.05 -0.25,0.04 -0.24,0.04 -0.24,0.03 -0.24,0.02 -0.24,0.01 h -0.24 v 0 l -0.59,-0.03 -0.54,-0.1 -0.49,-0.16 -0.43,-0.21 -0.38,-0.27 -0.31,-0.32 -0.25,-0.36 -0.18,-0.4 -0.12,-0.44 -0.03,-0.47 v 0 l 0.02,-0.4 0.08,-0.34 0.12,-0.31 0.17,-0.28 0.22,-0.25 0.27,-0.22 0.32,-0.22 0.36,-0.2 0.41,-0.2 0.46,-0.2 v 0 l 0.45,-0.19 0.4,-0.18 0.36,-0.17 0.31,-0.16 0.27,-0.17 0.22,-0.19 0.17,-0.21 0.12,-0.25 0.08,-0.28 0.02,-0.33 v 0 l -0.02,-0.3 -0.07,-0.27 -0.11,-0.25 -0.16,-0.23 -0.2,-0.2 -0.24,-0.16 -0.28,-0.14 -0.33,-0.1 -0.36,-0.06 -0.4,-0.02 v 0 h -0.19 l -0.19,0.01 -0.18,0.02 -0.17,0.02 -0.16,0.03 -0.16,0.04 -0.15,0.04 -0.15,0.05 -0.13,0.06 -0.13,0.06 -0.19,0.24 -0.17,1.66 h -0.85 z" /><path
         id="path514"
         style="fill:#000000;fill-opacity:1;fill-rule:evenodd;stroke:none"
         d="m 104.99,90.04 v -2.22 h 0.79 l 0.2,1.34 0.21,0.22 h 2.21 v -8.14 l -0.26,-0.2 -0.96,-0.07 v -0.59 h 3.76 v 0.59 l -0.97,0.07 -0.26,0.2 v 8.14 h 2.22 l 0.2,-0.22 0.2,-1.34 h 0.8 v 2.22 z" /><path
         id="path516"
         style="fill:#000000;fill-opacity:1;fill-rule:evenodd;stroke:none"
         d="m 113.83,90.04 v -0.58 l 0.82,-0.08 0.25,-0.2 v -7.94 l -0.25,-0.2 -0.82,-0.07 v -0.59 h 3.43 v 0.59 l -0.82,0.07 -0.25,0.2 v 3.43 0 h 0.08 l 0.08,0.01 h 0.07 l 0.08,0.01 h 0.07 0.07 0.07 l 0.07,0.01 h 0.07 0.06 v 0 l 0.37,-0.01 0.33,-0.04 0.3,-0.06 0.25,-0.1 0.23,-0.13 0.2,-0.16 0.17,-0.2 0.16,-0.24 0.13,-0.29 0.12,-0.33 v 0 l 0.09,-0.27 0.07,-0.28 0.07,-0.27 0.08,-0.27 0.07,-0.26 0.09,-0.25 0.11,-0.24 0.13,-0.22 0.16,-0.21 0.19,-0.19 v 0 l 0.1,-0.08 0.11,-0.07 0.12,-0.07 0.13,-0.05 0.14,-0.05 0.15,-0.03 0.16,-0.03 0.17,-0.02 0.18,-0.01 0.19,-0.01 v 0 h 0.1 l 0.1,0.01 h 0.11 l 0.1,0.01 0.11,0.02 0.12,0.01 0.11,0.02 0.12,0.02 0.13,0.02 0.12,0.02 v 0.55 h -0.13 v 0 l -0.31,0.01 -0.27,0.01 -0.24,0.04 -0.22,0.05 -0.18,0.08 -0.17,0.11 -0.14,0.13 -0.13,0.16 -0.11,0.2 -0.1,0.23 v 0 l -0.07,0.21 -0.06,0.21 -0.05,0.22 -0.05,0.21 -0.05,0.22 -0.06,0.22 -0.06,0.22 -0.08,0.21 -0.09,0.21 -0.11,0.2 v 0 l -0.09,0.14 -0.1,0.13 -0.12,0.12 -0.13,0.1 -0.14,0.1 -0.15,0.09 -0.17,0.09 -0.18,0.07 -0.19,0.07 -0.21,0.06 v 0 l 0.44,0.12 0.4,0.14 0.35,0.17 0.3,0.2 0.26,0.23 0.21,0.25 0.16,0.28 0.12,0.31 0.07,0.33 0.02,0.36 v 0 l -0.03,0.5 -0.1,0.45 -0.17,0.39 -0.25,0.34 -0.31,0.28 -0.38,0.23 -0.45,0.18 -0.52,0.12 -0.59,0.08 -0.67,0.02 z m 2.36,-0.66 h 0.69 v 0 l 0.51,-0.02 0.46,-0.05 0.39,-0.09 0.35,-0.13 0.29,-0.17 0.24,-0.22 0.18,-0.26 0.13,-0.32 0.08,-0.37 0.02,-0.42 v 0 l -0.02,-0.4 -0.08,-0.35 -0.12,-0.3 -0.18,-0.26 -0.22,-0.21 -0.28,-0.17 -0.33,-0.13 -0.39,-0.09 -0.43,-0.06 -0.49,-0.01 v 0 h -0.04 -0.04 -0.05 -0.06 -0.08 -0.08 -0.1 -0.1 l -0.12,0.01 h -0.13 z" /><path
         id="path518"
         style="fill:#000000;fill-opacity:1;fill-rule:evenodd;stroke:none"
         d="m 126.75,90.16 -3.37,-9.02 -0.84,-0.17 v -0.59 h 2.83 v 0.59 l -0.94,0.07 -0.14,0.2 1.02,2.75 h 3.4 l 1.03,-2.75 -0.1,-0.2 -0.89,-0.07 v -0.59 h 3.27 v 0.59 l -0.87,0.17 -3.45,9.02 z m 0.23,-1.52 1.48,-3.99 h -2.91 z" /><path
         id="path520"
         style="fill:#000000;fill-opacity:1;fill-rule:evenodd;stroke:none"
         d="m 132.36,80.38 h 3.65 v 0.59 l -0.92,0.07 -0.25,0.2 v 7.94 l 0.25,0.2 0.92,0.08 v 0.58 h -3.65 v -0.58 l 0.93,-0.08 0.24,-0.2 v -7.94 l -0.24,-0.2 -0.93,-0.07 z" /><path
         id="path522"
         style="fill:#000000;fill-opacity:1;fill-rule:evenodd;stroke:none"
         d="m 142.53,85.01 v -0.59 l 1.02,-0.07 0.25,-0.2 v -2.99 0 l -0.17,-0.04 -0.16,-0.03 -0.16,-0.03 -0.15,-0.03 -0.15,-0.02 -0.15,-0.01 -0.14,-0.02 h -0.13 l -0.13,-0.01 h -0.13 v 0 l -0.65,0.05 -0.6,0.14 -0.55,0.23 -0.48,0.33 -0.42,0.4 -0.35,0.49 -0.28,0.57 -0.2,0.64 -0.13,0.71 -0.04,0.79 v 0 l 0.04,0.74 0.12,0.68 0.2,0.61 0.27,0.54 0.34,0.47 0.4,0.38 0.47,0.31 0.53,0.22 0.58,0.13 0.63,0.05 v 0 h 0.18 l 0.16,-0.02 0.17,-0.01 0.17,-0.03 0.16,-0.04 0.16,-0.04 0.16,-0.05 0.17,-0.05 0.16,-0.06 0.16,-0.07 0.2,-0.26 0.21,-1.31 h 0.81 v 2.29 0 l -0.28,0.07 -0.29,0.07 -0.28,0.07 -0.28,0.05 -0.28,0.05 -0.28,0.04 -0.27,0.02 -0.27,0.03 -0.27,0.01 h -0.27 v 0 l -0.91,-0.05 -0.84,-0.17 -0.77,-0.28 -0.67,-0.38 -0.58,-0.48 -0.49,-0.56 -0.39,-0.65 -0.28,-0.74 -0.18,-0.81 -0.05,-0.87 v 0 l 0.02,-0.56 0.09,-0.54 0.13,-0.53 0.18,-0.5 0.24,-0.47 0.28,-0.44 0.32,-0.41 0.37,-0.37 0.41,-0.33 0.45,-0.29 v 0 l 0.2,-0.11 0.22,-0.09 0.22,-0.09 0.24,-0.07 0.24,-0.07 0.26,-0.05 0.26,-0.04 0.27,-0.03 0.28,-0.02 h 0.28 v 0 h 0.26 l 0.27,0.02 0.28,0.02 0.28,0.04 0.3,0.04 0.3,0.06 0.31,0.06 0.32,0.08 0.33,0.08 0.33,0.1 v 3.44 l 0.25,0.2 0.79,0.07 v 0.59 z" /><path
         id="path524"
         style="fill:#000000;fill-opacity:1;fill-rule:evenodd;stroke:none"
         d="m 146.99,90.04 v -0.58 l 0.83,-0.08 0.24,-0.2 v -7.94 l -0.24,-0.2 -0.83,-0.07 v -0.59 h 3.5 v 0.59 l -0.89,0.07 -0.24,0.2 v 3.88 h 4.95 v -3.88 l -0.24,-0.2 -0.9,-0.07 v -0.59 h 3.5 v 0.59 l -0.82,0.07 -0.24,0.2 v 7.94 l 0.24,0.2 0.82,0.08 v 0.58 h -3.5 v -0.58 l 0.9,-0.08 0.24,-0.2 v -3.4 h -4.95 v 3.4 l 0.24,0.2 0.89,0.08 v 0.58 z" /><path
         id="path526"
         style="fill:#000000;fill-opacity:1;fill-rule:evenodd;stroke:none"
         d="m 157.38,90.04 v -2.22 h 0.79 l 0.2,1.34 0.2,0.22 h 2.22 v -8.14 l -0.26,-0.2 -0.96,-0.07 v -0.59 h 3.75 v 0.59 l -0.96,0.07 -0.26,0.2 v 8.14 h 2.22 l 0.2,-0.22 0.2,-1.34 h 0.79 v 2.22 z" /></g><g
       id="g528" /><g
       id="g530" /><g
       id="g532" /><g
       id="g534" /><g
       id="g536"><path
         id="path538"
         style="fill:#000000;fill-opacity:1;fill-rule:evenodd;stroke:none"
         d="m 97.11,72.76 v -0.58 l 0.82,-0.08 0.25,-0.2 v -5.35 0 -0.31 l 0.01,-0.29 0.02,-0.29 0.03,-0.26 0.05,-0.26 0.06,-0.24 0.08,-0.24 0.1,-0.22 0.13,-0.21 0.15,-0.21 v 0 l 0.18,-0.19 0.21,-0.18 0.24,-0.16 0.26,-0.14 0.3,-0.13 0.31,-0.1 0.34,-0.08 0.36,-0.06 0.38,-0.04 0.4,-0.01 v 0 l 0.4,0.01 0.39,0.04 0.36,0.06 0.34,0.08 0.31,0.1 0.29,0.13 0.27,0.14 0.24,0.16 0.2,0.18 0.18,0.19 v 0 l 0.16,0.21 0.13,0.21 0.1,0.23 0.08,0.23 0.06,0.25 0.05,0.25 0.03,0.27 0.02,0.28 0.01,0.3 v 0.3 5.25 l 0.26,0.25 0.86,0.13 v 0.58 h -3.04 v -0.58 l 0.87,-0.13 0.27,-0.25 v -5.12 0 l -0.02,-0.55 -0.07,-0.5 -0.12,-0.43 -0.17,-0.37 -0.22,-0.31 -0.28,-0.26 -0.33,-0.19 -0.39,-0.14 -0.45,-0.08 -0.51,-0.03 v 0 l -0.52,0.03 -0.46,0.08 -0.39,0.14 -0.34,0.19 -0.27,0.26 -0.22,0.31 -0.17,0.37 -0.12,0.43 -0.07,0.5 -0.02,0.55 v 5.22 l 0.26,0.2 0.89,0.08 v 0.58 z" /><path
         id="path540"
         style="fill:#000000;fill-opacity:1;fill-rule:evenodd;stroke:none"
         d="m 107.22,63.1 h 3.63 v 0.59 l -1.02,0.07 -0.25,0.2 v 2.84 0 l 0.13,-0.01 0.13,-0.02 0.12,-0.01 0.12,-0.01 h 0.11 l 0.1,-0.01 0.1,-0.01 h 0.1 0.09 0.08 v 0 l 0.67,0.03 0.61,0.11 0.55,0.18 0.49,0.24 0.42,0.29 0.35,0.36 0.28,0.4 0.2,0.45 0.12,0.5 0.04,0.53 v 0 l -0.03,0.62 -0.12,0.53 -0.19,0.45 -0.27,0.38 -0.35,0.31 -0.44,0.25 -0.52,0.18 -0.6,0.13 -0.7,0.07 -0.78,0.02 h -3.28 v -0.58 l 0.93,-0.08 0.25,-0.2 v -7.94 l -0.25,-0.2 -0.82,-0.07 z m 2.36,4.39 v 4.58 0 l 0.08,0.01 h 0.08 l 0.08,0.01 h 0.07 0.08 l 0.07,0.01 h 0.08 0.07 0.07 0.07 v 0 l 0.53,-0.02 0.46,-0.07 0.41,-0.11 0.36,-0.15 0.29,-0.2 0.25,-0.24 0.18,-0.29 0.14,-0.34 0.08,-0.39 0.02,-0.44 v 0 l -0.02,-0.45 -0.08,-0.41 -0.13,-0.36 -0.18,-0.32 -0.23,-0.27 -0.28,-0.22 -0.33,-0.18 -0.37,-0.12 -0.43,-0.08 -0.47,-0.02 v 0 h -0.06 -0.08 l -0.08,0.01 h -0.08 l -0.1,0.01 -0.09,0.01 -0.11,0.01 -0.11,0.01 -0.11,0.01 z" /></g><g
       id="g542" /><g
       id="g544" /><g
       id="g546" /><g
       id="g548" /><g
       id="g550" /><g
       id="g552" /><g
       id="g554"><path
         id="path556"
         style="fill:#000000;fill-opacity:1;fill-rule:evenodd;stroke:none"
         d="m 62.25,316.7 h 5.45 v 0.88 l -1.54,0.11 -0.36,0.3 v 4.26 0 l 0.19,-0.02 0.19,-0.02 0.18,-0.01 0.18,-0.02 0.16,-0.01 0.16,-0.01 0.15,-0.01 h 0.14 l 0.14,-0.01 h 0.13 v 0 l 1,0.06 0.91,0.16 0.83,0.26 0.73,0.36 0.63,0.45 0.52,0.53 0.42,0.6 0.3,0.68 0.19,0.74 0.06,0.8 v 0 l -0.06,0.93 -0.17,0.79 -0.28,0.68 -0.41,0.57 -0.53,0.47 -0.65,0.37 -0.78,0.27 -0.91,0.19 -1.04,0.11 -1.17,0.03 h -4.93 v -0.86 l 1.4,-0.13 0.37,-0.3 v -11.91 l -0.37,-0.3 -1.23,-0.11 z m 3.55,6.59 v 6.86 0 l 0.11,0.02 0.12,0.01 h 0.11 l 0.12,0.01 h 0.11 0.12 l 0.11,0.01 h 0.11 0.1 0.11 v 0 l 0.79,-0.03 0.7,-0.1 0.61,-0.16 0.53,-0.23 0.45,-0.3 0.36,-0.37 0.28,-0.44 0.2,-0.5 0.12,-0.59 0.04,-0.65 v 0 l -0.04,-0.68 -0.12,-0.61 -0.19,-0.55 -0.27,-0.47 -0.35,-0.41 -0.41,-0.33 -0.5,-0.26 -0.56,-0.19 -0.63,-0.11 -0.71,-0.04 v 0 h -0.1 -0.11 l -0.12,0.01 -0.13,0.01 -0.14,0.01 -0.15,0.01 -0.15,0.01 -0.17,0.02 -0.17,0.02 z" /><path
         id="path558"
         style="fill:#000000;fill-opacity:1;fill-rule:evenodd;stroke:none"
         d="m 74.31,331.19 v -0.86 l 1.23,-0.13 0.36,-0.3 v -11.91 l -0.36,-0.3 -1.23,-0.11 v -0.88 h 5.14 v 0.88 l -1.23,0.11 -0.37,0.3 v 5.14 0 l 0.11,0.01 0.12,0.01 h 0.11 l 0.11,0.01 h 0.11 l 0.11,0.01 h 0.11 l 0.1,0.01 h 0.1 0.1 v 0 l 0.56,-0.02 0.49,-0.06 0.44,-0.09 0.38,-0.14 0.34,-0.19 0.3,-0.25 0.26,-0.3 0.23,-0.36 0.21,-0.43 0.18,-0.5 v 0 l 0.13,-0.41 0.11,-0.41 0.1,-0.41 0.11,-0.4 0.12,-0.39 0.13,-0.37 0.16,-0.36 0.2,-0.34 0.23,-0.31 0.29,-0.29 v 0 l 0.15,-0.12 0.17,-0.11 0.18,-0.09 0.2,-0.09 0.21,-0.06 0.22,-0.06 0.24,-0.04 0.26,-0.03 0.26,-0.02 0.29,-0.01 v 0 l 0.15,0.01 h 0.15 l 0.16,0.01 0.16,0.02 0.16,0.01 0.17,0.02 0.18,0.03 0.18,0.03 0.18,0.03 0.19,0.04 v 0.82 h -0.19 v 0 l -0.47,0.01 -0.41,0.03 -0.36,0.05 -0.32,0.08 -0.28,0.12 -0.25,0.15 -0.21,0.2 -0.19,0.24 -0.17,0.3 -0.15,0.35 v 0 l -0.11,0.31 -0.09,0.32 -0.08,0.32 -0.07,0.33 -0.08,0.33 -0.08,0.33 -0.09,0.32 -0.11,0.32 -0.14,0.32 -0.16,0.3 v 0 l -0.14,0.21 -0.16,0.19 -0.18,0.17 -0.19,0.17 -0.21,0.15 -0.23,0.13 -0.25,0.13 -0.27,0.11 -0.29,0.1 -0.31,0.09 v 0 l 0.67,0.17 0.59,0.22 0.53,0.26 0.45,0.3 0.38,0.34 0.32,0.38 0.24,0.42 0.18,0.46 0.1,0.5 0.04,0.53 v 0 l -0.05,0.76 -0.16,0.67 -0.25,0.58 -0.36,0.51 -0.47,0.42 -0.57,0.35 -0.68,0.26 -0.78,0.19 -0.89,0.11 -1,0.04 z m 3.54,-0.99 h 1.04 v 0 l 0.76,-0.03 0.68,-0.08 0.59,-0.13 0.52,-0.2 0.44,-0.25 0.35,-0.33 0.28,-0.4 0.19,-0.47 0.12,-0.55 0.04,-0.63 v 0 l -0.04,-0.6 -0.11,-0.53 -0.19,-0.46 -0.26,-0.38 -0.34,-0.32 -0.42,-0.26 -0.49,-0.19 -0.58,-0.14 -0.66,-0.07 -0.73,-0.03 v 0 h -0.05 -0.06 -0.08 -0.09 -0.11 -0.13 l -0.14,0.01 h -0.16 l -0.18,0.01 h -0.19 z" /><path
         id="path560"
         style="fill:#000000;fill-opacity:1;fill-rule:evenodd;stroke:none"
         d="m 95.45,331.56 v 0 l -0.55,-0.02 -0.53,-0.06 -0.52,-0.1 -0.51,-0.13 -0.48,-0.17 -0.48,-0.21 -0.45,-0.25 -0.44,-0.28 -0.41,-0.32 -0.4,-0.36 v 0 l -0.41,-0.44 -0.38,-0.47 -0.33,-0.5 -0.28,-0.53 -0.25,-0.56 -0.2,-0.58 -0.15,-0.62 -0.11,-0.64 -0.07,-0.67 -0.02,-0.69 v 0 l 0.02,-0.7 0.07,-0.67 0.11,-0.64 0.16,-0.62 0.2,-0.6 0.24,-0.56 0.29,-0.54 0.34,-0.5 0.37,-0.48 0.42,-0.44 v 0 l 0.39,-0.35 0.41,-0.31 0.43,-0.28 0.46,-0.24 0.47,-0.2 0.49,-0.17 0.5,-0.14 0.52,-0.09 0.54,-0.06 0.54,-0.02 v 0 l 0.74,0.04 0.72,0.11 0.69,0.18 0.65,0.25 0.63,0.31 0.58,0.37 0.54,0.44 0.49,0.49 0.45,0.54 0.39,0.6 v 0 l 0.21,0.38 0.18,0.39 0.17,0.4 0.14,0.41 0.12,0.43 0.1,0.43 0.08,0.44 0.06,0.46 0.03,0.46 0.01,0.48 v 0 l -0.02,0.69 -0.07,0.67 -0.12,0.64 -0.16,0.62 -0.2,0.58 -0.25,0.56 -0.29,0.53 -0.33,0.5 -0.37,0.47 -0.42,0.44 v 0 l -0.39,0.36 -0.42,0.32 -0.43,0.28 -0.45,0.25 -0.47,0.21 -0.49,0.17 -0.5,0.13 -0.51,0.1 -0.54,0.06 z m 0,-1.17 v 0 l 0.81,-0.07 0.75,-0.21 0.69,-0.35 0.61,-0.48 0.54,-0.6 0.46,-0.72 0.36,-0.84 0.27,-0.95 0.16,-1.06 0.06,-1.15 v 0 l -0.06,-1.16 -0.16,-1.06 -0.27,-0.95 -0.36,-0.84 -0.46,-0.73 -0.54,-0.61 -0.61,-0.48 -0.69,-0.35 -0.75,-0.21 -0.81,-0.07 v 0 l -0.81,0.07 -0.76,0.21 -0.69,0.35 -0.62,0.48 -0.54,0.61 -0.45,0.73 -0.37,0.84 -0.27,0.95 -0.16,1.06 -0.06,1.16 v 0 l 0.06,1.16 0.16,1.06 0.27,0.96 0.37,0.84 0.45,0.72 0.54,0.6 0.62,0.47 0.69,0.34 0.76,0.21 z" /><path
         id="path562"
         style="fill:#000000;fill-opacity:1;fill-rule:evenodd;stroke:none"
         d="m 104.05,316.7 h 5.44 v 0.88 l -1.53,0.11 -0.37,0.3 v 5.53 h 3.54 l 0.31,-0.32 0.21,-1.58 h 1.02 v 4.78 h -1.02 l -0.21,-1.58 -0.31,-0.3 h -3.54 v 5.68 h 4.86 l 0.28,-0.33 0.33,-2.05 h 1.18 v 3.37 h -10.36 v -0.86 l 1.4,-0.13 0.37,-0.3 v -11.91 l -0.37,-0.3 -1.23,-0.11 z" /><path
         id="path564"
         style="fill:#000000;fill-opacity:1;fill-rule:evenodd;stroke:none"
         d="m 118.37,327.09 v 0 l -0.22,-0.02 -0.21,-0.05 -0.2,-0.08 -0.18,-0.11 -0.15,-0.13 -0.14,-0.16 -0.11,-0.18 -0.08,-0.19 -0.05,-0.22 -0.02,-0.22 v 0 l 0.02,-0.23 0.05,-0.21 0.08,-0.2 0.11,-0.18 0.14,-0.16 0.15,-0.14 0.18,-0.11 0.2,-0.08 0.21,-0.06 0.22,-0.02 v 0 l 0.22,0.02 0.21,0.06 0.2,0.08 0.18,0.11 0.16,0.14 0.14,0.16 0.12,0.18 0.08,0.2 0.05,0.21 0.02,0.23 v 0 l -0.02,0.22 -0.05,0.22 -0.08,0.19 -0.12,0.18 -0.14,0.16 -0.16,0.13 -0.18,0.11 -0.2,0.08 -0.21,0.05 z m 0,-7.84 v 0 l -0.22,-0.02 -0.21,-0.05 -0.2,-0.09 -0.18,-0.11 -0.15,-0.13 -0.14,-0.16 -0.11,-0.18 -0.08,-0.2 -0.05,-0.22 -0.02,-0.23 v 0 l 0.02,-0.22 0.05,-0.22 0.08,-0.19 0.11,-0.18 0.14,-0.16 0.15,-0.13 0.18,-0.11 0.2,-0.08 0.21,-0.05 0.22,-0.02 v 0 l 0.22,0.02 0.21,0.05 0.2,0.08 0.18,0.11 0.16,0.14 0.14,0.16 0.12,0.18 0.08,0.19 0.05,0.21 0.02,0.22 v 0 l -0.02,0.23 -0.05,0.22 -0.08,0.2 -0.12,0.18 -0.14,0.16 -0.16,0.13 -0.18,0.11 -0.2,0.09 -0.21,0.05 z" /><path
         id="path566"
         style="fill:#000000;fill-opacity:1;fill-rule:evenodd;stroke:none"
         d="m 128.54,316.7 h 5.45 v 0.88 l -1.54,0.11 -0.36,0.3 v 4.26 0 l 0.19,-0.02 0.19,-0.02 0.18,-0.01 0.18,-0.02 0.16,-0.01 0.16,-0.01 0.15,-0.01 h 0.14 l 0.14,-0.01 h 0.13 v 0 l 1,0.06 0.91,0.16 0.83,0.26 0.73,0.36 0.63,0.45 0.52,0.53 0.42,0.6 0.3,0.68 0.19,0.74 0.06,0.8 v 0 l -0.06,0.93 -0.17,0.79 -0.28,0.68 -0.41,0.57 -0.53,0.47 -0.65,0.37 -0.78,0.27 -0.91,0.19 -1.04,0.11 -1.17,0.03 h -4.93 v -0.86 l 1.4,-0.13 0.37,-0.3 v -11.91 l -0.37,-0.3 -1.23,-0.11 z m 3.55,6.59 v 6.86 0 l 0.11,0.02 0.12,0.01 h 0.11 l 0.12,0.01 h 0.11 0.12 l 0.11,0.01 h 0.11 0.1 0.11 v 0 l 0.79,-0.03 0.7,-0.1 0.61,-0.16 0.53,-0.23 0.45,-0.3 0.36,-0.37 0.28,-0.44 0.2,-0.5 0.12,-0.59 0.04,-0.65 v 0 l -0.04,-0.68 -0.12,-0.61 -0.19,-0.55 -0.27,-0.47 -0.34,-0.41 -0.42,-0.33 -0.5,-0.26 -0.56,-0.19 -0.63,-0.11 -0.71,-0.04 v 0 h -0.1 -0.11 l -0.12,0.01 -0.13,0.01 -0.14,0.01 -0.14,0.01 -0.16,0.01 -0.17,0.02 -0.17,0.02 z" /><path
         id="path568"
         style="fill:#000000;fill-opacity:1;fill-rule:evenodd;stroke:none"
         d="m 140.53,316.7 h 5.21 v 0.78 l -1.51,0.1 -0.37,0.35 v 6.18 0 l 0.26,0.29 0.25,0.27 0.25,0.23 0.24,0.21 0.24,0.17 0.23,0.15 0.23,0.11 0.22,0.08 0.22,0.05 0.21,0.01 v 0 h 0.14 l 0.12,-0.02 0.13,-0.02 0.12,-0.04 0.11,-0.05 0.11,-0.05 0.1,-0.07 0.1,-0.08 0.09,-0.09 0.08,-0.1 h 0.7 v 1.86 0 l -0.14,0.06 -0.13,0.05 -0.13,0.04 -0.13,0.04 -0.13,0.03 -0.13,0.02 -0.13,0.02 -0.12,0.01 -0.13,0.01 h -0.13 v 0 h -0.05 -0.06 -0.05 -0.06 -0.05 l -0.06,-0.01 h -0.05 l -0.05,-0.01 -0.06,-0.01 -0.05,-0.01 v 0 l -0.23,-0.19 -0.24,-0.19 -0.23,-0.2 -0.23,-0.2 -0.23,-0.21 -0.24,-0.21 -0.23,-0.22 -0.23,-0.22 -0.22,-0.22 -0.23,-0.24 v 2.04 h -0.82 l -2.51,-0.78 v -0.67 h 1.54 v -7.82 l -0.39,-0.35 -1.15,-0.1 z" /><path
         id="path570"
         style="fill:#000000;fill-opacity:1;fill-rule:evenodd;stroke:none"
         d="m 151.46,331.99 v 0 l -0.2,-0.02 -0.19,-0.04 -0.18,-0.08 -0.17,-0.1 -0.14,-0.12 -0.13,-0.14 -0.1,-0.17 -0.08,-0.18 -0.05,-0.19 -0.01,-0.21 v 0 l 0.01,-0.2 0.05,-0.2 0.08,-0.17 0.1,-0.16 0.13,-0.15 0.14,-0.12 0.17,-0.1 0.18,-0.07 0.19,-0.05 0.2,-0.01 v 0 l 0.2,0.01 0.2,0.05 0.18,0.07 0.16,0.1 0.15,0.12 0.12,0.15 0.1,0.16 0.08,0.17 0.05,0.2 0.01,0.2 v 0 l -0.01,0.2 -0.05,0.19 -0.08,0.18 -0.1,0.17 -0.12,0.14 -0.15,0.13 -0.16,0.1 -0.18,0.08 -0.2,0.04 z m -0.09,-4.79 -2.48,-0.78 v -0.67 h 1.51 v -7.82 l -0.36,-0.35 -1.15,-0.1 v -0.78 h 4.86 v 0.78 l -1.17,0.1 -0.38,0.35 v 9.27 z" /><path
         id="path572"
         style="fill:#000000;fill-opacity:1;fill-rule:evenodd;stroke:none"
         d="m 163.36,317.6 v 1.13 0 l -0.27,-0.17 -0.27,-0.16 -0.27,-0.13 -0.27,-0.12 -0.27,-0.1 -0.28,-0.08 -0.27,-0.07 -0.28,-0.04 -0.28,-0.03 -0.28,-0.01 v 0 l -0.65,0.05 -0.59,0.14 -0.54,0.22 -0.48,0.32 -0.42,0.39 -0.35,0.48 -0.27,0.55 -0.21,0.62 -0.12,0.7 -0.04,0.76 v 0 l 0.04,0.79 0.11,0.72 0.18,0.64 0.25,0.57 0.31,0.5 0.36,0.41 0.42,0.33 0.46,0.23 0.5,0.15 0.54,0.05 v 0 h 0.11 l 0.11,-0.01 0.11,-0.02 0.1,-0.02 0.11,-0.03 0.1,-0.03 0.1,-0.04 0.1,-0.05 0.1,-0.05 0.1,-0.05 v -1.77 0 l 0.1,-0.07 0.09,-0.05 0.1,-0.05 0.1,-0.04 0.1,-0.04 0.09,-0.03 0.1,-0.02 0.1,-0.02 0.09,-0.01 h 0.1 v 0 l 0.21,0.01 0.2,0.04 0.18,0.07 0.15,0.09 0.14,0.1 0.12,0.13 0.09,0.15 0.07,0.17 0.04,0.19 0.01,0.2 v 0 l -0.03,0.36 -0.11,0.34 -0.17,0.31 -0.23,0.27 -0.3,0.24 -0.36,0.21 -0.42,0.16 -0.49,0.12 -0.53,0.08 -0.6,0.02 v 0 l -0.88,-0.06 -0.81,-0.19 -0.75,-0.31 -0.67,-0.41 -0.58,-0.52 -0.5,-0.62 -0.39,-0.7 -0.3,-0.79 -0.18,-0.86 -0.06,-0.94 v 0 l 0.06,-0.92 0.17,-0.86 0.27,-0.78 0.37,-0.7 0.46,-0.61 0.55,-0.52 0.64,-0.41 0.71,-0.3 0.78,-0.19 0.85,-0.06 v 0 l 0.35,0.01 0.35,0.03 0.35,0.05 0.35,0.08 0.35,0.1 0.36,0.11 0.35,0.14 0.35,0.16 0.36,0.18 z" /><path
         id="path574"
         style="fill:#000000;fill-opacity:1;fill-rule:evenodd;stroke:none"
         d="m 173.49,318.99 v 0 l -0.36,-0.24 -0.36,-0.21 -0.35,-0.19 -0.34,-0.16 -0.34,-0.14 -0.33,-0.11 -0.33,-0.09 -0.33,-0.06 -0.32,-0.04 -0.33,-0.02 v 0 l -0.63,0.05 -0.58,0.15 -0.53,0.23 -0.48,0.33 -0.41,0.41 -0.35,0.5 -0.28,0.57 -0.2,0.65 -0.12,0.73 -0.05,0.79 v 0.24 h 7 v 0 l 0.01,0.07 v 0.07 l 0.01,0.07 v 0.06 0.07 0.07 0.06 0.07 0.06 0.07 0 l -0.04,0.76 -0.14,0.7 -0.21,0.63 -0.3,0.55 -0.37,0.48 -0.44,0.4 -0.51,0.32 -0.57,0.23 -0.62,0.14 -0.68,0.04 v 0 l -0.85,-0.06 -0.79,-0.19 -0.72,-0.32 -0.65,-0.42 -0.57,-0.53 -0.49,-0.62 -0.39,-0.72 -0.29,-0.8 -0.18,-0.88 -0.06,-0.94 v 0 l 0.05,-0.92 0.17,-0.86 0.28,-0.77 0.37,-0.7 0.46,-0.6 0.56,-0.51 0.62,-0.41 0.71,-0.3 0.76,-0.18 0.83,-0.07 v 0 l 0.41,0.02 0.41,0.03 0.41,0.07 0.42,0.09 0.41,0.12 0.41,0.14 0.4,0.17 0.4,0.19 0.4,0.22 0.39,0.25 z m -1.92,4.3 h -4.99 v 0 l 0.07,0.53 0.13,0.49 0.19,0.44 0.23,0.4 0.28,0.35 0.32,0.29 0.35,0.23 0.37,0.17 0.4,0.11 0.4,0.03 v 0 l 0.42,-0.03 0.37,-0.08 0.34,-0.14 0.29,-0.2 0.25,-0.24 0.21,-0.3 0.16,-0.35 0.12,-0.41 0.07,-0.45 0.02,-0.5 z" /><path
         id="path576"
         style="fill:#000000;fill-opacity:1;fill-rule:evenodd;stroke:none"
         d="m 181.85,326.83 v 0 l -0.22,0.09 -0.23,0.08 -0.24,0.07 -0.24,0.07 -0.25,0.05 -0.26,0.04 -0.26,0.03 -0.27,0.02 -0.27,0.02 h -0.28 v 0 l -0.71,-0.03 -0.64,-0.1 -0.57,-0.16 -0.49,-0.22 -0.43,-0.29 -0.35,-0.34 -0.28,-0.39 -0.2,-0.45 -0.12,-0.49 -0.04,-0.55 v 0 l 0.03,-0.41 0.09,-0.38 0.14,-0.33 0.19,-0.31 0.26,-0.29 0.3,-0.26 0.37,-0.25 0.41,-0.25 0.47,-0.24 0.53,-0.24 v 0 l 0.41,-0.19 0.37,-0.18 0.32,-0.17 0.29,-0.18 0.24,-0.18 0.21,-0.2 0.16,-0.22 0.11,-0.25 0.07,-0.27 0.02,-0.32 v 0 l -0.02,-0.3 -0.07,-0.27 -0.11,-0.26 -0.15,-0.22 -0.19,-0.21 -0.23,-0.17 -0.27,-0.13 -0.3,-0.11 -0.33,-0.06 -0.36,-0.02 v 0 l -0.19,0.01 -0.18,0.01 -0.19,0.03 -0.18,0.03 -0.18,0.05 -0.19,0.06 -0.18,0.06 -0.18,0.08 -0.18,0.09 -0.18,0.1 -0.26,1.83 h -1.04 v -2.8 0 l 0.23,-0.08 0.25,-0.08 0.25,-0.07 0.27,-0.05 0.27,-0.06 0.29,-0.04 0.3,-0.03 0.3,-0.03 0.32,-0.01 0.33,-0.01 v 0 l 0.73,0.04 0.67,0.11 0.59,0.17 0.53,0.25 0.45,0.3 0.38,0.36 0.3,0.43 0.21,0.47 0.13,0.53 0.05,0.58 v 0 l -0.01,0.24 -0.03,0.22 -0.04,0.22 -0.06,0.2 -0.08,0.2 -0.09,0.18 -0.11,0.17 -0.12,0.16 -0.14,0.14 -0.14,0.13 v 0 l -0.22,0.17 -0.22,0.15 -0.23,0.14 -0.23,0.13 -0.23,0.12 -0.24,0.11 -0.23,0.11 -0.23,0.11 -0.24,0.1 -0.22,0.11 v 0 l -0.35,0.18 -0.31,0.16 -0.27,0.17 -0.24,0.17 -0.21,0.18 -0.16,0.18 -0.13,0.21 -0.1,0.21 -0.05,0.24 -0.02,0.27 v 0 l 0.02,0.28 0.06,0.25 0.09,0.23 0.13,0.21 0.17,0.17 0.2,0.15 0.23,0.11 0.27,0.09 0.29,0.05 0.33,0.01 v 0 h 0.16 l 0.15,-0.01 0.16,-0.03 0.16,-0.03 0.16,-0.04 0.16,-0.05 0.16,-0.06 0.16,-0.07 0.16,-0.07 0.17,-0.09 0.17,-1.53 h 1.06 z" /></g><g
       id="g578" /><g
       id="g580" /><g
       id="g582" /><g
       id="g584" /><g
       id="g586" /><g
       id="g588" /></g></svg>