<svg xmlns="http://www.w3.org/2000/svg" height="384" width="528"><path d="M0 384h528V0H0z" fill="#eaf2f3"/><path d="M0 384h527.984V.012H0z" fill="#fff"/><path d="M0 384V.012h527.984V384H0" fill="none" stroke="#fff" stroke-width=".7679808" stroke-miterlimit="10"/><path d="M52.107 297.82h462.43V36.724H52.106z" fill="#fff"/><path d="M52.107 297.82V36.724h462.429V297.82H52.106" fill="none" stroke="#fff" stroke-width=".7679808" stroke-miterlimit="10"/><path d="M52.107 289.372h462.429M52.107 209.727h462.429M52.107 130.081h462.429M52.107 50.436h462.429" fill="none" stroke="#eaf2f3" stroke-width="1.1519712000000002" stroke-miterlimit="10"/><path d="M60.539 84.36l.676-5.313M61.215 79.047l.677-6.138M61.892 72.91l.676-10.165M62.568 62.745l.676-7.656M63.244 55.09l.677-5.034M63.92 50.056l.677-3.712M64.597 46.344l.677-1.155M65.274 45.19l.66 1.105M65.934 46.295l.676 3.365M66.61 49.66l.677 5.875M67.287 55.535l.677 6.896M67.964 62.43l.676 9.951M68.64 72.381l.677 12.838M69.317 85.219l.676 15.608M69.993 100.827l.676 16.517M70.67 117.344l.676-1.452M71.346 115.892l.676.05M72.022 115.941l.66 1.303M72.682 117.244l.677-4.256M73.359 112.988l.676-5.281M74.035 107.707l.677-4.52M74.712 103.187l.677-2.739M75.389 100.448l.676-1.255M76.065 99.193l.677-.808M76.742 98.385l.676.71M77.418 99.095l.676 1.302M78.094 100.397l.66 1.998M78.755 102.395l.676 2.078M79.431 104.473l.676 2.92M80.107 107.393l.677 4.786M80.784 112.179l.676 5.758M81.46 117.937l.677 2.839M82.137 120.776l.677-.644M82.814 120.132l.676.347M83.49 120.479l.677.544M84.167 121.023l.676-10.411M84.843 110.612l.66-8.564M85.503 102.048l.677-7.31M86.18 94.739l.676-6.386M86.856 88.353l.676-4.85M87.532 83.503l.677-4.819M88.209 78.684l.676-2.772M88.885 75.912l.677-.808M89.562 75.104l.677.197M90.239 75.301l.676 1.766M90.915 77.067l.66 3.118M91.575 80.185l.677 5.115M92.252 85.3l.676 7.161M92.928 92.461l.677.678M93.605 93.139l.676.824M94.281 93.963l.676 1.501M94.957 95.464l.677-.61M95.634 94.855l.676-2.724M96.31 92.13l.677-1.12M96.987 91.01l.677.923M97.664 91.933l.66 2.079M98.323 94.012L99 96.553M99 96.553l.677 3.432M99.677 99.985l.676 5.083M100.353 105.068l.677 6.847M101.03 111.915l.676 7.557M101.706 119.472l.676 9.092M102.382 128.564l.677 10.955M103.059 139.519l.676 12.441M103.735 151.96l.66 11.007M104.395 162.967l.677 2.738M105.072 165.705l.676 3.598M105.748 169.303l.677 3.926M106.425 173.23l.677 1.485M107.102 174.715l.676 1.897M107.778 176.612l.677 2.457M108.455 179.07l.676 3.118M109.131 182.188l.676 3.845M109.807 186.033l.677 3.712M110.484 189.745l.66 4.455M111.144 194.2l.676 5.347M111.82 199.547l.677 5.906M112.497 205.453l.676 6.699M113.173 212.152l.677 6.897M113.85 219.05l.677 7.689M114.527 226.739l.676 8.349M115.203 235.088l.677 3.943M115.88 239.03l.676 1.634M116.556 240.664l.66 1.948M117.216 242.612l.677 1.897M117.893 244.51l.676.94M118.569 245.45l.676 1.105M119.245 246.555l.677 1.304M119.922 247.859l.676 1.369M120.598 249.228l.677 1.353M121.275 250.581l.677.94M121.952 251.521l.676 1.287M122.628 252.808l.677 1.75M123.305 254.557l.66 1.815M123.965 256.372l.676 2.195M124.641 258.567l.677 2.525M125.318 261.092l.676 2.937M125.994 264.029l.676 3.25M126.67 267.28l.677.296M127.347 267.576l.676.495M128.023 268.07l.677.71M128.7 268.78l.677.28M129.377 269.06l.676.018M130.053 269.078l.66.115M130.713 269.193l.677.363M131.39 269.556l.676.561M132.066 270.117l.677.462M132.743 270.58l.676.543M133.419 271.123l.676.628M134.095 271.75l.677.809M134.772 272.559l.676.908M135.448 273.467l.677 1.04M136.125 274.506l.66 1.188M136.785 275.694l.676 1.188M137.461 276.882l.678.874M138.139 277.756l.676.363M138.815 278.12l.676.362M139.49 278.482l.678.446M140.168 278.928l.676-.148M140.844 278.78l.676-.165M141.52 278.615l.677-.149M142.197 278.466l.676-.115M142.873 278.35l.66-.032M143.533 278.318l.676-.182M144.21 278.136l.677-.033M144.887 278.103l.676.116M145.563 278.219l.677.263M146.24 278.482l.676.38M146.916 278.862l.677.38M147.593 279.242l.676.511M148.27 279.753l.675.66M148.945 280.413l.66.23M149.605 280.644l.676.181M150.281 280.825l.678.116M150.959 280.941l.676.016M151.635 280.957l.677-.115M152.312 280.842l.676-.017M152.988 280.825l.676.083M153.664 280.908l.677.182M154.341 281.09l.676.247M155.017 281.337l.676.314M155.693 281.65l.662.396M156.355 282.046l.676.512M157.03 282.558l.677.594M157.707 283.152l.677.66M158.384 283.812l.676.66M159.06 284.472l.676.71M159.736 285.181l.677.677M160.413 285.858l.676.214M161.09 286.072l.677.149M161.767 286.22l.66.15M162.427 286.37l.676-.43M163.103 285.94l.676-.495M163.779 285.445l.677-.428M164.456 285.017l.676-.363M165.132 284.654l.676-.281M165.808 284.373l.677-.198M166.485 284.175l.676-.148M167.161 284.027l.678-.149M167.839 283.878l.676-.083M168.515 283.795h.66M169.175 283.795l.676.066M169.85 283.861l.678.133M170.528 283.994l.676.198M171.204 284.192l.677.065M171.881 284.257l.676-.016M172.557 284.241l.676.016M173.233 284.257l.676.066M173.91 284.323l.677.1M174.587 284.422l.66.165M175.247 284.587l.676.198M175.923 284.785l.677.248M176.6 285.033l.676.297M177.276 285.33l.676.347M177.952 285.677l.677.395M178.63 286.072l.675.43M179.305 286.502l.676.478M179.981 286.98l.678.528M180.659 287.508l.676.577M181.335 288.085l.66.628M181.995 288.713l.677.66M182.672 289.372l.676.017M183.348 289.39h.676M184.024 289.39h.677M184.701 289.39l.676-.1M185.377 289.29l.678-.165M186.055 289.125l.676-.148M186.73 288.977l.677-.133M187.407 288.844l.66-.131M188.067 288.713l.677-.116M188.744 288.597l.676-.1M189.42 288.498l.676-.082M190.096 288.416l.677-.083M190.773 288.333l.676-.066M191.45 288.267l.677-.066M192.127 288.201l.676-.033M192.803 288.168l.676-.033M193.479 288.135l.677-.033M194.156 288.102h.66M194.816 288.102h.676M195.492 288.102l.677.017M196.17 288.119l.675.016M196.845 288.135l.676.05M197.521 288.184l.676.05M198.197 288.234l.678.05M198.875 288.283l.676.066M199.55 288.35l.678.098M200.228 288.448l.66.083M200.888 288.531l.676.115M201.564 288.646l.676.116M202.24 288.762l.677.132M202.917 288.894l.676.132M203.593 289.026l.676.165M204.27 289.191l.677.149M204.947 289.34l.676.05M205.623 289.39h.677M206.3 289.39l.676-.084M206.976 289.306l.66-.115M207.636 289.191l.676-.148M208.312 289.043l.677-.15M208.99 288.894l.675-.115M209.665 288.779l.678-.133M210.343 288.646l.676-.099M211.019 288.547l.676-.099M211.695 288.448l.677-.082M212.372 288.366l.676-.066M213.048 288.3l.66-.066M213.708 288.234l.676-.05M214.384 288.184l.677-.032M215.061 288.152l.676-.033M215.737 288.119l.678-.017M216.415 288.102h.676M217.09 288.102l.677.017M217.767 288.119l.677.016M218.444 288.135l.676-.099M219.12 288.036l.676-.116M219.796 287.92l.661-.082M220.457 287.838l.676-.066M221.133 287.772l.676-.05M221.81 287.722l.675-.016M222.485 287.706h.678M223.163 287.706l.676.016M223.839 287.722l.677.05M224.516 287.772l.676.066M225.192 287.838l.677.099M225.87 287.937l.675.099M226.545 288.036l.66.05M227.205 288.085l.676.017M227.881 288.102h.676M228.557 288.102h.678M229.235 288.102l.676.017M229.91 288.119l.678.033M230.588 288.152l.676.032M231.264 288.184l.676.05M231.94 288.234l.677.066M232.617 288.3l.66.066M233.277 288.366l.676.082M233.953 288.448l.678.1M234.63 288.547l.677.116M235.307 288.663l.676.116M235.983 288.779l.677.131M236.66 288.91l.676.149M237.336 289.059l.676.148M238.012 289.207l.677.165M238.69 289.372l.675.017M239.365 289.39h.66M240.025 289.39h.678M240.703 289.39h.676M241.379 289.39h.676M242.055 289.39h.677M242.732 289.39h.676M243.408 289.39h.676M244.084 289.39h.677M244.761 289.39h.676M245.437 289.39h.66M246.097 289.39h.676M246.773 289.39h.678M247.45 289.39h.677M248.127 289.39h.677M248.804 289.39h.676M249.48 289.39h.676M250.156 289.39h.677M250.833 289.39h.676M251.51 289.39h.675M252.185 289.39l.66-.084M252.845 289.306l.678-.065M253.523 289.24l.676-.082M254.199 289.158l.677-.066M254.876 289.092l.676-.066M255.552 289.026l.676-.05M256.228 288.977l.677-.05M256.905 288.927l.676-.033M257.581 288.894l.676-.05M258.257 288.844l.662-.033M258.919 288.811l.676-.016M259.595 288.795l.676-.033M260.27 288.762h.678M260.948 288.762l.676-.017M261.624 288.745h.676" fill="none" stroke="#1a476f" stroke-width="1.1519712000000002" stroke-linecap="round" stroke-miterlimit="10"/><path d="M104.66 252.94l.759-2.557M105.419 250.383l.759-2.524M106.178 247.859l.775-2.426M106.953 245.433l.759-2.342M107.712 243.09l.759-2.31M108.47 240.78l.76-2.459M109.23 238.321l.76-2.441M109.99 235.88l.775-2.41M110.765 233.47l.758-2.391M111.523 231.079l.76-2.443M112.282 228.636l.76-2.443M113.042 226.193l.759-2.374M113.8 223.819l.776-2.376M114.576 221.443l.759-2.228M115.335 219.215l.759-2.096M116.094 217.119l.76-1.914M116.853 215.205l.759-1.865M117.612 213.34l.759-1.748M118.37 211.592l.776-1.585M119.146 210.007l.76-1.451M119.906 208.556l.759-1.27M120.665 207.285l.758-1.105M121.423 206.18l.76-.924M122.182 205.256l.776-.76M122.958 204.496l.76-.741M123.717 203.755l.759-.612M124.476 203.143l.759-.495M125.235 202.648l.759-.345M125.994 202.303l.775-.298M126.77 202.005l.759-.297M127.529 201.708l.758-.199M128.287 201.51l.76-.082M129.046 201.428l.76.016M129.806 201.444l.759.05M130.565 201.493l.775.1M131.34 201.593l.759.082M132.099 201.675l.759.198M132.858 201.873l.76.363M133.617 202.236l.759.363M134.376 202.599l.776.362M135.152 202.961l.759.414M135.91 203.375l.76.445M136.67 203.82l.758.445M137.428 204.265l.76.479M138.188 204.744l.775.495M138.963 205.239l.758.594M139.721 205.833l.76.627M140.481 206.46l.759.512M141.24 206.972l.759.51M141.999 207.483l.758.462M142.757 207.945l.776.428M143.533 208.373l.76.331M144.293 208.704l.759.33M145.052 209.033l.759.264M145.81 209.297l.76.347M146.57 209.644l.775.363M147.345 210.007l.759.348M148.104 210.355l.759.264M148.863 210.619l.758.262M149.621 210.881l.76.298M150.381 211.179l.775.198M151.156 211.377l.76.132M151.916 211.51l.759.197M152.675 211.707l.758.132M153.433 211.839l.76-.166M154.193 211.673l.775-.28M154.968 211.393l.759-.165M155.727 211.228l.758-.363M156.485 210.865l.76-.51M157.245 210.355l.759-.479M158.004 209.876l.759-.347M158.763 209.53l.776-.2M159.539 209.33l.758-.313M160.297 209.017l.759-.528M161.056 208.49l.76-.578M161.816 207.912l.759-.593M162.575 207.319l.776-.678M163.35 206.641l.76-.725M164.11 205.916l.758-.81M164.868 205.107l.759-.924M165.627 204.183l.758-.891M166.385 203.292l.776-.89M167.161 202.401l.759-.758M167.92 201.643l.76-.776M168.68 200.867l.759-.875M169.439 199.992l.758-.759M170.197 199.233l.76-.726M170.957 198.507l.775-.759M171.732 197.748l.759-.857M172.49 196.89l.76-.742M173.25 196.148l.76-.743M174.01 195.405l.758-.809M174.768 194.596l.776-.841M175.544 193.755l.759-.759M176.303 192.996l.758-.792M177.061 192.204l.759-.841M177.82 191.363l.76-.908M178.58 190.455l.775-.775M179.355 189.68l.76-.628M180.115 189.052l.758-.61M180.873 188.443l.759-.546M181.632 187.897l.759-.577M182.39 187.32l.76-.627M183.15 186.693l.775-.66M183.925 186.033l.759-.528M184.684 185.505l.76-.445M185.444 185.06l.759-.463M186.203 184.597l.758-.478M186.961 184.119l.776-.347M187.737 183.772l.759-.345M188.496 183.427l.759-.248M189.255 183.179l.76-.314M190.015 182.865l.758-.132M190.773 182.733l.775.083M191.548 182.816l.759.197M192.307 183.013l.76.215M193.067 183.228l.758.347M193.825 183.575l.759.494M194.584 184.07l.776.66M195.36 184.73l.759.693M196.119 185.423l.76.709M196.879 186.132l.758.71M197.637 186.841l.759.66M198.396 187.501l.759.727M199.155 188.228l.776.775M199.93 189.003l.76.825M200.69 189.828l.758.857M201.448 190.685l.759.975M202.207 191.66l.76.907M202.967 192.567l.776.924M203.743 193.49l.758 1.057M204.501 194.547l.759 1.138M205.26 195.685l.759 1.04M206.019 196.725l.76 1.155M206.779 197.88l.774 1.27M207.553 199.15l.759 1.337M208.312 200.487l.76 1.353M209.072 201.84l.759 1.535M209.83 203.375l.76 1.698M210.59 205.073l.758 1.767M211.348 206.84l.776 1.633M212.124 208.473l.759 1.551M212.883 210.024l.76 1.6M213.643 211.624l.758 1.7M214.401 213.324l.759 1.799M215.16 215.123l.776 1.765M215.936 216.888l.759 1.781M216.695 218.67l.758 1.831M217.453 220.501l.759 1.683M218.212 222.184l.76 1.765M218.972 223.95l.775 1.798M219.747 225.748l.76 1.767M220.507 227.515l.758 1.781M221.265 229.296l.759 1.799M222.024 231.095l.759 1.765M222.783 232.86l.76 1.501M223.543 234.361l.774 1.47M224.317 235.83l.759 1.386M225.076 237.216l.76 1.221M225.836 238.437l.759 1.188M226.595 239.625l.758 1.188M227.353 240.813l.776 1.072M228.13 241.885l.758.891M228.888 242.776l.759.81M229.647 243.585l.76.891M230.407 244.476l.758.99M231.165 245.467l.775.973M231.94 246.44l.76.99M232.7 247.43l.759.907M233.459 248.337l.758.875M234.217 249.212l.759.775M234.976 249.987l.776.759M235.752 250.746l.759.71M236.51 251.456l.76.643M237.27 252.099l.76.644M238.03 252.743l.758.61M238.788 253.353l.759.61M239.547 253.964l.776.61M240.323 254.574l.758.528M241.081 255.102l.759.479M241.84 255.58l.76.528M242.6 256.108l.759.561M243.359 256.67l.774.643M244.133 257.313l.76.71M244.893 258.022l.759.793M245.652 258.815l.759.808M246.41 259.623l.76.891M247.17 260.514l.775.957M247.945 261.47l.76.99M248.705 262.46l.759.974M249.464 263.434l.759.842M250.223 264.276l.758.792M250.981 265.068l.759.776M251.74 265.844l.776.775M252.516 266.619l.759.775M253.275 267.394l.758.825M254.033 268.22l.76.725M254.793 268.945l.759.792M255.552 269.737l.776.776M256.328 270.513l.759.643M257.087 271.156l.758.611M257.845 271.767l.76.594M258.605 272.36l.759.595M259.364 272.955l.775.643M260.139 273.598l.758.677M260.897 274.275l.76.743M261.657 275.018l.759.759M262.416 275.777l.759.66M263.175 276.436l.758.495M263.933 276.931l.776.512M264.71 277.443l.76.544M265.47 277.987l.758.561M266.228 278.548l.759.512M266.987 279.06l.758.479M267.745 279.539l.776.494M268.521 280.033l.759.462M269.28 280.495l.759.363M270.039 280.858l.758.363M270.797 281.221l.76.38M271.557 281.601l.775.38M272.332 281.98l.76.38M273.092 282.36l.759.33M273.85 282.69l.76.314M274.61 283.004l.76.313M275.37 283.317l.758.297M276.128 283.614l.775.23M276.903 283.845l.758.248M277.661 284.093l.76.263M278.421 284.356l.759.248M279.18 284.604l.759.198M279.939 284.802l.776.198M280.715 285l.758.198M281.473 285.198l.759.215M282.232 285.413l.76.214M282.992 285.627l.759.181M283.75 285.808l.777.198M284.527 286.006l.758.199M285.285 286.205l.759.214M286.044 286.419l.759.214M286.803 286.633l.758.182M287.561 286.815l.776.132M288.337 286.947l.759.132M289.096 287.08l.76.13M289.856 287.21l.759.15M290.615 287.36l.758.148M291.373 287.508l.759.165M292.132 287.673l.776.116M292.908 287.789l.759.115M293.667 287.904l.76.115M294.427 288.02l.758.132M295.185 288.152l.759.131M295.944 288.283l.775.133M296.719 288.416l.76.099M297.479 288.515l.758.082M298.237 288.597l.759.099M298.996 288.696l.76.083M299.756 288.779l.775.099M300.53 288.878l.76.099M301.29 288.977l.76.066M302.05 289.043l.758.05M302.808 289.092l.759.05M303.567 289.142l.76.05M304.327 289.191l.774.033M305.101 289.224h.759M305.86 289.224h.759M306.619 289.224l.76-.05M307.379 289.175l.758-.1M308.137 289.075l.776-.115M308.913 288.96l.759-.1M309.672 288.86l.759-.081M310.43 288.779l.76-.1M311.19 288.68l.76-.083M311.95 288.597l.774-.082M312.724 288.515l.76-.083M313.484 288.432l.759-.083M314.243 288.35l.758-.083M315.001 288.267l.759-.066M315.76 288.201l.759-.066M316.519 288.135l.776-.066M317.295 288.069l.76-.066M318.055 288.003l.758-.05M318.813 287.954l.759-.05M319.572 287.904l.759-.066M320.33 287.838l.777-.033M321.107 287.805l.758-.05M321.865 287.756l.759-.05M322.624 287.706l.76-.033M323.384 287.673l.759-.033M324.143 287.64l.776-.033M324.919 287.607l.758-.033M325.677 287.574l.759-.017M326.436 287.557l.759-.016M327.195 287.541l.76-.016M327.955 287.525l.774-.017M328.73 287.508l.758-.016M329.488 287.492h.76M330.248 287.492l.759-.017M331.007 287.475h.758M331.765 287.475h.759" fill="none" stroke="#ffd200" stroke-width="1.1519712000000002" stroke-linecap="round" stroke-miterlimit="10"/><path d="M52.107 297.82V36.724M52.107 289.372h-5.33" fill="none" stroke="#000" stroke-width=".7679808" stroke-miterlimit="10"/><text style="-inkscape-font-specification:Helvetica" transform="matrix(0 -1.33333 1.33333 0 40.111 293.079)" font-weight="400" font-size="9.999" font-family="Helvetica"><tspan y="0" x="0">0</tspan></text><path d="M52.107 209.727h-5.33" fill="none" stroke="#000" stroke-width=".7679808" stroke-miterlimit="10"/><text style="-inkscape-font-specification:Helvetica" transform="matrix(0 -1.33333 1.33333 0 40.111 215.287)" font-weight="400" font-size="9.999" font-family="Helvetica"><tspan y="0" x="0 2.779722">.2</tspan></text><path d="M52.107 130.081h-5.33" fill="none" stroke="#000" stroke-width=".7679808" stroke-miterlimit="10"/><text style="-inkscape-font-specification:Helvetica" transform="matrix(0 -1.33333 1.33333 0 40.111 135.64)" font-weight="400" font-size="9.999" font-family="Helvetica"><tspan y="0" x="0 2.779722">.4</tspan></text><path d="M52.107 50.436h-5.33" fill="none" stroke="#000" stroke-width=".7679808" stroke-miterlimit="10"/><text style="-inkscape-font-specification:Helvetica" transform="matrix(0 -1.33333 1.33333 0 40.111 55.995)" font-weight="400" font-size="9.999" font-family="Helvetica"><tspan y="0" x="0 2.779722">.6</tspan><tspan y="-11.001" x="-99.2957 -93.736259 -88.176811 -82.617371 -77.617867 -75.398087 -72.61837">density</tspan></text><path d="M52.107 297.82h462.429M60.555 297.82v5.347" fill="none" stroke="#000" stroke-width=".7679808" stroke-miterlimit="10"/><text style="-inkscape-font-specification:Helvetica" transform="matrix(1.33333 0 0 1.33333 56.849 315.162)" font-weight="400" font-size="9.999" font-family="Helvetica"><tspan y="0" x="0">0</tspan></text><path d="M209.072 297.82v5.347" fill="none" stroke="#000" stroke-width=".7679808" stroke-miterlimit="10"/><text style="-inkscape-font-specification:Helvetica" transform="matrix(1.33333 0 0 1.33333 205.365 315.162)" font-weight="400" font-size="9.999" font-family="Helvetica"><tspan y="0" x="0">5</tspan></text><path d="M357.588 297.82v5.347" fill="none" stroke="#000" stroke-width=".7679808" stroke-miterlimit="10"/><text style="-inkscape-font-specification:Helvetica" transform="matrix(1.33333 0 0 1.33333 350.176 315.162)" font-weight="400" font-size="9.999" font-family="Helvetica"><tspan y="0" x="0 5.559444">10</tspan></text><path d="M506.088 297.82v5.347" fill="none" stroke="#000" stroke-width=".7679808" stroke-miterlimit="10"/><text style="-inkscape-font-specification:Helvetica" transform="matrix(1.33333 0 0 1.33333 498.676 315.162)" font-weight="400" font-size="9.999" font-family="Helvetica"><tspan y="0" x="0 5.559444">15</tspan><tspan y="11.002" x="-179.293 -174.2935 -168.73405 -166.51428 -160.95483 -158.17511 -155.95534 -153.73555 -151.51578 -148.73605">volatility</tspan></text><path d="M72.22 365.949h422.203V341.1H72.22z" fill="#fff"/><path d="M72.22 365.949V341.1h422.203v24.849H72.22" fill="none" stroke="#000" stroke-width=".7679808" stroke-miterlimit="10"/><path d="M77.98 353.525h49.928" fill="none" stroke="#1a476f" stroke-width="1.1519712000000002" stroke-miterlimit="10"/><path d="M282.71 353.525h49.914" fill="none" stroke="#ffd200" stroke-width="1.1519712000000002" stroke-miterlimit="10"/><text style="-inkscape-font-specification:Helvetica" transform="matrix(1.33333 0 0 1.33333 135.893 357.254)" font-weight="400" font-size="7.994" font-family="Helvetica"><tspan y="0" x="0 1.7747235 6.2195263 10.66433 12.439053 16.436178 18.210901 22.655704 27.100508 31.545311 33.320034 35.542435 37.317158 43.976368 48.421173 52.865974 55.088375 59.53318 63.977982 66.200386 70.19751 74.642311 76.417038 80.861839 83.084244 84.858963 86.63369 88.408409 90.630814 153.54924 157.99403 159.76877 163.76588 165.9883 170.43309 173.09518 174.8699 178.86702 183.31183 185.08655 187.30896 191.30608 195.75089 197.5256 201.97041 204.19281 205.96753 207.74226 209.51698 211.73938 215.73651 217.95891 220.621 224.61812 226.39284 230.83765 234.83478 239.27957 241.50197 245.94678 250.39159 254.83638 259.28119">individual imputed volatilityhistorical volatility (since 1987)</tspan></text><text style="-inkscape-font-specification:Helvetica" transform="matrix(1.33333 0 0 1.33333 243.91 28.821)" font-weight="400" font-size="13.996" font-family="Helvetica" fill="#1e2d53"><tspan y="0" x="0 8.5516167 17.103233 26.438633 35.774033 43.555862 51.337696">FTSE100</tspan></text></svg>