<svg xmlns="http://www.w3.org/2000/svg" height="384" width="528"><path d="M0 384h528V0H0z" fill="#eaf2f3"/><path d="M0 384h527.984V.012H0z" fill="#fff"/><path d="M0 384V.012h527.984V384H0" fill="none" stroke="#fff" stroke-width=".7679808" stroke-miterlimit="10"/><path d="M52.107 297.82h462.43V36.724H52.106z" fill="#fff"/><path d="M52.107 297.82V36.724h462.429V297.82H52.106" fill="none" stroke="#fff" stroke-width=".7679808" stroke-miterlimit="10"/><path d="M52.107 289.372h462.429M52.107 214.445h462.429M52.107 139.519h462.429M52.107 64.576h462.429" fill="none" stroke="#eaf2f3" stroke-width="1.1519712000000002" stroke-miterlimit="10"/><path d="M60.539 102.379l.676-5.727M61.215 96.652l.677-4.273M61.892 92.379l.676-13.926M62.568 78.453l.676-11.336M63.244 67.117l.677-8.942M63.92 58.175l.677-6.963M64.597 51.212l.677-4.324M65.274 46.888l.66-1.699M65.934 45.19l.676.94M66.61 46.13l.677 3.431M67.287 49.561l.677 3.828M67.964 53.39l.676 5.989M68.64 59.379l.677 8.548M69.317 67.927l.676 11.697M69.993 79.624l.676 7.723M70.67 87.347l.676-2.542M71.346 84.805l.676-.792M72.022 84.013l.66.826M72.682 84.839l.677-2.492M73.359 82.347l.676-6.435M74.035 75.912l.677-4.224M74.712 71.688l.677-2.41M75.389 69.279l.676-.743M76.065 68.536l.677-.56M76.742 67.976l.676 1.37M77.418 69.345l.676 3.003M78.094 72.348l.66 4.39M78.755 76.737l.676 4.504M79.431 81.241l.676 5.924M80.107 87.165l.677 7.739M80.784 94.904l.676 9.603M81.46 104.507l.677 2.738M82.137 107.245l.677.81M82.814 108.055l.676 1.616M83.49 109.67l.677 2.426M84.167 112.096l.676-2.672M84.843 109.424l.66-2.047M85.503 107.377l.677-.23M86.18 107.147l.676 1.221M86.856 108.368l.676 1.435M87.532 109.803l.677 1.27M88.209 111.073l.676 2.575M88.885 113.648l.677 3.943M89.562 117.59l.677 4.043M90.239 121.633l.676 4.439M90.915 126.072l.66 5.973M91.575 132.045l.677 7.656M92.252 139.701l.676 7.871M92.928 147.572l.677-.199M93.605 147.373l.676.727M94.281 148.1l.676 1.583M94.957 149.683l.677.924M95.634 150.607l.676-4.091M96.31 146.516l.677-3.25M96.987 143.265l.677-1.634M97.664 141.63l.66-.213M98.323 141.417l.677-.232M99 141.185l.677 1.008M99.677 142.193l.676 1.914M100.353 144.107l.677 2.969M101.03 147.076l.676 4.125M101.706 151.201l.676 4.768M102.382 155.97l.677 5.89M103.059 161.86l.676 6.683M103.735 168.543l.66 3.944M104.395 172.487l.677.989M105.072 173.476l.676 1.816M105.748 175.292l.677 2.607M106.425 177.899l.677 1.501M107.102 179.4l.676 1.287M107.778 180.687l.677 2.525M108.455 183.212l.676 3.316M109.131 186.528l.676 3.861M109.807 190.39l.677 3.067M110.484 193.457l.66 3.862M111.144 197.319l.676 5.016M111.82 202.335l.677 5.61M112.497 207.945l.676 6.171M113.173 214.116l.677 6.88M113.85 220.996l.677 7.524M114.527 228.52l.676 8.168M115.203 236.688l.677 1.765M115.88 238.453l.676 1.254M116.556 239.707l.66 1.536M117.216 241.243l.677 1.848M117.893 243.09l.676.643M118.569 243.733l.676 1.123M119.245 244.856l.677 1.535M119.922 246.39l.676 1.7M120.598 248.09l.677 1.93M121.275 250.02l.677 1.963M121.952 251.983l.676 1.865M122.628 253.848l.677 2.244M123.305 256.092l.66 2.525M123.965 258.617l.676 2.54M124.641 261.157l.677 2.822M125.318 263.98l.676 2.969M125.994 266.949l.676 2.228M126.67 269.177l.677.23M127.347 269.407l.676.38M128.023 269.787l.677.594M128.7 270.381l.677.478M129.377 270.86l.676.247M130.053 271.107l.66.33M130.713 271.437l.677.544M131.39 271.981l.676.776M132.066 272.757l.677.577M132.743 273.334l.676.793M133.419 274.127l.676.94M134.095 275.067l.677.957M134.772 276.024l.676 1.056M135.448 277.08l.677 1.155M136.125 278.235l.66 1.287M136.785 279.522l.676 1.485M137.461 281.007l.678.528M138.139 281.535l.676.148M138.815 281.683l.676.215M139.49 281.898l.678.313M140.168 282.211l.676.017M140.844 282.228l.676-.05M141.52 282.179l.677.05M142.197 282.228l.676.082M142.873 282.31l.66.116M143.533 282.426l.676.116M144.21 282.542l.677.214M144.887 282.756l.676.297M145.563 283.053l.677.198M146.24 283.251l.676.198M146.916 283.449l.677.247M147.593 283.696l.676.33M148.27 284.027l.675.38M148.945 284.406l.66-.016M149.605 284.39l.676.016M150.281 284.406l.678.083M150.959 284.489l.676.066M151.635 284.555l.677-.298M152.312 284.257l.676-.23M152.988 284.027l.676-.166M153.664 283.861l.677-.131M154.341 283.73l.676-.066M155.017 283.664l.676-.05M155.693 283.614l.662-.05M156.355 283.565l.676.016M157.03 283.581l.677.115M157.707 283.696l.677.198M158.384 283.894l.676.264M159.06 284.158l.676.363M159.736 284.521l.677.182M160.413 284.703l.676-.017M161.09 284.686l.677.017M161.767 284.703l.66.066M162.427 284.769l.676-.33M163.103 284.44l.676-.628M163.779 283.812l.677-.528M164.456 283.284l.676-.429M165.132 282.855l.676-.33M165.808 282.525l.677-.314M166.485 282.211l.676-.197M167.161 282.014l.678-.1M167.839 281.915l.676-.017M168.515 281.898l.66.099M169.175 281.997l.676.198M169.85 282.195l.678.28M170.528 282.475l.676.396M171.204 282.871l.677.034M171.881 282.905l.676.016M172.557 282.92l.676.1M173.233 283.02l.676.165M173.91 283.185l.677.214M174.587 283.4l.66.197M175.247 283.597l.676.264M175.923 283.861l.677.314M176.6 284.175l.676.363M177.276 284.538l.676.43M177.952 284.967l.677.495M178.63 285.462l.675.544M179.305 286.006l.676.611M179.981 286.617l.678.66M180.659 287.277l.676.71M181.335 287.986l.66.776M181.995 288.762l.677.627M182.672 289.39h.676M183.348 289.39h.676M184.024 289.39h.677M184.701 289.39l.676-.034M185.377 289.356l.678-.066M186.055 289.29l.676-.083M186.73 289.207l.677-.065M187.407 289.142l.66-.067M188.067 289.075l.677-.049M188.744 289.026l.676-.066M189.42 288.96l.676-.033M190.096 288.927l.677-.05M190.773 288.878l.676-.034M191.45 288.844l.677-.016M192.127 288.828l.676-.033M192.803 288.795l.676-.016M193.479 288.779h.677M194.156 288.779l.66-.017M194.816 288.762h.676M195.492 288.762l.677.017M196.17 288.779h.675M196.845 288.779l.676.032M197.521 288.811l.676.017M198.197 288.828l.678.033M198.875 288.86l.676.034M199.55 288.894l.678.05M200.228 288.944l.66.033M200.888 288.977l.676.066M201.564 289.043l.676.05M202.24 289.092l.677.066M202.917 289.158l.676.066M203.593 289.224l.676.082M204.27 289.306l.677.083M204.947 289.39h.676M205.623 289.39h.677M206.3 289.39h.676M206.976 289.39h.66M207.636 289.39h.676M208.312 289.39l.677-.034M208.99 289.356l.675-.083M209.665 289.273l.678-.066M210.343 289.207l.676-.082M211.019 289.125l.676-.05M211.695 289.075l.677-.066M212.372 289.01l.676-.05M213.048 288.96l.66-.05M213.708 288.91l.676-.032M214.384 288.878l.677-.034M215.061 288.844l.676-.033M215.737 288.811l.678-.016M216.415 288.795l.676-.016M217.09 288.779h.677M217.767 288.779l.677-.017M218.444 288.762l.676-.066M219.12 288.696l.676-.165M219.796 288.531l.661-.132M220.457 288.399l.676-.116M221.133 288.283l.676-.099M221.81 288.184l.675-.082M222.485 288.102l.678-.066M223.163 288.036l.676-.033M223.839 288.003l.677-.033M224.516 287.97l.676-.016M225.192 287.954h.677M225.87 287.954l.675.032M226.545 287.986l.66.033M227.205 288.02l.676.065M227.881 288.085l.676.067M228.557 288.152h.678M229.235 288.152l.676.016M229.91 288.168l.678.016M230.588 288.184l.676.05M231.264 288.234l.676.05M231.94 288.283l.677.066M232.617 288.35l.66.066M233.277 288.416l.676.082M233.953 288.498l.678.099M234.63 288.597l.677.116M235.307 288.713l.676.115M235.983 288.828l.677.132M236.66 288.96l.676.148M237.336 289.108l.676.149M238.012 289.257l.677.132M238.69 289.39h.675M239.365 289.39h.66M240.025 289.39h.678M240.703 289.39h.676M241.379 289.39h.676M242.055 289.39h.677M242.732 289.39h.676M243.408 289.39h.676M244.084 289.39h.677M244.761 289.39h.676M245.437 289.39h.66M246.097 289.39h.676M246.773 289.39h.678M247.45 289.39h.677M248.127 289.39h.677M248.804 289.39h.676M249.48 289.39h.676M250.156 289.39h.677M250.833 289.39h.676M251.51 289.39h.675M252.185 289.39l.66-.1M252.845 289.29l.678-.165M253.523 289.125l.676-.148M254.199 288.977l.677-.133M254.876 288.844l.676-.115M255.552 288.73l.676-.116M256.228 288.614l.677-.1M256.905 288.515l.676-.083M257.581 288.432l.676-.083M258.257 288.35l.662-.067M258.919 288.283l.676-.05M259.595 288.234l.676-.033M260.27 288.201l.678-.033M260.948 288.168l.676-.016M261.624 288.152h.676" fill="none" stroke="#1a476f" stroke-width="1.1519712000000002" stroke-linecap="round" stroke-miterlimit="10"/><path d="M93.605 267.41l.759-1.335M94.364 266.075l.758-1.337M95.122 264.738l.76-1.32M95.881 263.418l.776-1.386M96.657 262.032l.76-1.402M97.416 260.63l.76-1.42M98.175 259.21l.759-1.369M98.934 257.841l.76-1.42M99.693 256.422l.76-1.518M100.452 254.904l.776-1.6M101.228 253.304l.758-1.815M101.986 251.489l.76-1.964M102.745 249.525l.76-1.946M103.505 247.579l.759-1.948M104.264 245.63l.758-1.946M105.022 243.684l.776-2.096M105.798 241.588l.759-2.177M106.557 239.41l.76-2.243M107.316 237.167l.76-2.278M108.075 234.89l.759-2.294M108.834 232.596l.76-2.327M109.593 230.27l.776-2.277M110.369 227.993l.759-2.261M111.128 225.732l.758-2.277M111.886 223.455l.76-2.211M112.645 221.244l.76-2.145M113.405 219.099l.759-2.03M114.164 217.07l.758-1.882M114.922 215.188l.776-1.881M115.698 213.307l.759-1.764M116.457 211.543l.76-1.7M117.216 209.843l.76-1.667M117.975 208.176l.759-1.617M118.734 206.559l.76-1.535M119.493 205.024l.776-1.468M120.269 203.556l.759-1.387M121.028 202.17l.758-1.287M121.786 200.883l.76-1.271M122.545 199.612l.76-1.287M123.305 198.325l.759-1.204M124.064 197.121l.775-1.089M124.84 196.032l.758-1.023M125.598 195.01l.759-.86M126.357 194.15l.76-.742M127.116 193.408l.76-.577M127.875 192.83l.759-.395M128.634 192.435l.775-.215M129.41 192.22l.759-.132M130.169 192.088l.759.017M130.928 192.105l.758.099M131.686 192.204l.76.148M132.445 192.352l.76.15M133.205 192.501l.775.198M133.98 192.699l.759.264M134.739 192.963l.758.313M135.497 193.276l.76.43M136.257 193.705l.759.43M137.016 194.135l.759.494M137.775 194.63l.776.543M138.55 195.173l.76.66M139.31 195.833l.76.678M140.07 196.51l.758.677M140.828 197.187l.759.742M141.587 197.93l.758.809M142.345 198.739l.776.857M143.121 199.596l.759.859M143.88 200.455l.759.89M144.639 201.345l.758.842M145.397 202.187l.76.841M146.157 203.028l.759.857M146.916 203.885l.776.892M147.692 204.777l.759.94M148.45 205.717l.76.94M149.21 206.657l.76.826M149.97 207.483l.758.841M150.728 208.324l.759.792M151.487 209.116l.774.89M152.261 210.007l.76.858M153.021 210.865l.759.743M153.78 211.608l.759.792M154.539 212.4l.758.825M155.297 213.225l.76.924M156.057 214.15l.775.791M156.832 214.941l.76.759M157.592 215.7l.759.644M158.35 216.344l.76.379M159.11 216.723l.76.33M159.87 217.053l.758.412M160.628 217.465l.775.463M161.403 217.928l.758.461M162.161 218.39l.76.362M162.921 218.752l.759.315M163.68 219.067l.759.081M164.439 219.148l.758-.032M165.197 219.116l.776-.05M165.973 219.067l.759-.051M166.732 219.016l.76-.083M167.492 218.933l.759-.13M168.25 218.803l.76-.116M169.01 218.687l.76-.182M169.77 218.505l.774-.248M170.544 218.257l.759-.148M171.303 218.11l.758-.067M172.061 218.043l.76-.115M172.821 217.928l.759-.183M173.58 217.745l.759-.13M174.339 217.615l.776-.248M175.115 217.367l.758-.38M175.873 216.987l.759-.347M176.632 216.64l.76-.412M177.392 216.228l.759-.445M178.15 215.783l.76-.364M178.91 215.419l.775-.412M179.685 215.007l.759-.544M180.444 214.463l.759-.627M181.203 213.836l.758-.595M181.961 213.241l.76-.51M182.721 212.73l.759-.413M183.48 212.317l.776-.329M184.256 211.988l.759-.165M185.015 211.823l.758-.034M185.773 211.79l.759.049M186.532 211.839l.76.049M187.292 211.888l.759.033M188.05 211.921l.777-.016M188.827 211.905l.758-.098M189.585 211.807l.759-.166M190.344 211.641l.759-.165M191.103 211.476l.758-.197M191.861 211.279l.76-.183M192.621 211.096l.775-.05M193.396 211.047l.76.066M194.156 211.113l.759.132M194.915 211.245l.758.231M195.673 211.476l.759.297M196.432 211.773l.76.314M197.192 212.087l.775.396M197.967 212.483l.76.528M198.727 213.01l.758.71M199.485 213.72l.759.808M200.244 214.528l.759.924M201.003 215.452l.758 1.04M201.761 216.492l.776.94M202.537 217.432l.759.859M203.296 218.29l.76.875M204.056 219.165l.759.891M204.815 220.056l.758.924M205.573 220.98l.759.875M206.332 221.855l.776.792M207.108 222.647l.759.825M207.867 223.472l.76.792M208.627 224.264l.758.775M209.385 225.039l.759.66M210.144 225.699l.759.628M210.903 226.327l.776.692M211.679 227.019l.758.693M212.437 227.712l.759.693M213.196 228.405l.76.594M213.956 228.999l.759.66M214.715 229.659l.758.626M215.473 230.285l.776.595M216.25 230.88l.758.544M217.008 231.424l.759.595M217.767 232.019l.76.61M218.527 232.63l.758.66M219.285 233.29l.759.758M220.044 234.048l.775.776M220.819 234.824l.76.676M221.579 235.5l.758.676M222.337 236.176l.759.776M223.096 236.952l.76.792M223.856 237.744l.759.743M224.615 238.487l.776.825M225.39 239.312l.76.857M226.15 240.17l.758.825M226.908 240.995l.759.808M227.667 241.803l.76.841M228.427 242.644l.758.908M229.185 243.552l.775.908M229.96 244.46l.759.873M230.719 245.333l.76.908M231.479 246.241l.758.859M232.237 247.1l.759.792M232.996 247.892l.76.824M233.756 248.716l.775.776M234.53 249.492l.76.792M235.29 250.284l.76.809M236.05 251.093l.758.791M236.808 251.884l.759.71M237.567 252.594l.76.61M238.327 253.205l.774.643M239.101 253.848l.759.71M239.86 254.557l.759.76M240.619 255.317l.76.808M241.379 256.125l.758.891M242.137 257.016l.759.924M242.896 257.94l.776.924M243.672 258.864l.759.94M244.43 259.805l.76.84M245.19 260.646l.76.825M245.95 261.47l.758.793M246.708 262.263l.759.776M247.467 263.039l.776.758M248.243 263.797l.758.66M249.001 264.457l.759.66M249.76 265.118l.759.692M250.519 265.81l.76.694M251.279 266.504l.758.71M252.037 267.213l.776.726M252.813 267.94l.759.708M253.572 268.648l.759.694M254.33 269.342l.76.627M255.09 269.969l.76.66M255.85 270.629l.758.709M256.608 271.338l.776.743M257.384 272.08l.759.792M258.143 272.872l.758.825M258.901 273.697l.759.793M259.66 274.49l.759.709M260.419 275.199l.76.676M261.179 275.875l.776.66M261.955 276.535l.758.694M262.713 277.229l.759.61M263.472 277.84l.759.593M264.23 278.433l.76.61M264.99 279.044l.76.66M265.75 279.704l.758.494M266.508 280.198l.776.48M267.284 280.677l.759.528M268.043 281.205l.758.495M268.801 281.7l.759.495M269.56 282.195l.759.462M270.319 282.657l.76.446M271.079 283.103l.776.445M271.855 283.548l.758.43M272.613 283.977l.759.38M273.372 284.356l.759.28M274.13 284.637l.76.215M274.89 284.852l.76.18M275.65 285.033l.774.165M276.424 285.198l.76.116M277.184 285.314l.759.082M277.943 285.396l.758.099M278.701 285.495l.759.099M279.46 285.594l.759.1M280.219 285.693h.776M280.995 285.693l.76-.033M281.755 285.66l.758-.05M282.513 285.61l.759-.05M283.272 285.56l.759-.049M284.03 285.511l.76-.049M284.79 285.462l.775-.066M285.565 285.396l.759-.082M286.324 285.314l.76-.1M287.084 285.215l.759-.1M287.843 285.116l.758-.083M288.601 285.033l.759-.066M289.36 284.967l.776-.066M290.136 284.901l.759-.082M290.895 284.819l.76-.083M291.655 284.736l.758-.066M292.413 284.67l.759-.132M293.172 284.538l.759-.148M293.93 284.39l.777-.116M294.707 284.274l.758-.132M295.465 284.142l.759-.099M296.224 284.043l.76-.1M296.984 283.944l.759-.1M297.743 283.845l.758-.082M298.501 283.763l.776-.067M299.277 283.696l.759-.05M300.036 283.647l.759-.05M300.795 283.597l.76-.032M301.555 283.565l.758-.034M302.313 283.531l.759-.016M303.072 283.515h.776M303.848 283.515h.759M304.607 283.515l.758.016M305.365 283.531l.759.034M306.124 283.565l.76.032M306.884 283.597l.759.05M307.643 283.647l.776.05M308.419 283.696l.758.067M309.177 283.763l.759.082M309.936 283.845l.759.099M310.695 283.944l.76.066M311.455 284.01l.758.066M312.213 284.076l.775.082M312.988 284.158l.76.083M313.748 284.241l.759.082M314.507 284.323l.758.116M315.265 284.44l.759.098M316.024 284.538l.76.132M316.784 284.67l.775.132M317.559 284.802l.76.116M318.319 284.918l.758.115M319.077 285.033l.759.099M319.836 285.132l.759.132M320.595 285.264l.76.116" fill="none" stroke="#ffd200" stroke-width="1.1519712000000002" stroke-linecap="round" stroke-miterlimit="10"/><path d="M52.107 297.82V36.724M52.107 289.372h-5.33" fill="none" stroke="#000" stroke-width=".7679808" stroke-miterlimit="10"/><text style="-inkscape-font-specification:Helvetica" transform="matrix(0 -1.33333 1.33333 0 40.111 293.079)" font-weight="400" font-size="9.999" font-family="Helvetica"><tspan y="0" x="0">0</tspan></text><path d="M52.107 214.445h-5.33" fill="none" stroke="#000" stroke-width=".7679808" stroke-miterlimit="10"/><text style="-inkscape-font-specification:Helvetica" transform="matrix(0 -1.33333 1.33333 0 40.111 220.005)" font-weight="400" font-size="9.999" font-family="Helvetica"><tspan y="0" x="0 2.779722">.2</tspan></text><path d="M52.107 139.519h-5.33" fill="none" stroke="#000" stroke-width=".7679808" stroke-miterlimit="10"/><text style="-inkscape-font-specification:Helvetica" transform="matrix(0 -1.33333 1.33333 0 40.111 145.079)" font-weight="400" font-size="9.999" font-family="Helvetica"><tspan y="0" x="0 2.779722">.4</tspan></text><path d="M52.107 64.576h-5.33" fill="none" stroke="#000" stroke-width=".7679808" stroke-miterlimit="10"/><text style="-inkscape-font-specification:Helvetica" transform="matrix(0 -1.33333 1.33333 0 40.111 70.136)" font-weight="400" font-size="9.999" font-family="Helvetica"><tspan y="0" x="0 2.779722">.6</tspan><tspan y="-11.001" x="-88.690201 -83.130753 -77.571312 -72.011871 -67.012367 -64.792587 -62.012867">density</tspan></text><path d="M52.107 297.82h462.429M60.555 297.82v5.347" fill="none" stroke="#000" stroke-width=".7679808" stroke-miterlimit="10"/><text style="-inkscape-font-specification:Helvetica" transform="matrix(1.33333 0 0 1.33333 56.849 315.162)" font-weight="400" font-size="9.999" font-family="Helvetica"><tspan y="0" x="0">0</tspan></text><path d="M209.072 297.82v5.347" fill="none" stroke="#000" stroke-width=".7679808" stroke-miterlimit="10"/><text style="-inkscape-font-specification:Helvetica" transform="matrix(1.33333 0 0 1.33333 205.365 315.162)" font-weight="400" font-size="9.999" font-family="Helvetica"><tspan y="0" x="0">5</tspan></text><path d="M357.588 297.82v5.347" fill="none" stroke="#000" stroke-width=".7679808" stroke-miterlimit="10"/><text style="-inkscape-font-specification:Helvetica" transform="matrix(1.33333 0 0 1.33333 350.176 315.162)" font-weight="400" font-size="9.999" font-family="Helvetica"><tspan y="0" x="0 5.559444">10</tspan></text><path d="M506.088 297.82v5.347" fill="none" stroke="#000" stroke-width=".7679808" stroke-miterlimit="10"/><text style="-inkscape-font-specification:Helvetica" transform="matrix(1.33333 0 0 1.33333 498.676 315.162)" font-weight="400" font-size="9.999" font-family="Helvetica"><tspan y="0" x="0 5.559444">15</tspan><tspan y="11.002" x="-179.293 -174.2935 -168.73405 -166.51428 -160.95483 -158.17511 -155.95534 -153.73555 -151.51578 -148.73605">volatility</tspan></text><path d="M72.22 365.949h422.203V341.1H72.22z" fill="#fff"/><path d="M72.22 365.949V341.1h422.203v24.849H72.22" fill="none" stroke="#000" stroke-width=".7679808" stroke-miterlimit="10"/><path d="M77.98 353.525h49.928" fill="none" stroke="#1a476f" stroke-width="1.1519712000000002" stroke-miterlimit="10"/><path d="M282.71 353.525h49.914" fill="none" stroke="#ffd200" stroke-width="1.1519712000000002" stroke-miterlimit="10"/><text style="-inkscape-font-specification:Helvetica" transform="matrix(1.33333 0 0 1.33333 135.893 357.254)" font-weight="400" font-size="7.994" font-family="Helvetica"><tspan y="0" x="0 1.7747235 6.2195263 10.66433 12.439053 16.436178 18.210901 22.655704 27.100508 31.545311 33.320034 35.542435 37.317158 43.976368 48.421173 52.865974 55.088375 59.53318 63.977982 66.200386 70.19751 74.642311 76.417038 80.861839 83.084244 84.858963 86.63369 88.408409 90.630814 153.54924 157.99403 159.76877 163.76588 165.9883 170.43309 173.09518 174.8699 178.86702 183.31183 185.08655 187.30896 191.30608 195.75089 197.5256 201.97041 204.19281 205.96753 207.74226 209.51698 211.73938 215.73651 217.95891 220.621 224.61812 226.39284 230.83765 234.83478 239.27957 241.50197 245.94678 250.39159 254.83638 259.28119">individual imputed volatilityhistorical volatility (since 1987)</tspan></text><text style="-inkscape-font-specification:Helvetica" transform="matrix(1.33333 0 0 1.33333 249.088 28.821)" font-weight="400" font-size="13.996" font-family="Helvetica" fill="#1e2d53"><tspan y="0" x="0 9.3353987 18.670797 28.006197 35.788029 43.569859">S&amp;P500</tspan></text></svg>