<svg xmlns="http://www.w3.org/2000/svg" height="384" width="528"><path d="M0 384h528V0H0z" fill="#fff"/><path d="M0 384h527.984V.012H0z" fill="#fff"/><path d="M0 384V.012h527.984V384H0" fill="none" stroke="#fff" stroke-width=".7679808" stroke-miterlimit="10"/><path d="M55.54 279.159V13.46h458.996v265.699H55.539" fill="none" stroke="#000" stroke-width=".7679808" stroke-miterlimit="10"/><path d="M55.54 21.907h458.996M55.54 46.773h458.996M55.54 71.655h458.996M55.54 96.537h458.996M55.54 121.419h458.996M55.54 146.301h458.996M55.54 171.183h458.996M55.54 196.065h458.996M55.54 220.947h458.996M55.54 245.83h458.996M55.54 270.71h458.996" fill="none" stroke="#d0d0d0" stroke-width=".7679808" stroke-miterlimit="10"/><path d="M63.987 270.71h88.423V139.157H63.987z" fill="#486c8c"/><path d="M63.987 270.71V139.157h88.424v131.555H63.987" fill="none" stroke="#000" stroke-width=".159996" stroke-miterlimit="10"/><path d="M329.257 270.71h88.424v-141.9h-88.424z" fill="#486c8c"/><path d="M329.257 270.71v-141.9h88.424v141.9h-88.424" fill="none" stroke="#000" stroke-width=".159996" stroke-miterlimit="10"/><path d="M152.41 270.71h88.424V127.756h-88.423z" fill="#e99833"/><path d="M152.41 270.71V127.756h88.423V270.71h-88.422" fill="none" stroke="#000" stroke-width=".159996" stroke-miterlimit="10"/><path d="M417.681 270.71h88.424V140.197H417.68z" fill="#e99833"/><path d="M417.681 270.71V140.197h88.424v130.515h-88.424" fill="none" stroke="#000" stroke-width=".159996" stroke-miterlimit="10"/><path d="M196.63 118.201v19.124" fill="none" stroke="#000" stroke-width="1.1519712000000002" stroke-miterlimit="10"/><path d="M193.693 137.325h5.875M193.693 118.201h5.875" fill="none" stroke="#000" stroke-width="1.1519712000000002" stroke-linecap="round" stroke-miterlimit="10"/><path d="M461.884 130.247v19.914" fill="none" stroke="#000" stroke-width="1.1519712000000002" stroke-miterlimit="10"/><path d="M458.948 150.161h5.873M458.948 130.247h5.873" fill="none" stroke="#000" stroke-width="1.1519712000000002" stroke-linecap="round" stroke-miterlimit="10"/><path d="M108.207 129.735v18.86" fill="none" stroke="#000" stroke-width="1.1519712000000002" stroke-miterlimit="10"/><path d="M105.27 148.595h5.874M105.27 129.735h5.874" fill="none" stroke="#000" stroke-width="1.1519712000000002" stroke-linecap="round" stroke-miterlimit="10"/><path d="M373.461 118.647v20.345" fill="none" stroke="#000" stroke-width="1.1519712000000002" stroke-miterlimit="10"/><path d="M370.524 138.992h5.873M370.524 118.647h5.873" fill="none" stroke="#000" stroke-width="1.1519712000000002" stroke-linecap="round" stroke-miterlimit="10"/><path d="M55.54 279.159V13.46M55.54 270.71h-5.33" fill="none" stroke="#000" stroke-width=".7679808" stroke-miterlimit="10"/><text style="-inkscape-font-specification:Helvetica" transform="matrix(1.33333 0 0 1.33333 40.14 275.38)" font-weight="400" font-size="9.999" font-family="Helvetica"><tspan y="0" x="0">0</tspan></text><path d="M55.54 245.83h-5.33" fill="none" stroke="#000" stroke-width=".7679808" stroke-miterlimit="10"/><text style="-inkscape-font-specification:Helvetica" transform="matrix(1.33333 0 0 1.33333 40.14 250.499)" font-weight="400" font-size="9.999" font-family="Helvetica"><tspan y="0" x="0">1</tspan></text><path d="M55.54 220.947h-5.33" fill="none" stroke="#000" stroke-width=".7679808" stroke-miterlimit="10"/><text style="-inkscape-font-specification:Helvetica" transform="matrix(1.33333 0 0 1.33333 40.14 225.616)" font-weight="400" font-size="9.999" font-family="Helvetica"><tspan y="0" x="0">2</tspan></text><path d="M55.54 196.065h-5.33" fill="none" stroke="#000" stroke-width=".7679808" stroke-miterlimit="10"/><text style="-inkscape-font-specification:Helvetica" transform="matrix(1.33333 0 0 1.33333 40.14 200.735)" font-weight="400" font-size="9.999" font-family="Helvetica"><tspan y="0" x="0">3</tspan></text><path d="M55.54 171.183h-5.33" fill="none" stroke="#000" stroke-width=".7679808" stroke-miterlimit="10"/><text style="-inkscape-font-specification:Helvetica" transform="matrix(1.33333 0 0 1.33333 40.14 175.852)" font-weight="400" font-size="9.999" font-family="Helvetica"><tspan y="0" x="0">4</tspan></text><path d="M55.54 146.301h-5.33" fill="none" stroke="#000" stroke-width=".7679808" stroke-miterlimit="10"/><text style="-inkscape-font-specification:Helvetica" transform="matrix(1.33333 0 0 1.33333 40.14 150.97)" font-weight="400" font-size="9.999" font-family="Helvetica"><tspan y="0" x="0">5</tspan></text><path d="M55.54 121.419h-5.33" fill="none" stroke="#000" stroke-width=".7679808" stroke-miterlimit="10"/><text style="-inkscape-font-specification:Helvetica" transform="matrix(1.33333 0 0 1.33333 40.14 126.088)" font-weight="400" font-size="9.999" font-family="Helvetica"><tspan y="0" x="0">6</tspan></text><path d="M55.54 96.537h-5.33" fill="none" stroke="#000" stroke-width=".7679808" stroke-miterlimit="10"/><text style="-inkscape-font-specification:Helvetica" transform="matrix(1.33333 0 0 1.33333 40.14 101.207)" font-weight="400" font-size="9.999" font-family="Helvetica"><tspan y="0" x="0">7</tspan></text><path d="M55.54 71.655h-5.33" fill="none" stroke="#000" stroke-width=".7679808" stroke-miterlimit="10"/><text style="-inkscape-font-specification:Helvetica" transform="matrix(1.33333 0 0 1.33333 40.14 76.324)" font-weight="400" font-size="9.999" font-family="Helvetica"><tspan y="0" x="0">8</tspan></text><path d="M55.54 46.773h-5.33" fill="none" stroke="#000" stroke-width=".7679808" stroke-miterlimit="10"/><text style="-inkscape-font-specification:Helvetica" transform="matrix(1.33333 0 0 1.33333 40.14 51.443)" font-weight="400" font-size="9.999" font-family="Helvetica"><tspan y="0" x="0">9</tspan></text><path d="M55.54 21.907h-5.33" fill="none" stroke="#000" stroke-width=".7679808" stroke-miterlimit="10"/><g font-weight="400" font-family="Helvetica"><text style="-inkscape-font-specification:Helvetica" transform="matrix(1.33333 0 0 1.33333 32.728 26.577)" font-size="9.999"><tspan y="0" x="0 5.559444">10</tspan></text><text style="-inkscape-font-specification:Helvetica" transform="matrix(0 -1.33333 1.33333 0 23.562 174.14)" font-size="7.994"><tspan y="0" x="0 6.6592102 11.104013 15.548817 19.99362 22.216021 26.213146 30.21027 34.655075 37.317158">Mean score</tspan></text></g><path d="M55.54 279.159h458.996M152.41 279.159v5.33" fill="none" stroke="#000" stroke-width=".7679808" stroke-miterlimit="10"/><text style="-inkscape-font-specification:Helvetica" transform="matrix(1.33333 0 0 1.33333 128.7 296.5)" font-weight="400" font-size="9.999" font-family="Helvetica"><tspan y="0" x="0 7.779222 13.338666 18.898109 24.457554 27.787222 33.346664">General</tspan></text><path d="M417.681 279.159v5.33" fill="none" stroke="#000" stroke-width=".7679808" stroke-miterlimit="10"/><text style="-inkscape-font-specification:Helvetica" transform="matrix(1.33333 0 0 1.33333 391.012 296.5)" font-weight="400" font-size="9.999" font-family="Helvetica"><tspan y="0" x="0 6.1093888 8.3291674 13.888611 19.448055 25.0075 30.006998 32.226776 37.786221">Financial</tspan><tspan y="11.001" x="-107.542 -100.32272 -98.102943 -93.103447 -88.103943 -85.324219 -78.654892 -75.875168 -73.095444 -70.875664 -68.095947 -62.536503 -56.977058">Risk Attitude</tspan></text><path d="M138.633 365.949H431.46v-43.51H138.633z" fill="#fff"/><path d="M138.633 365.949v-43.51H431.46v43.51H138.633" fill="none" stroke="#000" stroke-width=".7679808" stroke-miterlimit="10"/><path d="M144.392 341.53h49.929v-13.333h-49.929z" fill="#486c8c"/><path d="M144.392 341.53v-13.333h49.928v13.332h-49.928" fill="none" stroke="#000" stroke-width=".159996" stroke-miterlimit="10"/><path d="M337.607 341.53h49.912v-13.333h-49.912z" fill="#e99833"/><path d="M337.607 341.53v-13.333h49.912v13.332h-49.912" fill="none" stroke="#000" stroke-width=".159996" stroke-miterlimit="10"/><path d="M144.392 353.525h49.928M144.392 356.461v-5.874M194.32 356.461v-5.874" fill="none" stroke="#000" stroke-width="1.1519712000000002" stroke-miterlimit="10"/><text style="-inkscape-font-specification:Helvetica" transform="matrix(1.33333 0 0 1.33333 202.307 338.592)" font-weight="400" font-size="7.994" font-family="Helvetica"><tspan y="0" x="0 5.3321648 11.104013 17.32354 144.91096 150.24313 155.12762 160.89948">PROFSTUD</tspan><tspan y="13.996" x="0 4.4448032 8.8896065 15.996494 18.218895 22.216021 26.660824 31.105627 33.32803 35.102753 39.547554 43.992359 48.43716 52.434284 56.879089 59.10149 60.876213 65.321014 67.543419 71.98822 74.650307 78.64743 83.092232">95% confidence interval</tspan></text></svg>