<svg xmlns="http://www.w3.org/2000/svg" height="384" width="528"><path d="M0 384h528V0H0z" fill="#fff"/><path d="M0 384h527.984V.012H0z" fill="#fff"/><path d="M0 384V.012h527.984V384H0" fill="none" stroke="#fff" stroke-width=".7679808" stroke-miterlimit="10"/><path d="M55.54 279.159V13.46h458.996v265.699H55.539" fill="none" stroke="#000" stroke-width=".7679808" stroke-miterlimit="10"/><path d="M55.54 21.907h458.996M55.54 41.03h458.996M55.54 60.17h458.996M55.54 79.31h458.996M55.54 98.45h458.996M55.54 117.59h458.996M55.54 136.73h458.996M55.54 155.87h458.996M55.54 175.01h458.996M55.54 194.15h458.996M55.54 213.29h458.996M55.54 232.43h458.996M55.54 251.57h458.996M55.54 270.71h458.996" fill="none" stroke="#d0d0d0" stroke-width=".7679808" stroke-miterlimit="10"/><path d="M63.987 270.71h40.194V65.73H63.987z" fill="#486c8c"/><path d="M63.987 270.71V65.73h40.194v204.98H63.987" fill="none" stroke="#000" stroke-width=".159996" stroke-miterlimit="10"/><path d="M184.57 270.71h40.194V163.46h-40.195z" fill="#486c8c"/><path d="M184.57 270.71V163.462h40.193v107.25h-40.194" fill="none" stroke="#000" stroke-width=".159996" stroke-miterlimit="10"/><path d="M305.135 270.71h40.194V54.496h-40.194z" fill="#486c8c"/><path d="M305.135 270.71V54.496h40.193V270.71h-40.193" fill="none" stroke="#000" stroke-width=".159996" stroke-miterlimit="10"/><path d="M425.717 270.71h40.194v-87.168h-40.194z" fill="#486c8c"/><path d="M425.717 270.71v-87.169h40.194v87.17h-40.194" fill="none" stroke="#000" stroke-width=".159996" stroke-miterlimit="10"/><path d="M104.181 270.71h40.194V77.316H104.18z" fill="#e99833"/><path d="M104.181 270.71V77.316h40.194V270.71H104.18" fill="none" stroke="#000" stroke-width=".159996" stroke-miterlimit="10"/><path d="M224.763 270.71h40.193v-91.723h-40.193z" fill="#e99833"/><path d="M224.763 270.71v-91.722h40.194v91.723h-40.194" fill="none" stroke="#000" stroke-width=".159996" stroke-miterlimit="10"/><path d="M345.328 270.71h40.194V68.85h-40.194z" fill="#e99833"/><path d="M345.328 270.71V68.85h40.195v201.86h-40.195" fill="none" stroke="#000" stroke-width=".159996" stroke-miterlimit="10"/><path d="M465.91 270.71h40.195v-82.516H465.91z" fill="#e99833"/><path d="M465.91 270.71v-82.515h40.195v82.516h-40.194" fill="none" stroke="#000" stroke-width=".159996" stroke-miterlimit="10"/><path d="M124.278 65.797v23.018" fill="none" stroke="#000" stroke-width="1.1519712000000002" stroke-miterlimit="10"/><path d="M121.341 88.815h5.874M121.341 65.797h5.874" fill="none" stroke="#000" stroke-width="1.1519712000000002" stroke-linecap="round" stroke-miterlimit="10"/><path d="M244.86 172.321v13.332" fill="none" stroke="#000" stroke-width="1.1519712000000002" stroke-miterlimit="10"/><path d="M241.923 185.653h5.874M241.923 172.321h5.874" fill="none" stroke="#000" stroke-width="1.1519712000000002" stroke-linecap="round" stroke-miterlimit="10"/><path d="M365.425 60.17v17.36" fill="none" stroke="#000" stroke-width="1.1519712000000002" stroke-miterlimit="10"/><path d="M362.488 77.53h5.875M362.488 60.17h5.875" fill="none" stroke="#000" stroke-width="1.1519712000000002" stroke-linecap="round" stroke-miterlimit="10"/><path d="M486.007 183.03v10.346" fill="none" stroke="#000" stroke-width="1.1519712000000002" stroke-miterlimit="10"/><path d="M483.07 193.376h5.874M483.07 183.03h5.874" fill="none" stroke="#000" stroke-width="1.1519712000000002" stroke-linecap="round" stroke-miterlimit="10"/><path d="M84.084 54.89v21.682" fill="none" stroke="#000" stroke-width="1.1519712000000002" stroke-miterlimit="10"/><path d="M81.147 76.572h5.874M81.147 54.89h5.874" fill="none" stroke="#000" stroke-width="1.1519712000000002" stroke-linecap="round" stroke-miterlimit="10"/><path d="M204.667 157.57v11.765" fill="none" stroke="#000" stroke-width="1.1519712000000002" stroke-miterlimit="10"/><path d="M201.73 169.335h5.873M201.73 157.57h5.873" fill="none" stroke="#000" stroke-width="1.1519712000000002" stroke-linecap="round" stroke-miterlimit="10"/><path d="M325.232 44.776v19.437" fill="none" stroke="#000" stroke-width="1.1519712000000002" stroke-miterlimit="10"/><path d="M322.295 64.213h5.874M322.295 44.776h5.874" fill="none" stroke="#000" stroke-width="1.1519712000000002" stroke-linecap="round" stroke-miterlimit="10"/><path d="M445.813 178.756v9.587" fill="none" stroke="#000" stroke-width="1.1519712000000002" stroke-miterlimit="10"/><path d="M442.876 188.343h5.875M442.876 178.756h5.875" fill="none" stroke="#000" stroke-width="1.1519712000000002" stroke-linecap="round" stroke-miterlimit="10"/><path d="M55.54 279.159V13.46M55.54 270.71h-5.33" fill="none" stroke="#000" stroke-width=".7679808" stroke-miterlimit="10"/><text style="-inkscape-font-specification:Helvetica" transform="matrix(1.33333 0 0 1.33333 40.14 275.38)" font-weight="400" font-size="9.999" font-family="Helvetica"><tspan y="0" x="0">0</tspan></text><path d="M55.54 251.57h-5.33" fill="none" stroke="#000" stroke-width=".7679808" stroke-miterlimit="10"/><text style="-inkscape-font-specification:Helvetica" transform="matrix(1.33333 0 0 1.33333 40.14 256.24)" font-weight="400" font-size="9.999" font-family="Helvetica"><tspan y="0" x="0">1</tspan></text><path d="M55.54 232.43h-5.33" fill="none" stroke="#000" stroke-width=".7679808" stroke-miterlimit="10"/><text style="-inkscape-font-specification:Helvetica" transform="matrix(1.33333 0 0 1.33333 40.14 237.1)" font-weight="400" font-size="9.999" font-family="Helvetica"><tspan y="0" x="0">2</tspan></text><path d="M55.54 213.29h-5.33" fill="none" stroke="#000" stroke-width=".7679808" stroke-miterlimit="10"/><text style="-inkscape-font-specification:Helvetica" transform="matrix(1.33333 0 0 1.33333 40.14 217.96)" font-weight="400" font-size="9.999" font-family="Helvetica"><tspan y="0" x="0">3</tspan></text><path d="M55.54 194.15h-5.33" fill="none" stroke="#000" stroke-width=".7679808" stroke-miterlimit="10"/><text style="-inkscape-font-specification:Helvetica" transform="matrix(1.33333 0 0 1.33333 40.14 198.82)" font-weight="400" font-size="9.999" font-family="Helvetica"><tspan y="0" x="0">4</tspan></text><path d="M55.54 175.01h-5.33" fill="none" stroke="#000" stroke-width=".7679808" stroke-miterlimit="10"/><text style="-inkscape-font-specification:Helvetica" transform="matrix(1.33333 0 0 1.33333 40.14 179.681)" font-weight="400" font-size="9.999" font-family="Helvetica"><tspan y="0" x="0">5</tspan></text><path d="M55.54 155.87h-5.33" fill="none" stroke="#000" stroke-width=".7679808" stroke-miterlimit="10"/><text style="-inkscape-font-specification:Helvetica" transform="matrix(1.33333 0 0 1.33333 40.14 160.54)" font-weight="400" font-size="9.999" font-family="Helvetica"><tspan y="0" x="0">6</tspan></text><path d="M55.54 136.73h-5.33" fill="none" stroke="#000" stroke-width=".7679808" stroke-miterlimit="10"/><text style="-inkscape-font-specification:Helvetica" transform="matrix(1.33333 0 0 1.33333 40.14 141.4)" font-weight="400" font-size="9.999" font-family="Helvetica"><tspan y="0" x="0">7</tspan></text><path d="M55.54 117.59h-5.33" fill="none" stroke="#000" stroke-width=".7679808" stroke-miterlimit="10"/><text style="-inkscape-font-specification:Helvetica" transform="matrix(1.33333 0 0 1.33333 40.14 122.26)" font-weight="400" font-size="9.999" font-family="Helvetica"><tspan y="0" x="0">8</tspan></text><path d="M55.54 98.45h-5.33" fill="none" stroke="#000" stroke-width=".7679808" stroke-miterlimit="10"/><text style="-inkscape-font-specification:Helvetica" transform="matrix(1.33333 0 0 1.33333 40.14 103.12)" font-weight="400" font-size="9.999" font-family="Helvetica"><tspan y="0" x="0">9</tspan></text><path d="M55.54 79.31h-5.33" fill="none" stroke="#000" stroke-width=".7679808" stroke-miterlimit="10"/><text style="-inkscape-font-specification:Helvetica" transform="matrix(1.33333 0 0 1.33333 32.728 83.981)" font-weight="400" font-size="9.999" font-family="Helvetica"><tspan y="0" x="0 5.559444">10</tspan></text><path d="M55.54 60.17h-5.33" fill="none" stroke="#000" stroke-width=".7679808" stroke-miterlimit="10"/><text style="-inkscape-font-specification:Helvetica" transform="matrix(1.33333 0 0 1.33333 32.728 64.84)" font-weight="400" font-size="9.999" font-family="Helvetica"><tspan y="0" x="0 5.559444">11</tspan></text><path d="M55.54 41.03h-5.33" fill="none" stroke="#000" stroke-width=".7679808" stroke-miterlimit="10"/><text style="-inkscape-font-specification:Helvetica" transform="matrix(1.33333 0 0 1.33333 32.728 45.7)" font-weight="400" font-size="9.999" font-family="Helvetica"><tspan y="0" x="0 5.559444">12</tspan></text><path d="M55.54 21.907h-5.33" fill="none" stroke="#000" stroke-width=".7679808" stroke-miterlimit="10"/><g font-weight="400" font-family="Helvetica"><text style="-inkscape-font-specification:Helvetica" transform="matrix(1.33333 0 0 1.33333 32.728 26.577)" font-size="9.999"><tspan y="0" x="0 5.559444">13</tspan></text><text style="-inkscape-font-specification:Helvetica" transform="matrix(0 -1.33333 1.33333 0 23.562 174.14)" font-size="7.994"><tspan y="0" x="0 6.6592102 11.104013 15.548817 19.99362 22.216021 26.213146 30.21027 34.655075 37.317158">Mean score</tspan></text></g><path d="M55.54 279.159h458.996M104.181 279.159v5.33" fill="none" stroke="#000" stroke-width=".7679808" stroke-miterlimit="10"/><text style="-inkscape-font-specification:Helvetica" transform="matrix(1.33333 0 0 1.33333 81.217 296.5)" font-weight="400" font-size="9.999" font-family="Helvetica"><tspan y="0" x="0 7.2192779 13.888611 20.557943 27.227278">RAVEN</tspan><tspan y="9.999" x="-0.55976599 7.7694011 13.328845 18.328344 21.108067 23.887789 29.447233">Max: 18</tspan></text><path d="M224.763 279.159v5.33" fill="none" stroke="#000" stroke-width=".7679808" stroke-miterlimit="10"/><text style="-inkscape-font-specification:Helvetica" transform="matrix(1.33333 0 0 1.33333 211.064 296.5)" font-weight="400" font-size="9.999" font-family="Helvetica"><tspan y="0" x="0 7.2192779 14.438556">CRT</tspan><tspan y="9.999" x="-4.7293 3.5998671 9.1593113 14.158811 16.938534 19.718254">Max: 7</tspan></text><path d="M345.328 279.159v5.33" fill="none" stroke="#000" stroke-width=".7679808" stroke-miterlimit="10"/><text style="-inkscape-font-specification:Helvetica" transform="matrix(1.33333 0 0 1.33333 331.997 296.5)" font-weight="400" font-size="9.999" font-family="Helvetica"><tspan y="0" x="0 6.1093888 11.668833">ToM</tspan><tspan y="9.999" x="-7.7839799 0.545187 6.1046309 11.104131 13.883853 16.663574 22.223019">Max: 18</tspan></text><path d="M465.91 279.159v5.33" fill="none" stroke="#000" stroke-width=".7679808" stroke-miterlimit="10"/><text style="-inkscape-font-specification:Helvetica" transform="matrix(1.33333 0 0 1.33333 447.76 296.5)" font-weight="400" font-size="9.999" font-family="Helvetica"><tspan y="0" x="0 7.2192779 9.9989996 16.108389 21.667833">HIT15</tspan><tspan y="9.999" x="-1.38984 6.9393268 12.498771 17.498272 20.277992 23.057714">Max: 6</tspan></text><path d="M138.633 365.949H431.46v-43.51H138.633z" fill="#fff"/><path d="M138.633 365.949v-43.51H431.46v43.51H138.633" fill="none" stroke="#000" stroke-width=".7679808" stroke-miterlimit="10"/><path d="M144.392 341.53h49.929v-13.333h-49.929z" fill="#486c8c"/><path d="M144.392 341.53v-13.333h49.928v13.332h-49.928" fill="none" stroke="#000" stroke-width=".159996" stroke-miterlimit="10"/><path d="M337.607 341.53h49.912v-13.333h-49.912z" fill="#e99833"/><path d="M337.607 341.53v-13.333h49.912v13.332h-49.912" fill="none" stroke="#000" stroke-width=".159996" stroke-miterlimit="10"/><path d="M144.392 353.525h49.928M144.392 356.461v-5.874M194.32 356.461v-5.874" fill="none" stroke="#000" stroke-width="1.1519712000000002" stroke-miterlimit="10"/><text style="-inkscape-font-specification:Helvetica" transform="matrix(1.33333 0 0 1.33333 202.307 338.592)" font-weight="400" font-size="7.994" font-family="Helvetica"><tspan y="0" x="0 5.3321648 11.104013 17.32354 144.91096 150.24313 155.12762 160.89948">PROFSTUD</tspan><tspan y="13.996" x="0 4.4448032 8.8896065 15.996494 18.218895 22.216021 26.660824 31.105627 33.32803 35.102753 39.547554 43.992359 48.43716 52.434284 56.879089 59.10149 60.876213 65.321014 67.543419 71.98822 74.650307 78.64743 83.092232">95% confidence interval</tspan></text></svg>