<?xml version="1.0" encoding="UTF-8" standalone="no"?>
<svg
   xmlns:dc="http://purl.org/dc/elements/1.1/"
   xmlns:cc="http://creativecommons.org/ns#"
   xmlns:rdf="http://www.w3.org/1999/02/22-rdf-syntax-ns#"
   xmlns:svg="http://www.w3.org/2000/svg"
   xmlns="http://www.w3.org/2000/svg"
   xmlns:sodipodi="http://sodipodi.sourceforge.net/DTD/sodipodi-0.dtd"
   xmlns:inkscape="http://www.inkscape.org/namespaces/inkscape"
   height="384"
   width="528"
   version="1.1"
   id="svg4172"
   sodipodi:docname="upper_lower_bound_ftse100.svg"
   inkscape:version="1.0.1 (3bc2e813f5, 2020-09-07)">
  <metadata
     id="metadata4178">
    <rdf:RDF>
      <cc:Work
         rdf:about="">
        <dc:format>image/svg+xml</dc:format>
        <dc:type
           rdf:resource="http://purl.org/dc/dcmitype/StillImage" />
        <dc:title></dc:title>
      </cc:Work>
    </rdf:RDF>
  </metadata>
  <defs
     id="defs4176" />
  <sodipodi:namedview
     pagecolor="#ffffff"
     bordercolor="#666666"
     borderopacity="1"
     objecttolerance="10"
     gridtolerance="10"
     guidetolerance="10"
     inkscape:pageopacity="0"
     inkscape:pageshadow="2"
     inkscape:window-width="1920"
     inkscape:window-height="1017"
     id="namedview4174"
     showgrid="false"
     inkscape:zoom="1.4838529"
     inkscape:cx="320.05357"
     inkscape:cy="194.68139"
     inkscape:window-x="-8"
     inkscape:window-y="-8"
     inkscape:window-maximized="1"
     inkscape:current-layer="svg4172" />
  <path
     d="M0 384h528V0H0z"
     fill="#eaf2f3"
     id="path3872" />
  <path
     d="M0 384V.012h527.984V384H0"
     fill="#fff"
     id="path3874" />
  <path
     d="M0 384V.012h527.984V384z"
     fill="none"
     stroke="#fff"
     stroke-width=".7679808"
     stroke-miterlimit="10"
     id="path3876" />
  <path
     d="M52.107 295.164V36.724h462.429v258.44H52.106"
     fill="#fff"
     id="path3878" />
  <path
     d="M52.107 295.164V36.724h462.429v258.44z"
     fill="none"
     stroke="#fff"
     stroke-width=".7679808"
     stroke-miterlimit="10"
     id="path3880" />
  <path
     d="M52.107 258.105h462.429M52.107 204.876h462.429M52.107 151.647h462.429M52.107 98.401h462.429M52.107 45.172h462.429"
     fill="none"
     stroke="#eaf2f3"
     stroke-width="1.1519712000000002"
     stroke-miterlimit="10"
     id="path3882" />
  <path
     d="M90.255 209.001v51.678"
     fill="none"
     stroke="#000"
     stroke-width="1.7279568"
     stroke-miterlimit="10"
     id="path3884" />
  <path
     d="M84.249 260.68h11.995M84.249 209.001h11.995"
     fill="none"
     stroke="#000"
     stroke-width="1.7279568"
     stroke-linecap="round"
     stroke-miterlimit="10"
     id="path3886" />
  <path
     d="M119.955 176.793v65.356"
     fill="none"
     stroke="#000"
     stroke-width="1.7279568"
     stroke-miterlimit="10"
     id="path3888" />
  <path
     d="M113.949 242.15h11.995M113.949 176.793h11.995"
     fill="none"
     stroke="#000"
     stroke-width="1.7279568"
     stroke-linecap="round"
     stroke-miterlimit="10"
     id="path3890" />
  <path
     d="M149.655 191.61v84.661"
     fill="none"
     stroke="#000"
     stroke-width="1.7279568"
     stroke-miterlimit="10"
     id="path3892" />
  <path
     d="M143.65 276.271h11.994M143.65 191.61h11.994"
     fill="none"
     stroke="#000"
     stroke-width="1.7279568"
     stroke-linecap="round"
     stroke-miterlimit="10"
     id="path3894" />
  <path
     d="M209.072 213.836v61.66"
     fill="none"
     stroke="#000"
     stroke-width="1.7279568"
     stroke-miterlimit="10"
     id="path3896" />
  <path
     d="M203.065 275.496h11.996M203.065 213.836h11.996"
     fill="none"
     stroke="#000"
     stroke-width="1.7279568"
     stroke-linecap="round"
     stroke-miterlimit="10"
     id="path3898" />
  <path
     d="M238.772 171.084v61.843"
     fill="none"
     stroke="#000"
     stroke-width="1.7279568"
     stroke-miterlimit="10"
     id="path3900" />
  <path
     d="M232.765 232.927h11.996M232.765 171.084h11.996"
     fill="none"
     stroke="#000"
     stroke-width="1.7279568"
     stroke-linecap="round"
     stroke-miterlimit="10"
     id="path3902" />
  <path
     d="M268.472 192.583v66.825"
     fill="none"
     stroke="#000"
     stroke-width="1.7279568"
     stroke-miterlimit="10"
     id="path3904" />
  <path
     d="M262.465 259.408h11.996M262.465 192.583h11.996"
     fill="none"
     stroke="#000"
     stroke-width="1.7279568"
     stroke-linecap="round"
     stroke-miterlimit="10"
     id="path3906" />
  <path
     d="M327.872 220.304v66.412"
     fill="none"
     stroke="#000"
     stroke-width="1.7279568"
     stroke-miterlimit="10"
     id="path3908" />
  <path
     d="M321.865 286.716h11.996M321.865 220.304h11.996"
     fill="none"
     stroke="#000"
     stroke-width="1.7279568"
     stroke-linecap="round"
     stroke-miterlimit="10"
     id="path3910" />
  <path
     d="M446.688 239.245v43.412"
     fill="none"
     stroke="#000"
     stroke-width="1.7279568"
     stroke-miterlimit="10"
     id="path3912" />
  <path
     d="M440.681 282.657h11.996M440.681 239.245h11.996"
     fill="none"
     stroke="#000"
     stroke-width="1.7279568"
     stroke-linecap="round"
     stroke-miterlimit="10"
     id="path3914" />
  <path
     d="M476.388 187.996v63.426"
     fill="none"
     stroke="#000"
     stroke-width="1.7279568"
     stroke-miterlimit="10"
     id="path3916" />
  <path
     d="M470.381 251.422h11.996M470.381 187.996h11.996"
     fill="none"
     stroke="#000"
     stroke-width="1.7279568"
     stroke-linecap="round"
     stroke-miterlimit="10"
     id="path3918" />
  <path
     d="M506.088 194.695v82.319"
     fill="none"
     stroke="#000"
     stroke-width="1.7279568"
     stroke-miterlimit="10"
     id="path3920" />
  <path
     d="M500.081 277.014h11.996M500.081 194.695h11.996"
     fill="none"
     stroke="#000"
     stroke-width="1.7279568"
     stroke-linecap="round"
     stroke-miterlimit="10"
     id="path3922" />
  <path
     d="M94.908 243.255a4.67 4.67 0 10-9.34 0 4.67 4.67 0 009.34 0"
     fill="#ffd200"
     id="path3924" />
  <path
     d="M94.908 243.255a4.67 4.67 0 10-9.34 0 4.67 4.67 0 009.34 0z"
     fill="none"
     stroke="#ffd200"
     stroke-width="1.1519712000000002"
     stroke-miterlimit="10"
     id="path3926" />
  <path
     d="M124.625 214.957a4.67 4.67 0 10-9.34 0 4.67 4.67 0 009.34 0"
     fill="#ffd200"
     id="path3928" />
  <path
     d="M124.625 214.957a4.67 4.67 0 10-9.34 0 4.67 4.67 0 009.34 0z"
     fill="none"
     stroke="#ffd200"
     stroke-width="1.1519712000000002"
     stroke-miterlimit="10"
     id="path3930" />
  <path
     d="M154.324 241.737a4.67 4.67 0 10-9.339 0 4.67 4.67 0 009.339 0"
     fill="#ffd200"
     id="path3932" />
  <path
     d="M154.324 241.737a4.67 4.67 0 10-9.339 0 4.67 4.67 0 009.339 0z"
     fill="none"
     stroke="#ffd200"
     stroke-width="1.1519712000000002"
     stroke-miterlimit="10"
     id="path3934" />
  <path
     d="M213.724 252.627a4.67 4.67 0 10-9.34 0 4.67 4.67 0 009.34 0"
     fill="#ffd200"
     id="path3936" />
  <path
     d="M213.724 252.627a4.67 4.67 0 10-9.34 0 4.67 4.67 0 009.34 0z"
     fill="none"
     stroke="#ffd200"
     stroke-width="1.1519712000000002"
     stroke-miterlimit="10"
     id="path3938" />
  <path
     d="M243.424 207.285a4.67 4.67 0 10-9.339 0 4.67 4.67 0 009.339 0"
     fill="#ffd200"
     id="path3940" />
  <path
     d="M243.424 207.285a4.67 4.67 0 10-9.339 0 4.67 4.67 0 009.339 0z"
     fill="none"
     stroke="#ffd200"
     stroke-width="1.1519712000000002"
     stroke-miterlimit="10"
     id="path3942" />
  <path
     d="M273.141 232.035a4.67 4.67 0 10-9.339 0 4.67 4.67 0 009.34 0"
     fill="#ffd200"
     id="path3944" />
  <path
     d="M273.141 232.035a4.67 4.67 0 10-9.339 0 4.67 4.67 0 009.34 0z"
     fill="none"
     stroke="#ffd200"
     stroke-width="1.1519712000000002"
     stroke-miterlimit="10"
     id="path3946" />
  <path
     d="M332.541 261.207a4.67 4.67 0 10-9.339 0 4.67 4.67 0 009.34 0"
     fill="#ffd200"
     id="path3948" />
  <path
     d="M332.541 261.207a4.67 4.67 0 10-9.339 0 4.67 4.67 0 009.34 0z"
     fill="none"
     stroke="#ffd200"
     stroke-width="1.1519712000000002"
     stroke-miterlimit="10"
     id="path3950" />
  <path
     d="M451.357 264.804a4.67 4.67 0 10-9.34 0 4.67 4.67 0 009.34 0"
     fill="#ffd200"
     id="path3952" />
  <path
     d="M451.357 264.804a4.67 4.67 0 10-9.34 0 4.67 4.67 0 009.34 0z"
     fill="none"
     stroke="#ffd200"
     stroke-width="1.1519712000000002"
     stroke-miterlimit="10"
     id="path3954" />
  <path
     d="M481.057 224.148a4.67 4.67 0 10-9.339 0 4.67 4.67 0 009.34 0"
     fill="#ffd200"
     id="path3956" />
  <path
     d="M481.057 224.148a4.67 4.67 0 10-9.339 0 4.67 4.67 0 009.34 0z"
     fill="none"
     stroke="#ffd200"
     stroke-width="1.1519712000000002"
     stroke-miterlimit="10"
     id="path3958" />
  <path
     d="M510.757 253.831a4.67 4.67 0 10-9.34 0 4.67 4.67 0 009.34 0"
     fill="#ffd200"
     id="path3960" />
  <path
     d="M510.757 253.831a4.67 4.67 0 10-9.34 0 4.67 4.67 0 009.34 0z"
     fill="none"
     stroke="#ffd200"
     stroke-width="1.1519712000000002"
     stroke-miterlimit="10"
     id="path3962" />
  <path
     d="M115.285 103.203l4.67 4.669 4.67-4.67-4.67-4.669-4.67 4.67"
     fill="#55752f"
     id="path3964" />
  <path
     d="M115.285 103.203l4.67 4.669 4.67-4.67-4.67-4.669z"
     fill="none"
     stroke="#55752f"
     stroke-width="1.1519712000000002"
     stroke-miterlimit="10"
     id="path3966" />
  <path
     d="M144.985 184.664l4.67 4.67 4.669-4.67-4.67-4.67-4.669 4.67"
     fill="#55752f"
     id="path3968" />
  <path
     d="M144.985 184.664l4.67 4.67 4.669-4.67-4.67-4.67z"
     fill="none"
     stroke="#55752f"
     stroke-width="1.1519712000000002"
     stroke-miterlimit="10"
     id="path3970" />
  <path
     d="M234.085 103.203l4.67 4.669 4.669-4.67-4.67-4.669-4.669 4.67"
     fill="#55752f"
     id="path3972" />
  <path
     d="M234.085 103.203l4.67 4.669 4.669-4.67-4.67-4.669z"
     fill="none"
     stroke="#55752f"
     stroke-width="1.1519712000000002"
     stroke-miterlimit="10"
     id="path3974" />
  <path
     d="M263.803 184.664l4.669 4.67 4.67-4.67-4.67-4.67-4.67 4.67"
     fill="#55752f"
     id="path3976" />
  <path
     d="M263.803 184.664l4.669 4.67 4.67-4.67-4.67-4.67z"
     fill="none"
     stroke="#55752f"
     stroke-width="1.1519712000000002"
     stroke-miterlimit="10"
     id="path3978" />
  <path
     d="M471.719 130.361l4.669 4.67 4.67-4.67-4.67-4.668-4.67 4.668"
     fill="#55752f"
     id="path3980" />
  <path
     d="M471.719 130.361l4.669 4.67 4.67-4.67-4.67-4.668z"
     fill="none"
     stroke="#55752f"
     stroke-width="1.1519712000000002"
     stroke-miterlimit="10"
     id="path3982" />
  <path
     d="M501.419 245.879l4.669 4.669 4.67-4.67-4.67-4.669-4.67 4.67"
     fill="#55752f"
     id="path3984" />
  <path
     d="M501.419 245.879l4.669 4.669 4.67-4.67-4.67-4.669z"
     fill="none"
     stroke="#55752f"
     stroke-width="1.1519712000000002"
     stroke-miterlimit="10"
     id="path3986" />
  <g
     font-weight="400"
     font-family="Helvetica"
     id="g4068">
    <text
       style="-inkscape-font-specification:Helvetica"
       transform="matrix(1.33333 0 0 1.33333 79.506 200.768)"
       font-size="13.996"
       id="text3990"><tspan
         y="0"
         x="0"
         id="tspan3988">I</tspan></text>
    <text
       style="-inkscape-font-specification:Helvetica"
       transform="matrix(1.33333 0 0 1.33333 84.694 203.424)"
       font-size="8.155"
       id="text3994"><tspan
         y="0"
         x="0 5.8879967"
         id="tspan3992">NO</tspan></text>
    <text
       style="-inkscape-font-specification:Helvetica"
       transform="matrix(1.33333 0 0 1.33333 109.505 168.824)"
       font-size="13.996"
       id="text3998"><tspan
         y="0"
         x="0"
         id="tspan3996">I</tspan></text>
    <text
       style="-inkscape-font-specification:Helvetica"
       transform="matrix(1.33333 0 0 1.33333 114.693 171.48)"
       font-size="8.155"
       id="text4002"><tspan
         y="0"
         x="0 6.3446832"
         id="tspan4000">GP</tspan></text>
    <text
       style="-inkscape-font-specification:Helvetica"
       transform="matrix(1.33333 0 0 1.33333 142.229 176.81)"
       font-size="13.996"
       id="text4006"><tspan
         y="0"
         x="0"
         id="tspan4004">I</tspan></text>
    <text
       style="-inkscape-font-specification:Helvetica"
       transform="matrix(1.33333 0 0 1.33333 147.416 179.466)"
       font-size="8.155"
       id="text4010"><tspan
         y="0"
         x="0 4.9827785"
         id="tspan4008">FI</tspan></text>
    <text
       style="-inkscape-font-specification:Helvetica"
       transform="matrix(1.33333 0 0 1.33333 198.323 207.418)"
       font-size="13.996"
       id="text4014"><tspan
         y="0"
         x="0"
         id="tspan4012">I</tspan></text>
    <text
       style="-inkscape-font-specification:Helvetica"
       transform="matrix(1.33333 0 0 1.33333 203.51 210.074)"
       font-size="8.155"
       id="text4018"><tspan
         y="0"
         x="0 5.8879967"
         id="tspan4016">NO</tspan></text>
    <text
       style="-inkscape-font-specification:Helvetica"
       transform="matrix(1.33333 0 0 1.33333 228.322 163.494)"
       font-size="13.996"
       id="text4022"><tspan
         y="0"
         x="0"
         id="tspan4020">I</tspan></text>
    <text
       style="-inkscape-font-specification:Helvetica"
       transform="matrix(1.33333 0 0 1.33333 233.51 166.15)"
       font-size="8.155"
       id="text4026"><tspan
         y="0"
         x="0 6.3446832"
         id="tspan4024">GP</tspan></text>
    <text
       style="-inkscape-font-specification:Helvetica"
       transform="matrix(1.33333 0 0 1.33333 261.045 176.81)"
       font-size="13.996"
       id="text4030"><tspan
         y="0"
         x="0"
         id="tspan4028">I</tspan></text>
    <text
       style="-inkscape-font-specification:Helvetica"
       transform="matrix(1.33333 0 0 1.33333 266.233 179.466)"
       font-size="8.155"
       id="text4034"><tspan
         y="0"
         x="0 4.9827785"
         id="tspan4032">FI</tspan></text>
    <text
       style="-inkscape-font-specification:Helvetica"
       transform="matrix(1.33333 0 0 1.33333 317.123 212.747)"
       font-size="13.996"
       id="text4038"><tspan
         y="0"
         x="0"
         id="tspan4036">I</tspan></text>
    <text
       style="-inkscape-font-specification:Helvetica"
       transform="matrix(1.33333 0 0 1.33333 322.31 215.403)"
       font-size="8.155"
       id="text4042"><tspan
         y="0"
         x="0 5.8879967"
         id="tspan4040">NO</tspan></text>
    <text
       style="-inkscape-font-specification:Helvetica"
       transform="matrix(1.33333 0 0 1.33333 435.94 231.375)"
       font-size="13.996"
       id="text4046"><tspan
         y="0"
         x="0"
         id="tspan4044">I</tspan></text>
    <text
       style="-inkscape-font-specification:Helvetica"
       transform="matrix(1.33333 0 0 1.33333 441.127 234.032)"
       font-size="8.155"
       id="text4050"><tspan
         y="0"
         x="0 5.8879967"
         id="tspan4048">NO</tspan></text>
    <text
       style="-inkscape-font-specification:Helvetica"
       transform="matrix(1.33333 0 0 1.33333 465.938 179.467)"
       font-size="13.996"
       id="text4054"><tspan
         y="0"
         x="0"
         id="tspan4052">I</tspan></text>
    <text
       style="-inkscape-font-specification:Helvetica"
       transform="matrix(1.33333 0 0 1.33333 471.126 182.123)"
       font-size="8.155"
       id="text4058"><tspan
         y="0"
         x="0 6.3446832"
         id="tspan4056">GP</tspan></text>
    <text
       style="-inkscape-font-specification:Helvetica"
       transform="matrix(1.33333 0 0 1.33333 498.662 187.452)"
       font-size="13.996"
       id="text4062"><tspan
         y="0"
         x="0"
         id="tspan4060">I</tspan></text>
    <text
       style="-inkscape-font-specification:Helvetica"
       transform="matrix(1.33333 0 0 1.33333 503.85 190.109)"
       font-size="8.155"
       id="text4066"><tspan
         y="0"
         x="0 4.9827785"
         id="tspan4064">FI</tspan></text>
  </g>
  <path
     d="M52.107 295.164V36.724M52.107 258.105h-5.33"
     fill="none"
     stroke="#000"
     stroke-width=".7679808"
     stroke-miterlimit="10"
     id="path4070" />
  <text
     style="-inkscape-font-specification:Helvetica"
     transform="matrix(0 -1.33333 1.33333 0 40.111 261.811)"
     font-weight="400"
     font-size="9.999"
     font-family="Helvetica"
     id="text4074"><tspan
       y="0"
       x="0"
       id="tspan4072">2</tspan></text>
  <path
     d="M52.107 204.876h-5.33"
     fill="none"
     stroke="#000"
     stroke-width=".7679808"
     stroke-miterlimit="10"
     id="path4076" />
  <text
     style="-inkscape-font-specification:Helvetica"
     transform="matrix(0 -1.33333 1.33333 0 40.111 208.583)"
     font-weight="400"
     font-size="9.999"
     font-family="Helvetica"
     id="text4080"><tspan
       y="0"
       x="0"
       id="tspan4078">4</tspan></text>
  <path
     d="M52.107 151.647h-5.33"
     fill="none"
     stroke="#000"
     stroke-width=".7679808"
     stroke-miterlimit="10"
     id="path4082" />
  <text
     style="-inkscape-font-specification:Helvetica"
     transform="matrix(0 -1.33333 1.33333 0 40.111 155.353)"
     font-weight="400"
     font-size="9.999"
     font-family="Helvetica"
     id="text4086"><tspan
       y="0"
       x="0"
       id="tspan4084">6</tspan></text>
  <path
     d="M52.107 98.401h-5.33"
     fill="none"
     stroke="#000"
     stroke-width=".7679808"
     stroke-miterlimit="10"
     id="path4088" />
  <text
     style="-inkscape-font-specification:Helvetica"
     transform="matrix(0 -1.33333 1.33333 0 40.111 102.108)"
     font-weight="400"
     font-size="9.999"
     font-family="Helvetica"
     id="text4092"><tspan
       y="0"
       x="0"
       id="tspan4090">8</tspan></text>
  <path
     d="M52.107 45.172h-5.33"
     fill="none"
     stroke="#000"
     stroke-width=".7679808"
     stroke-miterlimit="10"
     id="path4094" />
  <text
     style="-inkscape-font-specification:Helvetica"
     transform="matrix(0 -1.33333 1.33333 0 40.111 52.585)"
     font-weight="400"
     font-size="9.999"
     font-family="Helvetica"
     id="text4100"><tspan
       y="0"
       x="0 5.559444"
       id="tspan4096">10</tspan><tspan
       y="-11.001"
       x="-113.91 -111.13028 -105.57083 -102.24117 -96.681725 -91.68222 -86.12278 -81.123276 -78.343559 -75.563835 -73.344055 -67.784615 -65.00489"
       id="tspan4098">forecast in %</tspan></text>
  <path
     d="M52.107 295.164h462.429M60.555 295.164v2.656M119.955 295.164v5.33"
     fill="none"
     stroke="#000"
     stroke-width=".7679808"
     stroke-miterlimit="10"
     id="path4102" />
  <g
     font-weight="400"
     font-family="Helvetica"
     id="g4112">
    <text
       style="-inkscape-font-specification:Helvetica"
       transform="matrix(1.33333 0 0 1.33333 106.367 314.37)"
       font-size="12.004"
       id="text4106"><tspan
         y="0"
         x="0 7.3342605"
         id="tspan4104">FI</tspan></text>
    <text
       style="-inkscape-font-specification:Helvetica"
       transform="matrix(1.33333 0 0 1.33333 120.595 316.647)"
       font-size="6.992"
       id="text4110"><tspan
         y="0"
         x="0 5.04813"
         id="tspan4108">US</tspan></text>
  </g>
  <path
     d="M238.772 295.164v5.33"
     fill="none"
     stroke="#000"
     stroke-width=".7679808"
     stroke-miterlimit="10"
     id="path4114" />
  <g
     font-weight="400"
     font-family="Helvetica"
     id="g4124">
    <text
       style="-inkscape-font-specification:Helvetica"
       transform="matrix(1.33333 0 0 1.33333 220.733 314.37)"
       font-size="12.004"
       id="text4118"><tspan
         y="0"
         x="0 9.3388786"
         id="tspan4116">GP</tspan></text>
    <text
       style="-inkscape-font-specification:Helvetica"
       transform="matrix(1.33333 0 0 1.33333 243.86 316.647)"
       font-size="6.992"
       id="text4122"><tspan
         y="0"
         x="0 5.04813"
         id="tspan4120">US</tspan></text>
  </g>
  <path
     d="M357.588 295.164v5.33"
     fill="none"
     stroke="#000"
     stroke-width=".7679808"
     stroke-miterlimit="10"
     id="path4126" />
  <g
     font-weight="400"
     font-family="Helvetica"
     id="g4136">
    <text
       style="-inkscape-font-specification:Helvetica"
       transform="matrix(1.33333 0 0 1.33333 344 314.37)"
       font-size="12.004"
       id="text4130"><tspan
         y="0"
         x="0 7.3342605"
         id="tspan4128">FI</tspan></text>
    <text
       style="-inkscape-font-specification:Helvetica"
       transform="matrix(1.33333 0 0 1.33333 358.228 316.647)"
       font-size="6.992"
       id="text4134"><tspan
         y="0"
         x="0 5.04813"
         id="tspan4132">UK</tspan></text>
  </g>
  <path
     d="M476.388 295.164v5.33"
     fill="none"
     stroke="#000"
     stroke-width=".7679808"
     stroke-miterlimit="10"
     id="path4138" />
  <g
     font-weight="400"
     font-family="Helvetica"
     id="g4148">
    <text
       style="-inkscape-font-specification:Helvetica"
       transform="matrix(1.33333 0 0 1.33333 458.35 314.37)"
       font-size="12.004"
       id="text4142"><tspan
         y="0"
         x="0 9.3388786"
         id="tspan4140">GP</tspan></text>
    <text
       style="-inkscape-font-specification:Helvetica"
       transform="matrix(1.33333 0 0 1.33333 481.477 316.647)"
       font-size="6.992"
       id="text4146"><tspan
         y="0"
         x="0 5.04813"
         id="tspan4144">UK</tspan></text>
  </g>
  <path
     d="M89.133 365.949V341.1h388.376v24.849H89.133"
     fill="#fff"
     id="path4150" />
  <path
     d="M89.133 365.949V341.1h388.376v24.849z"
     fill="none"
     stroke="#000"
     stroke-width=".7679808"
     stroke-miterlimit="10"
     id="path4152" />
  <path
     d="M94.892 353.525h49.928M94.892 359.53V347.52M144.82 359.53V347.52"
     fill="none"
     stroke="#000"
     stroke-width="1.7279568"
     stroke-miterlimit="10"
     id="path4154" />
  <path
     d="M266.756 353.525a4.668 4.668 0 10-9.339 0c0 2.578 2.09 4.669 4.668 4.669a4.67 4.67 0 004.671-4.67"
     fill="#ffd200"
     id="path4156" />
  <path
     d="M266.756 353.525a4.668 4.668 0 10-9.339 0c0 2.578 2.09 4.669 4.668 4.669a4.67 4.67 0 004.671-4.67z"
     fill="none"
     stroke="#ffd200"
     stroke-width="1.1519712000000002"
     stroke-miterlimit="10"
     id="path4158" />
  <path
     d="M386.364 353.525l4.67 4.669 4.669-4.67-4.67-4.669-4.669 4.67"
     fill="#55752f"
     id="path4160" />
  <path
     d="M386.364 353.525l4.67 4.669 4.669-4.67-4.67-4.669z"
     fill="none"
     stroke="#55752f"
     stroke-width="1.1519712000000002"
     stroke-miterlimit="10"
     id="path4162" />
  <text
     style="-inkscape-font-specification:Helvetica"
     transform="matrix(1.33333 0 0 1.33333 152.823 358.194)"
     font-weight="400"
     font-size="9.999"
     font-family="Helvetica"
     id="text4166"><tspan
       y="0"
       x="0 4.9994998 10.558944 16.118387 18.338165 23.89761 28.89711 31.676832 33.89661 38.896111 44.455555 47.235275 54.454556 57.234276 91.451157 97.010597 102.57005 104.78982 110.34927 113.12898 115.90871 121.46815 124.79782 130.35727 135.9167 138.13649 143.13599 145.91571 148.13548 153.69493 188.14958 190.36935 195.9288 198.70853 204.26797 207.59764 215.9268 221.48625 224.26598 226.48575 232.0452"
       id="tspan4164">subjective CIspoint predictioninformation</tspan></text>
  <text
     style="-inkscape-font-specification:Helvetica"
     transform="matrix(1.33333 0 0 1.33333 243.91 28.821)"
     font-weight="400"
     font-size="13.996"
     font-family="Helvetica"
     fill="#1e2d53"
     id="text4170"><tspan
       y="0"
       x="0 8.5516167 17.103233 26.438633 35.774033 43.555862 51.337696"
       id="tspan4168">FTSE100</tspan></text>
  <rect
     style="opacity:0.36;fill:#f39200;fill-opacity:1;fill-rule:evenodd;stroke-width:0.932696"
     id="rect314-4"
     width="99.740349"
     height="249.74622"
     x="185.11198"
     y="45.864525" />
  <rect
     style="opacity:0.36;fill:#f39200;fill-opacity:1;fill-rule:evenodd;stroke-width:0.932696"
     id="rect314-4-8"
     width="99.740349"
     height="249.74622"
     x="424.85233"
     y="45.864525" />
</svg>
