<svg xmlns="http://www.w3.org/2000/svg" height="384" width="528"><path d="M0 384h528V0H0z" fill="#fff"/><path d="M0 384h527.984V.012H0z" fill="#fff"/><path d="M0 384V.012h527.984V384H0" fill="none" stroke="#fff" stroke-width=".7679808" stroke-miterlimit="10"/><path d="M60.539 257.56h453.997M60.539 197.385h453.997M60.539 162.19h453.997M60.539 137.21h453.997M60.539 117.855h453.997M60.539 102.015h453.997M60.539 88.633h453.997M60.539 77.05h453.997M60.539 66.82h453.997M60.539 57.68h453.997M60.539 49.396h453.997" fill="none" stroke="#d0d0d0" stroke-width=".7679808" stroke-miterlimit="10"/><path d="M68.986 249.212l23.001-2.393M91.987 246.819l23.002-4.258M114.989 242.561l23.018-4.586M138.007 237.975l23-6.435M161.007 231.54l23.001-4.29M184.008 227.25l23.001-4.207M207.01 223.043l23.017-4.291M230.027 218.752l23.001-6.104M253.028 212.648l23-4.373M276.028 208.275l23.001-4.24M299.03 204.035l23.017-4.274M322.047 199.761l23.001-.61M345.048 199.15l23.001-5.411M368.05 193.739l23.017 5.51M391.067 199.25l23.001 7.21M414.068 206.46l23.001 7.837M437.07 214.297l23 37.373M460.07 251.67l23.017 7.21M483.087 258.88l23.001 1.733" fill="none" stroke="#1a476f" stroke-width="1.7279568" stroke-linecap="round" stroke-miterlimit="10"/><path d="M72.716 249.212a3.73 3.73 0 10-7.459 0 3.73 3.73 0 007.459 0" fill="#1a476f"/><path d="M72.716 249.212a3.73 3.73 0 10-7.459 0 3.73 3.73 0 007.459 0" fill="none" stroke="#1a476f" stroke-width="1.1519712000000002" stroke-miterlimit="10"/><path d="M95.717 246.819a3.729 3.729 0 10-7.458.001 3.729 3.729 0 007.458-.001" fill="#1a476f"/><path d="M95.717 246.819a3.729 3.729 0 10-7.458.001 3.729 3.729 0 007.458-.001" fill="none" stroke="#1a476f" stroke-width="1.1519712000000002" stroke-miterlimit="10"/><path d="M118.718 242.561a3.729 3.729 0 10-7.458.002 3.729 3.729 0 007.458-.002" fill="#1a476f"/><path d="M118.718 242.561a3.729 3.729 0 10-7.458.002 3.729 3.729 0 007.458-.002" fill="none" stroke="#1a476f" stroke-width="1.1519712000000002" stroke-miterlimit="10"/><path d="M141.735 237.975a3.73 3.73 0 10-7.46 0 3.73 3.73 0 007.46 0" fill="#1a476f"/><path d="M141.735 237.975a3.73 3.73 0 10-7.46 0 3.73 3.73 0 007.46 0" fill="none" stroke="#1a476f" stroke-width="1.1519712000000002" stroke-miterlimit="10"/><path d="M164.736 231.54a3.73 3.73 0 10-7.46 0 3.73 3.73 0 007.46 0" fill="#1a476f"/><path d="M164.736 231.54a3.73 3.73 0 10-7.46 0 3.73 3.73 0 007.46 0" fill="none" stroke="#1a476f" stroke-width="1.1519712000000002" stroke-miterlimit="10"/><path d="M187.737 227.25a3.73 3.73 0 10-7.459.002 3.73 3.73 0 007.46-.003" fill="#1a476f"/><path d="M187.737 227.25a3.73 3.73 0 10-7.459.002 3.73 3.73 0 007.46-.003" fill="none" stroke="#1a476f" stroke-width="1.1519712000000002" stroke-miterlimit="10"/><path d="M210.739 223.043a3.73 3.73 0 10-7.46 0 3.73 3.73 0 007.46 0" fill="#1a476f"/><path d="M210.739 223.043a3.73 3.73 0 10-7.46 0 3.73 3.73 0 007.46 0" fill="none" stroke="#1a476f" stroke-width="1.1519712000000002" stroke-miterlimit="10"/><path d="M233.756 218.752a3.73 3.73 0 10-7.459.003 3.73 3.73 0 007.459-.003" fill="#1a476f"/><path d="M233.756 218.752a3.73 3.73 0 10-7.459.003 3.73 3.73 0 007.459-.003" fill="none" stroke="#1a476f" stroke-width="1.1519712000000002" stroke-miterlimit="10"/><path d="M256.757 212.648a3.73 3.73 0 10-7.46 0 3.73 3.73 0 007.46 0" fill="#1a476f"/><path d="M256.757 212.648a3.73 3.73 0 10-7.46 0 3.73 3.73 0 007.46 0" fill="none" stroke="#1a476f" stroke-width="1.1519712000000002" stroke-miterlimit="10"/><path d="M279.757 208.275a3.73 3.73 0 10-7.46 0 3.73 3.73 0 007.46 0" fill="#1a476f"/><path d="M279.757 208.275a3.73 3.73 0 10-7.46 0 3.73 3.73 0 007.46 0" fill="none" stroke="#1a476f" stroke-width="1.1519712000000002" stroke-miterlimit="10"/><path d="M302.759 204.035a3.729 3.729 0 10-7.458-.001 3.729 3.729 0 007.458 0" fill="#1a476f"/><path d="M302.759 204.035a3.729 3.729 0 10-7.458-.001 3.729 3.729 0 007.458 0" fill="none" stroke="#1a476f" stroke-width="1.1519712000000002" stroke-miterlimit="10"/><path d="M325.776 199.761a3.729 3.729 0 10-7.458 0 3.729 3.729 0 007.458 0" fill="#1a476f"/><path d="M325.776 199.761a3.729 3.729 0 10-7.458 0 3.729 3.729 0 007.458 0" fill="none" stroke="#1a476f" stroke-width="1.1519712000000002" stroke-miterlimit="10"/><path d="M348.777 199.15a3.73 3.73 0 10-7.46.001 3.73 3.73 0 007.46 0" fill="#1a476f"/><path d="M348.777 199.15a3.73 3.73 0 10-7.46.001 3.73 3.73 0 007.46 0" fill="none" stroke="#1a476f" stroke-width="1.1519712000000002" stroke-miterlimit="10"/><path d="M371.779 193.739a3.73 3.73 0 10-7.46 0 3.73 3.73 0 007.46 0" fill="#1a476f"/><path d="M371.779 193.739a3.73 3.73 0 10-7.46 0 3.73 3.73 0 007.46 0" fill="none" stroke="#1a476f" stroke-width="1.1519712000000002" stroke-miterlimit="10"/><path d="M394.795 199.25a3.729 3.729 0 10-3.728 3.729c2.06 0 3.728-1.67 3.728-3.73" fill="#1a476f"/><path d="M394.795 199.25a3.729 3.729 0 10-3.728 3.729c2.06 0 3.728-1.67 3.728-3.73" fill="none" stroke="#1a476f" stroke-width="1.1519712000000002" stroke-miterlimit="10"/><path d="M417.796 206.46a3.729 3.729 0 10-7.457-.001 3.729 3.729 0 007.457.001" fill="#1a476f"/><path d="M417.796 206.46a3.729 3.729 0 10-7.457-.001 3.729 3.729 0 007.457.001" fill="none" stroke="#1a476f" stroke-width="1.1519712000000002" stroke-miterlimit="10"/><path d="M440.797 214.297a3.728 3.728 0 10-7.456.001 3.728 3.728 0 007.456 0" fill="#1a476f"/><path d="M440.797 214.297a3.728 3.728 0 10-7.456.001 3.728 3.728 0 007.456 0" fill="none" stroke="#1a476f" stroke-width="1.1519712000000002" stroke-miterlimit="10"/><path d="M463.799 251.67a3.73 3.73 0 10-7.46.002 3.73 3.73 0 007.46-.002" fill="#1a476f"/><path d="M463.799 251.67a3.73 3.73 0 10-7.46.002 3.73 3.73 0 007.46-.002" fill="none" stroke="#1a476f" stroke-width="1.1519712000000002" stroke-miterlimit="10"/><path d="M486.816 258.88a3.73 3.73 0 10-7.458 0 3.73 3.73 0 007.458 0" fill="#1a476f"/><path d="M486.816 258.88a3.73 3.73 0 10-7.458 0 3.73 3.73 0 007.458 0" fill="none" stroke="#1a476f" stroke-width="1.1519712000000002" stroke-miterlimit="10"/><path d="M509.817 260.613a3.73 3.73 0 10-7.458 0 3.73 3.73 0 007.458 0" fill="#1a476f"/><path d="M509.817 260.613a3.73 3.73 0 10-7.458 0 3.73 3.73 0 007.458 0" fill="none" stroke="#1a476f" stroke-width="1.1519712000000002" stroke-miterlimit="10"/><path d="M68.986 236.259l7.673.198M80.124 236.54l.38.016M83.969 236.639l7.672.197M95.04 237.513l.363.082M98.785 238.321l7.508 1.618M109.675 240.664l.38.083M113.437 241.473l1.552.33M114.989 241.803l6.071-.198M124.525 241.49l.38-.017M128.37 241.357l7.673-.264M139.441 241.44l.364.099M143.121 242.496l7.375 2.128M153.83 245.597l.363.1M157.51 246.655l3.497 1.005M161.007 247.66l4.026.248M168.481 248.123l.396.033M172.327 248.353l7.654.479M183.43 249.063l.38.017M187.275 249.13l7.673.065M198.412 249.228h.38M202.257 249.261l4.752.032M207.01 249.293l2.92.264M213.361 249.855l.396.033M217.19 250.185l7.655.676M228.277 251.175l.38.033M232.105 251.538l7.64.776M243.193 252.66l.38.05M247.021 253.056l6.007.61M253.028 253.667h1.633M258.127 253.683h.378M261.955 253.716l7.688.033M273.092 253.782h.396M276.936 253.831l7.672.264M288.073 254.194l.38.017M291.919 254.327l7.11.247M299.03 254.574l.543.033M303.039 254.74l.38.016M306.884 254.887l7.672.314M318.005 255.35l.379.016M321.85 255.515h.197M322.047 255.515l7.474.099M332.987 255.646l.38.017M336.83 255.696l7.674.083M347.952 256.026l.396.033M351.796 256.34l7.656.61M362.901 257.23l.38.034M366.73 257.544l1.32.1M368.05 257.643l6.351.182M377.867 257.94h.378M381.71 258.056l7.657.23M392.832 258.452l.38.032M396.66 258.732l7.656.528M407.764 259.507l.38.017M411.61 259.771l2.458.182M414.068 259.953l5.197.066M422.73 260.069h.38M426.575 260.118l7.672.1M437.712 260.283l.38.033M441.54 260.497l7.672.413M452.661 261.092l.379.033M456.505 261.306l3.564.198M460.07 261.504l4.091.248M467.627 261.95l.38.032M471.455 262.18l7.672.446M482.576 262.824l.379.033M486.321 262.048l7.442-1.88M497.112 259.326l.38-.099M500.841 258.369l5.247-1.32" fill="none" stroke="#90353b" stroke-width="1.7279568" stroke-miterlimit="10"/><path d="M66.594 238.652h4.785v-4.785h-4.785z" fill="#90353b"/><path d="M66.594 238.652v-4.785h4.785v4.785h-4.785" fill="none" stroke="#90353b" stroke-width="1.1519712000000002" stroke-miterlimit="10"/><path d="M89.595 239.245h4.785v-4.785h-4.785z" fill="#90353b"/><path d="M89.595 239.245v-4.785h4.785v4.785h-4.785" fill="none" stroke="#90353b" stroke-width="1.1519712000000002" stroke-miterlimit="10"/><path d="M112.596 244.195h4.785v-4.785h-4.785z" fill="#90353b"/><path d="M112.596 244.195v-4.784h4.785v4.784h-4.785" fill="none" stroke="#90353b" stroke-width="1.1519712000000002" stroke-miterlimit="10"/><path d="M135.613 243.42h4.785v-4.785h-4.785z" fill="#90353b"/><path d="M135.613 243.42v-4.785h4.786v4.785h-4.786" fill="none" stroke="#90353b" stroke-width="1.1519712000000002" stroke-miterlimit="10"/><path d="M158.615 250.053h4.785v-4.785h-4.785z" fill="#90353b"/><path d="M158.615 250.053v-4.785h4.785v4.785h-4.785" fill="none" stroke="#90353b" stroke-width="1.1519712000000002" stroke-miterlimit="10"/><path d="M181.616 251.489h4.785v-4.785h-4.785z" fill="#90353b"/><path d="M181.616 251.489v-4.785h4.784v4.785h-4.784" fill="none" stroke="#90353b" stroke-width="1.1519712000000002" stroke-miterlimit="10"/><path d="M204.617 251.686h4.785v-4.784h-4.785z" fill="#90353b"/><path d="M204.617 251.686v-4.785h4.784v4.785h-4.784" fill="none" stroke="#90353b" stroke-width="1.1519712000000002" stroke-miterlimit="10"/><path d="M227.633 253.716h4.786v-4.785h-4.786z" fill="#90353b"/><path d="M227.633 253.716v-4.785h4.786v4.785h-4.786" fill="none" stroke="#90353b" stroke-width="1.1519712000000002" stroke-miterlimit="10"/><path d="M250.635 256.059h4.785v-4.785h-4.785z" fill="#90353b"/><path d="M250.635 256.059v-4.785h4.785v4.785h-4.785" fill="none" stroke="#90353b" stroke-width="1.1519712000000002" stroke-miterlimit="10"/><path d="M273.636 256.191h4.785v-4.785h-4.785z" fill="#90353b"/><path d="M273.636 256.191v-4.785h4.785v4.785h-4.785" fill="none" stroke="#90353b" stroke-width="1.1519712000000002" stroke-miterlimit="10"/><path d="M296.637 256.967h4.785v-4.786h-4.785z" fill="#90353b"/><path d="M296.637 256.967v-4.786h4.784v4.786h-4.784" fill="none" stroke="#90353b" stroke-width="1.1519712000000002" stroke-miterlimit="10"/><path d="M319.655 257.907h4.785v-4.785h-4.785z" fill="#90353b"/><path d="M319.655 257.907v-4.785h4.785v4.785h-4.785" fill="none" stroke="#90353b" stroke-width="1.1519712000000002" stroke-miterlimit="10"/><path d="M342.656 258.187h4.785v-4.784h-4.785z" fill="#90353b"/><path d="M342.656 258.187v-4.784h4.784v4.784h-4.784" fill="none" stroke="#90353b" stroke-width="1.1519712000000002" stroke-miterlimit="10"/><path d="M365.657 260.035h4.785v-4.784h-4.785z" fill="#90353b"/><path d="M365.657 260.035v-4.784h4.784v4.784h-4.784" fill="none" stroke="#90353b" stroke-width="1.1519712000000002" stroke-miterlimit="10"/><path d="M388.673 260.729h4.785v-4.785h-4.785z" fill="#90353b"/><path d="M388.673 260.729v-4.785h4.786v4.785h-4.786" fill="none" stroke="#90353b" stroke-width="1.1519712000000002" stroke-miterlimit="10"/><path d="M411.675 262.345h4.785v-4.785h-4.785z" fill="#90353b"/><path d="M411.675 262.345v-4.785h4.785v4.785h-4.785" fill="none" stroke="#90353b" stroke-width="1.1519712000000002" stroke-miterlimit="10"/><path d="M434.676 262.643h4.785v-4.786h-4.785z" fill="#90353b"/><path d="M434.676 262.643v-4.786h4.785v4.786h-4.785" fill="none" stroke="#90353b" stroke-width="1.1519712000000002" stroke-miterlimit="10"/><path d="M457.677 263.896h4.785v-4.784h-4.785z" fill="#90353b"/><path d="M457.677 263.896v-4.785h4.784v4.785h-4.784" fill="none" stroke="#90353b" stroke-width="1.1519712000000002" stroke-miterlimit="10"/><path d="M480.695 265.25h4.785v-4.785h-4.785z" fill="#90353b"/><path d="M480.695 265.25v-4.785h4.785v4.784h-4.785" fill="none" stroke="#90353b" stroke-width="1.1519712000000002" stroke-miterlimit="10"/><path d="M503.695 259.442h4.785v-4.786h-4.785z" fill="#90353b"/><path d="M503.695 259.442v-4.786h4.786v4.786h-4.786" fill="none" stroke="#90353b" stroke-width="1.1519712000000002" stroke-miterlimit="10"/><path d="M68.986 128.316l2.954-.859M74.514 126.716l2.954-.843M80.058 125.13l2.937-.857M85.585 123.548l2.954-.859M91.113 121.947l.874-.247M91.987 121.7l2.162.215M96.822 122.179l3.053.313M102.547 122.756l3.053.313M108.273 123.333l3.052.314M114.015 123.91l.974.1M114.989 124.01l1.699-1.189M118.899 121.27l2.524-1.749M123.618 117.987l2.525-1.748M128.337 114.687l2.524-1.748M133.056 111.387l2.525-1.748M137.775 108.087l.232-.148M138.007 107.939l2.788-.083M143.484 107.773l3.07-.098M149.243 107.592l3.069-.099M155.001 107.393l3.068-.081M160.76 107.23l.247-.018M161.007 107.212l2.722-.775M166.32 105.71l2.937-.857M171.848 104.127l2.953-.842M177.392 102.543l2.953-.842M182.919 100.976l1.089-.315M184.008 100.661l1.799-.758M188.281 98.864l2.822-1.205M193.579 96.619l2.837-1.204M198.89 94.376l2.822-1.205M204.188 92.13l2.821-1.187M207.01 90.943h.015M209.567 90.07l2.904-.991M215.012 88.221l2.92-.99M220.473 86.373l2.904-.99M225.919 84.525l2.902-.99M231.264 82.396l2.64-1.55M236.215 79.476l2.64-1.568M241.164 76.556l2.64-1.568M246.115 73.619l2.64-1.551M251.081 70.697l1.947-1.154M253.028 69.543l.61-.528M255.668 67.25l2.343-1.997M260.04 63.504l2.343-1.997M264.412 59.759l2.327-2.014M268.785 55.996L271.112 54M273.157 52.25l2.327-1.995M277.992 49.61l3.052-.246M283.733 49.132l3.054-.247M289.476 48.655l3.052-.248M295.219 48.176l3.052-.248M300.07 49.479l1.649 2.59M303.17 54.33l1.651 2.59M306.273 59.181l1.65 2.591M309.375 64.032l1.65 2.59M312.493 68.883l1.651 2.574M315.595 73.733l1.65 2.575M318.697 78.585l1.651 2.574M321.8 83.436l.247.38M322.047 83.816l1.666 1.996M325.445 87.875l1.964 2.358M329.125 92.296l1.964 2.36M332.821 96.735l1.964 2.344M336.501 101.14l1.963 2.376M340.197 105.579l1.963 2.36M343.876 110.001l1.172 1.419M345.048 111.42l.875.875M347.836 114.192l2.179 2.161M351.912 118.268l2.179 2.161M355.988 122.327l2.177 2.178M360.063 126.403l2.178 2.161M364.139 130.477l2.178 2.162M368.23 134.52l2.343 1.996M372.619 138.265l2.326 1.98M376.992 141.995l2.343 1.996M381.381 145.74l2.343 1.98M385.77 149.47l2.326 1.995M390.143 153.215l.924.792M391.067 154.007l1.566.973M394.928 156.416l2.607 1.616M399.812 159.452l2.607 1.633M404.695 162.504l2.608 1.617M409.596 165.54l2.59 1.633M414.53 168.477l2.97.792M420.09 169.961l2.97.794M425.65 171.464l2.97.792M431.228 172.948l2.953.81M436.772 174.45l.297.082M437.07 174.532l2.573 1.04M442.133 176.579l2.839 1.154M447.464 178.756l2.855 1.156M452.81 180.919l2.838 1.154M458.139 183.096l1.93.776M460.07 183.872l.923.347M463.519 185.175l2.87 1.073M468.897 187.205l2.887 1.072M474.293 189.233l2.887 1.074M479.688 191.264l2.87 1.088M484.143 194.399l1.501 2.673M486.964 199.415l1.519 2.673M489.803 204.43l1.517 2.674M492.64 209.43l1.519 2.673M495.479 214.445l1.501 2.674M498.317 219.461l1.502 2.674M501.139 224.479l1.517 2.672M503.96 229.493l1.501 2.674" fill="none" stroke="#55752f" stroke-width="1.7279568" stroke-miterlimit="10"/><path d="M65.604 128.316l3.382 3.383 3.383-3.383-3.383-3.383-3.382 3.383" fill="#55752f"/><path d="M65.604 128.316l3.382 3.383 3.383-3.383-3.383-3.383-3.382 3.383" fill="none" stroke="#55752f" stroke-width="1.1519712000000002" stroke-miterlimit="10"/><path d="M88.605 121.7l3.382 3.381 3.383-3.381-3.383-3.383-3.382 3.383" fill="#55752f"/><path d="M88.605 121.7l3.382 3.381 3.383-3.381-3.383-3.383-3.382 3.383" fill="none" stroke="#55752f" stroke-width="1.1519712000000002" stroke-miterlimit="10"/><path d="M111.606 124.01l3.383 3.382 3.382-3.383-3.382-3.382-3.383 3.382" fill="#55752f"/><path d="M111.606 124.01l3.383 3.382 3.382-3.383-3.382-3.382-3.383 3.382" fill="none" stroke="#55752f" stroke-width="1.1519712000000002" stroke-miterlimit="10"/><path d="M134.624 107.939l3.383 3.382 3.381-3.382-3.381-3.383-3.383 3.383" fill="#55752f"/><path d="M134.624 107.939l3.383 3.382 3.381-3.382-3.381-3.383-3.383 3.383" fill="none" stroke="#55752f" stroke-width="1.1519712000000002" stroke-miterlimit="10"/><path d="M157.624 107.212l3.383 3.383 3.382-3.383-3.382-3.381-3.383 3.381" fill="#55752f"/><path d="M157.624 107.212l3.383 3.383 3.382-3.383-3.382-3.381-3.383 3.381" fill="none" stroke="#55752f" stroke-width="1.1519712000000002" stroke-miterlimit="10"/><path d="M180.625 100.661l3.383 3.383 3.383-3.383-3.383-3.381-3.383 3.381" fill="#55752f"/><path d="M180.625 100.661l3.383 3.383 3.383-3.383-3.383-3.381-3.383 3.381" fill="none" stroke="#55752f" stroke-width="1.1519712000000002" stroke-miterlimit="10"/><path d="M203.627 90.943l3.382 3.384 3.383-3.384-3.383-3.382-3.382 3.382" fill="#55752f"/><path d="M203.627 90.943l3.382 3.384 3.383-3.384-3.383-3.382-3.382 3.382" fill="none" stroke="#55752f" stroke-width="1.1519712000000002" stroke-miterlimit="10"/><path d="M226.644 83.123l3.383 3.382 3.382-3.382-3.382-3.383-3.383 3.383" fill="#55752f"/><path d="M226.644 83.123l3.383 3.382 3.382-3.382-3.382-3.383-3.383 3.383" fill="none" stroke="#55752f" stroke-width="1.1519712000000002" stroke-miterlimit="10"/><path d="M249.645 69.543l3.383 3.382 3.381-3.382-3.381-3.383-3.383 3.383" fill="#55752f"/><path d="M249.645 69.543l3.383 3.382 3.381-3.382-3.381-3.383-3.383 3.383" fill="none" stroke="#55752f" stroke-width="1.1519712000000002" stroke-miterlimit="10"/><path d="M272.645 49.776l3.383 3.383 3.383-3.383-3.383-3.383-3.383 3.383" fill="#55752f"/><path d="M272.645 49.776l3.383 3.383 3.383-3.383-3.383-3.383-3.383 3.383" fill="none" stroke="#55752f" stroke-width="1.1519712000000002" stroke-miterlimit="10"/><path d="M295.647 47.861l3.382 3.383 3.383-3.383-3.383-3.381-3.382 3.381" fill="#55752f"/><path d="M295.647 47.861l3.382 3.383 3.383-3.383-3.383-3.381-3.382 3.381" fill="none" stroke="#55752f" stroke-width="1.1519712000000002" stroke-miterlimit="10"/><path d="M318.664 83.816l3.383 3.381 3.382-3.381-3.382-3.383-3.383 3.383" fill="#55752f"/><path d="M318.664 83.816l3.383 3.381 3.382-3.381-3.382-3.383-3.383 3.383" fill="none" stroke="#55752f" stroke-width="1.1519712000000002" stroke-miterlimit="10"/><path d="M341.665 111.42l3.383 3.383 3.383-3.383-3.383-3.383-3.383 3.383" fill="#55752f"/><path d="M341.665 111.42l3.383 3.383 3.383-3.383-3.383-3.383-3.383 3.383" fill="none" stroke="#55752f" stroke-width="1.1519712000000002" stroke-miterlimit="10"/><path d="M364.667 134.372l3.382 3.383 3.382-3.383-3.382-3.383-3.382 3.383" fill="#55752f"/><path d="M364.667 134.372l3.382 3.383 3.382-3.383-3.382-3.383-3.382 3.383" fill="none" stroke="#55752f" stroke-width="1.1519712000000002" stroke-miterlimit="10"/><path d="M387.684 154.007l3.383 3.382 3.382-3.382-3.382-3.383-3.383 3.383" fill="#55752f"/><path d="M387.684 154.007l3.383 3.382 3.382-3.382-3.382-3.383-3.383 3.383" fill="none" stroke="#55752f" stroke-width="1.1519712000000002" stroke-miterlimit="10"/><path d="M410.685 168.345l3.383 3.383 3.383-3.383-3.383-3.382-3.383 3.382" fill="#55752f"/><path d="M410.685 168.345l3.383 3.383 3.383-3.383-3.383-3.382-3.383 3.382" fill="none" stroke="#55752f" stroke-width="1.1519712000000002" stroke-miterlimit="10"/><path d="M433.685 174.532l3.384 3.383 3.382-3.383-3.382-3.383-3.384 3.383" fill="#55752f"/><path d="M433.685 174.532l3.384 3.383 3.382-3.383-3.382-3.383-3.384 3.383" fill="none" stroke="#55752f" stroke-width="1.1519712000000002" stroke-miterlimit="10"/><path d="M456.687 183.872l3.382 3.383 3.383-3.383-3.383-3.383-3.382 3.383" fill="#55752f"/><path d="M456.687 183.872l3.382 3.383 3.383-3.383-3.383-3.383-3.382 3.383" fill="none" stroke="#55752f" stroke-width="1.1519712000000002" stroke-miterlimit="10"/><path d="M479.705 192.55l3.382 3.383 3.382-3.382-3.382-3.383-3.382 3.383" fill="#55752f"/><path d="M479.705 192.55l3.382 3.383 3.382-3.382-3.382-3.383-3.382 3.383" fill="none" stroke="#55752f" stroke-width="1.1519712000000002" stroke-miterlimit="10"/><path d="M502.705 233.272l3.383 3.383 3.383-3.383-3.383-3.381-3.383 3.381" fill="#55752f"/><path d="M502.705 233.272l3.383 3.383 3.383-3.383-3.383-3.381-3.383 3.381" fill="none" stroke="#55752f" stroke-width="1.1519712000000002" stroke-miterlimit="10"/><path d="M68.986 252.462l23.001 1.171M91.987 253.633l23.002.496M114.989 254.129l23.018-1.156M138.007 252.973l23-1.946M161.007 251.027l23.001-2.211M184.008 248.816l23.001-.463M207.01 248.353l23.017-1.881M230.027 246.472l23.001-3.497M253.028 242.975l23-4.983M276.028 237.992l23.001-6.123M299.03 231.87l23.017-5.989M322.047 225.881l23.001-1.321M345.048 224.56l23.001-1.253M368.05 223.307l23.017.132M391.067 223.439l23.001 3.201M414.068 226.64l23.001 15.377M437.07 242.017l23 11.996M460.07 254.013l23.017 2.26M483.087 256.273l23.001-.692" fill="none" stroke="#e37e00" stroke-width="1.7279568" stroke-linecap="round" stroke-miterlimit="10"/><path d="M66.346 255.102l5.28-5.28M71.627 255.102l-5.28-5.28M89.347 256.273l5.28-5.28M94.628 256.273l-5.28-5.28M112.348 256.769l5.28-5.28M117.629 256.769l-5.28-5.28M135.367 255.614l5.278-5.28M140.645 255.614l-5.278-5.28M158.367 253.667l5.28-5.28M163.647 253.667l-5.28-5.28M181.368 251.456l5.28-5.28M186.648 251.456l-5.28-5.28M204.37 250.994l5.28-5.28M209.65 250.994l-5.28-5.28M227.387 249.112l5.28-5.28M232.667 249.112l-5.28-5.28M250.388 245.615l5.28-5.28M255.668 245.615l-5.28-5.28M273.388 240.63l5.281-5.278M278.67 240.63l-5.282-5.278M296.39 234.51l5.28-5.28M301.67 234.51l-5.28-5.28M319.407 228.52l5.28-5.28M324.687 228.52l-5.28-5.28M342.408 227.2l5.28-5.28M347.688 227.2l-5.28-5.28M365.41 225.947l5.28-5.28M370.69 225.947l-5.28-5.28M388.427 226.079l5.28-5.28M393.707 226.079l-5.28-5.28M411.428 229.28l5.279-5.28M416.707 229.28l-5.279-5.28M434.428 244.657l5.28-5.28M439.708 244.657l-5.28-5.28M457.43 256.653l5.28-5.28M462.71 256.653l-5.28-5.28M480.447 258.914l5.28-5.28M485.727 258.914l-5.28-5.28M503.448 258.22l5.28-5.28M508.728 258.22l-5.28-5.28" fill="none" stroke="#e37e00" stroke-width="1.1519712000000002" stroke-linecap="round" stroke-miterlimit="10"/><path d="M68.986 263.55h23.001M91.987 263.55h23.002M114.989 263.55h23.018M138.007 263.55h23M161.007 263.55h23.001M184.008 263.55h23.001M207.01 263.55h23.017M230.027 263.55h23.001M253.028 263.55h23M276.028 263.55h23.001M299.03 263.55h23.017M322.047 263.55h23.001M345.048 263.55h23.001M368.05 263.55h23.017M391.067 263.55h23.001M414.068 263.55h23.001M437.07 263.55h23M460.07 263.55h23.017M483.087 263.55h23.001" fill="none" stroke="#000" stroke-width="1.7279568" stroke-linecap="round" stroke-miterlimit="10"/><path d="M60.539 281.832V39.397M60.539 257.56h-5.33" fill="none" stroke="#000" stroke-width=".7679808" stroke-miterlimit="10"/><text style="-inkscape-font-specification:Helvetica" transform="matrix(1.33333 0 0 1.33333 40.684 261.29)" font-weight="400" font-size="7.994" font-family="Helvetica"><tspan y="0" x="0 4.4448032">30</tspan></text><path d="M60.539 197.385h-5.33" fill="none" stroke="#000" stroke-width=".7679808" stroke-miterlimit="10"/><text style="-inkscape-font-specification:Helvetica" transform="matrix(1.33333 0 0 1.33333 40.684 201.115)" font-weight="400" font-size="7.994" font-family="Helvetica"><tspan y="0" x="0 4.4448032">60</tspan></text><path d="M60.539 162.19h-5.33" fill="none" stroke="#000" stroke-width=".7679808" stroke-miterlimit="10"/><text style="-inkscape-font-specification:Helvetica" transform="matrix(1.33333 0 0 1.33333 40.684 165.919)" font-weight="400" font-size="7.994" font-family="Helvetica"><tspan y="0" x="0 4.4448032">90</tspan></text><path d="M60.539 137.21h-5.33" fill="none" stroke="#000" stroke-width=".7679808" stroke-miterlimit="10"/><text style="-inkscape-font-specification:Helvetica" transform="matrix(1.33333 0 0 1.33333 34.758 140.939)" font-weight="400" font-size="7.994" font-family="Helvetica"><tspan y="0" x="0 4.4448032 8.8896065">120</tspan></text><path d="M60.539 117.855h-5.33" fill="none" stroke="#000" stroke-width=".7679808" stroke-miterlimit="10"/><text style="-inkscape-font-specification:Helvetica" transform="matrix(1.33333 0 0 1.33333 34.758 121.584)" font-weight="400" font-size="7.994" font-family="Helvetica"><tspan y="0" x="0 4.4448032 8.8896065">150</tspan></text><path d="M60.539 102.015h-5.33" fill="none" stroke="#000" stroke-width=".7679808" stroke-miterlimit="10"/><text style="-inkscape-font-specification:Helvetica" transform="matrix(1.33333 0 0 1.33333 34.758 105.744)" font-weight="400" font-size="7.994" font-family="Helvetica"><tspan y="0" x="0 4.4448032 8.8896065">180</tspan></text><path d="M60.539 88.633h-5.33" fill="none" stroke="#000" stroke-width=".7679808" stroke-miterlimit="10"/><text style="-inkscape-font-specification:Helvetica" transform="matrix(1.33333 0 0 1.33333 34.758 92.363)" font-weight="400" font-size="7.994" font-family="Helvetica"><tspan y="0" x="0 4.4448032 8.8896065">210</tspan></text><path d="M60.539 77.05h-5.33" fill="none" stroke="#000" stroke-width=".7679808" stroke-miterlimit="10"/><text style="-inkscape-font-specification:Helvetica" transform="matrix(1.33333 0 0 1.33333 34.758 80.78)" font-weight="400" font-size="7.994" font-family="Helvetica"><tspan y="0" x="0 4.4448032 8.8896065">240</tspan></text><path d="M60.539 66.82h-5.33" fill="none" stroke="#000" stroke-width=".7679808" stroke-miterlimit="10"/><text style="-inkscape-font-specification:Helvetica" transform="matrix(1.33333 0 0 1.33333 34.758 70.55)" font-weight="400" font-size="7.994" font-family="Helvetica"><tspan y="0" x="0 4.4448032 8.8896065">270</tspan></text><path d="M60.539 57.68h-5.33" fill="none" stroke="#000" stroke-width=".7679808" stroke-miterlimit="10"/><text style="-inkscape-font-specification:Helvetica" transform="matrix(1.33333 0 0 1.33333 34.758 61.408)" font-weight="400" font-size="7.994" font-family="Helvetica"><tspan y="0" x="0 4.4448032 8.8896065">300</tspan></text><path d="M60.539 49.396h-5.33" fill="none" stroke="#000" stroke-width=".7679808" stroke-miterlimit="10"/><g font-weight="400" font-family="Helvetica"><text style="-inkscape-font-specification:Helvetica" transform="matrix(1.33333 0 0 1.33333 34.758 53.125)" font-size="7.994"><tspan y="0" x="0 4.4448032 8.8896065">330</tspan></text><text style="-inkscape-font-specification:Helvetica" transform="matrix(0 -1.33333 1.33333 0 25.443 259.513)" font-size="9.999"><tspan y="0" x="0 8.3291674 13.888611 19.448055 25.0075 27.787222 30.566942 33.89661 39.456055 45.015499 47.795219 56.124386 61.68383 67.243279 70.022995 72.802719 78.36216 81.691833 83.911606 88.91111 94.470551 99.470055 102.24977 105.57944 107.79922 113.35867 118.91811 121.69783 126.69733 131.69682 137.25627 139.47604 145.03549">Mean treatment prices (log scale)</tspan></text></g><path d="M60.539 281.832h453.997M91.987 281.832v5.33" fill="none" stroke="#000" stroke-width=".7679808" stroke-miterlimit="10"/><text style="-inkscape-font-specification:Helvetica" transform="matrix(1.33333 0 0 1.33333 89.025 297.293)" font-weight="400" font-size="7.994" font-family="Helvetica"><tspan y="0" x="0">2</tspan></text><path d="M138.007 281.832v5.33" fill="none" stroke="#000" stroke-width=".7679808" stroke-miterlimit="10"/><text style="-inkscape-font-specification:Helvetica" transform="matrix(1.33333 0 0 1.33333 135.043 297.293)" font-weight="400" font-size="7.994" font-family="Helvetica"><tspan y="0" x="0">4</tspan></text><path d="M184.024 281.832v5.33" fill="none" stroke="#000" stroke-width=".7679808" stroke-miterlimit="10"/><text style="-inkscape-font-specification:Helvetica" transform="matrix(1.33333 0 0 1.33333 181.061 297.293)" font-weight="400" font-size="7.994" font-family="Helvetica"><tspan y="0" x="0">6</tspan></text><path d="M230.027 281.832v5.33" fill="none" stroke="#000" stroke-width=".7679808" stroke-miterlimit="10"/><text style="-inkscape-font-specification:Helvetica" transform="matrix(1.33333 0 0 1.33333 227.064 297.293)" font-weight="400" font-size="7.994" font-family="Helvetica"><tspan y="0" x="0">8</tspan></text><path d="M276.045 281.832v5.33" fill="none" stroke="#000" stroke-width=".7679808" stroke-miterlimit="10"/><text style="-inkscape-font-specification:Helvetica" transform="matrix(1.33333 0 0 1.33333 270.119 297.293)" font-weight="400" font-size="7.994" font-family="Helvetica"><tspan y="0" x="0 4.4448032">10</tspan></text><path d="M322.047 281.832v5.33" fill="none" stroke="#000" stroke-width=".7679808" stroke-miterlimit="10"/><text style="-inkscape-font-specification:Helvetica" transform="matrix(1.33333 0 0 1.33333 316.121 297.293)" font-weight="400" font-size="7.994" font-family="Helvetica"><tspan y="0" x="0 4.4448032">12</tspan></text><path d="M368.065 281.832v5.33" fill="none" stroke="#000" stroke-width=".7679808" stroke-miterlimit="10"/><text style="-inkscape-font-specification:Helvetica" transform="matrix(1.33333 0 0 1.33333 362.14 297.293)" font-weight="400" font-size="7.994" font-family="Helvetica"><tspan y="0" x="0 4.4448032">14</tspan></text><path d="M414.068 281.832v5.33" fill="none" stroke="#000" stroke-width=".7679808" stroke-miterlimit="10"/><text style="-inkscape-font-specification:Helvetica" transform="matrix(1.33333 0 0 1.33333 408.141 297.293)" font-weight="400" font-size="7.994" font-family="Helvetica"><tspan y="0" x="0 4.4448032">16</tspan></text><path d="M460.085 281.832v5.33" fill="none" stroke="#000" stroke-width=".7679808" stroke-miterlimit="10"/><text style="-inkscape-font-specification:Helvetica" transform="matrix(1.33333 0 0 1.33333 454.16 297.293)" font-weight="400" font-size="7.994" font-family="Helvetica"><tspan y="0" x="0 4.4448032">18</tspan></text><path d="M506.088 281.832v5.33" fill="none" stroke="#000" stroke-width=".7679808" stroke-miterlimit="10"/><g font-weight="400" font-family="Helvetica"><text style="-inkscape-font-specification:Helvetica" transform="matrix(1.33333 0 0 1.33333 500.161 297.293)" font-size="7.994"><tspan y="0" x="0 4.4448032">20</tspan></text><text style="-inkscape-font-specification:Helvetica" transform="matrix(1.33333 0 0 1.33333 268.28 311.169)" font-size="9.999"><tspan y="0" x="0 6.669333 12.228777 15.558444 17.778221 23.337666">Period</tspan></text></g><path d="M126.654 365.949h321.767v-43.51H126.654z" fill="#fff"/><path d="M126.654 365.949v-43.51H448.42v43.51H126.654" fill="none" stroke="#000" stroke-width=".7679808" stroke-miterlimit="10"/><path d="M132.413 334.863h49.928" fill="none" stroke="#1a476f" stroke-width="1.7279568" stroke-miterlimit="10"/><path d="M161.107 334.863a3.73 3.73 0 10-7.46.002 3.73 3.73 0 007.46-.002" fill="#1a476f"/><path d="M161.107 334.863a3.73 3.73 0 10-7.46.002 3.73 3.73 0 007.46-.002" fill="none" stroke="#1a476f" stroke-width="1.1519712000000002" stroke-miterlimit="10"/><path d="M241.676 334.863h49.912" fill="none" stroke="#e37e00" stroke-width="1.7279568" stroke-miterlimit="10"/><path d="M263.984 337.503l5.28-5.28M269.264 337.503l-5.28-5.28" fill="none" stroke="#e37e00" stroke-width="1.1519712000000002" stroke-linecap="round" stroke-miterlimit="10"/><path d="M132.413 353.525h7.672M143.55 353.525h.38M147.395 353.525h7.672M158.532 353.525h.38M162.376 353.525h7.673M173.515 353.525h.378M177.359 353.525h4.982" fill="none" stroke="#90353b" stroke-width="1.7279568" stroke-miterlimit="10"/><path d="M154.984 355.917h4.785v-4.785h-4.785z" fill="#90353b"/><path d="M154.984 355.917v-4.785h4.785v4.785h-4.785" fill="none" stroke="#90353b" stroke-width="1.1519712000000002" stroke-miterlimit="10"/><path d="M241.676 353.525h3.068M247.433 353.525h3.07M253.193 353.525h3.068M258.95 353.525h3.07M264.71 353.525h3.069M270.468 353.525h3.07M276.227 353.525h3.085M281.985 353.525h3.086M287.76 353.525h3.07" fill="none" stroke="#55752f" stroke-width="1.7279568" stroke-miterlimit="10"/><path d="M263.241 353.525l3.383 3.382 3.383-3.382-3.383-3.383-3.383 3.383" fill="#55752f"/><path d="M263.241 353.525l3.383 3.382 3.383-3.382-3.383-3.383-3.383 3.383" fill="none" stroke="#55752f" stroke-width="1.1519712000000002" stroke-miterlimit="10"/><path d="M366.861 353.525h49.912" fill="none" stroke="#000" stroke-width="1.7279568" stroke-miterlimit="10"/><g font-weight="400" font-family="Helvetica"><text style="-inkscape-font-specification:Helvetica" transform="matrix(1.33333 0 0 1.33333 190.344 339.532)" font-size="9.999"><tspan y="0" x="0 2.779722 9.9989996 81.935204 88.604538 95.823814 103.60303 110.82232">INCSHORT</tspan><tspan y="13.996" x="0 5.559444 13.338666 81.935204 89.15448 91.934204 99.713425 175.82422 181.93361">LOWHIGHFV</tspan></text><text style="-inkscape-font-specification:Helvetica" transform="matrix(1.33333 0 0 1.33333 258.51 30.686)" font-size="16.001"><tspan y="0" x="0 10.672601 20.44915 32.001801">STUD</tspan></text></g></svg>