<svg xmlns="http://www.w3.org/2000/svg" height="384" width="528"><path d="M0 384h528V0H0z" fill="#fff"/><path d="M0 384V.012h527.984V384H0" fill="#fff"/><path d="M.38 383.62V.392h527.224V383.62z" fill="none" stroke="#fff" stroke-width=".7679808" stroke-miterlimit="10"/><path d="M54.483 273.73h472.345M54.483 237.15h472.345M54.483 200.57h472.345M54.483 163.99h472.345M54.483 142.588h472.345M54.483 127.408h472.345M54.483 115.628h472.345M54.483 106.008h472.345M54.483 97.873h472.345M54.483 90.828h472.345M54.483 84.607h472.345M54.483 79.047h472.345M54.483 74.015h472.345M54.483 69.428h472.345M54.483 65.204h472.345M54.483 61.293h472.345M54.483 57.647h472.345M54.483 54.248h472.345M54.483 51.047h472.345M54.483 48.027h472.345M54.483 45.172h472.345" fill="none" stroke="#d0d0d0" stroke-width=".7679808" stroke-miterlimit="10"/><path d="M62.915 252.644l23.974-14.19M86.89 238.453l23.974.808M110.864 239.261l23.957-.148M134.821 239.113l23.975-.957M158.796 238.156l23.975.957M182.77 239.113l23.975 5.099M206.745 244.212l23.974-3.581M230.719 240.63l23.974-1.351M254.693 239.279l23.959 2.36M278.652 241.639l23.975-1.42M302.627 240.219l23.974 2.657M326.601 242.876l23.975 1.039M350.576 243.915l23.975 7.705M374.55 251.62l23.974 7.624M398.524 259.244l23.959-.413M422.483 258.831l23.974 1.468M446.457 260.3l23.974.412M470.43 260.712l23.977 1.749M494.407 262.46l23.974 2.856M62.915 266.784l23.974.05M86.89 266.833l23.974-1.749M110.864 265.084l23.957-37.39M134.821 227.695l23.975 36.499M158.796 264.194l23.975-2.36M182.77 261.834l23.975-5.924M206.745 255.91l23.974-8.662M230.719 247.248l23.974-1.056M254.693 246.192l23.959-3.597M278.652 242.595l23.975-.462M302.627 242.133l23.974.115M326.601 242.248l23.975.792M350.576 243.04l23.975.15M374.55 243.19l23.974.527M398.524 243.717l23.959-.792M422.483 242.925l23.974 2.987M446.457 245.912l23.974 7.243M470.43 253.155l23.977 10.494M494.407 263.649l23.974.594M62.915 269.094l23.974-2.326M86.89 266.768l23.974.71M110.864 267.477l23.957.017M134.821 267.494l23.975-.133M158.796 267.361l23.975-.032M182.77 267.329l23.975-.1M206.745 267.23l23.974-.017M230.719 267.213h23.974M254.693 267.213h23.959M278.652 267.213l23.975.017M302.627 267.23l23.974-.017M326.601 267.213h23.975M350.576 267.213h23.975M374.55 267.213h23.974M398.524 267.213l23.959.066M422.483 267.28l23.974.049M446.457 267.329l23.974.032M470.43 267.361l23.977.116M494.407 267.477l23.974.165M62.915 205.783l23.974 10.693M86.89 216.476l23.974-2.87M110.864 213.605l23.957-.677M134.821 212.928l23.975-.347M158.796 212.581l23.975 2.855M182.77 215.436l23.975.099M206.745 215.535l23.974.496M230.719 216.03l23.974-2.822M254.693 213.208l23.959-1.435M278.652 211.773l23.975-.578M302.627 211.195l23.974 1.932M326.601 213.127l23.975 1.434M350.576 214.561l23.975 17.706M374.55 232.267l23.974-6.452M398.524 225.815l23.959 2.013M422.483 227.828l23.974 35.887M446.457 263.715l23.974-.33M470.43 263.385l23.977 2.013M494.407 265.398l23.974-1.304M62.915 254.789l23.974 2.342M86.89 257.131l23.974-4.405M110.864 252.726l23.957-5.462M134.821 247.264l23.975-1.452M158.796 245.812l23.975-1.27M182.77 244.543l23.975.114M206.745 244.657h23.974M230.719 244.657l23.974.231M254.693 244.888l23.959.033M278.652 244.921l23.975.314M302.627 245.235l23.974-.363M326.601 244.872l23.975 1.04M350.576 245.912l23.975-.924M374.55 244.988l23.974.808M398.524 245.796l23.959-.181M422.483 245.615l23.974.99M446.457 246.605l23.974 1.023M470.43 247.628l23.977-.447M494.407 247.181l23.974.496M62.915 247.083l23.974-8.167M86.89 238.916l23.974-1.964M110.864 236.952l23.957-5.296M134.821 231.656l23.975-5.347M158.796 226.31l23.975-8.762M182.77 217.548l23.975-15.065M206.745 202.483l23.974-4.422M230.719 198.061l23.974-5.642M254.693 192.419l23.959-2.327M278.652 190.092l23.975-3.07M302.627 187.023L326.6 185.9M326.601 185.901l23.975 1.354M350.576 187.255l23.975-.644M374.55 186.61l23.974 1.535M398.524 188.145l23.959 2.524M422.483 190.67l23.974 19.535M446.457 210.205l23.974 26.45M470.43 236.655l23.977 29.123M494.407 265.778l23.974-2.41M62.915 215.288l23.974-5.512M86.89 209.776l23.974-.032M110.864 209.744l23.957-15.495M134.821 194.25l23.975-1.04M158.796 193.21l23.975-2.26M182.77 190.95l23.975-5.643M206.745 185.307l23.974-1.222M230.719 184.085l23.974-6.484M254.693 177.601l23.959-2.64M278.652 174.961l23.975-2.573M302.627 172.388l23.974-1.04M326.601 171.348l23.975-2.013M350.576 169.335l23.975-.479M374.55 168.856l23.974 3.201M398.524 172.057l23.959 1.848M422.483 173.905l23.974 10.84M446.457 184.745l23.974 14.736M470.43 199.481l23.977 46.876M494.407 246.357l23.974 18.76M62.915 261.95l23.974-3.73M86.89 258.22l23.974-1.072M110.864 257.148l23.957-7.855M134.821 249.293l23.975-4.47M158.796 244.823l23.975-3.416M182.77 241.407l23.975-3.218M206.745 238.19l23.974-23.183M230.719 215.007l23.974 12.54M254.693 227.547l23.959-5.264M278.652 222.283l23.975-3.267M302.627 219.016l23.974-7.77M326.601 211.245l23.975-2.953M350.576 208.292l23.975-3.812M374.55 204.48l23.974-6.799M398.524 197.681l23.959-6.781M422.483 190.9l23.974-4.173M446.457 186.727l23.974.824M470.43 187.55l23.977 19.735M494.407 207.285l23.974 54.301M62.915 263.814l23.974.825M86.89 264.64l23.974-1.634M110.864 263.006l23.957.05M134.821 263.055l23.975-3.415M158.796 259.64l23.975-2.591M182.77 257.049l23.975-2.805M206.745 254.244l23.974.627M230.719 254.87l23.974-4.8M254.693 250.07l23.959-4.158M278.652 245.912l23.975.71M302.627 246.621l23.974 8.646M326.601 255.267l23.975.875M350.576 256.142l23.975 4.52M374.55 260.663l23.974-2.195M398.524 258.468l23.959 1.007M422.483 259.475l23.974-.594M446.457 258.88l23.974 1.452M470.43 260.332l23.977 2.376M494.407 262.708l23.974 2.723M62.915 232.761l23.974-7.358M86.89 225.403l23.974 13.661M110.864 239.064l23.957-6.748M134.821 232.316l23.975 9.404M158.796 241.72l23.975-10.757M182.77 230.963l23.975 4.19M206.745 235.153l23.974-.725M230.719 234.428l23.974 1.468M254.693 235.896l23.959-.61M278.652 235.285l23.975.875M302.627 236.16l23.974-.363M326.601 235.797l23.975.759M350.576 236.556l23.975 40.953M374.55 277.509l23.974-38.428M398.524 239.081l23.959 1.567M422.483 240.648l23.974 1.519M446.457 242.167l23.974 1.748M470.43 243.915l23.977 14.29M494.407 258.204l23.974-3.448" fill="none" stroke="#a0a0a0" stroke-width="1.1519712000000002" stroke-linecap="round" stroke-miterlimit="10"/><path d="M62.915 267.757h7.672M74.431 267.757h7.673M85.948 267.757h.941M86.89 267.757h6.73M97.466 267.757h7.672M108.982 267.757h1.882M110.864 267.757h5.807M120.5 267.757h7.689M132.017 267.757h2.804M134.821 267.757h4.884M143.55 267.757h7.673M155.067 267.757h3.729M158.796 267.757h3.944M166.584 267.757h7.672M178.101 267.757h4.67M182.77 267.757h3.003M189.619 267.757h7.672M201.135 267.757h5.61M206.745 267.757h2.062M212.652 267.757h7.672M224.17 267.757h6.549M230.719 267.757h1.122M235.685 267.757h7.69M247.203 267.757h7.49M254.693 267.757h.199M258.72 267.757h7.69M270.253 267.757h7.674M281.77 267.757h7.673M293.288 267.757h7.672M304.805 267.757h7.672M316.321 267.757h7.674M327.839 267.757h7.672M339.356 267.757h7.672M350.872 267.757h7.673M362.39 267.757h7.689M373.907 267.757h.644M374.55 267.757h7.045M385.44 267.757h7.672M396.957 267.757h1.567M398.524 267.757h6.105M408.473 267.757h7.674M419.99 267.757h2.493M422.483 267.757h5.181M431.508 267.757h7.673M443.025 267.757h3.432M446.457 267.757h4.24M454.543 267.757h7.672M466.059 267.757h4.372M470.43 267.757h3.3M477.576 267.757h7.672M489.093 267.757h5.314M494.407 267.757h2.374M500.61 267.757h7.689M512.144 267.757h6.237" fill="none" stroke="#000" stroke-width="1.7279568" stroke-miterlimit="10"/><path d="M62.915 242.447l23.974-2.262M86.89 240.185l23.974.43M110.864 240.615l23.957-8.482M134.821 232.133l23.975 2.195M158.796 234.328l23.975-2.755M182.77 231.573l23.975-3.416M206.745 228.157l23.974-4.058M230.719 224.099l23.974-1.75M254.693 222.35l23.959-2.063M278.652 220.287l23.975-1.551M302.627 218.736l23.974-.463M326.601 218.273l23.975-.164M350.576 218.11l23.975 3.629M374.55 221.739l23.974-1.98M398.524 219.759l23.959.049M422.483 219.808l23.974 7.573M446.457 227.381l23.974 7.162M470.43 234.543l23.977 16.615M494.407 251.158l23.974 10.428M62.915 253.171l23.974-6.93M86.89 246.241l23.974-1.27M110.864 244.97l23.957-2.013M134.821 242.957l23.975-.725M158.796 242.232l23.975-2.31M182.77 239.921l23.975.958M206.745 240.879l23.974-3.284M230.719 237.595l23.974-.346M254.693 237.25l23.959 1.335M278.652 238.585l23.975.182M302.627 238.767l23.974.198M326.601 238.965l23.975.94M350.576 239.905l23.975 3.828M374.55 243.733l23.974-2.062M398.524 241.67l23.959.215M422.483 241.885l23.974 4.34M446.457 246.225l23.974 4.39M470.43 250.615l23.977 8.348M494.407 258.963l23.974 5.429" fill="none" stroke="#2d6d66" stroke-width="1.7279568" stroke-linecap="round" stroke-miterlimit="10"/><path d="M65.884 253.171a2.97 2.97 0 10-5.94 0 2.97 2.97 0 005.94 0" fill="#fff"/><path d="M65.307 253.171a2.393 2.393 0 10-4.785.001 2.393 2.393 0 004.785 0z" fill="none" stroke="#000" stroke-width="1.1519712000000002" stroke-miterlimit="10"/><path d="M89.859 246.241a2.97 2.97 0 10-5.94 0 2.97 2.97 0 005.94 0" fill="#fff"/><path d="M89.281 246.241a2.393 2.393 0 10-4.786.002 2.393 2.393 0 004.786-.002z" fill="none" stroke="#000" stroke-width="1.1519712000000002" stroke-miterlimit="10"/><path d="M113.833 244.97a2.97 2.97 0 10-5.939.001 2.97 2.97 0 005.94 0" fill="#fff"/><path d="M113.256 244.97a2.393 2.393 0 10-4.785.002 2.393 2.393 0 004.785-.001z" fill="none" stroke="#000" stroke-width="1.1519712000000002" stroke-miterlimit="10"/><path d="M137.792 242.957a2.97 2.97 0 10-5.94.002 2.97 2.97 0 005.94-.002" fill="#fff"/><path d="M137.215 242.957a2.394 2.394 0 10-4.788.004 2.394 2.394 0 004.788-.004z" fill="none" stroke="#000" stroke-width="1.1519712000000002" stroke-miterlimit="10"/><path d="M161.767 242.232a2.97 2.97 0 10-5.94 0 2.97 2.97 0 005.94 0" fill="#fff"/><path d="M161.188 242.232a2.392 2.392 0 10-4.783 0 2.392 2.392 0 004.783 0z" fill="none" stroke="#000" stroke-width="1.1519712000000002" stroke-miterlimit="10"/><path d="M185.74 239.921a2.97 2.97 0 10-5.938 0 2.97 2.97 0 005.938 0" fill="#fff"/><path d="M185.163 239.921a2.393 2.393 0 10-4.783.001 2.393 2.393 0 004.783 0z" fill="none" stroke="#000" stroke-width="1.1519712000000002" stroke-miterlimit="10"/><path d="M209.715 240.879a2.97 2.97 0 10-5.939 0 2.97 2.97 0 005.939 0" fill="#fff"/><path d="M209.137 240.879a2.393 2.393 0 10-4.786.002 2.393 2.393 0 004.786-.002z" fill="none" stroke="#000" stroke-width="1.1519712000000002" stroke-miterlimit="10"/><path d="M233.69 237.595a2.97 2.97 0 10-5.94 0 2.97 2.97 0 005.94 0" fill="#fff"/><path d="M233.112 237.595a2.394 2.394 0 00-4.785 0 2.394 2.394 0 004.785 0z" fill="none" stroke="#000" stroke-width="1.1519712000000002" stroke-miterlimit="10"/><path d="M257.664 237.25a2.97 2.97 0 10-5.94 0 2.97 2.97 0 005.94 0" fill="#fff"/><path d="M257.087 237.25a2.394 2.394 0 10-2.393 2.392 2.394 2.394 0 002.393-2.393z" fill="none" stroke="#000" stroke-width="1.1519712000000002" stroke-miterlimit="10"/><path d="M281.621 238.585a2.97 2.97 0 10-5.938 0 2.97 2.97 0 005.938 0" fill="#fff"/><path d="M281.044 238.585a2.392 2.392 0 10-4.784 0 2.393 2.393 0 104.784 0z" fill="none" stroke="#000" stroke-width="1.1519712000000002" stroke-miterlimit="10"/><path d="M305.596 238.767a2.97 2.97 0 10-5.938 0 2.97 2.97 0 005.938 0" fill="#fff"/><path d="M305.019 238.767a2.393 2.393 0 10-4.785 0 2.393 2.393 0 004.785 0z" fill="none" stroke="#000" stroke-width="1.1519712000000002" stroke-miterlimit="10"/><path d="M329.57 238.965a2.97 2.97 0 10-5.94 0 2.97 2.97 0 005.94 0" fill="#fff"/><path d="M328.993 238.965a2.394 2.394 0 00-4.785 0 2.394 2.394 0 004.785 0z" fill="none" stroke="#000" stroke-width="1.1519712000000002" stroke-miterlimit="10"/><path d="M353.545 239.905a2.97 2.97 0 10-5.938 0 2.97 2.97 0 005.938 0" fill="#fff"/><path d="M352.968 239.905a2.393 2.393 0 00-4.785 0 2.393 2.393 0 004.785 0z" fill="none" stroke="#000" stroke-width="1.1519712000000002" stroke-miterlimit="10"/><path d="M377.52 243.733a2.97 2.97 0 10-5.938 0 2.97 2.97 0 005.938 0" fill="#fff"/><path d="M376.943 243.733a2.393 2.393 0 10-4.785.001 2.393 2.393 0 004.785 0z" fill="none" stroke="#000" stroke-width="1.1519712000000002" stroke-miterlimit="10"/><path d="M401.495 241.67a2.97 2.97 0 10-5.941.003 2.97 2.97 0 005.94-.002" fill="#fff"/><path d="M400.917 241.67a2.393 2.393 0 10-4.785.002 2.393 2.393 0 004.785-.001z" fill="none" stroke="#000" stroke-width="1.1519712000000002" stroke-miterlimit="10"/><path d="M425.452 241.885a2.97 2.97 0 10-5.938 0 2.97 2.97 0 005.938 0" fill="#fff"/><path d="M424.875 241.885a2.393 2.393 0 10-4.785.001 2.393 2.393 0 004.785 0z" fill="none" stroke="#000" stroke-width="1.1519712000000002" stroke-miterlimit="10"/><path d="M449.427 246.225a2.97 2.97 0 10-5.941 0 2.97 2.97 0 005.94 0" fill="#fff"/><path d="M448.85 246.225a2.394 2.394 0 00-4.786 0 2.394 2.394 0 004.785 0z" fill="none" stroke="#000" stroke-width="1.1519712000000002" stroke-miterlimit="10"/><path d="M473.401 250.615a2.97 2.97 0 10-5.94-.002 2.97 2.97 0 005.94.002" fill="#fff"/><path d="M472.824 250.615a2.394 2.394 0 10-2.393 2.392 2.393 2.393 0 002.393-2.392z" fill="none" stroke="#000" stroke-width="1.1519712000000002" stroke-miterlimit="10"/><path d="M497.376 258.963a2.97 2.97 0 10-5.94 0 2.97 2.97 0 005.94 0" fill="#fff"/><path d="M496.799 258.963a2.393 2.393 0 10-4.787.001 2.393 2.393 0 004.787 0z" fill="none" stroke="#000" stroke-width="1.1519712000000002" stroke-miterlimit="10"/><path d="M521.35 264.392a2.97 2.97 0 10-5.94 0 2.97 2.97 0 005.94 0" fill="#fff"/><path d="M520.773 264.392a2.393 2.393 0 10-4.787.001 2.393 2.393 0 004.787-.001z" fill="none" stroke="#000" stroke-width="1.1519712000000002" stroke-miterlimit="10"/><path d="M54.483 312.786V34.019M54.483 273.73H51.81M54.483 237.15H51.81M54.483 200.57H51.81M54.483 163.99H51.81M54.483 142.588H51.81M54.483 127.408H51.81M54.483 115.628H51.81M54.483 106.008H51.81M54.483 97.873H51.81M54.483 90.828H51.81M54.483 84.607H51.81M54.483 79.047H51.81M54.483 74.015H51.81M54.483 69.428H51.81M54.483 65.204H51.81M54.483 61.293H51.81M54.483 57.647H51.81M54.483 54.248H51.81M54.483 51.047H51.81M54.483 48.027H51.81M54.483 45.172H51.81M54.483 273.73h-5.346" fill="none" stroke="#000" stroke-width=".7679808" stroke-miterlimit="10"/><text style="-inkscape-font-specification:Helvetica" transform="matrix(1.33333 0 0 1.33333 34.629 277.46)" font-weight="400" font-size="7.994" font-family="Helvetica"><tspan y="0" x="0 4.4448032">25</tspan></text><path d="M54.483 237.15h-5.346" fill="none" stroke="#000" stroke-width=".7679808" stroke-miterlimit="10"/><text style="-inkscape-font-specification:Helvetica" transform="matrix(1.33333 0 0 1.33333 34.629 240.879)" font-weight="400" font-size="7.994" font-family="Helvetica"><tspan y="0" x="0 4.4448032">50</tspan></text><path d="M54.483 200.57h-5.346" fill="none" stroke="#000" stroke-width=".7679808" stroke-miterlimit="10"/><text style="-inkscape-font-specification:Helvetica" transform="matrix(1.33333 0 0 1.33333 28.703 204.299)" font-weight="400" font-size="7.994" font-family="Helvetica"><tspan y="0" x="0 4.4448032 8.8896065">100</tspan></text><path d="M54.483 163.99h-5.346" fill="none" stroke="#000" stroke-width=".7679808" stroke-miterlimit="10"/><text style="-inkscape-font-specification:Helvetica" transform="matrix(1.33333 0 0 1.33333 28.703 167.719)" font-weight="400" font-size="7.994" font-family="Helvetica"><tspan y="0" x="0 4.4448032 8.8896065">200</tspan></text><path d="M54.483 127.408h-5.346" fill="none" stroke="#000" stroke-width=".7679808" stroke-miterlimit="10"/><text style="-inkscape-font-specification:Helvetica" transform="matrix(1.33333 0 0 1.33333 28.703 131.137)" font-weight="400" font-size="7.994" font-family="Helvetica"><tspan y="0" x="0 4.4448032 8.8896065">400</tspan></text><path d="M54.483 106.008h-5.346" fill="none" stroke="#000" stroke-width=".7679808" stroke-miterlimit="10"/><text style="-inkscape-font-specification:Helvetica" transform="matrix(1.33333 0 0 1.33333 28.703 109.737)" font-weight="400" font-size="7.994" font-family="Helvetica"><tspan y="0" x="0 4.4448032 8.8896065">600</tspan></text><path d="M54.483 90.828h-5.346" fill="none" stroke="#000" stroke-width=".7679808" stroke-miterlimit="10"/><text style="-inkscape-font-specification:Helvetica" transform="matrix(1.33333 0 0 1.33333 28.703 94.557)" font-weight="400" font-size="7.994" font-family="Helvetica"><tspan y="0" x="0 4.4448032 8.8896065">800</tspan></text><path d="M54.483 79.047h-5.346" fill="none" stroke="#000" stroke-width=".7679808" stroke-miterlimit="10"/><text style="-inkscape-font-specification:Helvetica" transform="matrix(1.33333 0 0 1.33333 22.777 82.776)" font-weight="400" font-size="7.994" font-family="Helvetica"><tspan y="0" x="0 4.4448032 8.8896065 13.334409">1000</tspan></text><path d="M54.483 65.204h-5.346" fill="none" stroke="#000" stroke-width=".7679808" stroke-miterlimit="10"/><text style="-inkscape-font-specification:Helvetica" transform="matrix(1.33333 0 0 1.33333 22.777 68.932)" font-weight="400" font-size="7.994" font-family="Helvetica"><tspan y="0" x="0 4.4448032 8.8896065 13.334409">1300</tspan></text><path d="M54.483 54.248h-5.346" fill="none" stroke="#000" stroke-width=".7679808" stroke-miterlimit="10"/><text style="-inkscape-font-specification:Helvetica" transform="matrix(1.33333 0 0 1.33333 22.777 57.976)" font-weight="400" font-size="7.994" font-family="Helvetica"><tspan y="0" x="0 4.4448032 8.8896065 13.334409">1600</tspan></text><path d="M54.483 45.172h-5.346" fill="none" stroke="#000" stroke-width=".7679808" stroke-miterlimit="10"/><g font-weight="400" font-family="Helvetica"><text style="-inkscape-font-specification:Helvetica" transform="matrix(1.33333 0 0 1.33333 22.777 48.901)" font-size="7.994"><tspan y="0" x="0 4.4448032 8.8896065 13.334409">1900</tspan></text><text style="-inkscape-font-specification:Helvetica" transform="matrix(0 -1.33333 1.33333 0 13.15 221.173)" font-size="9.999"><tspan y="0" x="0 6.669333 9.9989996 12.218778 17.218279 22.777721 25.557444 28.887112 31.10689 36.666332 42.225777 45.005501 50.004997 55.004498 60.563942 62.783722 68.343163">Price (log scale)</tspan></text></g><path d="M54.483 312.786h472.345M86.89 312.786v5.33" fill="none" stroke="#000" stroke-width=".7679808" stroke-miterlimit="10"/><text style="-inkscape-font-specification:Helvetica" transform="matrix(1.33333 0 0 1.33333 83.926 328.246)" font-weight="400" font-size="7.994" font-family="Helvetica"><tspan y="0" x="0">2</tspan></text><path d="M134.839 312.786v5.33" fill="none" stroke="#000" stroke-width=".7679808" stroke-miterlimit="10"/><text style="-inkscape-font-specification:Helvetica" transform="matrix(1.33333 0 0 1.33333 131.875 328.246)" font-weight="400" font-size="7.994" font-family="Helvetica"><tspan y="0" x="0">4</tspan></text><path d="M182.787 312.786v5.33" fill="none" stroke="#000" stroke-width=".7679808" stroke-miterlimit="10"/><text style="-inkscape-font-specification:Helvetica" transform="matrix(1.33333 0 0 1.33333 179.824 328.246)" font-weight="400" font-size="7.994" font-family="Helvetica"><tspan y="0" x="0">6</tspan></text><path d="M230.719 312.786v5.33" fill="none" stroke="#000" stroke-width=".7679808" stroke-miterlimit="10"/><text style="-inkscape-font-specification:Helvetica" transform="matrix(1.33333 0 0 1.33333 227.756 328.246)" font-weight="400" font-size="7.994" font-family="Helvetica"><tspan y="0" x="0">8</tspan></text><path d="M278.67 312.786v5.33" fill="none" stroke="#000" stroke-width=".7679808" stroke-miterlimit="10"/><text style="-inkscape-font-specification:Helvetica" transform="matrix(1.33333 0 0 1.33333 272.743 328.246)" font-weight="400" font-size="7.994" font-family="Helvetica"><tspan y="0" x="0 4.4448032">10</tspan></text><path d="M326.617 312.786v5.33" fill="none" stroke="#000" stroke-width=".7679808" stroke-miterlimit="10"/><text style="-inkscape-font-specification:Helvetica" transform="matrix(1.33333 0 0 1.33333 320.692 328.246)" font-weight="400" font-size="7.994" font-family="Helvetica"><tspan y="0" x="0 4.4448032">12</tspan></text><path d="M374.55 312.786v5.33" fill="none" stroke="#000" stroke-width=".7679808" stroke-miterlimit="10"/><text style="-inkscape-font-specification:Helvetica" transform="matrix(1.33333 0 0 1.33333 368.624 328.246)" font-weight="400" font-size="7.994" font-family="Helvetica"><tspan y="0" x="0 4.4448032">14</tspan></text><path d="M422.499 312.786v5.33" fill="none" stroke="#000" stroke-width=".7679808" stroke-miterlimit="10"/><text style="-inkscape-font-specification:Helvetica" transform="matrix(1.33333 0 0 1.33333 416.573 328.246)" font-weight="400" font-size="7.994" font-family="Helvetica"><tspan y="0" x="0 4.4448032">16</tspan></text><path d="M470.448 312.786v5.33" fill="none" stroke="#000" stroke-width=".7679808" stroke-miterlimit="10"/><text style="-inkscape-font-specification:Helvetica" transform="matrix(1.33333 0 0 1.33333 464.521 328.246)" font-weight="400" font-size="7.994" font-family="Helvetica"><tspan y="0" x="0 4.4448032">18</tspan></text><path d="M518.381 312.786v5.33" fill="none" stroke="#000" stroke-width=".7679808" stroke-miterlimit="10"/><g font-weight="400" font-family="Helvetica"><text style="-inkscape-font-specification:Helvetica" transform="matrix(1.33333 0 0 1.33333 512.455 328.246)" font-size="7.994"><tspan y="0" x="0 4.4448032">20</tspan></text><text style="-inkscape-font-specification:Helvetica" transform="matrix(1.33333 0 0 1.33333 271.383 342.123)" font-size="9.999"><tspan y="0" x="0 6.669333 12.228777 15.558444 17.778221 23.337666">Period</tspan></text></g><path d="M90.981 378.242v-24.85h399.334v24.85H90.98" fill="#fff"/><path d="M91.36 377.862v-24.09h398.575v24.09z" fill="none" stroke="#000" stroke-width=".7679808" stroke-miterlimit="10"/><path d="M96.74 365.817h23.05" fill="none" stroke="#2d6d66" stroke-width="1.7279568" stroke-miterlimit="10"/><path d="M111.243 365.817a2.97 2.97 0 10-5.941.001 2.97 2.97 0 005.941 0" fill="#fff"/><path d="M110.666 365.817a2.393 2.393 0 00-4.785 0 2.393 2.393 0 004.785 0z" fill="none" stroke="#000" stroke-width="1.1519712000000002" stroke-miterlimit="10"/><path d="M191.17 365.817h23.049" fill="none" stroke="#2d6d66" stroke-width="1.7279568" stroke-miterlimit="10"/><path d="M275.105 365.817h23.034" fill="none" stroke="#a0a0a0" stroke-width="1.1519712000000002" stroke-miterlimit="10"/><path d="M435.633 365.817h7.672M447.15 365.817h7.673M458.667 365.817h0" fill="none" stroke="#000" stroke-width="1.7279568" stroke-miterlimit="10"/><g font-weight="400" font-family="Helvetica"><text style="-inkscape-font-specification:Helvetica" transform="matrix(1.33333 0 0 1.33333 127.793 370.486)" font-size="9.999"><tspan y="0" x="0 8.3291674 13.888611 19.448055 21.667833 27.227278 70.809822 79.138985 84.698433 90.257874 133.76143 136.54114 142.10059 147.66003 149.87981 154.8793 157.09909 162.65854 168.21797 173.77742 175.99719 178.77692 187.10609 192.66553 195.99519 200.99471 206.55414 209.33386 254.15788 260.26727">MedianMeanIndividual marketsFV</tspan></text><text style="-inkscape-font-specification:Helvetica" transform="matrix(1.33333 0 0 1.33333 256.744 27.617)" font-size="16.001"><tspan y="0" x="0 10.672601">PK</tspan></text><text style="-inkscape-font-specification:Helvetica" transform="matrix(1.33333 0 0 1.33333 285.204 16.446)" font-size="9.318"><tspan y="0" x="0 7.7622023 10.352709 16.568062 22.783415">MIXED</tspan></text></g></svg>