<svg xmlns="http://www.w3.org/2000/svg" height="384" width="528" xml:space="preserve"><path style="fill:#fff;fill-opacity:1;fill-rule:nonzero;stroke:none" d="M0 0h3960v2880H0z" transform="matrix(.13333 0 0 -.13333 0 384)"/><path style="fill:#fff;fill-opacity:1;fill-rule:nonzero;stroke:none" d="M0 0v2879.91h3959.88V0H0" transform="matrix(.13333 0 0 -.13333 0 384)"/><path style="fill:none;stroke:#fff;stroke-width:5.76000023;stroke-linecap:butt;stroke-linejoin:miter;stroke-miterlimit:10;stroke-dasharray:none;stroke-opacity:1" d="M2.848 2.848V2877.06H3957.03V2.848z" transform="matrix(.13333 0 0 -.13333 0 384)"/><path style="fill:none;stroke:#d0d0d0;stroke-width:7.19999981;stroke-linecap:butt;stroke-linejoin:miter;stroke-miterlimit:10;stroke-dasharray:none;stroke-opacity:1" d="M633.723 392.039H3951.21M633.723 520.246H3951.21M633.723 648.574H3951.21M633.723 776.902H3951.21M633.723 905.23H3951.21M633.723 1033.56H3951.21M633.723 1161.89H3951.21M633.723 1290.22H3951.21M633.723 1418.55H3951.21M633.723 1546.88H3951.21M633.723 1675.2H3951.21M633.723 1803.41H3951.21M633.723 1931.74H3951.21M633.723 2060.07H3951.21M633.723 2188.39H3951.21M633.723 2316.72H3951.21M633.723 2445.05H3951.21M633.723 2573.38H3951.21" transform="matrix(.13333 0 0 -.13333 0 384)"/><path style="fill:none;stroke:#000;stroke-width:8.64000034;stroke-linecap:butt;stroke-linejoin:miter;stroke-miterlimit:10;stroke-dasharray:none;stroke-opacity:1" d="M633.723 1290.22H3951.21" transform="matrix(.13333 0 0 -.13333 0 384)"/><path style="fill:#6f7991;fill-opacity:1;fill-rule:nonzero;stroke:none" d="M697.082 969.703v320.517h290.07V969.703h-290.07" transform="matrix(.13333 0 0 -.13333 0 384)"/><path style="fill:none;stroke:#4b5775;stroke-width:5.76000023;stroke-linecap:butt;stroke-linejoin:miter;stroke-miterlimit:10;stroke-dasharray:none;stroke-opacity:1" d="M699.93 972.551v314.819h284.379V972.551z" transform="matrix(.13333 0 0 -.13333 0 384)"/><path style="fill:#6f7991;fill-opacity:1;fill-rule:nonzero;stroke:none" d="M1111.52 1047.91v242.31h290.07v-242.31h-290.07" transform="matrix(.13333 0 0 -.13333 0 384)"/><path style="fill:none;stroke:#4b5775;stroke-width:5.76000023;stroke-linecap:butt;stroke-linejoin:miter;stroke-miterlimit:10;stroke-dasharray:none;stroke-opacity:1" d="M1114.37 1050.76v236.61h284.38v-236.61z" transform="matrix(.13333 0 0 -.13333 0 384)"/><path style="fill:#6f7991;fill-opacity:1;fill-rule:nonzero;stroke:none" d="M1525.96 1055.21v235.01h289.95v-235.01h-289.95" transform="matrix(.13333 0 0 -.13333 0 384)"/><path style="fill:none;stroke:#4b5775;stroke-width:5.76000023;stroke-linecap:butt;stroke-linejoin:miter;stroke-miterlimit:10;stroke-dasharray:none;stroke-opacity:1" d="M1528.81 1058.06v229.31h284.25v-229.31z" transform="matrix(.13333 0 0 -.13333 0 384)"/><path style="fill:#6f7991;fill-opacity:1;fill-rule:nonzero;stroke:none" d="M1940.28 1206.93v83.29h290.07v-83.29h-290.07" transform="matrix(.13333 0 0 -.13333 0 384)"/><path style="fill:none;stroke:#4b5775;stroke-width:5.76000023;stroke-linecap:butt;stroke-linejoin:miter;stroke-miterlimit:10;stroke-dasharray:none;stroke-opacity:1" d="M1943.12 1209.78v77.59h284.38v-77.59z" transform="matrix(.13333 0 0 -.13333 0 384)"/><path style="fill:#6f7991;fill-opacity:1;fill-rule:nonzero;stroke:none" d="M2354.71 1290.22v43.43h290.08v-43.43h-290.08" transform="matrix(.13333 0 0 -.13333 0 384)"/><path style="fill:none;stroke:#4b5775;stroke-width:5.76000023;stroke-linecap:butt;stroke-linejoin:miter;stroke-miterlimit:10;stroke-dasharray:none;stroke-opacity:1" d="M2357.56 1293.06v37.75h284.38v-37.75z" transform="matrix(.13333 0 0 -.13333 0 384)"/><path style="fill:#6f7991;fill-opacity:1;fill-rule:nonzero;stroke:none" d="M2769.03 1290.22v106.55h290.07v-106.55h-290.07" transform="matrix(.13333 0 0 -.13333 0 384)"/><path style="fill:none;stroke:#4b5775;stroke-width:5.76000023;stroke-linecap:butt;stroke-linejoin:miter;stroke-miterlimit:10;stroke-dasharray:none;stroke-opacity:1" d="M2771.88 1293.06v100.86h284.37v-100.86z" transform="matrix(.13333 0 0 -.13333 0 384)"/><path style="fill:#6f7991;fill-opacity:1;fill-rule:nonzero;stroke:none" d="M3183.47 1290.22v353.3h290.07v-353.3h-290.07" transform="matrix(.13333 0 0 -.13333 0 384)"/><path style="fill:none;stroke:#4b5775;stroke-width:5.76000023;stroke-linecap:butt;stroke-linejoin:miter;stroke-miterlimit:10;stroke-dasharray:none;stroke-opacity:1" d="M3186.32 1293.06v347.62h284.37v-347.62z" transform="matrix(.13333 0 0 -.13333 0 384)"/><path style="fill:#6f7991;fill-opacity:1;fill-rule:nonzero;stroke:none" d="M3597.79 1290.22v377.81h290.07v-377.81h-290.07" transform="matrix(.13333 0 0 -.13333 0 384)"/><path style="fill:none;stroke:#4b5775;stroke-width:5.76000023;stroke-linecap:butt;stroke-linejoin:miter;stroke-miterlimit:10;stroke-dasharray:none;stroke-opacity:1" d="M3600.63 1293.06v372.12h284.38v-372.12z" transform="matrix(.13333 0 0 -.13333 0 384)"/><text style="font-variant:normal;font-weight:400;font-size:9.9989996px;font-family:Helvetica;-inkscape-font-specification:Helvetica;writing-mode:lr-tb;fill:#000;fill-opacity:1;fill-rule:nonzero;stroke:none" transform="matrix(1.33333 0 0 1.33333 314.036 200.585)"><tspan y="0" x="0 3.3296671 8.8891106 14.448555 20.007999 25.567444">(2400)</tspan><tspan y="-6.311" x="41.431599 44.761269 50.320709 55.880154 61.439598 66.999046">(2400)</tspan><tspan y="-30.987" x="82.875397 86.20507 91.764511 97.323952 102.8834 108.44284">(2400)</tspan><tspan y="-33.437" x="124.307 127.63667 133.19611 138.75555 144.315 149.87444">(2400)</tspan><tspan y="51.789" x="-165.763 -162.43333 -156.87389 -151.31444 -145.755 -140.19556">(2400)</tspan><tspan y="43.968" x="-124.3189 -120.98923 -115.42979 -109.87035 -104.3109 -98.751457">(2400)</tspan><tspan y="43.238" x="-82.875099 -79.545433 -73.985992 -68.426544 -62.8671 -57.307655">(2400)</tspan><tspan y="28.066" x="-41.443501 -38.113834 -32.55439 -26.994946 -21.435501 -15.876057">(2400)</tspan></text><path style="fill:none;stroke:#000;stroke-width:5.76000023;stroke-linecap:butt;stroke-linejoin:miter;stroke-miterlimit:10;stroke-dasharray:none;stroke-opacity:1" d="M633.723 328.68v2308.06M633.723 392.039h-39.969" transform="matrix(.13333 0 0 -.13333 0 384)"/><text style="font-variant:normal;font-weight:400;font-size:11.00139999px;font-family:Helvetica;-inkscape-font-specification:Helvetica;writing-mode:lr-tb;fill:#000;fill-opacity:1;fill-rule:nonzero;stroke:none" transform="matrix(1.33333 0 0 1.33333 39.401 336.86)"><tspan y="0" x="0 6.4248176 12.541596 15.599985 21.716764">−1.75</tspan></text><path style="fill:none;stroke:#000;stroke-width:5.76000023;stroke-linecap:butt;stroke-linejoin:miter;stroke-miterlimit:10;stroke-dasharray:none;stroke-opacity:1" d="M633.723 520.246h-39.969" transform="matrix(.13333 0 0 -.13333 0 384)"/><text style="font-variant:normal;font-weight:400;font-size:11.00139999px;font-family:Helvetica;-inkscape-font-specification:Helvetica;writing-mode:lr-tb;fill:#000;fill-opacity:1;fill-rule:nonzero;stroke:none" transform="matrix(1.33333 0 0 1.33333 39.401 319.766)"><tspan y="0" x="0 6.4248176 12.541596 15.599985 21.716764">−1.50</tspan></text><path style="fill:none;stroke:#000;stroke-width:5.76000023;stroke-linecap:butt;stroke-linejoin:miter;stroke-miterlimit:10;stroke-dasharray:none;stroke-opacity:1" d="M633.723 648.574h-39.969" transform="matrix(.13333 0 0 -.13333 0 384)"/><text style="font-variant:normal;font-weight:400;font-size:11.00139999px;font-family:Helvetica;-inkscape-font-specification:Helvetica;writing-mode:lr-tb;fill:#000;fill-opacity:1;fill-rule:nonzero;stroke:none" transform="matrix(1.33333 0 0 1.33333 39.401 302.655)"><tspan y="0" x="0 6.4248176 12.541596 15.599985 21.716764">−1.25</tspan></text><path style="fill:none;stroke:#000;stroke-width:5.76000023;stroke-linecap:butt;stroke-linejoin:miter;stroke-miterlimit:10;stroke-dasharray:none;stroke-opacity:1" d="M633.723 776.902h-39.969" transform="matrix(.13333 0 0 -.13333 0 384)"/><text style="font-variant:normal;font-weight:400;font-size:11.00139999px;font-family:Helvetica;-inkscape-font-specification:Helvetica;writing-mode:lr-tb;fill:#000;fill-opacity:1;fill-rule:nonzero;stroke:none" transform="matrix(1.33333 0 0 1.33333 39.401 285.544)"><tspan y="0" x="0 6.4248176 12.541596 15.599985 21.716764">−1.00</tspan></text><path style="fill:none;stroke:#000;stroke-width:5.76000023;stroke-linecap:butt;stroke-linejoin:miter;stroke-miterlimit:10;stroke-dasharray:none;stroke-opacity:1" d="M633.723 905.23h-39.969" transform="matrix(.13333 0 0 -.13333 0 384)"/><text style="font-variant:normal;font-weight:400;font-size:11.00139999px;font-family:Helvetica;-inkscape-font-specification:Helvetica;writing-mode:lr-tb;fill:#000;fill-opacity:1;fill-rule:nonzero;stroke:none" transform="matrix(1.33333 0 0 1.33333 39.401 268.434)"><tspan y="0" x="0 6.4248176 12.541596 15.599985 21.716764">−0.75</tspan></text><path style="fill:none;stroke:#000;stroke-width:5.76000023;stroke-linecap:butt;stroke-linejoin:miter;stroke-miterlimit:10;stroke-dasharray:none;stroke-opacity:1" d="M633.723 1033.56h-39.969" transform="matrix(.13333 0 0 -.13333 0 384)"/><text style="font-variant:normal;font-weight:400;font-size:11.00139999px;font-family:Helvetica;-inkscape-font-specification:Helvetica;writing-mode:lr-tb;fill:#000;fill-opacity:1;fill-rule:nonzero;stroke:none" transform="matrix(1.33333 0 0 1.33333 39.401 251.323)"><tspan y="0" x="0 6.4248176 12.541596 15.599985 21.716764">−0.50</tspan></text><path style="fill:none;stroke:#000;stroke-width:5.76000023;stroke-linecap:butt;stroke-linejoin:miter;stroke-miterlimit:10;stroke-dasharray:none;stroke-opacity:1" d="M633.723 1161.89h-39.969" transform="matrix(.13333 0 0 -.13333 0 384)"/><text style="font-variant:normal;font-weight:400;font-size:11.00139999px;font-family:Helvetica;-inkscape-font-specification:Helvetica;writing-mode:lr-tb;fill:#000;fill-opacity:1;fill-rule:nonzero;stroke:none" transform="matrix(1.33333 0 0 1.33333 39.401 234.213)"><tspan y="0" x="0 6.4248176 12.541596 15.599985 21.716764">−0.25</tspan></text><path style="fill:none;stroke:#000;stroke-width:5.76000023;stroke-linecap:butt;stroke-linejoin:miter;stroke-miterlimit:10;stroke-dasharray:none;stroke-opacity:1" d="M633.723 1290.22h-39.969" transform="matrix(.13333 0 0 -.13333 0 384)"/><text style="font-variant:normal;font-weight:400;font-size:11.00139999px;font-family:Helvetica;-inkscape-font-specification:Helvetica;writing-mode:lr-tb;fill:#000;fill-opacity:1;fill-rule:nonzero;stroke:none" transform="matrix(1.33333 0 0 1.33333 47.967 217.103)"><tspan y="0" x="0 6.1167784 9.175168 15.291946">0.00</tspan></text><path style="fill:none;stroke:#000;stroke-width:5.76000023;stroke-linecap:butt;stroke-linejoin:miter;stroke-miterlimit:10;stroke-dasharray:none;stroke-opacity:1" d="M633.723 1418.55h-39.969" transform="matrix(.13333 0 0 -.13333 0 384)"/><text style="font-variant:normal;font-weight:400;font-size:11.00139999px;font-family:Helvetica;-inkscape-font-specification:Helvetica;writing-mode:lr-tb;fill:#000;fill-opacity:1;fill-rule:nonzero;stroke:none" transform="matrix(1.33333 0 0 1.33333 47.967 199.992)"><tspan y="0" x="0 6.1167784 9.175168 15.291946">0.25</tspan></text><path style="fill:none;stroke:#000;stroke-width:5.76000023;stroke-linecap:butt;stroke-linejoin:miter;stroke-miterlimit:10;stroke-dasharray:none;stroke-opacity:1" d="M633.723 1546.88h-39.969" transform="matrix(.13333 0 0 -.13333 0 384)"/><text style="font-variant:normal;font-weight:400;font-size:11.00139999px;font-family:Helvetica;-inkscape-font-specification:Helvetica;writing-mode:lr-tb;fill:#000;fill-opacity:1;fill-rule:nonzero;stroke:none" transform="matrix(1.33333 0 0 1.33333 47.967 182.881)"><tspan y="0" x="0 6.1167784 9.175168 15.291946">0.50</tspan></text><path style="fill:none;stroke:#000;stroke-width:5.76000023;stroke-linecap:butt;stroke-linejoin:miter;stroke-miterlimit:10;stroke-dasharray:none;stroke-opacity:1" d="M633.723 1675.2h-39.969" transform="matrix(.13333 0 0 -.13333 0 384)"/><text style="font-variant:normal;font-weight:400;font-size:11.00139999px;font-family:Helvetica;-inkscape-font-specification:Helvetica;writing-mode:lr-tb;fill:#000;fill-opacity:1;fill-rule:nonzero;stroke:none" transform="matrix(1.33333 0 0 1.33333 47.967 165.77)"><tspan y="0" x="0 6.1167784 9.175168 15.291946">0.75</tspan></text><path style="fill:none;stroke:#000;stroke-width:5.76000023;stroke-linecap:butt;stroke-linejoin:miter;stroke-miterlimit:10;stroke-dasharray:none;stroke-opacity:1" d="M633.723 1803.41h-39.969" transform="matrix(.13333 0 0 -.13333 0 384)"/><text style="font-variant:normal;font-weight:400;font-size:11.00139999px;font-family:Helvetica;-inkscape-font-specification:Helvetica;writing-mode:lr-tb;fill:#000;fill-opacity:1;fill-rule:nonzero;stroke:none" transform="matrix(1.33333 0 0 1.33333 47.967 148.677)"><tspan y="0" x="0 6.1167784 9.175168 15.291946">1.00</tspan></text><path style="fill:none;stroke:#000;stroke-width:5.76000023;stroke-linecap:butt;stroke-linejoin:miter;stroke-miterlimit:10;stroke-dasharray:none;stroke-opacity:1" d="M633.723 1931.74h-39.969" transform="matrix(.13333 0 0 -.13333 0 384)"/><text style="font-variant:normal;font-weight:400;font-size:11.00139999px;font-family:Helvetica;-inkscape-font-specification:Helvetica;writing-mode:lr-tb;fill:#000;fill-opacity:1;fill-rule:nonzero;stroke:none" transform="matrix(1.33333 0 0 1.33333 47.967 131.567)"><tspan y="0" x="0 6.1167784 9.175168 15.291946">1.25</tspan></text><path style="fill:none;stroke:#000;stroke-width:5.76000023;stroke-linecap:butt;stroke-linejoin:miter;stroke-miterlimit:10;stroke-dasharray:none;stroke-opacity:1" d="M633.723 2060.07h-39.969" transform="matrix(.13333 0 0 -.13333 0 384)"/><text style="font-variant:normal;font-weight:400;font-size:11.00139999px;font-family:Helvetica;-inkscape-font-specification:Helvetica;writing-mode:lr-tb;fill:#000;fill-opacity:1;fill-rule:nonzero;stroke:none" transform="matrix(1.33333 0 0 1.33333 47.967 114.456)"><tspan y="0" x="0 6.1167784 9.175168 15.291946">1.50</tspan></text><path style="fill:none;stroke:#000;stroke-width:5.76000023;stroke-linecap:butt;stroke-linejoin:miter;stroke-miterlimit:10;stroke-dasharray:none;stroke-opacity:1" d="M633.723 2188.39h-39.969" transform="matrix(.13333 0 0 -.13333 0 384)"/><text style="font-variant:normal;font-weight:400;font-size:11.00139999px;font-family:Helvetica;-inkscape-font-specification:Helvetica;writing-mode:lr-tb;fill:#000;fill-opacity:1;fill-rule:nonzero;stroke:none" transform="matrix(1.33333 0 0 1.33333 47.967 97.345)"><tspan y="0" x="0 6.1167784 9.175168 15.291946">1.75</tspan></text><path style="fill:none;stroke:#000;stroke-width:5.76000023;stroke-linecap:butt;stroke-linejoin:miter;stroke-miterlimit:10;stroke-dasharray:none;stroke-opacity:1" d="M633.723 2316.72h-39.969" transform="matrix(.13333 0 0 -.13333 0 384)"/><text style="font-variant:normal;font-weight:400;font-size:11.00139999px;font-family:Helvetica;-inkscape-font-specification:Helvetica;writing-mode:lr-tb;fill:#000;fill-opacity:1;fill-rule:nonzero;stroke:none" transform="matrix(1.33333 0 0 1.33333 47.967 80.235)"><tspan y="0" x="0 6.1167784 9.175168 15.291946">2.00</tspan></text><path style="fill:none;stroke:#000;stroke-width:5.76000023;stroke-linecap:butt;stroke-linejoin:miter;stroke-miterlimit:10;stroke-dasharray:none;stroke-opacity:1" d="M633.723 2445.05h-39.969" transform="matrix(.13333 0 0 -.13333 0 384)"/><text style="font-variant:normal;font-weight:400;font-size:11.00139999px;font-family:Helvetica;-inkscape-font-specification:Helvetica;writing-mode:lr-tb;fill:#000;fill-opacity:1;fill-rule:nonzero;stroke:none" transform="matrix(1.33333 0 0 1.33333 47.967 63.124)"><tspan y="0" x="0 6.1167784 9.175168 15.291946">2.25</tspan></text><path style="fill:none;stroke:#000;stroke-width:5.76000023;stroke-linecap:butt;stroke-linejoin:miter;stroke-miterlimit:10;stroke-dasharray:none;stroke-opacity:1" d="M633.723 2573.38h-39.969" transform="matrix(.13333 0 0 -.13333 0 384)"/><text style="font-variant:normal;font-weight:400;font-size:11.00139999px;font-family:Helvetica;-inkscape-font-specification:Helvetica;writing-mode:lr-tb;fill:#000;fill-opacity:1;fill-rule:nonzero;stroke:none" transform="matrix(1.33333 0 0 1.33333 47.967 46.015)"><tspan y="0" x="0 6.1167784 9.175168 15.291946">2.50</tspan></text><text style="font-variant:normal;font-weight:400;font-size:12.00370026px;font-family:Helvetica;-inkscape-font-specification:Helvetica;writing-mode:lr-tb;fill:#000;fill-opacity:1;fill-rule:nonzero;stroke:none" transform="matrix(0 -1.33333 1.33333 0 15.015 234.79)"><tspan y="0" x="0 8.6666718 15.340729 18.677757 22.014786 30.021254 36.695312 40.692543 46.694393 53.36845 60.042507 66.044357">Net Purchase</tspan><tspan y="12.004" x="-26.0219 -22.684872 -19.347843 -15.350611 -8.6765537 -2.6747036 0.66232508 3.3271465 10.001204 16.675261 20.012289 26.686346 30.023375 33.360405 36.697433 43.37149 46.708519 53.382576 56.047398 59.384426 65.386276 72.060333 78.73439 82.731621 89.405678 95.407532">[fraction of total shares]</tspan></text><path style="fill:none;stroke:#000;stroke-width:5.76000023;stroke-linecap:butt;stroke-linejoin:miter;stroke-miterlimit:10;stroke-dasharray:none;stroke-opacity:1" d="M633.723 328.68H3951.21M842.117 328.68v-40.094" transform="matrix(.13333 0 0 -.13333 0 384)"/><text style="font-variant:normal;font-weight:400;font-size:11.00139999px;font-family:Helvetica;-inkscape-font-specification:Helvetica;writing-mode:lr-tb;fill:#000;fill-opacity:1;fill-rule:nonzero;stroke:none" transform="matrix(1.33333 0 0 1.33333 108.205 358.442)"><tspan y="0" x="0">1</tspan></text><path style="fill:none;stroke:#000;stroke-width:5.76000023;stroke-linecap:butt;stroke-linejoin:miter;stroke-miterlimit:10;stroke-dasharray:none;stroke-opacity:1" d="M1256.56 328.68v-40.094" transform="matrix(.13333 0 0 -.13333 0 384)"/><text style="font-variant:normal;font-weight:400;font-size:11.00139999px;font-family:Helvetica;-inkscape-font-specification:Helvetica;writing-mode:lr-tb;fill:#000;fill-opacity:1;fill-rule:nonzero;stroke:none" transform="matrix(1.33333 0 0 1.33333 163.464 358.442)"><tspan y="0" x="0">2</tspan></text><path style="fill:none;stroke:#000;stroke-width:5.76000023;stroke-linecap:butt;stroke-linejoin:miter;stroke-miterlimit:10;stroke-dasharray:none;stroke-opacity:1" d="M1671 328.68v-40.094" transform="matrix(.13333 0 0 -.13333 0 384)"/><text style="font-variant:normal;font-weight:400;font-size:11.00139999px;font-family:Helvetica;-inkscape-font-specification:Helvetica;writing-mode:lr-tb;fill:#000;fill-opacity:1;fill-rule:nonzero;stroke:none" transform="matrix(1.33333 0 0 1.33333 218.721 358.442)"><tspan y="0" x="0">3</tspan></text><path style="fill:none;stroke:#000;stroke-width:5.76000023;stroke-linecap:butt;stroke-linejoin:miter;stroke-miterlimit:10;stroke-dasharray:none;stroke-opacity:1" d="M2085.31 328.68v-40.094" transform="matrix(.13333 0 0 -.13333 0 384)"/><text style="font-variant:normal;font-weight:400;font-size:11.00139999px;font-family:Helvetica;-inkscape-font-specification:Helvetica;writing-mode:lr-tb;fill:#000;fill-opacity:1;fill-rule:nonzero;stroke:none" transform="matrix(1.33333 0 0 1.33333 273.964 358.442)"><tspan y="0" x="0">4</tspan></text><path style="fill:none;stroke:#000;stroke-width:5.76000023;stroke-linecap:butt;stroke-linejoin:miter;stroke-miterlimit:10;stroke-dasharray:none;stroke-opacity:1" d="M2499.75 328.68v-40.094" transform="matrix(.13333 0 0 -.13333 0 384)"/><text style="font-variant:normal;font-weight:400;font-size:11.00139999px;font-family:Helvetica;-inkscape-font-specification:Helvetica;writing-mode:lr-tb;fill:#000;fill-opacity:1;fill-rule:nonzero;stroke:none" transform="matrix(1.33333 0 0 1.33333 329.223 358.442)"><tspan y="0" x="0">5</tspan></text><path style="fill:none;stroke:#000;stroke-width:5.76000023;stroke-linecap:butt;stroke-linejoin:miter;stroke-miterlimit:10;stroke-dasharray:none;stroke-opacity:1" d="M2914.07 328.68v-40.094" transform="matrix(.13333 0 0 -.13333 0 384)"/><text style="font-variant:normal;font-weight:400;font-size:11.00139999px;font-family:Helvetica;-inkscape-font-specification:Helvetica;writing-mode:lr-tb;fill:#000;fill-opacity:1;fill-rule:nonzero;stroke:none" transform="matrix(1.33333 0 0 1.33333 384.464 358.442)"><tspan y="0" x="0">6</tspan></text><path style="fill:none;stroke:#000;stroke-width:5.76000023;stroke-linecap:butt;stroke-linejoin:miter;stroke-miterlimit:10;stroke-dasharray:none;stroke-opacity:1" d="M3328.5 328.68v-40.094" transform="matrix(.13333 0 0 -.13333 0 384)"/><text style="font-variant:normal;font-weight:400;font-size:11.00139999px;font-family:Helvetica;-inkscape-font-specification:Helvetica;writing-mode:lr-tb;fill:#000;fill-opacity:1;fill-rule:nonzero;stroke:none" transform="matrix(1.33333 0 0 1.33333 439.723 358.442)"><tspan y="0" x="0">7</tspan></text><path style="fill:none;stroke:#000;stroke-width:5.76000023;stroke-linecap:butt;stroke-linejoin:miter;stroke-miterlimit:10;stroke-dasharray:none;stroke-opacity:1" d="M3742.82 328.68v-40.094" transform="matrix(.13333 0 0 -.13333 0 384)"/><g><text style="font-variant:normal;font-weight:400;font-size:11.00139999px;font-family:Helvetica;-inkscape-font-specification:Helvetica;writing-mode:lr-tb;fill:#000;fill-opacity:1;fill-rule:nonzero;stroke:none" transform="matrix(1.33333 0 0 1.33333 494.965 358.442)"><tspan y="0" x="0">8</tspan></text><text style="font-variant:normal;font-weight:400;font-size:12.00370026px;font-family:Helvetica;-inkscape-font-specification:Helvetica;writing-mode:lr-tb;fill:#000;fill-opacity:1;fill-rule:nonzero;stroke:none" transform="matrix(1.33333 0 0 1.33333 211.159 375.387)"><tspan y="0" x="0 8.6666718 15.340729 22.014786 28.016636 31.353664 38.027721 41.36475 44.701778 52.708248 59.382305 66.056358 70.053596 73.390625 80.40078 87.735046 94.409103 98.406334 108.40542 111.74245 119.74891 126.42297 129.08778 131.75261 138.42667">Rank of Short−Term Belief</tspan></text><text style="font-variant:normal;font-weight:400;font-size:19.99799919px;font-family:Helvetica;-inkscape-font-specification:Helvetica;writing-mode:lr-tb;fill:#000;fill-opacity:1;fill-rule:nonzero;stroke:none" transform="matrix(1.33333 0 0 1.33333 283.453 22.14)"><tspan y="0" x="0 18.878113">WH</tspan></text></g></svg>