<svg xmlns="http://www.w3.org/2000/svg" height="384" width="528"><path d="M0 384h528V0H0z" fill="#eaf2f3"/><path d="M0 384h527.984V.012H0z" fill="#fff"/><path d="M0 384V.012h527.984V384H0" fill="none" stroke="#fff" stroke-width=".7679808" stroke-miterlimit="10"/><path d="M63.294 229.56h451.242V67.843H63.294z" fill="#fff"/><path d="M63.294 229.56V67.843h451.242V229.56H63.294" fill="none" stroke="#fff" stroke-width=".7679808" stroke-miterlimit="10"/><path d="M63.294 216.112h451.242M63.294 193.64h451.242M63.294 171.167h451.242M63.294 148.693h451.242M63.294 126.237h451.242M63.294 103.764h451.242M63.294 81.29h451.242" fill="none" stroke="#eaf2f3" stroke-width="1.1519712000000002" stroke-miterlimit="10"/><path d="M83.952 149.617h36.152v-.924H83.952z" fill="#1a476f"/><path d="M83.952 149.617v-.924h36.152v.924H83.952" fill="none" stroke="#1a476f" stroke-width=".159996" stroke-miterlimit="10"/><path d="M120.104 148.693h36.151V136.22h-36.151z" fill="#ffd200"/><path d="M120.104 148.693V136.22h36.15v12.474h-36.15" fill="none" stroke="#ffd200" stroke-width=".159996" stroke-miterlimit="10"/><path d="M180.477 187.98h36.152v-39.286h-36.152z" fill="#1a476f"/><path d="M180.477 187.98v-39.287h36.151v39.287h-36.15" fill="none" stroke="#1a476f" stroke-width=".159996" stroke-miterlimit="10"/><path d="M216.628 162.092h36.135v-13.398h-36.135z" fill="#ffd200"/><path d="M216.628 162.092v-13.399h36.136v13.399h-36.136" fill="none" stroke="#ffd200" stroke-width=".159996" stroke-miterlimit="10"/><path d="M325.067 178.13h36.151v-29.437h-36.151z" fill="#1a476f"/><path d="M325.067 178.13v-29.437h36.152v29.436h-36.152" fill="none" stroke="#1a476f" stroke-width=".159996" stroke-miterlimit="10"/><path d="M361.219 159.517h36.135v-10.824h-36.135z" fill="#ffd200"/><path d="M361.219 159.517v-10.824h36.134v10.824H361.22" fill="none" stroke="#ffd200" stroke-width=".159996" stroke-miterlimit="10"/><path d="M421.575 148.693h36.151v-6.138h-36.151z" fill="#1a476f"/><path d="M421.575 148.693v-6.137h36.152v6.137h-36.152" fill="none" stroke="#1a476f" stroke-width=".159996" stroke-miterlimit="10"/><path d="M457.727 148.693h36.151V93.402h-36.151z" fill="#ffd200"/><path d="M457.727 148.693v-55.29h36.152v55.29h-36.152" fill="none" stroke="#ffd200" stroke-width=".159996" stroke-miterlimit="10"/><g font-weight="400" font-family="Helvetica"><text style="-inkscape-font-specification:Helvetica" transform="matrix(1.33333 0 0 1.33333 114.072 244.179)" font-size="12.004"><tspan y="0" x="0 7.3342605">FI</tspan></text><text style="-inkscape-font-specification:Helvetica" transform="matrix(1.33333 0 0 1.33333 128.3 246.456)" font-size="6.992"><tspan y="0" x="0 5.04813">US</tspan></text><text style="-inkscape-font-specification:Helvetica" transform="matrix(1.33333 0 0 1.33333 198.74 244.179)" font-size="12.004"><tspan y="0" x="0 9.3388786">GP</tspan></text><text style="-inkscape-font-specification:Helvetica" transform="matrix(1.33333 0 0 1.33333 221.866 246.456)" font-size="6.992"><tspan y="0" x="0 5.04813">US</tspan></text><text style="-inkscape-font-specification:Helvetica" transform="matrix(1.33333 0 0 1.33333 205.889 144.007)" font-size="13.996"><tspan y="0" x="0 5.4444828 10.888966">***</tspan></text><text style="-inkscape-font-specification:Helvetica" transform="matrix(1.33333 0 0 1.33333 347.465 244.179)" font-size="12.004"><tspan y="0" x="0 7.3342605">FI</tspan></text><text style="-inkscape-font-specification:Helvetica" transform="matrix(1.33333 0 0 1.33333 361.692 246.456)" font-size="6.992"><tspan y="0" x="0 5.04813">UK</tspan></text><text style="-inkscape-font-specification:Helvetica" transform="matrix(1.33333 0 0 1.33333 357.423 144.007)" font-size="13.996"><tspan y="0" x="0">*</tspan></text><text style="-inkscape-font-specification:Helvetica" transform="matrix(1.33333 0 0 1.33333 444.87 244.179)" font-size="12.004"><tspan y="0" x="0 9.3388786">GP</tspan></text><text style="-inkscape-font-specification:Helvetica" transform="matrix(1.33333 0 0 1.33333 467.996 246.456)" font-size="6.992"><tspan y="0" x="0 5.04813">UK</tspan></text><text style="-inkscape-font-specification:Helvetica" transform="matrix(1.33333 0 0 1.33333 452.019 92.313)" font-size="13.996"><tspan y="0" x="0 5.4444828 10.888966">***</tspan></text><text style="-inkscape-font-specification:Helvetica" transform="matrix(1.33333 0 0 1.33333 206.852 266.652)" font-size="12.004"><tspan y="0" x="0 7.3342605 14.008318 18.00555 24.679607 30.681458 37.355515 43.357365 46.694393 49.359215 56.033272 62.707329 66.044357 72.046204 78.720268 85.394325 92.40448 99.078537 103.07578 109.74983 116.42389">Forecasting sub−group</tspan></text></g><path d="M63.294 229.56V67.843M63.294 216.112h-5.33" fill="none" stroke="#000" stroke-width=".7679808" stroke-miterlimit="10"/><text style="-inkscape-font-specification:Helvetica" transform="matrix(0 -1.33333 1.33333 0 51.298 223.712)" font-weight="400" font-size="9.999" font-family="Helvetica"><tspan y="0" x="0 5.839416">−3</tspan></text><path d="M63.294 193.64h-5.33" fill="none" stroke="#000" stroke-width=".7679808" stroke-miterlimit="10"/><text style="-inkscape-font-specification:Helvetica" transform="matrix(0 -1.33333 1.33333 0 51.298 201.239)" font-weight="400" font-size="9.999" font-family="Helvetica"><tspan y="0" x="0 5.839416">−2</tspan></text><path d="M63.294 171.167h-5.33" fill="none" stroke="#000" stroke-width=".7679808" stroke-miterlimit="10"/><text style="-inkscape-font-specification:Helvetica" transform="matrix(0 -1.33333 1.33333 0 51.298 178.765)" font-weight="400" font-size="9.999" font-family="Helvetica"><tspan y="0" x="0 5.839416">−1</tspan></text><path d="M63.294 148.693h-5.33" fill="none" stroke="#000" stroke-width=".7679808" stroke-miterlimit="10"/><text style="-inkscape-font-specification:Helvetica" transform="matrix(0 -1.33333 1.33333 0 51.298 152.4)" font-weight="400" font-size="9.999" font-family="Helvetica"><tspan y="0" x="0">0</tspan></text><path d="M63.294 126.237h-5.33" fill="none" stroke="#000" stroke-width=".7679808" stroke-miterlimit="10"/><text style="-inkscape-font-specification:Helvetica" transform="matrix(0 -1.33333 1.33333 0 51.298 129.943)" font-weight="400" font-size="9.999" font-family="Helvetica"><tspan y="0" x="0">1</tspan></text><path d="M63.294 103.764h-5.33" fill="none" stroke="#000" stroke-width=".7679808" stroke-miterlimit="10"/><text style="-inkscape-font-specification:Helvetica" transform="matrix(0 -1.33333 1.33333 0 51.298 107.47)" font-weight="400" font-size="9.999" font-family="Helvetica"><tspan y="0" x="0">2</tspan></text><path d="M63.294 81.29h-5.33" fill="none" stroke="#000" stroke-width=".7679808" stroke-miterlimit="10"/><text style="-inkscape-font-specification:Helvetica" transform="matrix(0 -1.33333 1.33333 0 51.298 84.997)" font-weight="400" font-size="9.999" font-family="Helvetica"><tspan y="0" x="0">3</tspan><tspan y="-19.391" x="-114.454 -108.89455 -103.89506 -101.11533 -98.895554 -90.566391 -85.006943 -82.227226 -76.667778 -71.108337 -68.328613 -59.999447 -54.440002 -48.880558 -43.321114 -40.541393 -37.761669 -32.202225 -28.872559 -23.313114 -18.313616 -12.754171 -7.7546711 -4.9749489 -2.1952269 3.364217 6.6938839 10.023551 15.582995">estimated mean forecast error</tspan></text><path d="M63.294 229.56h451.242" fill="none" stroke="#000" stroke-width=".7679808" stroke-miterlimit="10"/><text style="-inkscape-font-specification:Helvetica" transform="matrix(1.33333 0 0 1.33333 64.76 43.852)" font-weight="400" font-size="12.004" font-family="Helvetica" fill="#1e2d53"><tspan y="0" x="0 8.0064678 14.008318 17.345346 20.010168 30.009251 36.683308 40.020336 46.694393 53.36845 56.705479 60.042507 66.716568 70.713799 77.387856 83.389702 90.063759 96.065613 99.402641 102.73967 109.41373 113.41096 117.40819 124.08224 128.07948 134.08133 137.41835 144.09241 147.42944 150.76648 159.43314 167.43961 170.77664 176.77849 183.45255 190.1266 192.79143 199.46548 205.46733 208.80437 214.80621 218.14323 222.14047 228.81453 235.48859 242.16264 246.15988 252.83394 255.49875 262.17282 268.84686 272.1839 275.52094 282.19498 288.86905 292.20605 300.21252 308.21899 316.22546 322.89954 329.57358">Estimated forecast errors of US subjects regarding the S&amp;P500</tspan></text><path d="M153.087 324.484h271.656v-43.527H153.087z" fill="#fff"/><path d="M153.087 324.484v-43.527h271.656v43.527H153.087" fill="none" stroke="#000" stroke-width=".7679808" stroke-miterlimit="10"/><path d="M158.845 300.065h49.93v-13.349h-49.93z" fill="#1a476f"/><path d="M158.845 300.065v-13.349h49.93v13.349h-49.93" fill="none" stroke="#1a476f" stroke-width=".159996" stroke-miterlimit="10"/><path d="M158.845 318.726h49.93v-13.332h-49.93z" fill="#ffd200"/><path d="M158.845 318.726v-13.332h49.93v13.332h-49.93" fill="none" stroke="#ffd200" stroke-width=".159996" stroke-miterlimit="10"/><g font-weight="400" font-family="Helvetica"><text style="-inkscape-font-specification:Helvetica" transform="matrix(1.33333 0 0 1.33333 216.76 298.052)" font-size="9.999"><tspan y="0" x="0 5.559444 10.558944 13.338666 15.558444 23.887611 29.447056 32.226776 37.786221 43.345665 46.125385 48.905109 54.464554 57.79422 63.353664 68.353165 73.912605 78.912109 81.691833 84.47155 90.030998 93.360664 96.690331 102.24977 105.57944 108.35916 111.13889 116.69833 120.02799 122.80772 128.91711">estimated forecast error for FI</tspan></text><text style="-inkscape-font-specification:Helvetica" transform="matrix(1.33333 0 0 1.33333 392.35 299.949)" font-size="5.829"><tspan y="0" x="0 4.208271">US</tspan></text><text style="-inkscape-font-specification:Helvetica" transform="matrix(1.33333 0 0 1.33333 216.76 316.73)" font-size="9.999"><tspan y="0" x="0 5.559444 10.558944 13.338666 15.558444 23.887611 29.447056 32.226776 37.786221 43.345665 46.125385 48.905109 54.464554 57.79422 63.353664 68.353165 73.912605 78.912109 81.691833 84.47155 90.030998 93.360664 96.690331 102.24977 105.57944 108.35916 111.13889 116.69833 120.02799 122.80772 130.58694">estimated forecast error for GP</tspan></text><text style="-inkscape-font-specification:Helvetica" transform="matrix(1.33333 0 0 1.33333 399.763 318.627)" font-size="5.829"><tspan y="0" x="0 4.208271">US</tspan></text></g></svg>