<svg xmlns="http://www.w3.org/2000/svg" height="384" width="528"><path d="M0 384h528V0H0z" fill="#fff"/><path d="M0 384h527.984V.012H0z" fill="#fff"/><path d="M0 384V.012h527.984V384H0" fill="none" stroke="#fff" stroke-width=".7679808" stroke-miterlimit="10"/><path d="M60.539 257.56h453.997M60.539 197.385h453.997M60.539 162.19h453.997M60.539 137.21h453.997M60.539 117.855h453.997M60.539 102.015h453.997M60.539 88.633h453.997M60.539 77.05h453.997M60.539 66.82h453.997M60.539 57.68h453.997M60.539 49.396h453.997" fill="none" stroke="#d0d0d0" stroke-width=".7679808" stroke-miterlimit="10"/><path d="M68.986 254.904l7.558 1.386M79.943 256.917l.363.082M83.72 257.627l7.541 1.386M94.61 258.435l.38-.099M98.323 257.429l7.409-2.013M109.065 254.508l.363-.1M112.778 253.502l2.21-.61M114.989 252.891l5.379-.231M123.816 252.511l.38-.016M127.66 252.33l7.657-.33M138.781 251.901l.38.017M142.627 251.983l7.672.165M153.764 252.215l.379.016M157.608 252.314l3.399.066M161.007 252.38l4.257-.397M168.712 251.654l.38-.034M172.54 251.29l7.64-.742M183.628 250.235l.38-.05M187.457 250.35l7.672.346M198.593 250.845l.38.016M202.439 251.01l4.57.215M207.01 251.225l3.1.098M213.56 251.44h.379M217.404 251.555l7.672.247M228.541 251.901l.38.017M232.37 251.819l7.673-.43M243.49 251.192l.38-.034M247.319 250.96l5.709-.313M253.028 250.647l1.963-.083M258.456 250.432l.38-.016M262.3 250.3l7.657-.296M273.421 249.872l.38-.017M277.25 249.921l7.622.908M288.305 251.241l.379.05M292.116 251.686l6.913.825M299.03 252.511l.726.05M303.204 252.842l.38.033M307.032 253.155l7.656.61M318.136 254.063l.38.032M321.981 254.36l.066.016M322.047 254.376l7.557.792M333.052 255.531l.38.033M336.881 255.927l7.623.808M347.952 257.066l.38.05M351.78 257.445l7.64.76M362.852 258.55l.396.033M366.68 258.93l1.37.132M368.05 259.062l6.302.33M377.8 259.573l.38.017M381.628 259.788l7.656.396M392.75 260.448l.38.017M396.561 260.778l7.656.693M407.65 261.768l.395.033M411.477 262.115l2.591.23M414.068 262.345l5.081.116M422.615 262.527l.378.017M426.459 262.61l7.673.165M437.596 262.857l.38.016M441.424 262.956l7.69.198M452.561 263.253h.396M456.407 263.352l3.662.1M460.07 263.451h4.025M467.544 263.434h.38M471.388 263.434h7.673M482.527 263.418h.378M486.37 263.418l7.673-.033M497.508 263.385h.38M501.352 263.369l4.736-.017" fill="none" stroke="#90353b" stroke-width="1.7279568" stroke-miterlimit="10"/><path d="M66.594 257.296h4.785v-4.784h-4.785z" fill="#90353b"/><path d="M66.594 257.296v-4.785h4.785v4.785h-4.785" fill="none" stroke="#90353b" stroke-width="1.1519712000000002" stroke-miterlimit="10"/><path d="M89.595 261.537h4.785v-4.785h-4.785z" fill="#90353b"/><path d="M89.595 261.537v-4.785h4.785v4.785h-4.785" fill="none" stroke="#90353b" stroke-width="1.1519712000000002" stroke-miterlimit="10"/><path d="M112.596 255.283h4.785v-4.785h-4.785z" fill="#90353b"/><path d="M112.596 255.283V250.5h4.785v4.784h-4.785" fill="none" stroke="#90353b" stroke-width="1.1519712000000002" stroke-miterlimit="10"/><path d="M135.613 254.277h4.785v-4.785h-4.785z" fill="#90353b"/><path d="M135.613 254.277v-4.785h4.786v4.785h-4.786" fill="none" stroke="#90353b" stroke-width="1.1519712000000002" stroke-miterlimit="10"/><path d="M158.615 254.772h4.785v-4.785h-4.785z" fill="#90353b"/><path d="M158.615 254.772v-4.785h4.785v4.785h-4.785" fill="none" stroke="#90353b" stroke-width="1.1519712000000002" stroke-miterlimit="10"/><path d="M181.616 252.578h4.785v-4.785h-4.785z" fill="#90353b"/><path d="M181.616 252.578v-4.785h4.784v4.785h-4.784" fill="none" stroke="#90353b" stroke-width="1.1519712000000002" stroke-miterlimit="10"/><path d="M204.617 253.617h4.785v-4.785h-4.785z" fill="#90353b"/><path d="M204.617 253.617v-4.785h4.784v4.785h-4.784" fill="none" stroke="#90353b" stroke-width="1.1519712000000002" stroke-miterlimit="10"/><path d="M227.633 254.343h4.786v-4.785h-4.786z" fill="#90353b"/><path d="M227.633 254.343v-4.786h4.786v4.786h-4.786" fill="none" stroke="#90353b" stroke-width="1.1519712000000002" stroke-miterlimit="10"/><path d="M250.635 253.04h4.785v-4.785h-4.785z" fill="#90353b"/><path d="M250.635 253.04v-4.785h4.785v4.785h-4.785" fill="none" stroke="#90353b" stroke-width="1.1519712000000002" stroke-miterlimit="10"/><path d="M273.636 252.165h4.785v-4.785h-4.785z" fill="#90353b"/><path d="M273.636 252.165v-4.785h4.785v4.785h-4.785" fill="none" stroke="#90353b" stroke-width="1.1519712000000002" stroke-miterlimit="10"/><path d="M296.637 254.904h4.785v-4.785h-4.785z" fill="#90353b"/><path d="M296.637 254.904v-4.785h4.784v4.785h-4.784" fill="none" stroke="#90353b" stroke-width="1.1519712000000002" stroke-miterlimit="10"/><path d="M319.655 256.769h4.785v-4.786h-4.785z" fill="#90353b"/><path d="M319.655 256.769v-4.786h4.785v4.786h-4.785" fill="none" stroke="#90353b" stroke-width="1.1519712000000002" stroke-miterlimit="10"/><path d="M342.656 259.178h4.785v-4.785h-4.785z" fill="#90353b"/><path d="M342.656 259.178v-4.785h4.784v4.785h-4.784" fill="none" stroke="#90353b" stroke-width="1.1519712000000002" stroke-miterlimit="10"/><path d="M365.657 261.455h4.785v-4.786h-4.785z" fill="#90353b"/><path d="M365.657 261.455v-4.786h4.784v4.786h-4.784" fill="none" stroke="#90353b" stroke-width="1.1519712000000002" stroke-miterlimit="10"/><path d="M388.673 262.675h4.785v-4.784h-4.785z" fill="#90353b"/><path d="M388.673 262.675v-4.784h4.786v4.784h-4.786" fill="none" stroke="#90353b" stroke-width="1.1519712000000002" stroke-miterlimit="10"/><path d="M411.675 264.738h4.785v-4.785h-4.785z" fill="#90353b"/><path d="M411.675 264.738v-4.785h4.785v4.785h-4.785" fill="none" stroke="#90353b" stroke-width="1.1519712000000002" stroke-miterlimit="10"/><path d="M434.676 265.233h4.785v-4.785h-4.785z" fill="#90353b"/><path d="M434.676 265.233v-4.785h4.785v4.785h-4.785" fill="none" stroke="#90353b" stroke-width="1.1519712000000002" stroke-miterlimit="10"/><path d="M457.677 265.844h4.785v-4.786h-4.785z" fill="#90353b"/><path d="M457.677 265.844v-4.786h4.784v4.786h-4.784" fill="none" stroke="#90353b" stroke-width="1.1519712000000002" stroke-miterlimit="10"/><path d="M480.695 265.81h4.785v-4.784h-4.785z" fill="#90353b"/><path d="M480.695 265.81v-4.785h4.785v4.785h-4.785" fill="none" stroke="#90353b" stroke-width="1.1519712000000002" stroke-miterlimit="10"/><path d="M503.695 265.744h4.785v-4.785h-4.785z" fill="#90353b"/><path d="M503.695 265.744v-4.785h4.786v4.785h-4.786" fill="none" stroke="#90353b" stroke-width="1.1519712000000002" stroke-miterlimit="10"/><path d="M68.986 260.035l23.001-.511M91.987 259.524l23.002-.578M114.989 258.946l23.018-.445M138.007 258.501l23 .363M161.007 258.864l23.001-1.469M184.008 257.395l23.001-2.342M207.01 255.053l23.017.445M230.027 255.498l23.001-.082M253.028 255.416l23-2.013M276.028 253.403l23.001-1.188M299.03 252.215l23.017-1.255M322.047 250.96l23.001-2.21M345.048 248.75l23.001-.149M368.05 248.601l23.017 3.663M391.067 252.264l23.001 2.26M414.068 254.525l23.001.775M437.07 255.3l23 2.063M460.07 257.363l23.017 1.138M483.087 258.501l23.001 1.617" fill="none" stroke="#e37e00" stroke-width="1.7279568" stroke-linecap="round" stroke-miterlimit="10"/><path d="M66.346 262.675l5.28-5.28M71.627 262.675l-5.28-5.28M89.347 262.164l5.28-5.28M94.628 262.164l-5.28-5.28M112.348 261.586l5.28-5.28M117.629 261.586l-5.28-5.28M135.367 261.141l5.278-5.28M140.645 261.141l-5.278-5.28M158.367 261.504l5.28-5.28M163.647 261.504l-5.28-5.28M181.368 260.035l5.28-5.28M186.648 260.035l-5.28-5.28M204.37 257.693l5.28-5.28M209.65 257.693l-5.28-5.28M227.387 258.138l5.28-5.28M232.667 258.138l-5.28-5.28M250.388 258.056l5.28-5.28M255.668 258.056l-5.28-5.28M273.388 256.043l5.281-5.28M278.67 256.043l-5.282-5.28M296.39 254.855l5.28-5.28M301.67 254.855l-5.28-5.28M319.407 253.6l5.28-5.28M324.687 253.6l-5.28-5.28M342.408 251.39l5.28-5.28M347.688 251.39l-5.28-5.28M365.41 251.241l5.28-5.28M370.69 251.241l-5.28-5.28M388.427 254.904l5.28-5.28M393.707 254.904l-5.28-5.28M411.428 257.165l5.279-5.28M416.707 257.165l-5.279-5.28M434.428 257.94l5.28-5.28M439.708 257.94l-5.28-5.28M457.43 260.003l5.28-5.28M462.71 260.003l-5.28-5.28M480.447 261.141l5.28-5.28M485.727 261.141l-5.28-5.28M503.448 262.758l5.28-5.28M508.728 262.758l-5.28-5.28" fill="none" stroke="#e37e00" stroke-width="1.1519712000000002" stroke-linecap="round" stroke-miterlimit="10"/><path d="M68.986 263.55h23.001M91.987 263.55h23.002M114.989 263.55h23.018M138.007 263.55h23M161.007 263.55h23.001M184.008 263.55h23.001M207.01 263.55h23.017M230.027 263.55h23.001M253.028 263.55h23M276.028 263.55h23.001M299.03 263.55h23.017M322.047 263.55h23.001M345.048 263.55h23.001M368.05 263.55h23.017M391.067 263.55h23.001M414.068 263.55h23.001M437.07 263.55h23M460.07 263.55h23.017M483.087 263.55h23.001" fill="none" stroke="#000" stroke-width="1.7279568" stroke-linecap="round" stroke-miterlimit="10"/><path d="M60.539 281.832V39.397M60.539 257.56h-5.33" fill="none" stroke="#000" stroke-width=".7679808" stroke-miterlimit="10"/><text style="-inkscape-font-specification:Helvetica" transform="matrix(1.33333 0 0 1.33333 40.684 261.29)" font-weight="400" font-size="7.994" font-family="Helvetica"><tspan y="0" x="0 4.4448032">30</tspan></text><path d="M60.539 197.385h-5.33" fill="none" stroke="#000" stroke-width=".7679808" stroke-miterlimit="10"/><text style="-inkscape-font-specification:Helvetica" transform="matrix(1.33333 0 0 1.33333 40.684 201.115)" font-weight="400" font-size="7.994" font-family="Helvetica"><tspan y="0" x="0 4.4448032">60</tspan></text><path d="M60.539 162.19h-5.33" fill="none" stroke="#000" stroke-width=".7679808" stroke-miterlimit="10"/><text style="-inkscape-font-specification:Helvetica" transform="matrix(1.33333 0 0 1.33333 40.684 165.919)" font-weight="400" font-size="7.994" font-family="Helvetica"><tspan y="0" x="0 4.4448032">90</tspan></text><path d="M60.539 137.21h-5.33" fill="none" stroke="#000" stroke-width=".7679808" stroke-miterlimit="10"/><text style="-inkscape-font-specification:Helvetica" transform="matrix(1.33333 0 0 1.33333 34.758 140.939)" font-weight="400" font-size="7.994" font-family="Helvetica"><tspan y="0" x="0 4.4448032 8.8896065">120</tspan></text><path d="M60.539 117.855h-5.33" fill="none" stroke="#000" stroke-width=".7679808" stroke-miterlimit="10"/><text style="-inkscape-font-specification:Helvetica" transform="matrix(1.33333 0 0 1.33333 34.758 121.584)" font-weight="400" font-size="7.994" font-family="Helvetica"><tspan y="0" x="0 4.4448032 8.8896065">150</tspan></text><path d="M60.539 102.015h-5.33" fill="none" stroke="#000" stroke-width=".7679808" stroke-miterlimit="10"/><text style="-inkscape-font-specification:Helvetica" transform="matrix(1.33333 0 0 1.33333 34.758 105.744)" font-weight="400" font-size="7.994" font-family="Helvetica"><tspan y="0" x="0 4.4448032 8.8896065">180</tspan></text><path d="M60.539 88.633h-5.33" fill="none" stroke="#000" stroke-width=".7679808" stroke-miterlimit="10"/><text style="-inkscape-font-specification:Helvetica" transform="matrix(1.33333 0 0 1.33333 34.758 92.363)" font-weight="400" font-size="7.994" font-family="Helvetica"><tspan y="0" x="0 4.4448032 8.8896065">210</tspan></text><path d="M60.539 77.05h-5.33" fill="none" stroke="#000" stroke-width=".7679808" stroke-miterlimit="10"/><text style="-inkscape-font-specification:Helvetica" transform="matrix(1.33333 0 0 1.33333 34.758 80.78)" font-weight="400" font-size="7.994" font-family="Helvetica"><tspan y="0" x="0 4.4448032 8.8896065">240</tspan></text><path d="M60.539 66.82h-5.33" fill="none" stroke="#000" stroke-width=".7679808" stroke-miterlimit="10"/><text style="-inkscape-font-specification:Helvetica" transform="matrix(1.33333 0 0 1.33333 34.758 70.55)" font-weight="400" font-size="7.994" font-family="Helvetica"><tspan y="0" x="0 4.4448032 8.8896065">270</tspan></text><path d="M60.539 57.68h-5.33" fill="none" stroke="#000" stroke-width=".7679808" stroke-miterlimit="10"/><text style="-inkscape-font-specification:Helvetica" transform="matrix(1.33333 0 0 1.33333 34.758 61.408)" font-weight="400" font-size="7.994" font-family="Helvetica"><tspan y="0" x="0 4.4448032 8.8896065">300</tspan></text><path d="M60.539 49.396h-5.33" fill="none" stroke="#000" stroke-width=".7679808" stroke-miterlimit="10"/><g font-weight="400" font-family="Helvetica"><text style="-inkscape-font-specification:Helvetica" transform="matrix(1.33333 0 0 1.33333 34.758 53.125)" font-size="7.994"><tspan y="0" x="0 4.4448032 8.8896065">330</tspan></text><text style="-inkscape-font-specification:Helvetica" transform="matrix(0 -1.33333 1.33333 0 25.443 259.513)" font-size="9.999"><tspan y="0" x="0 8.3291674 13.888611 19.448055 25.0075 27.787222 30.566942 33.89661 39.456055 45.015499 47.795219 56.124386 61.68383 67.243279 70.022995 72.802719 78.36216 81.691833 83.911606 88.91111 94.470551 99.470055 102.24977 105.57944 107.79922 113.35867 118.91811 121.69783 126.69733 131.69682 137.25627 139.47604 145.03549">Mean treatment prices (log scale)</tspan></text></g><path d="M60.539 281.832h453.997M91.987 281.832v5.33" fill="none" stroke="#000" stroke-width=".7679808" stroke-miterlimit="10"/><text style="-inkscape-font-specification:Helvetica" transform="matrix(1.33333 0 0 1.33333 89.025 297.293)" font-weight="400" font-size="7.994" font-family="Helvetica"><tspan y="0" x="0">2</tspan></text><path d="M138.007 281.832v5.33" fill="none" stroke="#000" stroke-width=".7679808" stroke-miterlimit="10"/><text style="-inkscape-font-specification:Helvetica" transform="matrix(1.33333 0 0 1.33333 135.043 297.293)" font-weight="400" font-size="7.994" font-family="Helvetica"><tspan y="0" x="0">4</tspan></text><path d="M184.024 281.832v5.33" fill="none" stroke="#000" stroke-width=".7679808" stroke-miterlimit="10"/><text style="-inkscape-font-specification:Helvetica" transform="matrix(1.33333 0 0 1.33333 181.061 297.293)" font-weight="400" font-size="7.994" font-family="Helvetica"><tspan y="0" x="0">6</tspan></text><path d="M230.027 281.832v5.33" fill="none" stroke="#000" stroke-width=".7679808" stroke-miterlimit="10"/><text style="-inkscape-font-specification:Helvetica" transform="matrix(1.33333 0 0 1.33333 227.064 297.293)" font-weight="400" font-size="7.994" font-family="Helvetica"><tspan y="0" x="0">8</tspan></text><path d="M276.045 281.832v5.33" fill="none" stroke="#000" stroke-width=".7679808" stroke-miterlimit="10"/><text style="-inkscape-font-specification:Helvetica" transform="matrix(1.33333 0 0 1.33333 270.119 297.293)" font-weight="400" font-size="7.994" font-family="Helvetica"><tspan y="0" x="0 4.4448032">10</tspan></text><path d="M322.047 281.832v5.33" fill="none" stroke="#000" stroke-width=".7679808" stroke-miterlimit="10"/><text style="-inkscape-font-specification:Helvetica" transform="matrix(1.33333 0 0 1.33333 316.121 297.293)" font-weight="400" font-size="7.994" font-family="Helvetica"><tspan y="0" x="0 4.4448032">12</tspan></text><path d="M368.065 281.832v5.33" fill="none" stroke="#000" stroke-width=".7679808" stroke-miterlimit="10"/><text style="-inkscape-font-specification:Helvetica" transform="matrix(1.33333 0 0 1.33333 362.14 297.293)" font-weight="400" font-size="7.994" font-family="Helvetica"><tspan y="0" x="0 4.4448032">14</tspan></text><path d="M414.068 281.832v5.33" fill="none" stroke="#000" stroke-width=".7679808" stroke-miterlimit="10"/><text style="-inkscape-font-specification:Helvetica" transform="matrix(1.33333 0 0 1.33333 408.141 297.293)" font-weight="400" font-size="7.994" font-family="Helvetica"><tspan y="0" x="0 4.4448032">16</tspan></text><path d="M460.085 281.832v5.33" fill="none" stroke="#000" stroke-width=".7679808" stroke-miterlimit="10"/><text style="-inkscape-font-specification:Helvetica" transform="matrix(1.33333 0 0 1.33333 454.16 297.293)" font-weight="400" font-size="7.994" font-family="Helvetica"><tspan y="0" x="0 4.4448032">18</tspan></text><path d="M506.088 281.832v5.33" fill="none" stroke="#000" stroke-width=".7679808" stroke-miterlimit="10"/><g font-weight="400" font-family="Helvetica"><text style="-inkscape-font-specification:Helvetica" transform="matrix(1.33333 0 0 1.33333 500.161 297.293)" font-size="7.994"><tspan y="0" x="0 4.4448032">20</tspan></text><text style="-inkscape-font-specification:Helvetica" transform="matrix(1.33333 0 0 1.33333 268.28 311.169)" font-size="9.999"><tspan y="0" x="0 6.669333 12.228777 15.558444 17.778221 23.337666">Period</tspan></text></g><path d="M126.654 365.949h321.767v-43.51H126.654z" fill="#fff"/><path d="M126.654 365.949v-43.51H448.42v43.51H126.654" fill="none" stroke="#000" stroke-width=".7679808" stroke-miterlimit="10"/><text style="-inkscape-font-specification:Helvetica" transform="matrix(1.33333 0 0 1.33333 299.59 339.532)" font-weight="400" font-size="9.999" font-family="Helvetica"><tspan y="0" x="0 6.669333 13.888611 21.667833 28.887112">SHORT</tspan><tspan y="13.996" x="-81.935204 -76.375755 -68.596535 93.889214 99.998604">LOWFV</tspan></text><path d="M241.676 334.863h49.912" fill="none" stroke="#e37e00" stroke-width="1.7279568" stroke-miterlimit="10"/><path d="M263.984 337.503l5.28-5.28M269.264 337.503l-5.28-5.28" fill="none" stroke="#e37e00" stroke-width="1.1519712000000002" stroke-linecap="round" stroke-miterlimit="10"/><path d="M132.413 353.525h7.672M143.55 353.525h.38M147.395 353.525h7.672M158.532 353.525h.38M162.376 353.525h7.673M173.515 353.525h.378M177.359 353.525h4.982" fill="none" stroke="#90353b" stroke-width="1.7279568" stroke-miterlimit="10"/><path d="M154.984 355.917h4.785v-4.785h-4.785z" fill="#90353b"/><path d="M154.984 355.917v-4.785h4.785v4.785h-4.785" fill="none" stroke="#90353b" stroke-width="1.1519712000000002" stroke-miterlimit="10"/><path d="M366.861 353.525h49.912" fill="none" stroke="#000" stroke-width="1.7279568" stroke-miterlimit="10"/><text style="-inkscape-font-specification:Helvetica" transform="matrix(1.33333 0 0 1.33333 257.912 30.685)" font-weight="400" font-size="16.001" font-family="Helvetica"><tspan y="0" x="0 10.672601 22.22525 34.67395">PROF</tspan></text></svg>