<?xml version="1.0" encoding="UTF-8" standalone="no"?>
<svg
   xmlns:dc="http://purl.org/dc/elements/1.1/"
   xmlns:cc="http://creativecommons.org/ns#"
   xmlns:rdf="http://www.w3.org/1999/02/22-rdf-syntax-ns#"
   xmlns:svg="http://www.w3.org/2000/svg"
   xmlns="http://www.w3.org/2000/svg"
   version="1.1"
   id="svg2"
   xml:space="preserve"
   width="757.43079"
   height="285.80362"
   viewBox="0 0 757.43079 285.80362"><metadata
     id="metadata8"><rdf:RDF><cc:Work
         rdf:about=""><dc:format>image/svg+xml</dc:format><dc:type
           rdf:resource="http://purl.org/dc/dcmitype/StillImage" /></cc:Work></rdf:RDF></metadata><defs
     id="defs6"><clipPath
       clipPathUnits="userSpaceOnUse"
       id="clipPath18"><path
         d="M 0,0 H 612 V 232 H 0 Z"
         id="path16" /></clipPath><clipPath
       clipPathUnits="userSpaceOnUse"
       id="clipPath30"><path
         d="M 0,0 H 612 V 232 H 0 Z"
         id="path28" /></clipPath><clipPath
       clipPathUnits="userSpaceOnUse"
       id="clipPath40"><path
         d="M 0,0.615 H 611.386 V 232 H 0 Z"
         id="path38" /></clipPath><clipPath
       clipPathUnits="userSpaceOnUse"
       id="clipPath52"><path
         d="M 102,19.692 H 592.337 V 188.923 H 102 Z"
         id="path50" /></clipPath><clipPath
       clipPathUnits="userSpaceOnUse"
       id="clipPath64"><path
         d="M 102,19.692 H 592.337 V 188.923 H 102 Z"
         id="path62" /></clipPath><clipPath
       clipPathUnits="userSpaceOnUse"
       id="clipPath76"><path
         d="M 102,19.692 H 592.337 V 188.923 H 102 Z"
         id="path74" /></clipPath><clipPath
       clipPathUnits="userSpaceOnUse"
       id="clipPath88"><path
         d="M 102,19.692 H 592.337 V 188.923 H 102 Z"
         id="path86" /></clipPath><clipPath
       clipPathUnits="userSpaceOnUse"
       id="clipPath100"><path
         d="M 0,0.615 H 611.386 V 232 H 0 Z"
         id="path98" /></clipPath><clipPath
       clipPathUnits="userSpaceOnUse"
       id="clipPath112"><path
         d="M 0,0.615 H 611.386 V 232 H 0 Z"
         id="path110" /></clipPath><clipPath
       clipPathUnits="userSpaceOnUse"
       id="clipPath122"><path
         d="M 0,0.615 H 611.386 V 232 H 0 Z"
         id="path120" /></clipPath><clipPath
       clipPathUnits="userSpaceOnUse"
       id="clipPath134"><path
         d="M 0,0.615 H 611.386 V 232 H 0 Z"
         id="path132" /></clipPath><clipPath
       clipPathUnits="userSpaceOnUse"
       id="clipPath144"><path
         d="M 0,0.615 H 611.386 V 232 H 0 Z"
         id="path142" /></clipPath><clipPath
       clipPathUnits="userSpaceOnUse"
       id="clipPath156"><path
         d="M 0,0.615 H 611.386 V 232 H 0 Z"
         id="path154" /></clipPath><clipPath
       clipPathUnits="userSpaceOnUse"
       id="clipPath166"><path
         d="M 0,0.615 H 611.386 V 232 H 0 Z"
         id="path164" /></clipPath><clipPath
       clipPathUnits="userSpaceOnUse"
       id="clipPath178"><path
         d="M 0,0.615 H 611.386 V 232 H 0 Z"
         id="path176" /></clipPath><clipPath
       clipPathUnits="userSpaceOnUse"
       id="clipPath188"><path
         d="M 0,0.615 H 611.386 V 232 H 0 Z"
         id="path186" /></clipPath><clipPath
       clipPathUnits="userSpaceOnUse"
       id="clipPath200"><path
         d="M 0,0.615 H 611.386 V 232 H 0 Z"
         id="path198" /></clipPath><clipPath
       clipPathUnits="userSpaceOnUse"
       id="clipPath210"><path
         d="M 0,0.615 H 611.386 V 232 H 0 Z"
         id="path208" /></clipPath><clipPath
       clipPathUnits="userSpaceOnUse"
       id="clipPath222"><path
         d="M 0,0.615 H 611.386 V 232 H 0 Z"
         id="path220" /></clipPath><clipPath
       clipPathUnits="userSpaceOnUse"
       id="clipPath232"><path
         d="M 0,0.615 H 611.386 V 232 H 0 Z"
         id="path230" /></clipPath><clipPath
       clipPathUnits="userSpaceOnUse"
       id="clipPath244"><path
         d="M 0,0.615 H 611.386 V 232 H 0 Z"
         id="path242" /></clipPath><clipPath
       clipPathUnits="userSpaceOnUse"
       id="clipPath254"><path
         d="M 0,0.615 H 611.386 V 232 H 0 Z"
         id="path252" /></clipPath><clipPath
       clipPathUnits="userSpaceOnUse"
       id="clipPath266"><path
         d="M 0,0.615 H 611.386 V 232 H 0 Z"
         id="path264" /></clipPath><clipPath
       clipPathUnits="userSpaceOnUse"
       id="clipPath276"><path
         d="M 0,0.615 H 611.386 V 232 H 0 Z"
         id="path274" /></clipPath><clipPath
       clipPathUnits="userSpaceOnUse"
       id="clipPath288"><path
         d="M 0,0.615 H 611.386 V 232 H 0 Z"
         id="path286" /></clipPath><clipPath
       clipPathUnits="userSpaceOnUse"
       id="clipPath298"><path
         d="M 0,0.615 H 611.386 V 232 H 0 Z"
         id="path296" /></clipPath><clipPath
       clipPathUnits="userSpaceOnUse"
       id="clipPath310"><path
         d="M 0,0.615 H 611.386 V 232 H 0 Z"
         id="path308" /></clipPath><clipPath
       clipPathUnits="userSpaceOnUse"
       id="clipPath320"><path
         d="M 0,0.615 H 611.386 V 232 H 0 Z"
         id="path318" /></clipPath><clipPath
       clipPathUnits="userSpaceOnUse"
       id="clipPath332"><path
         d="M 0,0.615 H 611.386 V 232 H 0 Z"
         id="path330" /></clipPath><clipPath
       clipPathUnits="userSpaceOnUse"
       id="clipPath342"><path
         d="M 0,0.615 H 611.386 V 232 H 0 Z"
         id="path340" /></clipPath><clipPath
       clipPathUnits="userSpaceOnUse"
       id="clipPath354"><path
         d="M 0,0.615 H 611.386 V 232 H 0 Z"
         id="path352" /></clipPath><clipPath
       clipPathUnits="userSpaceOnUse"
       id="clipPath364"><path
         d="M 0,0.615 H 611.386 V 232 H 0 Z"
         id="path362" /></clipPath><clipPath
       clipPathUnits="userSpaceOnUse"
       id="clipPath376"><path
         d="M 0,0.615 H 611.386 V 232 H 0 Z"
         id="path374" /></clipPath><clipPath
       clipPathUnits="userSpaceOnUse"
       id="clipPath388"><path
         d="M 0,0.615 H 611.386 V 232 H 0 Z"
         id="path386" /></clipPath><clipPath
       clipPathUnits="userSpaceOnUse"
       id="clipPath400"><path
         d="M 0,0.615 H 611.386 V 232 H 0 Z"
         id="path398" /></clipPath><clipPath
       clipPathUnits="userSpaceOnUse"
       id="clipPath412"><path
         d="M 0,0.615 H 611.386 V 232 H 0 Z"
         id="path410" /></clipPath><clipPath
       clipPathUnits="userSpaceOnUse"
       id="clipPath424"><path
         d="M 0,0.615 H 611.386 V 232 H 0 Z"
         id="path422" /></clipPath><clipPath
       clipPathUnits="userSpaceOnUse"
       id="clipPath436"><path
         d="M 0,0.615 H 611.386 V 232 H 0 Z"
         id="path434" /></clipPath><clipPath
       clipPathUnits="userSpaceOnUse"
       id="clipPath448"><path
         d="M 0,0.615 H 611.386 V 232 H 0 Z"
         id="path446" /></clipPath><clipPath
       clipPathUnits="userSpaceOnUse"
       id="clipPath460"><path
         d="M 0,0.615 H 611.386 V 232 H 0 Z"
         id="path458" /></clipPath><clipPath
       clipPathUnits="userSpaceOnUse"
       id="clipPath472"><path
         d="M 0,0.615 H 611.386 V 232 H 0 Z"
         id="path470" /></clipPath><clipPath
       clipPathUnits="userSpaceOnUse"
       id="clipPath484"><path
         d="M 0,0.615 H 611.386 V 232 H 0 Z"
         id="path482" /></clipPath><clipPath
       clipPathUnits="userSpaceOnUse"
       id="clipPath496"><path
         d="M 0,0.615 H 611.386 V 232 H 0 Z"
         id="path494" /></clipPath><clipPath
       clipPathUnits="userSpaceOnUse"
       id="clipPath508"><path
         d="M 0,0.615 H 611.386 V 232 H 0 Z"
         id="path506" /></clipPath><clipPath
       clipPathUnits="userSpaceOnUse"
       id="clipPath528"><path
         d="M 0,0.615 H 611.386 V 232 H 0 Z"
         id="path526" /></clipPath><clipPath
       clipPathUnits="userSpaceOnUse"
       id="clipPath544"><path
         d="M 0,0.615 H 611.386 V 232 H 0 Z"
         id="path542" /></clipPath><clipPath
       clipPathUnits="userSpaceOnUse"
       id="clipPath560"><path
         d="M 0,0.615 H 611.386 V 232 H 0 Z"
         id="path558" /></clipPath><clipPath
       clipPathUnits="userSpaceOnUse"
       id="clipPath570"><path
         d="M 0,0.615 H 611.386 V 232 H 0 Z"
         id="path568" /></clipPath><clipPath
       clipPathUnits="userSpaceOnUse"
       id="clipPath582"><path
         d="M 0,0.615 H 611.386 V 232 H 0 Z"
         id="path580" /></clipPath><clipPath
       clipPathUnits="userSpaceOnUse"
       id="clipPath592"><path
         d="M 0,0.615 H 611.386 V 232 H 0 Z"
         id="path590" /></clipPath><clipPath
       clipPathUnits="userSpaceOnUse"
       id="clipPath604"><path
         d="M 0,0.615 H 611.386 V 232 H 0 Z"
         id="path602" /></clipPath><clipPath
       clipPathUnits="userSpaceOnUse"
       id="clipPath614"><path
         d="M 0,0.615 H 611.386 V 232 H 0 Z"
         id="path612" /></clipPath><clipPath
       clipPathUnits="userSpaceOnUse"
       id="clipPath626"><path
         d="M 0,0.615 H 611.386 V 232 H 0 Z"
         id="path624" /></clipPath><clipPath
       clipPathUnits="userSpaceOnUse"
       id="clipPath636"><path
         d="M 0,0.615 H 611.386 V 232 H 0 Z"
         id="path634" /></clipPath></defs><g
     id="g10"
     transform="matrix(1.3333333,0,0,-1.3333333,-53.5252,289.13467)"><g
       id="g12"><g
         id="g14"
         clip-path="url(#clipPath18)"><g
           id="g20"
           transform="translate(0,232)"><path
             d="M 0,0 H 612 V -232 H 0 Z"
             style="fill:#ffffff;fill-opacity:1;fill-rule:nonzero;stroke:none"
             id="path22" /></g></g></g><g
       id="g24"><g
         id="g26"
         clip-path="url(#clipPath30)"><path
           d="M 0.307,0.308 H 612 V 231.693 H 0.307 Z"
           style="fill:#ffffff;fill-opacity:1;fill-rule:nonzero;stroke:none"
           id="path32" /></g></g><g
       id="g34"><g
         id="g36"
         clip-path="url(#clipPath40)"><g
           id="g42"
           transform="matrix(4.84e-5,0,0,-4.85e-5,151.48156,188.6154)"><path
             d="M 0,0 V 3479800 M 1009650,0 V 3479800 M 2025650,0 V 3479800 M 3035300,0 V 3479800 M 4051300,0 V 3479800 M 5060950,0 V 3479800 M 6076950,0 V 3479800 M 7086600,0 V 3479800 M 8096250,0 V 3479800 M 9112250,0 v 3479800"
             style="fill:none;stroke:#d9d9d9;stroke-width:9525;stroke-linecap:butt;stroke-linejoin:round;stroke-miterlimit:10;stroke-dasharray:none;stroke-opacity:1"
             id="path44" /></g></g></g><g
       id="g46"><g
         id="g48"
         clip-path="url(#clipPath52)"><g
           id="g54"
           transform="translate(142.8614,29.5385)"><path
             d="M 0,0 H -40.247 V 36.923 H 0 Z M 123.199,56.308 H -40.247 v 36.615 h 163.446 z m 16.59,56.307 H -40.247 v 36.616 h 180.036 z"
             style="fill:#ff0000;fill-opacity:1;fill-rule:nonzero;stroke:none"
             id="path56" /></g></g></g><g
       id="g58"><g
         id="g60"
         clip-path="url(#clipPath64)"><g
           id="g66"
           transform="translate(160.0663,29.5385)"><path
             d="M 0,0 H -17.205 V 36.923 H 0 Z m 129.651,56.308 h -23.657 v 36.615 h 23.657 z m 17.819,56.307 h -24.886 v 36.616 h 24.886 z"
             style="fill:#ff7011;fill-opacity:1;fill-rule:nonzero;stroke:none"
             id="path68" /></g></g></g><g
       id="g70"><g
         id="g72"
         clip-path="url(#clipPath76)"><g
           id="g78"
           transform="translate(282.9578,29.5385)"><path
             d="M 0,0 H -122.891 V 36.923 H 0 Z M 93.705,56.308 H 6.759 v 36.615 h 86.946 z m 14.44,56.307 H 24.578 v 36.616 h 83.567 z"
             style="fill:#8faadc;fill-opacity:1;fill-rule:nonzero;stroke:none"
             id="path80" /></g></g></g><g
       id="g82"><g
         id="g84"
         clip-path="url(#clipPath88)"><g
           id="g90"
           transform="translate(592.3374,29.5385)"><path
             d="M 0,0 H -309.38 V 36.923 H 0 Z M 0,56.308 H -215.675 V 92.923 H 0 Z m 0,56.307 h -201.235 v 36.616 H 0 Z"
             style="fill:#2f5597;fill-opacity:1;fill-rule:nonzero;stroke:none"
             id="path92" /></g></g></g><g
       id="g94"><g
         id="g96"
         clip-path="url(#clipPath100)"><g
           id="g102"
           transform="matrix(4.84e-5,0,0,4.85e-5,102.6145,19.99999)"><path
             d="M 0,0 1,3479800"
             style="fill:none;stroke:#d9d9d9;stroke-width:9525;stroke-linecap:butt;stroke-linejoin:round;stroke-miterlimit:10;stroke-dasharray:none;stroke-opacity:1"
             id="path104" /></g></g></g><g
       id="g106"><g
         id="g108"
         clip-path="url(#clipPath112)"><path
           d="m 110.91,40.923 h 23.349 V 54.769 H 110.91 Z"
           style="fill:#ffffff;fill-opacity:1;fill-rule:nonzero;stroke:none"
           id="path114" /></g></g><g
       id="g116"><g
         id="g118"
         clip-path="url(#clipPath122)"><text
           transform="matrix(0.99848673,0,0,-1,112.7748,44.6154)"
           style="font-variant:normal;font-weight:bold;font-size:9.8462px;font-family:Calibri;-inkscape-font-specification:Calibri-Bold;writing-mode:lr-tb;fill:#000000;fill-opacity:1;fill-rule:nonzero;stroke:none"
           id="text126"><tspan
             x="0 4.9910388 7.6189895 12.610028"
             y="0"
             id="tspan124">8.2%</tspan></text></g></g><g
       id="g128"><g
         id="g130"
         clip-path="url(#clipPath134)"><path
           d="m 170.205,97.231 h 28.265 v 13.846 h -28.265 z"
           style="fill:#ffffff;fill-opacity:1;fill-rule:nonzero;stroke:none"
           id="path136" /></g></g><g
       id="g138"><g
         id="g140"
         clip-path="url(#clipPath144)"><text
           transform="matrix(0.99848673,0,0,-1,171.8978,100.9231)"
           style="font-variant:normal;font-weight:bold;font-size:9.8462px;font-family:Calibri;-inkscape-font-specification:Calibri-Bold;writing-mode:lr-tb;fill:#000000;fill-opacity:1;fill-rule:nonzero;stroke:none"
           id="text148"><tspan
             x="0 4.9910388 9.9820776 12.610028 17.601067"
             y="0"
             id="tspan146">33.4%</tspan></text></g></g><g
       id="g150"><g
         id="g152"
         clip-path="url(#clipPath156)"><path
           d="m 178.5,153.538 h 28.265 v 13.846 H 178.5 Z"
           style="fill:#ffffff;fill-opacity:1;fill-rule:nonzero;stroke:none"
           id="path158" /></g></g><g
       id="g160"><g
         id="g162"
         clip-path="url(#clipPath166)"><text
           transform="matrix(0.99848673,0,0,-1,180.1909,157.2308)"
           style="font-variant:normal;font-weight:bold;font-size:9.8462px;font-family:Calibri;-inkscape-font-specification:Calibri-Bold;writing-mode:lr-tb;fill:#000000;fill-opacity:1;fill-rule:nonzero;stroke:none"
           id="text170"><tspan
             x="0 4.9910388 9.9820776 12.610028 17.601067"
             y="0"
             id="tspan168">36.8%</tspan></text></g></g><g
       id="g172"><g
         id="g174"
         clip-path="url(#clipPath178)"><path
           d="m 139.789,40.923 h 23.349 v 13.846 h -23.349 z"
           style="fill:#ffffff;fill-opacity:1;fill-rule:nonzero;stroke:none"
           id="path180" /></g></g><g
       id="g182"><g
         id="g184"
         clip-path="url(#clipPath188)"><text
           transform="matrix(0.99848673,0,0,-1,141.6233,44.6154)"
           style="font-variant:normal;font-weight:bold;font-size:9.8462px;font-family:Calibri;-inkscape-font-specification:Calibri-Bold;writing-mode:lr-tb;fill:#000000;fill-opacity:1;fill-rule:nonzero;stroke:none"
           id="text192"><tspan
             x="0 4.9910388 7.6189895 12.610028"
             y="0"
             id="tspan190">3.5%</tspan></text></g></g><g
       id="g194"><g
         id="g196"
         clip-path="url(#clipPath200)"><path
           d="m 266.06,97.231 h 23.657 v 13.846 H 266.06 Z"
           style="fill:#ffffff;fill-opacity:1;fill-rule:nonzero;stroke:none"
           id="path202" /></g></g><g
       id="g204"><g
         id="g206"
         clip-path="url(#clipPath210)"><text
           transform="matrix(0.99848673,0,0,-1,268.0369,100.9231)"
           style="font-variant:normal;font-weight:bold;font-size:9.8462px;font-family:Calibri;-inkscape-font-specification:Calibri-Bold;writing-mode:lr-tb;fill:#000000;fill-opacity:1;fill-rule:nonzero;stroke:none"
           id="text214"><tspan
             x="0 4.9910388 7.6189895 12.610028"
             y="0"
             id="tspan212">4.8%</tspan></text></g></g><g
       id="g216"><g
         id="g218"
         clip-path="url(#clipPath222)"><path
           d="m 283.265,153.538 h 23.657 v 13.846 h -23.657 z"
           style="fill:#ffffff;fill-opacity:1;fill-rule:nonzero;stroke:none"
           id="path224" /></g></g><g
       id="g226"><g
         id="g228"
         clip-path="url(#clipPath232)"><text
           transform="matrix(0.99848673,0,0,-1,285.1763,157.2308)"
           style="font-variant:normal;font-weight:bold;font-size:9.8462px;font-family:Calibri;-inkscape-font-specification:Calibri-Bold;writing-mode:lr-tb;fill:#000000;fill-opacity:1;fill-rule:nonzero;stroke:none"
           id="text236"><tspan
             x="0 4.9910388 7.6189895 12.610028"
             y="0"
             id="tspan234">5.1%</tspan></text></g></g><g
       id="g238"><g
         id="g240"
         clip-path="url(#clipPath244)"><path
           d="m 207.38,40.923 h 28.572 V 54.769 H 207.38 Z"
           style="fill:#ffffff;fill-opacity:1;fill-rule:nonzero;stroke:none"
           id="path246" /></g></g><g
       id="g248"><g
         id="g250"
         clip-path="url(#clipPath254)"><text
           transform="matrix(0.99848673,0,0,-1,209.2171,44.6154)"
           style="font-variant:normal;font-weight:bold;font-size:9.8462px;font-family:Calibri;-inkscape-font-specification:Calibri-Bold;writing-mode:lr-tb;fill:#000000;fill-opacity:1;fill-rule:nonzero;stroke:none"
           id="text258"><tspan
             x="0 4.9910388 9.9820776 12.610028 17.601067"
             y="0"
             id="tspan256">25.1%</tspan></text></g></g><g
       id="g260"><g
         id="g262"
         clip-path="url(#clipPath266)"><path
           d="m 318.904,97.231 h 28.572 v 13.846 h -28.572 z"
           style="fill:#ffffff;fill-opacity:1;fill-rule:nonzero;stroke:none"
           id="path268" /></g></g><g
       id="g270"><g
         id="g272"
         clip-path="url(#clipPath276)"><text
           transform="matrix(0.99848673,0,0,-1,320.7922,100.9231)"
           style="font-variant:normal;font-weight:bold;font-size:9.8462px;font-family:Calibri;-inkscape-font-specification:Calibri-Bold;writing-mode:lr-tb;fill:#000000;fill-opacity:1;fill-rule:nonzero;stroke:none"
           id="text280"><tspan
             x="0 4.9910388 9.9820776 12.610028 17.601067"
             y="0"
             id="tspan278">17.7%</tspan></text></g></g><g
       id="g282"><g
         id="g284"
         clip-path="url(#clipPath288)"><path
           d="m 335.187,153.538 h 28.265 v 13.846 h -28.265 z"
           style="fill:#ffffff;fill-opacity:1;fill-rule:nonzero;stroke:none"
           id="path290" /></g></g><g
       id="g292"><g
         id="g294"
         clip-path="url(#clipPath298)"><text
           transform="matrix(0.99848673,0,0,-1,336.888,157.2308)"
           style="font-variant:normal;font-weight:bold;font-size:9.8462px;font-family:Calibri;-inkscape-font-specification:Calibri-Bold;writing-mode:lr-tb;fill:#000000;fill-opacity:1;fill-rule:nonzero;stroke:none"
           id="text302"><tspan
             x="0 4.9910388 9.9820776 12.610028 17.601067"
             y="0"
             id="tspan300">17.1%</tspan></text></g></g><g
       id="g304"><g
         id="g306"
         clip-path="url(#clipPath310)"><path
           d="m 423.362,40.923 h 28.572 v 13.846 h -28.572 z"
           style="fill:#ffffff;fill-opacity:1;fill-rule:nonzero;stroke:none"
           id="path312" /></g></g><g
       id="g314"><g
         id="g316"
         clip-path="url(#clipPath320)"><text
           transform="matrix(0.99848673,0,0,-1,425.2695,44.6154)"
           style="font-variant:normal;font-weight:bold;font-size:9.8462px;font-family:Calibri;-inkscape-font-specification:Calibri-Bold;writing-mode:lr-tb;fill:#000000;fill-opacity:1;fill-rule:nonzero;stroke:none"
           id="text324"><tspan
             x="0 4.9910388 9.9820776 12.610028 17.601067"
             y="0"
             id="tspan322">63.1%</tspan></text></g></g><g
       id="g326"><g
         id="g328"
         clip-path="url(#clipPath332)"><path
           d="m 470.06,97.231 h 28.572 v 13.846 H 470.06 Z"
           style="fill:#ffffff;fill-opacity:1;fill-rule:nonzero;stroke:none"
           id="path334" /></g></g><g
       id="g336"><g
         id="g338"
         clip-path="url(#clipPath342)"><text
           transform="matrix(0.99848673,0,0,-1,472.0456,100.9231)"
           style="font-variant:normal;font-weight:bold;font-size:9.8462px;font-family:Calibri;-inkscape-font-specification:Calibri-Bold;writing-mode:lr-tb;fill:#000000;fill-opacity:1;fill-rule:nonzero;stroke:none"
           id="text346"><tspan
             x="0 4.9910388 9.9820776 12.610028 17.601067"
             y="0"
             id="tspan344">44.0%</tspan></text></g></g><g
       id="g348"><g
         id="g350"
         clip-path="url(#clipPath354)"><path
           d="m 477.434,153.538 h 28.572 v 13.846 h -28.572 z"
           style="fill:#ffffff;fill-opacity:1;fill-rule:nonzero;stroke:none"
           id="path356" /></g></g><g
       id="g358"><g
         id="g360"
         clip-path="url(#clipPath364)"><text
           transform="matrix(0.99848673,0,0,-1,479.2952,157.2308)"
           style="font-variant:normal;font-weight:bold;font-size:9.8462px;font-family:Calibri;-inkscape-font-specification:Calibri-Bold;writing-mode:lr-tb;fill:#000000;fill-opacity:1;fill-rule:nonzero;stroke:none"
           id="text368"><tspan
             x="0 4.9910388 9.9820776 12.610028 17.601067"
             y="0"
             id="tspan366">41.1%</tspan></text></g></g><g
       id="g370"><g
         id="g372"
         clip-path="url(#clipPath376)"><text
           transform="matrix(0.99849107,0,0,-1,97.1717,6.4615)"
           style="font-variant:normal;font-weight:bold;font-size:8.6154px;font-family:Calibri;-inkscape-font-specification:Calibri-Bold;writing-mode:lr-tb;fill:#595959;fill-opacity:1;fill-rule:nonzero;stroke:none"
           id="text380"><tspan
             x="0 4.3077002"
             y="0"
             id="tspan378">0%</tspan></text></g></g><g
       id="g382"><g
         id="g384"
         clip-path="url(#clipPath388)"><text
           transform="matrix(0.99849107,0,0,-1,143.9721,6.4615)"
           style="font-variant:normal;font-weight:bold;font-size:8.6154px;font-family:Calibri;-inkscape-font-specification:Calibri-Bold;writing-mode:lr-tb;fill:#595959;fill-opacity:1;fill-rule:nonzero;stroke:none"
           id="text392"><tspan
             x="0 4.3077002 8.6154003"
             y="0"
             id="tspan390">10%</tspan></text></g></g><g
       id="g394"><g
         id="g396"
         clip-path="url(#clipPath400)"><text
           transform="matrix(0.99849107,0,0,-1,192.9522,6.4615)"
           style="font-variant:normal;font-weight:bold;font-size:8.6154px;font-family:Calibri;-inkscape-font-specification:Calibri-Bold;writing-mode:lr-tb;fill:#595959;fill-opacity:1;fill-rule:nonzero;stroke:none"
           id="text404"><tspan
             x="0 4.3077002 8.6154003"
             y="0"
             id="tspan402">20%</tspan></text></g></g><g
       id="g406"><g
         id="g408"
         clip-path="url(#clipPath412)"><text
           transform="matrix(0.99849107,0,0,-1,241.9325,6.4615)"
           style="font-variant:normal;font-weight:bold;font-size:8.6154px;font-family:Calibri;-inkscape-font-specification:Calibri-Bold;writing-mode:lr-tb;fill:#595959;fill-opacity:1;fill-rule:nonzero;stroke:none"
           id="text416"><tspan
             x="0 4.3077002 8.6154003"
             y="0"
             id="tspan414">30%</tspan></text></g></g><g
       id="g418"><g
         id="g420"
         clip-path="url(#clipPath424)"><text
           transform="matrix(0.99849107,0,0,-1,290.9126,6.4615)"
           style="font-variant:normal;font-weight:bold;font-size:8.6154px;font-family:Calibri;-inkscape-font-specification:Calibri-Bold;writing-mode:lr-tb;fill:#595959;fill-opacity:1;fill-rule:nonzero;stroke:none"
           id="text428"><tspan
             x="0 4.3077002 8.6154003"
             y="0"
             id="tspan426">40%</tspan></text></g></g><g
       id="g430"><g
         id="g432"
         clip-path="url(#clipPath436)"><text
           transform="matrix(0.99849107,0,0,-1,339.8928,6.4615)"
           style="font-variant:normal;font-weight:bold;font-size:8.6154px;font-family:Calibri;-inkscape-font-specification:Calibri-Bold;writing-mode:lr-tb;fill:#595959;fill-opacity:1;fill-rule:nonzero;stroke:none"
           id="text440"><tspan
             x="0 4.3077002 8.6154003"
             y="0"
             id="tspan438">50%</tspan></text></g></g><g
       id="g442"><g
         id="g444"
         clip-path="url(#clipPath448)"><text
           transform="matrix(0.99849107,0,0,-1,388.873,6.4615)"
           style="font-variant:normal;font-weight:bold;font-size:8.6154px;font-family:Calibri;-inkscape-font-specification:Calibri-Bold;writing-mode:lr-tb;fill:#595959;fill-opacity:1;fill-rule:nonzero;stroke:none"
           id="text452"><tspan
             x="0 4.3077002 8.6154003"
             y="0"
             id="tspan450">60%</tspan></text></g></g><g
       id="g454"><g
         id="g456"
         clip-path="url(#clipPath460)"><text
           transform="matrix(0.99849107,0,0,-1,437.8532,6.4615)"
           style="font-variant:normal;font-weight:bold;font-size:8.6154px;font-family:Calibri;-inkscape-font-specification:Calibri-Bold;writing-mode:lr-tb;fill:#595959;fill-opacity:1;fill-rule:nonzero;stroke:none"
           id="text464"><tspan
             x="0 4.3077002 8.6154003"
             y="0"
             id="tspan462">70%</tspan></text></g></g><g
       id="g466"><g
         id="g468"
         clip-path="url(#clipPath472)"><text
           transform="matrix(0.99849107,0,0,-1,486.8334,6.4615)"
           style="font-variant:normal;font-weight:bold;font-size:8.6154px;font-family:Calibri;-inkscape-font-specification:Calibri-Bold;writing-mode:lr-tb;fill:#595959;fill-opacity:1;fill-rule:nonzero;stroke:none"
           id="text476"><tspan
             x="0 4.3077002 8.6154003"
             y="0"
             id="tspan474">80%</tspan></text></g></g><g
       id="g478"><g
         id="g480"
         clip-path="url(#clipPath484)"><text
           transform="matrix(0.99849107,0,0,-1,535.8136,6.4615)"
           style="font-variant:normal;font-weight:bold;font-size:8.6154px;font-family:Calibri;-inkscape-font-specification:Calibri-Bold;writing-mode:lr-tb;fill:#595959;fill-opacity:1;fill-rule:nonzero;stroke:none"
           id="text488"><tspan
             x="0 4.3077002 8.6154003"
             y="0"
             id="tspan486">90%</tspan></text></g></g><g
       id="g490"><g
         id="g492"
         clip-path="url(#clipPath496)"><text
           transform="matrix(0.99849107,0,0,-1,582.6139,6.4615)"
           style="font-variant:normal;font-weight:bold;font-size:8.6154px;font-family:Calibri;-inkscape-font-specification:Calibri-Bold;writing-mode:lr-tb;fill:#595959;fill-opacity:1;fill-rule:nonzero;stroke:none"
           id="text500"><tspan
             x="0 4.3077002 8.6154003 12.9231"
             y="0"
             id="tspan498">100%</tspan></text></g></g><g
       id="g502"><g
         id="g504"
         clip-path="url(#clipPath508)"><text
           transform="matrix(0.99848673,0,0,-1,46.5113,57.2308)"
           style="font-variant:normal;font-weight:bold;font-size:9.8462px;font-family:Calibri;-inkscape-font-specification:Calibri-Bold;writing-mode:lr-tb;fill:#595959;fill-opacity:1;fill-rule:nonzero;stroke:none"
           id="text512"><tspan
             x="0 6.1538749 9.2258892 12.918215 15.379765 19.6924 21.53364 27.077049 28.918289 31.379839 36.30294 41.22604 46.149139"
             y="0"
             id="tspan510">Article level</tspan></text></g></g><text
       transform="matrix(0.998489,0,0,-1,49.846,44.915)"
       style="font-variant:normal;font-weight:bold;font-size:9.846px;font-family:Calibri;-inkscape-font-specification:Calibri-Bold;writing-mode:lr-tb;fill:#595959;fill-opacity:1;fill-rule:nonzero;stroke:none"
       id="text516"><tspan
         x="0 3.0669956 7.7221093 12.672156 16.172209 18.595657 21.707285 24.130733 28.9923 34.276608 36.700054 41.650101 44.717098"
         y="0"
         id="tspan514">(verifiable),</tspan></text><text
       transform="matrix(0.998489,0,0,-1,66.908,33.231)"
       style="font-variant:normal;font-weight:bold;font-size:9.846px;font-family:Calibri;-inkscape-font-specification:Calibri-Bold;writing-mode:lr-tb;fill:#595959;fill-opacity:1;fill-rule:nonzero;stroke:none"
       id="text520"><tspan
         x="0 6.758287 11.933763 17.19772 22.461676"
         y="0"
         id="tspan518">N=256</tspan></text><g
       id="g522"><g
         id="g524"
         clip-path="url(#clipPath528)"><text
           transform="matrix(0.99848673,0,0,-1,43.9766,107.3846)"
           style="font-variant:normal;font-weight:bold;font-size:9.8462px;font-family:Calibri;-inkscape-font-specification:Calibri-Bold;writing-mode:lr-tb;fill:#595959;fill-opacity:1;fill-rule:nonzero;stroke:none"
           id="text532"><tspan
             x="0 6.1538749 9.2258892 12.918215 15.379765 19.6924 21.53364 27.077049 28.918289 31.379839 36.30294 41.22604 46.149139 48.610691"
             y="0"
             id="tspan530">Article level,</tspan></text></g></g><text
       transform="matrix(0.998489,0,0,-1,66.138,95.536)"
       style="font-variant:normal;font-weight:bold;font-size:9.846px;font-family:Calibri;-inkscape-font-specification:Calibri-Bold;writing-mode:lr-tb;fill:#595959;fill-opacity:1;fill-rule:nonzero;stroke:none"
       id="text536"><tspan
         x="0 6.758287 11.933763 17.19772 22.461676"
         y="0"
         id="tspan534">N=374</tspan></text><g
       id="g538"><g
         id="g540"
         clip-path="url(#clipPath544)" /></g><text
       transform="matrix(0.998489,0,0,-1,48.37,163.692)"
       style="font-variant:normal;font-weight:bold;font-size:9.846px;font-family:Calibri;-inkscape-font-specification:Calibri-Bold;writing-mode:lr-tb;fill:#595959;fill-opacity:1;fill-rule:nonzero;stroke:none"
       id="text548"><tspan
         x="0 4.9153318 9.8208323 15.149071 17.616453 22.610434 24.985001 27.452383 32.446362 37.145409 42.139389 44.606773"
         y="0"
         id="tspan546">Table level,</tspan></text><text
       transform="matrix(0.998489,0,0,-1,62.46,151.692)"
       style="font-variant:normal;font-weight:bold;font-size:9.846px;font-family:Calibri;-inkscape-font-specification:Calibri-Bold;writing-mode:lr-tb;fill:#595959;fill-opacity:1;fill-rule:nonzero;stroke:none"
       id="text552"><tspan
         x="0 6.758287 11.933763 17.19772 22.461676 27.725632"
         y="0"
         id="tspan550">N=2485</tspan></text><g
       id="g554"><g
         id="g556"
         clip-path="url(#clipPath560)"><path
           d="m 58.066,204.308 h 6.759 v 6.769 h -6.759 z"
           style="fill:#ff0000;fill-opacity:1;fill-rule:nonzero;stroke:none"
           id="path562" /></g></g><g
       id="g564"><g
         id="g566"
         clip-path="url(#clipPath570)"><text
           transform="matrix(0.99849688,0,0,-1,67.8832,204)"
           style="font-variant:normal;font-weight:normal;font-size:12.3077px;font-family:Calibri;-inkscape-font-specification:Calibri;writing-mode:lr-tb;fill:#595959;fill-opacity:1;fill-rule:nonzero;stroke:none"
           id="text574"><tspan
             x="0 8.0000048 14.153855 18.46155 21.538475 25.84617 32.000019 38.15387 42.461563 49.230801 55.384651 62.153885 67.076965 73.230812"
             y="0"
             id="tspan572">Not reproduced</tspan></text></g></g><g
       id="g576"><g
         id="g578"
         clip-path="url(#clipPath582)"><path
           d="m 159.452,204.308 h 6.759 v 6.769 h -6.759 z"
           style="fill:#ff7011;fill-opacity:1;fill-rule:nonzero;stroke:none"
           id="path584" /></g></g><g
       id="g586"><g
         id="g588"
         clip-path="url(#clipPath592)"><text
           transform="matrix(0.99849688,0,0,-1,169.2974,204)"
           style="font-variant:normal;font-weight:normal;font-size:12.3077px;font-family:Calibri;-inkscape-font-specification:Calibri;writing-mode:lr-tb;fill:#595959;fill-opacity:1;fill-rule:nonzero;stroke:none"
           id="text596"><tspan
             x="0 4.92308 11.07693 15.384625 20.92309 27.076941 30.153866 35.692329 38.15387 44.923103 51.692341 55.384651 58.461575 62.769272 68.923119 75.076973 79.384666 86.1539 92.307747 99.076988 104.00007 110.15392"
             y="0"
             id="tspan594">Largely not reproduced</tspan></text></g></g><g
       id="g598"><g
         id="g600"
         clip-path="url(#clipPath604)"><path
           d="m 297.705,204.308 h 6.759 v 6.769 h -6.759 z"
           style="fill:#8faadc;fill-opacity:1;fill-rule:nonzero;stroke:none"
           id="path606" /></g></g><g
       id="g608"><g
         id="g610"
         clip-path="url(#clipPath614)"><text
           transform="matrix(0.99849688,0,0,-1,307.6374,204)"
           style="font-variant:normal;font-weight:normal;font-size:12.3077px;font-family:Calibri;-inkscape-font-specification:Calibri;writing-mode:lr-tb;fill:#595959;fill-opacity:1;fill-rule:nonzero;stroke:none"
           id="text618"><tspan
             x="0 4.92308 11.07693 15.384625 20.92309 27.076941 30.153866 35.692329 38.15387 42.461563 48.615414 55.384651 59.692345 65.846191 72.615433 78.769279 84.307747 90.461594 96.615448 99.692368 102.76929 111.38468 114.46161 118.15392 124.92316 128.00008 137.23085 140.30779 147.07701 153.23087 157.53856 160.61548 163.07703 168.00011 172.92319 179.07704 185.23088"
             y="0"
             id="tspan616">Largely reproduced, with minor issues</tspan></text></g></g><g
       id="g620"><g
         id="g622"
         clip-path="url(#clipPath626)"><path
           d="m 509.386,204.308 h 6.759 v 6.769 h -6.759 z"
           style="fill:#2f5597;fill-opacity:1;fill-rule:nonzero;stroke:none"
           id="path628" /></g></g><g
       id="g630"><g
         id="g632"
         clip-path="url(#clipPath636)"><text
           transform="matrix(0.99849688,0,0,-1,519.3899,204)"
           style="font-variant:normal;font-weight:normal;font-size:12.3077px;font-family:Calibri;-inkscape-font-specification:Calibri;writing-mode:lr-tb;fill:#595959;fill-opacity:1;fill-rule:nonzero;stroke:none"
           id="text640"><tspan
             x="0 5.538465 12.3077 14.76924 17.846165 23.38463 25.84617 30.153866 36.307716 43.07695 47.384644 53.538494 60.307732 66.461578 72.000046 78.153893"
             y="0"
             id="tspan638">Fully reproduced</tspan></text></g></g></g></svg>
