<?xml version="1.0" encoding="UTF-8" standalone="no"?>
<svg
   xmlns:dc="http://purl.org/dc/elements/1.1/"
   xmlns:cc="http://creativecommons.org/ns#"
   xmlns:rdf="http://www.w3.org/1999/02/22-rdf-syntax-ns#"
   xmlns:svg="http://www.w3.org/2000/svg"
   xmlns="http://www.w3.org/2000/svg"
   version="1.1"
   id="svg2"
   xml:space="preserve"
   width="1344"
   height="480"
   viewBox="0 0 1344 480"><metadata
     id="metadata8"><rdf:RDF><cc:Work
         rdf:about=""><dc:format>image/svg+xml</dc:format><dc:type
           rdf:resource="http://purl.org/dc/dcmitype/StillImage" /></cc:Work></rdf:RDF></metadata><defs
     id="defs6"><clipPath
       clipPathUnits="userSpaceOnUse"
       id="clipPath20"><path
         d="M 0,0 H 1008 V 360 H 0 Z"
         id="path18" /></clipPath></defs><g
     id="g10"
     transform="matrix(1.3333333,0,0,-1.3333333,0,480)"><g
       id="g12" /><g
       id="g14"><g
         id="g16"
         clip-path="url(#clipPath20)"><path
           d="m -0.0315,-0.03150158 h 1008.063 V 360.0315 H -0.0315 Z"
           style="fill:#ffffff;fill-opacity:1;fill-rule:nonzero;stroke:none"
           id="path22" /><path
           d="M 0.01575,0.01575079 H 1007.9207 V 359.98425 H 0.01575 Z"
           style="fill:#ffffff;fill-opacity:1;fill-rule:nonzero;stroke:none"
           id="path24" /><g
           id="g26"
           transform="matrix(0.0315,0,0,-0.03150158,0,360)"><path
             d="M 11.92764,11.92764 H 31986.068 V 11416.068 H 11.92764 Z"
             style="fill:none;stroke:#ffffff;stroke-width:22.8553;stroke-linecap:square;stroke-linejoin:miter;stroke-miterlimit:10;stroke-dasharray:none;stroke-opacity:1"
             id="path28" /></g><path
           d="m 416.0233,36.36539 h 579.2982 v 311.0195 H 416.0233 Z"
           style="fill:#ffffff;fill-opacity:1;fill-rule:nonzero;stroke:none"
           id="path30" /><g
           id="g32"
           transform="matrix(0.0315,0,0,-0.03150158,0,360)"><path
             d="M 13218.51,411.8925 H 31586.08 V 10262.17 H 13218.51 Z"
             style="fill:none;stroke:#ffffff;stroke-width:22.8553;stroke-linecap:square;stroke-linejoin:miter;stroke-miterlimit:10;stroke-dasharray:none;stroke-opacity:1"
             id="path34" /></g><g
           id="g36"
           transform="matrix(0.0315,0,0,-0.03150158,0,360)"><path
             d="M 13458.08,10273.6 V 400.4648"
             style="fill:none;stroke:#eaf2f3;stroke-width:34.2829;stroke-linecap:butt;stroke-linejoin:miter;stroke-miterlimit:10;stroke-dasharray:none;stroke-opacity:1"
             id="path38" /></g><g
           id="g40"
           transform="matrix(0.0315,0,0,-0.03150158,0,360)"><path
             d="M 15247.02,10273.6 V 400.4648"
             style="fill:none;stroke:#eaf2f3;stroke-width:34.2829;stroke-linecap:butt;stroke-linejoin:miter;stroke-miterlimit:10;stroke-dasharray:none;stroke-opacity:1"
             id="path42" /></g><g
           id="g44"
           transform="matrix(0.0315,0,0,-0.03150158,0,360)"><path
             d="M 17035.97,10273.6 V 400.4648"
             style="fill:none;stroke:#eaf2f3;stroke-width:34.2829;stroke-linecap:butt;stroke-linejoin:miter;stroke-miterlimit:10;stroke-dasharray:none;stroke-opacity:1"
             id="path46" /></g><g
           id="g48"
           transform="matrix(0.0315,0,0,-0.03150158,0,360)"><path
             d="M 18824.91,10273.6 V 400.4648"
             style="fill:none;stroke:#eaf2f3;stroke-width:34.2829;stroke-linecap:butt;stroke-linejoin:miter;stroke-miterlimit:10;stroke-dasharray:none;stroke-opacity:1"
             id="path50" /></g><g
           id="g52"
           transform="matrix(0.0315,0,0,-0.03150158,0,360)"><path
             d="M 20613.86,10273.6 V 400.4648"
             style="fill:none;stroke:#eaf2f3;stroke-width:34.2829;stroke-linecap:butt;stroke-linejoin:miter;stroke-miterlimit:10;stroke-dasharray:none;stroke-opacity:1"
             id="path54" /></g><g
           id="g56"
           transform="matrix(0.0315,0,0,-0.03150158,0,360)"><path
             d="M 22402.8,10273.6 V 400.4648"
             style="fill:none;stroke:#eaf2f3;stroke-width:34.2829;stroke-linecap:butt;stroke-linejoin:miter;stroke-miterlimit:10;stroke-dasharray:none;stroke-opacity:1"
             id="path58" /></g><g
           id="g60"
           transform="matrix(0.0315,0,0,-0.03150158,0,360)"><path
             d="M 24191.74,10273.6 V 400.4648"
             style="fill:none;stroke:#eaf2f3;stroke-width:34.2829;stroke-linecap:butt;stroke-linejoin:miter;stroke-miterlimit:10;stroke-dasharray:none;stroke-opacity:1"
             id="path62" /></g><g
           id="g64"
           transform="matrix(0.0315,0,0,-0.03150158,0,360)"><path
             d="M 25979.69,10273.6 V 400.4648"
             style="fill:none;stroke:#eaf2f3;stroke-width:34.2829;stroke-linecap:butt;stroke-linejoin:miter;stroke-miterlimit:10;stroke-dasharray:none;stroke-opacity:1"
             id="path66" /></g><g
           id="g68"
           transform="matrix(0.0315,0,0,-0.03150158,0,360)"><path
             d="M 27768.63,10273.6 V 400.4648"
             style="fill:none;stroke:#eaf2f3;stroke-width:34.2829;stroke-linecap:butt;stroke-linejoin:miter;stroke-miterlimit:10;stroke-dasharray:none;stroke-opacity:1"
             id="path70" /></g><g
           id="g72"
           transform="matrix(0.0315,0,0,-0.03150158,926.3703,323.6976)"><text
             transform="translate(0,427.7663)"
             style="font-variant:normal;font-weight:normal;font-size:555.526px;font-family:Helvetica;-inkscape-font-specification:Helvetica;writing-mode:lr-tb;fill:#000000;fill-opacity:1;fill-rule:nonzero;stroke:none"
             id="text76"><tspan
               x="0 308.98383 617.96765 772.51514 1081.499 1236.0465"
               y="0"
               id="tspan74">88.2 %</tspan></text></g><g
           id="g78"
           transform="matrix(0.0315,0,0,-0.03150158,445.7899,273.646)"><text
             transform="translate(0,427.7663)"
             style="font-variant:normal;font-weight:normal;font-size:555.526px;font-family:Helvetica;-inkscape-font-specification:Helvetica;writing-mode:lr-tb;fill:#000000;fill-opacity:1;fill-rule:nonzero;stroke:none"
             id="text82"><tspan
               x="0 308.98383 463.53131 772.51514 927.06262"
               y="0"
               id="tspan80">2.9 %</tspan></text></g><g
           id="g84"
           transform="matrix(0.0315,0,0,-0.03150158,499.6215,223.6259)"><text
             transform="translate(0,427.7663)"
             style="font-variant:normal;font-weight:normal;font-size:555.526px;font-family:Helvetica;-inkscape-font-specification:Helvetica;writing-mode:lr-tb;fill:#000000;fill-opacity:1;fill-rule:nonzero;stroke:none"
             id="text88"><tspan
               x="0 308.98383 617.96765 772.51514 1081.499 1236.0465"
               y="0"
               id="tspan86">12.5 %</tspan></text></g><g
           id="g90"
           transform="matrix(0.0315,0,0,-0.03150158,470.6424,173.6057)"><text
             transform="translate(0,427.7663)"
             style="font-variant:normal;font-weight:normal;font-size:555.526px;font-family:Helvetica;-inkscape-font-specification:Helvetica;writing-mode:lr-tb;fill:#000000;fill-opacity:1;fill-rule:nonzero;stroke:none"
             id="text94"><tspan
               x="0 308.98383 463.53131 772.51514 927.06262"
               y="0"
               id="tspan92">7.4 %</tspan></text></g><g
           id="g96"
           transform="matrix(0.0315,0,0,-0.03150158,458.2003,123.5541)"><text
             transform="translate(0,427.7663)"
             style="font-variant:normal;font-weight:normal;font-size:555.526px;font-family:Helvetica;-inkscape-font-specification:Helvetica;writing-mode:lr-tb;fill:#000000;fill-opacity:1;fill-rule:nonzero;stroke:none"
             id="text100"><tspan
               x="0 308.98383 463.53131 772.51514 927.06262"
               y="0"
               id="tspan98">5.1 %</tspan></text></g><g
           id="g102"
           transform="matrix(0.0315,0,0,-0.03150158,454.0741,73.534)"><text
             transform="translate(0,427.7663)"
             style="font-variant:normal;font-weight:normal;font-size:555.526px;font-family:Helvetica;-inkscape-font-specification:Helvetica;writing-mode:lr-tb;fill:#000000;fill-opacity:1;fill-rule:nonzero;stroke:none"
             id="text106"><tspan
               x="0 308.98383 463.53131 772.51514 927.06262"
               y="0"
               id="tspan104">4.4 %</tspan></text></g><path
           d="m 423.9295,294.4352 h 497.1806 v 45.04341 H 423.9295 Z"
           style="fill:#5977ac;fill-opacity:1;fill-rule:nonzero;stroke:none"
           id="path108" /><g
           id="g110"
           transform="matrix(0.0315,0,0,-0.03150158,0,360)"><path
             d="m 13469.51,662.871 h 15760.65 v 1407.02 H 13469.51 Z"
             style="fill:none;stroke:#2f5597;stroke-width:22.8553;stroke-linecap:square;stroke-linejoin:miter;stroke-miterlimit:10;stroke-dasharray:none;stroke-opacity:1"
             id="path112" /></g><path
           d="m 423.9295,244.4151 h 16.59987 v 45.01181 H 423.9295 Z"
           style="fill:#a5bbe3;fill-opacity:1;fill-rule:nonzero;stroke:none"
           id="path114" /><g
           id="g116"
           transform="matrix(0.0315,0,0,-0.03150158,0,360)"><path
             d="m 13469.51,2251.731 h 504.13 v 1406.02 h -504.13 z"
             style="fill:none;stroke:#8faadc;stroke-width:22.8553;stroke-linecap:square;stroke-linejoin:miter;stroke-miterlimit:10;stroke-dasharray:none;stroke-opacity:1"
             id="path118" /></g><path
           d="m 423.9295,194.3635 h 70.43179 v 45.04331 H 423.9295 Z"
           style="fill:#e99833;fill-opacity:1;fill-rule:nonzero;stroke:none"
           id="path120" /><g
           id="g122"
           transform="matrix(0.0315,0,0,-0.03150158,0,360)"><path
             d="m 13469.51,3839.593 h 2213.07 v 1407.019 h -2213.07 z"
             style="fill:none;stroke:#e37e00;stroke-width:22.8553;stroke-linecap:square;stroke-linejoin:miter;stroke-miterlimit:10;stroke-dasharray:none;stroke-opacity:1"
             id="path124" /></g><path
           d="m 423.9295,144.3433 h 41.45274 v 45.04331 H 423.9295 Z"
           style="fill:#ff9933;fill-opacity:1;fill-rule:nonzero;stroke:none"
           id="path126" /><g
           id="g128"
           transform="matrix(0.0315,0,0,-0.03150158,0,360)"><path
             d="m 13469.51,5427.454 h 1293.1 v 1407.019 h -1293.1 z"
             style="fill:none;stroke:#ff7f00;stroke-width:22.8553;stroke-linecap:square;stroke-linejoin:miter;stroke-miterlimit:10;stroke-dasharray:none;stroke-opacity:1"
             id="path130" /></g><path
           d="m 423.9295,94.32321 h 29.01056 v 45.01181 H 423.9295 Z"
           style="fill:#ff6a33;fill-opacity:1;fill-rule:nonzero;stroke:none"
           id="path132" /><g
           id="g134"
           transform="matrix(0.0315,0,0,-0.03150158,0,360)"><path
             d="m 13469.51,7016.315 h 898.11 v 1406.019 h -898.11 z"
             style="fill:none;stroke:#ff4500;stroke-width:22.8553;stroke-linecap:square;stroke-linejoin:miter;stroke-miterlimit:10;stroke-dasharray:none;stroke-opacity:1"
             id="path136" /></g><path
           d="m 423.9295,44.27159 h 24.88405 V 89.3149 H 423.9295 Z"
           style="fill:#ff3333;fill-opacity:1;fill-rule:nonzero;stroke:none"
           id="path138" /><g
           id="g140"
           transform="matrix(0.0315,0,0,-0.03150158,0,360)"><path
             d="m 13469.51,8604.176 h 767.12 V 10011.2 h -767.12 z"
             style="fill:none;stroke:#ff0000;stroke-width:22.8553;stroke-linecap:square;stroke-linejoin:miter;stroke-miterlimit:10;stroke-dasharray:none;stroke-opacity:1"
             id="path142" /></g><g
           id="g144"
           transform="matrix(0.0315,0,0,-0.03150158,0,360)"><path
             d="M 13207.09,10273.6 V 400.4648"
             style="fill:none;stroke:#000000;stroke-width:22.8553;stroke-linecap:butt;stroke-linejoin:miter;stroke-miterlimit:10;stroke-dasharray:none;stroke-opacity:1"
             id="path146" /></g><g
           id="g148"
           transform="matrix(0.0315,0,0,-0.03150158,0,360)"><path
             d="m 13207.09,1366.381 h -159"
             style="fill:none;stroke:#000000;stroke-width:22.8553;stroke-linecap:butt;stroke-linejoin:miter;stroke-miterlimit:10;stroke-dasharray:none;stroke-opacity:1"
             id="path150" /></g><g
           id="g152"
           transform="matrix(0.0315,0,0,-0.03150158,240.2516,323.6976)"><text
             transform="translate(0,427.7663)"
             style="font-variant:normal;font-weight:normal;font-size:555.526px;font-family:Helvetica;-inkscape-font-specification:Helvetica;writing-mode:lr-tb;fill:#000000;fill-opacity:1;fill-rule:nonzero;stroke:none"
             id="text156"><tspan
               x="0 401.20123 710.18506 864.51031 1173.4941 1451.2574 1729.0206 2038.0045 2315.7678 2593.531 2747.8562 2902.1816 3211.1653 3365.4907 3674.4744 3983.4583 4137.7837 4446.7676 4724.5308 5033.5146 5187.8398"
               y="0"
               id="tspan154">No access to dataset.</tspan></text></g><g
           id="g158"
           transform="matrix(0.0315,0,0,-0.03150158,0,360)"><path
             d="m 13207.09,2955.241 h -159"
             style="fill:none;stroke:#000000;stroke-width:22.8553;stroke-linecap:butt;stroke-linejoin:miter;stroke-miterlimit:10;stroke-dasharray:none;stroke-opacity:1"
             id="path160" /></g><g
           id="g162"
           transform="matrix(0.0315,0,0,-0.03150158,61.31321,273.646)"><text
             transform="translate(0,427.7663)"
             style="font-variant:normal;font-weight:normal;font-size:555.526px;font-family:Helvetica;-inkscape-font-specification:Helvetica;writing-mode:lr-tb;fill:#000000;fill-opacity:1;fill-rule:nonzero;stroke:none"
             id="text166"><tspan
               x="0 154.32526 432.0885 709.85175 1018.8356 1327.8195 1605.5826 1759.908 2161.1091 2284.5471 2438.8726 2747.8562 2902.1816 3179.9448 3488.9287 3643.2539 3797.5791 4198.7803 4507.7642 4692.7544 5001.7383 5156.0635 5465.0474 5774.0312 5959.0215 6268.0054 6669.2065 6978.1904 7163.1807 7472.1646 7626.4902 7811.4805 8120.4644 8429.4482 8738.4316 8861.8701 9046.8604 9355.8438 9818.5977 10127.581 10436.565 10590.891 10868.653"
               y="0"
               id="tspan164">Issues with software/hardware requirements.</tspan></text></g><g
           id="g168"
           transform="matrix(0.0315,0,0,-0.03150158,0,360)"><path
             d="m 13207.09,4543.103 h -159"
             style="fill:none;stroke:#000000;stroke-width:22.8553;stroke-linecap:butt;stroke-linejoin:miter;stroke-miterlimit:10;stroke-dasharray:none;stroke-opacity:1"
             id="path170" /></g><g
           id="g172"
           transform="matrix(0.0315,0,0,-0.03150158,96.30281,223.6259)"><text
             transform="translate(0,427.7663)"
             style="font-variant:normal;font-weight:normal;font-size:555.526px;font-family:Helvetica;-inkscape-font-specification:Helvetica;writing-mode:lr-tb;fill:#000000;fill-opacity:1;fill-rule:nonzero;stroke:none"
             id="text176"><tspan
               x="0 401.20123 710.18506 1019.1689 1328.1527 1482.478 1791.4619 1976.4521 2130.7773 2439.7612 2748.7451 2933.7354 3088.0608 3365.824 3520.1492 3829.1331 3983.4583 4137.7837 4415.5469 4724.5308 5033.5146 5342.4985 5496.8237 5651.1489 5960.1328 6269.1167 6546.8799 6701.2051 6824.6431 7133.627 7442.6108 7720.374 7874.6992 8337.4531 8460.8906 8738.6543 9016.417 9139.8555 9448.8389 9757.8232"
               y="0"
               id="tspan174">Code or parts of code/functions missing.</tspan></text></g><g
           id="g178"
           transform="matrix(0.0315,0,0,-0.03150158,0,360)"><path
             d="m 13207.09,6130.963 h -159"
             style="fill:none;stroke:#000000;stroke-width:22.8553;stroke-linecap:butt;stroke-linejoin:miter;stroke-miterlimit:10;stroke-dasharray:none;stroke-opacity:1"
             id="path180" /></g><g
           id="g182"
           transform="matrix(0.0315,0,0,-0.03150158,39.8922,173.6057)"><text
             transform="translate(0,427.7663)"
             style="font-variant:normal;font-weight:normal;font-size:555.526px;font-family:Helvetica;-inkscape-font-specification:Helvetica;writing-mode:lr-tb;fill:#000000;fill-opacity:1;fill-rule:nonzero;stroke:none"
             id="text186"><tspan
               x="0 154.32526 463.30911 741.07233 1050.0562 1204.3815 1482.1447 1759.908 1883.3459 2192.3298 2501.3137 2655.6389 2809.9641 3118.948 3427.9319 3705.6951 4014.679 4477.4326 4786.4165 5095.4004 5249.7256 5558.7095 5713.0347 5836.4727 6145.4565 6454.4404 6608.7656 6763.0908 7225.8442 7349.2822 7627.0454 7904.8086 8028.2466 8337.2305 8646.2148 8800.54 8923.9775 9232.9619 9387.2871 9696.2705 9881.2607 10344.015 10652.998 10807.323 10930.762 11239.745 11548.729"
               y="0"
               id="tspan184">Insuffcient documentation, missing information.</tspan></text></g><g
           id="g188"
           transform="matrix(0.0315,0,0,-0.03150158,0,360)"><path
             d="m 13207.09,7719.824 h -159"
             style="fill:none;stroke:#000000;stroke-width:22.8553;stroke-linecap:butt;stroke-linejoin:miter;stroke-miterlimit:10;stroke-dasharray:none;stroke-opacity:1"
             id="path190" /></g><g
           id="g192"
           transform="matrix(0.0315,0,0,-0.03150158,81.70032,123.5541)"><text
             transform="translate(0,427.7663)"
             style="font-variant:normal;font-weight:normal;font-size:555.526px;font-family:Helvetica;-inkscape-font-specification:Helvetica;writing-mode:lr-tb;fill:#000000;fill-opacity:1;fill-rule:nonzero;stroke:none"
             id="text196"><tspan
               x="0 401.20123 710.18506 895.17542 1204.1593 1481.9225 1790.9064 1914.3444 2192.1077 2501.0913 2810.0752 2933.5132 3242.4971 3396.8223 3705.8062 3890.7964 4075.7869 4384.7705 4569.7612 4847.5244 5001.8496 5403.0508 5712.0347 6021.0186 6330.0024 6484.3276 6793.3115 7071.0747 7380.0586 7657.8218 7966.8057 8121.1309 8244.5684 8553.5527 8862.5361 9016.8613 9294.625 9603.6084 9912.5928 10221.576"
               y="0"
               id="tspan194">Unresolvable errors when executing code.</tspan></text></g><g
           id="g198"
           transform="matrix(0.0315,0,0,-0.03150158,0,360)"><path
             d="m 13207.09,9307.686 h -159"
             style="fill:none;stroke:#000000;stroke-width:22.8553;stroke-linecap:butt;stroke-linejoin:miter;stroke-miterlimit:10;stroke-dasharray:none;stroke-opacity:1"
             id="path200" /></g><g
           id="g202"
           transform="matrix(0.0315,0,0,-0.03150158,66.48261,73.534)"><text
             transform="translate(0,427.7663)"
             style="font-variant:normal;font-weight:normal;font-size:555.526px;font-family:Helvetica;-inkscape-font-specification:Helvetica;writing-mode:lr-tb;fill:#000000;fill-opacity:1;fill-rule:nonzero;stroke:none"
             id="text206"><tspan
               x="0 401.20123 710.18506 1019.1689 1204.1593 1513.1431 1822.127 2131.1108 2408.874 2563.1992 2686.6372 2995.6211 3304.605 3458.9302 3736.6934 3860.1313 4169.1152 4292.5532 4601.5371 4879.3003 5033.6255 5218.6157 5527.5996 5836.5835 6021.5737 6175.8994 6299.3374 6577.1006 6762.0908 6916.416 7225.3999 7348.8379 7493.4414 7647.7666 7956.7505 8141.7407 8450.7246 8759.709 8914.0342 9068.3594 9253.3496 9562.333 9840.0967 10149.08 10272.519 10426.844 10704.606"
               y="0"
               id="tspan204">Reproduction yields (partly) different results.</tspan></text></g><g
           id="g208"
           transform="matrix(0.0315,0,0,-0.03150158,0,360)"><path
             d="M 13207.09,10273.6 H 31597.51"
             style="fill:none;stroke:#000000;stroke-width:22.8553;stroke-linecap:butt;stroke-linejoin:miter;stroke-miterlimit:10;stroke-dasharray:none;stroke-opacity:1"
             id="path210" /></g><g
           id="g212"
           transform="matrix(0.0315,0,0,-0.03150158,0,360)"><path
             d="m 13458.08,10273.6 v 158.99"
             style="fill:none;stroke:#000000;stroke-width:22.8553;stroke-linecap:butt;stroke-linejoin:miter;stroke-miterlimit:10;stroke-dasharray:none;stroke-opacity:1"
             id="path214" /></g><g
           id="g216"
           transform="matrix(0.0315,0,0,-0.03150158,420.4538,28.86867)"><text
             transform="translate(0,305.5461)"
             style="font-variant:normal;font-weight:normal;font-size:396.803px;font-family:Helvetica;-inkscape-font-specification:Helvetica;writing-mode:lr-tb;fill:#000000;fill-opacity:1;fill-rule:nonzero;stroke:none"
             id="text220"><tspan
               x="0"
               y="0"
               id="tspan218">0</tspan></text></g><g
           id="g222"
           transform="matrix(0.0315,0,0,-0.03150158,0,360)"><path
             d="m 17035.97,10273.6 v 158.99"
             style="fill:none;stroke:#000000;stroke-width:22.8553;stroke-linecap:butt;stroke-linejoin:miter;stroke-miterlimit:10;stroke-dasharray:none;stroke-opacity:1"
             id="path224" /></g><g
           id="g226"
           transform="matrix(0.0315,0,0,-0.03150158,529.6816,28.86867)"><text
             transform="translate(0,305.5461)"
             style="font-variant:normal;font-weight:normal;font-size:396.803px;font-family:Helvetica;-inkscape-font-specification:Helvetica;writing-mode:lr-tb;fill:#000000;fill-opacity:1;fill-rule:nonzero;stroke:none"
             id="text230"><tspan
               x="0 220.70183"
               y="0"
               id="tspan228">20</tspan></text></g><g
           id="g232"
           transform="matrix(0.0315,0,0,-0.03150158,0,360)"><path
             d="m 20613.86,10273.6 v 158.99"
             style="fill:none;stroke:#000000;stroke-width:22.8553;stroke-linecap:butt;stroke-linejoin:miter;stroke-miterlimit:10;stroke-dasharray:none;stroke-opacity:1"
             id="path234" /></g><g
           id="g236"
           transform="matrix(0.0315,0,0,-0.03150158,642.3849,28.86867)"><text
             transform="translate(0,305.5461)"
             style="font-variant:normal;font-weight:normal;font-size:396.803px;font-family:Helvetica;-inkscape-font-specification:Helvetica;writing-mode:lr-tb;fill:#000000;fill-opacity:1;fill-rule:nonzero;stroke:none"
             id="text240"><tspan
               x="0 220.70183"
               y="0"
               id="tspan238">40</tspan></text></g><g
           id="g242"
           transform="matrix(0.0315,0,0,-0.03150158,0,360)"><path
             d="m 24191.74,10273.6 v 158.99"
             style="fill:none;stroke:#000000;stroke-width:22.8553;stroke-linecap:butt;stroke-linejoin:miter;stroke-miterlimit:10;stroke-dasharray:none;stroke-opacity:1"
             id="path244" /></g><g
           id="g246"
           transform="matrix(0.0315,0,0,-0.03150158,755.0884,28.86867)"><text
             transform="translate(0,305.5461)"
             style="font-variant:normal;font-weight:normal;font-size:396.803px;font-family:Helvetica;-inkscape-font-specification:Helvetica;writing-mode:lr-tb;fill:#000000;fill-opacity:1;fill-rule:nonzero;stroke:none"
             id="text250"><tspan
               x="0 220.70183"
               y="0"
               id="tspan248">60</tspan></text></g><g
           id="g252"
           transform="matrix(0.0315,0,0,-0.03150158,0,360)"><path
             d="m 27768.63,10273.6 v 158.99"
             style="fill:none;stroke:#000000;stroke-width:22.8553;stroke-linecap:butt;stroke-linejoin:miter;stroke-miterlimit:10;stroke-dasharray:none;stroke-opacity:1"
             id="path254" /></g><g
           id="g256"
           transform="matrix(0.0315,0,0,-0.03150158,867.7604,28.86867)"><text
             transform="translate(0,305.5461)"
             style="font-variant:normal;font-weight:normal;font-size:396.803px;font-family:Helvetica;-inkscape-font-specification:Helvetica;writing-mode:lr-tb;fill:#000000;fill-opacity:1;fill-rule:nonzero;stroke:none"
             id="text260"><tspan
               x="0 220.70183"
               y="0"
               id="tspan258">80</tspan></text></g><g
           id="g262"
           transform="matrix(0.0315,0,0,-0.03150158,0,360)"><path
             d="m 13458.08,10273.6 v 158.99"
             style="fill:none;stroke:#000000;stroke-width:22.8553;stroke-linecap:butt;stroke-linejoin:miter;stroke-miterlimit:10;stroke-dasharray:none;stroke-opacity:1"
             id="path264" /></g><g
           id="g266"
           transform="matrix(0.0315,0,0,-0.03150158,0,360)"><path
             d="m 15247.02,10273.6 v 158.99"
             style="fill:none;stroke:#000000;stroke-width:22.8553;stroke-linecap:butt;stroke-linejoin:miter;stroke-miterlimit:10;stroke-dasharray:none;stroke-opacity:1"
             id="path268" /></g><g
           id="g270"
           transform="matrix(0.0315,0,0,-0.03150158,0,360)"><path
             d="m 17035.97,10273.6 v 158.99"
             style="fill:none;stroke:#000000;stroke-width:22.8553;stroke-linecap:butt;stroke-linejoin:miter;stroke-miterlimit:10;stroke-dasharray:none;stroke-opacity:1"
             id="path272" /></g><g
           id="g274"
           transform="matrix(0.0315,0,0,-0.03150158,0,360)"><path
             d="m 18824.91,10273.6 v 158.99"
             style="fill:none;stroke:#000000;stroke-width:22.8553;stroke-linecap:butt;stroke-linejoin:miter;stroke-miterlimit:10;stroke-dasharray:none;stroke-opacity:1"
             id="path276" /></g><g
           id="g278"
           transform="matrix(0.0315,0,0,-0.03150158,0,360)"><path
             d="m 20613.86,10273.6 v 158.99"
             style="fill:none;stroke:#000000;stroke-width:22.8553;stroke-linecap:butt;stroke-linejoin:miter;stroke-miterlimit:10;stroke-dasharray:none;stroke-opacity:1"
             id="path280" /></g><g
           id="g282"
           transform="matrix(0.0315,0,0,-0.03150158,0,360)"><path
             d="m 22402.8,10273.6 v 158.99"
             style="fill:none;stroke:#000000;stroke-width:22.8553;stroke-linecap:butt;stroke-linejoin:miter;stroke-miterlimit:10;stroke-dasharray:none;stroke-opacity:1"
             id="path284" /></g><g
           id="g286"
           transform="matrix(0.0315,0,0,-0.03150158,0,360)"><path
             d="m 24191.74,10273.6 v 158.99"
             style="fill:none;stroke:#000000;stroke-width:22.8553;stroke-linecap:butt;stroke-linejoin:miter;stroke-miterlimit:10;stroke-dasharray:none;stroke-opacity:1"
             id="path288" /></g><g
           id="g290"
           transform="matrix(0.0315,0,0,-0.03150158,0,360)"><path
             d="m 25979.69,10273.6 v 158.99"
             style="fill:none;stroke:#000000;stroke-width:22.8553;stroke-linecap:butt;stroke-linejoin:miter;stroke-miterlimit:10;stroke-dasharray:none;stroke-opacity:1"
             id="path292" /></g><g
           id="g294"
           transform="matrix(0.0315,0,0,-0.03150158,0,360)"><path
             d="m 27768.63,10273.6 v 158.99"
             style="fill:none;stroke:#000000;stroke-width:22.8553;stroke-linecap:butt;stroke-linejoin:miter;stroke-miterlimit:10;stroke-dasharray:none;stroke-opacity:1"
             id="path296" /></g></g></g></g></svg>
