<?xml version="1.0" encoding="UTF-8" standalone="no"?>
<svg
   xmlns:dc="http://purl.org/dc/elements/1.1/"
   xmlns:cc="http://creativecommons.org/ns#"
   xmlns:rdf="http://www.w3.org/1999/02/22-rdf-syntax-ns#"
   xmlns:svg="http://www.w3.org/2000/svg"
   xmlns="http://www.w3.org/2000/svg"
   version="1.1"
   id="svg2"
   xml:space="preserve"
   width="757.43201"
   height="288.83429"
   viewBox="0 0 757.43201 288.83429"><metadata
     id="metadata8"><rdf:RDF><cc:Work
         rdf:about=""><dc:format>image/svg+xml</dc:format><dc:type
           rdf:resource="http://purl.org/dc/dcmitype/StillImage" /></cc:Work></rdf:RDF></metadata><defs
     id="defs6"><clipPath
       clipPathUnits="userSpaceOnUse"
       id="clipPath18"><path
         d="M 0,0 H 612 V 232 H 0 Z"
         id="path16" /></clipPath><clipPath
       clipPathUnits="userSpaceOnUse"
       id="clipPath30"><path
         d="M 0,0 H 612 V 232 H 0 Z"
         id="path28" /></clipPath><clipPath
       clipPathUnits="userSpaceOnUse"
       id="clipPath40"><path
         d="M 0,0.615 H 611.386 V 232 H 0 Z"
         id="path38" /></clipPath><clipPath
       clipPathUnits="userSpaceOnUse"
       id="clipPath52"><path
         d="M 102,19.692 H 592.337 V 188.923 H 102 Z"
         id="path50" /></clipPath><clipPath
       clipPathUnits="userSpaceOnUse"
       id="clipPath64"><path
         d="M 102,19.692 H 592.337 V 188.923 H 102 Z"
         id="path62" /></clipPath><clipPath
       clipPathUnits="userSpaceOnUse"
       id="clipPath76"><path
         d="M 0,0.615 H 611.386 V 232 H 0 Z"
         id="path74" /></clipPath><clipPath
       clipPathUnits="userSpaceOnUse"
       id="clipPath88"><path
         d="M 0,0.615 H 611.386 V 232 H 0 Z"
         id="path86" /></clipPath><clipPath
       clipPathUnits="userSpaceOnUse"
       id="clipPath98"><path
         d="M 0,0.615 H 611.386 V 232 H 0 Z"
         id="path96" /></clipPath><clipPath
       clipPathUnits="userSpaceOnUse"
       id="clipPath110"><path
         d="M 0,0.615 H 611.386 V 232 H 0 Z"
         id="path108" /></clipPath><clipPath
       clipPathUnits="userSpaceOnUse"
       id="clipPath120"><path
         d="M 0,0.615 H 611.386 V 232 H 0 Z"
         id="path118" /></clipPath><clipPath
       clipPathUnits="userSpaceOnUse"
       id="clipPath132"><path
         d="M 0,0.615 H 611.386 V 232 H 0 Z"
         id="path130" /></clipPath><clipPath
       clipPathUnits="userSpaceOnUse"
       id="clipPath142"><path
         d="M 0,0.615 H 611.386 V 232 H 0 Z"
         id="path140" /></clipPath><clipPath
       clipPathUnits="userSpaceOnUse"
       id="clipPath154"><path
         d="M 0,0.615 H 611.386 V 232 H 0 Z"
         id="path152" /></clipPath><clipPath
       clipPathUnits="userSpaceOnUse"
       id="clipPath164"><path
         d="M 0,0.615 H 611.386 V 232 H 0 Z"
         id="path162" /></clipPath><clipPath
       clipPathUnits="userSpaceOnUse"
       id="clipPath176"><path
         d="M 0,0.615 H 611.386 V 232 H 0 Z"
         id="path174" /></clipPath><clipPath
       clipPathUnits="userSpaceOnUse"
       id="clipPath186"><path
         d="M 0,0.615 H 611.386 V 232 H 0 Z"
         id="path184" /></clipPath><clipPath
       clipPathUnits="userSpaceOnUse"
       id="clipPath198"><path
         d="M 0,0.615 H 611.386 V 232 H 0 Z"
         id="path196" /></clipPath><clipPath
       clipPathUnits="userSpaceOnUse"
       id="clipPath208"><path
         d="M 0,0.615 H 611.386 V 232 H 0 Z"
         id="path206" /></clipPath><clipPath
       clipPathUnits="userSpaceOnUse"
       id="clipPath220"><path
         d="M 0,0.615 H 611.386 V 232 H 0 Z"
         id="path218" /></clipPath><clipPath
       clipPathUnits="userSpaceOnUse"
       id="clipPath232"><path
         d="M 0,0.615 H 611.386 V 232 H 0 Z"
         id="path230" /></clipPath><clipPath
       clipPathUnits="userSpaceOnUse"
       id="clipPath244"><path
         d="M 0,0.615 H 611.386 V 232 H 0 Z"
         id="path242" /></clipPath><clipPath
       clipPathUnits="userSpaceOnUse"
       id="clipPath256"><path
         d="M 0,0.615 H 611.386 V 232 H 0 Z"
         id="path254" /></clipPath><clipPath
       clipPathUnits="userSpaceOnUse"
       id="clipPath268"><path
         d="M 0,0.615 H 611.386 V 232 H 0 Z"
         id="path266" /></clipPath><clipPath
       clipPathUnits="userSpaceOnUse"
       id="clipPath280"><path
         d="M 0,0.615 H 611.386 V 232 H 0 Z"
         id="path278" /></clipPath><clipPath
       clipPathUnits="userSpaceOnUse"
       id="clipPath292"><path
         d="M 0,0.615 H 611.386 V 232 H 0 Z"
         id="path290" /></clipPath><clipPath
       clipPathUnits="userSpaceOnUse"
       id="clipPath304"><path
         d="M 0,0.615 H 611.386 V 232 H 0 Z"
         id="path302" /></clipPath><clipPath
       clipPathUnits="userSpaceOnUse"
       id="clipPath316"><path
         d="M 0,0.615 H 611.386 V 232 H 0 Z"
         id="path314" /></clipPath><clipPath
       clipPathUnits="userSpaceOnUse"
       id="clipPath328"><path
         d="M 0,0.615 H 611.386 V 232 H 0 Z"
         id="path326" /></clipPath><clipPath
       clipPathUnits="userSpaceOnUse"
       id="clipPath340"><path
         d="M 0,0.615 H 611.386 V 232 H 0 Z"
         id="path338" /></clipPath><clipPath
       clipPathUnits="userSpaceOnUse"
       id="clipPath352"><path
         d="M 0,0.615 H 611.386 V 232 H 0 Z"
         id="path350" /></clipPath><clipPath
       clipPathUnits="userSpaceOnUse"
       id="clipPath372"><path
         d="M 0,0.615 H 611.386 V 232 H 0 Z"
         id="path370" /></clipPath><clipPath
       clipPathUnits="userSpaceOnUse"
       id="clipPath388"><path
         d="M 0,0.615 H 611.386 V 232 H 0 Z"
         id="path386" /></clipPath><clipPath
       clipPathUnits="userSpaceOnUse"
       id="clipPath404"><path
         d="M 0,0.615 H 611.386 V 232 H 0 Z"
         id="path402" /></clipPath><clipPath
       clipPathUnits="userSpaceOnUse"
       id="clipPath414"><path
         d="M 0,0.615 H 611.386 V 232 H 0 Z"
         id="path412" /></clipPath><clipPath
       clipPathUnits="userSpaceOnUse"
       id="clipPath426"><path
         d="M 0,0.615 H 611.386 V 232 H 0 Z"
         id="path424" /></clipPath><clipPath
       clipPathUnits="userSpaceOnUse"
       id="clipPath436"><path
         d="M 0,0.615 H 611.386 V 232 H 0 Z"
         id="path434" /></clipPath></defs><g
     id="g10"
     transform="matrix(1.3333333,0,0,-1.3333333,-51.505333,292.16533)"><g
       id="g12"><g
         id="g14"
         clip-path="url(#clipPath18)"><g
           id="g20"
           transform="translate(0,232)"><path
             d="M 0,0 H 612 V -232 H 0 Z"
             style="fill:#ffffff;fill-opacity:1;fill-rule:nonzero;stroke:none"
             id="path22" /></g></g></g><g
       id="g24"><g
         id="g26"
         clip-path="url(#clipPath30)"><path
           d="M 0.307,0.308 H 612 V 231.693 H 0.307 Z"
           style="fill:#ffffff;fill-opacity:1;fill-rule:nonzero;stroke:none"
           id="path32" /></g></g><g
       id="g34"><g
         id="g36"
         clip-path="url(#clipPath40)"><g
           id="g42"
           transform="matrix(4.84e-5,0,0,-4.85e-5,151.48156,188.6154)"><path
             d="M 0,0 V 3486150 M 1009650,0 V 3486150 M 2025650,0 V 3486150 M 3035300,0 V 3486150 M 4051300,0 V 3486150 M 5060950,0 V 3486150 M 6076950,0 V 3486150 M 7086600,0 V 3486150 M 8096250,0 V 3486150 M 9112250,0 v 3486150"
             style="fill:none;stroke:#d9d9d9;stroke-width:9525;stroke-linecap:butt;stroke-linejoin:round;stroke-miterlimit:10;stroke-dasharray:none;stroke-opacity:1"
             id="path44" /></g></g></g><g
       id="g46"><g
         id="g48"
         clip-path="url(#clipPath52)"><g
           id="g54"
           transform="translate(224.8916,29.5385)"><path
             d="M 0,0 H -122.277 V 36.923 H 0 Z M 43.319,56.308 H -122.277 V 92.923 H 43.319 Z m -81.108,56.307 h -84.488 v 36.616 h 84.488 z"
             style="fill:#ff0000;fill-opacity:1;fill-rule:nonzero;stroke:none"
             id="path56" /></g></g></g><g
       id="g58"><g
         id="g60"
         clip-path="url(#clipPath64)"><g
           id="g66"
           transform="translate(592.3374,29.5385)"><path
             d="M 0,0 H -367.446 V 36.923 H 0 Z M 0,56.308 H -324.127 V 92.923 H 0 Z m 0,56.307 h -405.235 v 36.616 H 0 Z"
             style="fill:#2f5597;fill-opacity:1;fill-rule:nonzero;stroke:none"
             id="path68" /></g></g></g><g
       id="g70"><g
         id="g72"
         clip-path="url(#clipPath76)"><g
           id="g78"
           transform="matrix(4.84e-5,0,0,4.85e-5,102.6145,19.6923)"><path
             d="M 0,0 1,3486150"
             style="fill:none;stroke:#d9d9d9;stroke-width:9525;stroke-linecap:butt;stroke-linejoin:round;stroke-miterlimit:10;stroke-dasharray:none;stroke-opacity:1"
             id="path80" /></g></g></g><g
       id="g82"><g
         id="g84"
         clip-path="url(#clipPath88)"><path
           d="m 149.62,40.923 h 28.265 V 54.769 H 149.62 Z"
           style="fill:#ffffff;fill-opacity:1;fill-rule:nonzero;stroke:none"
           id="path90" /></g></g><g
       id="g92"><g
         id="g94"
         clip-path="url(#clipPath98)"><text
           transform="matrix(0.99848673,0,0,-1,151.37,44.6154)"
           style="font-variant:normal;font-weight:bold;font-size:9.8462px;font-family:Calibri;-inkscape-font-specification:Calibri-Bold;writing-mode:lr-tb;fill:#000000;fill-opacity:1;fill-rule:nonzero;stroke:none"
           id="text102"><tspan
             x="0 4.9910388 9.9820776 12.610028 17.601067"
             y="0"
             id="tspan100">25.0%</tspan></text></g></g><g
       id="g104"><g
         id="g106"
         clip-path="url(#clipPath110)"><path
           d="m 171.126,97.231 h 28.572 v 13.846 h -28.572 z"
           style="fill:#ffffff;fill-opacity:1;fill-rule:nonzero;stroke:none"
           id="path112" /></g></g><g
       id="g114"><g
         id="g116"
         clip-path="url(#clipPath120)"><text
           transform="matrix(0.99848673,0,0,-1,172.9698,100.9231)"
           style="font-variant:normal;font-weight:bold;font-size:9.8462px;font-family:Calibri;-inkscape-font-specification:Calibri-Bold;writing-mode:lr-tb;fill:#000000;fill-opacity:1;fill-rule:nonzero;stroke:none"
           id="text124"><tspan
             x="0 4.9910388 9.9820776 12.610028 17.601067"
             y="0"
             id="tspan122">33.8%</tspan></text></g></g><g
       id="g126"><g
         id="g128"
         clip-path="url(#clipPath132)"><path
           d="m 130.572,153.538 h 28.572 v 13.846 h -28.572 z"
           style="fill:#ffffff;fill-opacity:1;fill-rule:nonzero;stroke:none"
           id="path134" /></g></g><g
       id="g136"><g
         id="g138"
         clip-path="url(#clipPath142)"><text
           transform="matrix(0.99848673,0,0,-1,132.4718,157.2308)"
           style="font-variant:normal;font-weight:bold;font-size:9.8462px;font-family:Calibri;-inkscape-font-specification:Calibri-Bold;writing-mode:lr-tb;fill:#000000;fill-opacity:1;fill-rule:nonzero;stroke:none"
           id="text146"><tspan
             x="0 4.9910388 9.9820776 12.610028 17.601067"
             y="0"
             id="tspan144">17.3%</tspan></text></g></g><g
       id="g148"><g
         id="g150"
         clip-path="url(#clipPath154)"><path
           d="m 394.482,40.923 h 28.265 v 13.846 h -28.265 z"
           style="fill:#ffffff;fill-opacity:1;fill-rule:nonzero;stroke:none"
           id="path156" /></g></g><g
       id="g158"><g
         id="g160"
         clip-path="url(#clipPath164)"><text
           transform="matrix(0.99848673,0,0,-1,396.2709,44.6154)"
           style="font-variant:normal;font-weight:bold;font-size:9.8462px;font-family:Calibri;-inkscape-font-specification:Calibri-Bold;writing-mode:lr-tb;fill:#000000;fill-opacity:1;fill-rule:nonzero;stroke:none"
           id="text168"><tspan
             x="0 4.9910388 9.9820776 12.610028 17.601067"
             y="0"
             id="tspan166">75.0%</tspan></text></g></g><g
       id="g170"><g
         id="g172"
         clip-path="url(#clipPath176)"><path
           d="m 415.988,97.231 h 28.572 v 13.846 h -28.572 z"
           style="fill:#ffffff;fill-opacity:1;fill-rule:nonzero;stroke:none"
           id="path178" /></g></g><g
       id="g180"><g
         id="g182"
         clip-path="url(#clipPath186)"><text
           transform="matrix(0.99848673,0,0,-1,417.8707,100.9231)"
           style="font-variant:normal;font-weight:bold;font-size:9.8462px;font-family:Calibri;-inkscape-font-specification:Calibri-Bold;writing-mode:lr-tb;fill:#000000;fill-opacity:1;fill-rule:nonzero;stroke:none"
           id="text190"><tspan
             x="0 4.9910388 9.9820776 12.610028 17.601067"
             y="0"
             id="tspan188">66.2%</tspan></text></g></g><g
       id="g192"><g
         id="g194"
         clip-path="url(#clipPath198)"><path
           d="m 375.434,153.538 h 28.572 v 13.846 h -28.572 z"
           style="fill:#ffffff;fill-opacity:1;fill-rule:nonzero;stroke:none"
           id="path200" /></g></g><g
       id="g202"><g
         id="g204"
         clip-path="url(#clipPath208)"><text
           transform="matrix(0.99848673,0,0,-1,377.3727,157.2308)"
           style="font-variant:normal;font-weight:bold;font-size:9.8462px;font-family:Calibri;-inkscape-font-specification:Calibri-Bold;writing-mode:lr-tb;fill:#000000;fill-opacity:1;fill-rule:nonzero;stroke:none"
           id="text212"><tspan
             x="0 4.9910388 9.9820776 12.610028 17.601067"
             y="0"
             id="tspan210">82.7%</tspan></text></g></g><g
       id="g214"><g
         id="g216"
         clip-path="url(#clipPath220)"><text
           transform="matrix(0.99849107,0,0,-1,97.1717,6.4615)"
           style="font-variant:normal;font-weight:bold;font-size:8.6154px;font-family:Calibri;-inkscape-font-specification:Calibri-Bold;writing-mode:lr-tb;fill:#595959;fill-opacity:1;fill-rule:nonzero;stroke:none"
           id="text224"><tspan
             x="0 4.3077002"
             y="0"
             id="tspan222">0%</tspan></text></g></g><g
       id="g226"><g
         id="g228"
         clip-path="url(#clipPath232)"><text
           transform="matrix(0.99849107,0,0,-1,143.9721,6.4615)"
           style="font-variant:normal;font-weight:bold;font-size:8.6154px;font-family:Calibri;-inkscape-font-specification:Calibri-Bold;writing-mode:lr-tb;fill:#595959;fill-opacity:1;fill-rule:nonzero;stroke:none"
           id="text236"><tspan
             x="0 4.3077002 8.6154003"
             y="0"
             id="tspan234">10%</tspan></text></g></g><g
       id="g238"><g
         id="g240"
         clip-path="url(#clipPath244)"><text
           transform="matrix(0.99849107,0,0,-1,192.9522,6.4615)"
           style="font-variant:normal;font-weight:bold;font-size:8.6154px;font-family:Calibri;-inkscape-font-specification:Calibri-Bold;writing-mode:lr-tb;fill:#595959;fill-opacity:1;fill-rule:nonzero;stroke:none"
           id="text248"><tspan
             x="0 4.3077002 8.6154003"
             y="0"
             id="tspan246">20%</tspan></text></g></g><g
       id="g250"><g
         id="g252"
         clip-path="url(#clipPath256)"><text
           transform="matrix(0.99849107,0,0,-1,241.9325,6.4615)"
           style="font-variant:normal;font-weight:bold;font-size:8.6154px;font-family:Calibri;-inkscape-font-specification:Calibri-Bold;writing-mode:lr-tb;fill:#595959;fill-opacity:1;fill-rule:nonzero;stroke:none"
           id="text260"><tspan
             x="0 4.3077002 8.6154003"
             y="0"
             id="tspan258">30%</tspan></text></g></g><g
       id="g262"><g
         id="g264"
         clip-path="url(#clipPath268)"><text
           transform="matrix(0.99849107,0,0,-1,290.9126,6.4615)"
           style="font-variant:normal;font-weight:bold;font-size:8.6154px;font-family:Calibri;-inkscape-font-specification:Calibri-Bold;writing-mode:lr-tb;fill:#595959;fill-opacity:1;fill-rule:nonzero;stroke:none"
           id="text272"><tspan
             x="0 4.3077002 8.6154003"
             y="0"
             id="tspan270">40%</tspan></text></g></g><g
       id="g274"><g
         id="g276"
         clip-path="url(#clipPath280)"><text
           transform="matrix(0.99849107,0,0,-1,339.8928,6.4615)"
           style="font-variant:normal;font-weight:bold;font-size:8.6154px;font-family:Calibri;-inkscape-font-specification:Calibri-Bold;writing-mode:lr-tb;fill:#595959;fill-opacity:1;fill-rule:nonzero;stroke:none"
           id="text284"><tspan
             x="0 4.3077002 8.6154003"
             y="0"
             id="tspan282">50%</tspan></text></g></g><g
       id="g286"><g
         id="g288"
         clip-path="url(#clipPath292)"><text
           transform="matrix(0.99849107,0,0,-1,388.873,6.4615)"
           style="font-variant:normal;font-weight:bold;font-size:8.6154px;font-family:Calibri;-inkscape-font-specification:Calibri-Bold;writing-mode:lr-tb;fill:#595959;fill-opacity:1;fill-rule:nonzero;stroke:none"
           id="text296"><tspan
             x="0 4.3077002 8.6154003"
             y="0"
             id="tspan294">60%</tspan></text></g></g><g
       id="g298"><g
         id="g300"
         clip-path="url(#clipPath304)"><text
           transform="matrix(0.99849107,0,0,-1,437.8532,6.4615)"
           style="font-variant:normal;font-weight:bold;font-size:8.6154px;font-family:Calibri;-inkscape-font-specification:Calibri-Bold;writing-mode:lr-tb;fill:#595959;fill-opacity:1;fill-rule:nonzero;stroke:none"
           id="text308"><tspan
             x="0 4.3077002 8.6154003"
             y="0"
             id="tspan306">70%</tspan></text></g></g><g
       id="g310"><g
         id="g312"
         clip-path="url(#clipPath316)"><text
           transform="matrix(0.99849107,0,0,-1,486.8334,6.4615)"
           style="font-variant:normal;font-weight:bold;font-size:8.6154px;font-family:Calibri;-inkscape-font-specification:Calibri-Bold;writing-mode:lr-tb;fill:#595959;fill-opacity:1;fill-rule:nonzero;stroke:none"
           id="text320"><tspan
             x="0 4.3077002 8.6154003"
             y="0"
             id="tspan318">80%</tspan></text></g></g><g
       id="g322"><g
         id="g324"
         clip-path="url(#clipPath328)"><text
           transform="matrix(0.99849107,0,0,-1,535.8136,6.4615)"
           style="font-variant:normal;font-weight:bold;font-size:8.6154px;font-family:Calibri;-inkscape-font-specification:Calibri-Bold;writing-mode:lr-tb;fill:#595959;fill-opacity:1;fill-rule:nonzero;stroke:none"
           id="text332"><tspan
             x="0 4.3077002 8.6154003"
             y="0"
             id="tspan330">90%</tspan></text></g></g><g
       id="g334"><g
         id="g336"
         clip-path="url(#clipPath340)"><text
           transform="matrix(0.99849107,0,0,-1,582.6139,6.4615)"
           style="font-variant:normal;font-weight:bold;font-size:8.6154px;font-family:Calibri;-inkscape-font-specification:Calibri-Bold;writing-mode:lr-tb;fill:#595959;fill-opacity:1;fill-rule:nonzero;stroke:none"
           id="text344"><tspan
             x="0 4.3077002 8.6154003 12.9231"
             y="0"
             id="tspan342">100%</tspan></text></g></g><g
       id="g346"><g
         id="g348"
         clip-path="url(#clipPath352)"><text
           transform="matrix(0.99848673,0,0,-1,46.5113,57.2308)"
           style="font-variant:normal;font-weight:bold;font-size:9.8462px;font-family:Calibri;-inkscape-font-specification:Calibri-Bold;writing-mode:lr-tb;fill:#595959;fill-opacity:1;fill-rule:nonzero;stroke:none"
           id="text356"><tspan
             x="0 6.1538749 9.2258892 12.918215 15.379765 19.6924 21.53364 27.077049 28.918289 31.379839 36.30294 41.22604 46.149139"
             y="0"
             id="tspan354">Article level</tspan></text></g></g><text
       transform="matrix(0.998489,0,0,-1,47.252,45.231)"
       style="font-variant:normal;font-weight:bold;font-size:9.846px;font-family:Calibri;-inkscape-font-specification:Calibri-Bold;writing-mode:lr-tb;fill:#595959;fill-opacity:1;fill-rule:nonzero;stroke:none"
       id="text360"><tspan
         x="0 3.0669956 7.7221093 12.672156 16.172209 18.595657 21.707285 24.130733 28.9923 34.276608 36.700054 41.650101 44.717098"
         y="0"
         id="tspan358">(verifiable),</tspan></text><text
       transform="matrix(0.998489,0,0,-1,66.085,33.231)"
       style="font-variant:normal;font-weight:bold;font-size:9.846px;font-family:Calibri;-inkscape-font-specification:Calibri-Bold;writing-mode:lr-tb;fill:#595959;fill-opacity:1;fill-rule:nonzero;stroke:none"
       id="text364"><tspan
         x="0 6.758287 11.933763 17.19772 22.461676"
         y="0"
         id="tspan362">N=121</tspan></text><g
       id="g366"><g
         id="g368"
         clip-path="url(#clipPath372)"><text
           transform="matrix(0.99848673,0,0,-1,43.9766,107.3846)"
           style="font-variant:normal;font-weight:bold;font-size:9.8462px;font-family:Calibri;-inkscape-font-specification:Calibri-Bold;writing-mode:lr-tb;fill:#595959;fill-opacity:1;fill-rule:nonzero;stroke:none"
           id="text376"><tspan
             x="0 6.1538749 9.2258892 12.918215 15.379765 19.6924 21.53364 27.077049 28.918289 31.379839 36.30294 41.22604 46.149139 48.610691"
             y="0"
             id="tspan374">Article level,</tspan></text></g></g><text
       transform="matrix(0.998489,0,0,-1,65.502,95.385)"
       style="font-variant:normal;font-weight:bold;font-size:9.846px;font-family:Calibri;-inkscape-font-specification:Calibri-Bold;writing-mode:lr-tb;fill:#595959;fill-opacity:1;fill-rule:nonzero;stroke:none"
       id="text380"><tspan
         x="0 6.758287 11.933763 17.19772 22.461676"
         y="0"
         id="tspan378">N=145</tspan></text><g
       id="g382"><g
         id="g384"
         clip-path="url(#clipPath388)" /></g><text
       transform="matrix(0.998489,0,0,-1,45.587,163.692)"
       style="font-variant:normal;font-weight:bold;font-size:9.846px;font-family:Calibri;-inkscape-font-specification:Calibri-Bold;writing-mode:lr-tb;fill:#595959;fill-opacity:1;fill-rule:nonzero;stroke:none"
       id="text392"><tspan
         x="0 5.5299296 10.469992 14.387617 19.661938 22.075401 25.48181 27.603001 30.016464 34.956528 39.601654 44.541718 46.955181"
         y="0"
         id="tspan390">Result level,</tspan></text><text
       transform="matrix(0.998489,0,0,-1,59.584,151.692)"
       style="font-variant:normal;font-weight:bold;font-size:9.846px;font-family:Calibri;-inkscape-font-specification:Calibri-Bold;writing-mode:lr-tb;fill:#595959;fill-opacity:1;fill-rule:nonzero;stroke:none"
       id="text396"><tspan
         x="0 6.758287 11.933763 17.19772 22.461676 27.725632"
         y="0"
         id="tspan394">N=1590</tspan></text><g
       id="g398"><g
         id="g400"
         clip-path="url(#clipPath404)"><path
           d="m 210.452,204.308 h 6.759 v 6.769 h -6.759 z"
           style="fill:#ff0000;fill-opacity:1;fill-rule:nonzero;stroke:none"
           id="path406" /></g></g><g
       id="g408"><g
         id="g410"
         clip-path="url(#clipPath414)"><text
           transform="matrix(0.99849688,0,0,-1,220.3361,204)"
           style="font-variant:normal;font-weight:normal;font-size:12.3077px;font-family:Calibri;-inkscape-font-specification:Calibri;writing-mode:lr-tb;fill:#595959;fill-opacity:1;fill-rule:nonzero;stroke:none"
           id="text418"><tspan
             x="0 8.0000048 14.153855 18.46155 21.538475 25.84617 32.000019 38.15387 42.461563 49.230801 55.384651 62.153885 67.076965 73.230812"
             y="0"
             id="tspan416">Not reproduced</tspan></text></g></g><g
       id="g420"><g
         id="g422"
         clip-path="url(#clipPath426)"><path
           d="m 422.44,204.308 h 6.759 v 6.769 h -6.759 z"
           style="fill:#2f5597;fill-opacity:1;fill-rule:nonzero;stroke:none"
           id="path428" /></g></g><g
       id="g430"><g
         id="g432"
         clip-path="url(#clipPath436)"><text
           transform="matrix(0.99849688,0,0,-1,432.4199,204)"
           style="font-variant:normal;font-weight:normal;font-size:12.3077px;font-family:Calibri;-inkscape-font-specification:Calibri;writing-mode:lr-tb;fill:#595959;fill-opacity:1;fill-rule:nonzero;stroke:none"
           id="text440"><tspan
             x="0 6.7692351 12.923085 19.076935 23.38463 30.153866 36.307716 43.07695 48.000031 54.153881"
             y="0"
             id="tspan438">Reproduced</tspan></text></g></g></g></svg>
