<?xml version="1.0" encoding="UTF-8" standalone="no"?>
<svg
   xmlns:dc="http://purl.org/dc/elements/1.1/"
   xmlns:cc="http://creativecommons.org/ns#"
   xmlns:rdf="http://www.w3.org/1999/02/22-rdf-syntax-ns#"
   xmlns:svg="http://www.w3.org/2000/svg"
   xmlns="http://www.w3.org/2000/svg"
   version="1.1"
   id="svg2"
   xml:space="preserve"
   width="763.49091"
   height="288.83429"
   viewBox="0 0 763.49091 288.83429"><metadata
     id="metadata8"><rdf:RDF><cc:Work
         rdf:about=""><dc:format>image/svg+xml</dc:format><dc:type
           rdf:resource="http://purl.org/dc/dcmitype/StillImage" /></cc:Work></rdf:RDF></metadata><defs
     id="defs6"><clipPath
       clipPathUnits="userSpaceOnUse"
       id="clipPath18"><path
         d="M 0,0 H 612 V 232 H 0 Z"
         id="path16" /></clipPath><clipPath
       clipPathUnits="userSpaceOnUse"
       id="clipPath30"><path
         d="M 0,0 H 612 V 232 H 0 Z"
         id="path28" /></clipPath><clipPath
       clipPathUnits="userSpaceOnUse"
       id="clipPath40"><path
         d="M 0,0.615 H 611.386 V 232 H 0 Z"
         id="path38" /></clipPath><clipPath
       clipPathUnits="userSpaceOnUse"
       id="clipPath54"><path
         d="M 102,19.692 H 592.337 V 188.923 H 102 Z"
         id="path52" /></clipPath><clipPath
       clipPathUnits="userSpaceOnUse"
       id="clipPath66"><path
         d="M 102,19.692 H 592.337 V 188.923 H 102 Z"
         id="path64" /></clipPath><clipPath
       clipPathUnits="userSpaceOnUse"
       id="clipPath78"><path
         d="M 102,19.692 H 592.337 V 188.923 H 102 Z"
         id="path76" /></clipPath><clipPath
       clipPathUnits="userSpaceOnUse"
       id="clipPath90"><path
         d="M 102,19.692 H 592.337 V 188.923 H 102 Z"
         id="path88" /></clipPath><clipPath
       clipPathUnits="userSpaceOnUse"
       id="clipPath102"><path
         d="M 0,0.615 H 611.386 V 232 H 0 Z"
         id="path100" /></clipPath><clipPath
       clipPathUnits="userSpaceOnUse"
       id="clipPath114"><path
         d="M 0,0.615 H 611.386 V 232 H 0 Z"
         id="path112" /></clipPath><clipPath
       clipPathUnits="userSpaceOnUse"
       id="clipPath124"><path
         d="M 0,0.615 H 611.386 V 232 H 0 Z"
         id="path122" /></clipPath><clipPath
       clipPathUnits="userSpaceOnUse"
       id="clipPath136"><path
         d="M 0,0.615 H 611.386 V 232 H 0 Z"
         id="path134" /></clipPath><clipPath
       clipPathUnits="userSpaceOnUse"
       id="clipPath146"><path
         d="M 0,0.615 H 611.386 V 232 H 0 Z"
         id="path144" /></clipPath><clipPath
       clipPathUnits="userSpaceOnUse"
       id="clipPath158"><path
         d="M 0,0.615 H 611.386 V 232 H 0 Z"
         id="path156" /></clipPath><clipPath
       clipPathUnits="userSpaceOnUse"
       id="clipPath168"><path
         d="M 0,0.615 H 611.386 V 232 H 0 Z"
         id="path166" /></clipPath><clipPath
       clipPathUnits="userSpaceOnUse"
       id="clipPath180"><path
         d="M 0,0.615 H 611.386 V 232 H 0 Z"
         id="path178" /></clipPath><clipPath
       clipPathUnits="userSpaceOnUse"
       id="clipPath190"><path
         d="M 0,0.615 H 611.386 V 232 H 0 Z"
         id="path188" /></clipPath><clipPath
       clipPathUnits="userSpaceOnUse"
       id="clipPath202"><path
         d="M 0,0.615 H 611.386 V 232 H 0 Z"
         id="path200" /></clipPath><clipPath
       clipPathUnits="userSpaceOnUse"
       id="clipPath212"><path
         d="M 0,0.615 H 611.386 V 232 H 0 Z"
         id="path210" /></clipPath><clipPath
       clipPathUnits="userSpaceOnUse"
       id="clipPath224"><path
         d="M 0,0.615 H 611.386 V 232 H 0 Z"
         id="path222" /></clipPath><clipPath
       clipPathUnits="userSpaceOnUse"
       id="clipPath234"><path
         d="M 0,0.615 H 611.386 V 232 H 0 Z"
         id="path232" /></clipPath><clipPath
       clipPathUnits="userSpaceOnUse"
       id="clipPath246"><path
         d="M 0,0.615 H 611.386 V 232 H 0 Z"
         id="path244" /></clipPath><clipPath
       clipPathUnits="userSpaceOnUse"
       id="clipPath256"><path
         d="M 0,0.615 H 611.386 V 232 H 0 Z"
         id="path254" /></clipPath><clipPath
       clipPathUnits="userSpaceOnUse"
       id="clipPath268"><path
         d="M 0,0.615 H 611.386 V 232 H 0 Z"
         id="path266" /></clipPath><clipPath
       clipPathUnits="userSpaceOnUse"
       id="clipPath278"><path
         d="M 0,0.615 H 611.386 V 232 H 0 Z"
         id="path276" /></clipPath><clipPath
       clipPathUnits="userSpaceOnUse"
       id="clipPath290"><path
         d="M 0,0.615 H 611.386 V 232 H 0 Z"
         id="path288" /></clipPath><clipPath
       clipPathUnits="userSpaceOnUse"
       id="clipPath300"><path
         d="M 0,0.615 H 611.386 V 232 H 0 Z"
         id="path298" /></clipPath><clipPath
       clipPathUnits="userSpaceOnUse"
       id="clipPath312"><path
         d="M 0,0.615 H 611.386 V 232 H 0 Z"
         id="path310" /></clipPath><clipPath
       clipPathUnits="userSpaceOnUse"
       id="clipPath322"><path
         d="M 0,0.615 H 611.386 V 232 H 0 Z"
         id="path320" /></clipPath><clipPath
       clipPathUnits="userSpaceOnUse"
       id="clipPath334"><path
         d="M 0,0.615 H 611.386 V 232 H 0 Z"
         id="path332" /></clipPath><clipPath
       clipPathUnits="userSpaceOnUse"
       id="clipPath344"><path
         d="M 0,0.615 H 611.386 V 232 H 0 Z"
         id="path342" /></clipPath><clipPath
       clipPathUnits="userSpaceOnUse"
       id="clipPath356"><path
         d="M 0,0.615 H 611.386 V 232 H 0 Z"
         id="path354" /></clipPath><clipPath
       clipPathUnits="userSpaceOnUse"
       id="clipPath366"><path
         d="M 0,0.615 H 611.386 V 232 H 0 Z"
         id="path364" /></clipPath><clipPath
       clipPathUnits="userSpaceOnUse"
       id="clipPath378"><path
         d="M 0,0.615 H 611.386 V 232 H 0 Z"
         id="path376" /></clipPath><clipPath
       clipPathUnits="userSpaceOnUse"
       id="clipPath390"><path
         d="M 0,0.615 H 611.386 V 232 H 0 Z"
         id="path388" /></clipPath><clipPath
       clipPathUnits="userSpaceOnUse"
       id="clipPath402"><path
         d="M 0,0.615 H 611.386 V 232 H 0 Z"
         id="path400" /></clipPath><clipPath
       clipPathUnits="userSpaceOnUse"
       id="clipPath414"><path
         d="M 0,0.615 H 611.386 V 232 H 0 Z"
         id="path412" /></clipPath><clipPath
       clipPathUnits="userSpaceOnUse"
       id="clipPath426"><path
         d="M 0,0.615 H 611.386 V 232 H 0 Z"
         id="path424" /></clipPath><clipPath
       clipPathUnits="userSpaceOnUse"
       id="clipPath438"><path
         d="M 0,0.615 H 611.386 V 232 H 0 Z"
         id="path436" /></clipPath><clipPath
       clipPathUnits="userSpaceOnUse"
       id="clipPath450"><path
         d="M 0,0.615 H 611.386 V 232 H 0 Z"
         id="path448" /></clipPath><clipPath
       clipPathUnits="userSpaceOnUse"
       id="clipPath462"><path
         d="M 0,0.615 H 611.386 V 232 H 0 Z"
         id="path460" /></clipPath><clipPath
       clipPathUnits="userSpaceOnUse"
       id="clipPath474"><path
         d="M 0,0.615 H 611.386 V 232 H 0 Z"
         id="path472" /></clipPath><clipPath
       clipPathUnits="userSpaceOnUse"
       id="clipPath486"><path
         d="M 0,0.615 H 611.386 V 232 H 0 Z"
         id="path484" /></clipPath><clipPath
       clipPathUnits="userSpaceOnUse"
       id="clipPath498"><path
         d="M 0,0.615 H 611.386 V 232 H 0 Z"
         id="path496" /></clipPath><clipPath
       clipPathUnits="userSpaceOnUse"
       id="clipPath538"><path
         d="M 0,0.615 H 611.386 V 232 H 0 Z"
         id="path536" /></clipPath><clipPath
       clipPathUnits="userSpaceOnUse"
       id="clipPath548"><path
         d="M 0,0.615 H 611.386 V 232 H 0 Z"
         id="path546" /></clipPath><clipPath
       clipPathUnits="userSpaceOnUse"
       id="clipPath560"><path
         d="M 0,0.615 H 611.386 V 232 H 0 Z"
         id="path558" /></clipPath><clipPath
       clipPathUnits="userSpaceOnUse"
       id="clipPath570"><path
         d="M 0,0.615 H 611.386 V 232 H 0 Z"
         id="path568" /></clipPath><clipPath
       clipPathUnits="userSpaceOnUse"
       id="clipPath582"><path
         d="M 0,0.615 H 611.386 V 232 H 0 Z"
         id="path580" /></clipPath><clipPath
       clipPathUnits="userSpaceOnUse"
       id="clipPath592"><path
         d="M 0,0.615 H 611.386 V 232 H 0 Z"
         id="path590" /></clipPath><clipPath
       clipPathUnits="userSpaceOnUse"
       id="clipPath604"><path
         d="M 0,0.615 H 611.386 V 232 H 0 Z"
         id="path602" /></clipPath><clipPath
       clipPathUnits="userSpaceOnUse"
       id="clipPath614"><path
         d="M 0,0.615 H 611.386 V 232 H 0 Z"
         id="path612" /></clipPath></defs><g
     id="g10"
     transform="matrix(1.3333333,0,0,-1.3333333,-46.455733,292.16533)"><g
       id="g12"><g
         id="g14"
         clip-path="url(#clipPath18)"><g
           id="g20"
           transform="translate(0,232)"><path
             d="M 0,0 H 612 V -232 H 0 Z"
             style="fill:#ffffff;fill-opacity:1;fill-rule:nonzero;stroke:none"
             id="path22" /></g></g></g><g
       id="g24"><g
         id="g26"
         clip-path="url(#clipPath30)"><path
           d="M 0.307,0.308 H 612 V 231.693 H 0.307 Z"
           style="fill:#ffffff;fill-opacity:1;fill-rule:nonzero;stroke:none"
           id="path32" /></g></g><g
       id="g34"><g
         id="g36"
         clip-path="url(#clipPath40)"><g
           id="g42"
           transform="matrix(4.84e-5,0,0,-4.85e-5,102.6145,188.6154)"><g
             id="g44"
             transform="translate(1009650)"><path
               d="M 0,0 V 3479800 M 1009650,0 V 3479800 M 2025650,0 V 3479800 M 3035300,0 V 3479800 M 4051300,0 V 3479800 M 5060950,0 V 3479800 M 6076950,0 V 3479800 M 7086600,0 V 3479800 M 8096250,0 V 3479800 M 9112250,0 v 3479800"
               style="fill:none;stroke:#d9d9d9;stroke-width:9525;stroke-linecap:butt;stroke-linejoin:round;stroke-miterlimit:10;stroke-dasharray:none;stroke-opacity:1"
               id="path46" /></g></g></g></g><g
       id="g48"><g
         id="g50"
         clip-path="url(#clipPath54)"><g
           id="g56"
           transform="translate(145.9337,29.5385)"><path
             d="M 0,0 H -43.319 V 36.923 H 0 Z M 102,56.308 H -43.319 V 92.923 H 102 Z M 88.789,112.615 H -43.319 v 36.616 H 88.789 Z"
             style="fill:#ff0000;fill-opacity:1;fill-rule:nonzero;stroke:none"
             id="path58" /></g></g></g><g
       id="g60"><g
         id="g62"
         clip-path="url(#clipPath66)"><g
           id="g68"
           transform="translate(153,29.5385)"><path
             d="M 0,0 H -7.066 V 36.923 H 0 Z M 107.837,56.308 H 94.934 v 36.615 h 12.903 z M 94.012,112.615 H 81.723 v 36.616 h 12.289 z"
             style="fill:#ff7011;fill-opacity:1;fill-rule:nonzero;stroke:none"
             id="path70" /></g></g></g><g
       id="g72"><g
         id="g74"
         clip-path="url(#clipPath78)"><g
           id="g80"
           transform="translate(229.8072,29.5385)"><path
             d="M 0,0 H -76.807 V 36.923 H 0 Z M 91.861,56.308 H 31.03 v 36.615 h 60.831 z m -9.216,56.307 h -65.44 v 36.616 h 65.44 z"
             style="fill:#8faadc;fill-opacity:1;fill-rule:nonzero;stroke:none"
             id="path82" /></g></g></g><g
       id="g84"><g
         id="g86"
         clip-path="url(#clipPath90)"><g
           id="g92"
           transform="translate(592.3374,29.5385)"><path
             d="M 0,0 H -362.53 V 36.923 H 0 Z M 0,56.308 H -270.669 V 92.923 H 0 Z m 0,56.307 h -279.886 v 36.616 H 0 Z"
             style="fill:#2f5597;fill-opacity:1;fill-rule:nonzero;stroke:none"
             id="path94" /></g></g></g><g
       id="g96"><g
         id="g98"
         clip-path="url(#clipPath102)"><g
           id="g104"
           transform="matrix(4.84e-5,0,0,4.85e-5,102.6145,19.99999)"><path
             d="M 0,0 1,3479800"
             style="fill:none;stroke:#d9d9d9;stroke-width:9525;stroke-linecap:butt;stroke-linejoin:round;stroke-miterlimit:10;stroke-dasharray:none;stroke-opacity:1"
             id="path106" /></g></g></g><g
       id="g108"><g
         id="g110"
         clip-path="url(#clipPath114)"><path
           d="m 112.446,40.923 h 23.349 v 13.846 h -23.349 z"
           style="fill:#ffffff;fill-opacity:1;fill-rule:nonzero;stroke:none"
           id="path116" /></g></g><g
       id="g118"><g
         id="g120"
         clip-path="url(#clipPath124)"><text
           transform="matrix(0.99848673,0,0,-1,114.254,44.6154)"
           style="font-variant:normal;font-weight:bold;font-size:9.8462px;font-family:Calibri;-inkscape-font-specification:Calibri-Bold;writing-mode:lr-tb;fill:#000000;fill-opacity:1;fill-rule:nonzero;stroke:none"
           id="text128"><tspan
             x="0 4.9910388 7.6189895 12.610028"
             y="0"
             id="tspan126">8.8%</tspan></text></g></g><g
       id="g130"><g
         id="g132"
         clip-path="url(#clipPath136)"><path
           d="m 160.988,97.231 h 28.572 v 13.846 h -28.572 z"
           style="fill:#ffffff;fill-opacity:1;fill-rule:nonzero;stroke:none"
           id="path138" /></g></g><g
       id="g140"><g
         id="g142"
         clip-path="url(#clipPath146)"><text
           transform="matrix(0.99848673,0,0,-1,162.8965,100.9231)"
           style="font-variant:normal;font-weight:bold;font-size:9.8462px;font-family:Calibri;-inkscape-font-specification:Calibri-Bold;writing-mode:lr-tb;fill:#000000;fill-opacity:1;fill-rule:nonzero;stroke:none"
           id="text150"><tspan
             x="0 4.9910388 9.9820776 12.610028 17.601067"
             y="0"
             id="tspan148">29.7%</tspan></text></g></g><g
       id="g152"><g
         id="g154"
         clip-path="url(#clipPath158)"><path
           d="m 154.536,153.538 h 28.265 v 13.846 h -28.265 z"
           style="fill:#ffffff;fill-opacity:1;fill-rule:nonzero;stroke:none"
           id="path160" /></g></g><g
       id="g162"><g
         id="g164"
         clip-path="url(#clipPath168)"><text
           transform="matrix(0.99848673,0,0,-1,156.2765,157.2308)"
           style="font-variant:normal;font-weight:bold;font-size:9.8462px;font-family:Calibri;-inkscape-font-specification:Calibri-Bold;writing-mode:lr-tb;fill:#000000;fill-opacity:1;fill-rule:nonzero;stroke:none"
           id="text172"><tspan
             x="0 4.9910388 9.9820776 12.610028 17.601067"
             y="0"
             id="tspan170">27.0%</tspan></text></g></g><g
       id="g174"><g
         id="g176"
         clip-path="url(#clipPath180)"><path
           d="m 137.639,40.923 h 23.349 v 13.846 h -23.349 z"
           style="fill:#ffffff;fill-opacity:1;fill-rule:nonzero;stroke:none"
           id="path182" /></g></g><g
       id="g184"><g
         id="g186"
         clip-path="url(#clipPath190)"><text
           transform="matrix(0.99848673,0,0,-1,139.5177,44.6154)"
           style="font-variant:normal;font-weight:bold;font-size:9.8462px;font-family:Calibri;-inkscape-font-specification:Calibri-Bold;writing-mode:lr-tb;fill:#000000;fill-opacity:1;fill-rule:nonzero;stroke:none"
           id="text194"><tspan
             x="0 4.9910388 7.6189895 12.610028"
             y="0"
             id="tspan192">1.5%</tspan></text></g></g><g
       id="g196"><g
         id="g198"
         clip-path="url(#clipPath202)"><path
           d="m 242.711,97.231 h 23.349 v 13.846 h -23.349 z"
           style="fill:#ffffff;fill-opacity:1;fill-rule:nonzero;stroke:none"
           id="path204" /></g></g><g
       id="g206"><g
         id="g208"
         clip-path="url(#clipPath212)"><text
           transform="matrix(0.99848673,0,0,-1,244.5588,100.9231)"
           style="font-variant:normal;font-weight:bold;font-size:9.8462px;font-family:Calibri;-inkscape-font-specification:Calibri-Bold;writing-mode:lr-tb;fill:#000000;fill-opacity:1;fill-rule:nonzero;stroke:none"
           id="text216"><tspan
             x="0 4.9910388 7.6189895 12.610028"
             y="0"
             id="tspan214">2.6%</tspan></text></g></g><g
       id="g218"><g
         id="g220"
         clip-path="url(#clipPath224)"><path
           d="m 229.193,153.538 h 23.349 v 13.846 h -23.349 z"
           style="fill:#ffffff;fill-opacity:1;fill-rule:nonzero;stroke:none"
           id="path226" /></g></g><g
       id="g228"><g
         id="g230"
         clip-path="url(#clipPath234)"><text
           transform="matrix(0.99848673,0,0,-1,231.0374,157.2308)"
           style="font-variant:normal;font-weight:bold;font-size:9.8462px;font-family:Calibri;-inkscape-font-specification:Calibri-Bold;writing-mode:lr-tb;fill:#000000;fill-opacity:1;fill-rule:nonzero;stroke:none"
           id="text238"><tspan
             x="0 4.9910388 7.6189895 12.610028"
             y="0"
             id="tspan236">2.5%</tspan></text></g></g><g
       id="g240"><g
         id="g242"
         clip-path="url(#clipPath246)"><path
           d="m 177.271,40.923 h 28.572 v 13.846 h -28.572 z"
           style="fill:#ffffff;fill-opacity:1;fill-rule:nonzero;stroke:none"
           id="path248" /></g></g><g
       id="g250"><g
         id="g252"
         clip-path="url(#clipPath256)"><text
           transform="matrix(0.99848673,0,0,-1,179.1065,44.6154)"
           style="font-variant:normal;font-weight:bold;font-size:9.8462px;font-family:Calibri;-inkscape-font-specification:Calibri-Bold;writing-mode:lr-tb;fill:#000000;fill-opacity:1;fill-rule:nonzero;stroke:none"
           id="text260"><tspan
             x="0 4.9910388 9.9820776 12.610028 17.601067"
             y="0"
             id="tspan258">15.7%</tspan></text></g></g><g
       id="g262"><g
         id="g264"
         clip-path="url(#clipPath268)"><path
           d="m 277.121,97.231 h 28.265 v 13.846 h -28.265 z"
           style="fill:#ffffff;fill-opacity:1;fill-rule:nonzero;stroke:none"
           id="path270" /></g></g><g
       id="g272"><g
         id="g274"
         clip-path="url(#clipPath278)"><text
           transform="matrix(0.99848673,0,0,-1,278.9387,100.9231)"
           style="font-variant:normal;font-weight:bold;font-size:9.8462px;font-family:Calibri;-inkscape-font-specification:Calibri-Bold;writing-mode:lr-tb;fill:#000000;fill-opacity:1;fill-rule:nonzero;stroke:none"
           id="text282"><tspan
             x="0 4.9910388 9.9820776 12.610028 17.601067"
             y="0"
             id="tspan280">12.4%</tspan></text></g></g><g
       id="g284"><g
         id="g286"
         clip-path="url(#clipPath290)"><path
           d="m 265.446,153.538 h 28.572 v 13.846 h -28.572 z"
           style="fill:#ffffff;fill-opacity:1;fill-rule:nonzero;stroke:none"
           id="path292" /></g></g><g
       id="g294"><g
         id="g296"
         clip-path="url(#clipPath300)"><text
           transform="matrix(0.99848673,0,0,-1,267.4286,157.2308)"
           style="font-variant:normal;font-weight:bold;font-size:9.8462px;font-family:Calibri;-inkscape-font-specification:Calibri-Bold;writing-mode:lr-tb;fill:#000000;fill-opacity:1;fill-rule:nonzero;stroke:none"
           id="text304"><tspan
             x="0 4.9910388 9.9820776 12.610028 17.601067"
             y="0"
             id="tspan302">13.4%</tspan></text></g></g><g
       id="g306"><g
         id="g308"
         clip-path="url(#clipPath312)"><path
           d="m 396.94,40.923 h 28.265 V 54.769 H 396.94 Z"
           style="fill:#ffffff;fill-opacity:1;fill-rule:nonzero;stroke:none"
           id="path314" /></g></g><g
       id="g316"><g
         id="g318"
         clip-path="url(#clipPath322)"><text
           transform="matrix(0.99848673,0,0,-1,398.7438,44.6154)"
           style="font-variant:normal;font-weight:bold;font-size:9.8462px;font-family:Calibri;-inkscape-font-specification:Calibri-Bold;writing-mode:lr-tb;fill:#000000;fill-opacity:1;fill-rule:nonzero;stroke:none"
           id="text326"><tspan
             x="0 4.9910388 9.9820776 12.610028 17.601067"
             y="0"
             id="tspan324">74.0%</tspan></text></g></g><g
       id="g328"><g
         id="g330"
         clip-path="url(#clipPath334)"><path
           d="m 442.717,97.231 h 28.572 v 13.846 h -28.572 z"
           style="fill:#ffffff;fill-opacity:1;fill-rule:nonzero;stroke:none"
           id="path336" /></g></g><g
       id="g338"><g
         id="g340"
         clip-path="url(#clipPath344)"><text
           transform="matrix(0.99848673,0,0,-1,444.6691,100.9231)"
           style="font-variant:normal;font-weight:bold;font-size:9.8462px;font-family:Calibri;-inkscape-font-specification:Calibri-Bold;writing-mode:lr-tb;fill:#000000;fill-opacity:1;fill-rule:nonzero;stroke:none"
           id="text348"><tspan
             x="0 4.9910388 9.9820776 12.610028 17.601067"
             y="0"
             id="tspan346">55.2%</tspan></text></g></g><g
       id="g350"><g
         id="g352"
         clip-path="url(#clipPath356)"><path
           d="m 438.108,153.538 h 28.572 v 13.846 h -28.572 z"
           style="fill:#ffffff;fill-opacity:1;fill-rule:nonzero;stroke:none"
           id="path358" /></g></g><g
       id="g360"><g
         id="g362"
         clip-path="url(#clipPath366)"><text
           transform="matrix(0.99848673,0,0,-1,440.0603,157.2308)"
           style="font-variant:normal;font-weight:bold;font-size:9.8462px;font-family:Calibri;-inkscape-font-specification:Calibri-Bold;writing-mode:lr-tb;fill:#000000;fill-opacity:1;fill-rule:nonzero;stroke:none"
           id="text370"><tspan
             x="0 4.9910388 9.9820776 12.610028 17.601067"
             y="0"
             id="tspan368">57.1%</tspan></text></g></g><g
       id="g372"><g
         id="g374"
         clip-path="url(#clipPath378)"><text
           transform="matrix(0.99849107,0,0,-1,97.1717,6.4615)"
           style="font-variant:normal;font-weight:bold;font-size:8.6154px;font-family:Calibri;-inkscape-font-specification:Calibri-Bold;writing-mode:lr-tb;fill:#595959;fill-opacity:1;fill-rule:nonzero;stroke:none"
           id="text382"><tspan
             x="0 4.3077002"
             y="0"
             id="tspan380">0%</tspan></text></g></g><g
       id="g384"><g
         id="g386"
         clip-path="url(#clipPath390)"><text
           transform="matrix(0.99849107,0,0,-1,143.9721,6.4615)"
           style="font-variant:normal;font-weight:bold;font-size:8.6154px;font-family:Calibri;-inkscape-font-specification:Calibri-Bold;writing-mode:lr-tb;fill:#595959;fill-opacity:1;fill-rule:nonzero;stroke:none"
           id="text394"><tspan
             x="0 4.3077002 8.6154003"
             y="0"
             id="tspan392">10%</tspan></text></g></g><g
       id="g396"><g
         id="g398"
         clip-path="url(#clipPath402)"><text
           transform="matrix(0.99849107,0,0,-1,192.9522,6.4615)"
           style="font-variant:normal;font-weight:bold;font-size:8.6154px;font-family:Calibri;-inkscape-font-specification:Calibri-Bold;writing-mode:lr-tb;fill:#595959;fill-opacity:1;fill-rule:nonzero;stroke:none"
           id="text406"><tspan
             x="0 4.3077002 8.6154003"
             y="0"
             id="tspan404">20%</tspan></text></g></g><g
       id="g408"><g
         id="g410"
         clip-path="url(#clipPath414)"><text
           transform="matrix(0.99849107,0,0,-1,241.9325,6.4615)"
           style="font-variant:normal;font-weight:bold;font-size:8.6154px;font-family:Calibri;-inkscape-font-specification:Calibri-Bold;writing-mode:lr-tb;fill:#595959;fill-opacity:1;fill-rule:nonzero;stroke:none"
           id="text418"><tspan
             x="0 4.3077002 8.6154003"
             y="0"
             id="tspan416">30%</tspan></text></g></g><g
       id="g420"><g
         id="g422"
         clip-path="url(#clipPath426)"><text
           transform="matrix(0.99849107,0,0,-1,290.9126,6.4615)"
           style="font-variant:normal;font-weight:bold;font-size:8.6154px;font-family:Calibri;-inkscape-font-specification:Calibri-Bold;writing-mode:lr-tb;fill:#595959;fill-opacity:1;fill-rule:nonzero;stroke:none"
           id="text430"><tspan
             x="0 4.3077002 8.6154003"
             y="0"
             id="tspan428">40%</tspan></text></g></g><g
       id="g432"><g
         id="g434"
         clip-path="url(#clipPath438)"><text
           transform="matrix(0.99849107,0,0,-1,339.8928,6.4615)"
           style="font-variant:normal;font-weight:bold;font-size:8.6154px;font-family:Calibri;-inkscape-font-specification:Calibri-Bold;writing-mode:lr-tb;fill:#595959;fill-opacity:1;fill-rule:nonzero;stroke:none"
           id="text442"><tspan
             x="0 4.3077002 8.6154003"
             y="0"
             id="tspan440">50%</tspan></text></g></g><g
       id="g444"><g
         id="g446"
         clip-path="url(#clipPath450)"><text
           transform="matrix(0.99849107,0,0,-1,388.873,6.4615)"
           style="font-variant:normal;font-weight:bold;font-size:8.6154px;font-family:Calibri;-inkscape-font-specification:Calibri-Bold;writing-mode:lr-tb;fill:#595959;fill-opacity:1;fill-rule:nonzero;stroke:none"
           id="text454"><tspan
             x="0 4.3077002 8.6154003"
             y="0"
             id="tspan452">60%</tspan></text></g></g><g
       id="g456"><g
         id="g458"
         clip-path="url(#clipPath462)"><text
           transform="matrix(0.99849107,0,0,-1,437.8532,6.4615)"
           style="font-variant:normal;font-weight:bold;font-size:8.6154px;font-family:Calibri;-inkscape-font-specification:Calibri-Bold;writing-mode:lr-tb;fill:#595959;fill-opacity:1;fill-rule:nonzero;stroke:none"
           id="text466"><tspan
             x="0 4.3077002 8.6154003"
             y="0"
             id="tspan464">70%</tspan></text></g></g><g
       id="g468"><g
         id="g470"
         clip-path="url(#clipPath474)"><text
           transform="matrix(0.99849107,0,0,-1,486.8334,6.4615)"
           style="font-variant:normal;font-weight:bold;font-size:8.6154px;font-family:Calibri;-inkscape-font-specification:Calibri-Bold;writing-mode:lr-tb;fill:#595959;fill-opacity:1;fill-rule:nonzero;stroke:none"
           id="text478"><tspan
             x="0 4.3077002 8.6154003"
             y="0"
             id="tspan476">80%</tspan></text></g></g><g
       id="g480"><g
         id="g482"
         clip-path="url(#clipPath486)"><text
           transform="matrix(0.99849107,0,0,-1,535.8136,6.4615)"
           style="font-variant:normal;font-weight:bold;font-size:8.6154px;font-family:Calibri;-inkscape-font-specification:Calibri-Bold;writing-mode:lr-tb;fill:#595959;fill-opacity:1;fill-rule:nonzero;stroke:none"
           id="text490"><tspan
             x="0 4.3077002 8.6154003"
             y="0"
             id="tspan488">90%</tspan></text></g></g><g
       id="g492"><g
         id="g494"
         clip-path="url(#clipPath498)"><text
           transform="matrix(0.99849107,0,0,-1,582.6139,6.4615)"
           style="font-variant:normal;font-weight:bold;font-size:8.6154px;font-family:Calibri;-inkscape-font-specification:Calibri-Bold;writing-mode:lr-tb;fill:#595959;fill-opacity:1;fill-rule:nonzero;stroke:none"
           id="text502"><tspan
             x="0 4.3077002 8.6154003 12.9231"
             y="0"
             id="tspan500">100%</tspan></text></g></g><text
       transform="matrix(0.998489,0,0,-1,45.077,57.231)"
       style="font-variant:normal;font-weight:bold;font-size:9.846px;font-family:Calibri;-inkscape-font-specification:Calibri-Bold;writing-mode:lr-tb;fill:#595959;fill-opacity:1;fill-rule:nonzero;stroke:none"
       id="text506"><tspan
         x="0 6.1443777 9.8264503 13.424568 16.029741 20.325869 22.162001 27.293772 29.541 32.146175 37.277946 42.114784 47.246555"
         y="0"
         id="tspan504">Article level</tspan></text><text
       transform="matrix(0.998489,0,0,-1,48.318,45.531)"
       style="font-variant:normal;font-weight:bold;font-size:9.846px;font-family:Calibri;-inkscape-font-specification:Calibri-Bold;writing-mode:lr-tb;fill:#595959;fill-opacity:1;fill-rule:nonzero;stroke:none"
       id="text510"><tspan
         x="0 3.0669956 7.7221093 12.672156 16.172209 18.595657 21.707285 24.130733 28.9923 34.276608 36.700054 41.650101 44.717098"
         y="0"
         id="tspan508">(verifiable),</tspan></text><text
       transform="matrix(0.998489,0,0,-1,66.475,32.783)"
       style="font-variant:normal;font-weight:bold;font-size:9.846px;font-family:Calibri;-inkscape-font-specification:Calibri-Bold;writing-mode:lr-tb;fill:#595959;fill-opacity:1;fill-rule:nonzero;stroke:none"
       id="text514"><tspan
         x="0 6.758287 11.933763 17.19772 22.461676"
         y="0"
         id="tspan512">N=218</tspan></text><text
       transform="matrix(0.998489,0,0,-1,42.445,107.385)"
       style="font-variant:normal;font-weight:bold;font-size:9.846px;font-family:Calibri;-inkscape-font-specification:Calibri-Bold;writing-mode:lr-tb;fill:#595959;fill-opacity:1;fill-rule:nonzero;stroke:none"
       id="text518"><tspan
         x="0 6.1443777 9.8211441 13.419261 16.024435 20.32056 22.163887 27.29566 29.541 32.146175 37.277946 42.114784 47.246555 49.85173"
         y="0"
         id="tspan516">Article level,</tspan></text><text
       transform="matrix(0.998489,0,0,-1,64.992,94.879)"
       style="font-variant:normal;font-weight:bold;font-size:9.846px;font-family:Calibri;-inkscape-font-specification:Calibri-Bold;writing-mode:lr-tb;fill:#595959;fill-opacity:1;fill-rule:nonzero;stroke:none"
       id="text522"><tspan
         x="0 6.758287 11.933763 17.19772 22.461676"
         y="0"
         id="tspan520">N=301</tspan></text><text
       transform="matrix(0.998489,0,0,-1,47.145,163.692)"
       style="font-variant:normal;font-weight:bold;font-size:9.846px;font-family:Calibri;-inkscape-font-specification:Calibri-Bold;writing-mode:lr-tb;fill:#595959;fill-opacity:1;fill-rule:nonzero;stroke:none"
       id="text526"><tspan
         x="0 4.3018041 6.5095792 10.95885 16.027481 19.306849 24.041224 26.691999 28.899775 33.634148 38.073589 42.807961 45.015736"
         y="0"
         id="tspan524">Figure level,</tspan></text><text
       transform="matrix(0.998489,0,0,-1,60.96,151.49)"
       style="font-variant:normal;font-weight:bold;font-size:9.846px;font-family:Calibri;-inkscape-font-specification:Calibri-Bold;writing-mode:lr-tb;fill:#595959;fill-opacity:1;fill-rule:nonzero;stroke:none"
       id="text530"><tspan
         x="0 6.758287 11.933763 17.19772 22.461676 27.725632"
         y="0"
         id="tspan528">N=1203</tspan></text><g
       id="g532"><g
         id="g534"
         clip-path="url(#clipPath538)"><path
           d="m 55.916,204.308 h 6.759 v 6.769 h -6.759 z"
           style="fill:#ff0000;fill-opacity:1;fill-rule:nonzero;stroke:none"
           id="path540" /></g></g><g
       id="g542"><g
         id="g544"
         clip-path="url(#clipPath548)"><text
           transform="matrix(0.99849688,0,0,-1,65.917,204)"
           style="font-variant:normal;font-weight:normal;font-size:12.3077px;font-family:Calibri;-inkscape-font-specification:Calibri;writing-mode:lr-tb;fill:#595959;fill-opacity:1;fill-rule:nonzero;stroke:none"
           id="text552"><tspan
             x="0 8.0000048 14.153855 18.46155 21.538475 25.84617 32.000019 38.15387 42.461563 49.230801 55.384651 62.153885 67.076965 73.230812"
             y="0"
             id="tspan550">Not reproduced</tspan></text></g></g><g
       id="g554"><g
         id="g556"
         clip-path="url(#clipPath560)"><path
           d="m 157.916,204.308 h 6.759 v 6.769 h -6.759 z"
           style="fill:#ff7011;fill-opacity:1;fill-rule:nonzero;stroke:none"
           id="path562" /></g></g><g
       id="g564"><g
         id="g566"
         clip-path="url(#clipPath570)"><text
           transform="matrix(0.99849688,0,0,-1,167.8226,204)"
           style="font-variant:normal;font-weight:normal;font-size:12.3077px;font-family:Calibri;-inkscape-font-specification:Calibri;writing-mode:lr-tb;fill:#595959;fill-opacity:1;fill-rule:nonzero;stroke:none"
           id="text574"><tspan
             x="0 4.92308 11.07693 15.384625 20.92309 27.076941 30.153866 35.692329 38.15387 44.923103 51.692341 55.384651 58.461575 62.769272 68.923119 75.076973 79.384666 86.1539 92.307747 99.076988 104.00007 110.15392"
             y="0"
             id="tspan572">Largely not reproduced</tspan></text></g></g><g
       id="g576"><g
         id="g578"
         clip-path="url(#clipPath582)"><path
           d="m 296.783,204.308 h 6.759 v 6.769 h -6.759 z"
           style="fill:#8faadc;fill-opacity:1;fill-rule:nonzero;stroke:none"
           id="path584" /></g></g><g
       id="g586"><g
         id="g588"
         clip-path="url(#clipPath592)"><text
           transform="matrix(0.99849688,0,0,-1,306.6543,204)"
           style="font-variant:normal;font-weight:normal;font-size:12.3077px;font-family:Calibri;-inkscape-font-specification:Calibri;writing-mode:lr-tb;fill:#595959;fill-opacity:1;fill-rule:nonzero;stroke:none"
           id="text596"><tspan
             x="0 4.92308 11.07693 15.384625 20.92309 27.076941 30.153866 35.692329 38.15387 42.461563 48.615414 55.384651 59.692345 65.846191 72.615433 78.769279 84.307747 90.461594 96.615448 99.692368 102.76929 111.38468 114.46161 118.15392 124.92316 128.00008 137.23085 140.30779 147.07701 153.23087 157.53856 160.61548 163.07703 168.00011 172.92319 179.07704 185.23088"
             y="0"
             id="tspan594">Largely reproduced, with minor issues</tspan></text></g></g><g
       id="g598"><g
         id="g600"
         clip-path="url(#clipPath604)"><path
           d="m 509.078,204.308 h 6.759 v 6.769 h -6.759 z"
           style="fill:#2f5597;fill-opacity:1;fill-rule:nonzero;stroke:none"
           id="path606" /></g></g><g
       id="g608"><g
         id="g610"
         clip-path="url(#clipPath614)"><text
           transform="matrix(0.99849688,0,0,-1,518.8983,204)"
           style="font-variant:normal;font-weight:normal;font-size:12.3077px;font-family:Calibri;-inkscape-font-specification:Calibri;writing-mode:lr-tb;fill:#595959;fill-opacity:1;fill-rule:nonzero;stroke:none"
           id="text618"><tspan
             x="0 5.538465 12.3077 14.76924 17.846165 23.38463 25.84617 30.153866 36.307716 43.07695 47.384644 53.538494 60.307732 66.461578 72.000046 78.153893"
             y="0"
             id="tspan616">Fully reproduced</tspan></text></g></g></g></svg>
