<?xml version="1.0" encoding="UTF-8" standalone="no"?>
<!-- This is a Stata 18.0 generated SVG file (http://www.stata.com) -->

<svg version="1.1" width="7.500in" height="4.500in" viewBox="0 0 5400 3240" xmlns="http://www.w3.org/2000/svg" xmlns:xlink="http://www.w3.org/1999/xlink">
	<desc>Stata Graph - Graph</desc>
	<rect x="0" y="0" width="5400" height="3240" style="fill:#FFFFFF;stroke:none"/>
	<rect x="0.00" y="0.00" width="5400.00" height="3240.00" style="fill:#FFFFFF"/>
	<rect x="3.24" y="3.24" width="5393.52" height="3233.52" style="fill:none;stroke:#FFFFFF;stroke-width:6.48"/>
	<rect x="590.63" y="113.40" width="4695.98" height="2212.65" style="fill:#FFFFFF"/>
	<rect x="593.87" y="116.64" width="4689.50" height="2206.17" style="fill:none;stroke:#FFFFFF;stroke-width:6.48"/>
	<line x1="590.63" y1="1840.73" x2="655.43" y2="1840.73" style="stroke:#F0F0F0;stroke-width:9.72"/>
	<line x1="687.83" y1="1840.73" x2="752.63" y2="1840.73" style="stroke:#F0F0F0;stroke-width:9.72"/>
	<line x1="785.03" y1="1840.73" x2="849.83" y2="1840.73" style="stroke:#F0F0F0;stroke-width:9.72"/>
	<line x1="882.23" y1="1840.73" x2="947.03" y2="1840.73" style="stroke:#F0F0F0;stroke-width:9.72"/>
	<line x1="979.43" y1="1840.73" x2="1044.22" y2="1840.73" style="stroke:#F0F0F0;stroke-width:9.72"/>
	<line x1="1076.63" y1="1840.73" x2="1141.43" y2="1840.73" style="stroke:#F0F0F0;stroke-width:9.72"/>
	<line x1="1173.83" y1="1840.73" x2="1238.63" y2="1840.73" style="stroke:#F0F0F0;stroke-width:9.72"/>
	<line x1="1271.03" y1="1840.73" x2="1335.83" y2="1840.73" style="stroke:#F0F0F0;stroke-width:9.72"/>
	<line x1="1368.23" y1="1840.73" x2="1433.03" y2="1840.73" style="stroke:#F0F0F0;stroke-width:9.72"/>
	<line x1="1465.43" y1="1840.73" x2="1530.23" y2="1840.73" style="stroke:#F0F0F0;stroke-width:9.72"/>
	<line x1="1562.63" y1="1840.73" x2="1627.43" y2="1840.73" style="stroke:#F0F0F0;stroke-width:9.72"/>
	<line x1="1659.83" y1="1840.73" x2="1724.63" y2="1840.73" style="stroke:#F0F0F0;stroke-width:9.72"/>
	<line x1="1757.03" y1="1840.73" x2="1821.83" y2="1840.73" style="stroke:#F0F0F0;stroke-width:9.72"/>
	<line x1="1854.23" y1="1840.73" x2="1919.03" y2="1840.73" style="stroke:#F0F0F0;stroke-width:9.72"/>
	<line x1="1951.43" y1="1840.73" x2="2016.23" y2="1840.73" style="stroke:#F0F0F0;stroke-width:9.72"/>
	<line x1="2048.63" y1="1840.73" x2="2113.43" y2="1840.73" style="stroke:#F0F0F0;stroke-width:9.72"/>
	<line x1="2145.82" y1="1840.73" x2="2210.63" y2="1840.73" style="stroke:#F0F0F0;stroke-width:9.72"/>
	<line x1="2243.03" y1="1840.73" x2="2307.82" y2="1840.73" style="stroke:#F0F0F0;stroke-width:9.72"/>
	<line x1="2340.23" y1="1840.73" x2="2405.03" y2="1840.73" style="stroke:#F0F0F0;stroke-width:9.72"/>
	<line x1="2437.43" y1="1840.73" x2="2502.23" y2="1840.73" style="stroke:#F0F0F0;stroke-width:9.72"/>
	<line x1="2534.63" y1="1840.73" x2="2599.43" y2="1840.73" style="stroke:#F0F0F0;stroke-width:9.72"/>
	<line x1="2631.83" y1="1840.73" x2="2696.63" y2="1840.73" style="stroke:#F0F0F0;stroke-width:9.72"/>
	<line x1="2729.03" y1="1840.73" x2="2793.83" y2="1840.73" style="stroke:#F0F0F0;stroke-width:9.72"/>
	<line x1="2826.23" y1="1840.73" x2="2891.03" y2="1840.73" style="stroke:#F0F0F0;stroke-width:9.72"/>
	<line x1="2923.43" y1="1840.73" x2="2988.23" y2="1840.73" style="stroke:#F0F0F0;stroke-width:9.72"/>
	<line x1="3020.63" y1="1840.73" x2="3085.43" y2="1840.73" style="stroke:#F0F0F0;stroke-width:9.72"/>
	<line x1="3117.83" y1="1840.73" x2="3182.63" y2="1840.73" style="stroke:#F0F0F0;stroke-width:9.72"/>
	<line x1="3215.03" y1="1840.73" x2="3279.83" y2="1840.73" style="stroke:#F0F0F0;stroke-width:9.72"/>
	<line x1="3312.23" y1="1840.73" x2="3377.03" y2="1840.73" style="stroke:#F0F0F0;stroke-width:9.72"/>
	<line x1="3409.43" y1="1840.73" x2="3474.23" y2="1840.73" style="stroke:#F0F0F0;stroke-width:9.72"/>
	<line x1="3506.63" y1="1840.73" x2="3571.43" y2="1840.73" style="stroke:#F0F0F0;stroke-width:9.72"/>
	<line x1="3603.83" y1="1840.73" x2="3668.63" y2="1840.73" style="stroke:#F0F0F0;stroke-width:9.72"/>
	<line x1="3701.03" y1="1840.73" x2="3765.83" y2="1840.73" style="stroke:#F0F0F0;stroke-width:9.72"/>
	<line x1="3798.23" y1="1840.73" x2="3863.03" y2="1840.73" style="stroke:#F0F0F0;stroke-width:9.72"/>
	<line x1="3895.43" y1="1840.73" x2="3960.23" y2="1840.73" style="stroke:#F0F0F0;stroke-width:9.72"/>
	<line x1="3992.63" y1="1840.73" x2="4057.43" y2="1840.73" style="stroke:#F0F0F0;stroke-width:9.72"/>
	<line x1="4089.83" y1="1840.73" x2="4154.63" y2="1840.73" style="stroke:#F0F0F0;stroke-width:9.72"/>
	<line x1="4187.02" y1="1840.73" x2="4251.83" y2="1840.73" style="stroke:#F0F0F0;stroke-width:9.72"/>
	<line x1="4284.23" y1="1840.73" x2="4349.02" y2="1840.73" style="stroke:#F0F0F0;stroke-width:9.72"/>
	<line x1="4381.43" y1="1840.73" x2="4446.23" y2="1840.73" style="stroke:#F0F0F0;stroke-width:9.72"/>
	<line x1="4478.63" y1="1840.73" x2="4543.43" y2="1840.73" style="stroke:#F0F0F0;stroke-width:9.72"/>
	<line x1="4575.83" y1="1840.73" x2="4640.63" y2="1840.73" style="stroke:#F0F0F0;stroke-width:9.72"/>
	<line x1="4673.02" y1="1840.73" x2="4737.83" y2="1840.73" style="stroke:#F0F0F0;stroke-width:9.72"/>
	<line x1="4770.23" y1="1840.73" x2="4835.02" y2="1840.73" style="stroke:#F0F0F0;stroke-width:9.72"/>
	<line x1="4867.43" y1="1840.73" x2="4932.23" y2="1840.73" style="stroke:#F0F0F0;stroke-width:9.72"/>
	<line x1="4964.63" y1="1840.73" x2="5029.43" y2="1840.73" style="stroke:#F0F0F0;stroke-width:9.72"/>
	<line x1="5061.83" y1="1840.73" x2="5126.63" y2="1840.73" style="stroke:#F0F0F0;stroke-width:9.72"/>
	<line x1="5159.02" y1="1840.73" x2="5223.83" y2="1840.73" style="stroke:#F0F0F0;stroke-width:9.72"/>
	<line x1="5256.23" y1="1840.73" x2="5286.60" y2="1840.73" style="stroke:#F0F0F0;stroke-width:9.72"/>
	<line x1="590.63" y1="1426.78" x2="655.43" y2="1426.78" style="stroke:#F0F0F0;stroke-width:9.72"/>
	<line x1="687.83" y1="1426.78" x2="752.63" y2="1426.78" style="stroke:#F0F0F0;stroke-width:9.72"/>
	<line x1="785.03" y1="1426.78" x2="849.83" y2="1426.78" style="stroke:#F0F0F0;stroke-width:9.72"/>
	<line x1="882.23" y1="1426.78" x2="947.03" y2="1426.78" style="stroke:#F0F0F0;stroke-width:9.72"/>
	<line x1="979.43" y1="1426.78" x2="1044.22" y2="1426.78" style="stroke:#F0F0F0;stroke-width:9.72"/>
	<line x1="1076.63" y1="1426.78" x2="1141.43" y2="1426.78" style="stroke:#F0F0F0;stroke-width:9.72"/>
	<line x1="1173.83" y1="1426.78" x2="1238.63" y2="1426.78" style="stroke:#F0F0F0;stroke-width:9.72"/>
	<line x1="1271.03" y1="1426.78" x2="1335.83" y2="1426.78" style="stroke:#F0F0F0;stroke-width:9.72"/>
	<line x1="1368.23" y1="1426.78" x2="1433.03" y2="1426.78" style="stroke:#F0F0F0;stroke-width:9.72"/>
	<line x1="1465.43" y1="1426.78" x2="1530.23" y2="1426.78" style="stroke:#F0F0F0;stroke-width:9.72"/>
	<line x1="1562.63" y1="1426.78" x2="1627.43" y2="1426.78" style="stroke:#F0F0F0;stroke-width:9.72"/>
	<line x1="1659.83" y1="1426.78" x2="1724.63" y2="1426.78" style="stroke:#F0F0F0;stroke-width:9.72"/>
	<line x1="1757.03" y1="1426.78" x2="1821.83" y2="1426.78" style="stroke:#F0F0F0;stroke-width:9.72"/>
	<line x1="1854.23" y1="1426.78" x2="1919.03" y2="1426.78" style="stroke:#F0F0F0;stroke-width:9.72"/>
	<line x1="1951.43" y1="1426.78" x2="2016.23" y2="1426.78" style="stroke:#F0F0F0;stroke-width:9.72"/>
	<line x1="2048.63" y1="1426.78" x2="2113.43" y2="1426.78" style="stroke:#F0F0F0;stroke-width:9.72"/>
	<line x1="2145.82" y1="1426.78" x2="2210.63" y2="1426.78" style="stroke:#F0F0F0;stroke-width:9.72"/>
	<line x1="2243.03" y1="1426.78" x2="2307.82" y2="1426.78" style="stroke:#F0F0F0;stroke-width:9.72"/>
	<line x1="2340.23" y1="1426.78" x2="2405.03" y2="1426.78" style="stroke:#F0F0F0;stroke-width:9.72"/>
	<line x1="2437.43" y1="1426.78" x2="2502.23" y2="1426.78" style="stroke:#F0F0F0;stroke-width:9.72"/>
	<line x1="2534.63" y1="1426.78" x2="2599.43" y2="1426.78" style="stroke:#F0F0F0;stroke-width:9.72"/>
	<line x1="2631.83" y1="1426.78" x2="2696.63" y2="1426.78" style="stroke:#F0F0F0;stroke-width:9.72"/>
	<line x1="2729.03" y1="1426.78" x2="2793.83" y2="1426.78" style="stroke:#F0F0F0;stroke-width:9.72"/>
	<line x1="2826.23" y1="1426.78" x2="2891.03" y2="1426.78" style="stroke:#F0F0F0;stroke-width:9.72"/>
	<line x1="2923.43" y1="1426.78" x2="2988.23" y2="1426.78" style="stroke:#F0F0F0;stroke-width:9.72"/>
	<line x1="3020.63" y1="1426.78" x2="3085.43" y2="1426.78" style="stroke:#F0F0F0;stroke-width:9.72"/>
	<line x1="3117.83" y1="1426.78" x2="3182.63" y2="1426.78" style="stroke:#F0F0F0;stroke-width:9.72"/>
	<line x1="3215.03" y1="1426.78" x2="3279.83" y2="1426.78" style="stroke:#F0F0F0;stroke-width:9.72"/>
	<line x1="3312.23" y1="1426.78" x2="3377.03" y2="1426.78" style="stroke:#F0F0F0;stroke-width:9.72"/>
	<line x1="3409.43" y1="1426.78" x2="3474.23" y2="1426.78" style="stroke:#F0F0F0;stroke-width:9.72"/>
	<line x1="3506.63" y1="1426.78" x2="3571.43" y2="1426.78" style="stroke:#F0F0F0;stroke-width:9.72"/>
	<line x1="3603.83" y1="1426.78" x2="3668.63" y2="1426.78" style="stroke:#F0F0F0;stroke-width:9.72"/>
	<line x1="3701.03" y1="1426.78" x2="3765.83" y2="1426.78" style="stroke:#F0F0F0;stroke-width:9.72"/>
	<line x1="3798.23" y1="1426.78" x2="3863.03" y2="1426.78" style="stroke:#F0F0F0;stroke-width:9.72"/>
	<line x1="3895.43" y1="1426.78" x2="3960.23" y2="1426.78" style="stroke:#F0F0F0;stroke-width:9.72"/>
	<line x1="3992.63" y1="1426.78" x2="4057.43" y2="1426.78" style="stroke:#F0F0F0;stroke-width:9.72"/>
	<line x1="4089.83" y1="1426.78" x2="4154.63" y2="1426.78" style="stroke:#F0F0F0;stroke-width:9.72"/>
	<line x1="4187.02" y1="1426.78" x2="4251.83" y2="1426.78" style="stroke:#F0F0F0;stroke-width:9.72"/>
	<line x1="4284.23" y1="1426.78" x2="4349.02" y2="1426.78" style="stroke:#F0F0F0;stroke-width:9.72"/>
	<line x1="4381.43" y1="1426.78" x2="4446.23" y2="1426.78" style="stroke:#F0F0F0;stroke-width:9.72"/>
	<line x1="4478.63" y1="1426.78" x2="4543.43" y2="1426.78" style="stroke:#F0F0F0;stroke-width:9.72"/>
	<line x1="4575.83" y1="1426.78" x2="4640.63" y2="1426.78" style="stroke:#F0F0F0;stroke-width:9.72"/>
	<line x1="4673.02" y1="1426.78" x2="4737.83" y2="1426.78" style="stroke:#F0F0F0;stroke-width:9.72"/>
	<line x1="4770.23" y1="1426.78" x2="4835.02" y2="1426.78" style="stroke:#F0F0F0;stroke-width:9.72"/>
	<line x1="4867.43" y1="1426.78" x2="4932.23" y2="1426.78" style="stroke:#F0F0F0;stroke-width:9.72"/>
	<line x1="4964.63" y1="1426.78" x2="5029.43" y2="1426.78" style="stroke:#F0F0F0;stroke-width:9.72"/>
	<line x1="5061.83" y1="1426.78" x2="5126.63" y2="1426.78" style="stroke:#F0F0F0;stroke-width:9.72"/>
	<line x1="5159.02" y1="1426.78" x2="5223.83" y2="1426.78" style="stroke:#F0F0F0;stroke-width:9.72"/>
	<line x1="5256.23" y1="1426.78" x2="5286.60" y2="1426.78" style="stroke:#F0F0F0;stroke-width:9.72"/>
	<line x1="590.63" y1="1012.67" x2="655.43" y2="1012.67" style="stroke:#F0F0F0;stroke-width:9.72"/>
	<line x1="687.83" y1="1012.67" x2="752.63" y2="1012.67" style="stroke:#F0F0F0;stroke-width:9.72"/>
	<line x1="785.03" y1="1012.67" x2="849.83" y2="1012.67" style="stroke:#F0F0F0;stroke-width:9.72"/>
	<line x1="882.23" y1="1012.67" x2="947.03" y2="1012.67" style="stroke:#F0F0F0;stroke-width:9.72"/>
	<line x1="979.43" y1="1012.67" x2="1044.22" y2="1012.67" style="stroke:#F0F0F0;stroke-width:9.72"/>
	<line x1="1076.63" y1="1012.67" x2="1141.43" y2="1012.67" style="stroke:#F0F0F0;stroke-width:9.72"/>
	<line x1="1173.83" y1="1012.67" x2="1238.63" y2="1012.67" style="stroke:#F0F0F0;stroke-width:9.72"/>
	<line x1="1271.03" y1="1012.67" x2="1335.83" y2="1012.67" style="stroke:#F0F0F0;stroke-width:9.72"/>
	<line x1="1368.23" y1="1012.67" x2="1433.03" y2="1012.67" style="stroke:#F0F0F0;stroke-width:9.72"/>
	<line x1="1465.43" y1="1012.67" x2="1530.23" y2="1012.67" style="stroke:#F0F0F0;stroke-width:9.72"/>
	<line x1="1562.63" y1="1012.67" x2="1627.43" y2="1012.67" style="stroke:#F0F0F0;stroke-width:9.72"/>
	<line x1="1659.83" y1="1012.67" x2="1724.63" y2="1012.67" style="stroke:#F0F0F0;stroke-width:9.72"/>
	<line x1="1757.03" y1="1012.67" x2="1821.83" y2="1012.67" style="stroke:#F0F0F0;stroke-width:9.72"/>
	<line x1="1854.23" y1="1012.67" x2="1919.03" y2="1012.67" style="stroke:#F0F0F0;stroke-width:9.72"/>
	<line x1="1951.43" y1="1012.67" x2="2016.23" y2="1012.67" style="stroke:#F0F0F0;stroke-width:9.72"/>
	<line x1="2048.63" y1="1012.67" x2="2113.43" y2="1012.67" style="stroke:#F0F0F0;stroke-width:9.72"/>
	<line x1="2145.82" y1="1012.67" x2="2210.63" y2="1012.67" style="stroke:#F0F0F0;stroke-width:9.72"/>
	<line x1="2243.03" y1="1012.67" x2="2307.82" y2="1012.67" style="stroke:#F0F0F0;stroke-width:9.72"/>
	<line x1="2340.23" y1="1012.67" x2="2405.03" y2="1012.67" style="stroke:#F0F0F0;stroke-width:9.72"/>
	<line x1="2437.43" y1="1012.67" x2="2502.23" y2="1012.67" style="stroke:#F0F0F0;stroke-width:9.72"/>
	<line x1="2534.63" y1="1012.67" x2="2599.43" y2="1012.67" style="stroke:#F0F0F0;stroke-width:9.72"/>
	<line x1="2631.83" y1="1012.67" x2="2696.63" y2="1012.67" style="stroke:#F0F0F0;stroke-width:9.72"/>
	<line x1="2729.03" y1="1012.67" x2="2793.83" y2="1012.67" style="stroke:#F0F0F0;stroke-width:9.72"/>
	<line x1="2826.23" y1="1012.67" x2="2891.03" y2="1012.67" style="stroke:#F0F0F0;stroke-width:9.72"/>
	<line x1="2923.43" y1="1012.67" x2="2988.23" y2="1012.67" style="stroke:#F0F0F0;stroke-width:9.72"/>
	<line x1="3020.63" y1="1012.67" x2="3085.43" y2="1012.67" style="stroke:#F0F0F0;stroke-width:9.72"/>
	<line x1="3117.83" y1="1012.67" x2="3182.63" y2="1012.67" style="stroke:#F0F0F0;stroke-width:9.72"/>
	<line x1="3215.03" y1="1012.67" x2="3279.83" y2="1012.67" style="stroke:#F0F0F0;stroke-width:9.72"/>
	<line x1="3312.23" y1="1012.67" x2="3377.03" y2="1012.67" style="stroke:#F0F0F0;stroke-width:9.72"/>
	<line x1="3409.43" y1="1012.67" x2="3474.23" y2="1012.67" style="stroke:#F0F0F0;stroke-width:9.72"/>
	<line x1="3506.63" y1="1012.67" x2="3571.43" y2="1012.67" style="stroke:#F0F0F0;stroke-width:9.72"/>
	<line x1="3603.83" y1="1012.67" x2="3668.63" y2="1012.67" style="stroke:#F0F0F0;stroke-width:9.72"/>
	<line x1="3701.03" y1="1012.67" x2="3765.83" y2="1012.67" style="stroke:#F0F0F0;stroke-width:9.72"/>
	<line x1="3798.23" y1="1012.67" x2="3863.03" y2="1012.67" style="stroke:#F0F0F0;stroke-width:9.72"/>
	<line x1="3895.43" y1="1012.67" x2="3960.23" y2="1012.67" style="stroke:#F0F0F0;stroke-width:9.72"/>
	<line x1="3992.63" y1="1012.67" x2="4057.43" y2="1012.67" style="stroke:#F0F0F0;stroke-width:9.72"/>
	<line x1="4089.83" y1="1012.67" x2="4154.63" y2="1012.67" style="stroke:#F0F0F0;stroke-width:9.72"/>
	<line x1="4187.02" y1="1012.67" x2="4251.83" y2="1012.67" style="stroke:#F0F0F0;stroke-width:9.72"/>
	<line x1="4284.23" y1="1012.67" x2="4349.02" y2="1012.67" style="stroke:#F0F0F0;stroke-width:9.72"/>
	<line x1="4381.43" y1="1012.67" x2="4446.23" y2="1012.67" style="stroke:#F0F0F0;stroke-width:9.72"/>
	<line x1="4478.63" y1="1012.67" x2="4543.43" y2="1012.67" style="stroke:#F0F0F0;stroke-width:9.72"/>
	<line x1="4575.83" y1="1012.67" x2="4640.63" y2="1012.67" style="stroke:#F0F0F0;stroke-width:9.72"/>
	<line x1="4673.02" y1="1012.67" x2="4737.83" y2="1012.67" style="stroke:#F0F0F0;stroke-width:9.72"/>
	<line x1="4770.23" y1="1012.67" x2="4835.02" y2="1012.67" style="stroke:#F0F0F0;stroke-width:9.72"/>
	<line x1="4867.43" y1="1012.67" x2="4932.23" y2="1012.67" style="stroke:#F0F0F0;stroke-width:9.72"/>
	<line x1="4964.63" y1="1012.67" x2="5029.43" y2="1012.67" style="stroke:#F0F0F0;stroke-width:9.72"/>
	<line x1="5061.83" y1="1012.67" x2="5126.63" y2="1012.67" style="stroke:#F0F0F0;stroke-width:9.72"/>
	<line x1="5159.02" y1="1012.67" x2="5223.83" y2="1012.67" style="stroke:#F0F0F0;stroke-width:9.72"/>
	<line x1="5256.23" y1="1012.67" x2="5286.60" y2="1012.67" style="stroke:#F0F0F0;stroke-width:9.72"/>
	<line x1="590.63" y1="598.72" x2="655.43" y2="598.72" style="stroke:#F0F0F0;stroke-width:9.72"/>
	<line x1="687.83" y1="598.72" x2="752.63" y2="598.72" style="stroke:#F0F0F0;stroke-width:9.72"/>
	<line x1="785.03" y1="598.72" x2="849.83" y2="598.72" style="stroke:#F0F0F0;stroke-width:9.72"/>
	<line x1="882.23" y1="598.72" x2="947.03" y2="598.72" style="stroke:#F0F0F0;stroke-width:9.72"/>
	<line x1="979.43" y1="598.72" x2="1044.22" y2="598.72" style="stroke:#F0F0F0;stroke-width:9.72"/>
	<line x1="1076.63" y1="598.72" x2="1141.43" y2="598.72" style="stroke:#F0F0F0;stroke-width:9.72"/>
	<line x1="1173.83" y1="598.72" x2="1238.63" y2="598.72" style="stroke:#F0F0F0;stroke-width:9.72"/>
	<line x1="1271.03" y1="598.72" x2="1335.83" y2="598.72" style="stroke:#F0F0F0;stroke-width:9.72"/>
	<line x1="1368.23" y1="598.72" x2="1433.03" y2="598.72" style="stroke:#F0F0F0;stroke-width:9.72"/>
	<line x1="1465.43" y1="598.72" x2="1530.23" y2="598.72" style="stroke:#F0F0F0;stroke-width:9.72"/>
	<line x1="1562.63" y1="598.72" x2="1627.43" y2="598.72" style="stroke:#F0F0F0;stroke-width:9.72"/>
	<line x1="1659.83" y1="598.72" x2="1724.63" y2="598.72" style="stroke:#F0F0F0;stroke-width:9.72"/>
	<line x1="1757.03" y1="598.72" x2="1821.83" y2="598.72" style="stroke:#F0F0F0;stroke-width:9.72"/>
	<line x1="1854.23" y1="598.72" x2="1919.03" y2="598.72" style="stroke:#F0F0F0;stroke-width:9.72"/>
	<line x1="1951.43" y1="598.72" x2="2016.23" y2="598.72" style="stroke:#F0F0F0;stroke-width:9.72"/>
	<line x1="2048.63" y1="598.72" x2="2113.43" y2="598.72" style="stroke:#F0F0F0;stroke-width:9.72"/>
	<line x1="2145.82" y1="598.72" x2="2210.63" y2="598.72" style="stroke:#F0F0F0;stroke-width:9.72"/>
	<line x1="2243.03" y1="598.72" x2="2307.82" y2="598.72" style="stroke:#F0F0F0;stroke-width:9.72"/>
	<line x1="2340.23" y1="598.72" x2="2405.03" y2="598.72" style="stroke:#F0F0F0;stroke-width:9.72"/>
	<line x1="2437.43" y1="598.72" x2="2502.23" y2="598.72" style="stroke:#F0F0F0;stroke-width:9.72"/>
	<line x1="2534.63" y1="598.72" x2="2599.43" y2="598.72" style="stroke:#F0F0F0;stroke-width:9.72"/>
	<line x1="2631.83" y1="598.72" x2="2696.63" y2="598.72" style="stroke:#F0F0F0;stroke-width:9.72"/>
	<line x1="2729.03" y1="598.72" x2="2793.83" y2="598.72" style="stroke:#F0F0F0;stroke-width:9.72"/>
	<line x1="2826.23" y1="598.72" x2="2891.03" y2="598.72" style="stroke:#F0F0F0;stroke-width:9.72"/>
	<line x1="2923.43" y1="598.72" x2="2988.23" y2="598.72" style="stroke:#F0F0F0;stroke-width:9.72"/>
	<line x1="3020.63" y1="598.72" x2="3085.43" y2="598.72" style="stroke:#F0F0F0;stroke-width:9.72"/>
	<line x1="3117.83" y1="598.72" x2="3182.63" y2="598.72" style="stroke:#F0F0F0;stroke-width:9.72"/>
	<line x1="3215.03" y1="598.72" x2="3279.83" y2="598.72" style="stroke:#F0F0F0;stroke-width:9.72"/>
	<line x1="3312.23" y1="598.72" x2="3377.03" y2="598.72" style="stroke:#F0F0F0;stroke-width:9.72"/>
	<line x1="3409.43" y1="598.72" x2="3474.23" y2="598.72" style="stroke:#F0F0F0;stroke-width:9.72"/>
	<line x1="3506.63" y1="598.72" x2="3571.43" y2="598.72" style="stroke:#F0F0F0;stroke-width:9.72"/>
	<line x1="3603.83" y1="598.72" x2="3668.63" y2="598.72" style="stroke:#F0F0F0;stroke-width:9.72"/>
	<line x1="3701.03" y1="598.72" x2="3765.83" y2="598.72" style="stroke:#F0F0F0;stroke-width:9.72"/>
	<line x1="3798.23" y1="598.72" x2="3863.03" y2="598.72" style="stroke:#F0F0F0;stroke-width:9.72"/>
	<line x1="3895.43" y1="598.72" x2="3960.23" y2="598.72" style="stroke:#F0F0F0;stroke-width:9.72"/>
	<line x1="3992.63" y1="598.72" x2="4057.43" y2="598.72" style="stroke:#F0F0F0;stroke-width:9.72"/>
	<line x1="4089.83" y1="598.72" x2="4154.63" y2="598.72" style="stroke:#F0F0F0;stroke-width:9.72"/>
	<line x1="4187.02" y1="598.72" x2="4251.83" y2="598.72" style="stroke:#F0F0F0;stroke-width:9.72"/>
	<line x1="4284.23" y1="598.72" x2="4349.02" y2="598.72" style="stroke:#F0F0F0;stroke-width:9.72"/>
	<line x1="4381.43" y1="598.72" x2="4446.23" y2="598.72" style="stroke:#F0F0F0;stroke-width:9.72"/>
	<line x1="4478.63" y1="598.72" x2="4543.43" y2="598.72" style="stroke:#F0F0F0;stroke-width:9.72"/>
	<line x1="4575.83" y1="598.72" x2="4640.63" y2="598.72" style="stroke:#F0F0F0;stroke-width:9.72"/>
	<line x1="4673.02" y1="598.72" x2="4737.83" y2="598.72" style="stroke:#F0F0F0;stroke-width:9.72"/>
	<line x1="4770.23" y1="598.72" x2="4835.02" y2="598.72" style="stroke:#F0F0F0;stroke-width:9.72"/>
	<line x1="4867.43" y1="598.72" x2="4932.23" y2="598.72" style="stroke:#F0F0F0;stroke-width:9.72"/>
	<line x1="4964.63" y1="598.72" x2="5029.43" y2="598.72" style="stroke:#F0F0F0;stroke-width:9.72"/>
	<line x1="5061.83" y1="598.72" x2="5126.63" y2="598.72" style="stroke:#F0F0F0;stroke-width:9.72"/>
	<line x1="5159.02" y1="598.72" x2="5223.83" y2="598.72" style="stroke:#F0F0F0;stroke-width:9.72"/>
	<line x1="5256.23" y1="598.72" x2="5286.60" y2="598.72" style="stroke:#F0F0F0;stroke-width:9.72"/>
	<line x1="590.63" y1="184.61" x2="655.43" y2="184.61" style="stroke:#F0F0F0;stroke-width:9.72"/>
	<line x1="687.83" y1="184.61" x2="752.63" y2="184.61" style="stroke:#F0F0F0;stroke-width:9.72"/>
	<line x1="785.03" y1="184.61" x2="849.83" y2="184.61" style="stroke:#F0F0F0;stroke-width:9.72"/>
	<line x1="882.23" y1="184.61" x2="947.03" y2="184.61" style="stroke:#F0F0F0;stroke-width:9.72"/>
	<line x1="979.43" y1="184.61" x2="1044.22" y2="184.61" style="stroke:#F0F0F0;stroke-width:9.72"/>
	<line x1="1076.63" y1="184.61" x2="1141.43" y2="184.61" style="stroke:#F0F0F0;stroke-width:9.72"/>
	<line x1="1173.83" y1="184.61" x2="1238.63" y2="184.61" style="stroke:#F0F0F0;stroke-width:9.72"/>
	<line x1="1271.03" y1="184.61" x2="1335.83" y2="184.61" style="stroke:#F0F0F0;stroke-width:9.72"/>
	<line x1="1368.23" y1="184.61" x2="1433.03" y2="184.61" style="stroke:#F0F0F0;stroke-width:9.72"/>
	<line x1="1465.43" y1="184.61" x2="1530.23" y2="184.61" style="stroke:#F0F0F0;stroke-width:9.72"/>
	<line x1="1562.63" y1="184.61" x2="1627.43" y2="184.61" style="stroke:#F0F0F0;stroke-width:9.72"/>
	<line x1="1659.83" y1="184.61" x2="1724.63" y2="184.61" style="stroke:#F0F0F0;stroke-width:9.72"/>
	<line x1="1757.03" y1="184.61" x2="1821.83" y2="184.61" style="stroke:#F0F0F0;stroke-width:9.72"/>
	<line x1="1854.23" y1="184.61" x2="1919.03" y2="184.61" style="stroke:#F0F0F0;stroke-width:9.72"/>
	<line x1="1951.43" y1="184.61" x2="2016.23" y2="184.61" style="stroke:#F0F0F0;stroke-width:9.72"/>
	<line x1="2048.63" y1="184.61" x2="2113.43" y2="184.61" style="stroke:#F0F0F0;stroke-width:9.72"/>
	<line x1="2145.82" y1="184.61" x2="2210.63" y2="184.61" style="stroke:#F0F0F0;stroke-width:9.72"/>
	<line x1="2243.03" y1="184.61" x2="2307.82" y2="184.61" style="stroke:#F0F0F0;stroke-width:9.72"/>
	<line x1="2340.23" y1="184.61" x2="2405.03" y2="184.61" style="stroke:#F0F0F0;stroke-width:9.72"/>
	<line x1="2437.43" y1="184.61" x2="2502.23" y2="184.61" style="stroke:#F0F0F0;stroke-width:9.72"/>
	<line x1="2534.63" y1="184.61" x2="2599.43" y2="184.61" style="stroke:#F0F0F0;stroke-width:9.72"/>
	<line x1="2631.83" y1="184.61" x2="2696.63" y2="184.61" style="stroke:#F0F0F0;stroke-width:9.72"/>
	<line x1="2729.03" y1="184.61" x2="2793.83" y2="184.61" style="stroke:#F0F0F0;stroke-width:9.72"/>
	<line x1="2826.23" y1="184.61" x2="2891.03" y2="184.61" style="stroke:#F0F0F0;stroke-width:9.72"/>
	<line x1="2923.43" y1="184.61" x2="2988.23" y2="184.61" style="stroke:#F0F0F0;stroke-width:9.72"/>
	<line x1="3020.63" y1="184.61" x2="3085.43" y2="184.61" style="stroke:#F0F0F0;stroke-width:9.72"/>
	<line x1="3117.83" y1="184.61" x2="3182.63" y2="184.61" style="stroke:#F0F0F0;stroke-width:9.72"/>
	<line x1="3215.03" y1="184.61" x2="3279.83" y2="184.61" style="stroke:#F0F0F0;stroke-width:9.72"/>
	<line x1="3312.23" y1="184.61" x2="3377.03" y2="184.61" style="stroke:#F0F0F0;stroke-width:9.72"/>
	<line x1="3409.43" y1="184.61" x2="3474.23" y2="184.61" style="stroke:#F0F0F0;stroke-width:9.72"/>
	<line x1="3506.63" y1="184.61" x2="3571.43" y2="184.61" style="stroke:#F0F0F0;stroke-width:9.72"/>
	<line x1="3603.83" y1="184.61" x2="3668.63" y2="184.61" style="stroke:#F0F0F0;stroke-width:9.72"/>
	<line x1="3701.03" y1="184.61" x2="3765.83" y2="184.61" style="stroke:#F0F0F0;stroke-width:9.72"/>
	<line x1="3798.23" y1="184.61" x2="3863.03" y2="184.61" style="stroke:#F0F0F0;stroke-width:9.72"/>
	<line x1="3895.43" y1="184.61" x2="3960.23" y2="184.61" style="stroke:#F0F0F0;stroke-width:9.72"/>
	<line x1="3992.63" y1="184.61" x2="4057.43" y2="184.61" style="stroke:#F0F0F0;stroke-width:9.72"/>
	<line x1="4089.83" y1="184.61" x2="4154.63" y2="184.61" style="stroke:#F0F0F0;stroke-width:9.72"/>
	<line x1="4187.02" y1="184.61" x2="4251.83" y2="184.61" style="stroke:#F0F0F0;stroke-width:9.72"/>
	<line x1="4284.23" y1="184.61" x2="4349.02" y2="184.61" style="stroke:#F0F0F0;stroke-width:9.72"/>
	<line x1="4381.43" y1="184.61" x2="4446.23" y2="184.61" style="stroke:#F0F0F0;stroke-width:9.72"/>
	<line x1="4478.63" y1="184.61" x2="4543.43" y2="184.61" style="stroke:#F0F0F0;stroke-width:9.72"/>
	<line x1="4575.83" y1="184.61" x2="4640.63" y2="184.61" style="stroke:#F0F0F0;stroke-width:9.72"/>
	<line x1="4673.02" y1="184.61" x2="4737.83" y2="184.61" style="stroke:#F0F0F0;stroke-width:9.72"/>
	<line x1="4770.23" y1="184.61" x2="4835.02" y2="184.61" style="stroke:#F0F0F0;stroke-width:9.72"/>
	<line x1="4867.43" y1="184.61" x2="4932.23" y2="184.61" style="stroke:#F0F0F0;stroke-width:9.72"/>
	<line x1="4964.63" y1="184.61" x2="5029.43" y2="184.61" style="stroke:#F0F0F0;stroke-width:9.72"/>
	<line x1="5061.83" y1="184.61" x2="5126.63" y2="184.61" style="stroke:#F0F0F0;stroke-width:9.72"/>
	<line x1="5159.02" y1="184.61" x2="5223.83" y2="184.61" style="stroke:#F0F0F0;stroke-width:9.72"/>
	<line x1="5256.23" y1="184.61" x2="5286.60" y2="184.61" style="stroke:#F0F0F0;stroke-width:9.72"/>
	<line x1="1075.78" y1="2326.05" x2="1075.78" y2="2261.25" style="stroke:#F0F0F0;stroke-width:9.72"/>
	<line x1="1075.78" y1="2228.85" x2="1075.78" y2="2164.05" style="stroke:#F0F0F0;stroke-width:9.72"/>
	<line x1="1075.78" y1="2131.65" x2="1075.78" y2="2066.85" style="stroke:#F0F0F0;stroke-width:9.72"/>
	<line x1="1075.78" y1="2034.45" x2="1075.78" y2="1969.65" style="stroke:#F0F0F0;stroke-width:9.72"/>
	<line x1="1075.78" y1="1937.25" x2="1075.78" y2="1872.45" style="stroke:#F0F0F0;stroke-width:9.72"/>
	<line x1="1075.78" y1="1840.05" x2="1075.78" y2="1775.25" style="stroke:#F0F0F0;stroke-width:9.72"/>
	<line x1="1075.78" y1="1742.85" x2="1075.78" y2="1678.05" style="stroke:#F0F0F0;stroke-width:9.72"/>
	<line x1="1075.78" y1="1645.65" x2="1075.78" y2="1580.85" style="stroke:#F0F0F0;stroke-width:9.72"/>
	<line x1="1075.78" y1="1548.45" x2="1075.78" y2="1483.65" style="stroke:#F0F0F0;stroke-width:9.72"/>
	<line x1="1075.78" y1="1451.25" x2="1075.78" y2="1386.45" style="stroke:#F0F0F0;stroke-width:9.72"/>
	<line x1="1075.78" y1="1354.05" x2="1075.78" y2="1289.25" style="stroke:#F0F0F0;stroke-width:9.72"/>
	<line x1="1075.78" y1="1256.85" x2="1075.78" y2="1192.05" style="stroke:#F0F0F0;stroke-width:9.72"/>
	<line x1="1075.78" y1="1159.65" x2="1075.78" y2="1094.85" style="stroke:#F0F0F0;stroke-width:9.72"/>
	<line x1="1075.78" y1="1062.45" x2="1075.78" y2="997.65" style="stroke:#F0F0F0;stroke-width:9.72"/>
	<line x1="1075.78" y1="965.25" x2="1075.78" y2="900.45" style="stroke:#F0F0F0;stroke-width:9.72"/>
	<line x1="1075.78" y1="868.05" x2="1075.78" y2="803.25" style="stroke:#F0F0F0;stroke-width:9.72"/>
	<line x1="1075.78" y1="770.85" x2="1075.78" y2="706.05" style="stroke:#F0F0F0;stroke-width:9.72"/>
	<line x1="1075.78" y1="673.65" x2="1075.78" y2="608.85" style="stroke:#F0F0F0;stroke-width:9.72"/>
	<line x1="1075.78" y1="576.45" x2="1075.78" y2="511.65" style="stroke:#F0F0F0;stroke-width:9.72"/>
	<line x1="1075.78" y1="479.25" x2="1075.78" y2="414.45" style="stroke:#F0F0F0;stroke-width:9.72"/>
	<line x1="1075.78" y1="382.05" x2="1075.78" y2="317.25" style="stroke:#F0F0F0;stroke-width:9.72"/>
	<line x1="1075.78" y1="284.85" x2="1075.78" y2="220.05" style="stroke:#F0F0F0;stroke-width:9.72"/>
	<line x1="1075.78" y1="187.65" x2="1075.78" y2="122.85" style="stroke:#F0F0F0;stroke-width:9.72"/>
	<line x1="1903.67" y1="2326.05" x2="1903.67" y2="2261.25" style="stroke:#F0F0F0;stroke-width:9.72"/>
	<line x1="1903.67" y1="2228.85" x2="1903.67" y2="2164.05" style="stroke:#F0F0F0;stroke-width:9.72"/>
	<line x1="1903.67" y1="2131.65" x2="1903.67" y2="2066.85" style="stroke:#F0F0F0;stroke-width:9.72"/>
	<line x1="1903.67" y1="2034.45" x2="1903.67" y2="1969.65" style="stroke:#F0F0F0;stroke-width:9.72"/>
	<line x1="1903.67" y1="1937.25" x2="1903.67" y2="1872.45" style="stroke:#F0F0F0;stroke-width:9.72"/>
	<line x1="1903.67" y1="1840.05" x2="1903.67" y2="1775.25" style="stroke:#F0F0F0;stroke-width:9.72"/>
	<line x1="1903.67" y1="1742.85" x2="1903.67" y2="1678.05" style="stroke:#F0F0F0;stroke-width:9.72"/>
	<line x1="1903.67" y1="1645.65" x2="1903.67" y2="1580.85" style="stroke:#F0F0F0;stroke-width:9.72"/>
	<line x1="1903.67" y1="1548.45" x2="1903.67" y2="1483.65" style="stroke:#F0F0F0;stroke-width:9.72"/>
	<line x1="1903.67" y1="1451.25" x2="1903.67" y2="1386.45" style="stroke:#F0F0F0;stroke-width:9.72"/>
	<line x1="1903.67" y1="1354.05" x2="1903.67" y2="1289.25" style="stroke:#F0F0F0;stroke-width:9.72"/>
	<line x1="1903.67" y1="1256.85" x2="1903.67" y2="1192.05" style="stroke:#F0F0F0;stroke-width:9.72"/>
	<line x1="1903.67" y1="1159.65" x2="1903.67" y2="1094.85" style="stroke:#F0F0F0;stroke-width:9.72"/>
	<line x1="1903.67" y1="1062.45" x2="1903.67" y2="997.65" style="stroke:#F0F0F0;stroke-width:9.72"/>
	<line x1="1903.67" y1="965.25" x2="1903.67" y2="900.45" style="stroke:#F0F0F0;stroke-width:9.72"/>
	<line x1="1903.67" y1="868.05" x2="1903.67" y2="803.25" style="stroke:#F0F0F0;stroke-width:9.72"/>
	<line x1="1903.67" y1="770.85" x2="1903.67" y2="706.05" style="stroke:#F0F0F0;stroke-width:9.72"/>
	<line x1="1903.67" y1="673.65" x2="1903.67" y2="608.85" style="stroke:#F0F0F0;stroke-width:9.72"/>
	<line x1="1903.67" y1="576.45" x2="1903.67" y2="511.65" style="stroke:#F0F0F0;stroke-width:9.72"/>
	<line x1="1903.67" y1="479.25" x2="1903.67" y2="414.45" style="stroke:#F0F0F0;stroke-width:9.72"/>
	<line x1="1903.67" y1="382.05" x2="1903.67" y2="317.25" style="stroke:#F0F0F0;stroke-width:9.72"/>
	<line x1="1903.67" y1="284.85" x2="1903.67" y2="220.05" style="stroke:#F0F0F0;stroke-width:9.72"/>
	<line x1="1903.67" y1="187.65" x2="1903.67" y2="122.85" style="stroke:#F0F0F0;stroke-width:9.72"/>
	<line x1="2731.56" y1="2326.05" x2="2731.56" y2="2261.25" style="stroke:#F0F0F0;stroke-width:9.72"/>
	<line x1="2731.56" y1="2228.85" x2="2731.56" y2="2164.05" style="stroke:#F0F0F0;stroke-width:9.72"/>
	<line x1="2731.56" y1="2131.65" x2="2731.56" y2="2066.85" style="stroke:#F0F0F0;stroke-width:9.72"/>
	<line x1="2731.56" y1="2034.45" x2="2731.56" y2="1969.65" style="stroke:#F0F0F0;stroke-width:9.72"/>
	<line x1="2731.56" y1="1937.25" x2="2731.56" y2="1872.45" style="stroke:#F0F0F0;stroke-width:9.72"/>
	<line x1="2731.56" y1="1840.05" x2="2731.56" y2="1775.25" style="stroke:#F0F0F0;stroke-width:9.72"/>
	<line x1="2731.56" y1="1742.85" x2="2731.56" y2="1678.05" style="stroke:#F0F0F0;stroke-width:9.72"/>
	<line x1="2731.56" y1="1645.65" x2="2731.56" y2="1580.85" style="stroke:#F0F0F0;stroke-width:9.72"/>
	<line x1="2731.56" y1="1548.45" x2="2731.56" y2="1483.65" style="stroke:#F0F0F0;stroke-width:9.72"/>
	<line x1="2731.56" y1="1451.25" x2="2731.56" y2="1386.45" style="stroke:#F0F0F0;stroke-width:9.72"/>
	<line x1="2731.56" y1="1354.05" x2="2731.56" y2="1289.25" style="stroke:#F0F0F0;stroke-width:9.72"/>
	<line x1="2731.56" y1="1256.85" x2="2731.56" y2="1192.05" style="stroke:#F0F0F0;stroke-width:9.72"/>
	<line x1="2731.56" y1="1159.65" x2="2731.56" y2="1094.85" style="stroke:#F0F0F0;stroke-width:9.72"/>
	<line x1="2731.56" y1="1062.45" x2="2731.56" y2="997.65" style="stroke:#F0F0F0;stroke-width:9.72"/>
	<line x1="2731.56" y1="965.25" x2="2731.56" y2="900.45" style="stroke:#F0F0F0;stroke-width:9.72"/>
	<line x1="2731.56" y1="868.05" x2="2731.56" y2="803.25" style="stroke:#F0F0F0;stroke-width:9.72"/>
	<line x1="2731.56" y1="770.85" x2="2731.56" y2="706.05" style="stroke:#F0F0F0;stroke-width:9.72"/>
	<line x1="2731.56" y1="673.65" x2="2731.56" y2="608.85" style="stroke:#F0F0F0;stroke-width:9.72"/>
	<line x1="2731.56" y1="576.45" x2="2731.56" y2="511.65" style="stroke:#F0F0F0;stroke-width:9.72"/>
	<line x1="2731.56" y1="479.25" x2="2731.56" y2="414.45" style="stroke:#F0F0F0;stroke-width:9.72"/>
	<line x1="2731.56" y1="382.05" x2="2731.56" y2="317.25" style="stroke:#F0F0F0;stroke-width:9.72"/>
	<line x1="2731.56" y1="284.85" x2="2731.56" y2="220.05" style="stroke:#F0F0F0;stroke-width:9.72"/>
	<line x1="2731.56" y1="187.65" x2="2731.56" y2="122.85" style="stroke:#F0F0F0;stroke-width:9.72"/>
	<line x1="3559.44" y1="2326.05" x2="3559.44" y2="2261.25" style="stroke:#F0F0F0;stroke-width:9.72"/>
	<line x1="3559.44" y1="2228.85" x2="3559.44" y2="2164.05" style="stroke:#F0F0F0;stroke-width:9.72"/>
	<line x1="3559.44" y1="2131.65" x2="3559.44" y2="2066.85" style="stroke:#F0F0F0;stroke-width:9.72"/>
	<line x1="3559.44" y1="2034.45" x2="3559.44" y2="1969.65" style="stroke:#F0F0F0;stroke-width:9.72"/>
	<line x1="3559.44" y1="1937.25" x2="3559.44" y2="1872.45" style="stroke:#F0F0F0;stroke-width:9.72"/>
	<line x1="3559.44" y1="1840.05" x2="3559.44" y2="1775.25" style="stroke:#F0F0F0;stroke-width:9.72"/>
	<line x1="3559.44" y1="1742.85" x2="3559.44" y2="1678.05" style="stroke:#F0F0F0;stroke-width:9.72"/>
	<line x1="3559.44" y1="1645.65" x2="3559.44" y2="1580.85" style="stroke:#F0F0F0;stroke-width:9.72"/>
	<line x1="3559.44" y1="1548.45" x2="3559.44" y2="1483.65" style="stroke:#F0F0F0;stroke-width:9.72"/>
	<line x1="3559.44" y1="1451.25" x2="3559.44" y2="1386.45" style="stroke:#F0F0F0;stroke-width:9.72"/>
	<line x1="3559.44" y1="1354.05" x2="3559.44" y2="1289.25" style="stroke:#F0F0F0;stroke-width:9.72"/>
	<line x1="3559.44" y1="1256.85" x2="3559.44" y2="1192.05" style="stroke:#F0F0F0;stroke-width:9.72"/>
	<line x1="3559.44" y1="1159.65" x2="3559.44" y2="1094.85" style="stroke:#F0F0F0;stroke-width:9.72"/>
	<line x1="3559.44" y1="1062.45" x2="3559.44" y2="997.65" style="stroke:#F0F0F0;stroke-width:9.72"/>
	<line x1="3559.44" y1="965.25" x2="3559.44" y2="900.45" style="stroke:#F0F0F0;stroke-width:9.72"/>
	<line x1="3559.44" y1="868.05" x2="3559.44" y2="803.25" style="stroke:#F0F0F0;stroke-width:9.72"/>
	<line x1="3559.44" y1="770.85" x2="3559.44" y2="706.05" style="stroke:#F0F0F0;stroke-width:9.72"/>
	<line x1="3559.44" y1="673.65" x2="3559.44" y2="608.85" style="stroke:#F0F0F0;stroke-width:9.72"/>
	<line x1="3559.44" y1="576.45" x2="3559.44" y2="511.65" style="stroke:#F0F0F0;stroke-width:9.72"/>
	<line x1="3559.44" y1="479.25" x2="3559.44" y2="414.45" style="stroke:#F0F0F0;stroke-width:9.72"/>
	<line x1="3559.44" y1="382.05" x2="3559.44" y2="317.25" style="stroke:#F0F0F0;stroke-width:9.72"/>
	<line x1="3559.44" y1="284.85" x2="3559.44" y2="220.05" style="stroke:#F0F0F0;stroke-width:9.72"/>
	<line x1="3559.44" y1="187.65" x2="3559.44" y2="122.85" style="stroke:#F0F0F0;stroke-width:9.72"/>
	<line x1="4387.50" y1="2326.05" x2="4387.50" y2="2261.25" style="stroke:#F0F0F0;stroke-width:9.72"/>
	<line x1="4387.50" y1="2228.85" x2="4387.50" y2="2164.05" style="stroke:#F0F0F0;stroke-width:9.72"/>
	<line x1="4387.50" y1="2131.65" x2="4387.50" y2="2066.85" style="stroke:#F0F0F0;stroke-width:9.72"/>
	<line x1="4387.50" y1="2034.45" x2="4387.50" y2="1969.65" style="stroke:#F0F0F0;stroke-width:9.72"/>
	<line x1="4387.50" y1="1937.25" x2="4387.50" y2="1872.45" style="stroke:#F0F0F0;stroke-width:9.72"/>
	<line x1="4387.50" y1="1840.05" x2="4387.50" y2="1775.25" style="stroke:#F0F0F0;stroke-width:9.72"/>
	<line x1="4387.50" y1="1742.85" x2="4387.50" y2="1678.05" style="stroke:#F0F0F0;stroke-width:9.72"/>
	<line x1="4387.50" y1="1645.65" x2="4387.50" y2="1580.85" style="stroke:#F0F0F0;stroke-width:9.72"/>
	<line x1="4387.50" y1="1548.45" x2="4387.50" y2="1483.65" style="stroke:#F0F0F0;stroke-width:9.72"/>
	<line x1="4387.50" y1="1451.25" x2="4387.50" y2="1386.45" style="stroke:#F0F0F0;stroke-width:9.72"/>
	<line x1="4387.50" y1="1354.05" x2="4387.50" y2="1289.25" style="stroke:#F0F0F0;stroke-width:9.72"/>
	<line x1="4387.50" y1="1256.85" x2="4387.50" y2="1192.05" style="stroke:#F0F0F0;stroke-width:9.72"/>
	<line x1="4387.50" y1="1159.65" x2="4387.50" y2="1094.85" style="stroke:#F0F0F0;stroke-width:9.72"/>
	<line x1="4387.50" y1="1062.45" x2="4387.50" y2="997.65" style="stroke:#F0F0F0;stroke-width:9.72"/>
	<line x1="4387.50" y1="965.25" x2="4387.50" y2="900.45" style="stroke:#F0F0F0;stroke-width:9.72"/>
	<line x1="4387.50" y1="868.05" x2="4387.50" y2="803.25" style="stroke:#F0F0F0;stroke-width:9.72"/>
	<line x1="4387.50" y1="770.85" x2="4387.50" y2="706.05" style="stroke:#F0F0F0;stroke-width:9.72"/>
	<line x1="4387.50" y1="673.65" x2="4387.50" y2="608.85" style="stroke:#F0F0F0;stroke-width:9.72"/>
	<line x1="4387.50" y1="576.45" x2="4387.50" y2="511.65" style="stroke:#F0F0F0;stroke-width:9.72"/>
	<line x1="4387.50" y1="479.25" x2="4387.50" y2="414.45" style="stroke:#F0F0F0;stroke-width:9.72"/>
	<line x1="4387.50" y1="382.05" x2="4387.50" y2="317.25" style="stroke:#F0F0F0;stroke-width:9.72"/>
	<line x1="4387.50" y1="284.85" x2="4387.50" y2="220.05" style="stroke:#F0F0F0;stroke-width:9.72"/>
	<line x1="4387.50" y1="187.65" x2="4387.50" y2="122.85" style="stroke:#F0F0F0;stroke-width:9.72"/>
	<line x1="5215.39" y1="2326.05" x2="5215.39" y2="2261.25" style="stroke:#F0F0F0;stroke-width:9.72"/>
	<line x1="5215.39" y1="2228.85" x2="5215.39" y2="2164.05" style="stroke:#F0F0F0;stroke-width:9.72"/>
	<line x1="5215.39" y1="2131.65" x2="5215.39" y2="2066.85" style="stroke:#F0F0F0;stroke-width:9.72"/>
	<line x1="5215.39" y1="2034.45" x2="5215.39" y2="1969.65" style="stroke:#F0F0F0;stroke-width:9.72"/>
	<line x1="5215.39" y1="1937.25" x2="5215.39" y2="1872.45" style="stroke:#F0F0F0;stroke-width:9.72"/>
	<line x1="5215.39" y1="1840.05" x2="5215.39" y2="1775.25" style="stroke:#F0F0F0;stroke-width:9.72"/>
	<line x1="5215.39" y1="1742.85" x2="5215.39" y2="1678.05" style="stroke:#F0F0F0;stroke-width:9.72"/>
	<line x1="5215.39" y1="1645.65" x2="5215.39" y2="1580.85" style="stroke:#F0F0F0;stroke-width:9.72"/>
	<line x1="5215.39" y1="1548.45" x2="5215.39" y2="1483.65" style="stroke:#F0F0F0;stroke-width:9.72"/>
	<line x1="5215.39" y1="1451.25" x2="5215.39" y2="1386.45" style="stroke:#F0F0F0;stroke-width:9.72"/>
	<line x1="5215.39" y1="1354.05" x2="5215.39" y2="1289.25" style="stroke:#F0F0F0;stroke-width:9.72"/>
	<line x1="5215.39" y1="1256.85" x2="5215.39" y2="1192.05" style="stroke:#F0F0F0;stroke-width:9.72"/>
	<line x1="5215.39" y1="1159.65" x2="5215.39" y2="1094.85" style="stroke:#F0F0F0;stroke-width:9.72"/>
	<line x1="5215.39" y1="1062.45" x2="5215.39" y2="997.65" style="stroke:#F0F0F0;stroke-width:9.72"/>
	<line x1="5215.39" y1="965.25" x2="5215.39" y2="900.45" style="stroke:#F0F0F0;stroke-width:9.72"/>
	<line x1="5215.39" y1="868.05" x2="5215.39" y2="803.25" style="stroke:#F0F0F0;stroke-width:9.72"/>
	<line x1="5215.39" y1="770.85" x2="5215.39" y2="706.05" style="stroke:#F0F0F0;stroke-width:9.72"/>
	<line x1="5215.39" y1="673.65" x2="5215.39" y2="608.85" style="stroke:#F0F0F0;stroke-width:9.72"/>
	<line x1="5215.39" y1="576.45" x2="5215.39" y2="511.65" style="stroke:#F0F0F0;stroke-width:9.72"/>
	<line x1="5215.39" y1="479.25" x2="5215.39" y2="414.45" style="stroke:#F0F0F0;stroke-width:9.72"/>
	<line x1="5215.39" y1="382.05" x2="5215.39" y2="317.25" style="stroke:#F0F0F0;stroke-width:9.72"/>
	<line x1="5215.39" y1="284.85" x2="5215.39" y2="220.05" style="stroke:#F0F0F0;stroke-width:9.72"/>
	<line x1="5215.39" y1="187.65" x2="5215.39" y2="122.85" style="stroke:#F0F0F0;stroke-width:9.72"/>
	<line x1="2731.56" y1="1452.09" x2="2731.56" y2="882.73" style="stroke:#1A85FF;stroke-width:9.72"/>
	<line x1="2714.68" y1="882.73" x2="2748.43" y2="882.73" stroke-linecap="round" style="stroke:#1A85FF;stroke-width:9.72"/>
	<line x1="2714.68" y1="1452.09" x2="2748.43" y2="1452.09" stroke-linecap="round" style="stroke:#1A85FF;stroke-width:9.72"/>
	<line x1="3559.44" y1="1378.52" x2="3559.44" y2="827.04" style="stroke:#1A85FF;stroke-width:9.72"/>
	<line x1="3542.57" y1="827.04" x2="3576.32" y2="827.04" stroke-linecap="round" style="stroke:#1A85FF;stroke-width:9.72"/>
	<line x1="3542.57" y1="1378.52" x2="3576.32" y2="1378.52" stroke-linecap="round" style="stroke:#1A85FF;stroke-width:9.72"/>
	<line x1="4387.50" y1="738.28" x2="4387.50" y2="638.04" style="stroke:#1A85FF;stroke-width:9.72"/>
	<line x1="4370.63" y1="638.04" x2="4404.38" y2="638.04" stroke-linecap="round" style="stroke:#1A85FF;stroke-width:9.72"/>
	<line x1="4370.63" y1="738.28" x2="4404.38" y2="738.28" stroke-linecap="round" style="stroke:#1A85FF;stroke-width:9.72"/>
	<line x1="5215.39" y1="585.39" x2="5215.39" y2="481.95" style="stroke:#1A85FF;stroke-width:9.72"/>
	<line x1="5198.51" y1="481.95" x2="5232.26" y2="481.95" stroke-linecap="round" style="stroke:#1A85FF;stroke-width:9.72"/>
	<line x1="5198.51" y1="585.39" x2="5232.26" y2="585.39" stroke-linecap="round" style="stroke:#1A85FF;stroke-width:9.72"/>
	<circle cx="2731.56" cy="1167.58" r="21.74" style="fill:#D41159"/>
	<circle cx="2731.56" cy="1167.58" r="16.88" style="fill:none;stroke:#D41159;stroke-width:9.72"/>
	<circle cx="3559.44" cy="1102.78" r="21.74" style="fill:#D41159"/>
	<circle cx="3559.44" cy="1102.78" r="16.88" style="fill:none;stroke:#D41159;stroke-width:9.72"/>
	<circle cx="4387.33" cy="688.16" r="21.74" style="fill:#D41159"/>
	<circle cx="4387.33" cy="688.16" r="16.88" style="fill:none;stroke:#D41159;stroke-width:9.72"/>
	<circle cx="5215.22" cy="533.76" r="21.74" style="fill:#D41159"/>
	<circle cx="5215.22" cy="533.76" r="16.88" style="fill:none;stroke:#D41159;stroke-width:9.72"/>
	<line x1="590.63" y1="2326.05" x2="590.63" y2="113.40" style="stroke:#000000;stroke-width:6.48"/>
	<line x1="590.63" y1="2254.67" x2="545.57" y2="2254.67" style="stroke:#000000;stroke-width:6.48"/>
	<text x="523.13" y="2294.11" style="font-family:'Helvetica';font-size:112.56px;fill:#000000" text-anchor="end">0</text>
	<line x1="590.63" y1="1840.73" x2="545.57" y2="1840.73" style="stroke:#000000;stroke-width:6.48"/>
	<text x="523.13" y="1880.16" style="font-family:'Helvetica';font-size:112.56px;fill:#000000" text-anchor="end">20</text>
	<line x1="590.63" y1="1426.78" x2="545.57" y2="1426.78" style="stroke:#000000;stroke-width:6.48"/>
	<text x="523.13" y="1466.22" style="font-family:'Helvetica';font-size:112.56px;fill:#000000" text-anchor="end">40</text>
	<line x1="590.63" y1="1012.67" x2="545.57" y2="1012.67" style="stroke:#000000;stroke-width:6.48"/>
	<text x="523.13" y="1052.11" style="font-family:'Helvetica';font-size:112.56px;fill:#000000" text-anchor="end">60</text>
	<line x1="590.63" y1="598.72" x2="545.57" y2="598.72" style="stroke:#000000;stroke-width:6.48"/>
	<text x="523.13" y="638.16" style="font-family:'Helvetica';font-size:112.56px;fill:#000000" text-anchor="end">80</text>
	<line x1="590.63" y1="184.61" x2="545.57" y2="184.61" style="stroke:#000000;stroke-width:6.48"/>
	<text x="523.13" y="224.05" style="font-family:'Helvetica';font-size:112.56px;fill:#000000" text-anchor="end">100</text>
	<text x="214.55" y="1219.72" style="font-family:'Helvetica';font-size:112.56px;fill:#000000" transform="rotate(-90 214.55,1219.72)" text-anchor="middle">Estimated replicability rate</text>
	<line x1="590.63" y1="2326.05" x2="5286.60" y2="2326.05" style="stroke:#000000;stroke-width:6.48"/>
	<line x1="1075.78" y1="2326.05" x2="1075.78" y2="2370.94" style="stroke:#000000;stroke-width:6.48"/>
	<text x="1095.50" y="2427.70" style="font-family:'Helvetica';font-size:112.56px;fill:#000000" transform="rotate(-30 1095.50,2427.70)" text-anchor="end">Not verifiable</text>
	<line x1="1903.67" y1="2326.05" x2="1903.67" y2="2370.94" style="stroke:#000000;stroke-width:6.48"/>
	<text x="1923.39" y="2427.70" style="font-family:'Helvetica';font-size:112.56px;fill:#000000" transform="rotate(-30 1923.39,2427.70)" text-anchor="end">Largely not verifiable</text>
	<line x1="2731.56" y1="2326.05" x2="2731.56" y2="2370.94" style="stroke:#000000;stroke-width:6.48"/>
	<text x="2751.27" y="2427.70" style="font-family:'Helvetica';font-size:112.56px;fill:#000000" transform="rotate(-30 2751.27,2427.70)" text-anchor="end">Not reproduced</text>
	<line x1="3559.44" y1="2326.05" x2="3559.44" y2="2370.94" style="stroke:#000000;stroke-width:6.48"/>
	<text x="3579.16" y="2427.70" style="font-family:'Helvetica';font-size:112.56px;fill:#000000" transform="rotate(-30 3579.16,2427.70)" text-anchor="end">Largely not reproduced</text>
	<line x1="4387.50" y1="2326.05" x2="4387.50" y2="2370.94" style="stroke:#000000;stroke-width:6.48"/>
	<text x="4407.22" y="2427.70" style="font-family:'Helvetica';font-size:112.56px;fill:#000000" transform="rotate(-30 4407.22,2427.70)" text-anchor="end">Largely reproduced</text>
	<line x1="5215.39" y1="2326.05" x2="5215.39" y2="2370.94" style="stroke:#000000;stroke-width:6.48"/>
	<text x="5235.11" y="2427.70" style="font-family:'Helvetica';font-size:112.56px;fill:#000000" transform="rotate(-30 5235.11,2427.70)" text-anchor="end">Fully reproduced</text>
</svg>
