<?xml version="1.0" encoding="UTF-8" standalone="no"?>
<!-- This is a Stata 18.0 generated SVG file (http://www.stata.com) -->

<svg version="1.1" width="7.500in" height="4.500in" viewBox="0 0 5400 3240" xmlns="http://www.w3.org/2000/svg" xmlns:xlink="http://www.w3.org/1999/xlink">
	<desc>Stata Graph - Graph</desc>
	<rect x="0" y="0" width="5400" height="3240" style="fill:#FFFFFF;stroke:none"/>
	<rect x="0.00" y="0.00" width="5400.00" height="3240.00" style="fill:#FFFFFF"/>
	<rect x="3.24" y="3.24" width="5393.52" height="3233.52" style="fill:none;stroke:#FFFFFF;stroke-width:6.48"/>
	<rect x="492.08" y="113.40" width="4794.53" height="2545.76" style="fill:#FFFFFF"/>
	<rect x="495.32" y="116.64" width="4788.05" height="2539.28" style="fill:none;stroke:#FFFFFF;stroke-width:6.48"/>
	<line x1="492.08" y1="2659.16" x2="556.88" y2="2659.16" style="stroke:#F0F0F0;stroke-width:9.72"/>
	<line x1="589.28" y1="2659.16" x2="654.08" y2="2659.16" style="stroke:#F0F0F0;stroke-width:9.72"/>
	<line x1="686.48" y1="2659.16" x2="751.28" y2="2659.16" style="stroke:#F0F0F0;stroke-width:9.72"/>
	<line x1="783.68" y1="2659.16" x2="848.48" y2="2659.16" style="stroke:#F0F0F0;stroke-width:9.72"/>
	<line x1="880.88" y1="2659.16" x2="945.68" y2="2659.16" style="stroke:#F0F0F0;stroke-width:9.72"/>
	<line x1="978.08" y1="2659.16" x2="1042.88" y2="2659.16" style="stroke:#F0F0F0;stroke-width:9.72"/>
	<line x1="1075.28" y1="2659.16" x2="1140.08" y2="2659.16" style="stroke:#F0F0F0;stroke-width:9.72"/>
	<line x1="1172.47" y1="2659.16" x2="1237.28" y2="2659.16" style="stroke:#F0F0F0;stroke-width:9.72"/>
	<line x1="1269.68" y1="2659.16" x2="1334.48" y2="2659.16" style="stroke:#F0F0F0;stroke-width:9.72"/>
	<line x1="1366.88" y1="2659.16" x2="1431.68" y2="2659.16" style="stroke:#F0F0F0;stroke-width:9.72"/>
	<line x1="1464.08" y1="2659.16" x2="1528.88" y2="2659.16" style="stroke:#F0F0F0;stroke-width:9.72"/>
	<line x1="1561.28" y1="2659.16" x2="1626.08" y2="2659.16" style="stroke:#F0F0F0;stroke-width:9.72"/>
	<line x1="1658.48" y1="2659.16" x2="1723.28" y2="2659.16" style="stroke:#F0F0F0;stroke-width:9.72"/>
	<line x1="1755.68" y1="2659.16" x2="1820.48" y2="2659.16" style="stroke:#F0F0F0;stroke-width:9.72"/>
	<line x1="1852.88" y1="2659.16" x2="1917.68" y2="2659.16" style="stroke:#F0F0F0;stroke-width:9.72"/>
	<line x1="1950.08" y1="2659.16" x2="2014.88" y2="2659.16" style="stroke:#F0F0F0;stroke-width:9.72"/>
	<line x1="2047.28" y1="2659.16" x2="2112.07" y2="2659.16" style="stroke:#F0F0F0;stroke-width:9.72"/>
	<line x1="2144.48" y1="2659.16" x2="2209.28" y2="2659.16" style="stroke:#F0F0F0;stroke-width:9.72"/>
	<line x1="2241.68" y1="2659.16" x2="2306.48" y2="2659.16" style="stroke:#F0F0F0;stroke-width:9.72"/>
	<line x1="2338.88" y1="2659.16" x2="2403.68" y2="2659.16" style="stroke:#F0F0F0;stroke-width:9.72"/>
	<line x1="2436.07" y1="2659.16" x2="2500.88" y2="2659.16" style="stroke:#F0F0F0;stroke-width:9.72"/>
	<line x1="2533.28" y1="2659.16" x2="2598.07" y2="2659.16" style="stroke:#F0F0F0;stroke-width:9.72"/>
	<line x1="2630.48" y1="2659.16" x2="2695.28" y2="2659.16" style="stroke:#F0F0F0;stroke-width:9.72"/>
	<line x1="2727.68" y1="2659.16" x2="2792.48" y2="2659.16" style="stroke:#F0F0F0;stroke-width:9.72"/>
	<line x1="2824.88" y1="2659.16" x2="2889.68" y2="2659.16" style="stroke:#F0F0F0;stroke-width:9.72"/>
	<line x1="2922.08" y1="2659.16" x2="2986.88" y2="2659.16" style="stroke:#F0F0F0;stroke-width:9.72"/>
	<line x1="3019.28" y1="2659.16" x2="3084.08" y2="2659.16" style="stroke:#F0F0F0;stroke-width:9.72"/>
	<line x1="3116.48" y1="2659.16" x2="3181.28" y2="2659.16" style="stroke:#F0F0F0;stroke-width:9.72"/>
	<line x1="3213.68" y1="2659.16" x2="3278.48" y2="2659.16" style="stroke:#F0F0F0;stroke-width:9.72"/>
	<line x1="3310.88" y1="2659.16" x2="3375.68" y2="2659.16" style="stroke:#F0F0F0;stroke-width:9.72"/>
	<line x1="3408.08" y1="2659.16" x2="3472.88" y2="2659.16" style="stroke:#F0F0F0;stroke-width:9.72"/>
	<line x1="3505.28" y1="2659.16" x2="3570.08" y2="2659.16" style="stroke:#F0F0F0;stroke-width:9.72"/>
	<line x1="3602.48" y1="2659.16" x2="3667.28" y2="2659.16" style="stroke:#F0F0F0;stroke-width:9.72"/>
	<line x1="3699.68" y1="2659.16" x2="3764.48" y2="2659.16" style="stroke:#F0F0F0;stroke-width:9.72"/>
	<line x1="3796.88" y1="2659.16" x2="3861.68" y2="2659.16" style="stroke:#F0F0F0;stroke-width:9.72"/>
	<line x1="3894.08" y1="2659.16" x2="3958.88" y2="2659.16" style="stroke:#F0F0F0;stroke-width:9.72"/>
	<line x1="3991.28" y1="2659.16" x2="4056.08" y2="2659.16" style="stroke:#F0F0F0;stroke-width:9.72"/>
	<line x1="4088.48" y1="2659.16" x2="4153.27" y2="2659.16" style="stroke:#F0F0F0;stroke-width:9.72"/>
	<line x1="4185.68" y1="2659.16" x2="4250.48" y2="2659.16" style="stroke:#F0F0F0;stroke-width:9.72"/>
	<line x1="4282.88" y1="2659.16" x2="4347.68" y2="2659.16" style="stroke:#F0F0F0;stroke-width:9.72"/>
	<line x1="4380.08" y1="2659.16" x2="4444.88" y2="2659.16" style="stroke:#F0F0F0;stroke-width:9.72"/>
	<line x1="4477.27" y1="2659.16" x2="4542.08" y2="2659.16" style="stroke:#F0F0F0;stroke-width:9.72"/>
	<line x1="4574.48" y1="2659.16" x2="4639.27" y2="2659.16" style="stroke:#F0F0F0;stroke-width:9.72"/>
	<line x1="4671.68" y1="2659.16" x2="4736.48" y2="2659.16" style="stroke:#F0F0F0;stroke-width:9.72"/>
	<line x1="4768.88" y1="2659.16" x2="4833.68" y2="2659.16" style="stroke:#F0F0F0;stroke-width:9.72"/>
	<line x1="4866.08" y1="2659.16" x2="4930.88" y2="2659.16" style="stroke:#F0F0F0;stroke-width:9.72"/>
	<line x1="4963.27" y1="2659.16" x2="5028.08" y2="2659.16" style="stroke:#F0F0F0;stroke-width:9.72"/>
	<line x1="5060.48" y1="2659.16" x2="5125.27" y2="2659.16" style="stroke:#F0F0F0;stroke-width:9.72"/>
	<line x1="5157.68" y1="2659.16" x2="5222.48" y2="2659.16" style="stroke:#F0F0F0;stroke-width:9.72"/>
	<line x1="5254.88" y1="2659.16" x2="5286.60" y2="2659.16" style="stroke:#F0F0F0;stroke-width:9.72"/>
	<line x1="492.08" y1="2172.66" x2="556.88" y2="2172.66" style="stroke:#F0F0F0;stroke-width:9.72"/>
	<line x1="589.28" y1="2172.66" x2="654.08" y2="2172.66" style="stroke:#F0F0F0;stroke-width:9.72"/>
	<line x1="686.48" y1="2172.66" x2="751.28" y2="2172.66" style="stroke:#F0F0F0;stroke-width:9.72"/>
	<line x1="783.68" y1="2172.66" x2="848.48" y2="2172.66" style="stroke:#F0F0F0;stroke-width:9.72"/>
	<line x1="880.88" y1="2172.66" x2="945.68" y2="2172.66" style="stroke:#F0F0F0;stroke-width:9.72"/>
	<line x1="978.08" y1="2172.66" x2="1042.88" y2="2172.66" style="stroke:#F0F0F0;stroke-width:9.72"/>
	<line x1="1075.28" y1="2172.66" x2="1140.08" y2="2172.66" style="stroke:#F0F0F0;stroke-width:9.72"/>
	<line x1="1172.47" y1="2172.66" x2="1237.28" y2="2172.66" style="stroke:#F0F0F0;stroke-width:9.72"/>
	<line x1="1269.68" y1="2172.66" x2="1334.48" y2="2172.66" style="stroke:#F0F0F0;stroke-width:9.72"/>
	<line x1="1366.88" y1="2172.66" x2="1431.68" y2="2172.66" style="stroke:#F0F0F0;stroke-width:9.72"/>
	<line x1="1464.08" y1="2172.66" x2="1528.88" y2="2172.66" style="stroke:#F0F0F0;stroke-width:9.72"/>
	<line x1="1561.28" y1="2172.66" x2="1626.08" y2="2172.66" style="stroke:#F0F0F0;stroke-width:9.72"/>
	<line x1="1658.48" y1="2172.66" x2="1723.28" y2="2172.66" style="stroke:#F0F0F0;stroke-width:9.72"/>
	<line x1="1755.68" y1="2172.66" x2="1820.48" y2="2172.66" style="stroke:#F0F0F0;stroke-width:9.72"/>
	<line x1="1852.88" y1="2172.66" x2="1917.68" y2="2172.66" style="stroke:#F0F0F0;stroke-width:9.72"/>
	<line x1="1950.08" y1="2172.66" x2="2014.88" y2="2172.66" style="stroke:#F0F0F0;stroke-width:9.72"/>
	<line x1="2047.28" y1="2172.66" x2="2112.07" y2="2172.66" style="stroke:#F0F0F0;stroke-width:9.72"/>
	<line x1="2144.48" y1="2172.66" x2="2209.28" y2="2172.66" style="stroke:#F0F0F0;stroke-width:9.72"/>
	<line x1="2241.68" y1="2172.66" x2="2306.48" y2="2172.66" style="stroke:#F0F0F0;stroke-width:9.72"/>
	<line x1="2338.88" y1="2172.66" x2="2403.68" y2="2172.66" style="stroke:#F0F0F0;stroke-width:9.72"/>
	<line x1="2436.07" y1="2172.66" x2="2500.88" y2="2172.66" style="stroke:#F0F0F0;stroke-width:9.72"/>
	<line x1="2533.28" y1="2172.66" x2="2598.07" y2="2172.66" style="stroke:#F0F0F0;stroke-width:9.72"/>
	<line x1="2630.48" y1="2172.66" x2="2695.28" y2="2172.66" style="stroke:#F0F0F0;stroke-width:9.72"/>
	<line x1="2727.68" y1="2172.66" x2="2792.48" y2="2172.66" style="stroke:#F0F0F0;stroke-width:9.72"/>
	<line x1="2824.88" y1="2172.66" x2="2889.68" y2="2172.66" style="stroke:#F0F0F0;stroke-width:9.72"/>
	<line x1="2922.08" y1="2172.66" x2="2986.88" y2="2172.66" style="stroke:#F0F0F0;stroke-width:9.72"/>
	<line x1="3019.28" y1="2172.66" x2="3084.08" y2="2172.66" style="stroke:#F0F0F0;stroke-width:9.72"/>
	<line x1="3116.48" y1="2172.66" x2="3181.28" y2="2172.66" style="stroke:#F0F0F0;stroke-width:9.72"/>
	<line x1="3213.68" y1="2172.66" x2="3278.48" y2="2172.66" style="stroke:#F0F0F0;stroke-width:9.72"/>
	<line x1="3310.88" y1="2172.66" x2="3375.68" y2="2172.66" style="stroke:#F0F0F0;stroke-width:9.72"/>
	<line x1="3408.08" y1="2172.66" x2="3472.88" y2="2172.66" style="stroke:#F0F0F0;stroke-width:9.72"/>
	<line x1="3505.28" y1="2172.66" x2="3570.08" y2="2172.66" style="stroke:#F0F0F0;stroke-width:9.72"/>
	<line x1="3602.48" y1="2172.66" x2="3667.28" y2="2172.66" style="stroke:#F0F0F0;stroke-width:9.72"/>
	<line x1="3699.68" y1="2172.66" x2="3764.48" y2="2172.66" style="stroke:#F0F0F0;stroke-width:9.72"/>
	<line x1="3796.88" y1="2172.66" x2="3861.68" y2="2172.66" style="stroke:#F0F0F0;stroke-width:9.72"/>
	<line x1="3894.08" y1="2172.66" x2="3958.88" y2="2172.66" style="stroke:#F0F0F0;stroke-width:9.72"/>
	<line x1="3991.28" y1="2172.66" x2="4056.08" y2="2172.66" style="stroke:#F0F0F0;stroke-width:9.72"/>
	<line x1="4088.48" y1="2172.66" x2="4153.27" y2="2172.66" style="stroke:#F0F0F0;stroke-width:9.72"/>
	<line x1="4185.68" y1="2172.66" x2="4250.48" y2="2172.66" style="stroke:#F0F0F0;stroke-width:9.72"/>
	<line x1="4282.88" y1="2172.66" x2="4347.68" y2="2172.66" style="stroke:#F0F0F0;stroke-width:9.72"/>
	<line x1="4380.08" y1="2172.66" x2="4444.88" y2="2172.66" style="stroke:#F0F0F0;stroke-width:9.72"/>
	<line x1="4477.27" y1="2172.66" x2="4542.08" y2="2172.66" style="stroke:#F0F0F0;stroke-width:9.72"/>
	<line x1="4574.48" y1="2172.66" x2="4639.27" y2="2172.66" style="stroke:#F0F0F0;stroke-width:9.72"/>
	<line x1="4671.68" y1="2172.66" x2="4736.48" y2="2172.66" style="stroke:#F0F0F0;stroke-width:9.72"/>
	<line x1="4768.88" y1="2172.66" x2="4833.68" y2="2172.66" style="stroke:#F0F0F0;stroke-width:9.72"/>
	<line x1="4866.08" y1="2172.66" x2="4930.88" y2="2172.66" style="stroke:#F0F0F0;stroke-width:9.72"/>
	<line x1="4963.27" y1="2172.66" x2="5028.08" y2="2172.66" style="stroke:#F0F0F0;stroke-width:9.72"/>
	<line x1="5060.48" y1="2172.66" x2="5125.27" y2="2172.66" style="stroke:#F0F0F0;stroke-width:9.72"/>
	<line x1="5157.68" y1="2172.66" x2="5222.48" y2="2172.66" style="stroke:#F0F0F0;stroke-width:9.72"/>
	<line x1="5254.88" y1="2172.66" x2="5286.60" y2="2172.66" style="stroke:#F0F0F0;stroke-width:9.72"/>
	<line x1="492.08" y1="1686.15" x2="556.88" y2="1686.15" style="stroke:#F0F0F0;stroke-width:9.72"/>
	<line x1="589.28" y1="1686.15" x2="654.08" y2="1686.15" style="stroke:#F0F0F0;stroke-width:9.72"/>
	<line x1="686.48" y1="1686.15" x2="751.28" y2="1686.15" style="stroke:#F0F0F0;stroke-width:9.72"/>
	<line x1="783.68" y1="1686.15" x2="848.48" y2="1686.15" style="stroke:#F0F0F0;stroke-width:9.72"/>
	<line x1="880.88" y1="1686.15" x2="945.68" y2="1686.15" style="stroke:#F0F0F0;stroke-width:9.72"/>
	<line x1="978.08" y1="1686.15" x2="1042.88" y2="1686.15" style="stroke:#F0F0F0;stroke-width:9.72"/>
	<line x1="1075.28" y1="1686.15" x2="1140.08" y2="1686.15" style="stroke:#F0F0F0;stroke-width:9.72"/>
	<line x1="1172.47" y1="1686.15" x2="1237.28" y2="1686.15" style="stroke:#F0F0F0;stroke-width:9.72"/>
	<line x1="1269.68" y1="1686.15" x2="1334.48" y2="1686.15" style="stroke:#F0F0F0;stroke-width:9.72"/>
	<line x1="1366.88" y1="1686.15" x2="1431.68" y2="1686.15" style="stroke:#F0F0F0;stroke-width:9.72"/>
	<line x1="1464.08" y1="1686.15" x2="1528.88" y2="1686.15" style="stroke:#F0F0F0;stroke-width:9.72"/>
	<line x1="1561.28" y1="1686.15" x2="1626.08" y2="1686.15" style="stroke:#F0F0F0;stroke-width:9.72"/>
	<line x1="1658.48" y1="1686.15" x2="1723.28" y2="1686.15" style="stroke:#F0F0F0;stroke-width:9.72"/>
	<line x1="1755.68" y1="1686.15" x2="1820.48" y2="1686.15" style="stroke:#F0F0F0;stroke-width:9.72"/>
	<line x1="1852.88" y1="1686.15" x2="1917.68" y2="1686.15" style="stroke:#F0F0F0;stroke-width:9.72"/>
	<line x1="1950.08" y1="1686.15" x2="2014.88" y2="1686.15" style="stroke:#F0F0F0;stroke-width:9.72"/>
	<line x1="2047.28" y1="1686.15" x2="2112.07" y2="1686.15" style="stroke:#F0F0F0;stroke-width:9.72"/>
	<line x1="2144.48" y1="1686.15" x2="2209.28" y2="1686.15" style="stroke:#F0F0F0;stroke-width:9.72"/>
	<line x1="2241.68" y1="1686.15" x2="2306.48" y2="1686.15" style="stroke:#F0F0F0;stroke-width:9.72"/>
	<line x1="2338.88" y1="1686.15" x2="2403.68" y2="1686.15" style="stroke:#F0F0F0;stroke-width:9.72"/>
	<line x1="2436.07" y1="1686.15" x2="2500.88" y2="1686.15" style="stroke:#F0F0F0;stroke-width:9.72"/>
	<line x1="2533.28" y1="1686.15" x2="2598.07" y2="1686.15" style="stroke:#F0F0F0;stroke-width:9.72"/>
	<line x1="2630.48" y1="1686.15" x2="2695.28" y2="1686.15" style="stroke:#F0F0F0;stroke-width:9.72"/>
	<line x1="2727.68" y1="1686.15" x2="2792.48" y2="1686.15" style="stroke:#F0F0F0;stroke-width:9.72"/>
	<line x1="2824.88" y1="1686.15" x2="2889.68" y2="1686.15" style="stroke:#F0F0F0;stroke-width:9.72"/>
	<line x1="2922.08" y1="1686.15" x2="2986.88" y2="1686.15" style="stroke:#F0F0F0;stroke-width:9.72"/>
	<line x1="3019.28" y1="1686.15" x2="3084.08" y2="1686.15" style="stroke:#F0F0F0;stroke-width:9.72"/>
	<line x1="3116.48" y1="1686.15" x2="3181.28" y2="1686.15" style="stroke:#F0F0F0;stroke-width:9.72"/>
	<line x1="3213.68" y1="1686.15" x2="3278.48" y2="1686.15" style="stroke:#F0F0F0;stroke-width:9.72"/>
	<line x1="3310.88" y1="1686.15" x2="3375.68" y2="1686.15" style="stroke:#F0F0F0;stroke-width:9.72"/>
	<line x1="3408.08" y1="1686.15" x2="3472.88" y2="1686.15" style="stroke:#F0F0F0;stroke-width:9.72"/>
	<line x1="3505.28" y1="1686.15" x2="3570.08" y2="1686.15" style="stroke:#F0F0F0;stroke-width:9.72"/>
	<line x1="3602.48" y1="1686.15" x2="3667.28" y2="1686.15" style="stroke:#F0F0F0;stroke-width:9.72"/>
	<line x1="3699.68" y1="1686.15" x2="3764.48" y2="1686.15" style="stroke:#F0F0F0;stroke-width:9.72"/>
	<line x1="3796.88" y1="1686.15" x2="3861.68" y2="1686.15" style="stroke:#F0F0F0;stroke-width:9.72"/>
	<line x1="3894.08" y1="1686.15" x2="3958.88" y2="1686.15" style="stroke:#F0F0F0;stroke-width:9.72"/>
	<line x1="3991.28" y1="1686.15" x2="4056.08" y2="1686.15" style="stroke:#F0F0F0;stroke-width:9.72"/>
	<line x1="4088.48" y1="1686.15" x2="4153.27" y2="1686.15" style="stroke:#F0F0F0;stroke-width:9.72"/>
	<line x1="4185.68" y1="1686.15" x2="4250.48" y2="1686.15" style="stroke:#F0F0F0;stroke-width:9.72"/>
	<line x1="4282.88" y1="1686.15" x2="4347.68" y2="1686.15" style="stroke:#F0F0F0;stroke-width:9.72"/>
	<line x1="4380.08" y1="1686.15" x2="4444.88" y2="1686.15" style="stroke:#F0F0F0;stroke-width:9.72"/>
	<line x1="4477.27" y1="1686.15" x2="4542.08" y2="1686.15" style="stroke:#F0F0F0;stroke-width:9.72"/>
	<line x1="4574.48" y1="1686.15" x2="4639.27" y2="1686.15" style="stroke:#F0F0F0;stroke-width:9.72"/>
	<line x1="4671.68" y1="1686.15" x2="4736.48" y2="1686.15" style="stroke:#F0F0F0;stroke-width:9.72"/>
	<line x1="4768.88" y1="1686.15" x2="4833.68" y2="1686.15" style="stroke:#F0F0F0;stroke-width:9.72"/>
	<line x1="4866.08" y1="1686.15" x2="4930.88" y2="1686.15" style="stroke:#F0F0F0;stroke-width:9.72"/>
	<line x1="4963.27" y1="1686.15" x2="5028.08" y2="1686.15" style="stroke:#F0F0F0;stroke-width:9.72"/>
	<line x1="5060.48" y1="1686.15" x2="5125.27" y2="1686.15" style="stroke:#F0F0F0;stroke-width:9.72"/>
	<line x1="5157.68" y1="1686.15" x2="5222.48" y2="1686.15" style="stroke:#F0F0F0;stroke-width:9.72"/>
	<line x1="5254.88" y1="1686.15" x2="5286.60" y2="1686.15" style="stroke:#F0F0F0;stroke-width:9.72"/>
	<line x1="492.08" y1="1199.81" x2="556.88" y2="1199.81" style="stroke:#F0F0F0;stroke-width:9.72"/>
	<line x1="589.28" y1="1199.81" x2="654.08" y2="1199.81" style="stroke:#F0F0F0;stroke-width:9.72"/>
	<line x1="686.48" y1="1199.81" x2="751.28" y2="1199.81" style="stroke:#F0F0F0;stroke-width:9.72"/>
	<line x1="783.68" y1="1199.81" x2="848.48" y2="1199.81" style="stroke:#F0F0F0;stroke-width:9.72"/>
	<line x1="880.88" y1="1199.81" x2="945.68" y2="1199.81" style="stroke:#F0F0F0;stroke-width:9.72"/>
	<line x1="978.08" y1="1199.81" x2="1042.88" y2="1199.81" style="stroke:#F0F0F0;stroke-width:9.72"/>
	<line x1="1075.28" y1="1199.81" x2="1140.08" y2="1199.81" style="stroke:#F0F0F0;stroke-width:9.72"/>
	<line x1="1172.47" y1="1199.81" x2="1237.28" y2="1199.81" style="stroke:#F0F0F0;stroke-width:9.72"/>
	<line x1="1269.68" y1="1199.81" x2="1334.48" y2="1199.81" style="stroke:#F0F0F0;stroke-width:9.72"/>
	<line x1="1366.88" y1="1199.81" x2="1431.68" y2="1199.81" style="stroke:#F0F0F0;stroke-width:9.72"/>
	<line x1="1464.08" y1="1199.81" x2="1528.88" y2="1199.81" style="stroke:#F0F0F0;stroke-width:9.72"/>
	<line x1="1561.28" y1="1199.81" x2="1626.08" y2="1199.81" style="stroke:#F0F0F0;stroke-width:9.72"/>
	<line x1="1658.48" y1="1199.81" x2="1723.28" y2="1199.81" style="stroke:#F0F0F0;stroke-width:9.72"/>
	<line x1="1755.68" y1="1199.81" x2="1820.48" y2="1199.81" style="stroke:#F0F0F0;stroke-width:9.72"/>
	<line x1="1852.88" y1="1199.81" x2="1917.68" y2="1199.81" style="stroke:#F0F0F0;stroke-width:9.72"/>
	<line x1="1950.08" y1="1199.81" x2="2014.88" y2="1199.81" style="stroke:#F0F0F0;stroke-width:9.72"/>
	<line x1="2047.28" y1="1199.81" x2="2112.07" y2="1199.81" style="stroke:#F0F0F0;stroke-width:9.72"/>
	<line x1="2144.48" y1="1199.81" x2="2209.28" y2="1199.81" style="stroke:#F0F0F0;stroke-width:9.72"/>
	<line x1="2241.68" y1="1199.81" x2="2306.48" y2="1199.81" style="stroke:#F0F0F0;stroke-width:9.72"/>
	<line x1="2338.88" y1="1199.81" x2="2403.68" y2="1199.81" style="stroke:#F0F0F0;stroke-width:9.72"/>
	<line x1="2436.07" y1="1199.81" x2="2500.88" y2="1199.81" style="stroke:#F0F0F0;stroke-width:9.72"/>
	<line x1="2533.28" y1="1199.81" x2="2598.07" y2="1199.81" style="stroke:#F0F0F0;stroke-width:9.72"/>
	<line x1="2630.48" y1="1199.81" x2="2695.28" y2="1199.81" style="stroke:#F0F0F0;stroke-width:9.72"/>
	<line x1="2727.68" y1="1199.81" x2="2792.48" y2="1199.81" style="stroke:#F0F0F0;stroke-width:9.72"/>
	<line x1="2824.88" y1="1199.81" x2="2889.68" y2="1199.81" style="stroke:#F0F0F0;stroke-width:9.72"/>
	<line x1="2922.08" y1="1199.81" x2="2986.88" y2="1199.81" style="stroke:#F0F0F0;stroke-width:9.72"/>
	<line x1="3019.28" y1="1199.81" x2="3084.08" y2="1199.81" style="stroke:#F0F0F0;stroke-width:9.72"/>
	<line x1="3116.48" y1="1199.81" x2="3181.28" y2="1199.81" style="stroke:#F0F0F0;stroke-width:9.72"/>
	<line x1="3213.68" y1="1199.81" x2="3278.48" y2="1199.81" style="stroke:#F0F0F0;stroke-width:9.72"/>
	<line x1="3310.88" y1="1199.81" x2="3375.68" y2="1199.81" style="stroke:#F0F0F0;stroke-width:9.72"/>
	<line x1="3408.08" y1="1199.81" x2="3472.88" y2="1199.81" style="stroke:#F0F0F0;stroke-width:9.72"/>
	<line x1="3505.28" y1="1199.81" x2="3570.08" y2="1199.81" style="stroke:#F0F0F0;stroke-width:9.72"/>
	<line x1="3602.48" y1="1199.81" x2="3667.28" y2="1199.81" style="stroke:#F0F0F0;stroke-width:9.72"/>
	<line x1="3699.68" y1="1199.81" x2="3764.48" y2="1199.81" style="stroke:#F0F0F0;stroke-width:9.72"/>
	<line x1="3796.88" y1="1199.81" x2="3861.68" y2="1199.81" style="stroke:#F0F0F0;stroke-width:9.72"/>
	<line x1="3894.08" y1="1199.81" x2="3958.88" y2="1199.81" style="stroke:#F0F0F0;stroke-width:9.72"/>
	<line x1="3991.28" y1="1199.81" x2="4056.08" y2="1199.81" style="stroke:#F0F0F0;stroke-width:9.72"/>
	<line x1="4088.48" y1="1199.81" x2="4153.27" y2="1199.81" style="stroke:#F0F0F0;stroke-width:9.72"/>
	<line x1="4185.68" y1="1199.81" x2="4250.48" y2="1199.81" style="stroke:#F0F0F0;stroke-width:9.72"/>
	<line x1="4282.88" y1="1199.81" x2="4347.68" y2="1199.81" style="stroke:#F0F0F0;stroke-width:9.72"/>
	<line x1="4380.08" y1="1199.81" x2="4444.88" y2="1199.81" style="stroke:#F0F0F0;stroke-width:9.72"/>
	<line x1="4477.27" y1="1199.81" x2="4542.08" y2="1199.81" style="stroke:#F0F0F0;stroke-width:9.72"/>
	<line x1="4574.48" y1="1199.81" x2="4639.27" y2="1199.81" style="stroke:#F0F0F0;stroke-width:9.72"/>
	<line x1="4671.68" y1="1199.81" x2="4736.48" y2="1199.81" style="stroke:#F0F0F0;stroke-width:9.72"/>
	<line x1="4768.88" y1="1199.81" x2="4833.68" y2="1199.81" style="stroke:#F0F0F0;stroke-width:9.72"/>
	<line x1="4866.08" y1="1199.81" x2="4930.88" y2="1199.81" style="stroke:#F0F0F0;stroke-width:9.72"/>
	<line x1="4963.27" y1="1199.81" x2="5028.08" y2="1199.81" style="stroke:#F0F0F0;stroke-width:9.72"/>
	<line x1="5060.48" y1="1199.81" x2="5125.27" y2="1199.81" style="stroke:#F0F0F0;stroke-width:9.72"/>
	<line x1="5157.68" y1="1199.81" x2="5222.48" y2="1199.81" style="stroke:#F0F0F0;stroke-width:9.72"/>
	<line x1="5254.88" y1="1199.81" x2="5286.60" y2="1199.81" style="stroke:#F0F0F0;stroke-width:9.72"/>
	<line x1="492.08" y1="713.31" x2="556.88" y2="713.31" style="stroke:#F0F0F0;stroke-width:9.72"/>
	<line x1="589.28" y1="713.31" x2="654.08" y2="713.31" style="stroke:#F0F0F0;stroke-width:9.72"/>
	<line x1="686.48" y1="713.31" x2="751.28" y2="713.31" style="stroke:#F0F0F0;stroke-width:9.72"/>
	<line x1="783.68" y1="713.31" x2="848.48" y2="713.31" style="stroke:#F0F0F0;stroke-width:9.72"/>
	<line x1="880.88" y1="713.31" x2="945.68" y2="713.31" style="stroke:#F0F0F0;stroke-width:9.72"/>
	<line x1="978.08" y1="713.31" x2="1042.88" y2="713.31" style="stroke:#F0F0F0;stroke-width:9.72"/>
	<line x1="1075.28" y1="713.31" x2="1140.08" y2="713.31" style="stroke:#F0F0F0;stroke-width:9.72"/>
	<line x1="1172.47" y1="713.31" x2="1237.28" y2="713.31" style="stroke:#F0F0F0;stroke-width:9.72"/>
	<line x1="1269.68" y1="713.31" x2="1334.48" y2="713.31" style="stroke:#F0F0F0;stroke-width:9.72"/>
	<line x1="1366.88" y1="713.31" x2="1431.68" y2="713.31" style="stroke:#F0F0F0;stroke-width:9.72"/>
	<line x1="1464.08" y1="713.31" x2="1528.88" y2="713.31" style="stroke:#F0F0F0;stroke-width:9.72"/>
	<line x1="1561.28" y1="713.31" x2="1626.08" y2="713.31" style="stroke:#F0F0F0;stroke-width:9.72"/>
	<line x1="1658.48" y1="713.31" x2="1723.28" y2="713.31" style="stroke:#F0F0F0;stroke-width:9.72"/>
	<line x1="1755.68" y1="713.31" x2="1820.48" y2="713.31" style="stroke:#F0F0F0;stroke-width:9.72"/>
	<line x1="1852.88" y1="713.31" x2="1917.68" y2="713.31" style="stroke:#F0F0F0;stroke-width:9.72"/>
	<line x1="1950.08" y1="713.31" x2="2014.88" y2="713.31" style="stroke:#F0F0F0;stroke-width:9.72"/>
	<line x1="2047.28" y1="713.31" x2="2112.07" y2="713.31" style="stroke:#F0F0F0;stroke-width:9.72"/>
	<line x1="2144.48" y1="713.31" x2="2209.28" y2="713.31" style="stroke:#F0F0F0;stroke-width:9.72"/>
	<line x1="2241.68" y1="713.31" x2="2306.48" y2="713.31" style="stroke:#F0F0F0;stroke-width:9.72"/>
	<line x1="2338.88" y1="713.31" x2="2403.68" y2="713.31" style="stroke:#F0F0F0;stroke-width:9.72"/>
	<line x1="2436.07" y1="713.31" x2="2500.88" y2="713.31" style="stroke:#F0F0F0;stroke-width:9.72"/>
	<line x1="2533.28" y1="713.31" x2="2598.07" y2="713.31" style="stroke:#F0F0F0;stroke-width:9.72"/>
	<line x1="2630.48" y1="713.31" x2="2695.28" y2="713.31" style="stroke:#F0F0F0;stroke-width:9.72"/>
	<line x1="2727.68" y1="713.31" x2="2792.48" y2="713.31" style="stroke:#F0F0F0;stroke-width:9.72"/>
	<line x1="2824.88" y1="713.31" x2="2889.68" y2="713.31" style="stroke:#F0F0F0;stroke-width:9.72"/>
	<line x1="2922.08" y1="713.31" x2="2986.88" y2="713.31" style="stroke:#F0F0F0;stroke-width:9.72"/>
	<line x1="3019.28" y1="713.31" x2="3084.08" y2="713.31" style="stroke:#F0F0F0;stroke-width:9.72"/>
	<line x1="3116.48" y1="713.31" x2="3181.28" y2="713.31" style="stroke:#F0F0F0;stroke-width:9.72"/>
	<line x1="3213.68" y1="713.31" x2="3278.48" y2="713.31" style="stroke:#F0F0F0;stroke-width:9.72"/>
	<line x1="3310.88" y1="713.31" x2="3375.68" y2="713.31" style="stroke:#F0F0F0;stroke-width:9.72"/>
	<line x1="3408.08" y1="713.31" x2="3472.88" y2="713.31" style="stroke:#F0F0F0;stroke-width:9.72"/>
	<line x1="3505.28" y1="713.31" x2="3570.08" y2="713.31" style="stroke:#F0F0F0;stroke-width:9.72"/>
	<line x1="3602.48" y1="713.31" x2="3667.28" y2="713.31" style="stroke:#F0F0F0;stroke-width:9.72"/>
	<line x1="3699.68" y1="713.31" x2="3764.48" y2="713.31" style="stroke:#F0F0F0;stroke-width:9.72"/>
	<line x1="3796.88" y1="713.31" x2="3861.68" y2="713.31" style="stroke:#F0F0F0;stroke-width:9.72"/>
	<line x1="3894.08" y1="713.31" x2="3958.88" y2="713.31" style="stroke:#F0F0F0;stroke-width:9.72"/>
	<line x1="3991.28" y1="713.31" x2="4056.08" y2="713.31" style="stroke:#F0F0F0;stroke-width:9.72"/>
	<line x1="4088.48" y1="713.31" x2="4153.27" y2="713.31" style="stroke:#F0F0F0;stroke-width:9.72"/>
	<line x1="4185.68" y1="713.31" x2="4250.48" y2="713.31" style="stroke:#F0F0F0;stroke-width:9.72"/>
	<line x1="4282.88" y1="713.31" x2="4347.68" y2="713.31" style="stroke:#F0F0F0;stroke-width:9.72"/>
	<line x1="4380.08" y1="713.31" x2="4444.88" y2="713.31" style="stroke:#F0F0F0;stroke-width:9.72"/>
	<line x1="4477.27" y1="713.31" x2="4542.08" y2="713.31" style="stroke:#F0F0F0;stroke-width:9.72"/>
	<line x1="4574.48" y1="713.31" x2="4639.27" y2="713.31" style="stroke:#F0F0F0;stroke-width:9.72"/>
	<line x1="4671.68" y1="713.31" x2="4736.48" y2="713.31" style="stroke:#F0F0F0;stroke-width:9.72"/>
	<line x1="4768.88" y1="713.31" x2="4833.68" y2="713.31" style="stroke:#F0F0F0;stroke-width:9.72"/>
	<line x1="4866.08" y1="713.31" x2="4930.88" y2="713.31" style="stroke:#F0F0F0;stroke-width:9.72"/>
	<line x1="4963.27" y1="713.31" x2="5028.08" y2="713.31" style="stroke:#F0F0F0;stroke-width:9.72"/>
	<line x1="5060.48" y1="713.31" x2="5125.27" y2="713.31" style="stroke:#F0F0F0;stroke-width:9.72"/>
	<line x1="5157.68" y1="713.31" x2="5222.48" y2="713.31" style="stroke:#F0F0F0;stroke-width:9.72"/>
	<line x1="5254.88" y1="713.31" x2="5286.60" y2="713.31" style="stroke:#F0F0F0;stroke-width:9.72"/>
	<line x1="492.08" y1="226.80" x2="556.88" y2="226.80" style="stroke:#F0F0F0;stroke-width:9.72"/>
	<line x1="589.28" y1="226.80" x2="654.08" y2="226.80" style="stroke:#F0F0F0;stroke-width:9.72"/>
	<line x1="686.48" y1="226.80" x2="751.28" y2="226.80" style="stroke:#F0F0F0;stroke-width:9.72"/>
	<line x1="783.68" y1="226.80" x2="848.48" y2="226.80" style="stroke:#F0F0F0;stroke-width:9.72"/>
	<line x1="880.88" y1="226.80" x2="945.68" y2="226.80" style="stroke:#F0F0F0;stroke-width:9.72"/>
	<line x1="978.08" y1="226.80" x2="1042.88" y2="226.80" style="stroke:#F0F0F0;stroke-width:9.72"/>
	<line x1="1075.28" y1="226.80" x2="1140.08" y2="226.80" style="stroke:#F0F0F0;stroke-width:9.72"/>
	<line x1="1172.47" y1="226.80" x2="1237.28" y2="226.80" style="stroke:#F0F0F0;stroke-width:9.72"/>
	<line x1="1269.68" y1="226.80" x2="1334.48" y2="226.80" style="stroke:#F0F0F0;stroke-width:9.72"/>
	<line x1="1366.88" y1="226.80" x2="1431.68" y2="226.80" style="stroke:#F0F0F0;stroke-width:9.72"/>
	<line x1="1464.08" y1="226.80" x2="1528.88" y2="226.80" style="stroke:#F0F0F0;stroke-width:9.72"/>
	<line x1="1561.28" y1="226.80" x2="1626.08" y2="226.80" style="stroke:#F0F0F0;stroke-width:9.72"/>
	<line x1="1658.48" y1="226.80" x2="1723.28" y2="226.80" style="stroke:#F0F0F0;stroke-width:9.72"/>
	<line x1="1755.68" y1="226.80" x2="1820.48" y2="226.80" style="stroke:#F0F0F0;stroke-width:9.72"/>
	<line x1="1852.88" y1="226.80" x2="1917.68" y2="226.80" style="stroke:#F0F0F0;stroke-width:9.72"/>
	<line x1="1950.08" y1="226.80" x2="2014.88" y2="226.80" style="stroke:#F0F0F0;stroke-width:9.72"/>
	<line x1="2047.28" y1="226.80" x2="2112.07" y2="226.80" style="stroke:#F0F0F0;stroke-width:9.72"/>
	<line x1="2144.48" y1="226.80" x2="2209.28" y2="226.80" style="stroke:#F0F0F0;stroke-width:9.72"/>
	<line x1="2241.68" y1="226.80" x2="2306.48" y2="226.80" style="stroke:#F0F0F0;stroke-width:9.72"/>
	<line x1="2338.88" y1="226.80" x2="2403.68" y2="226.80" style="stroke:#F0F0F0;stroke-width:9.72"/>
	<line x1="2436.07" y1="226.80" x2="2500.88" y2="226.80" style="stroke:#F0F0F0;stroke-width:9.72"/>
	<line x1="2533.28" y1="226.80" x2="2598.07" y2="226.80" style="stroke:#F0F0F0;stroke-width:9.72"/>
	<line x1="2630.48" y1="226.80" x2="2695.28" y2="226.80" style="stroke:#F0F0F0;stroke-width:9.72"/>
	<line x1="2727.68" y1="226.80" x2="2792.48" y2="226.80" style="stroke:#F0F0F0;stroke-width:9.72"/>
	<line x1="2824.88" y1="226.80" x2="2889.68" y2="226.80" style="stroke:#F0F0F0;stroke-width:9.72"/>
	<line x1="2922.08" y1="226.80" x2="2986.88" y2="226.80" style="stroke:#F0F0F0;stroke-width:9.72"/>
	<line x1="3019.28" y1="226.80" x2="3084.08" y2="226.80" style="stroke:#F0F0F0;stroke-width:9.72"/>
	<line x1="3116.48" y1="226.80" x2="3181.28" y2="226.80" style="stroke:#F0F0F0;stroke-width:9.72"/>
	<line x1="3213.68" y1="226.80" x2="3278.48" y2="226.80" style="stroke:#F0F0F0;stroke-width:9.72"/>
	<line x1="3310.88" y1="226.80" x2="3375.68" y2="226.80" style="stroke:#F0F0F0;stroke-width:9.72"/>
	<line x1="3408.08" y1="226.80" x2="3472.88" y2="226.80" style="stroke:#F0F0F0;stroke-width:9.72"/>
	<line x1="3505.28" y1="226.80" x2="3570.08" y2="226.80" style="stroke:#F0F0F0;stroke-width:9.72"/>
	<line x1="3602.48" y1="226.80" x2="3667.28" y2="226.80" style="stroke:#F0F0F0;stroke-width:9.72"/>
	<line x1="3699.68" y1="226.80" x2="3764.48" y2="226.80" style="stroke:#F0F0F0;stroke-width:9.72"/>
	<line x1="3796.88" y1="226.80" x2="3861.68" y2="226.80" style="stroke:#F0F0F0;stroke-width:9.72"/>
	<line x1="3894.08" y1="226.80" x2="3958.88" y2="226.80" style="stroke:#F0F0F0;stroke-width:9.72"/>
	<line x1="3991.28" y1="226.80" x2="4056.08" y2="226.80" style="stroke:#F0F0F0;stroke-width:9.72"/>
	<line x1="4088.48" y1="226.80" x2="4153.27" y2="226.80" style="stroke:#F0F0F0;stroke-width:9.72"/>
	<line x1="4185.68" y1="226.80" x2="4250.48" y2="226.80" style="stroke:#F0F0F0;stroke-width:9.72"/>
	<line x1="4282.88" y1="226.80" x2="4347.68" y2="226.80" style="stroke:#F0F0F0;stroke-width:9.72"/>
	<line x1="4380.08" y1="226.80" x2="4444.88" y2="226.80" style="stroke:#F0F0F0;stroke-width:9.72"/>
	<line x1="4477.27" y1="226.80" x2="4542.08" y2="226.80" style="stroke:#F0F0F0;stroke-width:9.72"/>
	<line x1="4574.48" y1="226.80" x2="4639.27" y2="226.80" style="stroke:#F0F0F0;stroke-width:9.72"/>
	<line x1="4671.68" y1="226.80" x2="4736.48" y2="226.80" style="stroke:#F0F0F0;stroke-width:9.72"/>
	<line x1="4768.88" y1="226.80" x2="4833.68" y2="226.80" style="stroke:#F0F0F0;stroke-width:9.72"/>
	<line x1="4866.08" y1="226.80" x2="4930.88" y2="226.80" style="stroke:#F0F0F0;stroke-width:9.72"/>
	<line x1="4963.27" y1="226.80" x2="5028.08" y2="226.80" style="stroke:#F0F0F0;stroke-width:9.72"/>
	<line x1="5060.48" y1="226.80" x2="5125.27" y2="226.80" style="stroke:#F0F0F0;stroke-width:9.72"/>
	<line x1="5157.68" y1="226.80" x2="5222.48" y2="226.80" style="stroke:#F0F0F0;stroke-width:9.72"/>
	<line x1="5254.88" y1="226.80" x2="5286.60" y2="226.80" style="stroke:#F0F0F0;stroke-width:9.72"/>
	<rect x="647.49" y="2172.66" width="210.09" height="486.51" style="fill:#1A85FF"/>
	<rect x="650.73" y="2175.90" width="203.61" height="480.03" style="fill:none;stroke:#1A85FF;stroke-width:6.48"/>
	<rect x="857.59" y="1199.81" width="209.93" height="1459.35" style="fill:#D41159"/>
	<rect x="860.83" y="1203.05" width="203.45" height="1452.87" style="fill:none;stroke:#D41159;stroke-width:6.48"/>
	<rect x="1067.51" y="438.24" width="210.09" height="2220.92" style="fill:#00BF7F"/>
	<rect x="1070.75" y="441.48" width="203.61" height="2214.44" style="fill:none;stroke:#00BF7F;stroke-width:6.48"/>
	<rect x="1418.34" y="2456.49" width="209.92" height="202.67" style="fill:#1A85FF"/>
	<rect x="1421.58" y="2459.73" width="203.44" height="196.19" style="fill:none;stroke:#1A85FF;stroke-width:6.48"/>
	<rect x="1628.27" y="767.31" width="210.09" height="1891.86" style="fill:#D41159"/>
	<rect x="1631.51" y="770.55" width="203.61" height="1885.38" style="fill:none;stroke:#D41159;stroke-width:6.48"/>
	<rect x="1838.36" y="304.43" width="209.92" height="2354.74" style="fill:#00BF7F"/>
	<rect x="1841.60" y="307.67" width="203.44" height="2348.26" style="fill:none;stroke:#00BF7F;stroke-width:6.48"/>
	<rect x="2189.03" y="2311.71" width="209.92" height="347.46" style="fill:#1A85FF"/>
	<rect x="2192.27" y="2314.95" width="203.44" height="340.98" style="fill:none;stroke:#1A85FF;stroke-width:6.48"/>
	<rect x="2398.95" y="1666.41" width="210.09" height="992.76" style="fill:#D41159"/>
	<rect x="2402.19" y="1669.65" width="203.61" height="986.28" style="fill:none;stroke:#D41159;stroke-width:6.48"/>
	<rect x="2609.04" y="402.64" width="209.93" height="2256.53" style="fill:#00BF7F"/>
	<rect x="2612.28" y="405.88" width="203.45" height="2250.05" style="fill:none;stroke:#00BF7F;stroke-width:6.48"/>
	<rect x="2959.71" y="2172.66" width="210.09" height="486.51" style="fill:#1A85FF"/>
	<rect x="2962.95" y="2175.90" width="203.61" height="480.03" style="fill:none;stroke:#1A85FF;stroke-width:6.48"/>
	<rect x="3379.73" y="429.47" width="210.09" height="2229.69" style="fill:#00BF7F"/>
	<rect x="3382.96" y="432.71" width="203.61" height="2223.21" style="fill:none;stroke:#00BF7F;stroke-width:6.48"/>
	<rect x="3730.39" y="1910.76" width="210.09" height="748.41" style="fill:#1A85FF"/>
	<rect x="3733.63" y="1914.00" width="203.61" height="741.93" style="fill:none;stroke:#1A85FF;stroke-width:6.48"/>
	<rect x="3940.48" y="2311.71" width="209.93" height="347.46" style="fill:#D41159"/>
	<rect x="3943.72" y="2314.95" width="203.45" height="340.98" style="fill:none;stroke:#D41159;stroke-width:6.48"/>
	<rect x="4150.41" y="975.21" width="210.09" height="1683.96" style="fill:#00BF7F"/>
	<rect x="4153.65" y="978.45" width="203.61" height="1677.48" style="fill:none;stroke:#00BF7F;stroke-width:6.48"/>
	<rect x="4501.24" y="2195.78" width="209.93" height="463.39" style="fill:#1A85FF"/>
	<rect x="4504.48" y="2199.02" width="203.45" height="456.91" style="fill:none;stroke:#1A85FF;stroke-width:6.48"/>
	<rect x="4711.16" y="2050.99" width="210.09" height="608.17" style="fill:#D41159"/>
	<rect x="4714.40" y="2054.23" width="203.61" height="601.69" style="fill:none;stroke:#D41159;stroke-width:6.48"/>
	<rect x="4921.26" y="378.84" width="209.92" height="2280.32" style="fill:#00BF7F"/>
	<rect x="4924.50" y="382.08" width="203.44" height="2273.84" style="fill:none;stroke:#00BF7F;stroke-width:6.48"/>
	<line x1="492.08" y1="2659.16" x2="492.08" y2="113.40" style="stroke:#000000;stroke-width:6.48"/>
	<line x1="492.08" y1="2659.16" x2="447.19" y2="2659.16" style="stroke:#000000;stroke-width:6.48"/>
	<text x="424.58" y="2698.60" style="font-family:'Helvetica';font-size:112.56px;fill:#000000" text-anchor="end">0</text>
	<line x1="492.08" y1="2172.66" x2="447.19" y2="2172.66" style="stroke:#000000;stroke-width:6.48"/>
	<text x="424.58" y="2212.09" style="font-family:'Helvetica';font-size:112.56px;fill:#000000" text-anchor="end">.2</text>
	<line x1="492.08" y1="1686.15" x2="447.19" y2="1686.15" style="stroke:#000000;stroke-width:6.48"/>
	<text x="424.58" y="1725.59" style="font-family:'Helvetica';font-size:112.56px;fill:#000000" text-anchor="end">.4</text>
	<line x1="492.08" y1="1199.81" x2="447.19" y2="1199.81" style="stroke:#000000;stroke-width:6.48"/>
	<text x="424.58" y="1239.25" style="font-family:'Helvetica';font-size:112.56px;fill:#000000" text-anchor="end">.6</text>
	<line x1="492.08" y1="713.31" x2="447.19" y2="713.31" style="stroke:#000000;stroke-width:6.48"/>
	<text x="424.58" y="752.74" style="font-family:'Helvetica';font-size:112.56px;fill:#000000" text-anchor="end">.8</text>
	<line x1="492.08" y1="226.80" x2="447.19" y2="226.80" style="stroke:#000000;stroke-width:6.48"/>
	<text x="424.58" y="266.24" style="font-family:'Helvetica';font-size:112.56px;fill:#000000" text-anchor="end">1</text>
	<text x="214.55" y="1386.28" style="font-family:'Helvetica';font-size:112.56px;fill:#000000" transform="rotate(-90 214.55,1386.28)" text-anchor="middle">Overall reproduced [fraction]</text>
	<line x1="492.08" y1="2659.16" x2="5286.60" y2="2659.16" style="stroke:#000000;stroke-width:6.48"/>
	<text x="962.55" y="2782.92" style="font-family:'Helvetica';font-size:112.56px;fill:#000000" text-anchor="middle">ACC</text>
	<text x="1733.23" y="2782.92" style="font-family:'Helvetica';font-size:112.56px;fill:#000000" text-anchor="middle">BDE</text>
	<text x="2504.08" y="2782.92" style="font-family:'Helvetica';font-size:112.56px;fill:#000000" text-anchor="middle">FIN</text>
	<text x="3274.76" y="2782.92" style="font-family:'Helvetica';font-size:112.56px;fill:#000000" text-anchor="middle">INS</text>
	<text x="4045.44" y="2782.92" style="font-family:'Helvetica';font-size:112.56px;fill:#000000" text-anchor="middle">MKG</text>
	<text x="4816.13" y="2782.92" style="font-family:'Helvetica';font-size:112.56px;fill:#000000" text-anchor="middle">OPM</text>
	<rect x="1499.18" y="2878.03" width="2780.33" height="209.76" style="fill:#FFFFFF"/>
	<rect x="1502.42" y="2881.27" width="2773.85" height="203.28" style="fill:none;stroke:#FFFFFF;stroke-width:6.48"/>
	<rect x="1547.78" y="2926.63" width="259.20" height="112.56" style="fill:#1A85FF"/>
	<rect x="1551.02" y="2929.87" width="252.72" height="106.08" style="fill:none;stroke:#1A85FF;stroke-width:6.48"/>
	<rect x="2445.53" y="2926.63" width="259.20" height="112.56" style="fill:#D41159"/>
	<rect x="2448.77" y="2929.87" width="252.72" height="106.08" style="fill:none;stroke:#D41159;stroke-width:6.48"/>
	<rect x="3520.29" y="2926.63" width="259.20" height="112.56" style="fill:#00BF7F"/>
	<rect x="3523.53" y="2929.87" width="252.72" height="106.08" style="fill:none;stroke:#00BF7F;stroke-width:6.48"/>
	<text x="1874.48" y="3022.26" style="font-family:'Helvetica';font-size:112.56px;fill:#000000">No data</text>
	<text x="2772.23" y="3022.26" style="font-family:'Helvetica';font-size:112.56px;fill:#000000">Partial data</text>
	<text x="3846.99" y="3022.26" style="font-family:'Helvetica';font-size:112.56px;fill:#000000">All data</text>
</svg>
