<?xml version="1.0" encoding="UTF-8" standalone="no"?>
<!-- This is a Stata 15.1 generated SVG file (http://www.stata.com) -->

<svg version="1.1" width="5.50in" height="4.00in" viewBox="0 0 3960 2880" xmlns="http://www.w3.org/2000/svg" xmlns:xlink="http://www.w3.org/1999/xlink">
	<desc>Stata Graph - Graph</desc>
	<rect x="0" y="0" width="3960" height="2880" style="fill:#FFFFFF;stroke:none"/>
	<rect x="0.00" y="0.00" width="3959.88" height="2880.00" style="fill:#FFFFFF"/>
	<rect x="2.88" y="2.88" width="3954.12" height="2874.24" style="fill:none;stroke:#FFFFFF;stroke-width:5.76"/>
	<rect x="8.66" y="8.66" width="1971.34" height="2862.67" style="fill:#FFFFFF"/>
	<rect x="10.82" y="10.82" width="1967.02" height="2858.35" style="fill:none;stroke:#FFFFFF;stroke-width:4.32"/>
	<rect x="333.26" y="907.24" width="106.18" height="1740.10" style="fill:#ADD8E6"/>
	<rect x="336.50" y="910.48" width="99.70" height="1733.62" style="fill:none;stroke:#ADD8E6;stroke-width:6.48"/>
	<rect x="439.44" y="1929.94" width="106.18" height="717.40" style="fill:#ADD8E6"/>
	<rect x="442.68" y="1933.18" width="99.70" height="710.92" style="fill:none;stroke:#ADD8E6;stroke-width:6.48"/>
	<rect x="545.61" y="1819.18" width="106.18" height="828.16" style="fill:#ADD8E6"/>
	<rect x="548.85" y="1822.42" width="99.70" height="821.68" style="fill:none;stroke:#ADD8E6;stroke-width:6.48"/>
	<rect x="651.79" y="1902.84" width="106.18" height="744.50" style="fill:#ADD8E6"/>
	<rect x="655.03" y="1906.08" width="99.70" height="738.02" style="fill:none;stroke:#ADD8E6;stroke-width:6.48"/>
	<rect x="757.97" y="1897.89" width="106.18" height="749.45" style="fill:#ADD8E6"/>
	<rect x="761.21" y="1901.13" width="99.70" height="742.97" style="fill:none;stroke:#ADD8E6;stroke-width:6.48"/>
	<rect x="864.15" y="1761.39" width="106.18" height="885.95" style="fill:#ADD8E6"/>
	<rect x="867.39" y="1764.63" width="99.70" height="879.47" style="fill:none;stroke:#ADD8E6;stroke-width:6.48"/>
	<rect x="970.32" y="1857.30" width="106.18" height="790.04" style="fill:#ADD8E6"/>
	<rect x="973.56" y="1860.54" width="99.70" height="783.56" style="fill:none;stroke:#ADD8E6;stroke-width:6.48"/>
	<rect x="1076.50" y="1797.03" width="106.18" height="850.31" style="fill:#ADD8E6"/>
	<rect x="1079.74" y="1800.27" width="99.70" height="843.83" style="fill:none;stroke:#ADD8E6;stroke-width:6.48"/>
	<rect x="1182.68" y="1698.52" width="106.18" height="948.82" style="fill:#ADD8E6"/>
	<rect x="1185.92" y="1701.76" width="99.70" height="942.34" style="fill:none;stroke:#ADD8E6;stroke-width:6.48"/>
	<rect x="1288.86" y="1766.22" width="106.18" height="881.13" style="fill:#ADD8E6"/>
	<rect x="1292.10" y="1769.46" width="99.70" height="874.65" style="fill:none;stroke:#ADD8E6;stroke-width:6.48"/>
	<rect x="1395.03" y="1756.44" width="106.18" height="890.90" style="fill:#ADD8E6"/>
	<rect x="1398.27" y="1759.68" width="99.70" height="884.42" style="fill:none;stroke:#ADD8E6;stroke-width:6.48"/>
	<rect x="1501.21" y="1751.49" width="106.18" height="895.85" style="fill:#ADD8E6"/>
	<rect x="1504.45" y="1754.73" width="99.70" height="889.37" style="fill:none;stroke:#ADD8E6;stroke-width:6.48"/>
	<rect x="1607.39" y="1693.70" width="106.18" height="953.65" style="fill:#ADD8E6"/>
	<rect x="1610.63" y="1696.94" width="99.70" height="947.17" style="fill:none;stroke:#ADD8E6;stroke-width:6.48"/>
	<rect x="1713.57" y="1564.37" width="106.18" height="1082.97" style="fill:#ADD8E6"/>
	<rect x="1716.81" y="1567.61" width="99.70" height="1076.49" style="fill:none;stroke:#ADD8E6;stroke-width:6.48"/>
	<rect x="1819.74" y="926.92" width="106.18" height="1720.43" style="fill:#ADD8E6"/>
	<rect x="1822.98" y="930.16" width="99.70" height="1713.95" style="fill:none;stroke:#ADD8E6;stroke-width:6.48"/>
	<line x1="232.65" y1="2647.34" x2="232.65" y2="251.10" style="stroke:#000000;stroke-width:4.32"/>
	<line x1="232.65" y1="2647.34" x2="202.58" y2="2647.34" style="stroke:#000000;stroke-width:4.32"/>
	<text x="165.05" y="2647.34" style="font-family:'Helvetica';font-size:74.99px;fill:#000000" transform="rotate(-90 165.05,2647.34)" text-anchor="middle">0</text>
	<line x1="232.65" y1="2060.13" x2="202.58" y2="2060.13" style="stroke:#000000;stroke-width:4.32"/>
	<text x="165.05" y="2060.13" style="font-family:'Helvetica';font-size:74.99px;fill:#000000" transform="rotate(-90 165.05,2060.13)" text-anchor="middle">.002</text>
	<line x1="232.65" y1="1472.92" x2="202.58" y2="1472.92" style="stroke:#000000;stroke-width:4.32"/>
	<text x="165.05" y="1472.92" style="font-family:'Helvetica';font-size:74.99px;fill:#000000" transform="rotate(-90 165.05,1472.92)" text-anchor="middle">.004</text>
	<line x1="232.65" y1="885.71" x2="202.58" y2="885.71" style="stroke:#000000;stroke-width:4.32"/>
	<text x="165.05" y="885.71" style="font-family:'Helvetica';font-size:74.99px;fill:#000000" transform="rotate(-90 165.05,885.71)" text-anchor="middle">.006</text>
	<line x1="232.65" y1="298.62" x2="202.58" y2="298.62" style="stroke:#000000;stroke-width:4.32"/>
	<text x="165.05" y="298.62" style="font-family:'Helvetica';font-size:74.99px;fill:#000000" transform="rotate(-90 165.05,298.62)" text-anchor="middle">.008</text>
	<text x="82.50" y="1449.16" style="font-family:'Helvetica';font-size:74.99px;fill:#000000" transform="rotate(-90 82.50,1449.16)" text-anchor="middle">Density</text>
	<line x1="232.65" y1="2647.34" x2="1973.44" y2="2647.34" style="stroke:#000000;stroke-width:4.32"/>
	<line x1="333.26" y1="2647.34" x2="333.26" y2="2677.41" style="stroke:#000000;stroke-width:4.32"/>
	<text x="333.26" y="2744.82" style="font-family:'Helvetica';font-size:74.99px;fill:#000000" text-anchor="middle">0</text>
	<line x1="864.15" y1="2647.34" x2="864.15" y2="2677.41" style="stroke:#000000;stroke-width:4.32"/>
	<text x="864.15" y="2744.82" style="font-family:'Helvetica';font-size:74.99px;fill:#000000" text-anchor="middle">100</text>
	<line x1="1395.03" y1="2647.34" x2="1395.03" y2="2677.41" style="stroke:#000000;stroke-width:4.32"/>
	<text x="1395.03" y="2744.82" style="font-family:'Helvetica';font-size:74.99px;fill:#000000" text-anchor="middle">200</text>
	<line x1="1925.92" y1="2647.34" x2="1925.92" y2="2677.41" style="stroke:#000000;stroke-width:4.32"/>
	<text x="1925.92" y="2744.82" style="font-family:'Helvetica';font-size:74.99px;fill:#000000" text-anchor="middle">300</text>
	<text x="1102.98" y="2827.37" style="font-family:'Helvetica';font-size:74.99px;fill:#000000" text-anchor="middle">Time (sec)</text>
	<text x="1102.98" y="101.49" style="font-family:'Helvetica';font-size:104.94px;fill:#000000" text-anchor="middle">Solo</text>
	<text x="1102.98" y="206.56" style="font-family:'Helvetica';font-size:104.94px;fill:#000000" text-anchor="middle">(mean: 267.1)</text>
	<rect x="1980.00" y="8.66" width="1971.21" height="2862.67" style="fill:#FFFFFF"/>
	<rect x="1982.16" y="10.82" width="1966.89" height="2858.35" style="fill:none;stroke:#FFFFFF;stroke-width:4.32"/>
	<rect x="2304.47" y="720.50" width="106.18" height="1926.85" style="fill:#3E647D"/>
	<rect x="2307.71" y="723.73" width="99.70" height="1920.37" style="fill:none;stroke:#3E647D;stroke-width:6.48"/>
	<rect x="2410.65" y="1862.50" width="106.18" height="784.85" style="fill:#3E647D"/>
	<rect x="2413.89" y="1865.74" width="99.70" height="778.37" style="fill:none;stroke:#3E647D;stroke-width:6.48"/>
	<rect x="2516.83" y="1862.50" width="106.18" height="784.85" style="fill:#3E647D"/>
	<rect x="2520.07" y="1865.74" width="99.70" height="778.37" style="fill:none;stroke:#3E647D;stroke-width:6.48"/>
	<rect x="2623.01" y="1806.19" width="106.18" height="841.16" style="fill:#3E647D"/>
	<rect x="2626.24" y="1809.43" width="99.70" height="834.68" style="fill:none;stroke:#3E647D;stroke-width:6.48"/>
	<rect x="2729.18" y="1886.01" width="106.30" height="761.33" style="fill:#3E647D"/>
	<rect x="2732.42" y="1889.25" width="99.82" height="754.85" style="fill:none;stroke:#3E647D;stroke-width:6.48"/>
	<rect x="2835.48" y="1871.90" width="106.18" height="775.44" style="fill:#3E647D"/>
	<rect x="2838.72" y="1875.14" width="99.70" height="768.96" style="fill:none;stroke:#3E647D;stroke-width:6.48"/>
	<rect x="2941.66" y="1835.89" width="106.18" height="811.45" style="fill:#3E647D"/>
	<rect x="2944.90" y="1839.13" width="99.70" height="804.97" style="fill:none;stroke:#3E647D;stroke-width:6.48"/>
	<rect x="3047.84" y="1702.73" width="106.18" height="944.61" style="fill:#3E647D"/>
	<rect x="3051.08" y="1705.97" width="99.70" height="938.13" style="fill:none;stroke:#3E647D;stroke-width:6.48"/>
	<rect x="3154.02" y="1757.55" width="106.18" height="889.79" style="fill:#3E647D"/>
	<rect x="3157.26" y="1760.79" width="99.70" height="883.31" style="fill:none;stroke:#3E647D;stroke-width:6.48"/>
	<rect x="3260.19" y="1715.23" width="106.18" height="932.11" style="fill:#3E647D"/>
	<rect x="3263.43" y="1718.47" width="99.70" height="925.63" style="fill:none;stroke:#3E647D;stroke-width:6.48"/>
	<rect x="3366.37" y="1776.36" width="106.18" height="870.98" style="fill:#3E647D"/>
	<rect x="3369.61" y="1779.60" width="99.70" height="864.50" style="fill:none;stroke:#3E647D;stroke-width:6.48"/>
	<rect x="3472.55" y="1790.47" width="106.18" height="856.87" style="fill:#3E647D"/>
	<rect x="3475.79" y="1793.71" width="99.70" height="850.39" style="fill:none;stroke:#3E647D;stroke-width:6.48"/>
	<rect x="3578.73" y="1730.95" width="106.18" height="916.40" style="fill:#3E647D"/>
	<rect x="3581.97" y="1734.19" width="99.70" height="909.92" style="fill:none;stroke:#3E647D;stroke-width:6.48"/>
	<rect x="3684.90" y="1575.88" width="106.18" height="1071.46" style="fill:#3E647D"/>
	<rect x="3688.14" y="1579.12" width="99.70" height="1064.98" style="fill:none;stroke:#3E647D;stroke-width:6.48"/>
	<rect x="3791.08" y="1135.69" width="106.18" height="1511.65" style="fill:#3E647D"/>
	<rect x="3794.32" y="1138.93" width="99.70" height="1505.17" style="fill:none;stroke:#3E647D;stroke-width:6.48"/>
	<line x1="2203.86" y1="2647.34" x2="2203.86" y2="251.10" style="stroke:#000000;stroke-width:4.32"/>
	<line x1="2203.86" y1="2647.34" x2="2173.92" y2="2647.34" style="stroke:#000000;stroke-width:4.32"/>
	<text x="2136.38" y="2647.34" style="font-family:'Helvetica';font-size:74.99px;fill:#000000" transform="rotate(-90 2136.38,2647.34)" text-anchor="middle">0</text>
	<line x1="2203.86" y1="2060.13" x2="2173.92" y2="2060.13" style="stroke:#000000;stroke-width:4.32"/>
	<text x="2136.38" y="2060.13" style="font-family:'Helvetica';font-size:74.99px;fill:#000000" transform="rotate(-90 2136.38,2060.13)" text-anchor="middle">.002</text>
	<line x1="2203.86" y1="1472.92" x2="2173.92" y2="1472.92" style="stroke:#000000;stroke-width:4.32"/>
	<text x="2136.38" y="1472.92" style="font-family:'Helvetica';font-size:74.99px;fill:#000000" transform="rotate(-90 2136.38,1472.92)" text-anchor="middle">.004</text>
	<line x1="2203.86" y1="885.71" x2="2173.92" y2="885.71" style="stroke:#000000;stroke-width:4.32"/>
	<text x="2136.38" y="885.71" style="font-family:'Helvetica';font-size:74.99px;fill:#000000" transform="rotate(-90 2136.38,885.71)" text-anchor="middle">.006</text>
	<line x1="2203.86" y1="298.62" x2="2173.92" y2="298.62" style="stroke:#000000;stroke-width:4.32"/>
	<text x="2136.38" y="298.62" style="font-family:'Helvetica';font-size:74.99px;fill:#000000" transform="rotate(-90 2136.38,298.62)" text-anchor="middle">.008</text>
	<text x="2053.84" y="1449.16" style="font-family:'Helvetica';font-size:74.99px;fill:#000000" transform="rotate(-90 2053.84,1449.16)" text-anchor="middle">Density</text>
	<line x1="2203.86" y1="2647.34" x2="3944.78" y2="2647.34" style="stroke:#000000;stroke-width:4.32"/>
	<line x1="2304.47" y1="2647.34" x2="2304.47" y2="2677.41" style="stroke:#000000;stroke-width:4.32"/>
	<text x="2304.47" y="2744.82" style="font-family:'Helvetica';font-size:74.99px;fill:#000000" text-anchor="middle">0</text>
	<line x1="2835.48" y1="2647.34" x2="2835.48" y2="2677.41" style="stroke:#000000;stroke-width:4.32"/>
	<text x="2835.48" y="2744.82" style="font-family:'Helvetica';font-size:74.99px;fill:#000000" text-anchor="middle">100</text>
	<line x1="3366.37" y1="2647.34" x2="3366.37" y2="2677.41" style="stroke:#000000;stroke-width:4.32"/>
	<text x="3366.37" y="2744.82" style="font-family:'Helvetica';font-size:74.99px;fill:#000000" text-anchor="middle">200</text>
	<line x1="3897.26" y1="2647.34" x2="3897.26" y2="2677.41" style="stroke:#000000;stroke-width:4.32"/>
	<text x="3897.26" y="2744.82" style="font-family:'Helvetica';font-size:74.99px;fill:#000000" text-anchor="middle">300</text>
	<text x="3074.32" y="2827.37" style="font-family:'Helvetica';font-size:74.99px;fill:#000000" text-anchor="middle">Time (sec)</text>
	<text x="3074.32" y="101.49" style="font-family:'Helvetica';font-size:104.94px;fill:#000000" text-anchor="middle">Pooled</text>
	<text x="3074.32" y="206.56" style="font-family:'Helvetica';font-size:104.94px;fill:#000000" text-anchor="middle">(mean: 293.4)</text>
</svg>
