<?xml version="1.0" encoding="UTF-8" standalone="no"?>
<!-- This is a Stata 18.0 generated SVG file (http://www.stata.com) -->

<svg version="1.1" width="20.000in" height="8.000in" viewBox="0 0 14400 5760" xmlns="http://www.w3.org/2000/svg" xmlns:xlink="http://www.w3.org/1999/xlink">
	<desc>Stata Graph - combined</desc>
	<rect x="0" y="0" width="14400" height="5760" style="fill:#FFFFFF;stroke:none"/>
	<rect x="0.00" y="0.00" width="14400.00" height="5760.00" style="fill:#FFFFFF"/>
	<rect x="5.76" y="5.76" width="14388.48" height="5748.48" style="fill:none;stroke:#FFFFFF;stroke-width:11.52"/>
	<rect x="126.90" y="126.90" width="4715.55" height="4774.95" style="fill:#FFFFFF"/>
	<rect x="134.56" y="134.56" width="4700.23" height="4759.63" style="fill:none;stroke:#FFFFFF;stroke-width:15.32"/>
	<rect x="1353.60" y="1030.50" width="3182.40" height="2865.15" style="fill:#FFFFFF"/>
	<rect x="1345.94" y="1022.84" width="3197.72" height="2880.47" style="fill:none;stroke:#000000;stroke-width:15.32"/>
	<line x1="1353.60" y1="3726.90" x2="4536.00" y2="3726.90" style="stroke:#C0C0C0;stroke-opacity:0.40;stroke-width:3.83"/>
	<line x1="1353.60" y1="3474.45" x2="4536.00" y2="3474.45" style="stroke:#C0C0C0;stroke-opacity:0.40;stroke-width:3.83"/>
	<line x1="1353.60" y1="3221.55" x2="4536.00" y2="3221.55" style="stroke:#C0C0C0;stroke-opacity:0.40;stroke-width:3.83"/>
	<line x1="1353.60" y1="2968.65" x2="4536.00" y2="2968.65" style="stroke:#C0C0C0;stroke-opacity:0.40;stroke-width:3.83"/>
	<line x1="1353.60" y1="2715.75" x2="4536.00" y2="2715.75" style="stroke:#C0C0C0;stroke-opacity:0.40;stroke-width:3.83"/>
	<line x1="1353.60" y1="2463.30" x2="4536.00" y2="2463.30" style="stroke:#C0C0C0;stroke-opacity:0.40;stroke-width:3.83"/>
	<line x1="1353.60" y1="2210.40" x2="4536.00" y2="2210.40" style="stroke:#C0C0C0;stroke-opacity:0.40;stroke-width:3.83"/>
	<line x1="1353.60" y1="1957.50" x2="4536.00" y2="1957.50" style="stroke:#C0C0C0;stroke-opacity:0.40;stroke-width:3.83"/>
	<line x1="1353.60" y1="1704.60" x2="4536.00" y2="1704.60" style="stroke:#C0C0C0;stroke-opacity:0.40;stroke-width:3.83"/>
	<line x1="1353.60" y1="1452.15" x2="4536.00" y2="1452.15" style="stroke:#C0C0C0;stroke-opacity:0.40;stroke-width:3.83"/>
	<line x1="1353.60" y1="1199.25" x2="4536.00" y2="1199.25" style="stroke:#C0C0C0;stroke-opacity:0.40;stroke-width:3.83"/>
	<line x1="1353.60" y1="3726.90" x2="4536.00" y2="3726.90" style="stroke:#C0C0C0;stroke-opacity:0.40;stroke-width:3.83"/>
	<line x1="1353.60" y1="3221.55" x2="4536.00" y2="3221.55" style="stroke:#C0C0C0;stroke-opacity:0.40;stroke-width:3.83"/>
	<line x1="1353.60" y1="2715.75" x2="4536.00" y2="2715.75" style="stroke:#C0C0C0;stroke-opacity:0.40;stroke-width:3.83"/>
	<line x1="1353.60" y1="2210.40" x2="4536.00" y2="2210.40" style="stroke:#C0C0C0;stroke-opacity:0.40;stroke-width:3.83"/>
	<line x1="1353.60" y1="1704.60" x2="4536.00" y2="1704.60" style="stroke:#C0C0C0;stroke-opacity:0.40;stroke-width:3.83"/>
	<line x1="1353.60" y1="1199.25" x2="4536.00" y2="1199.25" style="stroke:#C0C0C0;stroke-opacity:0.40;stroke-width:3.83"/>
	<line x1="1522.35" y1="3895.65" x2="1522.35" y2="1030.50" style="stroke:#C0C0C0;stroke-opacity:0.40;stroke-width:3.83"/>
	<line x1="1996.20" y1="3895.65" x2="1996.20" y2="1030.50" style="stroke:#C0C0C0;stroke-opacity:0.40;stroke-width:3.83"/>
	<line x1="2470.50" y1="3895.65" x2="2470.50" y2="1030.50" style="stroke:#C0C0C0;stroke-opacity:0.40;stroke-width:3.83"/>
	<line x1="2944.80" y1="3895.65" x2="2944.80" y2="1030.50" style="stroke:#C0C0C0;stroke-opacity:0.40;stroke-width:3.83"/>
	<line x1="3419.10" y1="3895.65" x2="3419.10" y2="1030.50" style="stroke:#C0C0C0;stroke-opacity:0.40;stroke-width:3.83"/>
	<line x1="3892.95" y1="3895.65" x2="3892.95" y2="1030.50" style="stroke:#C0C0C0;stroke-opacity:0.40;stroke-width:3.83"/>
	<line x1="4367.25" y1="3895.65" x2="4367.25" y2="1030.50" style="stroke:#C0C0C0;stroke-opacity:0.40;stroke-width:3.83"/>
	<line x1="2506.50" y1="3726.90" x2="2506.50" y2="3611.70" style="stroke:#78A29A;stroke-width:22.98"/>
	<line x1="2506.50" y1="3554.10" x2="2506.50" y2="3438.90" style="stroke:#78A29A;stroke-width:22.98"/>
	<line x1="2506.50" y1="3381.30" x2="2506.50" y2="3266.10" style="stroke:#78A29A;stroke-width:22.98"/>
	<line x1="2506.50" y1="3208.50" x2="2506.50" y2="3093.30" style="stroke:#78A29A;stroke-width:22.98"/>
	<line x1="2506.50" y1="3035.70" x2="2506.50" y2="2920.50" style="stroke:#78A29A;stroke-width:22.98"/>
	<line x1="2506.50" y1="2862.90" x2="2506.50" y2="2747.70" style="stroke:#78A29A;stroke-width:22.98"/>
	<line x1="2506.50" y1="2690.10" x2="2506.50" y2="2574.90" style="stroke:#78A29A;stroke-width:22.98"/>
	<line x1="2506.50" y1="2517.30" x2="2506.50" y2="2402.10" style="stroke:#78A29A;stroke-width:22.98"/>
	<line x1="2506.50" y1="2344.50" x2="2506.50" y2="2229.30" style="stroke:#78A29A;stroke-width:22.98"/>
	<line x1="2506.50" y1="2171.70" x2="2506.50" y2="2056.50" style="stroke:#78A29A;stroke-width:22.98"/>
	<line x1="2506.50" y1="1998.90" x2="2506.50" y2="1883.70" style="stroke:#78A29A;stroke-width:22.98"/>
	<line x1="2506.50" y1="1826.10" x2="2506.50" y2="1710.90" style="stroke:#78A29A;stroke-width:22.98"/>
	<line x1="2506.50" y1="1653.30" x2="2506.50" y2="1538.10" style="stroke:#78A29A;stroke-width:22.98"/>
	<line x1="2506.50" y1="1480.50" x2="2506.50" y2="1365.30" style="stroke:#78A29A;stroke-width:22.98"/>
	<line x1="2506.50" y1="1307.70" x2="2506.50" y2="1199.25" style="stroke:#78A29A;stroke-width:22.98"/>
	<line x1="2219.85" y1="3726.90" x2="2219.85" y2="3611.70" style="stroke:#FFB068;stroke-width:22.98"/>
	<line x1="2219.85" y1="3554.10" x2="2219.85" y2="3438.90" style="stroke:#FFB068;stroke-width:22.98"/>
	<line x1="2219.85" y1="3381.30" x2="2219.85" y2="3266.10" style="stroke:#FFB068;stroke-width:22.98"/>
	<line x1="2219.85" y1="3208.50" x2="2219.85" y2="3093.30" style="stroke:#FFB068;stroke-width:22.98"/>
	<line x1="2219.85" y1="3035.70" x2="2219.85" y2="2920.50" style="stroke:#FFB068;stroke-width:22.98"/>
	<line x1="2219.85" y1="2862.90" x2="2219.85" y2="2747.70" style="stroke:#FFB068;stroke-width:22.98"/>
	<line x1="2219.85" y1="2690.10" x2="2219.85" y2="2574.90" style="stroke:#FFB068;stroke-width:22.98"/>
	<line x1="2219.85" y1="2517.30" x2="2219.85" y2="2402.10" style="stroke:#FFB068;stroke-width:22.98"/>
	<line x1="2219.85" y1="2344.50" x2="2219.85" y2="2229.30" style="stroke:#FFB068;stroke-width:22.98"/>
	<line x1="2219.85" y1="2171.70" x2="2219.85" y2="2056.50" style="stroke:#FFB068;stroke-width:22.98"/>
	<line x1="2219.85" y1="1998.90" x2="2219.85" y2="1883.70" style="stroke:#FFB068;stroke-width:22.98"/>
	<line x1="2219.85" y1="1826.10" x2="2219.85" y2="1710.90" style="stroke:#FFB068;stroke-width:22.98"/>
	<line x1="2219.85" y1="1653.30" x2="2219.85" y2="1538.10" style="stroke:#FFB068;stroke-width:22.98"/>
	<line x1="2219.85" y1="1480.50" x2="2219.85" y2="1365.30" style="stroke:#FFB068;stroke-width:22.98"/>
	<line x1="2219.85" y1="1307.70" x2="2219.85" y2="1199.25" style="stroke:#FFB068;stroke-width:22.98"/>
	<path d=" M1692.45 3712.05 L1718.55 3712.05 L1718.55 3696.30 L1814.85 3696.30 L1814.85 3681.00 L1841.85 3681.00 L1841.85 3665.70 L1889.10 3665.70 L1889.10 3650.40 L1895.85 3650.40 L1895.85 3634.65 L1935.90 3634.65 L1935.90 3619.35 L1936.35 3619.35 L1936.35 3604.05 L1946.25 3604.05 L1946.25 3588.75 L1952.10 3588.75 L1952.10 3573.00 L1954.35 3573.00 L1954.35 3557.70 L1969.65 3557.70 L1969.65 3542.40 L1985.40 3542.40 L1985.40 3527.10 L1988.10 3527.10 L1988.10 3511.35 L2002.50 3511.35 L2002.50 3496.05 L2014.65 3496.05 L2014.65 3480.75 L2024.10 3480.75 L2024.10 3465.00 L2024.10 3465.00 L2024.10 3449.70 L2035.80 3449.70 L2035.80 3434.40 L2043.00 3434.40 L2043.00 3419.10 L2061.45 3419.10 L2061.45 3403.35 L2073.60 3403.35 L2073.60 3388.05 L2074.50 3388.05 L2074.50 3372.75 L2075.40 3372.75 L2075.40 3357.45 L2084.85 3357.45 L2084.85 3341.70 L2107.80 3341.70 L2107.80 3326.40 L2112.30 3326.40 L2112.30 3311.10 L2112.75 3311.10 L2112.75 3295.80 L2118.60 3295.80 L2118.60 3280.05 L2122.65 3280.05 L2122.65 3264.75 L2127.60 3264.75 L2127.60 3249.45 L2130.30 3249.45 L2130.30 3234.15 L2130.75 3234.15 L2130.75 3218.40 L2153.70 3218.40 L2153.70 3203.10 L2161.80 3203.10 L2161.80 3187.80 L2162.25 3187.80 L2162.25 3172.50 L2162.25 3172.50 L2162.25 3156.75 L2164.05 3156.75 L2164.05 3141.45 L2164.05 3141.45 L2164.05 3126.15 L2173.95 3126.15 L2173.95 3110.85 L2179.35 3110.85 L2179.35 3095.10 L2185.20 3095.10 L2185.20 3079.80 L2193.30 3079.80 L2193.30 3064.50 L2194.20 3064.50 L2194.20 3049.20 L2201.85 3049.20 L2201.85 3033.45 L2207.70 3033.45 L2207.70 3018.15 L2213.10 3018.15 L2213.10 3002.85 L2219.40 3002.85 L2219.40 2987.55 L2223.00 2987.55 L2223.00 2971.80 L2224.35 2971.80 L2224.35 2956.50 L2224.35 2956.50 L2224.35 2941.20 L2229.75 2941.20 L2229.75 2925.90 L2244.15 2925.90 L2244.15 2910.15 L2251.35 2910.15 L2251.35 2894.85 L2254.95 2894.85 L2254.95 2879.55 L2255.85 2879.55 L2255.85 2864.25 L2268.90 2864.25 L2268.90 2848.50 L2271.60 2848.50 L2271.60 2833.20 L2274.30 2833.20 L2274.30 2817.90 L2276.10 2817.90 L2276.10 2802.60 L2291.85 2802.60 L2291.85 2786.85 L2294.55 2786.85 L2294.55 2771.55 L2295.00 2771.55 L2295.00 2756.25 L2295.90 2756.25 L2295.90 2740.95 L2302.65 2740.95 L2302.65 2725.20 L2304.00 2725.20 L2304.00 2709.90 L2306.70 2709.90 L2306.70 2694.60 L2308.05 2694.60 L2308.05 2679.30 L2316.60 2679.30 L2316.60 2663.55 L2322.00 2663.55 L2322.00 2648.25 L2329.20 2648.25 L2329.20 2632.95 L2329.65 2632.95 L2329.65 2617.65 L2331.90 2617.65 L2331.90 2601.90 L2338.65 2601.90 L2338.65 2586.60 L2345.85 2586.60 L2345.85 2571.30 L2365.65 2571.30 L2365.65 2556.00 L2368.35 2556.00 L2368.35 2540.25 L2370.15 2540.25 L2370.15 2524.95 L2376.45 2524.95 L2376.45 2509.65 L2379.60 2509.65 L2379.60 2494.35 L2384.55 2494.35 L2384.55 2478.60 L2394.45 2478.60 L2394.45 2463.30 L2398.50 2463.30 L2398.50 2448.00 L2401.65 2448.00 L2401.65 2432.70 L2406.15 2432.70 L2406.15 2416.95 L2420.10 2416.95 L2420.10 2401.65 L2429.10 2401.65 L2429.10 2386.35 L2431.80 2386.35 L2431.80 2371.05 L2434.05 2371.05 L2434.05 2355.30 L2441.70 2355.30 L2441.70 2340.00 L2452.95 2340.00 L2452.95 2324.70 L2459.25 2324.70 L2459.25 2309.40 L2466.00 2309.40 L2466.00 2293.65 L2473.65 2293.65 L2473.65 2278.35 L2475.00 2278.35 L2475.00 2263.05 L2475.90 2263.05 L2475.90 2247.75 L2503.80 2247.75 L2503.80 2232.00 L2504.25 2232.00 L2504.25 2216.70 L2506.05 2216.70 L2506.05 2201.40 L2551.05 2201.40 L2551.05 2186.10 L2551.95 2186.10 L2551.95 2170.35 L2553.30 2170.35 L2553.30 2155.05 L2553.75 2155.05 L2553.75 2139.75 L2558.25 2139.75 L2558.25 2124.45 L2563.20 2124.45 L2563.20 2108.70 L2568.60 2108.70 L2568.60 2093.40 L2574.00 2093.40 L2574.00 2078.10 L2578.50 2078.10 L2578.50 2062.80 L2600.55 2062.80 L2600.55 2047.05 L2637.45 2047.05 L2637.45 2031.75 L2641.50 2031.75 L2641.50 2016.45 L2644.20 2016.45 L2644.20 2001.15 L2647.80 2001.15 L2647.80 1985.40 L2651.40 1985.40 L2651.40 1970.10 L2657.25 1970.10 L2657.25 1954.80 L2663.10 1954.80 L2663.10 1939.50 L2683.80 1939.50 L2683.80 1923.75 L2686.05 1923.75 L2686.05 1908.45 L2697.30 1908.45 L2697.30 1893.15 L2697.75 1893.15 L2697.75 1877.85 L2699.55 1877.85 L2699.55 1862.10 L2704.95 1862.10 L2704.95 1846.80 L2705.40 1846.80 L2705.40 1831.50 L2709.90 1831.50 L2709.90 1816.20 L2712.15 1816.20 L2712.15 1800.45 L2717.55 1800.45 L2717.55 1785.15 L2722.95 1785.15 L2722.95 1769.85 L2728.80 1769.85 L2728.80 1754.55 L2750.40 1754.55 L2750.40 1738.80 L2768.40 1738.80 L2768.40 1723.50 L2777.40 1723.50 L2777.40 1708.20 L2785.50 1708.20 L2785.50 1692.90 L2788.65 1692.90 L2788.65 1677.15 L2817.00 1677.15 L2817.00 1661.85 L2819.70 1661.85 L2819.70 1646.55 L2824.20 1646.55 L2824.20 1631.25 L2830.05 1631.25 L2830.05 1615.50 L2833.65 1615.50 L2833.65 1600.20 L2843.10 1600.20 L2843.10 1584.90 L2847.60 1584.90 L2847.60 1569.60 L2878.65 1569.60 L2878.65 1553.85 L2948.85 1553.85 L2948.85 1538.55 L2973.15 1538.55 L2973.15 1523.25 L3020.85 1523.25 L3020.85 1507.50 L3050.55 1507.50 L3050.55 1492.20 L3101.40 1492.20 L3101.40 1476.90 L3118.05 1476.90 L3118.05 1461.60 L3187.80 1461.60 L3187.80 1445.85 L3244.95 1445.85 L3244.95 1430.55 L3245.85 1430.55 L3245.85 1415.25 L3320.55 1415.25 L3320.55 1399.95 L3351.15 1399.95 L3351.15 1384.20 L3394.80 1384.20 L3394.80 1368.90 L3441.60 1368.90 L3441.60 1353.60 L3502.80 1353.60 L3502.80 1338.30 L3535.65 1338.30 L3535.65 1322.55 L3621.15 1322.55 L3621.15 1307.25 L3662.55 1307.25 L3662.55 1291.95 L3707.55 1291.95 L3707.55 1276.65 L3727.80 1276.65 L3727.80 1260.90 L3749.85 1260.90 L3749.85 1245.60 L3852.00 1245.60 L3852.00 1230.30 L3910.05 1230.30 L3910.05 1215.00 L4367.25 1215.00 L4367.25 1199.25" stroke-linejoin="round" style="fill:none;stroke:#4B8378;stroke-width:22.98"/>
	<path d=" M1621.80 3712.05 L1639.35 3696.30 L1732.95 3681.00 L1754.55 3665.70 L1768.95 3650.40 L1776.60 3634.65 L1791.45 3619.35 L1809.90 3604.05 L1810.35 3588.75 L1811.70 3573.00 L1829.70 3557.70 L1837.35 3542.40 L1852.65 3527.10 L1867.50 3511.35 L1875.15 3496.05 L1882.35 3480.75 L1898.10 3465.00 L1900.80 3449.70 L1904.85 3434.40 L1906.20 3419.10 L1909.80 3403.35 L1910.70 3388.05 L1913.85 3372.75 L1918.35 3357.45 L1934.10 3341.70 L1939.95 3326.40 L1943.10 3311.10 L1947.15 3295.80 L1949.85 3280.05 L1953.00 3264.75 L1954.80 3249.45 L1959.75 3234.15 L1960.65 3218.40 L1960.65 3203.10 L1961.10 3187.80 L1963.80 3172.50 L1965.15 3156.75 L1966.05 3141.45 L1966.95 3126.15 L1967.85 3110.85 L1969.20 3095.10 L1971.00 3079.80 L1975.95 3064.50 L1984.05 3049.20 L1985.85 3033.45 L1989.00 3018.15 L1990.35 3002.85 L1991.25 2987.55 L2002.50 2971.80 L2007.45 2956.50 L2012.40 2941.20 L2012.85 2925.90 L2014.20 2910.15 L2015.55 2894.85 L2016.45 2879.55 L2017.80 2864.25 L2021.85 2848.50 L2022.75 2833.20 L2029.05 2817.90 L2031.30 2802.60 L2034.45 2786.85 L2034.90 2771.55 L2036.25 2756.25 L2036.25 2740.95 L2040.75 2725.20 L2045.25 2709.90 L2047.50 2694.60 L2050.20 2679.30 L2061.00 2663.55 L2067.75 2648.25 L2069.55 2632.95 L2090.25 2617.65 L2095.20 2601.90 L2095.65 2586.60 L2103.30 2571.30 L2118.60 2556.00 L2121.30 2540.25 L2123.55 2524.95 L2141.55 2509.65 L2146.05 2494.35 L2146.05 2478.60 L2150.55 2463.30 L2156.85 2448.00 L2162.25 2432.70 L2164.05 2416.95 L2165.40 2401.65 L2170.35 2386.35 L2175.30 2371.05 L2178.90 2355.30 L2179.80 2340.00 L2181.15 2324.70 L2184.30 2309.40 L2188.80 2293.65 L2197.80 2278.35 L2209.50 2263.05 L2213.55 2247.75 L2214.90 2232.00 L2218.05 2216.70 L2220.75 2201.40 L2223.00 2186.10 L2232.45 2170.35 L2235.15 2155.05 L2238.75 2139.75 L2241.90 2124.45 L2249.55 2108.70 L2251.80 2093.40 L2255.40 2078.10 L2255.85 2062.80 L2258.10 2047.05 L2260.80 2031.75 L2271.15 2016.45 L2273.40 2001.15 L2275.20 1985.40 L2279.25 1970.10 L2296.80 1954.80 L2304.90 1939.50 L2323.35 1923.75 L2326.05 1908.45 L2331.00 1893.15 L2348.55 1877.85 L2352.15 1862.10 L2358.00 1846.80 L2394.90 1831.50 L2395.35 1816.20 L2397.60 1800.45 L2409.75 1785.15 L2427.30 1769.85 L2430.00 1754.55 L2437.20 1738.80 L2448.00 1723.50 L2448.00 1708.20 L2461.95 1692.90 L2462.40 1677.15 L2481.30 1661.85 L2483.10 1646.55 L2484.90 1631.25 L2486.70 1615.50 L2494.80 1600.20 L2507.85 1584.90 L2510.10 1569.60 L2538.00 1553.85 L2546.55 1538.55 L2565.90 1523.25 L2590.65 1507.50 L2593.35 1492.20 L2621.70 1476.90 L2639.70 1461.60 L2675.25 1445.85 L2729.25 1430.55 L2766.60 1415.25 L2790.90 1399.95 L2885.85 1384.20 L2902.05 1368.90 L2935.35 1353.60 L2940.75 1338.30 L2956.05 1322.55 L2974.50 1307.25 L3001.05 1291.95 L3019.95 1276.65 L3095.55 1260.90 L3131.10 1245.60 L3324.60 1230.30 L3336.75 1215.00 L3544.65 1199.25" stroke-linejoin="round" style="fill:none;stroke:#FF9636;stroke-width:22.98"/>
	<path d="
M2433.15 3727.35 L2433.15 3727.35 L2433.15 1199.25 L2579.40 1199.25 L2579.40 3727.35 L2579.40 3727.35 L2433.15 3727.35 L2433.15 3727.35 Z" stroke-linejoin="round" style="fill:#6F9C93;fill-opacity:0.15;stroke:#00BF7F;stroke-width:0.00"/>
	<path d="
M2166.30 3727.35 L2166.30 3727.35 L2166.30 1199.25 L2273.40 1199.25 L2273.40 3727.35 L2273.40 3727.35 L2166.30 3727.35 L2166.30 3727.35 Z" stroke-linejoin="round" style="fill:#FFAB5E;fill-opacity:0.15;stroke:#FFD400;stroke-width:0.00"/>
	<line x1="1353.60" y1="3895.65" x2="1353.60" y2="1030.50" style="stroke:#000000;stroke-width:15.32"/>
	<line x1="1353.60" y1="3726.90" x2="1300.50" y2="3726.90" style="stroke:#000000;stroke-width:15.32"/>
	<line x1="1353.60" y1="3474.45" x2="1300.50" y2="3474.45" style="stroke:#000000;stroke-width:15.32"/>
	<line x1="1353.60" y1="3221.55" x2="1300.50" y2="3221.55" style="stroke:#000000;stroke-width:15.32"/>
	<line x1="1353.60" y1="2968.65" x2="1300.50" y2="2968.65" style="stroke:#000000;stroke-width:15.32"/>
	<line x1="1353.60" y1="2715.75" x2="1300.50" y2="2715.75" style="stroke:#000000;stroke-width:15.32"/>
	<line x1="1353.60" y1="2463.30" x2="1300.50" y2="2463.30" style="stroke:#000000;stroke-width:15.32"/>
	<line x1="1353.60" y1="2210.40" x2="1300.50" y2="2210.40" style="stroke:#000000;stroke-width:15.32"/>
	<line x1="1353.60" y1="1957.50" x2="1300.50" y2="1957.50" style="stroke:#000000;stroke-width:15.32"/>
	<line x1="1353.60" y1="1704.60" x2="1300.50" y2="1704.60" style="stroke:#000000;stroke-width:15.32"/>
	<line x1="1353.60" y1="1452.15" x2="1300.50" y2="1452.15" style="stroke:#000000;stroke-width:15.32"/>
	<line x1="1353.60" y1="1199.25" x2="1300.50" y2="1199.25" style="stroke:#000000;stroke-width:15.32"/>
	<line x1="1353.60" y1="3726.90" x2="1247.40" y2="3726.90" style="stroke:#000000;stroke-width:15.32"/>
	<text x="1250.84" y="3783.89" style="font-family:'Helvetica';font-size:229.95px;fill:#000000" transform="rotate(-45 1250.84,3783.89)" text-anchor="end">0.0</text>
	<line x1="1353.60" y1="3221.55" x2="1247.40" y2="3221.55" style="stroke:#000000;stroke-width:15.32"/>
	<text x="1250.84" y="3278.54" style="font-family:'Helvetica';font-size:229.95px;fill:#000000" transform="rotate(-45 1250.84,3278.54)" text-anchor="end">0.2</text>
	<line x1="1353.60" y1="2715.75" x2="1247.40" y2="2715.75" style="stroke:#000000;stroke-width:15.32"/>
	<text x="1250.84" y="2772.74" style="font-family:'Helvetica';font-size:229.95px;fill:#000000" transform="rotate(-45 1250.84,2772.74)" text-anchor="end">0.4</text>
	<line x1="1353.60" y1="2210.40" x2="1247.40" y2="2210.40" style="stroke:#000000;stroke-width:15.32"/>
	<text x="1250.84" y="2267.39" style="font-family:'Helvetica';font-size:229.95px;fill:#000000" transform="rotate(-45 1250.84,2267.39)" text-anchor="end">0.6</text>
	<line x1="1353.60" y1="1704.60" x2="1247.40" y2="1704.60" style="stroke:#000000;stroke-width:15.32"/>
	<text x="1250.84" y="1761.59" style="font-family:'Helvetica';font-size:229.95px;fill:#000000" transform="rotate(-45 1250.84,1761.59)" text-anchor="end">0.8</text>
	<line x1="1353.60" y1="1199.25" x2="1247.40" y2="1199.25" style="stroke:#000000;stroke-width:15.32"/>
	<text x="1250.84" y="1256.24" style="font-family:'Helvetica';font-size:229.95px;fill:#000000" transform="rotate(-45 1250.84,1256.24)" text-anchor="end">1.0</text>
	<text x="657.90" y="2463.30" style="font-family:'Helvetica';font-size:245.25px;fill:#000000" transform="rotate(-90 657.90,2463.30)" text-anchor="middle">Cumulative Probability</text>
	<line x1="1353.60" y1="3895.65" x2="4536.00" y2="3895.65" style="stroke:#000000;stroke-width:7.66"/>
	<line x1="1522.35" y1="3895.65" x2="1522.35" y2="4001.85" style="stroke:#000000;stroke-width:15.32"/>
	<text x="1579.34" y="4111.94" style="font-family:'Helvetica';font-size:229.95px;fill:#000000" transform="rotate(-45 1579.34,4111.94)" text-anchor="end">-0.6</text>
	<line x1="1996.20" y1="3895.65" x2="1996.20" y2="4001.85" style="stroke:#000000;stroke-width:15.32"/>
	<text x="2053.19" y="4111.94" style="font-family:'Helvetica';font-size:229.95px;fill:#000000" transform="rotate(-45 2053.19,4111.94)" text-anchor="end">0.0</text>
	<line x1="2470.50" y1="3895.65" x2="2470.50" y2="4001.85" style="stroke:#000000;stroke-width:15.32"/>
	<text x="2527.49" y="4111.94" style="font-family:'Helvetica';font-size:229.95px;fill:#000000" transform="rotate(-45 2527.49,4111.94)" text-anchor="end">0.6</text>
	<line x1="2944.80" y1="3895.65" x2="2944.80" y2="4001.85" style="stroke:#000000;stroke-width:15.32"/>
	<text x="3001.79" y="4111.94" style="font-family:'Helvetica';font-size:229.95px;fill:#000000" transform="rotate(-45 3001.79,4111.94)" text-anchor="end">1.2</text>
	<line x1="3419.10" y1="3895.65" x2="3419.10" y2="4001.85" style="stroke:#000000;stroke-width:15.32"/>
	<text x="3476.09" y="4111.94" style="font-family:'Helvetica';font-size:229.95px;fill:#000000" transform="rotate(-45 3476.09,4111.94)" text-anchor="end">1.8</text>
	<line x1="3892.95" y1="3895.65" x2="3892.95" y2="4001.85" style="stroke:#000000;stroke-width:15.32"/>
	<text x="3949.94" y="4111.94" style="font-family:'Helvetica';font-size:229.95px;fill:#000000" transform="rotate(-45 3949.94,4111.94)" text-anchor="end">2.4</text>
	<line x1="4367.25" y1="3895.65" x2="4367.25" y2="4001.85" style="stroke:#000000;stroke-width:15.32"/>
	<text x="4424.24" y="4111.94" style="font-family:'Helvetica';font-size:229.95px;fill:#000000" transform="rotate(-45 4424.24,4111.94)" text-anchor="end">3.0</text>
	<text x="2944.80" y="4774.95" style="fill:#000000" text-anchor="middle">
		<tspan style="font-family:'Helvetica';font-size:245.25px">Rel. Deviation (</tspan>
		<tspan style="font-family:'Helvetica';font-style:italic;font-size:245.25px">RD</tspan>
		<tspan style="font-family:'Helvetica';font-size:245.25px">)</tspan>
	</text>
	<rect x="1353.60" y="616.95" width="3182.40" height="398.25" style="fill:#DCDCDC;fill-opacity:0.50"/>
	<rect x="1345.94" y="609.29" width="3197.72" height="413.57" style="fill:none;stroke:#000000;stroke-opacity:0.50;stroke-width:15.32"/>
	<text x="2944.80" y="902.25" style="fill:#000000" text-anchor="middle">
		<tspan style="font-family:'Helvetica';font-style:italic;font-size:245.25px">t</tspan>
		<tspan style="font-family:'Helvetica';font-size:245.25px">(163) = 8.288, </tspan>
		<tspan style="font-family:'Helvetica';font-style:italic;font-size:245.25px">p</tspan>
		<tspan style="font-family:'Helvetica';font-size:245.25px"> = 0.000</tspan>
	</text>
	<text x="1399.50" y="376.38" style="font-family:'Helvetica';font-weight:bold;font-size:291.15px;fill:#000000">(a)</text>
	<rect x="4842.45" y="126.90" width="4715.10" height="4774.95" style="fill:#FFFFFF"/>
	<rect x="4850.11" y="134.56" width="4699.78" height="4759.63" style="fill:none;stroke:#FFFFFF;stroke-width:15.32"/>
	<rect x="6069.15" y="1030.50" width="3182.40" height="2912.40" style="fill:#FFFFFF"/>
	<rect x="6061.49" y="1022.84" width="3197.72" height="2927.72" style="fill:none;stroke:#000000;stroke-width:15.32"/>
	<line x1="6069.15" y1="3774.60" x2="9251.55" y2="3774.60" style="stroke:#C0C0C0;stroke-opacity:0.40;stroke-width:3.83"/>
	<line x1="6069.15" y1="3516.75" x2="9251.55" y2="3516.75" style="stroke:#C0C0C0;stroke-opacity:0.40;stroke-width:3.83"/>
	<line x1="6069.15" y1="3259.35" x2="9251.55" y2="3259.35" style="stroke:#C0C0C0;stroke-opacity:0.40;stroke-width:3.83"/>
	<line x1="6069.15" y1="3001.95" x2="9251.55" y2="3001.95" style="stroke:#C0C0C0;stroke-opacity:0.40;stroke-width:3.83"/>
	<line x1="6069.15" y1="2744.55" x2="9251.55" y2="2744.55" style="stroke:#C0C0C0;stroke-opacity:0.40;stroke-width:3.83"/>
	<line x1="6069.15" y1="2486.70" x2="9251.55" y2="2486.70" style="stroke:#C0C0C0;stroke-opacity:0.40;stroke-width:3.83"/>
	<line x1="6069.15" y1="2229.30" x2="9251.55" y2="2229.30" style="stroke:#C0C0C0;stroke-opacity:0.40;stroke-width:3.83"/>
	<line x1="6069.15" y1="1971.90" x2="9251.55" y2="1971.90" style="stroke:#C0C0C0;stroke-opacity:0.40;stroke-width:3.83"/>
	<line x1="6069.15" y1="1714.05" x2="9251.55" y2="1714.05" style="stroke:#C0C0C0;stroke-opacity:0.40;stroke-width:3.83"/>
	<line x1="6069.15" y1="1456.65" x2="9251.55" y2="1456.65" style="stroke:#C0C0C0;stroke-opacity:0.40;stroke-width:3.83"/>
	<line x1="6069.15" y1="1199.25" x2="9251.55" y2="1199.25" style="stroke:#C0C0C0;stroke-opacity:0.40;stroke-width:3.83"/>
	<line x1="6069.15" y1="3774.60" x2="9251.55" y2="3774.60" style="stroke:#C0C0C0;stroke-opacity:0.40;stroke-width:3.83"/>
	<line x1="6069.15" y1="3259.35" x2="9251.55" y2="3259.35" style="stroke:#C0C0C0;stroke-opacity:0.40;stroke-width:3.83"/>
	<line x1="6069.15" y1="2744.55" x2="9251.55" y2="2744.55" style="stroke:#C0C0C0;stroke-opacity:0.40;stroke-width:3.83"/>
	<line x1="6069.15" y1="2229.30" x2="9251.55" y2="2229.30" style="stroke:#C0C0C0;stroke-opacity:0.40;stroke-width:3.83"/>
	<line x1="6069.15" y1="1714.05" x2="9251.55" y2="1714.05" style="stroke:#C0C0C0;stroke-opacity:0.40;stroke-width:3.83"/>
	<line x1="6069.15" y1="1199.25" x2="9251.55" y2="1199.25" style="stroke:#C0C0C0;stroke-opacity:0.40;stroke-width:3.83"/>
	<line x1="6262.65" y1="3942.90" x2="6262.65" y2="1030.50" style="stroke:#C0C0C0;stroke-opacity:0.40;stroke-width:3.83"/>
	<line x1="6732.45" y1="3942.90" x2="6732.45" y2="1030.50" style="stroke:#C0C0C0;stroke-opacity:0.40;stroke-width:3.83"/>
	<line x1="7202.70" y1="3942.90" x2="7202.70" y2="1030.50" style="stroke:#C0C0C0;stroke-opacity:0.40;stroke-width:3.83"/>
	<line x1="7672.50" y1="3942.90" x2="7672.50" y2="1030.50" style="stroke:#C0C0C0;stroke-opacity:0.40;stroke-width:3.83"/>
	<line x1="8142.75" y1="3942.90" x2="8142.75" y2="1030.50" style="stroke:#C0C0C0;stroke-opacity:0.40;stroke-width:3.83"/>
	<line x1="8612.55" y1="3942.90" x2="8612.55" y2="1030.50" style="stroke:#C0C0C0;stroke-opacity:0.40;stroke-width:3.83"/>
	<line x1="9082.80" y1="3942.90" x2="9082.80" y2="1030.50" style="stroke:#C0C0C0;stroke-opacity:0.40;stroke-width:3.83"/>
	<line x1="6975.90" y1="3774.60" x2="6975.90" y2="3659.40" style="stroke:#78A29A;stroke-width:22.98"/>
	<line x1="6975.90" y1="3601.80" x2="6975.90" y2="3486.60" style="stroke:#78A29A;stroke-width:22.98"/>
	<line x1="6975.90" y1="3429.00" x2="6975.90" y2="3313.80" style="stroke:#78A29A;stroke-width:22.98"/>
	<line x1="6975.90" y1="3256.20" x2="6975.90" y2="3141.00" style="stroke:#78A29A;stroke-width:22.98"/>
	<line x1="6975.90" y1="3083.40" x2="6975.90" y2="2968.20" style="stroke:#78A29A;stroke-width:22.98"/>
	<line x1="6975.90" y1="2910.60" x2="6975.90" y2="2795.40" style="stroke:#78A29A;stroke-width:22.98"/>
	<line x1="6975.90" y1="2737.80" x2="6975.90" y2="2622.60" style="stroke:#78A29A;stroke-width:22.98"/>
	<line x1="6975.90" y1="2565.00" x2="6975.90" y2="2449.80" style="stroke:#78A29A;stroke-width:22.98"/>
	<line x1="6975.90" y1="2392.20" x2="6975.90" y2="2277.00" style="stroke:#78A29A;stroke-width:22.98"/>
	<line x1="6975.90" y1="2219.40" x2="6975.90" y2="2104.20" style="stroke:#78A29A;stroke-width:22.98"/>
	<line x1="6975.90" y1="2046.60" x2="6975.90" y2="1931.40" style="stroke:#78A29A;stroke-width:22.98"/>
	<line x1="6975.90" y1="1873.80" x2="6975.90" y2="1758.60" style="stroke:#78A29A;stroke-width:22.98"/>
	<line x1="6975.90" y1="1701.00" x2="6975.90" y2="1585.80" style="stroke:#78A29A;stroke-width:22.98"/>
	<line x1="6975.90" y1="1528.20" x2="6975.90" y2="1413.00" style="stroke:#78A29A;stroke-width:22.98"/>
	<line x1="6975.90" y1="1355.40" x2="6975.90" y2="1240.20" style="stroke:#78A29A;stroke-width:22.98"/>
	<line x1="6678.00" y1="3774.60" x2="6678.00" y2="3659.40" style="stroke:#FFB068;stroke-width:22.98"/>
	<line x1="6678.00" y1="3601.80" x2="6678.00" y2="3486.60" style="stroke:#FFB068;stroke-width:22.98"/>
	<line x1="6678.00" y1="3429.00" x2="6678.00" y2="3313.80" style="stroke:#FFB068;stroke-width:22.98"/>
	<line x1="6678.00" y1="3256.20" x2="6678.00" y2="3141.00" style="stroke:#FFB068;stroke-width:22.98"/>
	<line x1="6678.00" y1="3083.40" x2="6678.00" y2="2968.20" style="stroke:#FFB068;stroke-width:22.98"/>
	<line x1="6678.00" y1="2910.60" x2="6678.00" y2="2795.40" style="stroke:#FFB068;stroke-width:22.98"/>
	<line x1="6678.00" y1="2737.80" x2="6678.00" y2="2622.60" style="stroke:#FFB068;stroke-width:22.98"/>
	<line x1="6678.00" y1="2565.00" x2="6678.00" y2="2449.80" style="stroke:#FFB068;stroke-width:22.98"/>
	<line x1="6678.00" y1="2392.20" x2="6678.00" y2="2277.00" style="stroke:#FFB068;stroke-width:22.98"/>
	<line x1="6678.00" y1="2219.40" x2="6678.00" y2="2104.20" style="stroke:#FFB068;stroke-width:22.98"/>
	<line x1="6678.00" y1="2046.60" x2="6678.00" y2="1931.40" style="stroke:#FFB068;stroke-width:22.98"/>
	<line x1="6678.00" y1="1873.80" x2="6678.00" y2="1758.60" style="stroke:#FFB068;stroke-width:22.98"/>
	<line x1="6678.00" y1="1701.00" x2="6678.00" y2="1585.80" style="stroke:#FFB068;stroke-width:22.98"/>
	<line x1="6678.00" y1="1528.20" x2="6678.00" y2="1413.00" style="stroke:#FFB068;stroke-width:22.98"/>
	<line x1="6678.00" y1="1355.40" x2="6678.00" y2="1240.20" style="stroke:#FFB068;stroke-width:22.98"/>
	<path d=" M6237.45 3758.85 L6255.90 3758.85 L6255.90 3743.10 L6279.30 3743.10 L6279.30 3727.35 L6282.00 3727.35 L6282.00 3712.05 L6284.25 3712.05 L6284.25 3696.30 L6286.05 3696.30 L6286.05 3680.55 L6308.55 3680.55 L6308.55 3664.80 L6327.45 3664.80 L6327.45 3649.05 L6350.40 3649.05 L6350.40 3633.30 L6363.45 3633.30 L6363.45 3617.55 L6404.85 3617.55 L6404.85 3601.80 L6405.75 3601.80 L6405.75 3586.05 L6406.65 3586.05 L6406.65 3570.30 L6420.60 3570.30 L6420.60 3555.00 L6426.45 3555.00 L6426.45 3539.25 L6443.10 3539.25 L6443.10 3523.50 L6470.10 3523.50 L6470.10 3507.75 L6471.00 3507.75 L6471.00 3492.00 L6475.95 3492.00 L6475.95 3476.25 L6492.60 3476.25 L6492.60 3460.50 L6497.10 3460.50 L6497.10 3444.75 L6502.50 3444.75 L6502.50 3429.00 L6509.25 3429.00 L6509.25 3413.70 L6514.20 3413.70 L6514.20 3397.95 L6525.90 3397.95 L6525.90 3382.20 L6525.90 3382.20 L6525.90 3366.45 L6527.25 3366.45 L6527.25 3350.70 L6527.70 3350.70 L6527.70 3334.95 L6529.50 3334.95 L6529.50 3319.20 L6532.65 3319.20 L6532.65 3303.45 L6537.15 3303.45 L6537.15 3287.70 L6541.20 3287.70 L6541.20 3271.95 L6549.75 3271.95 L6549.75 3256.65 L6555.15 3256.65 L6555.15 3240.90 L6560.55 3240.90 L6560.55 3225.15 L6571.35 3225.15 L6571.35 3209.40 L6586.65 3209.40 L6586.65 3193.65 L6586.65 3193.65 L6586.65 3177.90 L6590.25 3177.90 L6590.25 3162.15 L6596.55 3162.15 L6596.55 3146.40 L6607.35 3146.40 L6607.35 3130.65 L6613.20 3130.65 L6613.20 3115.35 L6636.15 3115.35 L6636.15 3099.60 L6642.00 3099.60 L6642.00 3083.85 L6646.95 3083.85 L6646.95 3068.10 L6647.85 3068.10 L6647.85 3052.35 L6648.30 3052.35 L6648.30 3036.60 L6664.05 3036.60 L6664.05 3020.85 L6679.80 3020.85 L6679.80 3005.10 L6683.40 3005.10 L6683.40 2989.35 L6685.20 2989.35 L6685.20 2974.05 L6697.35 2974.05 L6697.35 2958.30 L6704.55 2958.30 L6704.55 2942.55 L6710.40 2942.55 L6710.40 2926.80 L6712.65 2926.80 L6712.65 2911.05 L6720.30 2911.05 L6720.30 2895.30 L6730.65 2895.30 L6730.65 2879.55 L6731.10 2879.55 L6731.10 2863.80 L6736.50 2863.80 L6736.50 2848.05 L6745.05 2848.05 L6745.05 2832.30 L6769.80 2832.30 L6769.80 2817.00 L6772.50 2817.00 L6772.50 2801.25 L6777.00 2801.25 L6777.00 2785.50 L6783.30 2785.50 L6783.30 2769.75 L6790.95 2769.75 L6790.95 2754.00 L6791.85 2754.00 L6791.85 2738.25 L6792.75 2738.25 L6792.75 2722.50 L6792.75 2722.50 L6792.75 2706.75 L6799.05 2706.75 L6799.05 2691.00 L6800.40 2691.00 L6800.40 2675.70 L6806.70 2675.70 L6806.70 2659.95 L6817.50 2659.95 L6817.50 2644.20 L6826.95 2644.20 L6826.95 2628.45 L6836.40 2628.45 L6836.40 2612.70 L6838.65 2612.70 L6838.65 2596.95 L6840.90 2596.95 L6840.90 2581.20 L6844.95 2581.20 L6844.95 2565.45 L6853.95 2565.45 L6853.95 2549.70 L6869.25 2549.70 L6869.25 2533.95 L6878.25 2533.95 L6878.25 2518.65 L6882.75 2518.65 L6882.75 2502.90 L6889.05 2502.90 L6889.05 2487.15 L6889.05 2487.15 L6889.05 2471.40 L6891.75 2471.40 L6891.75 2455.65 L6893.55 2455.65 L6893.55 2439.90 L6903.45 2439.90 L6903.45 2424.15 L6908.40 2424.15 L6908.40 2408.40 L6919.65 2408.40 L6919.65 2392.65 L6921.00 2392.65 L6921.00 2377.35 L6930.90 2377.35 L6930.90 2361.60 L6939.90 2361.60 L6939.90 2345.85 L6945.30 2345.85 L6945.30 2330.10 L6959.25 2330.10 L6959.25 2314.35 L6960.60 2314.35 L6960.60 2298.60 L6975.90 2298.60 L6975.90 2282.85 L6979.95 2282.85 L6979.95 2267.10 L6982.20 2267.10 L6982.20 2251.35 L6984.00 2251.35 L6984.00 2235.60 L6986.25 2235.60 L6986.25 2220.30 L6996.60 2220.30 L6996.60 2204.55 L7032.60 2204.55 L7032.60 2188.80 L7039.35 2188.80 L7039.35 2173.05 L7043.85 2173.05 L7043.85 2157.30 L7044.30 2157.30 L7044.30 2141.55 L7046.10 2141.55 L7046.10 2125.80 L7050.60 2125.80 L7050.60 2110.05 L7065.45 2110.05 L7065.45 2094.30 L7067.70 2094.30 L7067.70 2079.00 L7072.20 2079.00 L7072.20 2063.25 L7073.55 2063.25 L7073.55 2047.50 L7087.95 2047.50 L7087.95 2031.75 L7090.65 2031.75 L7090.65 2016.00 L7100.10 2016.00 L7100.10 2000.25 L7144.65 2000.25 L7144.65 1984.50 L7146.90 1984.50 L7146.90 1968.75 L7149.60 1968.75 L7149.60 1953.00 L7156.80 1953.00 L7156.80 1937.25 L7165.35 1937.25 L7165.35 1921.95 L7171.20 1921.95 L7171.20 1906.20 L7177.95 1906.20 L7177.95 1890.45 L7191.00 1890.45 L7191.00 1874.70 L7195.50 1874.70 L7195.50 1858.95 L7209.45 1858.95 L7209.45 1843.20 L7212.15 1843.20 L7212.15 1827.45 L7226.10 1827.45 L7226.10 1811.70 L7227.45 1811.70 L7227.45 1795.95 L7234.20 1795.95 L7234.20 1780.65 L7254.45 1780.65 L7254.45 1764.90 L7258.05 1764.90 L7258.05 1749.15 L7272.90 1749.15 L7272.90 1733.40 L7292.70 1733.40 L7292.70 1717.65 L7294.05 1717.65 L7294.05 1701.90 L7301.25 1701.90 L7301.25 1686.15 L7364.70 1686.15 L7364.70 1670.40 L7367.40 1670.40 L7367.40 1654.65 L7382.25 1654.65 L7382.25 1638.90 L7418.70 1638.90 L7418.70 1623.60 L7445.70 1623.60 L7445.70 1607.85 L7446.60 1607.85 L7446.60 1592.10 L7450.20 1592.10 L7450.20 1576.35 L7469.10 1576.35 L7469.10 1560.60 L7469.55 1560.60 L7469.55 1544.85 L7486.20 1544.85 L7486.20 1529.10 L7492.05 1529.10 L7492.05 1513.35 L7504.20 1513.35 L7504.20 1497.60 L7530.75 1497.60 L7530.75 1482.30 L7574.40 1482.30 L7574.40 1466.55 L7659.00 1466.55 L7659.00 1450.80 L7663.95 1450.80 L7663.95 1435.05 L7666.65 1435.05 L7666.65 1419.30 L7738.65 1419.30 L7738.65 1403.55 L7790.40 1403.55 L7790.40 1387.80 L7792.65 1387.80 L7792.65 1372.05 L7838.10 1372.05 L7838.10 1356.30 L7858.35 1356.30 L7858.35 1341.00 L7911.45 1341.00 L7911.45 1325.25 L8001.90 1325.25 L8001.90 1309.50 L8004.60 1309.50 L8004.60 1293.75 L8032.50 1293.75 L8032.50 1278.00 L8162.10 1278.00 L8162.10 1262.25 L8236.80 1262.25 L8236.80 1246.50 L8560.35 1246.50 L8560.35 1230.75 L8566.65 1230.75 L8566.65 1215.00 L9082.35 1215.00 L9082.35 1199.25" stroke-linejoin="round" style="fill:none;stroke:#4B8378;stroke-width:22.98"/>
	<path d=" M6253.65 3758.85 L6255.90 3743.10 L6258.60 3727.35 L6274.80 3712.05 L6280.65 3696.30 L6280.65 3680.55 L6284.70 3664.80 L6285.15 3649.05 L6297.75 3633.30 L6298.65 3617.55 L6300.45 3601.80 L6308.55 3586.05 L6313.50 3570.30 L6316.65 3555.00 L6319.80 3539.25 L6320.25 3523.50 L6320.70 3507.75 L6324.75 3492.00 L6325.65 3476.25 L6325.65 3460.50 L6326.55 3444.75 L6328.35 3429.00 L6331.50 3413.70 L6336.00 3397.95 L6341.85 3382.20 L6343.20 3366.45 L6345.00 3350.70 L6350.40 3334.95 L6356.70 3319.20 L6360.30 3303.45 L6362.10 3287.70 L6363.90 3271.95 L6368.40 3256.65 L6374.25 3240.90 L6378.75 3225.15 L6381.00 3209.40 L6382.35 3193.65 L6384.15 3177.90 L6385.05 3162.15 L6387.30 3146.40 L6394.50 3130.65 L6395.85 3115.35 L6396.30 3099.60 L6400.80 3083.85 L6401.25 3068.10 L6403.05 3052.35 L6406.65 3036.60 L6412.05 3020.85 L6419.25 3005.10 L6420.15 2989.35 L6420.15 2974.05 L6423.30 2958.30 L6430.05 2942.55 L6430.95 2926.80 L6435.45 2911.05 L6436.80 2895.30 L6442.20 2879.55 L6444.00 2863.80 L6448.95 2848.05 L6456.60 2832.30 L6458.85 2817.00 L6463.35 2801.25 L6463.80 2785.50 L6464.25 2769.75 L6472.35 2754.00 L6475.50 2738.25 L6490.80 2722.50 L6501.15 2706.75 L6508.35 2691.00 L6510.15 2675.70 L6513.30 2659.95 L6516.00 2644.20 L6519.60 2628.45 L6521.85 2612.70 L6527.70 2596.95 L6527.70 2581.20 L6538.50 2565.45 L6556.05 2549.70 L6557.40 2533.95 L6557.40 2518.65 L6560.10 2502.90 L6577.20 2487.15 L6588.90 2471.40 L6591.15 2455.65 L6592.05 2439.90 L6596.10 2424.15 L6598.80 2408.40 L6611.85 2392.65 L6613.20 2377.35 L6624.00 2361.60 L6625.35 2345.85 L6628.95 2330.10 L6634.35 2314.35 L6643.35 2298.60 L6645.15 2282.85 L6645.60 2267.10 L6647.85 2251.35 L6649.20 2235.60 L6649.20 2220.30 L6649.65 2204.55 L6660.90 2188.80 L6678.45 2173.05 L6681.15 2157.30 L6683.40 2141.55 L6687.00 2125.80 L6688.35 2110.05 L6724.80 2094.30 L6727.50 2079.00 L6732.45 2063.25 L6770.70 2047.50 L6772.95 2031.75 L6776.10 2016.00 L6781.50 2000.25 L6799.95 1984.50 L6804.00 1968.75 L6835.05 1953.00 L6836.85 1937.25 L6839.10 1921.95 L6866.55 1906.20 L6868.80 1890.45 L6869.25 1874.70 L6887.70 1858.95 L6890.40 1843.20 L6891.75 1827.45 L6898.05 1811.70 L6901.20 1795.95 L6912.45 1780.65 L6925.50 1764.90 L6925.95 1749.15 L6934.95 1733.40 L6945.30 1717.65 L6990.75 1701.90 L6991.65 1686.15 L6996.60 1670.40 L6999.75 1654.65 L7002.90 1638.90 L7003.80 1623.60 L7008.30 1607.85 L7017.75 1592.10 L7023.15 1576.35 L7080.75 1560.60 L7090.20 1544.85 L7119.00 1529.10 L7140.15 1513.35 L7152.30 1497.60 L7158.15 1482.30 L7159.50 1466.55 L7159.95 1450.80 L7168.05 1435.05 L7172.55 1419.30 L7185.60 1403.55 L7328.70 1387.80 L7329.60 1372.05 L7357.95 1356.30 L7364.70 1341.00 L7384.50 1325.25 L7479.00 1309.50 L7484.40 1293.75 L7491.15 1278.00 L7559.10 1262.25 L7584.75 1246.50 L7602.75 1230.75 L7844.40 1215.00 L8439.30 1199.25" stroke-linejoin="round" style="fill:none;stroke:#FF9636;stroke-width:22.98"/>
	<path d="
M6899.40 3774.60 L6899.40 3774.60 L6899.40 1199.25 L7051.50 1199.25 L7051.50 3774.60 L7051.50 3774.60 L6899.40 3774.60 L6899.40 3774.60 Z" stroke-linejoin="round" style="fill:#6F9C93;fill-opacity:0.15;stroke:#00BF7F;stroke-width:0.00"/>
	<path d="
M6620.85 3774.60 L6620.85 3774.60 L6620.85 1199.25 L6734.70 1199.25 L6734.70 3774.60 L6734.70 3774.60 L6620.85 3774.60 L6620.85 3774.60 Z" stroke-linejoin="round" style="fill:#FFAB5E;fill-opacity:0.15;stroke:#FFD400;stroke-width:0.00"/>
	<line x1="6069.15" y1="3942.90" x2="6069.15" y2="1030.50" style="stroke:#000000;stroke-width:15.32"/>
	<line x1="6069.15" y1="3774.60" x2="6016.05" y2="3774.60" style="stroke:#000000;stroke-width:15.32"/>
	<line x1="6069.15" y1="3516.75" x2="6016.05" y2="3516.75" style="stroke:#000000;stroke-width:15.32"/>
	<line x1="6069.15" y1="3259.35" x2="6016.05" y2="3259.35" style="stroke:#000000;stroke-width:15.32"/>
	<line x1="6069.15" y1="3001.95" x2="6016.05" y2="3001.95" style="stroke:#000000;stroke-width:15.32"/>
	<line x1="6069.15" y1="2744.55" x2="6016.05" y2="2744.55" style="stroke:#000000;stroke-width:15.32"/>
	<line x1="6069.15" y1="2486.70" x2="6016.05" y2="2486.70" style="stroke:#000000;stroke-width:15.32"/>
	<line x1="6069.15" y1="2229.30" x2="6016.05" y2="2229.30" style="stroke:#000000;stroke-width:15.32"/>
	<line x1="6069.15" y1="1971.90" x2="6016.05" y2="1971.90" style="stroke:#000000;stroke-width:15.32"/>
	<line x1="6069.15" y1="1714.05" x2="6016.05" y2="1714.05" style="stroke:#000000;stroke-width:15.32"/>
	<line x1="6069.15" y1="1456.65" x2="6016.05" y2="1456.65" style="stroke:#000000;stroke-width:15.32"/>
	<line x1="6069.15" y1="1199.25" x2="6016.05" y2="1199.25" style="stroke:#000000;stroke-width:15.32"/>
	<line x1="6069.15" y1="3774.60" x2="5962.95" y2="3774.60" style="stroke:#000000;stroke-width:15.32"/>
	<text x="5966.39" y="3831.59" style="font-family:'Helvetica';font-size:229.95px;fill:#000000" transform="rotate(-45 5966.39,3831.59)" text-anchor="end">0.0</text>
	<line x1="6069.15" y1="3259.35" x2="5962.95" y2="3259.35" style="stroke:#000000;stroke-width:15.32"/>
	<text x="5966.39" y="3316.34" style="font-family:'Helvetica';font-size:229.95px;fill:#000000" transform="rotate(-45 5966.39,3316.34)" text-anchor="end">0.2</text>
	<line x1="6069.15" y1="2744.55" x2="5962.95" y2="2744.55" style="stroke:#000000;stroke-width:15.32"/>
	<text x="5966.39" y="2801.54" style="font-family:'Helvetica';font-size:229.95px;fill:#000000" transform="rotate(-45 5966.39,2801.54)" text-anchor="end">0.4</text>
	<line x1="6069.15" y1="2229.30" x2="5962.95" y2="2229.30" style="stroke:#000000;stroke-width:15.32"/>
	<text x="5966.39" y="2286.29" style="font-family:'Helvetica';font-size:229.95px;fill:#000000" transform="rotate(-45 5966.39,2286.29)" text-anchor="end">0.6</text>
	<line x1="6069.15" y1="1714.05" x2="5962.95" y2="1714.05" style="stroke:#000000;stroke-width:15.32"/>
	<text x="5966.39" y="1771.04" style="font-family:'Helvetica';font-size:229.95px;fill:#000000" transform="rotate(-45 5966.39,1771.04)" text-anchor="end">0.8</text>
	<line x1="6069.15" y1="1199.25" x2="5962.95" y2="1199.25" style="stroke:#000000;stroke-width:15.32"/>
	<text x="5966.39" y="1256.24" style="font-family:'Helvetica';font-size:229.95px;fill:#000000" transform="rotate(-45 5966.39,1256.24)" text-anchor="end">1.0</text>
	<text x="5373.00" y="2486.70" style="font-family:'Helvetica';font-size:245.25px;fill:#000000" transform="rotate(-90 5373.00,2486.70)" text-anchor="middle">Cumulative Probability</text>
	<line x1="6069.15" y1="3942.90" x2="9251.55" y2="3942.90" style="stroke:#000000;stroke-width:7.66"/>
	<line x1="6262.65" y1="3942.90" x2="6262.65" y2="4049.55" style="stroke:#000000;stroke-width:15.32"/>
	<text x="6319.64" y="4159.64" style="font-family:'Helvetica';font-size:229.95px;fill:#000000" transform="rotate(-45 6319.64,4159.64)" text-anchor="end">0.0</text>
	<line x1="6732.45" y1="3942.90" x2="6732.45" y2="4049.55" style="stroke:#000000;stroke-width:15.32"/>
	<text x="6789.44" y="4159.64" style="font-family:'Helvetica';font-size:229.95px;fill:#000000" transform="rotate(-45 6789.44,4159.64)" text-anchor="end">0.8</text>
	<line x1="7202.70" y1="3942.90" x2="7202.70" y2="4049.55" style="stroke:#000000;stroke-width:15.32"/>
	<text x="7259.69" y="4159.64" style="font-family:'Helvetica';font-size:229.95px;fill:#000000" transform="rotate(-45 7259.69,4159.64)" text-anchor="end">1.6</text>
	<line x1="7672.50" y1="3942.90" x2="7672.50" y2="4049.55" style="stroke:#000000;stroke-width:15.32"/>
	<text x="7729.49" y="4159.64" style="font-family:'Helvetica';font-size:229.95px;fill:#000000" transform="rotate(-45 7729.49,4159.64)" text-anchor="end">2.4</text>
	<line x1="8142.75" y1="3942.90" x2="8142.75" y2="4049.55" style="stroke:#000000;stroke-width:15.32"/>
	<text x="8199.74" y="4159.64" style="font-family:'Helvetica';font-size:229.95px;fill:#000000" transform="rotate(-45 8199.74,4159.64)" text-anchor="end">3.2</text>
	<line x1="8612.55" y1="3942.90" x2="8612.55" y2="4049.55" style="stroke:#000000;stroke-width:15.32"/>
	<text x="8669.54" y="4159.64" style="font-family:'Helvetica';font-size:229.95px;fill:#000000" transform="rotate(-45 8669.54,4159.64)" text-anchor="end">4.0</text>
	<line x1="9082.80" y1="3942.90" x2="9082.80" y2="4049.55" style="stroke:#000000;stroke-width:15.32"/>
	<text x="9139.79" y="4159.64" style="font-family:'Helvetica';font-size:229.95px;fill:#000000" transform="rotate(-45 9139.79,4159.64)" text-anchor="end">4.8</text>
	<text x="7660.35" y="4774.95" style="fill:#000000" text-anchor="middle">
		<tspan style="font-family:'Helvetica';font-size:245.25px">Peak Overpricing (</tspan>
		<tspan style="font-family:'Helvetica';font-style:italic;font-size:245.25px">RD</tspan>
		<tspan dy="35.04px" style="font-family:'Helvetica';font-size:142.98px">max</tspan>
		<tspan dy="-35.04px" style="font-family:'Helvetica';font-size:245.25px">)</tspan>
	</text>
	<rect x="6069.15" y="616.95" width="3182.40" height="398.25" style="fill:#DCDCDC;fill-opacity:0.50"/>
	<rect x="6061.49" y="609.29" width="3197.72" height="413.57" style="fill:none;stroke:#000000;stroke-opacity:0.50;stroke-width:15.32"/>
	<text x="7660.35" y="902.25" style="fill:#000000" text-anchor="middle">
		<tspan style="font-family:'Helvetica';font-style:italic;font-size:245.25px">t</tspan>
		<tspan style="font-family:'Helvetica';font-size:245.25px">(163) = 8.539, </tspan>
		<tspan style="font-family:'Helvetica';font-style:italic;font-size:245.25px">p</tspan>
		<tspan style="font-family:'Helvetica';font-size:245.25px"> = 0.000</tspan>
	</text>
	<text x="6115.05" y="376.38" style="font-family:'Helvetica';font-weight:bold;font-size:291.15px;fill:#000000">(b)</text>
	<rect x="9557.55" y="126.90" width="4715.55" height="4774.95" style="fill:#FFFFFF"/>
	<rect x="9565.21" y="134.56" width="4700.23" height="4759.63" style="fill:none;stroke:#FFFFFF;stroke-width:15.32"/>
	<rect x="10784.70" y="1030.50" width="3181.95" height="2912.40" style="fill:#FFFFFF"/>
	<rect x="10777.04" y="1022.84" width="3197.27" height="2927.72" style="fill:none;stroke:#000000;stroke-width:15.32"/>
	<line x1="10784.70" y1="3774.60" x2="13966.65" y2="3774.60" style="stroke:#C0C0C0;stroke-opacity:0.40;stroke-width:3.83"/>
	<line x1="10784.70" y1="3516.75" x2="13966.65" y2="3516.75" style="stroke:#C0C0C0;stroke-opacity:0.40;stroke-width:3.83"/>
	<line x1="10784.70" y1="3259.35" x2="13966.65" y2="3259.35" style="stroke:#C0C0C0;stroke-opacity:0.40;stroke-width:3.83"/>
	<line x1="10784.70" y1="3001.95" x2="13966.65" y2="3001.95" style="stroke:#C0C0C0;stroke-opacity:0.40;stroke-width:3.83"/>
	<line x1="10784.70" y1="2744.55" x2="13966.65" y2="2744.55" style="stroke:#C0C0C0;stroke-opacity:0.40;stroke-width:3.83"/>
	<line x1="10784.70" y1="2486.70" x2="13966.65" y2="2486.70" style="stroke:#C0C0C0;stroke-opacity:0.40;stroke-width:3.83"/>
	<line x1="10784.70" y1="2229.30" x2="13966.65" y2="2229.30" style="stroke:#C0C0C0;stroke-opacity:0.40;stroke-width:3.83"/>
	<line x1="10784.70" y1="1971.90" x2="13966.65" y2="1971.90" style="stroke:#C0C0C0;stroke-opacity:0.40;stroke-width:3.83"/>
	<line x1="10784.70" y1="1714.05" x2="13966.65" y2="1714.05" style="stroke:#C0C0C0;stroke-opacity:0.40;stroke-width:3.83"/>
	<line x1="10784.70" y1="1456.65" x2="13966.65" y2="1456.65" style="stroke:#C0C0C0;stroke-opacity:0.40;stroke-width:3.83"/>
	<line x1="10784.70" y1="1199.25" x2="13966.65" y2="1199.25" style="stroke:#C0C0C0;stroke-opacity:0.40;stroke-width:3.83"/>
	<line x1="10784.70" y1="3774.60" x2="13966.65" y2="3774.60" style="stroke:#C0C0C0;stroke-opacity:0.40;stroke-width:3.83"/>
	<line x1="10784.70" y1="3259.35" x2="13966.65" y2="3259.35" style="stroke:#C0C0C0;stroke-opacity:0.40;stroke-width:3.83"/>
	<line x1="10784.70" y1="2744.55" x2="13966.65" y2="2744.55" style="stroke:#C0C0C0;stroke-opacity:0.40;stroke-width:3.83"/>
	<line x1="10784.70" y1="2229.30" x2="13966.65" y2="2229.30" style="stroke:#C0C0C0;stroke-opacity:0.40;stroke-width:3.83"/>
	<line x1="10784.70" y1="1714.05" x2="13966.65" y2="1714.05" style="stroke:#C0C0C0;stroke-opacity:0.40;stroke-width:3.83"/>
	<line x1="10784.70" y1="1199.25" x2="13966.65" y2="1199.25" style="stroke:#C0C0C0;stroke-opacity:0.40;stroke-width:3.83"/>
	<line x1="10953.00" y1="3942.90" x2="10953.00" y2="1030.50" style="stroke:#C0C0C0;stroke-opacity:0.40;stroke-width:3.83"/>
	<line x1="11427.30" y1="3942.90" x2="11427.30" y2="1030.50" style="stroke:#C0C0C0;stroke-opacity:0.40;stroke-width:3.83"/>
	<line x1="11901.60" y1="3942.90" x2="11901.60" y2="1030.50" style="stroke:#C0C0C0;stroke-opacity:0.40;stroke-width:3.83"/>
	<line x1="12375.90" y1="3942.90" x2="12375.90" y2="1030.50" style="stroke:#C0C0C0;stroke-opacity:0.40;stroke-width:3.83"/>
	<line x1="12849.75" y1="3942.90" x2="12849.75" y2="1030.50" style="stroke:#C0C0C0;stroke-opacity:0.40;stroke-width:3.83"/>
	<line x1="13324.05" y1="3942.90" x2="13324.05" y2="1030.50" style="stroke:#C0C0C0;stroke-opacity:0.40;stroke-width:3.83"/>
	<line x1="13798.35" y1="3942.90" x2="13798.35" y2="1030.50" style="stroke:#C0C0C0;stroke-opacity:0.40;stroke-width:3.83"/>
	<line x1="11629.80" y1="3774.60" x2="11629.80" y2="3659.40" style="stroke:#78A29A;stroke-width:22.98"/>
	<line x1="11629.80" y1="3601.80" x2="11629.80" y2="3486.60" style="stroke:#78A29A;stroke-width:22.98"/>
	<line x1="11629.80" y1="3429.00" x2="11629.80" y2="3313.80" style="stroke:#78A29A;stroke-width:22.98"/>
	<line x1="11629.80" y1="3256.20" x2="11629.80" y2="3141.00" style="stroke:#78A29A;stroke-width:22.98"/>
	<line x1="11629.80" y1="3083.40" x2="11629.80" y2="2968.20" style="stroke:#78A29A;stroke-width:22.98"/>
	<line x1="11629.80" y1="2910.60" x2="11629.80" y2="2795.40" style="stroke:#78A29A;stroke-width:22.98"/>
	<line x1="11629.80" y1="2737.80" x2="11629.80" y2="2622.60" style="stroke:#78A29A;stroke-width:22.98"/>
	<line x1="11629.80" y1="2565.00" x2="11629.80" y2="2449.80" style="stroke:#78A29A;stroke-width:22.98"/>
	<line x1="11629.80" y1="2392.20" x2="11629.80" y2="2277.00" style="stroke:#78A29A;stroke-width:22.98"/>
	<line x1="11629.80" y1="2219.40" x2="11629.80" y2="2104.20" style="stroke:#78A29A;stroke-width:22.98"/>
	<line x1="11629.80" y1="2046.60" x2="11629.80" y2="1931.40" style="stroke:#78A29A;stroke-width:22.98"/>
	<line x1="11629.80" y1="1873.80" x2="11629.80" y2="1758.60" style="stroke:#78A29A;stroke-width:22.98"/>
	<line x1="11629.80" y1="1701.00" x2="11629.80" y2="1585.80" style="stroke:#78A29A;stroke-width:22.98"/>
	<line x1="11629.80" y1="1528.20" x2="11629.80" y2="1413.00" style="stroke:#78A29A;stroke-width:22.98"/>
	<line x1="11629.80" y1="1355.40" x2="11629.80" y2="1240.20" style="stroke:#78A29A;stroke-width:22.98"/>
	<line x1="11345.40" y1="3774.60" x2="11345.40" y2="3659.40" style="stroke:#FFB068;stroke-width:22.98"/>
	<line x1="11345.40" y1="3601.80" x2="11345.40" y2="3486.60" style="stroke:#FFB068;stroke-width:22.98"/>
	<line x1="11345.40" y1="3429.00" x2="11345.40" y2="3313.80" style="stroke:#FFB068;stroke-width:22.98"/>
	<line x1="11345.40" y1="3256.20" x2="11345.40" y2="3141.00" style="stroke:#FFB068;stroke-width:22.98"/>
	<line x1="11345.40" y1="3083.40" x2="11345.40" y2="2968.20" style="stroke:#FFB068;stroke-width:22.98"/>
	<line x1="11345.40" y1="2910.60" x2="11345.40" y2="2795.40" style="stroke:#FFB068;stroke-width:22.98"/>
	<line x1="11345.40" y1="2737.80" x2="11345.40" y2="2622.60" style="stroke:#FFB068;stroke-width:22.98"/>
	<line x1="11345.40" y1="2565.00" x2="11345.40" y2="2449.80" style="stroke:#FFB068;stroke-width:22.98"/>
	<line x1="11345.40" y1="2392.20" x2="11345.40" y2="2277.00" style="stroke:#FFB068;stroke-width:22.98"/>
	<line x1="11345.40" y1="2219.40" x2="11345.40" y2="2104.20" style="stroke:#FFB068;stroke-width:22.98"/>
	<line x1="11345.40" y1="2046.60" x2="11345.40" y2="1931.40" style="stroke:#FFB068;stroke-width:22.98"/>
	<line x1="11345.40" y1="1873.80" x2="11345.40" y2="1758.60" style="stroke:#FFB068;stroke-width:22.98"/>
	<line x1="11345.40" y1="1701.00" x2="11345.40" y2="1585.80" style="stroke:#FFB068;stroke-width:22.98"/>
	<line x1="11345.40" y1="1528.20" x2="11345.40" y2="1413.00" style="stroke:#FFB068;stroke-width:22.98"/>
	<line x1="11345.40" y1="1355.40" x2="11345.40" y2="1240.20" style="stroke:#FFB068;stroke-width:22.98"/>
	<path d=" M11015.10 3758.85 L11018.70 3758.85 L11018.70 3743.10 L11018.70 3743.10 L11018.70 3727.35 L11018.70 3727.35 L11018.70 3712.05 L11029.95 3712.05 L11029.95 3696.30 L11048.85 3696.30 L11048.85 3680.55 L11048.85 3680.55 L11048.85 3664.80 L11060.10 3664.80 L11060.10 3649.05 L11064.60 3649.05 L11064.60 3633.30 L11074.05 3633.30 L11074.05 3617.55 L11091.60 3617.55 L11091.60 3601.80 L11092.05 3601.80 L11092.05 3586.05 L11113.65 3586.05 L11113.65 3570.30 L11115.90 3570.30 L11115.90 3555.00 L11125.35 3555.00 L11125.35 3539.25 L11138.40 3539.25 L11138.40 3523.50 L11146.50 3523.50 L11146.50 3507.75 L11147.85 3507.75 L11147.85 3492.00 L11151.45 3492.00 L11151.45 3476.25 L11152.35 3476.25 L11152.35 3460.50 L11162.70 3460.50 L11162.70 3444.75 L11164.95 3444.75 L11164.95 3429.00 L11166.75 3429.00 L11166.75 3413.70 L11167.65 3413.70 L11167.65 3397.95 L11170.35 3397.95 L11170.35 3382.20 L11172.60 3382.20 L11172.60 3366.45 L11172.60 3366.45 L11172.60 3350.70 L11175.30 3350.70 L11175.30 3334.95 L11178.90 3334.95 L11178.90 3319.20 L11179.80 3319.20 L11179.80 3303.45 L11187.45 3303.45 L11187.45 3287.70 L11201.85 3287.70 L11201.85 3271.95 L11206.35 3271.95 L11206.35 3256.65 L11213.55 3256.65 L11213.55 3240.90 L11220.30 3240.90 L11220.30 3225.15 L11220.75 3225.15 L11220.75 3209.40 L11226.60 3209.40 L11226.60 3193.65 L11234.25 3193.65 L11234.25 3177.90 L11234.25 3177.90 L11234.25 3162.15 L11236.05 3162.15 L11236.05 3146.40 L11238.30 3146.40 L11238.30 3130.65 L11239.20 3130.65 L11239.20 3115.35 L11241.00 3115.35 L11241.00 3099.60 L11241.00 3099.60 L11241.00 3083.85 L11264.85 3083.85 L11264.85 3068.10 L11265.75 3068.10 L11265.75 3052.35 L11286.45 3052.35 L11286.45 3036.60 L11288.70 3036.60 L11288.70 3020.85 L11308.05 3020.85 L11308.05 3005.10 L11313.90 3005.10 L11313.90 2989.35 L11317.05 2989.35 L11317.05 2974.05 L11317.05 2974.05 L11317.05 2958.30 L11321.55 2958.30 L11321.55 2942.55 L11321.55 2942.55 L11321.55 2926.80 L11326.05 2926.80 L11326.05 2911.05 L11326.50 2911.05 L11326.50 2895.30 L11339.10 2895.30 L11339.10 2879.55 L11347.65 2879.55 L11347.65 2863.80 L11352.60 2863.80 L11352.60 2848.05 L11353.50 2848.05 L11353.50 2832.30 L11367.90 2832.30 L11367.90 2817.00 L11371.05 2817.00 L11371.05 2801.25 L11378.25 2801.25 L11378.25 2785.50 L11378.70 2785.50 L11378.70 2769.75 L11381.85 2769.75 L11381.85 2754.00 L11396.70 2754.00 L11396.70 2738.25 L11399.85 2738.25 L11399.85 2722.50 L11402.10 2722.50 L11402.10 2706.75 L11412.45 2706.75 L11412.45 2691.00 L11413.35 2691.00 L11413.35 2675.70 L11418.75 2675.70 L11418.75 2659.95 L11419.65 2659.95 L11419.65 2644.20 L11421.00 2644.20 L11421.00 2628.45 L11425.05 2628.45 L11425.05 2612.70 L11430.45 2612.70 L11430.45 2596.95 L11439.00 2596.95 L11439.00 2581.20 L11439.45 2581.20 L11439.45 2565.45 L11445.30 2565.45 L11445.30 2549.70 L11449.80 2549.70 L11449.80 2533.95 L11477.25 2533.95 L11477.25 2518.65 L11488.05 2518.65 L11488.05 2502.90 L11490.30 2502.90 L11490.30 2487.15 L11494.35 2487.15 L11494.35 2471.40 L11495.70 2471.40 L11495.70 2455.65 L11508.30 2455.65 L11508.30 2439.90 L11508.75 2439.90 L11508.75 2424.15 L11516.40 2424.15 L11516.40 2408.40 L11516.85 2408.40 L11516.85 2392.65 L11526.30 2392.65 L11526.30 2377.35 L11527.65 2377.35 L11527.65 2361.60 L11529.00 2361.60 L11529.00 2345.85 L11555.55 2345.85 L11555.55 2330.10 L11561.40 2330.10 L11561.40 2314.35 L11562.30 2314.35 L11562.30 2298.60 L11565.00 2298.60 L11565.00 2282.85 L11566.35 2282.85 L11566.35 2267.10 L11568.60 2267.10 L11568.60 2251.35 L11575.35 2251.35 L11575.35 2235.60 L11592.90 2235.60 L11592.90 2220.30 L11621.70 2220.30 L11621.70 2204.55 L11622.15 2204.55 L11622.15 2188.80 L11627.55 2188.80 L11627.55 2173.05 L11633.85 2173.05 L11633.85 2157.30 L11651.85 2157.30 L11651.85 2141.55 L11685.60 2141.55 L11685.60 2125.80 L11711.70 2125.80 L11711.70 2110.05 L11720.25 2110.05 L11720.25 2094.30 L11722.50 2094.30 L11722.50 2079.00 L11727.45 2079.00 L11727.45 2063.25 L11729.70 2063.25 L11729.70 2047.50 L11730.60 2047.50 L11730.60 2031.75 L11739.15 2031.75 L11739.15 2016.00 L11753.10 2016.00 L11753.10 2000.25 L11778.30 2000.25 L11778.30 1984.50 L11781.00 1984.50 L11781.00 1968.75 L11787.75 1968.75 L11787.75 1953.00 L11794.50 1953.00 L11794.50 1937.25 L11794.95 1937.25 L11794.95 1921.95 L11801.70 1921.95 L11801.70 1906.20 L11803.50 1906.20 L11803.50 1890.45 L11803.95 1890.45 L11803.95 1874.70 L11816.10 1874.70 L11816.10 1858.95 L11818.35 1858.95 L11818.35 1843.20 L11825.10 1843.20 L11825.10 1827.45 L11835.00 1827.45 L11835.00 1811.70 L11846.70 1811.70 L11846.70 1795.95 L11850.30 1795.95 L11850.30 1780.65 L11857.95 1780.65 L11857.95 1764.90 L11879.55 1764.90 L11879.55 1749.15 L11890.80 1749.15 L11890.80 1733.40 L11900.25 1733.40 L11900.25 1717.65 L11934.90 1717.65 L11934.90 1701.90 L11946.60 1701.90 L11946.60 1686.15 L11954.25 1686.15 L11954.25 1670.40 L11958.30 1670.40 L11958.30 1654.65 L11969.10 1654.65 L11969.10 1638.90 L11974.95 1638.90 L11974.95 1623.60 L11982.60 1623.60 L11982.60 1607.85 L12011.85 1607.85 L12011.85 1592.10 L12066.75 1592.10 L12066.75 1576.35 L12068.55 1576.35 L12068.55 1560.60 L12096.45 1560.60 L12096.45 1544.85 L12125.25 1544.85 L12125.25 1529.10 L12182.85 1529.10 L12182.85 1513.35 L12279.15 1513.35 L12279.15 1497.60 L12299.40 1497.60 L12299.40 1482.30 L12351.15 1482.30 L12351.15 1466.55 L12383.10 1466.55 L12383.10 1450.80 L12452.40 1450.80 L12452.40 1435.05 L12523.95 1435.05 L12523.95 1419.30 L12542.40 1419.30 L12542.40 1403.55 L12578.85 1403.55 L12578.85 1387.80 L12631.50 1387.80 L12631.50 1372.05 L12690.00 1372.05 L12690.00 1356.30 L12761.10 1356.30 L12761.10 1341.00 L12800.70 1341.00 L12800.70 1325.25 L12902.85 1325.25 L12902.85 1309.50 L12952.80 1309.50 L12952.80 1293.75 L13006.35 1293.75 L13006.35 1278.00 L13031.10 1278.00 L13031.10 1262.25 L13057.20 1262.25 L13057.20 1246.50 L13180.05 1246.50 L13180.05 1230.75 L13249.80 1230.75 L13249.80 1215.00 L13797.90 1215.00 L13797.90 1199.25" stroke-linejoin="round" style="fill:none;stroke:#4B8378;stroke-width:22.98"/>
	<path d=" M10972.80 3758.85 L10987.65 3743.10 L10995.30 3727.35 L11006.10 3712.05 L11008.80 3696.30 L11017.35 3680.55 L11018.25 3664.80 L11018.70 3649.05 L11019.60 3633.30 L11020.95 3617.55 L11020.95 3601.80 L11022.75 3586.05 L11026.80 3570.30 L11028.15 3555.00 L11031.75 3539.25 L11033.55 3523.50 L11034.45 3507.75 L11040.30 3492.00 L11041.20 3476.25 L11044.35 3460.50 L11046.15 3444.75 L11046.60 3429.00 L11052.00 3413.70 L11052.00 3397.95 L11054.25 3382.20 L11056.50 3366.45 L11073.15 3350.70 L11074.95 3334.95 L11075.40 3319.20 L11075.85 3303.45 L11077.65 3287.70 L11078.55 3271.95 L11083.95 3256.65 L11086.20 3240.90 L11086.65 3225.15 L11090.70 3209.40 L11095.20 3193.65 L11096.55 3177.90 L11102.40 3162.15 L11104.20 3146.40 L11106.00 3130.65 L11108.25 3115.35 L11110.05 3099.60 L11113.20 3083.85 L11123.10 3068.10 L11129.85 3052.35 L11131.20 3036.60 L11132.10 3020.85 L11137.95 3005.10 L11140.20 2989.35 L11142.90 2974.05 L11146.05 2958.30 L11149.65 2942.55 L11151.45 2926.80 L11154.60 2911.05 L11155.95 2895.30 L11156.40 2879.55 L11156.85 2863.80 L11161.80 2848.05 L11165.40 2832.30 L11173.50 2817.00 L11177.10 2801.25 L11179.35 2785.50 L11180.70 2769.75 L11184.30 2754.00 L11188.80 2738.25 L11193.75 2722.50 L11195.10 2706.75 L11200.50 2691.00 L11208.15 2675.70 L11209.50 2659.95 L11216.25 2644.20 L11224.35 2628.45 L11229.30 2612.70 L11235.15 2596.95 L11239.65 2581.20 L11241.90 2565.45 L11246.85 2549.70 L11247.75 2533.95 L11250.45 2518.65 L11253.15 2502.90 L11254.50 2487.15 L11255.40 2471.40 L11255.40 2455.65 L11259.90 2439.90 L11261.70 2424.15 L11263.05 2408.40 L11264.85 2392.65 L11267.10 2377.35 L11267.55 2361.60 L11270.25 2345.85 L11270.70 2330.10 L11273.85 2314.35 L11275.65 2298.60 L11282.85 2282.85 L11287.80 2267.10 L11289.60 2251.35 L11290.95 2235.60 L11292.30 2220.30 L11298.15 2204.55 L11298.15 2188.80 L11310.30 2173.05 L11315.70 2157.30 L11327.85 2141.55 L11345.40 2125.80 L11346.75 2110.05 L11367.45 2094.30 L11371.50 2079.00 L11372.85 2063.25 L11376.45 2047.50 L11376.90 2031.75 L11380.05 2016.00 L11380.95 2000.25 L11382.75 1984.50 L11389.05 1968.75 L11405.25 1953.00 L11424.15 1937.25 L11426.85 1921.95 L11432.25 1906.20 L11432.25 1890.45 L11434.50 1874.70 L11449.35 1858.95 L11456.10 1843.20 L11461.95 1827.45 L11468.70 1811.70 L11470.05 1795.95 L11473.65 1780.65 L11474.10 1764.90 L11502.00 1749.15 L11502.00 1733.40 L11524.50 1717.65 L11529.90 1701.90 L11537.55 1686.15 L11539.80 1670.40 L11551.50 1654.65 L11571.30 1638.90 L11585.25 1623.60 L11585.70 1607.85 L11592.00 1592.10 L11603.25 1576.35 L11613.15 1560.60 L11636.55 1544.85 L11666.25 1529.10 L11677.50 1513.35 L11699.55 1497.60 L11725.20 1482.30 L11734.20 1466.55 L11767.95 1450.80 L11832.75 1435.05 L11877.75 1419.30 L11906.55 1403.55 L12039.75 1387.80 L12062.25 1372.05 L12079.80 1356.30 L12086.10 1341.00 L12105.00 1325.25 L12127.50 1309.50 L12159.00 1293.75 L12181.50 1278.00 L12278.70 1262.25 L12315.15 1246.50 L12547.35 1230.75 L12561.75 1215.00 L12811.50 1199.25" stroke-linejoin="round" style="fill:none;stroke:#FF9636;stroke-width:22.98"/>
	<path d="
M11548.80 3774.60 L11548.80 3774.60 L11548.80 1199.25 L11710.80 1199.25 L11710.80 3774.60 L11710.80 3774.60 L11548.80 3774.60 L11548.80 3774.60 Z" stroke-linejoin="round" style="fill:#6F9C93;fill-opacity:0.15;stroke:#00BF7F;stroke-width:0.00"/>
	<path d="
M11292.75 3774.60 L11292.75 3774.60 L11292.75 1199.25 L11397.60 1199.25 L11397.60 3774.60 L11397.60 3774.60 L11292.75 3774.60 L11292.75 3774.60 Z" stroke-linejoin="round" style="fill:#FFAB5E;fill-opacity:0.15;stroke:#FFD400;stroke-width:0.00"/>
	<line x1="10784.70" y1="3942.90" x2="10784.70" y2="1030.50" style="stroke:#000000;stroke-width:15.32"/>
	<line x1="10784.70" y1="3774.60" x2="10731.60" y2="3774.60" style="stroke:#000000;stroke-width:15.32"/>
	<line x1="10784.70" y1="3516.75" x2="10731.60" y2="3516.75" style="stroke:#000000;stroke-width:15.32"/>
	<line x1="10784.70" y1="3259.35" x2="10731.60" y2="3259.35" style="stroke:#000000;stroke-width:15.32"/>
	<line x1="10784.70" y1="3001.95" x2="10731.60" y2="3001.95" style="stroke:#000000;stroke-width:15.32"/>
	<line x1="10784.70" y1="2744.55" x2="10731.60" y2="2744.55" style="stroke:#000000;stroke-width:15.32"/>
	<line x1="10784.70" y1="2486.70" x2="10731.60" y2="2486.70" style="stroke:#000000;stroke-width:15.32"/>
	<line x1="10784.70" y1="2229.30" x2="10731.60" y2="2229.30" style="stroke:#000000;stroke-width:15.32"/>
	<line x1="10784.70" y1="1971.90" x2="10731.60" y2="1971.90" style="stroke:#000000;stroke-width:15.32"/>
	<line x1="10784.70" y1="1714.05" x2="10731.60" y2="1714.05" style="stroke:#000000;stroke-width:15.32"/>
	<line x1="10784.70" y1="1456.65" x2="10731.60" y2="1456.65" style="stroke:#000000;stroke-width:15.32"/>
	<line x1="10784.70" y1="1199.25" x2="10731.60" y2="1199.25" style="stroke:#000000;stroke-width:15.32"/>
	<line x1="10784.70" y1="3774.60" x2="10678.50" y2="3774.60" style="stroke:#000000;stroke-width:15.32"/>
	<text x="10681.94" y="3831.59" style="font-family:'Helvetica';font-size:229.95px;fill:#000000" transform="rotate(-45 10681.94,3831.59)" text-anchor="end">0.0</text>
	<line x1="10784.70" y1="3259.35" x2="10678.50" y2="3259.35" style="stroke:#000000;stroke-width:15.32"/>
	<text x="10681.94" y="3316.34" style="font-family:'Helvetica';font-size:229.95px;fill:#000000" transform="rotate(-45 10681.94,3316.34)" text-anchor="end">0.2</text>
	<line x1="10784.70" y1="2744.55" x2="10678.50" y2="2744.55" style="stroke:#000000;stroke-width:15.32"/>
	<text x="10681.94" y="2801.54" style="font-family:'Helvetica';font-size:229.95px;fill:#000000" transform="rotate(-45 10681.94,2801.54)" text-anchor="end">0.4</text>
	<line x1="10784.70" y1="2229.30" x2="10678.50" y2="2229.30" style="stroke:#000000;stroke-width:15.32"/>
	<text x="10681.94" y="2286.29" style="font-family:'Helvetica';font-size:229.95px;fill:#000000" transform="rotate(-45 10681.94,2286.29)" text-anchor="end">0.6</text>
	<line x1="10784.70" y1="1714.05" x2="10678.50" y2="1714.05" style="stroke:#000000;stroke-width:15.32"/>
	<text x="10681.94" y="1771.04" style="font-family:'Helvetica';font-size:229.95px;fill:#000000" transform="rotate(-45 10681.94,1771.04)" text-anchor="end">0.8</text>
	<line x1="10784.70" y1="1199.25" x2="10678.50" y2="1199.25" style="stroke:#000000;stroke-width:15.32"/>
	<text x="10681.94" y="1256.24" style="font-family:'Helvetica';font-size:229.95px;fill:#000000" transform="rotate(-45 10681.94,1256.24)" text-anchor="end">1.0</text>
	<text x="10088.55" y="2486.70" style="font-family:'Helvetica';font-size:245.25px;fill:#000000" transform="rotate(-90 10088.55,2486.70)" text-anchor="middle">Cumulative Probability</text>
	<line x1="10784.70" y1="3942.90" x2="13966.65" y2="3942.90" style="stroke:#000000;stroke-width:7.66"/>
	<line x1="10953.00" y1="3942.90" x2="10953.00" y2="4049.55" style="stroke:#000000;stroke-width:15.32"/>
	<text x="11009.99" y="4159.64" style="font-family:'Helvetica';font-size:229.95px;fill:#000000" transform="rotate(-45 11009.99,4159.64)" text-anchor="end">0.0</text>
	<line x1="11427.30" y1="3942.90" x2="11427.30" y2="4049.55" style="stroke:#000000;stroke-width:15.32"/>
	<text x="11484.29" y="4159.64" style="font-family:'Helvetica';font-size:229.95px;fill:#000000" transform="rotate(-45 11484.29,4159.64)" text-anchor="end">0.5</text>
	<line x1="11901.60" y1="3942.90" x2="11901.60" y2="4049.55" style="stroke:#000000;stroke-width:15.32"/>
	<text x="11958.59" y="4159.64" style="font-family:'Helvetica';font-size:229.95px;fill:#000000" transform="rotate(-45 11958.59,4159.64)" text-anchor="end">1.0</text>
	<line x1="12375.90" y1="3942.90" x2="12375.90" y2="4049.55" style="stroke:#000000;stroke-width:15.32"/>
	<text x="12432.89" y="4159.64" style="font-family:'Helvetica';font-size:229.95px;fill:#000000" transform="rotate(-45 12432.89,4159.64)" text-anchor="end">1.5</text>
	<line x1="12849.75" y1="3942.90" x2="12849.75" y2="4049.55" style="stroke:#000000;stroke-width:15.32"/>
	<text x="12906.74" y="4159.64" style="font-family:'Helvetica';font-size:229.95px;fill:#000000" transform="rotate(-45 12906.74,4159.64)" text-anchor="end">2.0</text>
	<line x1="13324.05" y1="3942.90" x2="13324.05" y2="4049.55" style="stroke:#000000;stroke-width:15.32"/>
	<text x="13381.04" y="4159.64" style="font-family:'Helvetica';font-size:229.95px;fill:#000000" transform="rotate(-45 13381.04,4159.64)" text-anchor="end">2.5</text>
	<line x1="13798.35" y1="3942.90" x2="13798.35" y2="4049.55" style="stroke:#000000;stroke-width:15.32"/>
	<text x="13855.34" y="4159.64" style="font-family:'Helvetica';font-size:229.95px;fill:#000000" transform="rotate(-45 13855.34,4159.64)" text-anchor="end">3.0</text>
	<text x="12375.90" y="4774.95" style="fill:#000000" text-anchor="middle">
		<tspan style="font-family:'Helvetica';font-size:245.25px">Rel. Abs. Deviation (</tspan>
		<tspan style="font-family:'Helvetica';font-style:italic;font-size:245.25px">RAD</tspan>
		<tspan style="font-family:'Helvetica';font-size:245.25px">)</tspan>
	</text>
	<rect x="10784.70" y="616.95" width="3181.95" height="398.25" style="fill:#DCDCDC;fill-opacity:0.50"/>
	<rect x="10777.04" y="609.29" width="3197.27" height="413.57" style="fill:none;stroke:#000000;stroke-opacity:0.50;stroke-width:15.32"/>
	<text x="12375.90" y="902.25" style="fill:#000000" text-anchor="middle">
		<tspan style="font-family:'Helvetica';font-style:italic;font-size:245.25px">t</tspan>
		<tspan style="font-family:'Helvetica';font-size:245.25px">(163) = 7.165, </tspan>
		<tspan style="font-family:'Helvetica';font-style:italic;font-size:245.25px">p</tspan>
		<tspan style="font-family:'Helvetica';font-size:245.25px"> = 0.000</tspan>
	</text>
	<text x="10830.60" y="376.38" style="font-family:'Helvetica';font-weight:bold;font-size:291.15px;fill:#000000">(c)</text>
	<rect x="5310.00" y="5132.25" width="4517.55" height="432.00" style="fill:#F8F8F8"/>
	<rect x="5312.88" y="5135.13" width="4511.79" height="426.24" style="fill:none;stroke:#D9D9D9;stroke-width:5.76"/>
	<line x1="5396.40" y1="5348.25" x2="5857.20" y2="5348.25" style="stroke:#4B8378;stroke-width:17.28"/>
	<line x1="7708.50" y1="5348.25" x2="8169.30" y2="5348.25" style="stroke:#FF9636;stroke-width:17.28"/>
	<text x="5976.90" y="5439.08" style="font-family:'Helvetica';font-size:259.20px;fill:#000000">Repetition 1</text>
	<text x="8289.45" y="5439.08" style="font-family:'Helvetica';font-size:259.20px;fill:#000000">Repetition 2</text>
</svg>
