<svg xmlns="http://www.w3.org/2000/svg" width="680" height="368pt" viewBox="0 0 510 368"><path d="M0 368h510.24V-.5H0z" fill="#fff"/><path stroke-width="1.75" stroke-linecap="round" stroke-linejoin="round" fill="none" stroke="#fff" d="M0 368h510.24V-.5H0z"/><clipPath id="a"><path transform="matrix(1 0 0 -1 0 368)" d="M33.05 56.24h468.22v246.29H33.05z"/></clipPath><g clip-path="url(#a)"><path d="M33.05 311.76h468.22V65.47H33.05z" fill="#fff"/><path stroke-width=".87" stroke-linejoin="round" fill="none" stroke="#ebebeb" d="M33.05 254.47h468.22M33.05 188.61h468.22M33.05 122.76h468.22"/><path stroke-width="1.75" stroke-linejoin="round" fill="none" stroke="#ebebeb" d="M33.05 287.39h468.22M33.05 221.54h468.22M33.05 155.69h468.22M33.05 89.84h468.22M120.84 311.76V65.47M267.16 311.76V65.47M413.48 311.76V65.47"/><path stroke-width="1.07" stroke-linejoin="round" fill="none" stroke="#e37e00" d="M122.06 192.51h4.88M124.5 192.51v12.15M122.06 204.66h4.88M268.38 191.62h4.88M270.82 191.62v11.16M268.38 202.78h4.88M414.7 190.49h4.88M417.14 190.49v9.54M414.7 200.03h4.88"/><path stroke-width="1.07" stroke-linejoin="round" fill="none" stroke="#1e2d53" d="M107.43 192.18h4.88M109.87 192.18v12.14M107.43 204.32h4.88M253.75 168.75h4.87M256.19 168.75v11.16M253.75 179.91h4.87M400.07 178.05h4.87M402.5 178.05v9.53M400.07 187.58h4.87"/><path stroke-width="1.07" stroke-linejoin="round" fill="none" stroke="#90353b" d="M136.69 195.8h4.88M139.13 195.8v12.15M136.69 207.95h4.88M283.01 196.21h4.88M285.45 196.21v11.16M283.01 207.37h4.88M429.33 192.02h4.88M431.77 192.02v9.53M429.33 201.55h4.88"/><path stroke-width="1.07" stroke-linejoin="round" fill="none" stroke="#e37e00" d="M114.74 204.31h4.88M117.18 204.31v43.25M114.74 247.56h4.88M261.06 182.58h4.88M263.5 182.58v47.89M261.06 230.47h4.88M407.38 174.28h4.88M409.82 174.28v47.67M407.38 221.95h4.88"/><path stroke-width="1.07" stroke-linejoin="round" fill="none" stroke="#1e2d53" d="M100.11 184.66h4.88M102.55 184.66v43.24M100.11 227.9h4.88M246.43 114.35h4.88M248.87 114.35v47.9M246.43 162.25h4.88M392.75 140.89h4.88M395.19 140.89v47.66M392.75 188.55h4.88"/><path stroke-width="1.07" stroke-linejoin="round" fill="none" stroke="#90353b" d="M129.38 195.06h4.87M131.81 195.06v43.25M129.38 238.31h4.87M275.69 193.7h4.88M278.13 193.7v47.89M275.69 241.59h4.88M422.01 197.04h4.88M424.45 197.04v47.66M422.01 244.7h4.88"/><path d="M124.5 194.05l3.92 6.8h-7.85zM270.82 192.67l3.92 6.8h-7.85zM417.14 190.73l3.92 6.8h-7.85z" fill="#e37e00"/><path d="M109.87 193.72l3.92 6.8h-7.85zM256.19 169.8l3.92 6.8h-7.85zM402.5 178.28l3.93 6.8h-7.85z" fill="#1e2d53"/><path d="M139.13 197.34l3.93 6.8h-7.86zM285.45 197.26l3.93 6.8h-7.86zM431.77 192.25l3.92 6.8h-7.85z" fill="#90353b"/><path d="M114.27 225.93c0-1.6 1.31-2.91 2.91-2.91 1.61 0 2.92 1.31 2.92 2.91 0 1.61-1.31 2.92-2.92 2.92-1.6 0-2.91-1.31-2.91-2.92M260.59 206.53c0-1.61 1.31-2.92 2.91-2.92s2.92 1.31 2.92 2.92c0 1.6-1.32 2.91-2.92 2.91a2.92 2.92 0 01-2.91-2.91M406.91 198.12c0-1.61 1.31-2.92 2.91-2.92s2.92 1.31 2.92 2.92c0 1.6-1.32 2.91-2.92 2.91a2.92 2.92 0 01-2.91-2.91" fill="#e37e00"/><path d="M99.64 206.28c0-1.6 1.31-2.92 2.91-2.92s2.92 1.32 2.92 2.92c0 1.6-1.32 2.92-2.92 2.92-1.6 0-2.91-1.32-2.91-2.92M245.95 138.3c0-1.6 1.32-2.92 2.92-2.92 1.6 0 2.91 1.32 2.91 2.92 0 1.6-1.31 2.91-2.91 2.91s-2.92-1.31-2.92-2.91M392.27 164.72c0-1.6 1.32-2.92 2.92-2.92 1.6 0 2.91 1.32 2.91 2.92 0 1.6-1.31 2.91-2.91 2.91s-2.92-1.31-2.92-2.91" fill="#1e2d53"/><path d="M128.9 216.68c0-1.6 1.31-2.91 2.91-2.91 1.61 0 2.92 1.31 2.92 2.91 0 1.61-1.31 2.92-2.92 2.92-1.6 0-2.91-1.31-2.91-2.92M275.22 217.64c0-1.6 1.31-2.91 2.91-2.91 1.61 0 2.92 1.31 2.92 2.91 0 1.61-1.31 2.92-2.92 2.92-1.6 0-2.91-1.31-2.91-2.92M421.54 220.87c0-1.61 1.31-2.92 2.91-2.92 1.61 0 2.92 1.31 2.92 2.92 0 1.6-1.31 2.91-2.92 2.91a2.92 2.92 0 01-2.91-2.91" fill="#90353b"/><path stroke-width="1.07" stroke-linejoin="round" fill="none" stroke="#000" d="M194 311.76V65.47"/><path d="M86.9 80.96h3.23v-.52l-.91-.07-.22-.18v-2.52l.12.01.11.01.11.01.1.01.1.01h.1l.08.01h.24l.6-.03.54-.1.49-.15.43-.21.38-.27.31-.31.24-.36.18-.4.11-.44.04-.48-.03-.55-.1-.47-.17-.4-.24-.34-.32-.27-.38-.22-.47-.16-.53-.12-.62-.06-.7-.02H86.8v.51l.83.08.22.18v7.05l-.22.18-.73.07v.52zm2.1-3.9v-4.08h.07l.07-.01h.07l.07-.01h.39l.47.02.41.05.37.1.31.14.26.17.22.22.17.26.12.3.07.35.02.39-.02.4-.07.36-.12.32-.16.29-.2.24-.25.19-.29.16-.34.11-.37.07-.42.02h-.13l-.07-.01h-.07l-.09-.01-.08-.01h-.1l-.09-.01-.11-.01-.11-.01zM94.05 72.37v.51l.73.08.22.18v7.05l-.22.18-.73.07v.52h3.05v-.52l-.73-.07-.22-.18v-3.05h.13l.07-.01h.13l.07-.01h.24l.33.01.29.03.26.06.23.08.2.12.18.14.15.18.14.21.12.26.11.29.07.25.07.24.06.24.07.24.07.23.08.22.09.22.12.2.14.18.16.17.1.07.1.07.1.05.12.05.12.04.14.04.14.02.15.02.16.01h.35l.09-.01.09-.01.1-.01.1-.01.11-.01.1-.02.11-.02.12-.02v-.49h-.4l-.24-.02-.22-.03-.19-.05-.16-.07-.15-.09-.12-.12-.12-.14-.1-.18-.08-.21-.07-.18-.05-.19-.05-.19-.04-.2-.05-.19-.05-.19-.05-.2-.07-.19-.08-.18-.1-.18-.08-.13-.09-.11-.11-.1-.11-.1-.13-.09-.13-.08-.15-.07-.16-.07-.17-.06-.19-.05.4-.11.35-.12.31-.16.27-.17.23-.21.19-.22.14-.25.11-.27.06-.3.02-.32-.03-.44-.09-.4-.16-.35-.21-.3-.28-.25-.33-.2-.41-.16-.46-.11-.53-.07-.59-.02h-3.26zm2.1.59h.61l.45.01.41.05.35.08.31.11.26.16.21.19.16.24.12.28.07.32.02.38-.02.35-.07.32-.11.27-.16.23-.2.18-.25.16-.29.11-.34.08-.39.05-.44.01h-.48l-.11-.01h-.11v-3.57zM102.32 80.96h6.59v-2.09h-.66l-.22 1.3-.18.2h-3.43v-3.58h2.1l.18.19.13.92h.6v-2.82h-.6l-.13.94-.18.18h-2.1v-3.24h2.96l.18.19.18 1.09h.71v-1.87h-6.13v.51l.73.08.22.18v7.05l-.22.18-.73.07v.52zM109.87 77.45v.86h2.88v-.86h-2.88zM114.12 80.7l.19.08.19.07.21.06.21.05.23.05.24.03.25.03.25.03.27.01h.27l.59-.03.54-.09.49-.15.43-.2.38-.25.31-.29.25-.34.18-.37.11-.41.04-.44-.01-.17-.02-.16-.03-.15-.04-.15-.05-.15-.06-.13-.07-.14-.09-.12-.09-.12-.11-.12-.18-.16-.18-.14-.19-.13-.19-.11-.2-.1-.2-.09-.2-.08-.2-.08-.19-.08-.2-.08-.34-.14-.3-.14-.27-.14-.23-.14-.2-.14-.16-.16-.13-.17-.09-.19-.06-.21-.01-.25.02-.27.05-.25.1-.22.13-.2.16-.18.19-.15.23-.12.26-.08.28-.06.32-.01h.13l.13.01.12.01.12.02.12.02.12.03.1.04.11.04.1.04.1.05.19.22.19 1.22h.67v-1.99l-.23-.07-.22-.06-.22-.05-.22-.05-.22-.04-.21-.03-.22-.02-.21-.02-.22-.01h-.21l-.52.03-.48.08-.44.14-.38.19-.34.24-.28.28-.22.32-.16.36-.1.39-.03.42.02.35.06.31.11.28.16.24.19.22.24.21.29.18.32.18.36.18.41.18.4.17.36.16.32.15.28.14.23.16.2.17.15.18.11.22.07.25.02.3-.02.26-.06.24-.11.23-.14.2-.17.17-.22.15-.25.12-.29.09-.32.06-.36.02-.17-.01-.16-.01-.16-.01-.15-.02-.15-.03-.14-.03-.14-.04-.12-.04-.12-.05-.12-.06-.17-.22-.15-1.47h-.76v2.25zM120.9 72.37v.51l.73.08.22.18v7.05l-.22.18-.73.07v.52h3.11v-.52l-.79-.07-.22-.18v-3.44h4.4v3.44l-.22.18-.79.07v.52h3.11v-.52l-.73-.07-.22-.18v-7.05l.22-.18.73-.08v-.51h-3.11v.51l.79.08.22.18v3.02H123v-3.02l.22-.18.79-.08v-.51h-3.11zM134.61 72.15l-.33.01-.31.04-.31.05-.3.08-.29.11-.28.12-.27.15-.26.17-.24.19-.24.21-.24.26-.22.28-.2.29-.17.32-.14.33-.12.35-.09.36-.07.38-.04.4-.01.41.01.41.04.4.07.38.09.37.12.35.14.33.18.32.19.3.23.28.24.26.23.21.25.18.25.17.27.14.28.12.29.1.3.08.31.06.32.03.32.02.44-.03.42-.06.41-.11.39-.14.37-.19.35-.22.32-.26.29-.29.26-.32.23-.36.13-.22.11-.23.1-.24.08-.25.07-.25.06-.25.05-.27.03-.27.02-.27.01-.28-.02-.41-.04-.4-.07-.38-.09-.36-.12-.35-.15-.33-.17-.32-.2-.29-.22-.28-.24-.26-.24-.21-.24-.19-.26-.17-.27-.15-.28-.12-.28-.11-.3-.08-.31-.05-.31-.04-.33-.01zm0 .69l.48.05.45.12.4.21.37.28.32.36.27.43.21.49.16.57.1.62.03.69-.03.68-.1.63-.16.57-.21.49-.27.44-.32.35-.37.29-.4.21-.45.12-.48.05-.48-.05-.45-.12-.41-.21-.37-.29-.32-.35-.27-.44-.21-.49-.16-.57-.1-.63-.03-.68.03-.69.1-.63.16-.57.21-.49.27-.43.32-.36.37-.28.41-.2.45-.13.48-.04zM146.81 80.67v-2.03h-.71l-.29 1.42-.2.21-.12.03-.11.03-.11.03-.12.02-.11.02-.11.01-.11.01-.11.01h-.11l-.1.01-.6-.05-.55-.12-.49-.21-.44-.29-.37-.36-.32-.43-.25-.5-.18-.58-.11-.63-.04-.7.04-.66.11-.6.17-.55.24-.48.3-.41.36-.34.41-.28.46-.19.51-.13.55-.04.15.01.15.01.14.01.15.03.14.03.14.04.14.04.14.05.15.05.14.07.16.23.2 1.16h.71v-1.97l-.27-.08-.28-.08-.26-.06-.27-.06-.25-.05-.25-.04-.25-.03-.24-.02-.23-.01h-.23l-.77.05-.72.15-.65.25-.58.34-.5.43-.43.5-.34.58-.25.65-.15.72-.06.77.03.5.07.48.12.46.17.45.21.42.25.39.29.36.32.33.36.3.4.25.18.1.19.08.2.08.21.07.21.05.22.05.23.04.24.02.25.02h.5l.26-.01.26-.03.26-.03.26-.04.26-.05.26-.06.26-.06.26-.08.25-.08zM147.8 80.96h3.11v-.52l-.79-.07-.22-.18v-3.06h.95l2.44 3.45v.38h2.11v-.52l-.93-.07-2.91-4.17 2.69-3.2.85-.12v-.51h-2.67v.51l.72.08.08.18-2.85 3.47h-.48v-3.47l.22-.18.79-.08v-.51h-3.11v.51l.73.08.22.18v7.05l-.22.18-.73.07v.52zM302.14 80.96h3.23v-.52l-.91-.07-.22-.18v-2.52l.12.01.11.01.11.01.1.01.1.01h.1l.08.01h.24l.6-.03.54-.1.49-.15.43-.21.38-.27.31-.31.24-.36.18-.4.11-.44.04-.48-.03-.55-.1-.47-.17-.4-.24-.34-.32-.27-.38-.22-.47-.16-.53-.12-.62-.06-.7-.02h-2.92v.51l.83.08.22.18v7.05l-.22.18-.73.07v.52zm2.1-3.9v-4.08h.07l.07-.01h.07l.07-.01h.39l.47.02.41.05.37.1.31.14.26.17.22.22.17.26.12.3.07.35.02.39-.02.4-.07.36-.12.32-.16.29-.2.24-.25.19-.29.16-.34.11-.37.07-.42.02h-.13l-.07-.01h-.07l-.09-.01-.08-.01h-.1l-.09-.01-.11-.01-.11-.01zM313.55 72.15l-.32.01-.32.04-.31.05-.3.08-.29.11-.28.12-.27.15-.25.17-.25.19-.24.21-.24.26-.22.28-.2.29-.17.32-.14.33-.12.35-.09.36-.07.38-.04.4-.01.41.01.41.04.4.07.38.09.37.12.35.15.33.17.32.19.3.23.28.25.26.23.21.24.18.26.17.26.14.28.12.29.1.3.08.31.06.32.03.32.02.44-.03.43-.06.4-.11.39-.14.37-.19.35-.22.32-.26.29-.29.26-.32.24-.36.12-.22.11-.23.1-.24.08-.25.08-.25.05-.25.05-.27.03-.27.02-.27.01-.28-.02-.41-.04-.4-.06-.38-.1-.36-.12-.35-.15-.33-.17-.32-.19-.29-.23-.28-.24-.26-.24-.21-.24-.19-.26-.17-.27-.15-.27-.12-.29-.11-.3-.08-.31-.05-.31-.04-.33-.01zm0 .69l.48.05.45.12.4.21.37.28.32.36.27.43.21.49.16.57.1.62.03.69-.03.68-.1.63-.16.57-.21.49-.27.44-.32.35-.37.29-.4.21-.45.12-.48.05-.48-.05-.45-.12-.41-.21-.36-.29-.32-.35-.27-.44-.22-.49-.16-.57-.1-.63-.03-.68.03-.69.1-.63.16-.57.22-.49.27-.43.32-.36.36-.28.41-.2.45-.13.48-.04zM318.99 80.7l.19.08.19.07.21.06.21.05.23.05.24.03.25.03.25.03.27.01h.27l.59-.03.54-.09.49-.15.43-.2.38-.25.31-.29.25-.34.18-.37.11-.41.04-.44-.01-.17-.02-.16-.03-.15-.04-.15-.05-.15-.06-.13-.07-.14-.09-.12-.09-.12-.11-.12-.18-.16-.18-.14-.19-.13-.2-.11-.19-.1-.2-.09-.2-.08-.2-.08-.19-.08-.2-.08-.34-.14-.3-.14-.27-.14-.23-.14-.2-.14-.16-.16-.13-.17-.09-.19-.06-.21-.01-.25.02-.27.05-.25.1-.22.13-.2.16-.18.19-.15.23-.12.26-.08.28-.06.32-.01h.13l.13.01.12.01.12.02.12.02.11.03.11.04.11.04.1.04.1.05.19.22.19 1.22h.67v-1.99l-.23-.07-.22-.06-.22-.05-.22-.05-.22-.04-.21-.03-.22-.02-.21-.02-.22-.01h-.21l-.52.03-.48.08-.44.14-.38.19-.34.24-.28.28-.22.32-.16.36-.1.39-.03.42.02.35.06.31.11.28.16.24.19.22.24.21.28.18.33.18.36.18.41.18.4.17.36.16.32.15.27.14.24.16.2.17.15.18.11.22.06.25.03.3-.02.26-.06.24-.11.23-.14.2-.17.17-.22.15-.25.12-.29.09-.32.06-.36.02-.17-.01-.16-.01-.16-.01-.15-.02-.15-.03-.14-.03-.14-.04-.12-.04-.13-.05-.11-.06-.17-.22-.15-1.47h-.76v2.25zM325.55 72.37v1.97h.7l.18-1.19.18-.19h1.97v7.23l-.23.18-.85.07v.52h3.34v-.52l-.86-.07-.23-.18v-7.23h1.97l.18.19.18 1.19h.7v-1.97h-7.23zM333.59 77.45v.86h2.88v-.86h-2.88zM337.84 80.7l.18.08.2.07.2.06.22.05.23.05.24.03.24.03.26.03.26.01h.28l.59-.03.54-.09.49-.15.43-.2.37-.25.31-.29.25-.34.18-.37.11-.41.04-.44v-.17l-.02-.16-.03-.15-.04-.15-.05-.15-.06-.13-.08-.14-.08-.12-.1-.12-.1-.12-.18-.16-.19-.14-.19-.13-.19-.11-.19-.1-.2-.09-.2-.08-.2-.08-.2-.08-.19-.08-.34-.14-.3-.14-.27-.14-.23-.14-.2-.14-.17-.16-.12-.17-.09-.19-.06-.21-.02-.25.02-.27.06-.25.09-.22.13-.2.17-.18.19-.15.23-.12.26-.08.28-.06.31-.01h.14l.13.01.12.01.12.02.12.02.11.03.11.04.11.04.1.04.1.05.19.22.19 1.22h.67v-1.99l-.23-.07-.22-.06-.22-.05-.22-.05-.22-.04-.22-.03-.21-.02-.22-.02-.21-.01h-.21l-.52.03-.49.08-.43.14-.39.19-.33.24-.28.28-.22.32-.16.36-.1.39-.04.42.02.35.07.31.11.28.15.24.2.22.24.21.28.18.33.18.36.18.41.18.4.17.35.16.32.15.28.14.24.16.19.17.16.18.11.22.06.25.02.3-.02.26-.06.24-.1.23-.14.2-.18.17-.21.15-.25.12-.29.09-.32.06-.36.02-.17-.01-.16-.01-.16-.01-.16-.02-.14-.03-.14-.03-.14-.04-.13-.04-.12-.05-.11-.06-.17-.22-.15-1.47h-.76v2.25zM344.61 72.37v.51l.73.08.22.18v7.05l-.22.18-.73.07v.52h3.12v-.52l-.8-.07-.22-.18v-3.44h4.41v3.44l-.22.18-.79.07v.52h3.11v-.52l-.73-.07-.22-.18v-7.05l.22-.18.73-.08v-.51h-3.11v.51l.79.08.22.18v3.02h-4.41v-3.02l.22-.18.8-.08v-.51h-3.12zM358.33 72.15l-.33.01-.32.04-.3.05-.3.08-.29.11-.28.12-.27.15-.26.17-.25.19-.23.21-.25.26-.22.28-.19.29-.17.32-.15.33-.12.35-.09.36-.06.38-.04.4-.02.41.02.41.04.4.06.38.1.37.11.35.15.33.17.32.2.3.22.28.25.26.23.21.24.18.26.17.27.14.28.12.29.1.3.08.31.06.31.03.33.02.44-.03.42-.06.41-.11.39-.14.37-.19.34-.22.32-.26.3-.29.26-.32.23-.36.12-.22.12-.23.09-.24.09-.25.07-.25.06-.25.04-.27.04-.27.02-.27v-.28l-.01-.41-.04-.4-.07-.38-.09-.36-.12-.35-.15-.33-.17-.32-.2-.29-.22-.28-.25-.26-.23-.21-.25-.19-.25-.17-.27-.15-.28-.12-.29-.11-.29-.08-.31-.05-.32-.04-.32-.01zm0 .69l.48.05.44.12.41.21.36.28.32.36.27.43.22.49.16.57.1.62.03.69-.03.68-.1.63-.16.57-.22.49-.27.44-.32.35-.36.29-.41.21-.44.12-.48.05-.49-.05-.44-.12-.41-.21-.37-.29-.32-.35-.27-.44-.22-.49-.15-.57-.1-.63-.04-.68.04-.69.1-.63.15-.57.22-.49.27-.43.32-.36.37-.28.41-.2.44-.13.49-.04zM370.53 80.67v-2.03h-.72l-.28 1.42-.2.21-.12.03-.11.03-.12.03-.11.02-.11.02-.11.01-.11.01-.11.01h-.11l-.11.01-.6-.05-.54-.12-.49-.21-.44-.29-.38-.36-.31-.43-.25-.5-.18-.58-.11-.63-.04-.7.04-.66.1-.6.18-.55.24-.48.3-.41.36-.34.41-.28.46-.19.51-.13.55-.04.15.01.15.01.14.01.14.03.15.03.14.04.14.04.14.05.14.05.14.07.17.23.19 1.16h.72v-1.97l-.28-.08-.27-.08-.27-.06-.26-.06-.26-.05-.25-.04-.24-.03-.24-.02-.24-.01h-.23l-.77.05-.71.15-.65.25-.58.34-.51.43-.42.5-.34.58-.25.65-.16.72-.05.77.03.5.07.48.12.46.17.45.21.42.24.39.29.36.33.33.36.3.4.25.18.1.19.08.2.08.2.07.22.05.22.05.23.04.24.02.24.02h.51l.26-.01.26-.03.26-.03.26-.04.26-.05.26-.06.26-.06.25-.08.26-.08zM371.52 80.96h3.11v-.52l-.8-.07-.21-.18v-3.06h.94l2.45 3.45v.38h2.11v-.52l-.93-.07-2.91-4.17 2.69-3.2.84-.12v-.51h-2.66v.51l.72.08.07.18-2.84 3.47h-.48v-3.47l.21-.18.8-.08v-.51h-3.11v.51l.73.08.21.18v7.05l-.21.18-.73.07v.52z" fill-rule="evenodd"/><path stroke-width="1.75" stroke-linecap="round" stroke-linejoin="round" fill="none" stroke="#333" d="M33.05 311.76h468.22V65.47H33.05z"/></g><path d="M13.06 288.28v.96h3.24v-.96h-3.24zM18.43 282.56v4.75l.1-.01.1-.02.11-.01.12-.01.12-.01.13-.01h.14l.14-.01h.3l.57.02.51.06.45.1.39.15.33.19.27.24.21.28.15.32.09.38.03.42-.03.39-.08.36-.13.34-.17.3-.22.26-.26.23-.3.18-.33.13-.36.08-.4.03h-.19l-.09-.01-.1-.02-.1-.01-.1-.02-.09-.02-.1-.03-.09-.03-.1-.03-.58-1.24-.04-.01h-.04l-.04-.01-.04-.01h-.03l-.03-.01H18.53l-.14.01-.14.02-.12.05-.11.06-.09.07-.08.09-.07.1-.05.11-.03.12-.01.13.03.21.09.2.14.19.19.18.23.16.29.14.32.11.36.09.4.06.43.01.68-.04.63-.12.56-.19.5-.26.44-.32.36-.37.29-.43.21-.47.13-.51.04-.54-.03-.48-.11-.44-.17-.4-.24-.36-.3-.32-.36-.26-.41-.22-.46-.15-.51-.1-.56-.03h-.28l-.15.02-.15.01-.15.02-.16.03-.16.03-.16.03-.16.04-.17.05v-2.88h4.26v-1.13h-5.15zM20.98 216.54l-.6.05-.55.16-.5.26-.44.37-.39.46-.33.56-.26.65-.19.74-.12.83-.04.91.04.92.12.83.19.74.26.65.33.56.39.47.44.36.5.27.55.16.6.05.59-.05.55-.16.5-.27.45-.36.38-.47.33-.56.26-.65.19-.74.12-.83.04-.92-.04-.91-.12-.83-.19-.74-.26-.65-.33-.56-.38-.46-.45-.37-.5-.26-.55-.16-.59-.05zm0 .67l.38.05.34.13.3.22.27.3.23.39.18.48.15.56.11.65.06.73.02.81-.02.82-.06.73-.11.64-.15.57-.18.47-.23.39-.27.31-.3.22-.34.13-.38.04-.38-.04-.35-.13-.3-.22-.27-.3-.23-.39-.19-.47-.15-.56-.11-.65-.06-.73-.02-.81.02-.82.06-.73.11-.65.15-.57.19-.47.23-.4.27-.3.3-.22.35-.13.38-.05zM18.43 150.86v4.75l.1-.02.1-.01.11-.02.12-.01.12-.01h.13l.14-.01h.14l.15-.01h.15l.57.02.51.06.45.11.39.15.33.19.27.23.21.28.15.33.09.37.03.42-.03.39-.08.37-.13.33-.17.3-.22.27-.26.22-.3.18-.33.14-.36.08-.4.03-.09-.01h-.1l-.09-.01-.1-.01-.1-.02-.1-.02-.09-.02-.1-.02-.09-.03-.1-.04-.58-1.23-.04-.01-.04-.01-.04-.01h-.04l-.03-.01h-.07l-.03-.01h-.05l-.14.01-.14.03-.12.04-.11.06-.09.08-.08.08-.07.1-.05.11-.03.13-.01.13.03.2.09.2.14.19.19.18.23.16.29.14.32.12.36.08.4.06.43.02.68-.04.63-.12.56-.19.5-.26.44-.32.36-.38.29-.42.21-.47.13-.51.04-.55-.03-.47-.11-.44-.17-.41-.24-.36-.3-.31-.36-.27-.41-.21-.46-.16-.51-.1-.56-.03h-.14l-.14.01-.15.01-.15.02-.15.02-.16.02-.16.03-.16.04-.16.04-.17.04v-2.88h4.26v-1.12h-5.15zM13.44 84.83l-3.12.94v.6l2.26-.4v7.75l-.17.24-1.66.09v.62h4.83v-.61l-1.56-.07-.17-.22v-8.94h-.41zM20.98 84.83l-.6.06-.55.16-.5.26-.44.36-.39.47-.33.55-.26.66-.19.74-.12.82-.04.92.04.91.12.83.19.74.26.66.33.56.39.46.44.37.5.26.55.16.6.06.59-.06.55-.16.5-.26.45-.37.38-.46.33-.56.26-.66.19-.74.12-.83.04-.91-.04-.92-.12-.82-.19-.74-.26-.66-.33-.55-.38-.47-.45-.36-.5-.26-.55-.16-.59-.06zm0 .68l.38.04.34.13.3.22.27.31.23.39.18.48.15.56.11.64.06.73.02.82-.02.81-.06.73-.11.65-.15.56-.18.48-.23.39-.27.3-.3.22-.34.13-.38.05-.38-.05-.35-.13-.3-.21-.27-.31-.23-.39-.19-.47-.15-.56-.11-.65-.06-.72-.02-.82.02-.82.06-.73.11-.65.15-.56.19-.48.23-.39.27-.31.3-.22.35-.13.38-.04z" fill="#4d4d4d" fill-rule="evenodd"/><path stroke-width="1.75" stroke-linejoin="round" fill="none" stroke="#333" d="M28.57 287.39h4.48M28.57 221.54h4.48M28.57 155.69h4.48M28.57 89.84h4.48M120.84 316.24v-4.48M267.16 316.24v-4.48M413.48 316.24v-4.48"/><path d="M106.24 323.6v4.65l.01.29.03.26.06.22.08.19.12.15.15.13.19.1.24.06.28.04.34.02.17-.01h.17l.18-.02.19-.02.19-.03.19-.03.19-.05.2-.04.2-.06.2-.06v-.53l-.1.02-.1.02-.1.01-.1.02-.09.01-.1.01-.1.01-.1.01h-.2l-.28-.01-.23-.05-.19-.07-.16-.1-.12-.14-.09-.17-.06-.21-.04-.23-.02-.28-.01-.31v-3.8h2.19v-.68h-2.19v-1.52h-.53l-.62 1.34-.95.42v.44h.91zM115.03 323.62v.82h8.42v-.82h-8.42zm0 2.69v.82h8.42v-.82h-8.42zM130.73 328.53l.92-.74.82-.68.73-.65.64-.61.55-.58.45-.56.36-.55.25-.53.16-.54.05-.54-.03-.47-.1-.44-.17-.39-.22-.36-.28-.31-.34-.26-.39-.21-.44-.15-.49-.1-.54-.03-.52.03-.48.08-.44.14-.4.17-.35.22-.3.24-.24.27-.17.28-.11.3-.04.3.01.14.03.13.04.12.06.1.07.1.1.07.1.06.12.05.13.03.15.01.07-.01h.06l.07-.01.07-.02.06-.02.07-.02.06-.03.06-.03.06-.04.07-.04v-1.54l.12-.07.13-.06.13-.05.13-.05.13-.04.12-.03.13-.02.13-.01.13-.01.13-.01.34.03.31.07.29.11.25.16.21.21.18.24.14.28.11.33.06.35.02.4-.05.56-.16.54-.26.55-.36.54-.46.56-.56.58-.64.61-.74.65-.82.69-.9.74v.9h6.67v-2.36h-.65l-.26 1.23h-4.34zM252.56 323.6v4.65l.01.29.03.26.05.22.09.19.12.15.15.13.19.1.24.06.28.04.33.02.18-.01h.17l.18-.02.19-.02.18-.03.2-.03.19-.05.2-.04.2-.06.2-.06v-.53l-.1.02-.1.02-.1.01-.1.02-.1.01-.1.01-.09.01-.1.01h-.2l-.28-.01-.23-.05-.2-.07-.15-.1-.12-.14-.09-.17-.06-.21-.04-.23-.02-.28-.01-.31v-3.8h2.19v-.68h-2.19v-1.52h-.53l-.62 1.34-.95.42v.44h.91zM261.35 323.62v.82h8.42v-.82h-8.42zm0 2.69v.82h8.42v-.82h-8.42zM279.59 324.58l.4-.13.36-.16.32-.18.28-.21.24-.22.19-.25.16-.27.11-.28.06-.31.02-.32-.03-.42-.1-.39-.15-.36-.22-.31-.27-.28-.32-.23-.37-.18-.42-.14-.45-.08-.5-.03-.53.03-.48.08-.44.12-.4.17-.35.2-.29.23-.24.25-.17.27-.11.28-.03.28.01.14.02.12.05.12.06.1.07.09.09.07.1.06.12.05.12.02.14.01h.06l.07-.01h.06l.06-.02.06-.01.06-.02.06-.03.05-.03.05-.03.06-.04v-1.35l.12-.08.13-.07.13-.07.13-.05.14-.05.13-.03.14-.03.15-.02.14-.01.15-.01.32.02.3.07.27.1.24.14.2.18.18.21.14.25.1.27.06.31.02.33-.02.33-.07.31-.11.27-.16.24-.21.21-.25.17-.29.14-.33.1-.37.06-.42.02h-.15l-.03-.01h-.12v.85l.08-.01.08-.01.08-.01.08-.01.08-.01h.07l.08-.01H278.65l.4.02.35.06.32.09.28.14.24.16.19.21.15.23.11.27.07.29.02.33-.03.38-.08.35-.13.33-.18.3-.22.26-.26.22-.29.19-.33.13-.36.09-.38.03-.13-.01-.12-.01-.13-.02-.12-.02-.13-.03-.12-.04-.12-.04-.12-.06-.12-.05-.11-.07-.45-1.22-.05-.02-.04-.01-.05-.01-.04-.01-.05-.01-.04-.01h-.08l-.04-.01h-.04l-.14.01-.12.03-.12.04-.1.06-.1.07-.08.09-.06.1-.05.1-.03.12-.01.12.04.22.09.23.16.21.22.21.28.2.32.17.37.14.42.11.46.07.49.02.65-.04.58-.11.54-.17.47-.24.42-.29.34-.35.28-.38.2-.42.13-.45.04-.47-.03-.38-.08-.35-.13-.33-.19-.29-.23-.26-.29-.22-.32-.19-.38-.14-.41-.1-.46-.06zM398.88 323.52v4.65l.01.29.03.25.05.22.09.19.12.16.15.12.19.1.24.07.28.04.33.01h.17l.18-.01.18-.02.19-.02.18-.03.2-.03.19-.04.2-.05.2-.05.2-.07v-.53l-.1.02-.1.02-.1.02-.1.01-.1.02-.1.01-.1.01h-.09l-.1.01h-.1l-.28-.02-.23-.04-.2-.08-.15-.1-.12-.14-.09-.17-.06-.2-.04-.24-.02-.27-.01-.31v-3.8h2.19v-.68h-2.19v-1.53h-.53l-.62 1.34-.95.42v.45h.91zM407.67 323.53v.82h8.42v-.82h-8.42zm0 2.69v.82h8.42v-.82h-8.42zM426.64 319.83l-4.91 6.02v.93h4.64v3.33h1.11v-3.33h1.62v-.93h-1.62v-6.02h-.84zm-.27 1.57v4.45h-3.56l3.56-4.45z" fill="#4d4d4d" fill-rule="evenodd"/><path d="M70.73 359.03h17.28v-17.28H70.73z" fill="#fff"/><path d="M76.46 350.39c0-1.6 1.31-2.91 2.91-2.91s2.92 1.31 2.92 2.91a2.93 2.93 0 01-2.92 2.92c-1.6 0-2.91-1.31-2.91-2.92"/><path d="M142.77 359.03h17.28v-17.28h-17.28z" fill="#fff"/><path d="M151.41 345.86l3.92 6.8h-7.85z"/><path d="M97.45 355.22h3.63v-.59l-1.02-.07-.25-.2v-2.84l.14.02.12.01.12.01.12.01.11.01h.1l.11.01h.09l.09.01h.08l.67-.04.61-.11.55-.17.49-.24.42-.3.35-.35.28-.41.2-.45.12-.5.04-.53-.03-.61-.12-.54-.19-.45-.27-.38-.35-.31-.44-.24-.51-.19-.61-.12-.69-.07-.79-.03h-3.28v.58l.93.08.25.21v7.93l-.25.2-.82.07v.59zm2.36-4.39v-4.58h.08l.08-.01.08-.01H100.42l.07-.01h.07l.53.03.46.06.41.11.36.15.3.2.24.24.19.3.13.34.08.38.03.44-.03.45-.08.41-.13.37-.18.31-.23.27-.28.22-.33.18-.37.12-.43.08-.46.02H100.54l-.08-.01h-.09l-.1-.01-.11-.01-.11-.01-.11-.01-.13-.02zM105.45 355.22h3.47v-.51l-1.01-.08-.25-.23v-4.11l.18-.2.17-.18.16-.16.16-.13.16-.12.15-.09.16-.08.14-.05.15-.03.14-.02.09.01.09.01.08.02.08.02.07.03.07.04.07.04.07.06.06.05.06.07h.46v-1.24l-.09-.04-.09-.03-.09-.03-.08-.02-.09-.02-.09-.02-.08-.01-.09-.01h-.08l-.09-.01h-.07l-.03.01h-.15l-.04.01-.03.01h-.04l-.15.13-.16.13-.15.13-.16.14-.15.13-.16.14-.15.15-.15.15-.16.15-.15.15v-1.35h-.54l-1.67.51v.45h1.02v5.21l-.26.23-.76.08v.51zM112.73 345.03l-.13.01-.13.03-.12.05-.11.07-.1.08-.08.1-.07.1-.05.13-.03.13-.01.13.01.14.03.13.05.12.07.1.08.1.1.08.11.07.12.04.13.04.13.01.14-.01.13-.04.12-.04.1-.07.1-.08.09-.1.06-.1.05-.12.04-.13.01-.14-.01-.13-.04-.13-.05-.12-.06-.11-.09-.1-.1-.08-.1-.07-.12-.05-.13-.03-.14-.01zm-.06 3.2l-1.65.51v.45h1.01v5.21l-.25.23-.76.08v.51h3.24v-.51l-.78-.08-.26-.23v-6.17h-.55zM120.67 354.62v-.75l-.19.12-.18.1-.18.09-.18.08-.18.06-.18.06-.18.04-.19.03-.18.02-.19.01-.44-.04-.39-.09-.36-.15-.32-.21-.28-.26-.23-.32-.19-.37-.13-.41-.08-.47-.03-.51.02-.52.08-.48.12-.43.17-.38.2-.33.25-.27.27-.22.31-.16.34-.1.36-.03h.07l.07.01.07.01.07.01.07.02.07.03.07.02.07.03.06.03.07.04v1.18l.06.04.07.04.06.03.07.03.06.02.07.02.06.02.07.01.06.01h.07l.14-.01.13-.03.12-.04.1-.06.09-.07.08-.09.06-.1.04-.11.03-.12.01-.13-.02-.25-.07-.22-.11-.21-.16-.18-.2-.16-.24-.14-.28-.11-.32-.08-.36-.05-.4-.02-.58.05-.55.12-.49.21-.45.27-.39.35-.33.41-.27.47-.19.53-.12.57-.04.62.04.62.11.57.18.53.25.46.3.41.37.34.43.28.47.2.52.12.57.05.23-.01.24-.02.23-.04.23-.05.24-.06.23-.08.24-.09.23-.11.24-.12.24-.13zM127.42 353.7l-.24.15-.24.15-.23.12-.23.11-.23.09-.22.08-.22.06-.22.04-.22.03h-.21l-.42-.03-.39-.09-.36-.16-.31-.22-.28-.27-.23-.33-.18-.39-.14-.43-.08-.48-.03-.53v-.16h4.67v-.14l.01-.05v-.26l-.03-.51-.09-.46-.14-.42-.2-.37-.25-.32-.29-.27-.34-.21-.38-.15-.42-.09-.45-.04-.56.05-.53.13-.48.2-.44.29-.38.35-.32.42-.27.47-.19.54-.12.58-.04.63.04.62.11.56.19.52.24.46.31.41.37.34.42.27.47.2.51.12.55.04h.28l.27-.03.27-.04.28-.06.27-.08.27-.1.28-.11.26-.13.27-.15.26-.16v-.79zm-1.28-2.87h-3.33l.05-.35.09-.33.12-.3.16-.26.18-.23.21-.2.24-.15.24-.11.27-.07.27-.03.28.02.25.06.22.09.19.13.17.17.14.19.11.24.07.27.05.3.02.33v.23zM132.99 348.47l-.15-.06-.15-.05-.16-.05-.16-.04-.17-.04-.17-.03-.17-.02-.18-.01-.18-.01-.19-.01-.47.03-.43.06-.38.11-.33.15-.28.19-.24.22-.18.27-.13.29-.08.34-.03.36.02.28.05.24.1.23.13.2.17.19.2.18.25.17.27.16.32.16.35.16.27.13.24.12.22.11.19.12.17.12.13.14.11.14.07.17.05.18.02.21-.02.2-.05.18-.07.17-.1.16-.13.13-.15.11-.18.1-.2.06-.22.05-.24.01h-.12l-.13-.01-.12-.02-.12-.03-.13-.03-.12-.03-.12-.05-.12-.05-.12-.06-.12-.07-.18-1.22h-.69v1.87l.16.06.16.05.17.04.18.04.18.03.19.03.2.02.21.02.21.01h.22l.48-.02.45-.07.4-.12.35-.16.3-.2.25-.25.2-.28.14-.32.09-.35.03-.39-.01-.15-.02-.15-.02-.15-.04-.13-.06-.13-.06-.12-.07-.12-.08-.1-.09-.1-.1-.08-.14-.12-.15-.1-.15-.09-.16-.09-.15-.08-.16-.07-.15-.07-.16-.08-.15-.07-.16-.07-.23-.11-.2-.12-.19-.11-.15-.11-.14-.12-.11-.12-.09-.14-.06-.14-.04-.16-.01-.18.01-.19.04-.17.06-.15.09-.13.11-.12.14-.1.15-.07.18-.06.2-.03.22-.02.1.01.1.01.11.01.1.02.11.03.1.03.11.04.11.05.11.05.11.06.12 1.02h.7v-1.63zM169.49 345.56v.58l.82.08.24.21v7.93l-.24.2-.82.07v.59h3.42v-.59l-.82-.07-.24-.2v-3.43H172l.08-.01h.07l.07-.01h.28l.07-.01.37.02.33.03.29.07.26.09.22.13.2.16.18.2.15.24.14.29.12.33.08.28.08.27.07.27.07.27.08.26.09.25.11.24.12.22.16.21.19.19.1.08.12.08.12.06.13.05.14.05.15.04.16.02.17.02.18.02h.28l.11-.01h.1l.11-.01.11-.01.11-.02.12-.01.12-.02.12-.02.13-.03v-.55h-.44l-.28-.02-.24-.04-.21-.05-.19-.08-.16-.1-.15-.13-.12-.17-.11-.19-.1-.24-.07-.21-.06-.21-.06-.21-.05-.22-.05-.22-.05-.22-.07-.22-.07-.21-.09-.21-.11-.2-.09-.14-.11-.13-.11-.11-.13-.11-.15-.1-.15-.09-.17-.08-.18-.08-.19-.07-.2-.06.44-.11.4-.15.35-.17.3-.2.26-.23.21-.25.16-.28.12-.3.07-.34.02-.36-.04-.5-.1-.45-.17-.39-.24-.33-.31-.29-.38-.23-.45-.17-.52-.13-.6-.07-.66-.03h-3.67zm2.36.66h.69l.51.02.45.05.4.09.34.13.29.18.24.21.18.27.13.31.08.37.03.42-.03.4-.07.35-.12.31-.18.25-.23.22-.28.17-.33.13-.38.09-.44.05-.49.02h-.26l-.09-.01h-.31l-.13-.01v-4.02zM184.77 353.7l-.25.15-.24.15-.23.12-.23.11-.22.09-.23.08-.22.06-.21.04-.22.03h-.22l-.42-.03-.39-.09-.35-.16-.32-.22-.27-.27-.23-.33-.19-.39-.13-.43-.09-.48-.02-.53v-.16h4.66v-.05l.01-.05v-.26l.01-.05v-.04l-.04-.51-.08-.46-.15-.42-.2-.37-.24-.32-.3-.27-.33-.21-.38-.15-.42-.09-.46-.04-.56.05-.52.13-.49.2-.43.29-.38.35-.33.42-.26.47-.19.54-.12.58-.04.63.04.62.11.56.18.52.25.46.31.41.37.34.42.27.46.2.52.12.55.04h.27l.27-.03.28-.04.27-.06.28-.08.27-.1.27-.11.27-.13.26-.15.27-.16v-.79zm-1.29-2.87h-3.32l.04-.35.09-.33.13-.3.15-.26.19-.23.21-.2.23-.15.25-.11.26-.07.28-.03.27.02.25.06.22.09.2.13.17.17.13.19.11.24.08.27.05.3.01.33v.23zM186.65 349.16v4.65l.01.29.03.26.06.22.08.19.12.15.16.13.19.1.23.06.29.04.33.02.17-.01h.18l.18-.02.18-.02.19-.03.19-.03.2-.05.19-.04.2-.06.21-.06v-.53l-.1.02-.1.02-.1.02-.1.01-.1.01-.1.01-.1.01-.1.01h-.2l-.28-.01-.23-.04-.19-.08-.15-.1-.12-.14-.09-.17-.07-.2-.04-.24-.02-.28V349.16h2.19v-.67h-2.19v-1.53h-.54l-.62 1.34-.95.42v.44h.91zM192.24 348.15l-1.67.54v.44h1.02v4.04l.02.41.06.37.1.33.14.28.18.25.22.2.25.16.28.11.33.07.35.02.21-.01.22-.03.22-.05.23-.07.23-.08.23-.11.24-.12.25-.14.25-.16.25-.18v.8h2.13v-.51l-.67-.08-.26-.23v-6.25h-.55l-1.67.54v.44h1.02v4.89l-.17.08-.18.07-.17.07-.17.05-.16.05-.17.04-.16.03-.17.02-.16.01-.16.01-.27-.02-.24-.04-.21-.08-.19-.1-.15-.14-.12-.16-.09-.2-.07-.23-.04-.26-.01-.3v-4.77h-.55zM198.82 355.22h3.47v-.51l-1.01-.08-.24-.23v-4.11l.17-.2.17-.18.17-.16.16-.13.16-.12.15-.09.15-.08.15-.05.14-.03.15-.02.09.01.08.01.08.02.08.02.08.03.07.04.07.04.06.06.06.05.06.07h.46v-1.24l-.09-.04-.09-.03-.08-.03-.09-.02-.09-.02-.08-.02-.09-.01-.08-.01h-.09l-.08-.01h-.07l-.04.01H202.68l-.03.01-.04.01h-.03l-.16.13-.15.13-.16.13-.15.14-.16.13-.15.14-.16.15-.15.15-.15.15-.15.15v-1.35h-.55l-1.67.51v.45h1.02v5.21l-.26.23-.76.08v.51zM204.32 355.22h3.15v-.51l-.69-.08-.24-.23v-4.82l.18-.09.18-.08.17-.07.17-.06.16-.06.16-.04.16-.03.15-.03.14-.01.14-.01.3.02.26.04.22.07.19.09.16.13.12.16.09.19.07.23.03.26.02.3v3.81l-.25.23-.69.08v.51h3.15v-.51l-.77-.08-.25-.23v-4.06l-.02-.41-.06-.37-.1-.32-.14-.29-.18-.24-.22-.2-.25-.15-.29-.12-.32-.06-.36-.03-.19.01-.2.03-.21.05-.21.07-.22.08-.24.09-.24.12-.26.12-.27.14-.28.16v-.79h-.55l-1.67.51v.45h1.02v5.21l-.24.23-.78.08v.51zM217.02 348.47l-.15-.06-.15-.05-.16-.05-.16-.04-.17-.04-.17-.03-.17-.02-.18-.01-.19-.01-.18-.01-.47.03-.43.06-.38.11-.33.15-.28.19-.24.22-.18.27-.14.29-.08.34-.02.36.02.28.05.24.1.23.13.2.17.19.2.18.24.17.28.16.32.16.35.16.27.13.24.12.22.11.19.12.17.12.13.14.11.14.07.17.05.18.01.21-.01.2-.05.18-.07.17-.1.16-.13.13-.15.11-.18.1-.2.06-.22.05-.24.01h-.12l-.13-.01-.12-.02-.12-.03-.13-.03-.12-.03-.12-.05-.12-.05-.12-.06-.12-.07-.18-1.22h-.69v1.87l.16.06.16.05.17.04.18.04.18.03.19.03.2.02.21.02.21.01h.21l.49-.02.45-.07.4-.12.35-.16.3-.2.25-.25.2-.28.14-.32.09-.35.03-.39-.01-.15-.02-.15-.03-.15-.04-.13-.05-.13-.06-.12-.07-.12-.08-.1-.09-.1-.1-.08-.14-.12-.15-.1-.15-.09-.16-.09-.15-.08-.16-.07-.15-.07-.16-.08-.15-.07-.16-.07-.23-.11-.2-.12-.19-.11-.16-.11-.13-.12-.11-.12-.09-.14-.06-.14-.04-.16-.01-.18.01-.19.04-.17.06-.15.09-.13.11-.12.13-.1.16-.07.18-.06.2-.03.21-.02.11.01.1.01.11.01.1.02.11.03.1.03.11.04.11.05.11.05.11.06.12 1.02h.7v-1.63z" fill-rule="evenodd"/><path d="M244.73 359.03h17.28v-17.28h-17.28z" fill="#fff"/><path stroke-width="1.07" stroke-linejoin="round" fill="none" stroke="#1e2d53" d="M246.45 350.39h13.83"/><path d="M250.45 350.39c0-1.6 1.31-2.91 2.92-2.91 1.6 0 2.91 1.31 2.91 2.91 0 1.61-1.31 2.92-2.91 2.92-1.61 0-2.92-1.31-2.92-2.92" fill="#1e2d53"/><path stroke-width=".71" stroke-linecap="round" stroke-linejoin="round" fill="none" stroke="#1e2d53" d="M250.45 350.39c0-1.6 1.31-2.91 2.92-2.91 1.6 0 2.91 1.31 2.91 2.91 0 1.61-1.31 2.92-2.91 2.92-1.61 0-2.92-1.31-2.92-2.92"/><path d="M324.08 359.03h17.28v-17.28h-17.28z" fill="#fff"/><path stroke-width="1.07" stroke-linejoin="round" fill="none" stroke="#e37e00" d="M325.8 350.39h13.83"/><path d="M329.8 350.39c0-1.6 1.31-2.91 2.92-2.91 1.6 0 2.91 1.31 2.91 2.91 0 1.61-1.31 2.92-2.91 2.92-1.61 0-2.92-1.31-2.92-2.92" fill="#e37e00"/><path stroke-width=".71" stroke-linecap="round" stroke-linejoin="round" fill="none" stroke="#e37e00" d="M329.8 350.39c0-1.6 1.31-2.91 2.92-2.91 1.6 0 2.91 1.31 2.91 2.91 0 1.61-1.31 2.92-2.91 2.92-1.61 0-2.92-1.31-2.92-2.92"/><path d="M428.28 359.03h17.28v-17.28h-17.28z" fill="#fff"/><path stroke-width="1.07" stroke-linejoin="round" fill="none" stroke="#90353b" d="M430.01 350.39h13.82"/><path d="M434 350.39c0-1.6 1.32-2.91 2.92-2.91 1.6 0 2.91 1.31 2.91 2.91 0 1.61-1.31 2.92-2.91 2.92a2.93 2.93 0 01-2.92-2.92" fill="#90353b"/><path stroke-width=".71" stroke-linecap="round" stroke-linejoin="round" fill="none" stroke="#90353b" d="M434 350.39c0-1.6 1.32-2.91 2.92-2.91 1.6 0 2.91 1.31 2.91 2.91 0 1.61-1.31 2.92-2.91 2.92a2.93 2.93 0 01-2.92-2.92"/><path d="M275 345.56h-3.55v.58l.82.08.24.21v7.93l-.24.2-.82.07v.59h3.98l.4-.02.38-.03.37-.05.35-.07.34-.09.33-.11.32-.14.3-.17.3-.21.34-.28.3-.31.27-.33.23-.36.2-.38.17-.41.12-.43.09-.46.06-.48.02-.5-.06-.87-.17-.8-.27-.71-.39-.63-.49-.54-.59-.45-.69-.36-.79-.26-.89-.15-.98-.06zm-1.19.66h1.14l.75.05.67.12.59.2.5.29.43.37.35.46.28.54.19.63.12.71.03.8-.03.79-.12.71-.19.63-.28.54-.35.46-.43.38-.5.29-.59.21-.67.12-.75.04h-1.14v-8.34zM286.22 345.32l-.36.01-.36.04-.35.06-.33.09-.33.12-.31.14-.31.16-.29.19-.27.22-.27.23-.28.3-.24.31-.22.33-.19.36-.17.37-.13.39-.1.41-.08.43-.04.44-.02.47.02.46.04.45.08.43.1.41.14.39.16.38.19.36.22.33.26.32.27.3.26.23.28.21.29.18.3.16.31.14.33.11.34.09.34.06.36.04.36.02.5-.03.47-.07.46-.12.44-.17.41-.21.39-.24.36-.29.33-.33.3-.36.26-.4.14-.26.12-.26.11-.27.1-.27.08-.28.07-.29.05-.3.03-.3.03-.31v-.31l-.01-.47-.05-.44-.07-.43-.11-.41-.14-.39-.16-.37-.19-.36-.22-.33-.25-.31-.28-.3-.26-.23-.28-.22-.29-.19-.3-.16-.31-.14-.33-.12-.33-.09-.35-.06-.35-.04-.37-.01zm0 .78l.54.04.5.14.46.24.41.31.36.41.3.48.24.56.18.63.11.71.04.77-.04.77-.11.7-.18.64-.24.56-.3.48-.36.41-.41.32-.46.23-.5.14-.54.05-.54-.05-.5-.14-.46-.23-.42-.32-.36-.41-.3-.48-.24-.56-.18-.64-.11-.7-.04-.77.04-.78.11-.71.18-.63.24-.56.3-.48.36-.4.42-.32.46-.23.5-.14.54-.04zM294.8 355.22h.97l2.39-7.87 2.43 7.87h.98l2.29-8.88.97-.2v-.58h-2.98v.58l.96.17.16.2-1.74 6.76-2.36-7.71h-1.01l-2.32 7.55-1.86-6.65.12-.21.9-.11v-.58h-3.22v.58l.91.2 2.41 8.88zM305.26 355.22h3.04v-.59l-.87-.11-.26-.27v-7.2l5.49 8.17h.95v-8.69l.26-.26.86-.13v-.58h-3.02v.58l.86.13.26.26v6.77l-4.91-7.38v-.36h-2.7v.58l.92.08.26.21v7.82l-.26.27-.88.11v.59zM351.19 354.94l.2.08.22.08.23.06.25.06.25.06.27.04.28.03.28.03.3.01.31.01.66-.04.61-.1.55-.17.49-.22.42-.28.35-.33.28-.38.2-.42.13-.46.04-.5-.01-.18-.02-.18-.03-.18-.05-.17-.05-.16-.07-.16-.09-.14-.09-.15-.11-.13-.12-.13-.2-.18-.21-.16-.21-.14-.22-.13-.22-.11-.22-.1-.22-.1-.23-.08-.22-.09-.22-.09-.38-.16-.34-.16-.3-.15-.26-.16-.23-.16-.18-.18-.14-.19-.1-.22-.07-.24-.02-.27.03-.3.06-.28.1-.26.15-.23.18-.19.22-.17.26-.13.29-.1.32-.06.35-.02h.15l.15.01.14.02.13.02.13.03.13.03.12.04.12.04.12.05.11.06.21.25.22 1.36h.75v-2.23l-.26-.07-.25-.07-.25-.06-.24-.06-.25-.04-.24-.04-.24-.02-.24-.02-.24-.02h-.24l-.59.03-.54.1-.49.16-.43.21-.38.27-.31.32-.25.36-.19.4-.11.44-.04.47.03.4.07.35.13.31.17.27.22.25.27.23.32.21.36.2.41.2.46.21.45.19.4.17.36.17.31.16.27.18.22.18.17.22.12.24.08.28.02.34-.02.29-.07.27-.11.25-.16.23-.2.2-.24.17-.29.13-.32.1-.36.06-.4.02h-.19l-.19-.01-.18-.02-.17-.02-.16-.03-.16-.04-.15-.04-.15-.05-.14-.06-.12-.06-.19-.24-.17-1.66h-.85v2.54zM358.56 345.56v2.22h.79l.2-1.34.2-.22h2.22v8.14l-.26.2-.96.07v.59h3.76v-.59l-.97-.07-.26-.2v-8.14h2.22l.2.22.2 1.34h.79v-2.22h-8.13zM367.4 345.56v.58l.82.08.25.21v7.93l-.25.2-.82.07v.59h3.43v-.59l-.82-.07-.25-.2v-3.43h.16l.07-.01h.07l.08-.01h.28l.06-.01.37.02.33.03.29.07.26.09.23.13.2.16.17.2.15.24.14.29.12.33.09.28.07.27.07.27.07.27.08.26.09.25.11.24.13.22.15.21.19.19.11.08.11.08.12.06.13.05.14.05.15.04.16.02.17.02.18.02H375.35l.1-.01h.11l.1-.01.11-.01.11-.02.12-.01.12-.02.12-.02.13-.03v-.55h-.44l-.27-.02-.25-.04-.21-.05-.19-.08-.16-.1-.14-.13-.13-.17-.11-.19-.1-.24-.07-.21-.06-.21-.05-.21-.05-.22-.05-.22-.06-.22-.06-.22-.08-.21-.09-.21-.11-.2-.09-.14-.1-.13-.12-.11-.13-.11-.14-.1-.16-.09-.16-.08-.18-.08-.2-.07-.2-.06.44-.11.4-.15.35-.17.3-.2.26-.23.21-.25.16-.28.12-.3.07-.34.02-.36-.03-.5-.1-.45-.18-.39-.24-.33-.31-.29-.38-.23-.45-.17-.52-.13-.59-.07-.67-.03h-3.67zm2.36.66h.69l.51.02.45.05.4.09.35.13.29.18.23.21.19.27.13.31.08.37.02.42-.02.4-.08.35-.12.31-.18.25-.22.22-.28.17-.33.13-.39.09-.44.05-.49.02h-.26l-.08-.01h-.32l-.13-.01v-4.02z" fill-rule="evenodd"/><path d="M380.32 345.45l-3.37 9.01-.84.17v.59h2.82v-.59l-.93-.07-.15-.2 1.03-2.75h3.4l1.03 2.75-.1.2-.89.07v.59h3.27v-.59l-.87-.17-3.45-9.01h-.95zm.23 1.51l1.48 3.99h-2.91l1.43-3.99zM385.93 355.22h3.65v-.59l-.93-.07-.24-.2v-7.93l.24-.21.93-.08v-.58h-3.65v.58l.92.08.25.21v7.93l-.25.2-.92.07v.59zM396.1 350.59v.59l1.02.07.25.2v3l-.17.03-.16.04-.16.02-.15.03-.15.02-.15.02-.14.01-.13.01h-.26l-.66-.04-.6-.15-.54-.23-.48-.32-.42-.41-.35-.49-.28-.56-.21-.65-.12-.71-.04-.78.04-.75.12-.68.19-.61.27-.54.34-.46.41-.39.47-.3.52-.23.59-.13.63-.05.17.01.17.01.17.02.17.02.16.04.16.04.16.05.16.05.16.07.16.07.21.26.21 1.31h.81v-2.29l-.29-.08-.28-.07-.28-.06-.28-.06-.28-.04-.28-.04-.27-.03-.27-.02-.27-.02h-.27l-.91.06-.85.17-.76.27-.67.38-.58.48-.49.56-.39.66-.28.73-.18.81-.06.88.03.56.08.54.14.52.18.5.24.47.28.44.32.41.37.37.41.33.44.29.21.11.21.1.23.08.24.08.24.06.25.05.27.04.27.03.28.02.28.01.26-.01.27-.01.28-.03.28-.03.29-.05.31-.06.31-.06.32-.08.33-.08.33-.1v-3.44l.25-.2.79-.07v-.59h-3.6zM400.56 345.56v.58l.82.08.25.21v7.93l-.25.2-.82.07v.59h3.5v-.59l-.89-.07-.25-.2v-3.87h4.96v3.87l-.25.2-.89.07v.59h3.5v-.59l-.82-.07-.25-.2v-7.93l.25-.21.82-.08v-.58h-3.5v.58l.89.08.25.21v3.39h-4.96v-3.39l.25-.21.89-.08v-.58h-3.5zM410.95 345.56v2.22h.79l.2-1.34.2-.22h2.22v8.14l-.26.2-.97.07v.59h3.76v-.59l-.96-.07-.26-.2v-8.14h2.22l.2.22.2 1.34h.79v-2.22h-8.13zM454.88 345.56v.58l.83.08.24.21V352.08l.01.3.02.28.03.27.05.25.06.25.08.23.1.22.13.22.15.2.18.19.21.18.24.16.27.14.29.13.31.1.34.09.36.06.38.03.4.02.41-.02.38-.03.36-.06.34-.09.31-.1.29-.13.27-.14.24-.16.21-.18.18-.19.15-.2.13-.22.1-.22.08-.24.06-.24.05-.26.03-.27.02-.28.01-.29v-5.55l.26-.26.86-.13v-.58h-3.04v.58l.87.13.27.26v5.11l-.02.56-.07.49-.12.43-.17.37-.22.32-.28.25-.33.2-.39.13-.45.09-.51.02-.52-.02-.46-.09-.39-.13-.34-.2-.27-.25-.22-.32-.17-.37-.12-.43-.07-.49-.02-.56v-5.21l.26-.21.89-.08v-.58h-3.53zM464.99 355.22h3.63v-.59l-1.02-.07-.24-.2v-2.84l.13.02.12.01.12.01.12.01.11.01h.11l.1.01h.09l.09.01h.09l.66-.04.61-.11.55-.17.49-.24.42-.3.35-.35.28-.41.2-.45.12-.5.04-.53-.03-.61-.12-.54-.19-.45-.27-.38-.35-.31-.43-.24-.52-.19-.61-.12-.69-.07-.79-.03h-3.28v.58l.93.08.25.21v7.93l-.25.2-.82.07v.59zm2.37-4.39v-4.58h.07l.08-.01.08-.01H467.96l.07-.01h.07l.53.03.46.06.41.11.36.15.3.2.24.24.19.3.13.34.08.38.03.44-.03.45-.08.41-.13.37-.18.31-.23.27-.28.22-.33.18-.37.12-.42.08-.47.02H468.08l-.08-.01h-.09l-.1-.01-.11-.01-.11-.01-.11-.01-.12-.02zM33.64 50.02h4.54v-.73l-1.28-.09-.31-.26v-4.6h2.96l.25.27.18 1.31h.84v-3.98h-.84l-.18 1.32-.25.25h-2.96v-4.74h4.05l.24.27.27 1.71h.99v-2.8H33.5v.72l1.17.1.3.26v9.91l-.3.26-1.03.09v.73zM45.49 37.28l-.17.01-.16.04-.15.06-.14.09-.12.1-.11.12-.08.14-.06.15-.04.16-.02.17.02.17.04.16.06.15.08.13.11.12.12.1.14.09.15.06.16.04.17.01.17-.01.16-.04.15-.06.13-.09.12-.1.11-.12.08-.13.07-.15.04-.16.01-.17-.01-.17-.04-.16-.07-.15-.08-.13-.11-.12-.12-.11-.13-.08-.15-.07-.16-.04-.17-.01zm-.08 4l-2.07.64v.56h1.26V49l-.3.29-.96.09v.64h4.05v-.64l-.97-.09-.32-.29v-7.72h-.69zM49.34 42.45v5.81l.01.36.04.32.07.28.11.23.14.2.2.16.24.12.29.08.36.05.41.02.21-.01.22-.01.23-.02.23-.02.24-.04.24-.04.24-.05.25-.06.25-.07.25-.08v-.66l-.13.02-.12.02-.12.03-.13.01-.12.02-.13.01-.12.02h-.12l-.13.01h-.12l-.35-.02-.29-.05-.24-.1-.19-.13-.15-.17-.11-.21-.08-.26-.05-.29-.03-.35-.01-.38v-4.75h2.74v-.85h-2.74v-1.91h-.66l-.78 1.68-1.19.52v.56h1.14zM55.35 42.45v5.81l.01.36.04.32.07.28.11.23.15.2.19.16.24.12.29.08.36.05.41.02.22-.01.22-.01.22-.02.23-.02.24-.04.24-.04.24-.05.25-.06.25-.07.25-.08v-.66l-.12.02-.13.02-.12.03-.13.01-.12.02-.12.01-.13.02h-.12l-.13.01h-.12l-.35-.02-.29-.05-.24-.1-.19-.13-.15-.17-.11-.21-.08-.26-.05-.29-.03-.35-.01-.38v-4.75h2.74v-.85h-2.74v-1.91h-.66l-.78 1.68-1.18.52v.56h1.13zM67.84 48.12l-.3.19-.3.18-.29.15-.29.14-.28.11-.28.1-.27.07-.27.06-.27.03-.27.01-.53-.04L64 49l-.44-.2-.39-.27-.35-.34-.29-.41-.23-.48-.17-.55-.1-.6-.04-.66v-.2h5.83l.01-.06v-.06l.01-.05V44.73l-.03-.64-.12-.58-.18-.52-.24-.46-.31-.4-.37-.33-.42-.27-.48-.19-.52-.12-.57-.03-.7.05-.66.16-.6.26-.54.35-.48.44-.41.52-.32.6-.24.67-.15.73-.06.79.05.76.14.71.23.65.31.58.39.5.46.43.52.34.59.25.64.15.69.06.34-.02.34-.03.35-.05.34-.08.34-.09.34-.12.34-.14.34-.17.33-.18.32-.2v-.99zm-1.6-3.59h-4.16l.06-.44.11-.41.16-.37.19-.33.23-.29.27-.24.29-.2.31-.14.33-.09.34-.02.34.02.32.07.28.12.24.16.21.2.17.25.13.3.1.33.06.38.02.42v.28zM75.51 37.98v3.39l-.17-.04-.16-.03-.17-.03-.16-.03-.16-.02-.16-.02-.16-.01-.15-.01-.16-.01h-.15l-.8.05-.73.17-.68.27-.61.37-.53.46-.45.55-.36.63-.26.7-.17.77-.06.83.05.73.13.68.2.61.28.55.35.48.4.41.45.32.5.24.54.15.58.05.29-.02.29-.03.28-.05.28-.08.27-.1.27-.12.27-.14.28-.17.27-.18.27-.21v.93h2.66v-.64l-.86-.09L77 49V36.78h-.68l-2.2.64v.56h1.39zm0 10.44l-.2.12-.2.11-.19.09-.2.08-.2.07-.19.06-.2.04-.19.04-.2.01-.19.01-.47-.04-.43-.11-.4-.18-.35-.25-.31-.32-.26-.38-.2-.44-.16-.5-.09-.56-.03-.6.04-.65.1-.6.18-.55.24-.48.3-.42.35-.35.4-.29.45-.2.49-.13.53-.04h.13l.14.01.14.02.15.02.16.03.16.03.17.04.17.04.18.05.18.05v6.17zM83.7 41.37v.66l1.1.11 2.9 7.88h1l3.15-7.84 1.07-.15v-.66h-3.19v.66l.97.07.15.29-2.31 5.89-2.1-5.89.21-.29.96-.07v-.66H83.7zM98.69 48.98l.24 1.04h2.54v-.64l-.96-.09-.32-.29v-5.22l-.03-.52-.07-.45-.12-.39-.18-.34-.23-.28-.29-.23-.35-.17-.41-.12-.47-.07-.53-.02-.66.02-.59.08-.54.13-.47.16-.41.21-.34.24-.27.27-.2.29-.12.31-.04.32.01.12.01.1.02.09.04.07.04.06.06.05.08.03.08.02.1.01.12.01h1.24v-1.51l.15-.06.14-.05.14-.04.13-.04.14-.03.13-.03.14-.02.13-.01.13-.01h.14l.36.02.31.05.26.09.21.14.17.17.14.22.09.26.07.31.03.35.01.4v.58l-1.02.25-.9.24-.8.24-.68.26-.57.27-.47.3-.36.35-.25.39-.15.45-.05.53.03.39.07.36.13.34.17.3.22.26.26.23.3.18.34.13.37.08.41.03.26-.01.27-.04.28-.06.28-.08.29-.11.29-.12.31-.16.32-.17.32-.2.33-.22zm0-.61l-.26.15-.26.13-.24.12-.24.11-.23.09-.21.07-.21.06-.2.04-.19.03-.19.01-.26-.02-.23-.05-.22-.08-.18-.12-.16-.14-.14-.17-.11-.19-.07-.22-.05-.23-.02-.26.04-.37.1-.33.18-.29.24-.25.33-.24.4-.22.47-.2.56-.2.64-.2.71-.2v3.17zM102.31 50.02h4.21v-.64l-1.02-.09-.33-.29V36.78h-.68l-2.2.64v.56h1.39V49l-.31.29-1.06.09v.64zM109.44 41.19l-2.09.66v.56h1.28v5.04l.03.51.07.47.13.41.17.36.23.3.27.25.31.2.36.14.4.08.44.03.27-.01.27-.04.28-.06.28-.08.29-.11.29-.13.3-.16.31-.17.31-.2.32-.22v1h2.66v-.64l-.84-.09-.33-.29v-7.81h-.68l-2.09.66v.56h1.28v6.1l-.22.1-.22.1-.21.08-.21.07-.21.06-.21.04-.2.04-.21.03-.2.02h-.2l-.34-.02-.3-.05-.27-.1-.22-.13-.19-.17-.16-.21-.12-.24-.08-.29-.05-.33-.02-.37v-5.95h-.68zM125.19 48.12l-.3.19-.3.18-.29.15-.29.14-.28.11-.28.1-.27.07-.27.06-.27.03-.28.01-.52-.04-.49-.12-.44-.2-.39-.27-.35-.34-.29-.41-.23-.48-.17-.55-.1-.6-.04-.66v-.2h5.83l.01-.06v-.11l.01-.06V44.73l-.04-.64-.11-.58-.18-.52-.24-.46-.31-.4-.37-.33-.42-.27-.48-.19-.52-.12-.57-.03-.7.05-.66.16-.6.26-.54.35-.48.44-.41.52-.32.6-.25.67-.15.73-.05.79.05.76.14.71.23.65.31.58.39.5.46.43.52.34.59.25.64.15.69.06.34-.02.34-.03.34-.05.35-.08.34-.09.34-.12.34-.14.33-.17.33-.18.33-.2v-.99zm-1.6-3.59h-4.16l.06-.44.11-.41.15-.37.2-.33.23-.29.27-.24.29-.2.31-.14.33-.09.34-.02.34.02.31.07.28.12.25.16.21.2.17.25.13.3.1.33.06.38.02.42v.28zM132.16 41.58l-.19-.08-.19-.06-.2-.06-.2-.05-.21-.05-.21-.03-.22-.03-.22-.02-.23-.01h-.24l-.59.02-.53.09-.47.13-.42.19-.35.23-.29.28-.23.33-.17.37-.1.42-.04.46.03.34.07.31.12.28.16.26.21.23.26.23.3.2.35.21.39.2.44.2.34.16.3.15.28.14.24.15.2.15.17.17.13.18.1.21.05.23.02.26-.02.25-.05.23-.1.21-.12.19-.16.17-.19.14-.22.11-.25.09-.28.05-.3.02-.16-.01-.15-.01-.15-.02-.16-.03-.15-.04-.15-.05-.15-.05-.16-.07-.15-.07-.15-.08-.22-1.53h-.86v2.34l.19.06.21.07.21.05.22.05.23.04.24.04.25.03.26.02.26.01.27.01.61-.04.56-.08.49-.15.44-.2.38-.26.31-.3.25-.35.18-.4.11-.44.04-.48-.01-.2-.02-.19-.04-.18-.05-.17-.06-.16-.08-.15-.09-.14-.1-.13-.11-.12-.13-.11-.18-.14-.18-.13-.19-.11-.19-.11-.2-.1-.19-.1-.2-.09-.19-.09-.19-.09-.2-.09-.28-.14-.26-.14-.23-.14-.2-.14-.17-.15-.14-.15-.11-.17-.07-.18-.05-.2-.02-.22.02-.24.05-.21.08-.19.11-.17.13-.15.17-.12.2-.09.22-.07.25-.05.27-.01h.13l.13.01.13.02.13.03.13.03.13.05.14.04.13.06.14.07.14.07.14 1.28h.89v-2.04zM140.53 36.78l-2.22.64v.56h1.41v12.04h2.3l.98-.05.88-.14.78-.24.68-.34.58-.43.47-.53.37-.61.27-.71.16-.8.05-.88-.04-.71-.13-.66-.2-.6-.27-.53-.34-.47-.41-.4-.47-.31-.52-.23-.57-.15-.61-.04h-.24l-.24.02-.24.03-.24.05-.25.05-.25.07-.25.09-.25.09-.25.11-.26.12v-5.04h-.68zm.68 12.42v-6.77l.18-.05.17-.05.17-.04.17-.04.16-.03.15-.03.16-.02.14-.02.15-.01h.13l.52.04.47.11.42.18.37.25.31.32.26.39.21.45.15.52.09.59.03.64-.03.71-.1.62-.17.54-.23.47-.3.38-.37.32-.45.24-.51.17-.59.1-.67.03h-.55l-.13-.01h-.31zM155.93 48.12l-.3.19-.3.18-.29.15-.28.14-.29.11-.27.1-.28.07-.27.06-.27.03-.27.01-.53-.04-.48-.12-.45-.2-.39-.27-.34-.34-.29-.41-.24-.48-.17-.55-.1-.6-.04-.66v-.2h5.84v-.06l.01-.06V44.73l-.03-.64-.11-.58-.18-.52-.25-.46-.31-.4-.37-.33-.42-.27-.47-.19-.53-.12-.57-.03-.7.05-.65.16-.61.26-.54.35-.48.44-.4.52-.33.6-.24.67-.15.73-.05.79.05.76.14.71.22.65.32.58.38.5.46.43.53.34.58.25.64.15.69.06.34-.02.34-.03.35-.05.34-.08.34-.09.34-.12.34-.14.34-.17.33-.18.32-.2v-.99zm-1.6-3.59h-4.16l.06-.44.11-.41.16-.37.19-.33.24-.29.26-.24.29-.2.31-.14.33-.09.34-.02.35.02.31.07.28.12.24.16.21.2.17.25.14.3.09.33.06.38.02.42v.28zM157.23 50.02h4.19v-.64l-1.11-.09L160 49v-6.55h2.52v-.85h-2.5v-1.31l.01-.44.04-.4.06-.37.08-.33.11-.3.12-.26.16-.23.17-.2.2-.16.22-.12 1.64 1.08.13-.05.13-.05.1-.07.1-.08.08-.09.07-.1.06-.1.04-.12.02-.12.01-.12-.02-.17-.05-.16-.08-.15-.11-.13-.13-.12-.17-.1-.18-.09-.2-.06-.23-.04-.24-.01-.62.05-.57.16-.53.26-.48.35-.42.45-.36.53-.28.62-.21.71-.14.78-.04.86v.2l-1.15.27v.58h1.15V49l-.33.29-.95.09v.64zM167.33 41.19l-.71.05-.66.16-.6.25-.55.35-.48.43-.41.51-.32.59-.25.66-.15.72-.05.78.05.77.16.72.24.65.33.59.41.51.48.44.54.35.61.25.66.16.7.06.7-.06.66-.16.61-.25.55-.35.48-.44.41-.51.33-.59.25-.65.15-.72.05-.77-.05-.78-.15-.72-.24-.65-.33-.59-.41-.51-.49-.44-.54-.35-.61-.25-.66-.16-.71-.05zm0 .77l.42.04.4.12.36.21.33.27.29.35.24.42.2.49.14.55.09.61.03.67-.03.67-.09.61-.14.55-.2.49-.24.42-.29.34-.33.28-.36.2-.4.12-.42.04-.42-.04-.39-.12-.36-.2-.33-.28-.28-.35-.25-.42-.19-.49-.14-.55-.09-.61-.04-.66.04-.68.08-.61.15-.55.19-.49.24-.42.28-.34.33-.28.36-.2.4-.12.42-.04zM172.73 50.02h4.34v-.64l-1.26-.09-.31-.29v-5.15l.22-.25.21-.22.21-.2.2-.17.2-.14.19-.12.19-.09.18-.07.18-.04.18-.01h.11l.11.01.1.02.1.03.1.04.09.05.08.06.08.06.08.08.07.08h.58v-1.55l-.12-.05-.11-.04-.11-.03-.1-.03-.11-.03-.11-.02-.1-.01-.11-.02H177.61l-.05.01h-.04l-.05.01-.04.01-.2.16-.19.16-.2.17-.19.16-.19.18-.2.17-.19.18-.19.19-.19.18-.19.2v-1.69h-.68l-2.09.64v.56h1.28V49l-.33.29-.95.09v.64zM187.13 48.12l-.31.19-.29.18-.29.15-.29.14-.28.11-.28.1-.27.07-.28.06-.27.03-.27.01-.52-.04-.49-.12-.44-.2-.4-.27-.34-.34-.29-.41-.23-.48-.17-.55-.11-.6-.03-.66v-.2h5.83l.01-.06v-.11l.01-.06V44.73l-.04-.64-.11-.58-.18-.52-.25-.46-.31-.4-.36-.33-.43-.27-.47-.19-.52-.12-.57-.03-.7.05-.66.16-.6.26-.55.35-.47.44-.41.52-.33.6-.24.67-.15.73-.05.79.05.76.14.71.23.65.31.58.39.5.46.43.52.34.59.25.64.15.68.06.35-.02.34-.03.34-.05.34-.08.35-.09.34-.12.34-.14.33-.17.33-.18.33-.2v-.99zm-1.6-3.59h-4.16l.06-.44.11-.41.15-.37.2-.33.23-.29.26-.24.29-.2.32-.14.32-.09.34-.02.35.02.31.07.28.12.24.16.21.2.18.25.13.3.1.33.06.38.02.42v.28zM199.85 37.1l-.91.19-.84.32-.75.46-.65.6-.57.72-.46.85-.37.98-.27 1.1-.16 1.23-.06 1.34.06 1.33.17 1.21.27 1.09.38.97.47.84.57.72.66.58.74.45.82.32.9.18v-.76l-.68-.18-.61-.29-.53-.4-.45-.52-.38-.63-.31-.75-.24-.86-.17-.98-.1-1.09-.04-1.21.04-1.23.09-1.12.17-1 .23-.87.31-.76.37-.65.46-.53.53-.41.62-.3.69-.18v-.76zM202 42.45v5.81l.01.36.04.32.07.28.11.23.14.2.19.16.25.12.29.08.35.05.42.02.21-.01.22-.01.23-.02.23-.02.23-.04.24-.04.25-.05.24-.06.25-.07.26-.08v-.66l-.13.02-.12.02-.13.03-.12.01-.12.02-.13.01-.12.02h-.13l-.12.01h-.13l-.34-.02-.29-.05-.24-.1-.2-.13-.14-.17-.12-.21-.07-.26-.05-.29-.03-.35-.01-.38v-4.75h2.74v-.85h-2.74v-1.91h-.67l-.77 1.68-1.19.52v.56H202zM212.99 42.46v1.03h10.53v-1.03h-10.53zm0 3.37v1.03h10.53v-1.03h-10.53zM232.62 48.6l1.14-.92 1.02-.85.92-.81.8-.76.69-.73.56-.7.45-.68.31-.68.2-.66.06-.68-.04-.59-.12-.54-.21-.5-.28-.44-.35-.39-.42-.33-.49-.26-.55-.19-.61-.12-.67-.04-.65.04-.61.1-.55.17-.5.22-.44.27-.37.3-.29.33-.22.36-.14.37-.05.38.01.17.04.17.05.14.08.14.09.11.11.1.14.07.14.06.17.03.18.02.09-.01.08-.01.09-.01.08-.02.08-.02.08-.03.08-.04.08-.04.07-.04.08-.05v-1.93l.16-.09.16-.07.16-.07.16-.06.16-.04.16-.04.16-.03.16-.02.16-.01h.16l.43.03.4.09.35.14.31.2.27.25.22.31.18.35.13.41.08.44.03.5-.07.69-.2.69-.33.67-.45.69-.57.7-.69.73-.81.76-.92.8-1.02.86-1.14.93v1.13h8.34v-2.95h-.81l-.33 1.53h-5.41zM240.64 37.1v.76l.7.18.62.3.53.41.46.53.37.65.31.76.23.87.17 1 .09 1.12.03 1.23-.03 1.21-.1 1.09-.17.98-.24.86-.31.75-.38.63-.45.52-.53.4-.61.29-.69.18v.76l.91-.18.82-.32.74-.45.66-.58.57-.72.47-.84.38-.97.27-1.09.17-1.21.05-1.33-.05-1.34-.16-1.23-.27-1.1-.37-.98-.46-.85-.57-.72-.65-.6-.75-.46-.84-.32-.92-.19zM258.61 48.98l.23 1.04h2.54v-.64l-.95-.09-.33-.29v-5.22l-.02-.52-.07-.45-.13-.39-.18-.34-.23-.28-.29-.23-.35-.17-.4-.12-.47-.07-.54-.02-.65.02-.6.08-.53.13-.48.16-.41.21-.34.24-.27.27-.19.29-.12.31-.05.32.01.12.01.1.03.09.03.07.05.06.06.05.07.03.09.02.1.01.11.01h1.24v-1.51l.15-.06.14-.05.14-.04.14-.04.13-.03.14-.03.13-.02.13-.01.14-.01h.13l.36.02.31.05.26.09.22.14.17.17.13.22.1.26.06.31.04.35.01.4v.58l-1.02.25-.91.24-.79.24-.69.26-.57.27-.46.3-.36.35-.26.39-.15.45-.05.53.03.39.08.36.12.34.17.3.22.26.26.23.3.18.34.13.38.08.41.03.26-.01.27-.04.27-.06.28-.08.29-.11.3-.12.3-.16.32-.17.32-.2.34-.22zm0-.61l-.27.15-.25.13-.25.12-.23.11-.23.09-.22.07-.21.06-.2.04-.19.03-.18.01-.26-.02-.24-.05-.21-.08-.19-.12-.16-.14-.14-.17-.1-.19-.08-.22-.05-.23-.01-.26.03-.37.11-.33.17-.29.25-.25.32-.24.4-.22.48-.2.55-.2.64-.2.72-.2v3.17zM262.26 50.02h3.94v-.64l-.86-.09-.31-.29v-6.03l.23-.12.23-.1.21-.09.21-.07.21-.07.2-.05.19-.04.18-.03.19-.02.17-.01.38.02.32.05.28.09.24.12.19.16.15.2.12.24.08.28.04.33.02.37V49l-.31.29-.86.09v.64h3.94v-.64l-.97-.09-.31-.29v-5.08l-.02-.51-.08-.46-.13-.41-.17-.36-.22-.3-.28-.25-.31-.19-.36-.14-.41-.09-.45-.02-.23.01-.25.03-.26.06-.26.08-.28.11-.3.12-.3.14-.32.16-.34.17-.36.2v-.99h-.68l-2.09.64v.56h1.28V49l-.31.29-.97.09v.64zM278.84 37.98v3.39l-.17-.04-.16-.03-.17-.03-.16-.03-.16-.02-.16-.02-.16-.01-.15-.01-.16-.01h-.15l-.8.05-.73.17-.68.27-.61.37-.53.46-.45.55-.36.63-.26.7-.17.77-.06.83.05.73.13.68.2.61.28.55.35.48.4.41.45.32.5.24.54.15.58.05.29-.02.29-.03.28-.05.28-.08.27-.1.27-.12.27-.14.28-.17.27-.18.27-.21v.93h2.66v-.64l-.86-.09-.31-.29V36.78h-.68l-2.2.64v.56h1.39zm0 10.44l-.2.12-.2.11-.19.09-.2.08-.2.07-.19.06-.2.04-.19.04-.2.01-.19.01-.47-.04-.43-.11-.4-.18-.35-.25-.31-.32-.26-.38-.2-.44-.16-.5-.09-.56-.03-.6.04-.65.1-.6.18-.55.24-.48.3-.42.35-.35.4-.29.45-.2.49-.13.53-.04h.13l.14.01.14.02.15.02.16.03.16.03.17.04.17.04.18.05.18.05v6.17zM293.13 48.98l.24 1.04h2.53v-.64l-.95-.09-.32-.29v-5.22l-.03-.52-.07-.45-.13-.39-.17-.34-.24-.28-.28-.23-.35-.17-.41-.12-.47-.07-.54-.02-.65.02-.59.08-.54.13-.47.16-.41.21-.34.24-.27.27-.2.29-.12.31-.04.32v.12l.02.1.02.09.04.07.04.06.06.05.07.03.09.02.1.01.12.01h1.24v-1.51l.14-.06.14-.05.14-.04.14-.04.14-.03.13-.03.13-.02.14-.01.13-.01h.14l.36.02.31.05.26.09.21.14.17.17.13.22.1.26.07.31.03.35.01.4v.58l-1.02.25-.91.24-.79.24-.68.26-.58.27-.46.3-.36.35-.25.39-.15.45-.05.53.02.39.08.36.13.34.17.3.22.26.26.23.3.18.34.13.37.08.41.03.26-.01.27-.04.28-.06.28-.08.29-.11.29-.12.31-.16.31-.17.33-.2.33-.22zm0-.61l-.26.15-.26.13-.24.12-.24.11-.23.09-.22.07-.21.06-.2.04-.19.03-.18.01-.26-.02-.23-.05-.22-.08-.18-.12-.17-.14-.13-.17-.11-.19-.08-.22-.04-.23-.02-.26.04-.37.1-.33.17-.29.25-.25.33-.24.39-.22.48-.2.56-.2.63-.2.72-.2v3.17zM296.77 50.02h4.19v-.64l-1.11-.09-.31-.29v-6.55h2.52v-.85h-2.5v-1.31l.01-.44.04-.4.06-.37.08-.33.1-.3.13-.26.15-.23.18-.2.2-.16.22-.12 1.64 1.08.13-.05.12-.05.11-.07.1-.08.08-.09.07-.1.05-.1.04-.12.03-.12v-.12l-.01-.17-.05-.16-.08-.15-.11-.13-.14-.12-.16-.1-.18-.09-.21-.06-.22-.04-.24-.01-.62.05-.57.16-.54.26-.47.35-.42.45-.36.53-.29.62-.21.71-.13.78-.04.86v.2l-1.16.27v.58h1.16V49l-.33.29-.95.09v.64zM303.61 42.45v5.81l.01.36.04.32.07.28.11.23.14.2.2.16.24.12.29.08.36.05.41.02.21-.01.22-.01.23-.02.23-.02.24-.04.24-.04.24-.05.25-.06.25-.07.25-.08v-.66l-.13.02-.12.02-.12.03-.13.01-.12.02-.13.01-.12.02h-.12l-.13.01h-.12l-.35-.02-.29-.05-.24-.1-.19-.13-.15-.17-.11-.21-.08-.26-.05-.29-.03-.35-.01-.38v-4.75h2.74v-.85h-2.74v-1.91h-.66l-.78 1.68-1.19.52v.56h1.14zM316.1 48.12l-.3.19-.3.18-.29.15-.29.14-.28.11-.28.1-.27.07-.27.06-.27.03-.28.01-.52-.04-.49-.12-.44-.2-.39-.27-.35-.34-.29-.41-.23-.48-.17-.55-.1-.6-.04-.66v-.2h5.83l.01-.06v-.11l.01-.06V44.73l-.04-.64-.11-.58-.18-.52-.24-.46-.31-.4-.37-.33-.42-.27-.48-.19-.52-.12-.57-.03-.7.05-.66.16-.6.26-.54.35-.48.44-.41.52-.32.6-.25.67-.15.73-.05.79.05.76.14.71.23.65.31.58.39.5.46.43.52.34.59.25.64.15.69.06.34-.02.34-.03.34-.05.35-.08.34-.09.34-.12.34-.14.33-.17.33-.18.33-.2v-.99zm-1.6-3.59h-4.16l.06-.44.11-.41.15-.37.2-.33.23-.29.27-.24.29-.2.31-.14.33-.09.34-.02.34.02.31.07.28.12.25.16.21.2.17.25.13.3.1.33.06.38.02.42v.28zM317.41 50.02h4.34v-.64l-1.26-.09-.3-.29v-5.15l.22-.25.21-.22.2-.2.21-.17.19-.14.19-.12.19-.09.19-.07.18-.04.18-.01h.11l.11.01.1.02.1.03.09.04.09.05.09.06.08.06.07.08.08.08h.57v-1.55l-.11-.05-.11-.04-.11-.03-.11-.03-.1-.03-.11-.02-.11-.01-.1-.02H322.29l-.04.01h-.05l-.04.01-.05.01-.19.16-.2.16-.19.17-.19.16-.2.18-.19.17-.19.18-.19.19-.19.18-.19.2v-1.69h-.69l-2.09.64v.56h1.28V49l-.32.29-.96.09v.64zM335.7 37.1l-.92.19-.83.32-.75.46-.66.6-.56.72-.47.85-.36.98-.27 1.1-.16 1.23-.06 1.34.06 1.33.17 1.21.27 1.09.37.97.48.84.57.72.65.58.75.45.82.32.9.18v-.76l-.68-.18-.61-.29-.53-.4-.45-.52-.39-.63-.31-.75-.23-.86-.17-.98-.1-1.09-.04-1.21.03-1.23.1-1.12.17-1 .23-.87.3-.76.38-.65.46-.53.53-.41.62-.3.69-.18v-.76zM337.84 42.45v5.81l.02.36.04.32.07.28.1.23.15.2.19.16.24.12.3.08.35.05.42.02.21-.01.22-.01.23-.02.23-.02.23-.04.24-.04.25-.05.24-.06.25-.07.25-.08v-.66l-.12.02-.12.02-.13.03-.12.01-.13.02-.12.01-.12.02h-.13l-.12.01h-.13l-.35-.02-.29-.05-.24-.1-.19-.13-.15-.17-.11-.21-.08-.26-.05-.29-.02-.35-.01-.38v-4.75h2.73v-.85h-2.73v-1.91h-.67l-.77 1.68-1.19.52v.56h1.13zM348.92 39.96v1.12l8.79 3.58-8.79 3.56v1.14l10.35-4.25v-.9l-10.35-4.25zM368.46 48.6l1.14-.92 1.03-.85.92-.81.8-.76.68-.73.57-.7.44-.68.32-.68.2-.66.06-.68-.04-.59-.13-.54-.2-.5-.28-.44-.35-.39-.42-.33-.49-.26-.55-.19-.61-.12-.67-.04-.65.04-.61.1-.55.17-.5.22-.44.27-.37.3-.3.33-.22.36-.13.37-.05.38.01.17.04.17.05.14.07.14.1.11.11.1.13.07.15.06.17.03.18.02.08-.01.09-.01.08-.01.09-.02.08-.02.08-.03.08-.04.08-.04.07-.04.08-.05v-1.93l.16-.09.16-.07.16-.07.16-.06.16-.04.16-.04.16-.03.16-.02.16-.01h.16l.43.03.39.09.36.14.31.2.27.25.22.31.18.35.13.41.08.44.02.5-.06.69-.2.69-.33.67-.45.69-.57.7-.69.73-.81.76-.92.8-1.03.86-1.13.93v1.13h8.34v-2.95h-.81l-.33 1.53h-5.42zM376.49 37.1v.76l.7.18.61.3.54.41.45.53.38.65.31.76.23.87.16 1 .1 1.12.03 1.23-.03 1.21-.1 1.09-.17.98-.24.86-.31.75-.38.63-.46.52-.53.4-.6.29-.69.18v.76l.91-.18.82-.32.74-.45.66-.58.57-.72.47-.84.38-.97.27-1.09.17-1.21.05-1.33-.05-1.34-.16-1.23-.27-1.1-.37-.98-.47-.85-.56-.72-.66-.6-.74-.46-.84-.32-.92-.19zM390.03 42.45v5.81l.01.36.04.32.07.28.11.23.14.2.2.16.24.12.29.08.36.05.41.02.21-.01.22-.01.23-.02.23-.02.24-.04.24-.04.24-.05.25-.06.25-.07.25-.08v-.66l-.13.02-.12.02-.12.03-.13.01-.12.02-.13.01-.12.02h-.12l-.13.01h-.12l-.35-.02-.29-.05-.24-.1-.19-.13-.15-.17-.11-.21-.08-.26-.05-.29-.03-.35-.01-.38v-4.75h2.74v-.85h-2.74v-1.91h-.66l-.78 1.68-1.19.52v.56h1.14zM396.99 36.78l-2.19.64v.56h1.38V49l-.3.29-.97.09v.64h3.94v-.64l-.85-.09-.32-.29v-6.03l.23-.12.22-.1.22-.09.21-.07.2-.07.2-.05.19-.04.19-.03.18-.02.17-.01.38.02.33.05.28.09.23.12.19.16.16.2.11.24.08.28.05.33.01.37V49l-.3.29-.85.09v.64h3.92v-.64l-.95-.09-.32-.29v-5.08l-.03-.51-.07-.46-.13-.41-.17-.36-.22-.3-.27-.25-.31-.19-.36-.14-.41-.09-.45-.02-.23.01-.25.03-.26.06-.27.08-.28.11-.3.12-.31.14-.32.16-.34.17-.35.2v-5.49h-.69zM412.67 48.12l-.3.19-.3.18-.29.15-.29.14-.28.11-.28.1-.27.07-.27.06-.27.03-.27.01-.53-.04-.49-.12-.44-.2-.39-.27-.35-.34-.29-.41-.23-.48-.17-.55-.1-.6-.04-.66v-.2h5.83l.01-.06v-.06l.01-.05V44.73l-.03-.64-.12-.58-.18-.52-.24-.46-.31-.4-.37-.33-.42-.27-.48-.19-.52-.12-.57-.03-.7.05-.66.16-.6.26-.54.35-.48.44-.41.52-.32.6-.24.67-.15.73-.06.79.05.76.14.71.23.65.31.58.39.5.46.43.52.34.59.25.64.15.69.06.34-.02.34-.03.35-.05.34-.08.34-.09.34-.12.34-.14.34-.17.33-.18.32-.2v-.99zm-1.6-3.59h-4.16l.06-.44.11-.41.16-.37.19-.33.23-.29.27-.24.29-.2.31-.14.33-.09.34-.02.34.02.32.07.28.12.24.16.21.2.17.25.13.3.1.33.06.38.02.42v.28zM424.64 41.58l-.18-.08-.2-.06-.19-.06-.2-.05-.21-.05-.22-.03-.21-.03-.23-.02-.23-.01h-.23l-.59.02-.53.09-.48.13-.41.19-.36.23-.29.28-.23.33-.16.37-.11.42-.03.46.02.34.08.31.11.28.17.26.21.23.25.23.31.2.34.21.4.2.43.2.34.16.31.15.27.14.24.15.21.15.16.17.14.18.09.21.06.23.02.26-.02.25-.06.23-.09.21-.13.19-.16.17-.19.14-.22.11-.25.09-.27.05-.3.02-.16-.01-.15-.01-.16-.02-.15-.03-.15-.04-.16-.05-.15-.05-.15-.07-.15-.07-.15-.08-.22-1.53h-.86v2.34l.19.06.2.07.22.05.22.05.23.04.24.04.25.03.25.02.27.01.27.01.61-.04.55-.08.5-.15.44-.2.38-.26.31-.3.25-.35.18-.4.11-.44.03-.48v-.2l-.03-.19-.03-.18-.05-.17-.07-.16-.07-.15-.09-.14-.1-.13-.12-.12-.12-.11-.18-.14-.19-.13-.19-.11-.19-.11-.19-.1-.2-.1-.19-.09-.2-.09-.19-.09-.19-.09-.29-.14-.26-.14-.22-.14-.2-.14-.17-.15-.14-.15-.11-.17-.08-.18-.04-.2-.02-.22.02-.24.04-.21.08-.19.11-.17.14-.15.17-.12.19-.09.22-.07.25-.05.27-.01h.13l.13.01.13.02.14.03.13.03.13.05.13.04.14.06.14.07.14.07.14 1.28h.88v-2.04zM428.19 36.78l-2.2.64v.56h1.39V49l-.31.29-.97.09v.64h3.94v-.64l-.84-.09-.33-.29v-6.03l.23-.12.22-.1.22-.09.21-.07.21-.07.19-.05.2-.04.18-.03.18-.02.18-.01.37.02.33.05.28.09.23.12.2.16.15.2.12.24.08.28.04.33.02.37V49l-.31.29-.85.09v.64h3.93v-.64l-.96-.09-.32-.29v-5.08l-.02-.51-.08-.46-.12-.41-.18-.36-.22-.3-.27-.25-.31-.19-.36-.14-.4-.09-.45-.02-.24.01-.25.03-.25.06-.27.08-.29.11-.29.12-.31.14-.33.16-.33.17-.36.2v-5.49h-.68zM440.64 41.19l-.7.05-.66.16-.61.25-.54.35-.48.43-.41.51-.33.59-.24.66-.15.72-.05.78.05.77.15.72.25.65.32.59.41.51.48.44.55.35.6.25.66.16.7.06.71-.06.66-.16.6-.25.55-.35.49-.44.41-.51.33-.59.24-.65.16-.72.05-.77-.05-.78-.15-.72-.25-.65-.33-.59-.41-.51-.48-.44-.55-.35-.61-.25-.66-.16-.71-.05zm0 .77l.43.04.39.12.37.21.33.27.28.35.25.42.19.49.15.55.09.61.03.67-.03.67-.09.61-.15.55-.19.49-.25.42-.28.34-.33.28-.37.2-.39.12-.43.04-.41-.04-.4-.12-.36-.2-.32-.28-.29-.35-.24-.42-.19-.49-.15-.55-.09-.61-.03-.66.03-.68.09-.61.14-.55.2-.49.24-.42.28-.34.33-.28.36-.2.39-.12.42-.04zM453.15 49.27v-.94l-.22.14-.23.13-.22.12-.23.1-.22.08-.23.07-.23.05-.23.04-.24.02-.23.01-.54-.04-.5-.12-.45-.19-.4-.26-.34-.33-.29-.39-.23-.46-.17-.52-.11-.58-.03-.64.03-.65.1-.6.15-.54.2-.48.26-.41.3-.34.35-.27.39-.2.41-.12.45-.04h.1l.09.01.09.01.08.02.09.02.09.03.08.03.08.04.09.04.08.05v1.47l.08.05.08.05.08.04.08.04.08.03.08.02.09.02.08.01.08.01h.08l.18-.01.16-.03.15-.05.13-.08.11-.09.1-.11.07-.12.06-.14.04-.15.01-.17-.03-.3-.09-.29-.14-.25-.2-.23-.25-.2-.3-.17-.35-.14-.4-.1-.45-.06-.49-.02-.73.05-.68.16-.63.25-.55.35-.49.43-.41.51-.33.59-.25.66-.15.72-.05.78.05.77.14.71.22.65.31.59.39.51.46.43.53.34.59.25.65.16.71.05.29-.01.29-.03.3-.04.29-.07.29-.08.29-.09.3-.12.29-.13.3-.15.29-.16zM453.98 50.02h3.94v-.64l-.84-.09-.33-.29v-3.06h1.05l2.43 3.49v.59h2.81v-.68l-1.16-.09-3.16-4.46 2.46-2.61 1.15-.15v-.66h-3.42v.66l.81.07.13.26-2.75 3.07h-.35v-8.65h-.68l-2.2.64v.56h1.39V49l-.31.29-.97.09v.64zM33.76 22.96h5.44v-.89l-1.53-.11-.37-.3V17.4l.2.02.19.02.18.02.18.01.16.01.16.01.15.01.14.01h.26l1.01-.05.91-.16.83-.27.73-.36.63-.44.52-.53.42-.61.3-.68.19-.74.06-.8-.06-.92-.17-.8-.28-.68-.41-.57-.53-.47-.65-.36-.78-.28-.91-.18-1.04-.11-1.18-.04h-4.92v.87l1.4.13.37.3v11.9l-.37.3-1.23.11v.89zm3.54-6.59V9.5l.12-.01.12-.01.11-.01h.12l.11-.01H38.43l.78.03.7.09.62.17.53.23.45.29.36.37.28.44.2.51.12.58.04.66-.04.68-.12.61-.19.54-.27.48-.35.4-.42.34-.49.26-.56.18-.64.12-.7.04-.1-.01h-.11l-.12-.01h-.13l-.14-.01-.15-.02-.15-.01-.17-.02-.17-.01-.19-.02zM45.81 8.46v.87l1.24.13.36.3v11.9l-.36.3-1.24.11v.89h5.15v-.89l-1.24-.11-.36-.3v-5.14l.11-.01h.12l.11-.01.11-.01h.22l.1-.01H50.44l.55.01.5.06.44.1.38.14.34.19.3.24.26.3.23.37.2.42.19.5.12.41.12.42.1.4.11.4.12.39.13.38.16.36.2.33.23.32.28.28.16.12.17.11.18.1.2.08.21.07.22.05.24.05.25.03.27.01.29.01h.15l.15-.01.16-.01.16-.01.16-.02.17-.02.18-.03.17-.03.19-.03.19-.04v-.82H58.61l-.41-.03-.36-.06-.32-.08-.28-.12-.25-.15-.22-.2-.18-.24-.17-.3-.15-.35-.11-.31-.09-.32-.08-.32-.07-.33-.08-.33-.08-.32-.09-.33-.12-.32-.13-.31-.17-.31-.13-.2-.16-.19-.18-.18-.19-.16-.21-.15-.24-.14-.25-.12-.26-.11-.29-.1-.31-.09.66-.18.6-.22.52-.26.46-.3.38-.33.32-.38.24-.42.18-.46.1-.5.04-.54-.05-.75-.16-.67-.25-.59-.37-.51-.46-.42-.57-.34-.68-.27-.78-.19-.89-.11-1-.04h-5.51zm3.55 1h1.03l.77.02.68.08.59.13.52.2.44.26.35.32.28.4.19.47.12.55.04.63-.04.61-.11.52-.19.46-.26.39-.34.32-.42.25-.5.19-.57.14-.66.08-.74.02h-.66l-.15-.01h-.18l-.19-.01V9.46zM66.96 8.1l-.55.01-.53.06-.52.1-.51.13-.49.18-.47.21-.45.24-.44.29-.41.32-.4.36-.42.43-.37.47-.33.5-.28.53-.25.56-.2.59-.15.61-.12.65-.06.66-.03.7.03.69.06.67.12.65.15.62.21.59.24.56.29.54.33.51.38.47.42.44.39.35.41.31.43.28.45.24.48.21.49.17.5.13.52.09.54.06.54.02.74-.04.72-.11.69-.17.65-.25.62-.31.59-.38.54-.43.49-.49.45-.55.39-.59.21-.39.18-.39.17-.4.14-.41.12-.42.1-.44.08-.44.05-.45.04-.47.01-.47-.03-.7-.06-.66-.12-.65-.16-.61-.2-.59-.25-.56-.29-.53-.33-.5-.37-.47-.42-.43-.39-.36-.42-.32-.43-.29-.45-.24-.47-.21-.49-.18-.5-.13-.52-.1-.53-.06-.55-.01zm0 1.16l.81.07.75.22.69.34.61.48.54.6.45.73.37.84.27.95.16 1.05.06 1.16-.06 1.16-.16 1.05-.27.96-.37.84-.45.72-.54.61-.61.48-.69.35-.75.21-.81.08-.81-.08-.76-.21-.69-.35-.62-.48-.54-.61-.45-.72-.37-.84-.27-.96-.16-1.05-.06-1.16.06-1.17.16-1.06.27-.95.37-.84.45-.72.54-.6.62-.48.69-.34.76-.21.81-.07zM75.56 22.96H81v-.89l-1.53-.11-.37-.3v-5.53h3.54l.3.32.22 1.58h1.02v-4.77h-1.02l-.22 1.57-.3.31H79.1V9.46h4.86l.28.32.32 2.05h1.19V8.46H75.38v.87l1.41.13.37.3v11.9l-.37.3-1.23.11v.89zM89.88 12.57l-.22.01-.21.05-.2.08-.18.11-.16.14-.13.15-.11.18-.08.2-.05.21-.02.23.02.22.05.21.08.2.11.18.13.16.16.14.18.11.2.09.21.05.22.02.22-.02.21-.05.2-.09.18-.11.16-.14.14-.16.12-.18.08-.2.05-.21.02-.22-.02-.23-.05-.21-.08-.2-.12-.18-.14-.15-.16-.14-.18-.11-.2-.08-.21-.05-.22-.01zm0 7.84l-.22.01-.21.06-.2.08-.18.11-.16.14-.13.16-.11.18-.08.2-.05.21-.02.23.02.23.05.21.08.2.11.17.13.16.16.14.18.1.2.08.21.05.22.02.22-.02.21-.05.2-.08.18-.11.16-.14.14-.15.12-.18.08-.2.05-.21.02-.22-.02-.23-.05-.21-.08-.2-.12-.18-.14-.16-.16-.14-.18-.11-.2-.08-.21-.06-.22-.01zM100.05 8.46v.87l1.23.13.37.3v11.9l-.37.3-1.23.11v.89h5.14v-.89l-1.23-.11-.37-.3v-5.14l.12-.01h.12l.11-.01.11-.01h.22l.1-.01H104.67l.56.01.5.06.43.1.39.14.34.19.3.24.26.3.23.37.2.42.19.5.12.41.11.42.11.4.11.4.12.39.13.38.16.36.19.33.24.32.28.28.16.12.17.11.18.1.2.08.21.07.22.05.24.05.25.03.27.01.28.01h.15l.16-.01.15-.01.17-.01.16-.02.17-.02.17-.03.18-.03.19-.03.19-.04v-.82h-.66l-.41-.03-.37-.06-.32-.08-.28-.12-.24-.15-.22-.2-.19-.24-.16-.3-.15-.35-.11-.31-.09-.32-.08-.32-.07-.33-.08-.33-.08-.32-.1-.33-.11-.32-.13-.31-.17-.31-.14-.2-.15-.19-.18-.18-.19-.16-.22-.15-.23-.14-.25-.12-.27-.11-.29-.1-.3-.09.66-.18.6-.22.52-.26.46-.3.38-.33.32-.38.24-.42.18-.46.1-.5.04-.54-.06-.75-.15-.67-.26-.59-.36-.51-.46-.42-.58-.34-.67-.27-.78-.19-.89-.11-1-.04h-5.51zm3.54 1h1.04l.76.02.68.08.6.13.52.2.43.26.36.32.27.4.2.47.12.55.04.63-.04.61-.11.52-.19.46-.26.39-.34.32-.42.25-.5.19-.57.14-.66.08-.74.02h-.66l-.16-.01h-.17l-.2-.01V9.46zM122.97 20.67l-.37.23-.35.21-.35.19-.34.16-.34.14-.34.11-.33.09-.32.07-.33.04-.32.01-.63-.05-.59-.14-.53-.24-.47-.33-.41-.41-.35-.49-.28-.58-.2-.65-.13-.72-.04-.8v-.23h7v-.08l.01-.06v-.07l.01-.07v-.39l-.05-.77-.13-.7-.22-.63-.29-.55-.37-.48-.44-.4-.51-.31-.57-.23-.63-.14-.68-.05-.84.07-.79.19-.72.31-.66.42-.57.53-.49.63-.39.71-.29.8-.18.88-.06.95.06.92.17.85.27.77.38.7.46.6.55.51.63.41.7.3.77.19.83.06.41-.01.41-.04.41-.07.41-.09.41-.11.41-.15.41-.16.4-.2.4-.22.39-.25v-1.18zm-1.92-4.3h-4.99l.07-.53.13-.49.19-.45.23-.4.28-.34.32-.29.34-.24.38-.17.39-.1.41-.04.42.03.37.09.33.13.3.2.25.25.2.3.17.35.11.4.07.45.03.5v.35zM125.8 13.86v6.98l.01.43.05.39.09.33.12.28.18.24.23.18.29.15.35.1.43.06.5.02h.25l.27-.02.27-.02.27-.03.29-.05.28-.05.3-.06.29-.07.3-.08.31-.09v-.8l-.15.03-.15.03-.15.02-.15.02-.15.02-.15.02-.15.01-.15.01-.15.01h-.15l-.41-.02-.35-.07-.29-.11-.23-.16-.18-.2-.13-.26-.1-.3-.06-.36-.03-.41-.01-.47v-5.7h3.29v-1.01h-3.29v-2.29h-.8l-.93 2.01-1.42.62v.67h1.36zM134.18 12.35l-2.51.8v.67h1.54v6.05l.03.61.09.56.15.49.21.43.27.37.32.3.38.24.43.17.48.1.53.03.32-.01.33-.05.33-.07.34-.1.34-.13.35-.16.36-.19.37-.21.38-.24.38-.26v1.21h3.2v-.78l-1.02-.11-.39-.35v-9.37h-.82l-2.5.8v.67h1.53v7.32l-.26.12-.26.11-.26.1-.25.09-.25.07-.25.06-.25.04-.24.03-.24.02-.24.01-.41-.02-.37-.07-.31-.11-.28-.16-.22-.2-.19-.25-.14-.3-.1-.34-.06-.4-.02-.44v-7.15h-.82zM144.05 22.96h5.21v-.78l-1.52-.11-.36-.35v-6.17l.26-.3.25-.26.25-.24.24-.21.24-.17.23-.14.23-.11.22-.09.22-.04.21-.02.14.01.12.01.13.03.11.03.12.05.11.06.1.06.09.08.1.09.08.1h.69v-1.86l-.13-.05-.13-.05-.13-.05-.13-.03-.13-.03-.13-.03-.13-.02-.12-.01-.13-.01h-.35l-.05.01h-.06l-.05.01h-.06l-.05.01-.05.01-.23.19-.24.2-.23.2-.23.2-.23.2-.24.22-.23.21-.23.22-.22.23-.23.23v-2.03h-.82l-2.51.78v.67h1.53v7.81l-.38.35-1.15.11v.78zM152.3 22.96h4.73v-.78l-1.03-.11-.37-.35v-7.23l.27-.14.27-.12.26-.1.25-.1.25-.08.24-.06.23-.05.22-.04.22-.02h.21l.45.02.39.06.33.1.29.15.23.19.18.24.14.28.1.34.05.4.02.44v5.72l-.37.35-1.03.11v.78h4.73v-.78l-1.17-.11-.37-.35v-6.09l-.03-.61-.09-.56-.15-.49-.21-.43-.27-.36-.33-.3-.37-.23-.44-.17-.49-.1-.53-.03-.29.02-.29.04-.31.07-.32.1-.34.12-.35.14-.37.17-.38.19-.41.22-.42.23v-1.19h-.82l-2.51.78v.67h1.54v7.81l-.37.35-1.17.11v.78zM170.64 22.96h5.44v-.89l-1.53-.11-.37-.3v-5.53h3.55l.3.32.21 1.58h1.02v-4.77h-1.02l-.21 1.57-.3.31h-3.55V9.46h4.86l.28.32.33 2.05h1.19V8.46h-10.37v.87l1.4.13.37.3v11.9l-.37.3-1.23.11v.89zM187.34 12.35l-.85.06-.79.19-.73.31-.66.41-.57.52-.49.62-.39.7-.29.79-.18.87-.06.93.06.93.18.86.29.79.4.7.49.62.57.52.66.42.73.31.78.19.85.06.84-.06.79-.19.73-.31.66-.42.58-.52.49-.62.4-.7.29-.79.19-.86.06-.93-.06-.93-.18-.86-.3-.79-.39-.7-.49-.62-.58-.52-.66-.42-.73-.3-.79-.19-.85-.07zm0 .93l.51.05.47.15.44.24.39.33.35.42.29.5.23.59.18.66.1.73.04.8-.04.81-.1.73-.18.66-.23.59-.29.5-.35.42-.39.33-.44.24-.47.14-.51.05-.51-.05-.47-.15-.43-.24-.39-.33-.34-.42-.29-.5-.24-.58-.17-.66-.11-.74-.03-.8.03-.81.11-.73.17-.66.23-.59.29-.5.34-.42.39-.33.44-.24.47-.14.51-.05zM193.82 22.96h5.2v-.78l-1.51-.11-.37-.35v-6.17l.27-.3.25-.26.25-.24.24-.21.24-.17.23-.14.22-.11.22-.09.22-.04.22-.02.13.01.13.01.12.03.12.03.11.05.11.06.1.06.1.08.09.09.09.1h.69v-1.86l-.13-.05-.14-.05-.13-.05-.13-.03-.12-.03-.13-.03-.13-.02-.13-.01-.13-.01H199.78l-.05.01h-.06l-.05.01h-.06l-.05.01-.05.01-.24.19-.23.2-.23.2-.24.2-.23.2-.23.22-.23.21-.23.22-.23.23-.23.23v-2.03h-.82l-2.5.78v.67h1.53v7.81l-.39.35-1.14.11v.78zM211.1 20.67l-.37.23-.35.21-.35.19-.35.16-.33.14-.34.11-.33.09-.32.07-.33.04-.32.01-.64-.05-.58-.14-.53-.24-.47-.33-.42-.41-.34-.49-.28-.58-.2-.65-.13-.72-.04-.8v-.23h7v-.08l.01-.06V17l.01-.07v-.32l-.05-.77-.13-.7-.22-.63-.29-.55-.37-.48-.44-.4-.51-.31-.57-.23-.63-.14-.68-.05-.84.07-.79.19-.72.31-.66.42-.57.53-.49.63-.39.71-.29.8-.18.88-.06.95.06.92.17.85.27.77.37.7.47.6.55.51.63.41.7.3.77.19.83.06.41-.01.41-.04.41-.07.41-.09.41-.11.41-.15.41-.16.4-.2.4-.22.39-.25v-1.18zm-1.92-4.3h-4.99l.07-.53.13-.49.18-.45.24-.4.28-.34.31-.29.35-.24.38-.17.39-.1.41-.04.41.03.38.09.33.13.29.2.25.25.21.3.16.35.12.4.07.45.03.5v.35zM221.21 22.05v-1.12l-.28.17-.27.15-.27.14-.27.12-.27.1-.27.08-.28.06-.27.05-.28.02-.29.01-.65-.04-.59-.14-.54-.23-.48-.31-.42-.4-.34-.47-.28-.55-.2-.63-.13-.7-.04-.76.04-.78.11-.72.19-.65.24-.57.31-.49.37-.42.41-.32.46-.24.51-.15.54-.05.11.01.1.01.11.01.11.02.1.03.1.04.11.04.1.04.1.05.09.06v1.77l.1.06.1.05.09.05.1.05.1.03.1.03.09.02.1.02.1.01h.1l.21-.01.19-.04.18-.06.16-.09.14-.11.11-.13.09-.15.07-.17.04-.18.01-.2-.03-.37-.1-.33-.17-.31-.24-.28-.3-.24-.36-.21-.42-.16-.48-.12-.54-.07-.6-.03-.87.06-.82.19-.74.31-.67.41-.59.52-.49.62-.4.7-.29.79-.18.87-.06.93.05.93.17.86.27.78.37.7.46.61.56.51.63.41.71.31.79.18.85.07.35-.01.35-.04.35-.05.35-.08.35-.09.35-.12.35-.14.36-.16.35-.17.36-.2zM228.87 21.7l.29 1.26h3.04v-.78l-1.14-.11-.39-.35v-6.26l-.03-.62-.09-.54-.15-.47-.21-.41-.28-.33-.35-.27-.42-.21-.49-.15-.56-.08-.64-.03-.78.03-.72.1-.64.15-.57.2-.49.25-.41.28-.33.32-.23.35-.15.37-.04.39v.15l.02.12.03.1.04.09.05.07.07.05.09.04.1.03.13.02h1.63v-1.81l.17-.07.17-.06.17-.05.16-.05.16-.04.16-.03.16-.02.17-.02.16-.01h.16l.43.02.37.07.31.11.26.16.2.21.16.26.12.31.08.37.04.43.01.48v.69l-1.22.3-1.09.29-.95.29-.82.31-.69.32-.56.37-.43.41-.3.47-.18.54-.06.63.03.47.09.44.15.4.21.37.26.31.31.27.36.22.41.16.45.09.49.04.32-.02.32-.04.33-.07.34-.1.34-.13.36-.15.37-.18.37-.21.39-.24.4-.27zm0-.73l-.31.18-.31.16-.3.15-.28.12-.27.11-.26.09-.26.07-.24.05-.22.03-.22.01-.31-.02-.29-.06-.25-.1-.23-.14-.19-.17-.16-.2-.13-.23-.1-.26-.05-.28-.02-.31.04-.44.12-.4.21-.35.3-.31.39-.28.48-.26.57-.24.67-.24.76-.24.86-.24v3.8zM240.04 12.83l-.22-.1-.23-.08-.24-.07-.24-.06-.25-.05-.26-.05-.26-.03-.27-.02-.27-.02h-.29l-.7.03-.64.1-.57.16-.5.23-.42.28-.35.34-.28.39-.2.45-.12.5-.04.54.03.42.08.37.15.34.19.3.26.29.3.26.37.26.41.24.47.24.53.24.41.19.36.18.33.17.29.18.24.19.21.19.15.22.12.25.07.28.02.31-.02.3-.07.28-.11.25-.15.23-.19.2-.23.17-.27.14-.3.1-.33.06-.36.02h-.19l-.18-.02-.19-.02-.18-.04-.19-.05-.18-.05-.18-.07-.18-.08-.18-.09-.19-.1-.25-1.83h-1.04v2.81l.23.08.25.07.25.07.27.06.27.05.29.04.3.04.3.02.32.02h.33l.73-.04.67-.1.59-.18.53-.24.45-.31.38-.36.29-.42.22-.48.13-.53.05-.58-.01-.23-.03-.23-.04-.22-.06-.2-.08-.19-.09-.19-.11-.17-.12-.15-.14-.15-.15-.13-.21-.16-.22-.16-.23-.14-.23-.12-.23-.12-.24-.12-.23-.11-.23-.1-.24-.11-.22-.11-.35-.17-.31-.17-.27-.17-.24-.17-.21-.17-.16-.19-.13-.2-.1-.22-.05-.24-.02-.27.02-.28.06-.25.09-.23.13-.2.17-.18.2-.14.23-.12.27-.08.29-.05.33-.02h.16l.15.02.16.02.16.03.16.04.15.05.17.06.16.07.16.08.17.08.17 1.54h1.06v-2.44zM243.15 13.86v6.98l.02.43.04.39.09.33.13.28.17.24.23.18.29.15.36.1.42.06.5.02h.26l.26-.02.27-.02.28-.03.28-.05.29-.05.29-.06.29-.07.3-.08.31-.09v-.8l-.15.03-.15.03-.15.02-.15.02-.15.02-.15.02-.15.01-.14.01-.15.01h-.15l-.42-.02-.35-.07-.29-.11-.23-.16-.18-.2-.13-.26-.09-.3-.06-.36-.04-.41-.01-.47v-5.7h3.29v-1.01h-3.29v-2.29h-.79l-.93 2.01-1.43.62v.67h1.36z" fill-rule="evenodd"/></svg>