<svg xmlns="http://www.w3.org/2000/svg" height="384" width="528"><path d="M0 384h528V0H0z" fill="#fff"/><path d="M0 384V.012h527.984V384H0" fill="#fff"/><path d="M.38 383.62V.392h527.224V383.62z" fill="none" stroke="#fff" stroke-width=".7679808" stroke-miterlimit="10"/><path d="M54.483 273.73h472.345M54.483 237.15h472.345M54.483 200.57h472.345M54.483 163.99h472.345M54.483 142.588h472.345M54.483 127.408h472.345M54.483 115.628h472.345M54.483 106.008h472.345M54.483 97.873h472.345M54.483 90.828h472.345M54.483 84.607h472.345M54.483 79.047h472.345M54.483 74.015h472.345M54.483 69.428h472.345M54.483 65.204h472.345M54.483 61.293h472.345M54.483 57.647h472.345M54.483 54.248h472.345M54.483 51.047h472.345M54.483 48.027h472.345M54.483 45.172h472.345" fill="none" stroke="#d0d0d0" stroke-width=".7679808" stroke-miterlimit="10"/><path d="M62.915 266.14l23.974-.132M86.89 266.008l23.974-3.052M110.864 262.956l23.957-3.366M134.821 259.59l23.975-9.322M158.796 250.268l23.975-6.337M182.77 243.93l23.975-4.403M206.745 239.527l23.974-4.439M230.719 235.088l23.974-4.539M254.693 230.55l23.959-5.543M278.652 225.007l23.975 17.67M302.627 242.677l23.974-30.904M326.601 211.773l23.975 5.56M350.576 217.333l23.975 7.31M374.55 224.643l23.974 8.464M398.524 233.107l23.959 11.517M422.483 244.624l23.974 12.64M446.457 257.264l23.974-25.856M470.43 231.408l23.977 36.234M494.407 267.642l23.974-.132M62.915 239.493l23.974 16.187M86.89 255.68l23.974-2.393M110.864 253.287l23.957-3.828M134.821 249.459l23.975-.495M158.796 248.964l23.975-1.32M182.77 247.644l23.975-4.835M206.745 242.81l23.974-.777M230.719 242.033l23.974-4.405M254.693 237.628l23.959-9.504M278.652 228.124l23.975-1.27M302.627 226.855l23.974-1.09M326.601 225.765l23.975.594M350.576 226.359l23.975 12.226M374.55 238.585l23.974 10.082M398.524 248.667l23.959 4.405M422.483 253.072l23.974 1.568M446.457 254.64l23.974 3.135M470.43 257.775l23.977 2.706M494.407 260.481l23.974-9.52M62.915 264.128l119.856-2.574M182.77 261.554l23.975-.842M206.745 260.712l23.974 1.683M230.719 262.395l23.974 1.733M254.693 264.128l47.934-1.733M302.627 262.395l23.974-2.293M326.601 260.102l47.95-.215M374.55 259.887l23.974 2.31M398.524 262.197l23.959 2.31M422.483 264.507l23.974-2.953M446.457 261.554l23.974 3.365M470.43 264.92l23.977.99M494.407 265.91h23.974M62.915 254.475l23.974.462M86.89 254.937l23.974-1.072M110.864 253.865l23.957-2.838M134.821 251.027l23.975.032M158.796 251.06l23.975-2.063M182.77 248.997l23.975-2.029M206.745 246.968l23.974 1.188M230.719 248.156l23.974-1.519M254.693 246.637l23.959.678M278.652 247.315l23.975-1.47M302.627 245.845l23.974-.132M326.601 245.713l23.975.132M350.576 245.845l23.975-.313M374.55 245.532l23.974-.61M398.524 244.921l23.959-.329M422.483 244.592l23.974.94M446.457 245.532l23.974 2.047M470.43 247.579l23.977 14.75M494.407 262.33l23.974 5.411M62.915 240.301l23.974-.065M86.89 240.236l23.974-18.86M110.864 221.376l23.957-1.98M134.821 219.396l23.975-1.336M158.796 218.06l23.975 1.6M182.77 219.66l23.975 4.819M206.745 224.479l23.974 5.278M230.719 229.757l23.974 2.855M254.693 232.612l23.959 6.6M278.652 239.212l23.975 5.495M302.627 244.707l23.974 5.561M326.601 250.268l23.975 2.788M350.576 253.056l23.975 4.092M374.55 257.148l23.974 1.947M398.524 259.095l23.959 3.3M422.483 262.395l23.974 3.729M446.457 266.124l23.974-2.095M470.43 264.029l23.977 1.402M494.407 265.431l23.974.115M62.915 266.619l23.974-1.254M86.89 265.365l23.974-.083M110.864 265.282l23.957-.973M134.821 264.309h23.975M158.796 264.309l23.975.429M182.77 264.738l23.975-.116M206.745 264.622l23.974-.165M230.719 264.457l23.974.545M254.693 265.002l23.959.528M278.652 265.53l23.975-.28M302.627 265.25l23.974-.512M326.601 264.738l23.975.066M350.576 264.804l23.975.198M374.55 265.002l23.974.149M398.524 265.15l23.959 1.172M422.483 266.322l23.974 1.089M446.457 267.41l23.974.183M470.43 267.593l23.977.148M494.407 267.741l23.974.016M62.915 266.949l23.974-.974M86.89 265.975l23.974-.247M110.864 265.728l23.957-1.023M134.821 264.705l23.975-.693M158.796 264.012l23.975-.05M182.77 263.963l23.975-1.32M206.745 262.643l23.974.907M230.719 263.55l23.974-.99M254.693 262.56l23.959-.1M278.652 262.46l23.975.48M302.627 262.94l23.974-.133M326.601 262.807l23.975-.099M350.576 262.708l23.975.116M374.55 262.824l23.974-.017M398.524 262.807l23.959-.099M422.483 262.708l23.974-.016M446.457 262.692l23.974.033M470.43 262.725l23.977 2.08M494.407 264.804l23.974 1.287M62.915 263.98l23.974.015M86.89 263.995l23.974-1.732M110.864 262.263l23.957-1.42M134.821 260.844l23.975-1.469M158.796 259.375l23.975-.412M182.77 258.963l23.975-1.155M206.745 257.808l23.974-.33M230.719 257.478l23.974-.198M254.693 257.28l23.959-1.634M278.652 255.646l23.975-.56M302.627 255.085l23.974-2.029M326.601 253.056l23.975-2.557M350.576 250.499l23.975-.611M374.55 249.888l23.974-1.93M398.524 247.957l23.959-.94M422.483 247.017l23.974-.776M446.457 246.241l47.95-2.805M494.407 243.436l23.974 11.583M62.915 260.349l23.974 9.702M86.89 270.051l23.974-2.062M110.864 267.989l23.957-.924M134.821 267.065l23.975 1.171M158.796 268.236l23.975-.462M182.77 267.774l23.975.198M206.745 267.972l23.974-.512M230.719 267.46l23.974-1.402M254.693 266.058l23.959 1.27M278.652 267.329l23.975.198M302.627 267.527l23.974.131M326.601 267.658l23.975.116M350.576 267.774l23.975-.05M374.55 267.725l23.974 13.2M398.524 280.925l23.959-13.184M422.483 267.741l23.974-.083M446.457 267.658l23.974-1.122M470.43 266.536l23.977 1.189M494.407 267.725h23.974M62.915 266.949l23.974.33M86.89 267.28l23.974.032M110.864 267.312l23.957-.132M134.821 267.18l23.975-.28M158.796 266.9l23.975-.793M182.77 266.107l23.975-1.105M206.745 265.002h23.974M230.719 265.002l23.974-.874M254.693 264.128h47.934M302.627 264.128l23.974 1.336M326.601 265.464l23.975.907M350.576 266.371l47.948.462M398.524 266.833l23.959.71M422.483 267.543l47.948.182M470.43 267.725l23.977-1.403M494.407 266.322l23.974-.99" fill="none" stroke="#a0a0a0" stroke-width="1.1519712000000002" stroke-linecap="round" stroke-miterlimit="10"/><path d="M62.915 267.757h7.672M74.431 267.757h7.673M85.948 267.757h.941M86.89 267.757h6.73M97.466 267.757h7.672M108.982 267.757h1.882M110.864 267.757h5.807M120.5 267.757h7.689M132.017 267.757h2.804M134.821 267.757h4.884M143.55 267.757h7.673M155.067 267.757h3.729M158.796 267.757h3.944M166.584 267.757h7.672M178.101 267.757h4.67M182.77 267.757h3.003M189.619 267.757h7.672M201.135 267.757h5.61M206.745 267.757h2.062M212.652 267.757h7.672M224.17 267.757h6.549M230.719 267.757h1.122M235.685 267.757h7.69M247.203 267.757h7.49M254.693 267.757h.199M258.72 267.757h7.69M270.253 267.757h7.674M281.77 267.757h7.673M293.288 267.757h7.672M304.805 267.757h7.672M316.321 267.757h7.674M327.839 267.757h7.672M339.356 267.757h7.672M350.872 267.757h7.673M362.39 267.757h7.689M373.907 267.757h.644M374.55 267.757h7.045M385.44 267.757h7.672M396.957 267.757h1.567M398.524 267.757h6.105M408.473 267.757h7.674M419.99 267.757h2.493M422.483 267.757h5.181M431.508 267.757h7.673M443.025 267.757h3.432M446.457 267.757h4.24M454.543 267.757h7.672M466.059 267.757h4.372M470.43 267.757h3.3M477.576 267.757h7.672M489.093 267.757h5.314M494.407 267.757h2.374M500.61 267.757h7.689M512.144 267.757h6.237" fill="none" stroke="#000" stroke-width="1.7279568" stroke-miterlimit="10"/><path d="M62.915 257.89l23.974 2.393M86.89 260.283l23.974-4.637M110.864 255.646l23.957-1.947M134.821 253.7l23.975-1.469M158.796 252.231h23.975M182.77 252.231l23.975-.809M206.745 251.422l23.974.43M230.719 251.852l23.974-1.023M254.693 250.829l23.959-4.357M278.652 246.472l23.975 5.676M302.627 252.148l23.974-4.719M326.601 247.43l23.975.131M350.576 247.561l23.975 3.02M374.55 250.581l23.974 5M398.524 255.58l23.959 1.65M422.483 257.23l23.974.925M446.457 258.155l23.974-.611M470.43 257.544l23.977 5.131M494.407 262.675l23.974.974M62.915 264.556l23.974 1.452M86.89 266.008l23.974-3.613M110.864 262.395l23.957-1.303M134.821 261.092l23.975-1.717M158.796 259.375l23.975.858M182.77 260.233l23.975-1.023M206.745 259.21l23.974.66M230.719 259.87l23.974-.033M254.693 259.837l23.959-8.959M278.652 250.878l23.975 7.722M302.627 258.6l23.974-2.145M326.601 256.455l23.975-3.399M350.576 253.056l23.975 4.125M374.55 257.181l23.974 3.316M398.524 260.497l23.959 2.063M422.483 262.56l23.974-1.006M446.457 261.554l23.974 2.673M470.43 264.227l23.977 1.336M494.407 265.563l23.974.38" fill="none" stroke="#860d86" stroke-width="1.7279568" stroke-linecap="round" stroke-miterlimit="10"/><path d="M65.884 264.556a2.97 2.97 0 10-5.94 0 2.97 2.97 0 005.94 0" fill="#fff"/><path d="M65.307 264.556a2.393 2.393 0 10-4.786.001 2.393 2.393 0 004.786 0z" fill="none" stroke="#000" stroke-width="1.1519712000000002" stroke-miterlimit="10"/><path d="M89.859 266.008a2.97 2.97 0 10-5.94 0 2.97 2.97 0 005.94 0" fill="#fff"/><path d="M89.281 266.008a2.393 2.393 0 10-4.785.001 2.393 2.393 0 004.785 0z" fill="none" stroke="#000" stroke-width="1.1519712000000002" stroke-miterlimit="10"/><path d="M113.833 262.395a2.97 2.97 0 10-5.94 0 2.97 2.97 0 005.94 0" fill="#fff"/><path d="M113.256 262.395a2.393 2.393 0 10-4.786.002 2.393 2.393 0 004.786-.002z" fill="none" stroke="#000" stroke-width="1.1519712000000002" stroke-miterlimit="10"/><path d="M137.792 261.092a2.971 2.971 0 10-5.942.001 2.971 2.971 0 005.942-.001" fill="#fff"/><path d="M137.215 261.092a2.394 2.394 0 00-4.786 0 2.392 2.392 0 104.786 0z" fill="none" stroke="#000" stroke-width="1.1519712000000002" stroke-miterlimit="10"/><path d="M161.767 259.375a2.97 2.97 0 10-5.942.002 2.97 2.97 0 005.942-.002" fill="#fff"/><path d="M161.188 259.375a2.393 2.393 0 10-4.785 0 2.393 2.393 0 004.785 0z" fill="none" stroke="#000" stroke-width="1.1519712000000002" stroke-miterlimit="10"/><path d="M185.74 260.233a2.97 2.97 0 10-5.939 0 2.97 2.97 0 005.939 0" fill="#fff"/><path d="M185.163 260.233a2.393 2.393 0 10-4.786.002 2.393 2.393 0 004.786-.002z" fill="none" stroke="#000" stroke-width="1.1519712000000002" stroke-miterlimit="10"/><path d="M209.715 259.21a2.97 2.97 0 10-5.94 0 2.97 2.97 0 005.94 0" fill="#fff"/><path d="M209.137 259.21a2.393 2.393 0 10-4.786.002 2.393 2.393 0 004.786-.002z" fill="none" stroke="#000" stroke-width="1.1519712000000002" stroke-miterlimit="10"/><path d="M233.69 259.87a2.97 2.97 0 10-5.94 0 2.97 2.97 0 005.94 0" fill="#fff"/><path d="M233.112 259.87a2.393 2.393 0 10-4.787.003 2.393 2.393 0 004.787-.003z" fill="none" stroke="#000" stroke-width="1.1519712000000002" stroke-miterlimit="10"/><path d="M257.664 259.837a2.97 2.97 0 10-5.941.002 2.97 2.97 0 005.941-.002" fill="#fff"/><path d="M257.087 259.837a2.394 2.394 0 00-4.786 0 2.394 2.394 0 004.786 0z" fill="none" stroke="#000" stroke-width="1.1519712000000002" stroke-miterlimit="10"/><path d="M281.621 250.878a2.97 2.97 0 10-5.94 0 2.97 2.97 0 005.94 0" fill="#fff"/><path d="M281.044 250.878a2.393 2.393 0 10-4.785 0 2.393 2.393 0 004.785 0z" fill="none" stroke="#000" stroke-width="1.1519712000000002" stroke-miterlimit="10"/><path d="M305.596 258.6a2.97 2.97 0 10-5.939 0 2.97 2.97 0 005.939 0" fill="#fff"/><path d="M305.019 258.6a2.393 2.393 0 10-4.785 0 2.393 2.393 0 004.785 0z" fill="none" stroke="#000" stroke-width="1.1519712000000002" stroke-miterlimit="10"/><path d="M329.57 256.455a2.97 2.97 0 10-5.94 0 2.97 2.97 0 005.94 0" fill="#fff"/><path d="M328.993 256.455a2.393 2.393 0 10-4.787.002 2.393 2.393 0 004.787-.002z" fill="none" stroke="#000" stroke-width="1.1519712000000002" stroke-miterlimit="10"/><path d="M353.545 253.056a2.97 2.97 0 10-5.94 0 2.97 2.97 0 005.94 0" fill="#fff"/><path d="M352.968 253.056a2.393 2.393 0 10-4.786.002 2.393 2.393 0 004.786-.002z" fill="none" stroke="#000" stroke-width="1.1519712000000002" stroke-miterlimit="10"/><path d="M377.52 257.181a2.97 2.97 0 10-5.94 0 2.97 2.97 0 005.94 0" fill="#fff"/><path d="M376.943 257.181a2.393 2.393 0 10-4.787.002 2.393 2.393 0 004.787-.002z" fill="none" stroke="#000" stroke-width="1.1519712000000002" stroke-miterlimit="10"/><path d="M401.495 260.497a2.97 2.97 0 10-5.942.002 2.97 2.97 0 005.942-.002" fill="#fff"/><path d="M400.917 260.497a2.393 2.393 0 10-4.786.003 2.393 2.393 0 004.786-.003z" fill="none" stroke="#000" stroke-width="1.1519712000000002" stroke-miterlimit="10"/><path d="M425.452 262.56a2.97 2.97 0 10-5.939 0 2.97 2.97 0 005.939 0" fill="#fff"/><path d="M424.875 262.56a2.393 2.393 0 10-4.786.002 2.393 2.393 0 004.786-.002z" fill="none" stroke="#000" stroke-width="1.1519712000000002" stroke-miterlimit="10"/><path d="M449.427 261.554a2.97 2.97 0 10-5.94 0 2.97 2.97 0 005.94 0" fill="#fff"/><path d="M448.85 261.554a2.393 2.393 0 10-4.788.001 2.393 2.393 0 004.787-.001z" fill="none" stroke="#000" stroke-width="1.1519712000000002" stroke-miterlimit="10"/><path d="M473.401 264.227a2.97 2.97 0 10-5.94 0 2.97 2.97 0 005.94 0" fill="#fff"/><path d="M472.824 264.227a2.394 2.394 0 00-4.785 0 2.393 2.393 0 004.785 0z" fill="none" stroke="#000" stroke-width="1.1519712000000002" stroke-miterlimit="10"/><path d="M497.376 265.563a2.97 2.97 0 10-5.94 0 2.97 2.97 0 005.94 0" fill="#fff"/><path d="M496.799 265.563a2.393 2.393 0 10-4.787.001 2.393 2.393 0 004.787 0z" fill="none" stroke="#000" stroke-width="1.1519712000000002" stroke-miterlimit="10"/><path d="M521.35 265.943a2.97 2.97 0 10-5.94 0 2.97 2.97 0 005.94 0" fill="#fff"/><path d="M520.773 265.943a2.393 2.393 0 10-4.787.001 2.393 2.393 0 004.787-.001z" fill="none" stroke="#000" stroke-width="1.1519712000000002" stroke-miterlimit="10"/><path d="M54.483 312.786V34.019M54.483 273.73H51.81M54.483 237.15H51.81M54.483 200.57H51.81M54.483 163.99H51.81M54.483 142.588H51.81M54.483 127.408H51.81M54.483 115.628H51.81M54.483 106.008H51.81M54.483 97.873H51.81M54.483 90.828H51.81M54.483 84.607H51.81M54.483 79.047H51.81M54.483 74.015H51.81M54.483 69.428H51.81M54.483 65.204H51.81M54.483 61.293H51.81M54.483 57.647H51.81M54.483 54.248H51.81M54.483 51.047H51.81M54.483 48.027H51.81M54.483 45.172H51.81M54.483 273.73h-5.346" fill="none" stroke="#000" stroke-width=".7679808" stroke-miterlimit="10"/><text style="-inkscape-font-specification:Helvetica" transform="matrix(1.33333 0 0 1.33333 34.629 277.46)" font-weight="400" font-size="7.994" font-family="Helvetica"><tspan y="0" x="0 4.4448032">25</tspan></text><path d="M54.483 237.15h-5.346" fill="none" stroke="#000" stroke-width=".7679808" stroke-miterlimit="10"/><text style="-inkscape-font-specification:Helvetica" transform="matrix(1.33333 0 0 1.33333 34.629 240.879)" font-weight="400" font-size="7.994" font-family="Helvetica"><tspan y="0" x="0 4.4448032">50</tspan></text><path d="M54.483 200.57h-5.346" fill="none" stroke="#000" stroke-width=".7679808" stroke-miterlimit="10"/><text style="-inkscape-font-specification:Helvetica" transform="matrix(1.33333 0 0 1.33333 28.703 204.299)" font-weight="400" font-size="7.994" font-family="Helvetica"><tspan y="0" x="0 4.4448032 8.8896065">100</tspan></text><path d="M54.483 163.99h-5.346" fill="none" stroke="#000" stroke-width=".7679808" stroke-miterlimit="10"/><text style="-inkscape-font-specification:Helvetica" transform="matrix(1.33333 0 0 1.33333 28.703 167.719)" font-weight="400" font-size="7.994" font-family="Helvetica"><tspan y="0" x="0 4.4448032 8.8896065">200</tspan></text><path d="M54.483 127.408h-5.346" fill="none" stroke="#000" stroke-width=".7679808" stroke-miterlimit="10"/><text style="-inkscape-font-specification:Helvetica" transform="matrix(1.33333 0 0 1.33333 28.703 131.137)" font-weight="400" font-size="7.994" font-family="Helvetica"><tspan y="0" x="0 4.4448032 8.8896065">400</tspan></text><path d="M54.483 106.008h-5.346" fill="none" stroke="#000" stroke-width=".7679808" stroke-miterlimit="10"/><text style="-inkscape-font-specification:Helvetica" transform="matrix(1.33333 0 0 1.33333 28.703 109.737)" font-weight="400" font-size="7.994" font-family="Helvetica"><tspan y="0" x="0 4.4448032 8.8896065">600</tspan></text><path d="M54.483 90.828h-5.346" fill="none" stroke="#000" stroke-width=".7679808" stroke-miterlimit="10"/><text style="-inkscape-font-specification:Helvetica" transform="matrix(1.33333 0 0 1.33333 28.703 94.557)" font-weight="400" font-size="7.994" font-family="Helvetica"><tspan y="0" x="0 4.4448032 8.8896065">800</tspan></text><path d="M54.483 79.047h-5.346" fill="none" stroke="#000" stroke-width=".7679808" stroke-miterlimit="10"/><text style="-inkscape-font-specification:Helvetica" transform="matrix(1.33333 0 0 1.33333 22.777 82.776)" font-weight="400" font-size="7.994" font-family="Helvetica"><tspan y="0" x="0 4.4448032 8.8896065 13.334409">1000</tspan></text><path d="M54.483 65.204h-5.346" fill="none" stroke="#000" stroke-width=".7679808" stroke-miterlimit="10"/><text style="-inkscape-font-specification:Helvetica" transform="matrix(1.33333 0 0 1.33333 22.777 68.932)" font-weight="400" font-size="7.994" font-family="Helvetica"><tspan y="0" x="0 4.4448032 8.8896065 13.334409">1300</tspan></text><path d="M54.483 54.248h-5.346" fill="none" stroke="#000" stroke-width=".7679808" stroke-miterlimit="10"/><text style="-inkscape-font-specification:Helvetica" transform="matrix(1.33333 0 0 1.33333 22.777 57.976)" font-weight="400" font-size="7.994" font-family="Helvetica"><tspan y="0" x="0 4.4448032 8.8896065 13.334409">1600</tspan></text><path d="M54.483 45.172h-5.346" fill="none" stroke="#000" stroke-width=".7679808" stroke-miterlimit="10"/><g font-weight="400" font-family="Helvetica"><text style="-inkscape-font-specification:Helvetica" transform="matrix(1.33333 0 0 1.33333 22.777 48.901)" font-size="7.994"><tspan y="0" x="0 4.4448032 8.8896065 13.334409">1900</tspan></text><text style="-inkscape-font-specification:Helvetica" transform="matrix(0 -1.33333 1.33333 0 13.15 221.173)" font-size="9.999"><tspan y="0" x="0 6.669333 9.9989996 12.218778 17.218279 22.777721 25.557444 28.887112 31.10689 36.666332 42.225777 45.005501 50.004997 55.004498 60.563942 62.783722 68.343163">Price (log scale)</tspan></text></g><path d="M54.483 312.786h472.345M86.89 312.786v5.33" fill="none" stroke="#000" stroke-width=".7679808" stroke-miterlimit="10"/><text style="-inkscape-font-specification:Helvetica" transform="matrix(1.33333 0 0 1.33333 83.926 328.246)" font-weight="400" font-size="7.994" font-family="Helvetica"><tspan y="0" x="0">2</tspan></text><path d="M134.839 312.786v5.33" fill="none" stroke="#000" stroke-width=".7679808" stroke-miterlimit="10"/><text style="-inkscape-font-specification:Helvetica" transform="matrix(1.33333 0 0 1.33333 131.875 328.246)" font-weight="400" font-size="7.994" font-family="Helvetica"><tspan y="0" x="0">4</tspan></text><path d="M182.787 312.786v5.33" fill="none" stroke="#000" stroke-width=".7679808" stroke-miterlimit="10"/><text style="-inkscape-font-specification:Helvetica" transform="matrix(1.33333 0 0 1.33333 179.824 328.246)" font-weight="400" font-size="7.994" font-family="Helvetica"><tspan y="0" x="0">6</tspan></text><path d="M230.719 312.786v5.33" fill="none" stroke="#000" stroke-width=".7679808" stroke-miterlimit="10"/><text style="-inkscape-font-specification:Helvetica" transform="matrix(1.33333 0 0 1.33333 227.756 328.246)" font-weight="400" font-size="7.994" font-family="Helvetica"><tspan y="0" x="0">8</tspan></text><path d="M278.67 312.786v5.33" fill="none" stroke="#000" stroke-width=".7679808" stroke-miterlimit="10"/><text style="-inkscape-font-specification:Helvetica" transform="matrix(1.33333 0 0 1.33333 272.743 328.246)" font-weight="400" font-size="7.994" font-family="Helvetica"><tspan y="0" x="0 4.4448032">10</tspan></text><path d="M326.617 312.786v5.33" fill="none" stroke="#000" stroke-width=".7679808" stroke-miterlimit="10"/><text style="-inkscape-font-specification:Helvetica" transform="matrix(1.33333 0 0 1.33333 320.692 328.246)" font-weight="400" font-size="7.994" font-family="Helvetica"><tspan y="0" x="0 4.4448032">12</tspan></text><path d="M374.55 312.786v5.33" fill="none" stroke="#000" stroke-width=".7679808" stroke-miterlimit="10"/><text style="-inkscape-font-specification:Helvetica" transform="matrix(1.33333 0 0 1.33333 368.624 328.246)" font-weight="400" font-size="7.994" font-family="Helvetica"><tspan y="0" x="0 4.4448032">14</tspan></text><path d="M422.499 312.786v5.33" fill="none" stroke="#000" stroke-width=".7679808" stroke-miterlimit="10"/><text style="-inkscape-font-specification:Helvetica" transform="matrix(1.33333 0 0 1.33333 416.573 328.246)" font-weight="400" font-size="7.994" font-family="Helvetica"><tspan y="0" x="0 4.4448032">16</tspan></text><path d="M470.448 312.786v5.33" fill="none" stroke="#000" stroke-width=".7679808" stroke-miterlimit="10"/><text style="-inkscape-font-specification:Helvetica" transform="matrix(1.33333 0 0 1.33333 464.521 328.246)" font-weight="400" font-size="7.994" font-family="Helvetica"><tspan y="0" x="0 4.4448032">18</tspan></text><path d="M518.381 312.786v5.33" fill="none" stroke="#000" stroke-width=".7679808" stroke-miterlimit="10"/><g font-weight="400" font-family="Helvetica"><text style="-inkscape-font-specification:Helvetica" transform="matrix(1.33333 0 0 1.33333 512.455 328.246)" font-size="7.994"><tspan y="0" x="0 4.4448032">20</tspan></text><text style="-inkscape-font-specification:Helvetica" transform="matrix(1.33333 0 0 1.33333 271.383 342.123)" font-size="9.999"><tspan y="0" x="0 6.669333 12.228777 15.558444 17.778221 23.337666">Period</tspan></text></g><path d="M90.981 378.242v-24.85h399.334v24.85H90.98" fill="#fff"/><path d="M91.36 377.862v-24.09h398.575v24.09z" fill="none" stroke="#000" stroke-width=".7679808" stroke-miterlimit="10"/><path d="M96.74 365.817h23.05" fill="none" stroke="#860d86" stroke-width="1.7279568" stroke-miterlimit="10"/><path d="M111.243 365.817a2.97 2.97 0 10-5.941.001 2.97 2.97 0 005.941 0" fill="#fff"/><path d="M110.666 365.817a2.393 2.393 0 00-4.785 0 2.393 2.393 0 004.785 0z" fill="none" stroke="#000" stroke-width="1.1519712000000002" stroke-miterlimit="10"/><path d="M191.17 365.817h23.049" fill="none" stroke="#860d86" stroke-width="1.7279568" stroke-miterlimit="10"/><path d="M275.105 365.817h23.034" fill="none" stroke="#a0a0a0" stroke-width="1.1519712000000002" stroke-miterlimit="10"/><path d="M435.633 365.817h7.672M447.15 365.817h7.673M458.667 365.817h0" fill="none" stroke="#000" stroke-width="1.7279568" stroke-miterlimit="10"/><g font-weight="400" font-family="Helvetica"><text style="-inkscape-font-specification:Helvetica" transform="matrix(1.33333 0 0 1.33333 127.793 370.486)" font-size="9.999"><tspan y="0" x="0 8.3291674 13.888611 19.448055 21.667833 27.227278 70.809822 79.138985 84.698433 90.257874 133.76143 136.54114 142.10059 147.66003 149.87981 154.8793 157.09909 162.65854 168.21797 173.77742 175.99719 178.77692 187.10609 192.66553 195.99519 200.99471 206.55414 209.33386 254.15788 260.26727">MedianMeanIndividual marketsFV</tspan></text><text style="-inkscape-font-specification:Helvetica" transform="matrix(1.33333 0 0 1.33333 251.459 27.617)" font-size="16.001"><tspan y="0" x="0 11.552649 22.22525">NPK</tspan></text><text style="-inkscape-font-specification:Helvetica" transform="matrix(1.33333 0 0 1.33333 295.321 16.446)" font-size="9.318"><tspan y="0" x="0 6.215353 12.943216 20.192907">PROF</tspan></text></g></svg>