<svg xmlns="http://www.w3.org/2000/svg" height="384" width="528" xml:space="preserve"><path style="fill:#fff;fill-opacity:1;fill-rule:nonzero;stroke:none" d="M0 0h3960v2880H0z" transform="matrix(.13333 0 0 -.13333 0 384)"/><path style="fill:#fff;fill-opacity:1;fill-rule:nonzero;stroke:none" d="M0 0v2879.91h3959.88V0H0" transform="matrix(.13333 0 0 -.13333 0 384)"/><path style="fill:none;stroke:#fff;stroke-width:5.76000023;stroke-linecap:butt;stroke-linejoin:miter;stroke-miterlimit:10;stroke-dasharray:none;stroke-opacity:1" d="M2.848 2.848V2877.06H3957.03V2.848z" transform="matrix(.13333 0 0 -.13333 0 384)"/><path style="fill:none;stroke:#d0d0d0;stroke-width:7.19999981;stroke-linecap:butt;stroke-linejoin:miter;stroke-miterlimit:10;stroke-dasharray:none;stroke-opacity:1" d="M633.723 392.039H3951.21M633.723 520.246H3951.21M633.723 648.574H3951.21M633.723 776.902H3951.21M633.723 905.23H3951.21M633.723 1033.56H3951.21M633.723 1161.89H3951.21M633.723 1290.22H3951.21M633.723 1418.55H3951.21M633.723 1546.88H3951.21M633.723 1675.2H3951.21M633.723 1803.41H3951.21M633.723 1931.74H3951.21M633.723 2060.07H3951.21M633.723 2188.39H3951.21M633.723 2316.72H3951.21M633.723 2445.05H3951.21M633.723 2573.38H3951.21" transform="matrix(.13333 0 0 -.13333 0 384)"/><path style="fill:none;stroke:#000;stroke-width:8.64000034;stroke-linecap:butt;stroke-linejoin:miter;stroke-miterlimit:10;stroke-dasharray:none;stroke-opacity:1" d="M633.723 1290.22H3951.21" transform="matrix(.13333 0 0 -.13333 0 384)"/><path style="fill:#6f7991;fill-opacity:1;fill-rule:nonzero;stroke:none" d="M697.082 763.539v526.681h256.781V763.539H697.082" transform="matrix(.13333 0 0 -.13333 0 384)"/><path style="fill:none;stroke:#4b5775;stroke-width:5.76000023;stroke-linecap:butt;stroke-linejoin:miter;stroke-miterlimit:10;stroke-dasharray:none;stroke-opacity:1" d="M699.93 766.383v520.987h251.09V766.383z" transform="matrix(.13333 0 0 -.13333 0 384)"/><path style="fill:#6f7991;fill-opacity:1;fill-rule:nonzero;stroke:none" d="M1063.88 897.188v393.032h256.78V897.188h-256.78" transform="matrix(.13333 0 0 -.13333 0 384)"/><path style="fill:none;stroke:#4b5775;stroke-width:5.76000023;stroke-linecap:butt;stroke-linejoin:miter;stroke-miterlimit:10;stroke-dasharray:none;stroke-opacity:1" d="M1066.73 900.035v387.335h251.08V900.035z" transform="matrix(.13333 0 0 -.13333 0 384)"/><path style="fill:#6f7991;fill-opacity:1;fill-rule:nonzero;stroke:none" d="M1430.67 1079.84v210.38h256.66v-210.38h-256.66" transform="matrix(.13333 0 0 -.13333 0 384)"/><path style="fill:none;stroke:#4b5775;stroke-width:5.76000023;stroke-linecap:butt;stroke-linejoin:miter;stroke-miterlimit:10;stroke-dasharray:none;stroke-opacity:1" d="M1433.52 1082.69v204.68h250.96v-204.68z" transform="matrix(.13333 0 0 -.13333 0 384)"/><path style="fill:#6f7991;fill-opacity:1;fill-rule:nonzero;stroke:none" d="M1797.34 1064v226.22h256.79V1064h-256.79" transform="matrix(.13333 0 0 -.13333 0 384)"/><path style="fill:none;stroke:#4b5775;stroke-width:5.76000023;stroke-linecap:butt;stroke-linejoin:miter;stroke-miterlimit:10;stroke-dasharray:none;stroke-opacity:1" d="M1800.19 1066.85v220.52h251.09v-220.52z" transform="matrix(.13333 0 0 -.13333 0 384)"/><path style="fill:#6f7991;fill-opacity:1;fill-rule:nonzero;stroke:none" d="M2164.14 1241.09v49.13h256.78v-49.13h-256.78" transform="matrix(.13333 0 0 -.13333 0 384)"/><path style="fill:none;stroke:#4b5775;stroke-width:5.76000023;stroke-linecap:butt;stroke-linejoin:miter;stroke-miterlimit:10;stroke-dasharray:none;stroke-opacity:1" d="M2166.99 1243.93v43.44h251.08v-43.44z" transform="matrix(.13333 0 0 -.13333 0 384)"/><path style="fill:#6f7991;fill-opacity:1;fill-rule:nonzero;stroke:none" d="M2530.93 1290.22v24.87h256.66v-24.87h-256.66" transform="matrix(.13333 0 0 -.13333 0 384)"/><path style="fill:none;stroke:#4b5775;stroke-width:5.76000023;stroke-linecap:butt;stroke-linejoin:miter;stroke-miterlimit:10;stroke-dasharray:none;stroke-opacity:1" d="M2533.78 1293.06v19.19h250.97v-19.19z" transform="matrix(.13333 0 0 -.13333 0 384)"/><path style="fill:#6f7991;fill-opacity:1;fill-rule:nonzero;stroke:none" d="M2897.61 1290.22v326.94h256.78v-326.94h-256.78" transform="matrix(.13333 0 0 -.13333 0 384)"/><path style="fill:none;stroke:#4b5775;stroke-width:5.76000023;stroke-linecap:butt;stroke-linejoin:miter;stroke-miterlimit:10;stroke-dasharray:none;stroke-opacity:1" d="M2900.45 1293.06v321.26h251.09v-321.26z" transform="matrix(.13333 0 0 -.13333 0 384)"/><path style="fill:#6f7991;fill-opacity:1;fill-rule:nonzero;stroke:none" d="M3264.4 1290.22v368.53h256.78v-368.53H3264.4" transform="matrix(.13333 0 0 -.13333 0 384)"/><path style="fill:none;stroke:#4b5775;stroke-width:5.76000023;stroke-linecap:butt;stroke-linejoin:miter;stroke-miterlimit:10;stroke-dasharray:none;stroke-opacity:1" d="M3267.25 1293.06v362.84h251.09v-362.84z" transform="matrix(.13333 0 0 -.13333 0 384)"/><path style="fill:#6f7991;fill-opacity:1;fill-rule:nonzero;stroke:none" d="M3631.2 1290.22v660.45h256.66v-660.45H3631.2" transform="matrix(.13333 0 0 -.13333 0 384)"/><path style="fill:none;stroke:#4b5775;stroke-width:5.76000023;stroke-linecap:butt;stroke-linejoin:miter;stroke-miterlimit:10;stroke-dasharray:none;stroke-opacity:1" d="M3634.04 1293.06v654.76h250.97v-654.76z" transform="matrix(.13333 0 0 -.13333 0 384)"/><text style="font-variant:normal;font-weight:400;font-size:9.9989996px;font-family:Helvetica;-inkscape-font-specification:Helvetica;writing-mode:lr-tb;fill:#000;fill-opacity:1;fill-rule:nonzero;stroke:none" transform="matrix(1.33333 0 0 1.33333 335.305 203.061)"><tspan y="0" x="0 3.3296671 8.8891106 14.448555 20.007999 25.567444">(3620)</tspan><tspan y="-30.207" x="36.679298 40.008968 45.568413 51.127853 56.687298 62.246742">(3620)</tspan><tspan y="-34.365" x="73.346497 76.67617 82.235611 87.795052 93.3545 98.91394">(3270)</tspan><tspan y="-63.558" x="110.0258 113.35547 118.91491 124.47436 130.0338 135.59325">(3620)</tspan><tspan y="70.55" x="-183.3732 -180.04353 -174.48409 -168.92465 -163.3652 -157.80576">(3620)</tspan><tspan y="57.185" x="-146.70599 -143.37633 -137.81689 -132.25745 -126.698 -121.13856">(3270)</tspan><tspan y="38.92" x="-110.0263 -106.69663 -101.13719 -95.577744 -90.018303 -84.458855">(3620)</tspan><tspan y="40.504" x="-73.347 -70.017334 -64.457886 -58.898445 -53.339001 -47.779556">(3620)</tspan><tspan y="22.795" x="-33.900101 -30.570433 -25.010988 -19.451546 -13.892101">(870)</tspan></text><path style="fill:none;stroke:#000;stroke-width:5.76000023;stroke-linecap:butt;stroke-linejoin:miter;stroke-miterlimit:10;stroke-dasharray:none;stroke-opacity:1" d="M633.723 328.68v2308.06M633.723 392.039h-39.969" transform="matrix(.13333 0 0 -.13333 0 384)"/><text style="font-variant:normal;font-weight:400;font-size:11.00139999px;font-family:Helvetica;-inkscape-font-specification:Helvetica;writing-mode:lr-tb;fill:#000;fill-opacity:1;fill-rule:nonzero;stroke:none" transform="matrix(1.33333 0 0 1.33333 39.401 336.86)"><tspan y="0" x="0 6.4248176 12.541596 15.599985 21.716764">−1.75</tspan></text><path style="fill:none;stroke:#000;stroke-width:5.76000023;stroke-linecap:butt;stroke-linejoin:miter;stroke-miterlimit:10;stroke-dasharray:none;stroke-opacity:1" d="M633.723 520.246h-39.969" transform="matrix(.13333 0 0 -.13333 0 384)"/><text style="font-variant:normal;font-weight:400;font-size:11.00139999px;font-family:Helvetica;-inkscape-font-specification:Helvetica;writing-mode:lr-tb;fill:#000;fill-opacity:1;fill-rule:nonzero;stroke:none" transform="matrix(1.33333 0 0 1.33333 39.401 319.766)"><tspan y="0" x="0 6.4248176 12.541596 15.599985 21.716764">−1.50</tspan></text><path style="fill:none;stroke:#000;stroke-width:5.76000023;stroke-linecap:butt;stroke-linejoin:miter;stroke-miterlimit:10;stroke-dasharray:none;stroke-opacity:1" d="M633.723 648.574h-39.969" transform="matrix(.13333 0 0 -.13333 0 384)"/><text style="font-variant:normal;font-weight:400;font-size:11.00139999px;font-family:Helvetica;-inkscape-font-specification:Helvetica;writing-mode:lr-tb;fill:#000;fill-opacity:1;fill-rule:nonzero;stroke:none" transform="matrix(1.33333 0 0 1.33333 39.401 302.655)"><tspan y="0" x="0 6.4248176 12.541596 15.599985 21.716764">−1.25</tspan></text><path style="fill:none;stroke:#000;stroke-width:5.76000023;stroke-linecap:butt;stroke-linejoin:miter;stroke-miterlimit:10;stroke-dasharray:none;stroke-opacity:1" d="M633.723 776.902h-39.969" transform="matrix(.13333 0 0 -.13333 0 384)"/><text style="font-variant:normal;font-weight:400;font-size:11.00139999px;font-family:Helvetica;-inkscape-font-specification:Helvetica;writing-mode:lr-tb;fill:#000;fill-opacity:1;fill-rule:nonzero;stroke:none" transform="matrix(1.33333 0 0 1.33333 39.401 285.544)"><tspan y="0" x="0 6.4248176 12.541596 15.599985 21.716764">−1.00</tspan></text><path style="fill:none;stroke:#000;stroke-width:5.76000023;stroke-linecap:butt;stroke-linejoin:miter;stroke-miterlimit:10;stroke-dasharray:none;stroke-opacity:1" d="M633.723 905.23h-39.969" transform="matrix(.13333 0 0 -.13333 0 384)"/><text style="font-variant:normal;font-weight:400;font-size:11.00139999px;font-family:Helvetica;-inkscape-font-specification:Helvetica;writing-mode:lr-tb;fill:#000;fill-opacity:1;fill-rule:nonzero;stroke:none" transform="matrix(1.33333 0 0 1.33333 39.401 268.434)"><tspan y="0" x="0 6.4248176 12.541596 15.599985 21.716764">−0.75</tspan></text><path style="fill:none;stroke:#000;stroke-width:5.76000023;stroke-linecap:butt;stroke-linejoin:miter;stroke-miterlimit:10;stroke-dasharray:none;stroke-opacity:1" d="M633.723 1033.56h-39.969" transform="matrix(.13333 0 0 -.13333 0 384)"/><text style="font-variant:normal;font-weight:400;font-size:11.00139999px;font-family:Helvetica;-inkscape-font-specification:Helvetica;writing-mode:lr-tb;fill:#000;fill-opacity:1;fill-rule:nonzero;stroke:none" transform="matrix(1.33333 0 0 1.33333 39.401 251.323)"><tspan y="0" x="0 6.4248176 12.541596 15.599985 21.716764">−0.50</tspan></text><path style="fill:none;stroke:#000;stroke-width:5.76000023;stroke-linecap:butt;stroke-linejoin:miter;stroke-miterlimit:10;stroke-dasharray:none;stroke-opacity:1" d="M633.723 1161.89h-39.969" transform="matrix(.13333 0 0 -.13333 0 384)"/><text style="font-variant:normal;font-weight:400;font-size:11.00139999px;font-family:Helvetica;-inkscape-font-specification:Helvetica;writing-mode:lr-tb;fill:#000;fill-opacity:1;fill-rule:nonzero;stroke:none" transform="matrix(1.33333 0 0 1.33333 39.401 234.213)"><tspan y="0" x="0 6.4248176 12.541596 15.599985 21.716764">−0.25</tspan></text><path style="fill:none;stroke:#000;stroke-width:5.76000023;stroke-linecap:butt;stroke-linejoin:miter;stroke-miterlimit:10;stroke-dasharray:none;stroke-opacity:1" d="M633.723 1290.22h-39.969" transform="matrix(.13333 0 0 -.13333 0 384)"/><text style="font-variant:normal;font-weight:400;font-size:11.00139999px;font-family:Helvetica;-inkscape-font-specification:Helvetica;writing-mode:lr-tb;fill:#000;fill-opacity:1;fill-rule:nonzero;stroke:none" transform="matrix(1.33333 0 0 1.33333 47.967 217.103)"><tspan y="0" x="0 6.1167784 9.175168 15.291946">0.00</tspan></text><path style="fill:none;stroke:#000;stroke-width:5.76000023;stroke-linecap:butt;stroke-linejoin:miter;stroke-miterlimit:10;stroke-dasharray:none;stroke-opacity:1" d="M633.723 1418.55h-39.969" transform="matrix(.13333 0 0 -.13333 0 384)"/><text style="font-variant:normal;font-weight:400;font-size:11.00139999px;font-family:Helvetica;-inkscape-font-specification:Helvetica;writing-mode:lr-tb;fill:#000;fill-opacity:1;fill-rule:nonzero;stroke:none" transform="matrix(1.33333 0 0 1.33333 47.967 199.992)"><tspan y="0" x="0 6.1167784 9.175168 15.291946">0.25</tspan></text><path style="fill:none;stroke:#000;stroke-width:5.76000023;stroke-linecap:butt;stroke-linejoin:miter;stroke-miterlimit:10;stroke-dasharray:none;stroke-opacity:1" d="M633.723 1546.88h-39.969" transform="matrix(.13333 0 0 -.13333 0 384)"/><text style="font-variant:normal;font-weight:400;font-size:11.00139999px;font-family:Helvetica;-inkscape-font-specification:Helvetica;writing-mode:lr-tb;fill:#000;fill-opacity:1;fill-rule:nonzero;stroke:none" transform="matrix(1.33333 0 0 1.33333 47.967 182.881)"><tspan y="0" x="0 6.1167784 9.175168 15.291946">0.50</tspan></text><path style="fill:none;stroke:#000;stroke-width:5.76000023;stroke-linecap:butt;stroke-linejoin:miter;stroke-miterlimit:10;stroke-dasharray:none;stroke-opacity:1" d="M633.723 1675.2h-39.969" transform="matrix(.13333 0 0 -.13333 0 384)"/><text style="font-variant:normal;font-weight:400;font-size:11.00139999px;font-family:Helvetica;-inkscape-font-specification:Helvetica;writing-mode:lr-tb;fill:#000;fill-opacity:1;fill-rule:nonzero;stroke:none" transform="matrix(1.33333 0 0 1.33333 47.967 165.77)"><tspan y="0" x="0 6.1167784 9.175168 15.291946">0.75</tspan></text><path style="fill:none;stroke:#000;stroke-width:5.76000023;stroke-linecap:butt;stroke-linejoin:miter;stroke-miterlimit:10;stroke-dasharray:none;stroke-opacity:1" d="M633.723 1803.41h-39.969" transform="matrix(.13333 0 0 -.13333 0 384)"/><text style="font-variant:normal;font-weight:400;font-size:11.00139999px;font-family:Helvetica;-inkscape-font-specification:Helvetica;writing-mode:lr-tb;fill:#000;fill-opacity:1;fill-rule:nonzero;stroke:none" transform="matrix(1.33333 0 0 1.33333 47.967 148.677)"><tspan y="0" x="0 6.1167784 9.175168 15.291946">1.00</tspan></text><path style="fill:none;stroke:#000;stroke-width:5.76000023;stroke-linecap:butt;stroke-linejoin:miter;stroke-miterlimit:10;stroke-dasharray:none;stroke-opacity:1" d="M633.723 1931.74h-39.969" transform="matrix(.13333 0 0 -.13333 0 384)"/><text style="font-variant:normal;font-weight:400;font-size:11.00139999px;font-family:Helvetica;-inkscape-font-specification:Helvetica;writing-mode:lr-tb;fill:#000;fill-opacity:1;fill-rule:nonzero;stroke:none" transform="matrix(1.33333 0 0 1.33333 47.967 131.567)"><tspan y="0" x="0 6.1167784 9.175168 15.291946">1.25</tspan></text><path style="fill:none;stroke:#000;stroke-width:5.76000023;stroke-linecap:butt;stroke-linejoin:miter;stroke-miterlimit:10;stroke-dasharray:none;stroke-opacity:1" d="M633.723 2060.07h-39.969" transform="matrix(.13333 0 0 -.13333 0 384)"/><text style="font-variant:normal;font-weight:400;font-size:11.00139999px;font-family:Helvetica;-inkscape-font-specification:Helvetica;writing-mode:lr-tb;fill:#000;fill-opacity:1;fill-rule:nonzero;stroke:none" transform="matrix(1.33333 0 0 1.33333 47.967 114.456)"><tspan y="0" x="0 6.1167784 9.175168 15.291946">1.50</tspan></text><path style="fill:none;stroke:#000;stroke-width:5.76000023;stroke-linecap:butt;stroke-linejoin:miter;stroke-miterlimit:10;stroke-dasharray:none;stroke-opacity:1" d="M633.723 2188.39h-39.969" transform="matrix(.13333 0 0 -.13333 0 384)"/><text style="font-variant:normal;font-weight:400;font-size:11.00139999px;font-family:Helvetica;-inkscape-font-specification:Helvetica;writing-mode:lr-tb;fill:#000;fill-opacity:1;fill-rule:nonzero;stroke:none" transform="matrix(1.33333 0 0 1.33333 47.967 97.345)"><tspan y="0" x="0 6.1167784 9.175168 15.291946">1.75</tspan></text><path style="fill:none;stroke:#000;stroke-width:5.76000023;stroke-linecap:butt;stroke-linejoin:miter;stroke-miterlimit:10;stroke-dasharray:none;stroke-opacity:1" d="M633.723 2316.72h-39.969" transform="matrix(.13333 0 0 -.13333 0 384)"/><text style="font-variant:normal;font-weight:400;font-size:11.00139999px;font-family:Helvetica;-inkscape-font-specification:Helvetica;writing-mode:lr-tb;fill:#000;fill-opacity:1;fill-rule:nonzero;stroke:none" transform="matrix(1.33333 0 0 1.33333 47.967 80.235)"><tspan y="0" x="0 6.1167784 9.175168 15.291946">2.00</tspan></text><path style="fill:none;stroke:#000;stroke-width:5.76000023;stroke-linecap:butt;stroke-linejoin:miter;stroke-miterlimit:10;stroke-dasharray:none;stroke-opacity:1" d="M633.723 2445.05h-39.969" transform="matrix(.13333 0 0 -.13333 0 384)"/><text style="font-variant:normal;font-weight:400;font-size:11.00139999px;font-family:Helvetica;-inkscape-font-specification:Helvetica;writing-mode:lr-tb;fill:#000;fill-opacity:1;fill-rule:nonzero;stroke:none" transform="matrix(1.33333 0 0 1.33333 47.967 63.124)"><tspan y="0" x="0 6.1167784 9.175168 15.291946">2.25</tspan></text><path style="fill:none;stroke:#000;stroke-width:5.76000023;stroke-linecap:butt;stroke-linejoin:miter;stroke-miterlimit:10;stroke-dasharray:none;stroke-opacity:1" d="M633.723 2573.38h-39.969" transform="matrix(.13333 0 0 -.13333 0 384)"/><text style="font-variant:normal;font-weight:400;font-size:11.00139999px;font-family:Helvetica;-inkscape-font-specification:Helvetica;writing-mode:lr-tb;fill:#000;fill-opacity:1;fill-rule:nonzero;stroke:none" transform="matrix(1.33333 0 0 1.33333 47.967 46.015)"><tspan y="0" x="0 6.1167784 9.175168 15.291946">2.50</tspan></text><text style="font-variant:normal;font-weight:400;font-size:12.00370026px;font-family:Helvetica;-inkscape-font-specification:Helvetica;writing-mode:lr-tb;fill:#000;fill-opacity:1;fill-rule:nonzero;stroke:none" transform="matrix(0 -1.33333 1.33333 0 15.015 234.79)"><tspan y="0" x="0 8.6666718 15.340729 18.677757 22.014786 30.021254 36.695312 40.692543 46.694393 53.36845 60.042507 66.044357">Net Purchase</tspan><tspan y="12.004" x="-26.0219 -22.684872 -19.347843 -15.350611 -8.6765537 -2.6747036 0.66232508 3.3271465 10.001204 16.675261 20.012289 26.686346 30.023375 33.360405 36.697433 43.37149 46.708519 53.382576 56.047398 59.384426 65.386276 72.060333 78.73439 82.731621 89.405678 95.407532">[fraction of total shares]</tspan></text><path style="fill:none;stroke:#000;stroke-width:5.76000023;stroke-linecap:butt;stroke-linejoin:miter;stroke-miterlimit:10;stroke-dasharray:none;stroke-opacity:1" d="M633.723 328.68H3951.21M825.535 328.68v-40.094" transform="matrix(.13333 0 0 -.13333 0 384)"/><text style="font-variant:normal;font-weight:400;font-size:11.00139999px;font-family:Helvetica;-inkscape-font-specification:Helvetica;writing-mode:lr-tb;fill:#000;fill-opacity:1;fill-rule:nonzero;stroke:none" transform="matrix(1.33333 0 0 1.33333 105.994 358.442)"><tspan y="0" x="0">1</tspan></text><path style="fill:none;stroke:#000;stroke-width:5.76000023;stroke-linecap:butt;stroke-linejoin:miter;stroke-miterlimit:10;stroke-dasharray:none;stroke-opacity:1" d="M1192.21 328.68v-40.094" transform="matrix(.13333 0 0 -.13333 0 384)"/><text style="font-variant:normal;font-weight:400;font-size:11.00139999px;font-family:Helvetica;-inkscape-font-specification:Helvetica;writing-mode:lr-tb;fill:#000;fill-opacity:1;fill-rule:nonzero;stroke:none" transform="matrix(1.33333 0 0 1.33333 154.884 358.442)"><tspan y="0" x="0">2</tspan></text><path style="fill:none;stroke:#000;stroke-width:5.76000023;stroke-linecap:butt;stroke-linejoin:miter;stroke-miterlimit:10;stroke-dasharray:none;stroke-opacity:1" d="M1559 328.68v-40.094" transform="matrix(.13333 0 0 -.13333 0 384)"/><text style="font-variant:normal;font-weight:400;font-size:11.00139999px;font-family:Helvetica;-inkscape-font-specification:Helvetica;writing-mode:lr-tb;fill:#000;fill-opacity:1;fill-rule:nonzero;stroke:none" transform="matrix(1.33333 0 0 1.33333 203.79 358.442)"><tspan y="0" x="0">3</tspan></text><path style="fill:none;stroke:#000;stroke-width:5.76000023;stroke-linecap:butt;stroke-linejoin:miter;stroke-miterlimit:10;stroke-dasharray:none;stroke-opacity:1" d="M1925.8 328.68v-40.094" transform="matrix(.13333 0 0 -.13333 0 384)"/><text style="font-variant:normal;font-weight:400;font-size:11.00139999px;font-family:Helvetica;-inkscape-font-specification:Helvetica;writing-mode:lr-tb;fill:#000;fill-opacity:1;fill-rule:nonzero;stroke:none" transform="matrix(1.33333 0 0 1.33333 252.695 358.442)"><tspan y="0" x="0">4</tspan></text><path style="fill:none;stroke:#000;stroke-width:5.76000023;stroke-linecap:butt;stroke-linejoin:miter;stroke-miterlimit:10;stroke-dasharray:none;stroke-opacity:1" d="M2292.47 328.68v-40.094" transform="matrix(.13333 0 0 -.13333 0 384)"/><text style="font-variant:normal;font-weight:400;font-size:11.00139999px;font-family:Helvetica;-inkscape-font-specification:Helvetica;writing-mode:lr-tb;fill:#000;fill-opacity:1;fill-rule:nonzero;stroke:none" transform="matrix(1.33333 0 0 1.33333 301.585 358.442)"><tspan y="0" x="0">5</tspan></text><path style="fill:none;stroke:#000;stroke-width:5.76000023;stroke-linecap:butt;stroke-linejoin:miter;stroke-miterlimit:10;stroke-dasharray:none;stroke-opacity:1" d="M2659.27 328.68v-40.094" transform="matrix(.13333 0 0 -.13333 0 384)"/><text style="font-variant:normal;font-weight:400;font-size:11.00139999px;font-family:Helvetica;-inkscape-font-specification:Helvetica;writing-mode:lr-tb;fill:#000;fill-opacity:1;fill-rule:nonzero;stroke:none" transform="matrix(1.33333 0 0 1.33333 350.49 358.442)"><tspan y="0" x="0">6</tspan></text><path style="fill:none;stroke:#000;stroke-width:5.76000023;stroke-linecap:butt;stroke-linejoin:miter;stroke-miterlimit:10;stroke-dasharray:none;stroke-opacity:1" d="M3026.06 328.68v-40.094" transform="matrix(.13333 0 0 -.13333 0 384)"/><text style="font-variant:normal;font-weight:400;font-size:11.00139999px;font-family:Helvetica;-inkscape-font-specification:Helvetica;writing-mode:lr-tb;fill:#000;fill-opacity:1;fill-rule:nonzero;stroke:none" transform="matrix(1.33333 0 0 1.33333 399.397 358.442)"><tspan y="0" x="0">7</tspan></text><path style="fill:none;stroke:#000;stroke-width:5.76000023;stroke-linecap:butt;stroke-linejoin:miter;stroke-miterlimit:10;stroke-dasharray:none;stroke-opacity:1" d="M3392.73 328.68v-40.094" transform="matrix(.13333 0 0 -.13333 0 384)"/><text style="font-variant:normal;font-weight:400;font-size:11.00139999px;font-family:Helvetica;-inkscape-font-specification:Helvetica;writing-mode:lr-tb;fill:#000;fill-opacity:1;fill-rule:nonzero;stroke:none" transform="matrix(1.33333 0 0 1.33333 448.287 358.442)"><tspan y="0" x="0">8</tspan></text><path style="fill:none;stroke:#000;stroke-width:5.76000023;stroke-linecap:butt;stroke-linejoin:miter;stroke-miterlimit:10;stroke-dasharray:none;stroke-opacity:1" d="M3759.52 328.68v-40.094" transform="matrix(.13333 0 0 -.13333 0 384)"/><g><text style="font-variant:normal;font-weight:400;font-size:11.00139999px;font-family:Helvetica;-inkscape-font-specification:Helvetica;writing-mode:lr-tb;fill:#000;fill-opacity:1;fill-rule:nonzero;stroke:none" transform="matrix(1.33333 0 0 1.33333 497.192 358.442)"><tspan y="0" x="0">9</tspan></text><text style="font-variant:normal;font-weight:400;font-size:12.00370026px;font-family:Helvetica;-inkscape-font-specification:Helvetica;writing-mode:lr-tb;fill:#000;fill-opacity:1;fill-rule:nonzero;stroke:none" transform="matrix(1.33333 0 0 1.33333 211.157 375.387)"><tspan y="0" x="0 8.6666718 15.340729 22.014786 28.016636 31.353664 38.027721 41.36475 44.701778 52.708248 59.382305 66.056358 70.053596 73.390625 80.40078 87.735046 94.409103 98.406334 108.40542 111.74245 119.74891 126.42297 129.08778 131.75261 138.42667">Rank of Short−Term Belief</tspan></text><text style="font-variant:normal;font-weight:400;font-size:19.99799919px;font-family:Helvetica;-inkscape-font-specification:Helvetica;writing-mode:lr-tb;fill:#000;fill-opacity:1;fill-rule:nonzero;stroke:none" transform="matrix(1.33333 0 0 1.33333 290.85 22.14)"><tspan y="0" x="0 13.338666 17.778221">All</tspan></text></g></svg>