<svg xmlns="http://www.w3.org/2000/svg" height="384" width="528" xml:space="preserve"><path style="fill:#fff;fill-opacity:1;fill-rule:nonzero;stroke:none" d="M0 0h3960v2880H0z" transform="matrix(.13333 0 0 -.13333 0 384)"/><path style="fill:#fff;fill-opacity:1;fill-rule:nonzero;stroke:none" d="M0 0v2879.91h3959.88V0H0" transform="matrix(.13333 0 0 -.13333 0 384)"/><path style="fill:none;stroke:#fff;stroke-width:5.76000023;stroke-linecap:butt;stroke-linejoin:miter;stroke-miterlimit:10;stroke-dasharray:none;stroke-opacity:1" d="M2.848 2.848V2877.06H3957.03V2.848z" transform="matrix(.13333 0 0 -.13333 0 384)"/><path style="fill:none;stroke:#d0d0d0;stroke-width:7.19999981;stroke-linecap:butt;stroke-linejoin:miter;stroke-miterlimit:10;stroke-dasharray:none;stroke-opacity:1" d="M633.723 392.039H3951.21M633.723 520.246H3951.21M633.723 648.574H3951.21M633.723 776.902H3951.21M633.723 905.23H3951.21M633.723 1033.56H3951.21M633.723 1161.89H3951.21M633.723 1290.22H3951.21M633.723 1418.55H3951.21M633.723 1546.88H3951.21M633.723 1675.2H3951.21M633.723 1803.41H3951.21M633.723 1931.74H3951.21M633.723 2060.07H3951.21M633.723 2188.39H3951.21M633.723 2316.72H3951.21M633.723 2445.05H3951.21M633.723 2573.38H3951.21" transform="matrix(.13333 0 0 -.13333 0 384)"/><path style="fill:none;stroke:#000;stroke-width:8.64000034;stroke-linecap:butt;stroke-linejoin:miter;stroke-miterlimit:10;stroke-dasharray:none;stroke-opacity:1" d="M633.723 1290.22H3951.21" transform="matrix(.13333 0 0 -.13333 0 384)"/><path style="fill:#6f7991;fill-opacity:1;fill-rule:nonzero;stroke:none" d="M697.082 561.824v728.396H1089V561.824H697.082" transform="matrix(.13333 0 0 -.13333 0 384)"/><path style="fill:none;stroke:#4b5775;stroke-width:5.76000023;stroke-linecap:butt;stroke-linejoin:miter;stroke-miterlimit:10;stroke-dasharray:none;stroke-opacity:1" d="M699.93 564.672v722.698h386.22V564.672z" transform="matrix(.13333 0 0 -.13333 0 384)"/><path style="fill:#6f7991;fill-opacity:1;fill-rule:nonzero;stroke:none" d="M1256.93 745.098v545.122h391.79V745.098h-391.79" transform="matrix(.13333 0 0 -.13333 0 384)"/><path style="fill:none;stroke:#4b5775;stroke-width:5.76000023;stroke-linecap:butt;stroke-linejoin:miter;stroke-miterlimit:10;stroke-dasharray:none;stroke-opacity:1" d="M1259.77 747.945v539.425h386.11V747.945z" transform="matrix(.13333 0 0 -.13333 0 384)"/><path style="fill:#6f7991;fill-opacity:1;fill-rule:nonzero;stroke:none" d="M1816.65 899.168v391.052h391.92V899.168h-391.92" transform="matrix(.13333 0 0 -.13333 0 384)"/><path style="fill:none;stroke:#4b5775;stroke-width:5.76000023;stroke-linecap:butt;stroke-linejoin:miter;stroke-miterlimit:10;stroke-dasharray:none;stroke-opacity:1" d="M1819.5 902.016v385.354h386.22V902.016z" transform="matrix(.13333 0 0 -.13333 0 384)"/><path style="fill:#6f7991;fill-opacity:1;fill-rule:nonzero;stroke:none" d="M2376.5 1290.22v425.2h391.79v-425.2H2376.5" transform="matrix(.13333 0 0 -.13333 0 384)"/><path style="fill:none;stroke:#4b5775;stroke-width:5.76000023;stroke-linecap:butt;stroke-linejoin:miter;stroke-miterlimit:10;stroke-dasharray:none;stroke-opacity:1" d="M2379.34 1293.06v419.52h386.1v-419.52z" transform="matrix(.13333 0 0 -.13333 0 384)"/><path style="fill:#6f7991;fill-opacity:1;fill-rule:nonzero;stroke:none" d="M2936.21 1290.22v417.9h391.92v-417.9h-391.92" transform="matrix(.13333 0 0 -.13333 0 384)"/><path style="fill:none;stroke:#4b5775;stroke-width:5.76000023;stroke-linecap:butt;stroke-linejoin:miter;stroke-miterlimit:10;stroke-dasharray:none;stroke-opacity:1" d="M2939.06 1293.06v412.21h386.23v-412.21z" transform="matrix(.13333 0 0 -.13333 0 384)"/><path style="fill:#6f7991;fill-opacity:1;fill-rule:nonzero;stroke:none" d="M3496.06 1290.22v821.2h391.8v-821.2h-391.8" transform="matrix(.13333 0 0 -.13333 0 384)"/><path style="fill:none;stroke:#4b5775;stroke-width:5.76000023;stroke-linecap:butt;stroke-linejoin:miter;stroke-miterlimit:10;stroke-dasharray:none;stroke-opacity:1" d="M3498.91 1293.06v815.52h386.1v-815.52z" transform="matrix(.13333 0 0 -.13333 0 384)"/><text style="font-variant:normal;font-weight:400;font-size:9.9989996px;font-family:Helvetica;-inkscape-font-specification:Helvetica;writing-mode:lr-tb;fill:#000;fill-opacity:1;fill-rule:nonzero;stroke:none" transform="matrix(1.33333 0 0 1.33333 327.428 149.683)"><tspan y="0" x="0 3.3296671 8.8891106 14.448555 20.007999">(350)</tspan><tspan y=".73" x="55.984798 59.314468 64.873909 70.433357 75.992798">(350)</tspan><tspan y="-39.6" x="111.9567 115.28637 120.84581 126.40526 131.96471">(350)</tspan><tspan y="130.754" x="-167.9283 -164.59863 -159.03918 -153.47975 -147.9203">(350)</tspan><tspan y="112.427" x="-111.9564 -108.62673 -103.06729 -97.507843 -91.948402">(350)</tspan><tspan y="97.02" x="-55.9716 -52.641933 -47.082489 -41.523045 -35.9636">(350)</tspan></text><path style="fill:none;stroke:#000;stroke-width:5.76000023;stroke-linecap:butt;stroke-linejoin:miter;stroke-miterlimit:10;stroke-dasharray:none;stroke-opacity:1" d="M633.723 328.68v2308.06M633.723 392.039h-39.969" transform="matrix(.13333 0 0 -.13333 0 384)"/><text style="font-variant:normal;font-weight:400;font-size:11.00139999px;font-family:Helvetica;-inkscape-font-specification:Helvetica;writing-mode:lr-tb;fill:#000;fill-opacity:1;fill-rule:nonzero;stroke:none" transform="matrix(1.33333 0 0 1.33333 39.401 336.86)"><tspan y="0" x="0 6.4248176 12.541596 15.599985 21.716764">−1.75</tspan></text><path style="fill:none;stroke:#000;stroke-width:5.76000023;stroke-linecap:butt;stroke-linejoin:miter;stroke-miterlimit:10;stroke-dasharray:none;stroke-opacity:1" d="M633.723 520.246h-39.969" transform="matrix(.13333 0 0 -.13333 0 384)"/><text style="font-variant:normal;font-weight:400;font-size:11.00139999px;font-family:Helvetica;-inkscape-font-specification:Helvetica;writing-mode:lr-tb;fill:#000;fill-opacity:1;fill-rule:nonzero;stroke:none" transform="matrix(1.33333 0 0 1.33333 39.401 319.766)"><tspan y="0" x="0 6.4248176 12.541596 15.599985 21.716764">−1.50</tspan></text><path style="fill:none;stroke:#000;stroke-width:5.76000023;stroke-linecap:butt;stroke-linejoin:miter;stroke-miterlimit:10;stroke-dasharray:none;stroke-opacity:1" d="M633.723 648.574h-39.969" transform="matrix(.13333 0 0 -.13333 0 384)"/><text style="font-variant:normal;font-weight:400;font-size:11.00139999px;font-family:Helvetica;-inkscape-font-specification:Helvetica;writing-mode:lr-tb;fill:#000;fill-opacity:1;fill-rule:nonzero;stroke:none" transform="matrix(1.33333 0 0 1.33333 39.401 302.655)"><tspan y="0" x="0 6.4248176 12.541596 15.599985 21.716764">−1.25</tspan></text><path style="fill:none;stroke:#000;stroke-width:5.76000023;stroke-linecap:butt;stroke-linejoin:miter;stroke-miterlimit:10;stroke-dasharray:none;stroke-opacity:1" d="M633.723 776.902h-39.969" transform="matrix(.13333 0 0 -.13333 0 384)"/><text style="font-variant:normal;font-weight:400;font-size:11.00139999px;font-family:Helvetica;-inkscape-font-specification:Helvetica;writing-mode:lr-tb;fill:#000;fill-opacity:1;fill-rule:nonzero;stroke:none" transform="matrix(1.33333 0 0 1.33333 39.401 285.544)"><tspan y="0" x="0 6.4248176 12.541596 15.599985 21.716764">−1.00</tspan></text><path style="fill:none;stroke:#000;stroke-width:5.76000023;stroke-linecap:butt;stroke-linejoin:miter;stroke-miterlimit:10;stroke-dasharray:none;stroke-opacity:1" d="M633.723 905.23h-39.969" transform="matrix(.13333 0 0 -.13333 0 384)"/><text style="font-variant:normal;font-weight:400;font-size:11.00139999px;font-family:Helvetica;-inkscape-font-specification:Helvetica;writing-mode:lr-tb;fill:#000;fill-opacity:1;fill-rule:nonzero;stroke:none" transform="matrix(1.33333 0 0 1.33333 39.401 268.434)"><tspan y="0" x="0 6.4248176 12.541596 15.599985 21.716764">−0.75</tspan></text><path style="fill:none;stroke:#000;stroke-width:5.76000023;stroke-linecap:butt;stroke-linejoin:miter;stroke-miterlimit:10;stroke-dasharray:none;stroke-opacity:1" d="M633.723 1033.56h-39.969" transform="matrix(.13333 0 0 -.13333 0 384)"/><text style="font-variant:normal;font-weight:400;font-size:11.00139999px;font-family:Helvetica;-inkscape-font-specification:Helvetica;writing-mode:lr-tb;fill:#000;fill-opacity:1;fill-rule:nonzero;stroke:none" transform="matrix(1.33333 0 0 1.33333 39.401 251.323)"><tspan y="0" x="0 6.4248176 12.541596 15.599985 21.716764">−0.50</tspan></text><path style="fill:none;stroke:#000;stroke-width:5.76000023;stroke-linecap:butt;stroke-linejoin:miter;stroke-miterlimit:10;stroke-dasharray:none;stroke-opacity:1" d="M633.723 1161.89h-39.969" transform="matrix(.13333 0 0 -.13333 0 384)"/><text style="font-variant:normal;font-weight:400;font-size:11.00139999px;font-family:Helvetica;-inkscape-font-specification:Helvetica;writing-mode:lr-tb;fill:#000;fill-opacity:1;fill-rule:nonzero;stroke:none" transform="matrix(1.33333 0 0 1.33333 39.401 234.213)"><tspan y="0" x="0 6.4248176 12.541596 15.599985 21.716764">−0.25</tspan></text><path style="fill:none;stroke:#000;stroke-width:5.76000023;stroke-linecap:butt;stroke-linejoin:miter;stroke-miterlimit:10;stroke-dasharray:none;stroke-opacity:1" d="M633.723 1290.22h-39.969" transform="matrix(.13333 0 0 -.13333 0 384)"/><text style="font-variant:normal;font-weight:400;font-size:11.00139999px;font-family:Helvetica;-inkscape-font-specification:Helvetica;writing-mode:lr-tb;fill:#000;fill-opacity:1;fill-rule:nonzero;stroke:none" transform="matrix(1.33333 0 0 1.33333 47.967 217.103)"><tspan y="0" x="0 6.1167784 9.175168 15.291946">0.00</tspan></text><path style="fill:none;stroke:#000;stroke-width:5.76000023;stroke-linecap:butt;stroke-linejoin:miter;stroke-miterlimit:10;stroke-dasharray:none;stroke-opacity:1" d="M633.723 1418.55h-39.969" transform="matrix(.13333 0 0 -.13333 0 384)"/><text style="font-variant:normal;font-weight:400;font-size:11.00139999px;font-family:Helvetica;-inkscape-font-specification:Helvetica;writing-mode:lr-tb;fill:#000;fill-opacity:1;fill-rule:nonzero;stroke:none" transform="matrix(1.33333 0 0 1.33333 47.967 199.992)"><tspan y="0" x="0 6.1167784 9.175168 15.291946">0.25</tspan></text><path style="fill:none;stroke:#000;stroke-width:5.76000023;stroke-linecap:butt;stroke-linejoin:miter;stroke-miterlimit:10;stroke-dasharray:none;stroke-opacity:1" d="M633.723 1546.88h-39.969" transform="matrix(.13333 0 0 -.13333 0 384)"/><text style="font-variant:normal;font-weight:400;font-size:11.00139999px;font-family:Helvetica;-inkscape-font-specification:Helvetica;writing-mode:lr-tb;fill:#000;fill-opacity:1;fill-rule:nonzero;stroke:none" transform="matrix(1.33333 0 0 1.33333 47.967 182.881)"><tspan y="0" x="0 6.1167784 9.175168 15.291946">0.50</tspan></text><path style="fill:none;stroke:#000;stroke-width:5.76000023;stroke-linecap:butt;stroke-linejoin:miter;stroke-miterlimit:10;stroke-dasharray:none;stroke-opacity:1" d="M633.723 1675.2h-39.969" transform="matrix(.13333 0 0 -.13333 0 384)"/><text style="font-variant:normal;font-weight:400;font-size:11.00139999px;font-family:Helvetica;-inkscape-font-specification:Helvetica;writing-mode:lr-tb;fill:#000;fill-opacity:1;fill-rule:nonzero;stroke:none" transform="matrix(1.33333 0 0 1.33333 47.967 165.77)"><tspan y="0" x="0 6.1167784 9.175168 15.291946">0.75</tspan></text><path style="fill:none;stroke:#000;stroke-width:5.76000023;stroke-linecap:butt;stroke-linejoin:miter;stroke-miterlimit:10;stroke-dasharray:none;stroke-opacity:1" d="M633.723 1803.41h-39.969" transform="matrix(.13333 0 0 -.13333 0 384)"/><text style="font-variant:normal;font-weight:400;font-size:11.00139999px;font-family:Helvetica;-inkscape-font-specification:Helvetica;writing-mode:lr-tb;fill:#000;fill-opacity:1;fill-rule:nonzero;stroke:none" transform="matrix(1.33333 0 0 1.33333 47.967 148.677)"><tspan y="0" x="0 6.1167784 9.175168 15.291946">1.00</tspan></text><path style="fill:none;stroke:#000;stroke-width:5.76000023;stroke-linecap:butt;stroke-linejoin:miter;stroke-miterlimit:10;stroke-dasharray:none;stroke-opacity:1" d="M633.723 1931.74h-39.969" transform="matrix(.13333 0 0 -.13333 0 384)"/><text style="font-variant:normal;font-weight:400;font-size:11.00139999px;font-family:Helvetica;-inkscape-font-specification:Helvetica;writing-mode:lr-tb;fill:#000;fill-opacity:1;fill-rule:nonzero;stroke:none" transform="matrix(1.33333 0 0 1.33333 47.967 131.567)"><tspan y="0" x="0 6.1167784 9.175168 15.291946">1.25</tspan></text><path style="fill:none;stroke:#000;stroke-width:5.76000023;stroke-linecap:butt;stroke-linejoin:miter;stroke-miterlimit:10;stroke-dasharray:none;stroke-opacity:1" d="M633.723 2060.07h-39.969" transform="matrix(.13333 0 0 -.13333 0 384)"/><text style="font-variant:normal;font-weight:400;font-size:11.00139999px;font-family:Helvetica;-inkscape-font-specification:Helvetica;writing-mode:lr-tb;fill:#000;fill-opacity:1;fill-rule:nonzero;stroke:none" transform="matrix(1.33333 0 0 1.33333 47.967 114.456)"><tspan y="0" x="0 6.1167784 9.175168 15.291946">1.50</tspan></text><path style="fill:none;stroke:#000;stroke-width:5.76000023;stroke-linecap:butt;stroke-linejoin:miter;stroke-miterlimit:10;stroke-dasharray:none;stroke-opacity:1" d="M633.723 2188.39h-39.969" transform="matrix(.13333 0 0 -.13333 0 384)"/><text style="font-variant:normal;font-weight:400;font-size:11.00139999px;font-family:Helvetica;-inkscape-font-specification:Helvetica;writing-mode:lr-tb;fill:#000;fill-opacity:1;fill-rule:nonzero;stroke:none" transform="matrix(1.33333 0 0 1.33333 47.967 97.345)"><tspan y="0" x="0 6.1167784 9.175168 15.291946">1.75</tspan></text><path style="fill:none;stroke:#000;stroke-width:5.76000023;stroke-linecap:butt;stroke-linejoin:miter;stroke-miterlimit:10;stroke-dasharray:none;stroke-opacity:1" d="M633.723 2316.72h-39.969" transform="matrix(.13333 0 0 -.13333 0 384)"/><text style="font-variant:normal;font-weight:400;font-size:11.00139999px;font-family:Helvetica;-inkscape-font-specification:Helvetica;writing-mode:lr-tb;fill:#000;fill-opacity:1;fill-rule:nonzero;stroke:none" transform="matrix(1.33333 0 0 1.33333 47.967 80.235)"><tspan y="0" x="0 6.1167784 9.175168 15.291946">2.00</tspan></text><path style="fill:none;stroke:#000;stroke-width:5.76000023;stroke-linecap:butt;stroke-linejoin:miter;stroke-miterlimit:10;stroke-dasharray:none;stroke-opacity:1" d="M633.723 2445.05h-39.969" transform="matrix(.13333 0 0 -.13333 0 384)"/><text style="font-variant:normal;font-weight:400;font-size:11.00139999px;font-family:Helvetica;-inkscape-font-specification:Helvetica;writing-mode:lr-tb;fill:#000;fill-opacity:1;fill-rule:nonzero;stroke:none" transform="matrix(1.33333 0 0 1.33333 47.967 63.124)"><tspan y="0" x="0 6.1167784 9.175168 15.291946">2.25</tspan></text><path style="fill:none;stroke:#000;stroke-width:5.76000023;stroke-linecap:butt;stroke-linejoin:miter;stroke-miterlimit:10;stroke-dasharray:none;stroke-opacity:1" d="M633.723 2573.38h-39.969" transform="matrix(.13333 0 0 -.13333 0 384)"/><text style="font-variant:normal;font-weight:400;font-size:11.00139999px;font-family:Helvetica;-inkscape-font-specification:Helvetica;writing-mode:lr-tb;fill:#000;fill-opacity:1;fill-rule:nonzero;stroke:none" transform="matrix(1.33333 0 0 1.33333 47.967 46.015)"><tspan y="0" x="0 6.1167784 9.175168 15.291946">2.50</tspan></text><text style="font-variant:normal;font-weight:400;font-size:12.00370026px;font-family:Helvetica;-inkscape-font-specification:Helvetica;writing-mode:lr-tb;fill:#000;fill-opacity:1;fill-rule:nonzero;stroke:none" transform="matrix(0 -1.33333 1.33333 0 15.015 234.79)"><tspan y="0" x="0 8.6666718 15.340729 18.677757 22.014786 30.021254 36.695312 40.692543 46.694393 53.36845 60.042507 66.044357">Net Purchase</tspan><tspan y="12.004" x="-26.0219 -22.684872 -19.347843 -15.350611 -8.6765537 -2.6747036 0.66232508 3.3271465 10.001204 16.675261 20.012289 26.686346 30.023375 33.360405 36.697433 43.37149 46.708519 53.382576 56.047398 59.384426 65.386276 72.060333 78.73439 82.731621 89.405678 95.407532">[fraction of total shares]</tspan></text><path style="fill:none;stroke:#000;stroke-width:5.76000023;stroke-linecap:butt;stroke-linejoin:miter;stroke-miterlimit:10;stroke-dasharray:none;stroke-opacity:1" d="M633.723 328.68H3951.21M893.105 328.68v-40.094" transform="matrix(.13333 0 0 -.13333 0 384)"/><text style="font-variant:normal;font-weight:400;font-size:11.00139999px;font-family:Helvetica;-inkscape-font-specification:Helvetica;writing-mode:lr-tb;fill:#000;fill-opacity:1;fill-rule:nonzero;stroke:none" transform="matrix(1.33333 0 0 1.33333 115.003 358.442)"><tspan y="0" x="0">1</tspan></text><path style="fill:none;stroke:#000;stroke-width:5.76000023;stroke-linecap:butt;stroke-linejoin:miter;stroke-miterlimit:10;stroke-dasharray:none;stroke-opacity:1" d="M1452.82 328.68v-40.094" transform="matrix(.13333 0 0 -.13333 0 384)"/><text style="font-variant:normal;font-weight:400;font-size:11.00139999px;font-family:Helvetica;-inkscape-font-specification:Helvetica;writing-mode:lr-tb;fill:#000;fill-opacity:1;fill-rule:nonzero;stroke:none" transform="matrix(1.33333 0 0 1.33333 189.632 358.442)"><tspan y="0" x="0">2</tspan></text><path style="fill:none;stroke:#000;stroke-width:5.76000023;stroke-linecap:butt;stroke-linejoin:miter;stroke-miterlimit:10;stroke-dasharray:none;stroke-opacity:1" d="M2012.67 328.68v-40.094" transform="matrix(.13333 0 0 -.13333 0 384)"/><text style="font-variant:normal;font-weight:400;font-size:11.00139999px;font-family:Helvetica;-inkscape-font-specification:Helvetica;writing-mode:lr-tb;fill:#000;fill-opacity:1;fill-rule:nonzero;stroke:none" transform="matrix(1.33333 0 0 1.33333 264.279 358.442)"><tspan y="0" x="0">3</tspan></text><path style="fill:none;stroke:#000;stroke-width:5.76000023;stroke-linecap:butt;stroke-linejoin:miter;stroke-miterlimit:10;stroke-dasharray:none;stroke-opacity:1" d="M2572.39 328.68v-40.094" transform="matrix(.13333 0 0 -.13333 0 384)"/><text style="font-variant:normal;font-weight:400;font-size:11.00139999px;font-family:Helvetica;-inkscape-font-specification:Helvetica;writing-mode:lr-tb;fill:#000;fill-opacity:1;fill-rule:nonzero;stroke:none" transform="matrix(1.33333 0 0 1.33333 338.908 358.442)"><tspan y="0" x="0">4</tspan></text><path style="fill:none;stroke:#000;stroke-width:5.76000023;stroke-linecap:butt;stroke-linejoin:miter;stroke-miterlimit:10;stroke-dasharray:none;stroke-opacity:1" d="M3132.24 328.68v-40.094" transform="matrix(.13333 0 0 -.13333 0 384)"/><text style="font-variant:normal;font-weight:400;font-size:11.00139999px;font-family:Helvetica;-inkscape-font-specification:Helvetica;writing-mode:lr-tb;fill:#000;fill-opacity:1;fill-rule:nonzero;stroke:none" transform="matrix(1.33333 0 0 1.33333 413.555 358.442)"><tspan y="0" x="0">5</tspan></text><path style="fill:none;stroke:#000;stroke-width:5.76000023;stroke-linecap:butt;stroke-linejoin:miter;stroke-miterlimit:10;stroke-dasharray:none;stroke-opacity:1" d="M3691.96 328.68v-40.094" transform="matrix(.13333 0 0 -.13333 0 384)"/><g><text style="font-variant:normal;font-weight:400;font-size:11.00139999px;font-family:Helvetica;-inkscape-font-specification:Helvetica;writing-mode:lr-tb;fill:#000;fill-opacity:1;fill-rule:nonzero;stroke:none" transform="matrix(1.33333 0 0 1.33333 488.184 358.442)"><tspan y="0" x="0">6</tspan></text><text style="font-variant:normal;font-weight:400;font-size:12.00370026px;font-family:Helvetica;-inkscape-font-specification:Helvetica;writing-mode:lr-tb;fill:#000;fill-opacity:1;fill-rule:nonzero;stroke:none" transform="matrix(1.33333 0 0 1.33333 211.159 375.387)"><tspan y="0" x="0 8.6666718 15.340729 22.014786 28.016636 31.353664 38.027721 41.36475 44.701778 52.708248 59.382305 66.056358 70.053596 73.390625 80.40078 87.735046 94.409103 98.406334 108.40542 111.74245 119.74891 126.42297 129.08778 131.75261 138.42667">Rank of Short−Term Belief</tspan></text><text style="font-variant:normal;font-weight:400;font-size:19.99799919px;font-family:Helvetica;-inkscape-font-specification:Helvetica;writing-mode:lr-tb;fill:#000;fill-opacity:1;fill-rule:nonzero;stroke:none" transform="matrix(1.33333 0 0 1.33333 266.415 22.14)"><tspan y="0" x="0 14.438556 29.997 44.435555">DGHN</tspan></text></g></svg>