<svg xmlns="http://www.w3.org/2000/svg" height="384" width="528" xml:space="preserve"><path style="fill:#fff;fill-opacity:1;fill-rule:nonzero;stroke:none" d="M0 0h3960v2880H0z" transform="matrix(.13333 0 0 -.13333 0 384)"/><path style="fill:#fff;fill-opacity:1;fill-rule:nonzero;stroke:none" d="M0 0v2879.91h3959.88V0H0" transform="matrix(.13333 0 0 -.13333 0 384)"/><path style="fill:none;stroke:#fff;stroke-width:5.76000023;stroke-linecap:butt;stroke-linejoin:miter;stroke-miterlimit:10;stroke-dasharray:none;stroke-opacity:1" d="M2.848 2.848V2877.06H3957.03V2.848z" transform="matrix(.13333 0 0 -.13333 0 384)"/><path style="fill:none;stroke:#d0d0d0;stroke-width:7.19999981;stroke-linecap:butt;stroke-linejoin:miter;stroke-miterlimit:10;stroke-dasharray:none;stroke-opacity:1" d="M633.723 392.039H3951.21M633.723 520.246H3951.21M633.723 648.574H3951.21M633.723 776.902H3951.21M633.723 905.23H3951.21M633.723 1033.56H3951.21M633.723 1161.89H3951.21M633.723 1290.22H3951.21M633.723 1418.55H3951.21M633.723 1546.88H3951.21M633.723 1675.2H3951.21M633.723 1803.41H3951.21M633.723 1931.74H3951.21M633.723 2060.07H3951.21M633.723 2188.39H3951.21M633.723 2316.72H3951.21M633.723 2445.05H3951.21M633.723 2573.38H3951.21" transform="matrix(.13333 0 0 -.13333 0 384)"/><path style="fill:none;stroke:#000;stroke-width:8.64000034;stroke-linecap:butt;stroke-linejoin:miter;stroke-miterlimit:10;stroke-dasharray:none;stroke-opacity:1" d="M633.723 1290.22H3951.21" transform="matrix(.13333 0 0 -.13333 0 384)"/><path style="fill:#6f7991;fill-opacity:1;fill-rule:nonzero;stroke:none" d="M697.082 681.863v608.357h256.781V681.863H697.082" transform="matrix(.13333 0 0 -.13333 0 384)"/><path style="fill:none;stroke:#4b5775;stroke-width:5.76000023;stroke-linecap:butt;stroke-linejoin:miter;stroke-miterlimit:10;stroke-dasharray:none;stroke-opacity:1" d="M699.93 684.707v602.663h251.09V684.707z" transform="matrix(.13333 0 0 -.13333 0 384)"/><path style="fill:#6f7991;fill-opacity:1;fill-rule:nonzero;stroke:none" d="M1063.88 1176.12v114.1h256.78v-114.1h-256.78" transform="matrix(.13333 0 0 -.13333 0 384)"/><path style="fill:none;stroke:#4b5775;stroke-width:5.76000023;stroke-linecap:butt;stroke-linejoin:miter;stroke-miterlimit:10;stroke-dasharray:none;stroke-opacity:1" d="M1066.73 1178.96v108.41h251.08v-108.41z" transform="matrix(.13333 0 0 -.13333 0 384)"/><path style="fill:#6f7991;fill-opacity:1;fill-rule:nonzero;stroke:none" d="M1430.67 1290.22v190.08h256.66v-190.08h-256.66" transform="matrix(.13333 0 0 -.13333 0 384)"/><path style="fill:none;stroke:#4b5775;stroke-width:5.76000023;stroke-linecap:butt;stroke-linejoin:miter;stroke-miterlimit:10;stroke-dasharray:none;stroke-opacity:1" d="M1433.52 1293.06v184.39h250.96v-184.39z" transform="matrix(.13333 0 0 -.13333 0 384)"/><path style="fill:#6f7991;fill-opacity:1;fill-rule:nonzero;stroke:none" d="M1797.34 1290.22v75.98h256.79v-75.98h-256.79" transform="matrix(.13333 0 0 -.13333 0 384)"/><path style="fill:none;stroke:#4b5775;stroke-width:5.76000023;stroke-linecap:butt;stroke-linejoin:miter;stroke-miterlimit:10;stroke-dasharray:none;stroke-opacity:1" d="M1800.19 1293.06v70.3h251.09v-70.3z" transform="matrix(.13333 0 0 -.13333 0 384)"/><path style="fill:#6f7991;fill-opacity:1;fill-rule:nonzero;stroke:none" d="M2164.14 1062.02v228.2h256.78v-228.2h-256.78" transform="matrix(.13333 0 0 -.13333 0 384)"/><path style="fill:none;stroke:#4b5775;stroke-width:5.76000023;stroke-linecap:butt;stroke-linejoin:miter;stroke-miterlimit:10;stroke-dasharray:none;stroke-opacity:1" d="M2166.99 1064.87v222.5h251.08v-222.5z" transform="matrix(.13333 0 0 -.13333 0 384)"/><path style="fill:#6f7991;fill-opacity:1;fill-rule:nonzero;stroke:none" d="M2530.93 986.039v304.181h256.66V986.039h-256.66" transform="matrix(.13333 0 0 -.13333 0 384)"/><path style="fill:none;stroke:#4b5775;stroke-width:5.76000023;stroke-linecap:butt;stroke-linejoin:miter;stroke-miterlimit:10;stroke-dasharray:none;stroke-opacity:1" d="M2533.78 988.887v298.483h250.97V988.887z" transform="matrix(.13333 0 0 -.13333 0 384)"/><path style="fill:#6f7991;fill-opacity:1;fill-rule:nonzero;stroke:none" d="M2897.61 1290.22v114.1h256.78v-114.1h-256.78" transform="matrix(.13333 0 0 -.13333 0 384)"/><path style="fill:none;stroke:#4b5775;stroke-width:5.76000023;stroke-linecap:butt;stroke-linejoin:miter;stroke-miterlimit:10;stroke-dasharray:none;stroke-opacity:1" d="M2900.45 1293.06v108.41h251.09v-108.41z" transform="matrix(.13333 0 0 -.13333 0 384)"/><path style="fill:#6f7991;fill-opacity:1;fill-rule:nonzero;stroke:none" d="M3264.4 1290.22v342.17h256.78v-342.17H3264.4" transform="matrix(.13333 0 0 -.13333 0 384)"/><path style="fill:none;stroke:#4b5775;stroke-width:5.76000023;stroke-linecap:butt;stroke-linejoin:miter;stroke-miterlimit:10;stroke-dasharray:none;stroke-opacity:1" d="M3267.25 1293.06v336.48h251.09v-336.48z" transform="matrix(.13333 0 0 -.13333 0 384)"/><path style="fill:#6f7991;fill-opacity:1;fill-rule:nonzero;stroke:none" d="M3631.2 1290.22v532.24h256.66v-532.24H3631.2" transform="matrix(.13333 0 0 -.13333 0 384)"/><path style="fill:none;stroke:#4b5775;stroke-width:5.76000023;stroke-linecap:butt;stroke-linejoin:miter;stroke-miterlimit:10;stroke-dasharray:none;stroke-opacity:1" d="M3634.04 1293.06v526.56h250.97v-526.56z" transform="matrix(.13333 0 0 -.13333 0 384)"/><text style="font-variant:normal;font-weight:400;font-size:9.9989996px;font-family:Helvetica;-inkscape-font-specification:Helvetica;writing-mode:lr-tb;fill:#000;fill-opacity:1;fill-rule:nonzero;stroke:none" transform="matrix(1.33333 0 0 1.33333 196.016 181.033)"><tspan y="0" x="0 3.3296671 8.8891106 14.448555">(75)</tspan><tspan y="11.41" x="36.679298 40.008968 45.568413 51.127853">(75)</tspan><tspan y="7.598" x="146.70531 150.03497 155.59441 161.15385">(75)</tspan><tspan y="-15.209" x="183.3725 186.70216 192.26161 197.82106">(75)</tspan><tspan y="-34.217" x="220.0518 223.38147 228.94092 234.50035">(75)</tspan><tspan y="95.238" x="-73.347198 -70.017532 -64.458092 -58.898643">(75)</tspan><tspan y="45.812" x="-36.68 -33.350334 -27.79089 -22.231445">(75)</tspan><tspan y="57.222" x="73.346001 76.675667 82.235107 87.794556">(75)</tspan><tspan y="64.82" x="110.0257 113.35537 118.91481 124.47426">(75)</tspan></text><path style="fill:none;stroke:#000;stroke-width:5.76000023;stroke-linecap:butt;stroke-linejoin:miter;stroke-miterlimit:10;stroke-dasharray:none;stroke-opacity:1" d="M633.723 328.68v2308.06M633.723 392.039h-39.969" transform="matrix(.13333 0 0 -.13333 0 384)"/><text style="font-variant:normal;font-weight:400;font-size:11.00139999px;font-family:Helvetica;-inkscape-font-specification:Helvetica;writing-mode:lr-tb;fill:#000;fill-opacity:1;fill-rule:nonzero;stroke:none" transform="matrix(1.33333 0 0 1.33333 39.401 336.86)"><tspan y="0" x="0 6.4248176 12.541596 15.599985 21.716764">−1.75</tspan></text><path style="fill:none;stroke:#000;stroke-width:5.76000023;stroke-linecap:butt;stroke-linejoin:miter;stroke-miterlimit:10;stroke-dasharray:none;stroke-opacity:1" d="M633.723 520.246h-39.969" transform="matrix(.13333 0 0 -.13333 0 384)"/><text style="font-variant:normal;font-weight:400;font-size:11.00139999px;font-family:Helvetica;-inkscape-font-specification:Helvetica;writing-mode:lr-tb;fill:#000;fill-opacity:1;fill-rule:nonzero;stroke:none" transform="matrix(1.33333 0 0 1.33333 39.401 319.766)"><tspan y="0" x="0 6.4248176 12.541596 15.599985 21.716764">−1.50</tspan></text><path style="fill:none;stroke:#000;stroke-width:5.76000023;stroke-linecap:butt;stroke-linejoin:miter;stroke-miterlimit:10;stroke-dasharray:none;stroke-opacity:1" d="M633.723 648.574h-39.969" transform="matrix(.13333 0 0 -.13333 0 384)"/><text style="font-variant:normal;font-weight:400;font-size:11.00139999px;font-family:Helvetica;-inkscape-font-specification:Helvetica;writing-mode:lr-tb;fill:#000;fill-opacity:1;fill-rule:nonzero;stroke:none" transform="matrix(1.33333 0 0 1.33333 39.401 302.655)"><tspan y="0" x="0 6.4248176 12.541596 15.599985 21.716764">−1.25</tspan></text><path style="fill:none;stroke:#000;stroke-width:5.76000023;stroke-linecap:butt;stroke-linejoin:miter;stroke-miterlimit:10;stroke-dasharray:none;stroke-opacity:1" d="M633.723 776.902h-39.969" transform="matrix(.13333 0 0 -.13333 0 384)"/><text style="font-variant:normal;font-weight:400;font-size:11.00139999px;font-family:Helvetica;-inkscape-font-specification:Helvetica;writing-mode:lr-tb;fill:#000;fill-opacity:1;fill-rule:nonzero;stroke:none" transform="matrix(1.33333 0 0 1.33333 39.401 285.544)"><tspan y="0" x="0 6.4248176 12.541596 15.599985 21.716764">−1.00</tspan></text><path style="fill:none;stroke:#000;stroke-width:5.76000023;stroke-linecap:butt;stroke-linejoin:miter;stroke-miterlimit:10;stroke-dasharray:none;stroke-opacity:1" d="M633.723 905.23h-39.969" transform="matrix(.13333 0 0 -.13333 0 384)"/><text style="font-variant:normal;font-weight:400;font-size:11.00139999px;font-family:Helvetica;-inkscape-font-specification:Helvetica;writing-mode:lr-tb;fill:#000;fill-opacity:1;fill-rule:nonzero;stroke:none" transform="matrix(1.33333 0 0 1.33333 39.401 268.434)"><tspan y="0" x="0 6.4248176 12.541596 15.599985 21.716764">−0.75</tspan></text><path style="fill:none;stroke:#000;stroke-width:5.76000023;stroke-linecap:butt;stroke-linejoin:miter;stroke-miterlimit:10;stroke-dasharray:none;stroke-opacity:1" d="M633.723 1033.56h-39.969" transform="matrix(.13333 0 0 -.13333 0 384)"/><text style="font-variant:normal;font-weight:400;font-size:11.00139999px;font-family:Helvetica;-inkscape-font-specification:Helvetica;writing-mode:lr-tb;fill:#000;fill-opacity:1;fill-rule:nonzero;stroke:none" transform="matrix(1.33333 0 0 1.33333 39.401 251.323)"><tspan y="0" x="0 6.4248176 12.541596 15.599985 21.716764">−0.50</tspan></text><path style="fill:none;stroke:#000;stroke-width:5.76000023;stroke-linecap:butt;stroke-linejoin:miter;stroke-miterlimit:10;stroke-dasharray:none;stroke-opacity:1" d="M633.723 1161.89h-39.969" transform="matrix(.13333 0 0 -.13333 0 384)"/><text style="font-variant:normal;font-weight:400;font-size:11.00139999px;font-family:Helvetica;-inkscape-font-specification:Helvetica;writing-mode:lr-tb;fill:#000;fill-opacity:1;fill-rule:nonzero;stroke:none" transform="matrix(1.33333 0 0 1.33333 39.401 234.213)"><tspan y="0" x="0 6.4248176 12.541596 15.599985 21.716764">−0.25</tspan></text><path style="fill:none;stroke:#000;stroke-width:5.76000023;stroke-linecap:butt;stroke-linejoin:miter;stroke-miterlimit:10;stroke-dasharray:none;stroke-opacity:1" d="M633.723 1290.22h-39.969" transform="matrix(.13333 0 0 -.13333 0 384)"/><text style="font-variant:normal;font-weight:400;font-size:11.00139999px;font-family:Helvetica;-inkscape-font-specification:Helvetica;writing-mode:lr-tb;fill:#000;fill-opacity:1;fill-rule:nonzero;stroke:none" transform="matrix(1.33333 0 0 1.33333 47.967 217.103)"><tspan y="0" x="0 6.1167784 9.175168 15.291946">0.00</tspan></text><path style="fill:none;stroke:#000;stroke-width:5.76000023;stroke-linecap:butt;stroke-linejoin:miter;stroke-miterlimit:10;stroke-dasharray:none;stroke-opacity:1" d="M633.723 1418.55h-39.969" transform="matrix(.13333 0 0 -.13333 0 384)"/><text style="font-variant:normal;font-weight:400;font-size:11.00139999px;font-family:Helvetica;-inkscape-font-specification:Helvetica;writing-mode:lr-tb;fill:#000;fill-opacity:1;fill-rule:nonzero;stroke:none" transform="matrix(1.33333 0 0 1.33333 47.967 199.992)"><tspan y="0" x="0 6.1167784 9.175168 15.291946">0.25</tspan></text><path style="fill:none;stroke:#000;stroke-width:5.76000023;stroke-linecap:butt;stroke-linejoin:miter;stroke-miterlimit:10;stroke-dasharray:none;stroke-opacity:1" d="M633.723 1546.88h-39.969" transform="matrix(.13333 0 0 -.13333 0 384)"/><text style="font-variant:normal;font-weight:400;font-size:11.00139999px;font-family:Helvetica;-inkscape-font-specification:Helvetica;writing-mode:lr-tb;fill:#000;fill-opacity:1;fill-rule:nonzero;stroke:none" transform="matrix(1.33333 0 0 1.33333 47.967 182.881)"><tspan y="0" x="0 6.1167784 9.175168 15.291946">0.50</tspan></text><path style="fill:none;stroke:#000;stroke-width:5.76000023;stroke-linecap:butt;stroke-linejoin:miter;stroke-miterlimit:10;stroke-dasharray:none;stroke-opacity:1" d="M633.723 1675.2h-39.969" transform="matrix(.13333 0 0 -.13333 0 384)"/><text style="font-variant:normal;font-weight:400;font-size:11.00139999px;font-family:Helvetica;-inkscape-font-specification:Helvetica;writing-mode:lr-tb;fill:#000;fill-opacity:1;fill-rule:nonzero;stroke:none" transform="matrix(1.33333 0 0 1.33333 47.967 165.77)"><tspan y="0" x="0 6.1167784 9.175168 15.291946">0.75</tspan></text><path style="fill:none;stroke:#000;stroke-width:5.76000023;stroke-linecap:butt;stroke-linejoin:miter;stroke-miterlimit:10;stroke-dasharray:none;stroke-opacity:1" d="M633.723 1803.41h-39.969" transform="matrix(.13333 0 0 -.13333 0 384)"/><text style="font-variant:normal;font-weight:400;font-size:11.00139999px;font-family:Helvetica;-inkscape-font-specification:Helvetica;writing-mode:lr-tb;fill:#000;fill-opacity:1;fill-rule:nonzero;stroke:none" transform="matrix(1.33333 0 0 1.33333 47.967 148.677)"><tspan y="0" x="0 6.1167784 9.175168 15.291946">1.00</tspan></text><path style="fill:none;stroke:#000;stroke-width:5.76000023;stroke-linecap:butt;stroke-linejoin:miter;stroke-miterlimit:10;stroke-dasharray:none;stroke-opacity:1" d="M633.723 1931.74h-39.969" transform="matrix(.13333 0 0 -.13333 0 384)"/><text style="font-variant:normal;font-weight:400;font-size:11.00139999px;font-family:Helvetica;-inkscape-font-specification:Helvetica;writing-mode:lr-tb;fill:#000;fill-opacity:1;fill-rule:nonzero;stroke:none" transform="matrix(1.33333 0 0 1.33333 47.967 131.567)"><tspan y="0" x="0 6.1167784 9.175168 15.291946">1.25</tspan></text><path style="fill:none;stroke:#000;stroke-width:5.76000023;stroke-linecap:butt;stroke-linejoin:miter;stroke-miterlimit:10;stroke-dasharray:none;stroke-opacity:1" d="M633.723 2060.07h-39.969" transform="matrix(.13333 0 0 -.13333 0 384)"/><text style="font-variant:normal;font-weight:400;font-size:11.00139999px;font-family:Helvetica;-inkscape-font-specification:Helvetica;writing-mode:lr-tb;fill:#000;fill-opacity:1;fill-rule:nonzero;stroke:none" transform="matrix(1.33333 0 0 1.33333 47.967 114.456)"><tspan y="0" x="0 6.1167784 9.175168 15.291946">1.50</tspan></text><path style="fill:none;stroke:#000;stroke-width:5.76000023;stroke-linecap:butt;stroke-linejoin:miter;stroke-miterlimit:10;stroke-dasharray:none;stroke-opacity:1" d="M633.723 2188.39h-39.969" transform="matrix(.13333 0 0 -.13333 0 384)"/><text style="font-variant:normal;font-weight:400;font-size:11.00139999px;font-family:Helvetica;-inkscape-font-specification:Helvetica;writing-mode:lr-tb;fill:#000;fill-opacity:1;fill-rule:nonzero;stroke:none" transform="matrix(1.33333 0 0 1.33333 47.967 97.345)"><tspan y="0" x="0 6.1167784 9.175168 15.291946">1.75</tspan></text><path style="fill:none;stroke:#000;stroke-width:5.76000023;stroke-linecap:butt;stroke-linejoin:miter;stroke-miterlimit:10;stroke-dasharray:none;stroke-opacity:1" d="M633.723 2316.72h-39.969" transform="matrix(.13333 0 0 -.13333 0 384)"/><text style="font-variant:normal;font-weight:400;font-size:11.00139999px;font-family:Helvetica;-inkscape-font-specification:Helvetica;writing-mode:lr-tb;fill:#000;fill-opacity:1;fill-rule:nonzero;stroke:none" transform="matrix(1.33333 0 0 1.33333 47.967 80.235)"><tspan y="0" x="0 6.1167784 9.175168 15.291946">2.00</tspan></text><path style="fill:none;stroke:#000;stroke-width:5.76000023;stroke-linecap:butt;stroke-linejoin:miter;stroke-miterlimit:10;stroke-dasharray:none;stroke-opacity:1" d="M633.723 2445.05h-39.969" transform="matrix(.13333 0 0 -.13333 0 384)"/><text style="font-variant:normal;font-weight:400;font-size:11.00139999px;font-family:Helvetica;-inkscape-font-specification:Helvetica;writing-mode:lr-tb;fill:#000;fill-opacity:1;fill-rule:nonzero;stroke:none" transform="matrix(1.33333 0 0 1.33333 47.967 63.124)"><tspan y="0" x="0 6.1167784 9.175168 15.291946">2.25</tspan></text><path style="fill:none;stroke:#000;stroke-width:5.76000023;stroke-linecap:butt;stroke-linejoin:miter;stroke-miterlimit:10;stroke-dasharray:none;stroke-opacity:1" d="M633.723 2573.38h-39.969" transform="matrix(.13333 0 0 -.13333 0 384)"/><text style="font-variant:normal;font-weight:400;font-size:11.00139999px;font-family:Helvetica;-inkscape-font-specification:Helvetica;writing-mode:lr-tb;fill:#000;fill-opacity:1;fill-rule:nonzero;stroke:none" transform="matrix(1.33333 0 0 1.33333 47.967 46.015)"><tspan y="0" x="0 6.1167784 9.175168 15.291946">2.50</tspan></text><text style="font-variant:normal;font-weight:400;font-size:12.00370026px;font-family:Helvetica;-inkscape-font-specification:Helvetica;writing-mode:lr-tb;fill:#000;fill-opacity:1;fill-rule:nonzero;stroke:none" transform="matrix(0 -1.33333 1.33333 0 15.015 234.79)"><tspan y="0" x="0 8.6666718 15.340729 18.677757 22.014786 30.021254 36.695312 40.692543 46.694393 53.36845 60.042507 66.044357">Net Purchase</tspan><tspan y="12.004" x="-26.0219 -22.684872 -19.347843 -15.350611 -8.6765537 -2.6747036 0.66232508 3.3271465 10.001204 16.675261 20.012289 26.686346 30.023375 33.360405 36.697433 43.37149 46.708519 53.382576 56.047398 59.384426 65.386276 72.060333 78.73439 82.731621 89.405678 95.407532">[fraction of total shares]</tspan></text><path style="fill:none;stroke:#000;stroke-width:5.76000023;stroke-linecap:butt;stroke-linejoin:miter;stroke-miterlimit:10;stroke-dasharray:none;stroke-opacity:1" d="M633.723 328.68H3951.21M825.535 328.68v-40.094" transform="matrix(.13333 0 0 -.13333 0 384)"/><text style="font-variant:normal;font-weight:400;font-size:11.00139999px;font-family:Helvetica;-inkscape-font-specification:Helvetica;writing-mode:lr-tb;fill:#000;fill-opacity:1;fill-rule:nonzero;stroke:none" transform="matrix(1.33333 0 0 1.33333 105.994 358.442)"><tspan y="0" x="0">1</tspan></text><path style="fill:none;stroke:#000;stroke-width:5.76000023;stroke-linecap:butt;stroke-linejoin:miter;stroke-miterlimit:10;stroke-dasharray:none;stroke-opacity:1" d="M1192.21 328.68v-40.094" transform="matrix(.13333 0 0 -.13333 0 384)"/><text style="font-variant:normal;font-weight:400;font-size:11.00139999px;font-family:Helvetica;-inkscape-font-specification:Helvetica;writing-mode:lr-tb;fill:#000;fill-opacity:1;fill-rule:nonzero;stroke:none" transform="matrix(1.33333 0 0 1.33333 154.884 358.442)"><tspan y="0" x="0">2</tspan></text><path style="fill:none;stroke:#000;stroke-width:5.76000023;stroke-linecap:butt;stroke-linejoin:miter;stroke-miterlimit:10;stroke-dasharray:none;stroke-opacity:1" d="M1559 328.68v-40.094" transform="matrix(.13333 0 0 -.13333 0 384)"/><text style="font-variant:normal;font-weight:400;font-size:11.00139999px;font-family:Helvetica;-inkscape-font-specification:Helvetica;writing-mode:lr-tb;fill:#000;fill-opacity:1;fill-rule:nonzero;stroke:none" transform="matrix(1.33333 0 0 1.33333 203.79 358.442)"><tspan y="0" x="0">3</tspan></text><path style="fill:none;stroke:#000;stroke-width:5.76000023;stroke-linecap:butt;stroke-linejoin:miter;stroke-miterlimit:10;stroke-dasharray:none;stroke-opacity:1" d="M1925.8 328.68v-40.094" transform="matrix(.13333 0 0 -.13333 0 384)"/><text style="font-variant:normal;font-weight:400;font-size:11.00139999px;font-family:Helvetica;-inkscape-font-specification:Helvetica;writing-mode:lr-tb;fill:#000;fill-opacity:1;fill-rule:nonzero;stroke:none" transform="matrix(1.33333 0 0 1.33333 252.695 358.442)"><tspan y="0" x="0">4</tspan></text><path style="fill:none;stroke:#000;stroke-width:5.76000023;stroke-linecap:butt;stroke-linejoin:miter;stroke-miterlimit:10;stroke-dasharray:none;stroke-opacity:1" d="M2292.47 328.68v-40.094" transform="matrix(.13333 0 0 -.13333 0 384)"/><text style="font-variant:normal;font-weight:400;font-size:11.00139999px;font-family:Helvetica;-inkscape-font-specification:Helvetica;writing-mode:lr-tb;fill:#000;fill-opacity:1;fill-rule:nonzero;stroke:none" transform="matrix(1.33333 0 0 1.33333 301.585 358.442)"><tspan y="0" x="0">5</tspan></text><path style="fill:none;stroke:#000;stroke-width:5.76000023;stroke-linecap:butt;stroke-linejoin:miter;stroke-miterlimit:10;stroke-dasharray:none;stroke-opacity:1" d="M2659.27 328.68v-40.094" transform="matrix(.13333 0 0 -.13333 0 384)"/><text style="font-variant:normal;font-weight:400;font-size:11.00139999px;font-family:Helvetica;-inkscape-font-specification:Helvetica;writing-mode:lr-tb;fill:#000;fill-opacity:1;fill-rule:nonzero;stroke:none" transform="matrix(1.33333 0 0 1.33333 350.49 358.442)"><tspan y="0" x="0">6</tspan></text><path style="fill:none;stroke:#000;stroke-width:5.76000023;stroke-linecap:butt;stroke-linejoin:miter;stroke-miterlimit:10;stroke-dasharray:none;stroke-opacity:1" d="M3026.06 328.68v-40.094" transform="matrix(.13333 0 0 -.13333 0 384)"/><text style="font-variant:normal;font-weight:400;font-size:11.00139999px;font-family:Helvetica;-inkscape-font-specification:Helvetica;writing-mode:lr-tb;fill:#000;fill-opacity:1;fill-rule:nonzero;stroke:none" transform="matrix(1.33333 0 0 1.33333 399.397 358.442)"><tspan y="0" x="0">7</tspan></text><path style="fill:none;stroke:#000;stroke-width:5.76000023;stroke-linecap:butt;stroke-linejoin:miter;stroke-miterlimit:10;stroke-dasharray:none;stroke-opacity:1" d="M3392.73 328.68v-40.094" transform="matrix(.13333 0 0 -.13333 0 384)"/><text style="font-variant:normal;font-weight:400;font-size:11.00139999px;font-family:Helvetica;-inkscape-font-specification:Helvetica;writing-mode:lr-tb;fill:#000;fill-opacity:1;fill-rule:nonzero;stroke:none" transform="matrix(1.33333 0 0 1.33333 448.287 358.442)"><tspan y="0" x="0">8</tspan></text><path style="fill:none;stroke:#000;stroke-width:5.76000023;stroke-linecap:butt;stroke-linejoin:miter;stroke-miterlimit:10;stroke-dasharray:none;stroke-opacity:1" d="M3759.52 328.68v-40.094" transform="matrix(.13333 0 0 -.13333 0 384)"/><g><text style="font-variant:normal;font-weight:400;font-size:11.00139999px;font-family:Helvetica;-inkscape-font-specification:Helvetica;writing-mode:lr-tb;fill:#000;fill-opacity:1;fill-rule:nonzero;stroke:none" transform="matrix(1.33333 0 0 1.33333 497.192 358.442)"><tspan y="0" x="0">9</tspan></text><text style="font-variant:normal;font-weight:400;font-size:12.00370026px;font-family:Helvetica;-inkscape-font-specification:Helvetica;writing-mode:lr-tb;fill:#000;fill-opacity:1;fill-rule:nonzero;stroke:none" transform="matrix(1.33333 0 0 1.33333 211.157 375.387)"><tspan y="0" x="0 8.6666718 15.340729 22.014786 28.016636 31.353664 38.027721 41.36475 44.701778 52.708248 59.382305 66.056358 70.053596 73.390625 80.40078 87.735046 94.409103 98.406334 108.40542 111.74245 119.74891 126.42297 129.08778 131.75261 138.42667">Rank of Short−Term Belief</tspan></text><text style="font-variant:normal;font-weight:400;font-size:19.99799919px;font-family:Helvetica;-inkscape-font-specification:Helvetica;writing-mode:lr-tb;fill:#000;fill-opacity:1;fill-rule:nonzero;stroke:none" transform="matrix(1.33333 0 0 1.33333 278.999 22.14)"><tspan y="0" x="0 14.438556 25.557444">HLN</tspan></text></g></svg>